<svg width="512" height="512" xmlns="http://www.w3.org/2000/svg" xml:space="preserve" version="1.1">

 <g>
  <title>Layer 1</title>
  <g id="svg_1">
   <path id="svg_2" fill="#FEFEFE" d="m330.18,82.01c-1.48,-3.32 0,-6.63 3.09,-8.8c3.01,-2.12 6.28,-2.28 9.48,-0.5c2.98,1.67 12.65,18.8 12.73,23.34c-0.03,2.68 -2.16,5.1 -5.41,6.62c-3.22,1.49 -6.48,1.2 -8.72,-1.53c-4.72,-5.76 -8.18,-12.37 -11.17,-19.13z" class="st0"/>
   <path id="svg_3" fill="#FEFEFE" d="m372.54,86.26c-0.23,-6.02 -0.22,-12.05 0,-18.07c0.19,-4.98 3.42,-8.02 8.02,-8.14c4.94,-0.13 8.42,2.87 8.83,7.94c0.24,2.99 0.04,6.02 0.04,9.03c0.01,0 0.01,0 0.02,0c0,3.01 0.16,6.03 -0.04,9.03c-0.33,5.11 -3.76,8.25 -8.61,8.17c-4.64,-0.1 -8.07,-3.14 -8.26,-7.96z" class="st0"/>
   <path id="svg_4" fill="#FEFEFE" d="m407.52,91.09c2.62,-5.2 5.58,-10.23 8.7,-15.14c2.79,-4.4 7.38,-5.44 11.49,-3.11c4.19,2.4 5.53,6.73 3.1,11.39c-2.61,5 -5.48,9.87 -8.37,14.72c-1.62,2.7 -4.02,4.41 -7.01,4.57c-6.72,-0.15 -10.82,-6.61 -7.91,-12.43z" class="st0"/>
   <path id="svg_5" fill="#FEFEFE" d="m511.91,350.57c0.01,13.41 0.05,26.83 0.03,40.25c-0.02,7.54 -2.97,10.64 -10.56,10.69c-14.83,0.1 -29.66,0.01 -44.48,-0.01c-5.81,29.38 -29.3,49.92 -57.55,50.33c-29.86,0.44 -54.33,-19.97 -60.27,-50.27c-57.22,-0.01 -114.44,-0.01 -171.66,-0.02c-5.74,29.59 -29.61,50.16 -58.39,50.3c-29.37,0.14 -53.35,-20.16 -59.45,-50.34c-12.72,0.01 -25.43,0.09 -38.16,0.03c-8.08,-0.04 -11.1,-3.13 -11.16,-11.36c-0.07,-13.07 -0.07,-26.15 -0.11,-39.21c-0.03,-21.99 -0.12,-43.96 -0.13,-65.94c-0.02,-53.9 -0.04,-107.78 0.03,-161.67c0.01,-10.41 3.06,-19.57 12.69,-25.21c4.33,-2.54 9.13,-3.88 14.15,-3.88c90.58,-0.03 181.15,-0.05 271.73,0c14.27,0.01 25.82,11.81 25.93,26.15c0.05,6.74 0.19,13.49 -0.06,20.21c-0.16,3.81 1.26,4.88 4.9,4.78c8.68,-0.21 17.36,-0.09 26.05,-0.09c0.2,-5.11 -0.55,-10.24 0.94,-15.3c3.58,-12.08 15.21,-20.05 27.5,-18.63c12.4,1.42 22.24,12.23 22.6,24.89c0.09,3.01 0.01,6.03 0.01,9.04c4.96,0 9.92,0.22 14.87,-0.02c18.56,-0.93 26.41,9.54 30.69,23.51c8.01,26.14 15.69,52.38 23.42,78.59c0.84,2.85 2.4,5.04 4.45,7.07c8.93,8.86 17.75,17.82 26.71,26.64c3.58,3.52 5.43,7.31 5.36,12.62c-0.29,18.93 -0.09,37.9 -0.08,56.85z" class="st0"/>
   <path id="svg_6" fill="#DAE8ED" d="m511.91,350.57c-1.48,1.5 -3.4,1.81 -5.36,1.81c-21.12,-0.03 -42.25,0.38 -63.36,-0.2c-0.06,-0.01 -0.13,-0.02 -0.19,-0.03c-0.38,-0.06 -0.76,-0.15 -1.12,-0.26c-2.5,-0.7 -4.54,-2.3 -6.52,-3.96c-21.96,-18.21 -50.94,-18.62 -73.43,-1.03c-2.15,1.69 -4.19,3.56 -6.73,4.58c-0.42,0.18 -0.84,0.33 -1.29,0.44c-0.35,0.11 -0.71,0.18 -1.09,0.24c-2.3,0.36 -4.6,0.3 -6.9,0.3c-61.75,0.01 -123.5,0 -185.24,0c-2.3,0 -4.61,0.07 -6.88,-0.26c-0.42,-0.06 -0.83,-0.15 -1.22,-0.26c-0.45,-0.12 -0.87,-0.27 -1.29,-0.44c-1.97,-0.81 -3.67,-2.14 -5.33,-3.51c-22.23,-18.38 -51.13,-18.71 -73.81,-0.84c-2.41,1.9 -4.71,3.98 -7.74,4.77c-0.3,0.09 -0.6,0.15 -0.92,0.2c-0.1,0 -0.19,0.01 -0.29,0.01c-19.37,0.63 -38.72,0.19 -58.08,0.23c-1.77,0.01 -3.56,-0.13 -4.99,-1.41c-0.01,-21.98 -0.1,-43.95 -0.11,-65.93c-0.02,-53.9 -0.04,-107.78 0.03,-161.67c0.01,-10.41 3.06,-19.57 12.69,-25.21c4.33,-2.54 9.13,-3.88 14.15,-3.88c90.58,-0.03 181.15,-0.05 271.73,0c14.27,0.01 25.82,11.81 25.93,26.15c0.05,6.74 0.19,13.49 -0.06,20.21c-0.16,3.81 1.26,4.88 4.9,4.78c8.68,-0.21 17.36,-0.09 26.05,-0.09c1.86,-1.69 4.19,-1.68 6.48,-1.69c12.69,-0.05 25.38,-0.05 38.07,0c2.29,0.01 4.63,-0.01 6.49,1.69c4.96,0 9.92,0.22 14.87,-0.02c18.56,-0.93 26.41,9.54 30.69,23.51c8.01,26.14 15.69,52.38 23.42,78.59c0.84,2.85 2.4,5.04 4.45,7.07c8.93,8.86 17.75,17.82 26.71,26.64c3.58,3.52 5.43,7.31 5.36,12.62c-0.28,18.93 -0.08,37.9 -0.07,56.85z" class="st1"/>
   <path id="svg_7" fill="#FE6B6B" d="m353.31,355.31c-10.25,12.13 -14.16,26.25 -13.35,41.9c0.07,1.48 0.9,3.2 -0.88,4.33c-57.22,-0.01 -114.44,-0.01 -171.66,-0.02c-1.93,-1.58 -0.81,-3.62 -0.75,-5.43c0.54,-15.08 -3.6,-28.6 -13.11,-40.39c-1.03,-1.28 -2.25,-2.5 -2.25,-4.21c0,-0.3 0.04,-0.61 0.12,-0.94c52.65,-0.04 105.28,-0.1 157.93,-0.12c15.25,-0.01 30.47,0.07 45.72,0.12l0.01,0c0.09,0.32 0.13,0.63 0.13,0.9c0.02,1.55 -0.95,2.73 -1.91,3.86z" class="st2"/>
   <path id="svg_8" fill="#336589" d="m458.98,396.24c-0.12,1.99 -0.49,3.86 -2.08,5.26c-5.81,29.38 -29.3,49.92 -57.55,50.33c-29.86,0.44 -54.33,-19.97 -60.27,-50.27c-2.73,-18.95 2.8,-35.32 14.85,-49.64c0.37,-0.45 0.76,-0.89 1.15,-1.34l0.01,0c11.3,-10.39 24.25,-17.09 39.83,-17.84c18.04,-0.87 33.16,5.83 46.15,17.98c0.68,0.46 1.32,0.94 1.94,1.44c7.08,5.66 10.36,13.86 13.27,22.14c2.46,7.02 3.15,14.45 2.7,21.94z" class="st3"/>
   <path id="svg_9" fill="#336589" d="m168.04,394.74c-0.09,2.27 -0.42,4.54 -0.63,6.79c-5.74,29.59 -29.61,50.16 -58.39,50.3c-29.37,0.14 -53.35,-20.16 -59.45,-50.34c-1.37,-1.3 -1.87,-2.95 -1.98,-4.77c-0.9,-15.04 3.16,-28.64 11.97,-40.83c1.03,-1.44 2.26,-2.73 3.66,-3.77c0.7,-0.54 1.45,-1.01 2.25,-1.43c11.4,-10.55 24.52,-17.3 40.31,-17.99c17.82,-0.78 32.8,5.86 45.65,17.85c0.39,0.46 0.79,0.92 1.17,1.37c10.32,12.34 16.1,26.39 15.44,42.82z" class="st3"/>
   <path id="svg_10" fill="#FE6B6B" d="m511.94,390.82c-0.02,7.54 -2.97,10.64 -10.56,10.69c-14.83,0.1 -29.66,0.01 -44.48,-0.01c2.43,-18.13 -2.07,-34.25 -13.99,-48.23c-0.37,-0.44 -0.7,-0.9 -1.02,-1.38c-0.28,-0.39 -0.54,-0.8 -0.82,-1.18c23.61,-0.05 47.23,-0.1 70.84,-0.14c0.01,13.41 0.06,26.82 0.03,40.25z" class="st2"/>
   <path id="svg_11" fill="#FE6B6B" d="m64.43,351.92c-10.44,12.47 -16.21,26.66 -15.42,43.28c0.1,2.11 0.37,4.21 0.56,6.3c-12.72,0.01 -25.43,0.09 -38.16,0.03c-8.08,-0.04 -11.1,-3.13 -11.16,-11.36c-0.07,-13.07 -0.07,-26.15 -0.11,-39.21c6.33,-1.14 12.72,-0.46 19.08,-0.48c15.42,-0.05 30.83,0.13 46.24,0.22c-0.34,0.41 -0.68,0.81 -1.03,1.22z" class="st2"/>
   <path id="svg_12" fill="#FE6B6B" d="m406.49,145.31l-51.05,0c0.2,-5.11 -0.55,-10.24 0.94,-15.3c3.58,-12.08 15.21,-20.05 27.5,-18.63c12.4,1.42 22.24,12.23 22.6,24.89c0.09,3.02 0.01,6.03 0.01,9.04z" class="st2"/>
   <path id="svg_13" fill="#FE6B6B" d="m389.4,86.04c-0.33,5.11 -3.76,8.25 -8.61,8.17c-4.63,-0.09 -8.06,-3.13 -8.25,-7.95c-0.23,-6.02 -0.22,-12.05 0,-18.07c0.19,-4.98 3.42,-8.02 8.02,-8.14c4.94,-0.13 8.42,2.87 8.83,7.94c0.24,2.99 0.04,6.02 0.04,9.03c0.01,0 0.01,0 0.02,0c0,3.01 0.16,6.02 -0.05,9.02z" class="st2"/>
   <path id="svg_14" fill="#FE6B6B" d="m355.47,96.04c-0.03,2.68 -2.16,5.1 -5.41,6.62c-3.22,1.49 -6.48,1.2 -8.72,-1.53c-4.72,-5.75 -8.18,-12.36 -11.17,-19.12c-1.48,-3.32 0,-6.63 3.09,-8.8c3.01,-2.12 6.28,-2.28 9.48,-0.5c2.98,1.67 12.65,18.8 12.73,23.33z" class="st2"/>
   <path id="svg_15" fill="#FE6B6B" d="m430.81,84.23c-2.61,5 -5.48,9.87 -8.37,14.72c-1.62,2.7 -4.02,4.41 -7.01,4.57c-6.73,-0.16 -10.83,-6.61 -7.91,-12.44c2.62,-5.2 5.58,-10.23 8.7,-15.14c2.79,-4.4 7.38,-5.44 11.49,-3.11c4.19,2.41 5.53,6.74 3.1,11.4z" class="st2"/>
   <path id="svg_16" fill="#FE6B6B" d="m100.02,230.56c0,-4.96 -0.03,-9.93 0,-14.89c0.05,-7.94 2.88,-10.72 10.99,-10.75c6.38,-0.02 12.77,-0.13 19.15,0.05c2.96,0.08 4.06,-0.8 3.97,-3.88c-0.2,-6.73 -0.11,-13.47 -0.04,-20.21c0.07,-6.97 3.09,-9.97 10.12,-10.01c10.28,-0.06 20.57,-0.06 30.85,0c7,0.04 10.02,3.06 10.09,10.04c0.07,6.56 0.21,13.13 -0.06,19.68c-0.15,3.61 1.18,4.51 4.55,4.39c6.55,-0.23 13.12,-0.12 19.68,-0.05c6.7,0.08 9.82,3.1 9.88,9.72c0.09,10.46 0.08,20.92 0,31.38c-0.05,6.93 -3.12,9.89 -10.18,9.96c-6.56,0.06 -13.12,0.17 -19.68,-0.05c-3.21,-0.11 -4.37,0.81 -4.25,4.16c0.24,6.73 0.14,13.47 0.05,20.21c-0.09,6.62 -3.18,9.69 -9.87,9.73c-10.46,0.07 -20.92,0.08 -31.38,0c-6.67,-0.05 -9.72,-3.11 -9.8,-9.78c-0.08,-6.56 -0.25,-13.13 0.06,-19.68c0.18,-3.88 -1.25,-4.79 -4.85,-4.65c-6.55,0.26 -13.12,0.15 -19.68,0.05c-6.38,-0.09 -9.47,-3.15 -9.59,-9.46c-0.09,-5.32 -0.01,-10.64 -0.01,-15.96z" class="st2"/>
   <path id="svg_17" fill="#33B8EE" d="m388.75,264.52c-13.3,0 -26.6,0.03 -39.9,-0.01c-7.41,-0.03 -10.43,-2.97 -10.45,-10.23c-0.04,-21.63 -0.05,-43.27 0,-64.9c0.02,-6.97 3.07,-9.99 10.11,-10.01c20.04,-0.05 40.07,0.02 60.11,-0.04c5.39,-0.02 8.57,2.44 10.09,7.56c6.42,21.54 12.99,43.03 19.38,64.58c2.45,8.27 -1.27,13.02 -9.99,13.05c-13.1,0.03 -26.22,0 -39.35,0z" class="st4"/>
   <path id="svg_18" fill="#C7D3D8" d="m355.88,281.55c2.83,0 5.66,-0.14 8.48,0.04c4.99,0.31 8.18,3.83 8.09,8.66c-0.09,4.59 -3.2,8.08 -7.93,8.26c-6,0.23 -12.02,0.22 -18.02,0.01c-4.99,-0.18 -8.18,-3.81 -8.09,-8.64c0.09,-4.59 3.21,-7.86 7.93,-8.31c0.35,-0.03 0.71,-0.02 1.06,-0.02c2.83,0 5.66,0 8.48,0z" class="st5"/>
   <path id="svg_19" fill="#DAE8ED" d="m423.51,392.43c-0.1,14 -11.96,25.55 -26,25.34c-13.74,-0.21 -25.12,-11.91 -25.05,-25.75c0.07,-14 11.89,-25.51 26,-25.31c13.77,0.19 25.15,11.87 25.05,25.72z" class="st1"/>
   <path id="svg_20" fill="#DAE8ED" d="m108.44,417.76c-14.01,-0.05 -25.56,-11.81 -25.43,-25.89c0.13,-13.77 11.74,-25.19 25.6,-25.17c14.04,0.03 25.62,11.8 25.44,25.87c-0.17,13.78 -11.82,25.24 -25.61,25.19z" class="st1"/>
  </g>
 </g>
</svg>