<svg width="512" height="512" xmlns="http://www.w3.org/2000/svg" xml:space="preserve" version="1.1">

 <g>
  <title>Layer 1</title>
  <g id="svg_1">
   <path id="svg_2" fill="#82DEE9" d="m512,128.11l0,259.76c-3.29,-0.81 -2.65,-3.84 -3.12,-6.01c-2.73,-12.78 -6.51,-25.14 -13.63,-36.25c-18.64,-29.05 -44.69,-46.29 -79.28,-50.32c-55.22,-6.45 -108.31,33.01 -115.96,91.01c-8,60.65 35.93,113.63 94.39,119.06c1.33,0.11 2.73,0.05 3.86,0.83c0.83,0.58 1.08,1.04 0.98,1.44c0,0.01 0,0.01 0,0.02c-0.15,0.51 -0.89,0.91 -1.65,1.29c-2.6,0.81 -5.28,0.63 -7.94,0.63c-126.48,0.01 -252.97,0.01 -379.44,0.01c-0.84,0 -1.66,0 -2.5,-0.01c-7.25,-0.15 -7.65,-0.55 -7.65,-7.57c0,-122.85 0,-245.69 0.01,-368.54c0,-1.83 -0.29,-3.67 0.31,-5.46c0.09,-0.09 0.16,-0.16 0.25,-0.24c0.13,-0.11 0.25,-0.21 0.39,-0.3c1.31,-0.93 2.89,-0.99 4.46,-1.09c1.83,-0.11 3.67,-0.06 5.5,-0.06c163.49,-0.01 326.97,-0.01 490.45,0.03c3.57,0 7.39,-0.87 10.57,1.77z" class="st0"/>
   <path id="svg_3" fill="#FFD745" d="m512,387.88l0,25.99c-1.49,16.35 -6.9,31.38 -15.92,45.02c-16.75,25.31 -39.58,41.39 -68.96,47.52c-1.65,0.35 -3.33,0.66 -5.03,0.95c-0.99,0.16 -1.99,0.28 -2.99,0.35c-3.3,0.24 -6.63,0.2 -9.81,1.3c-3.39,0.15 -6.92,1.38 -9.9,-1.36c-0.05,0 -0.09,-0.01 -0.14,-0.01c-10.82,-1.36 -21.63,-2.77 -31.86,-6.91c-37.82,-15.31 -61.15,-42.79 -68.17,-83.11c-9.23,-53 22.65,-103.44 72.02,-118.96c42.32,-13.31 79.82,-3.53 111.17,27.99c15.99,16.07 24.9,35.89 28.47,58.18c0.16,1.07 -0.27,2.41 1.12,3.05z" class="st1"/>
   <path id="svg_4" fill="#FEFEFE" d="m394.88,507.79c1.45,0 2.9,-0.1 4.36,-0.14c-0.15,0.51 -0.89,0.91 -1.65,1.29c-2.6,0.81 -5.28,0.63 -7.94,0.63c-126.48,0.01 -252.97,0.01 -379.44,0.01c-0.84,0 -1.66,0 -2.5,-0.01c-7.25,-0.15 -7.65,-0.55 -7.65,-7.57c0,-122.85 0,-245.69 0.01,-368.54c0,-1.83 -0.29,-3.67 0.31,-5.46c0.09,-0.09 0.16,-0.16 0.25,-0.24c0.04,-27.18 0.08,-54.37 0.13,-81.54c1.14,-1.89 2.98,-0.9 4.44,-0.9c13.43,-0.09 26.88,-0.18 40.31,0.02c3.57,0.05 4.47,-1.09 4.38,-4.49c-0.1,-4.27 -0.69,-8.6 0.46,-12.83c0.6,-13.54 11.1,-23.67 24.49,-23.62c13.34,0.05 24.07,10.33 24.57,23.72c0.21,5.63 0.1,11.28 0.13,16.91c1.5,0.08 2.99,0.23 4.48,0.23c101.67,0.01 203.35,0.01 305.02,0c1.33,0 2.67,-0.05 3.99,-0.09c0.01,-5.48 -0.09,-10.97 0.06,-16.44c0.39,-13.81 10.95,-24.22 24.52,-24.34c13.76,-0.11 24.25,10.37 24.57,24.55c0.14,4.29 0.38,8.59 0.35,12.88c-0.01,2.34 0.34,3.63 3.19,3.59c15.42,-0.18 30.84,-0.18 46.27,-0.24c-1.71,1.61 -3.88,1.71 -6.05,1.73c-12.23,0.06 -24.46,0.11 -36.69,-0.02c-4.43,-0.05 -6.32,-0.59 -7.11,-2.99c-0.39,-1.16 -0.51,-2.78 -0.55,-5.01c-0.05,-2.8 0.28,-5.63 -0.49,-8.37c-0.01,-0.06 -0.04,-0.14 -0.04,-0.2c-0.25,-1.06 -0.34,-2.15 -0.44,-3.24c-1.28,-12.21 -11.4,-21.49 -23.05,-21.13c-13.01,0.41 -22.67,10 -22.98,22.85c-0.1,3.99 0.08,7.99 -0.09,11.97c-0.06,1.58 -0.05,3.23 -1.04,4.42c-0.05,0.06 -0.11,0.13 -0.18,0.19c-0.3,0.31 -0.69,0.59 -1.18,0.81c-0.05,0.02 -0.11,0.05 -0.16,0.08c-2.48,0.6 -4.98,0.38 -7.46,0.38c-98.76,0.01 -197.51,0.01 -296.27,0c-2.49,0 -4.99,0.2 -7.45,-0.3c-0.15,-0.05 -0.29,-0.11 -0.43,-0.18c-0.06,-0.03 -0.13,-0.05 -0.18,-0.09c-0.26,-0.13 -0.49,-0.28 -0.69,-0.44c-1.34,-1.1 -1.39,-2.89 -1.46,-4.62c-0.18,-3.99 0,-7.99 -0.09,-11.97c-0.28,-12.98 -9.61,-22.7 -22.77,-23.01c-11.47,-0.28 -22.46,8.5 -23.28,20.28c-0.08,1 -0.23,1.99 -0.45,2.97c-0.93,3.62 -0.35,7.3 -0.51,10.94c-0.04,1.04 -0.11,1.9 -0.23,2.64l0,0.01c-0.1,0.63 -0.24,1.15 -0.44,1.59c-0.14,0.3 -0.3,0.56 -0.5,0.79c-0.33,0.39 -0.78,0.68 -1.35,0.88c-0.94,0.35 -2.25,0.46 -4.06,0.48c-11.8,0.1 -23.62,0.03 -35.43,0.04c-2.15,0 -4.38,-0.26 -5.93,1.77c-0.98,2.4 -0.66,4.92 -0.66,7.39c-0.04,21.37 0,42.74 -0.05,64.11c0,2.58 0.44,5.31 -1.26,7.57c-0.11,0.16 -0.25,0.33 -0.39,0.48c-0.03,40.12 -0.08,80.25 -0.08,120.39c-0.01,84.25 -0.01,168.49 -0.01,252.75c0,6.7 0.01,6.7 6.8,6.7c129.21,-0.03 258.39,-0.02 387.57,-0.02z" class="st2"/>
   <path id="svg_5" fill="#FEFEFE" d="m512,507.78c-30.98,-0.03 -61.94,-0.05 -92.91,-0.08c-3.3,0.24 -6.63,0.2 -9.81,1.3c-3.39,0.15 -6.92,1.38 -9.9,-1.36c3.49,0.01 7,0.03 10.5,0.04c0.04,0 0.09,0 0.13,-0.01c5.71,-0.3 11.42,-0.89 17.11,-1.26c2.84,-0.2 5.68,-0.34 8.52,-0.36c22.6,-0.18 45.2,-0.08 67.8,-0.04c2.94,0 6.04,-0.47 8.56,1.77z" class="st2"/>
   <path id="svg_6" fill="#474545" d="m512,45.18l0,82.93c-2.17,-0.02 -4.33,-0.08 -6.5,-0.08l-498.38,0c-2.17,0 -4.33,-0.06 -6.48,-0.1l0,-0.18c0.04,-27.18 0.08,-54.37 0.13,-81.54c2.22,-1.06 4.57,-0.48 6.86,-0.5c11.64,-0.06 23.3,0.41 34.91,-0.15c2.42,-0.13 4.83,-0.23 7.24,-0.33c0.39,-0.01 0.76,-0.03 1.14,-0.05c0.66,-0.02 1.33,-0.05 1.99,-0.06c4.54,-0.18 9.09,-0.29 13.63,-0.35l0.49,0l0.01,-0.01c0.01,0 0.03,0 0.03,0.01c-0.11,0.15 -0.26,0.28 -0.43,0.39c4.09,0.04 8.2,-0.09 12.28,0.15c1.19,0.08 2.09,-0.03 2.74,-0.36c0.4,0.09 0.79,0.21 1.16,0.4c0.18,0.08 0.34,0.18 0.5,0.29c0.1,0.05 0.2,0.11 0.3,0.19c0.7,0.75 1.19,1.65 1.25,2.64c0.58,9.2 0.66,18.4 -0.04,27.6c-0.06,0.76 -0.44,1.44 -0.88,2.07c-0.05,0.05 -0.09,0.11 -0.13,0.16l-0.01,0.01c-2.25,1.85 -4.98,1.56 -7.61,1.59c-11.65,0.06 -23.3,-0.05 -34.94,0.05c-5.55,0.05 -5.97,0.63 -5.97,6.57c0.01,6.03 0.5,6.62 5.83,6.81c1.65,0.06 3.32,0.03 4.98,0.03l420.66,0c1.16,0 2.33,0.01 3.49,0c6.61,-0.09 7.06,-0.55 6.97,-7.15c-0.08,-5.7 -0.5,-6.08 -6.3,-6.3c-3.12,-0.11 -6.37,0.51 -9.18,-1.53c-0.01,-0.03 -0.04,-0.04 -0.05,-0.06c-0.05,-0.06 -0.09,-0.13 -0.14,-0.19c-1.36,-1.93 -1.29,-4.21 -1.3,-6.41c-0.05,-11.95 -0.06,-23.9 0.01,-35.84c0.03,-1.9 -0.16,-3.89 0.79,-5.58c0.26,-0.49 0.63,-0.94 1.11,-1.36c0.14,4.29 0.38,8.59 0.35,12.88c-0.01,2.34 0.34,3.63 3.19,3.59c15.46,-0.17 30.88,-0.17 46.3,-0.23z" class="st3"/>
   <path id="svg_7" fill="#EEF3F6" d="m512,413.87l0,93.91c-30.98,-0.03 -61.94,-0.05 -92.91,-0.08c-3.07,-0.01 -6.15,-0.01 -9.21,-0.01c0.04,-0.01 0.09,-0.01 0.13,-0.03c8.25,-1.43 16.65,-1.83 24.71,-4.47c41.26,-13.52 66.47,-41.37 75.47,-83.9c0.38,-1.83 -0.03,-4.03 1.81,-5.42z" class="st4"/>
   <path id="svg_8" fill="#7ECFEC" d="m165.42,449.83c0,-6.98 0.12,-13.97 -0.05,-20.95c-0.07,-3.03 0.93,-4.05 3.99,-4.03c13.97,0.13 27.93,0.12 41.9,0c3.02,-0.03 4.06,0.93 4.03,4c-0.13,13.97 -0.12,27.94 0,41.91c0.03,3.03 -0.95,4.06 -4,4.03c-13.97,-0.13 -27.93,-0.12 -41.9,0c-3.03,0.03 -4.1,-0.94 -4.02,-4c0.17,-6.98 0.05,-13.97 0.05,-20.96z" class="st5"/>
   <path id="svg_9" fill="#49B1D5" d="m33.53,383.51c0,-6.83 0.17,-13.66 -0.07,-20.47c-0.12,-3.37 1.1,-4.19 4.28,-4.15c13.81,0.15 27.63,0.13 41.44,0.01c2.91,-0.02 4.14,0.67 4.11,3.86c-0.14,13.98 -0.13,27.97 -0.01,41.95c0.02,3.1 -1.18,4.01 -4.14,3.99c-13.98,-0.1 -27.96,-0.1 -41.94,0c-2.81,0.02 -3.79,-0.87 -3.73,-3.72c0.17,-7.15 0.06,-14.31 0.06,-21.47z" class="st6"/>
   <path id="svg_10" fill="#F85A1E" d="m149.2,317.72c0,6.83 -0.1,13.65 0.05,20.48c0.07,3.03 -0.61,4.58 -4.1,4.54c-13.98,-0.15 -27.96,-0.11 -41.94,-0.01c-2.75,0.02 -3.8,-0.78 -3.78,-3.68c0.12,-14.15 0.12,-28.3 0,-42.45c-0.02,-2.88 0.98,-3.68 3.75,-3.66c14.15,0.11 28.29,0.12 42.44,0c2.94,-0.03 3.68,1.11 3.63,3.82c-0.14,6.97 -0.05,13.96 -0.05,20.96z" class="st7"/>
   <path id="svg_11" fill="#F85A1E" d="m33.53,317.83c0,-6.99 0.07,-13.98 -0.04,-20.97c-0.04,-2.54 0.32,-3.97 3.45,-3.93c14.31,0.14 28.62,0.11 42.93,0.02c2.68,-0.02 3.4,1.03 3.39,3.54c-0.08,14.15 -0.08,28.3 0,42.45c0.02,2.81 -1.06,3.8 -3.82,3.79c-14.15,-0.08 -28.29,-0.11 -42.44,0.02c-3.05,0.03 -3.56,-1.32 -3.52,-3.93c0.12,-7.01 0.05,-14 0.05,-20.99z" class="st7"/>
   <path id="svg_12" fill="#7ECFEC" d="m99.47,449.85c0,-6.98 0.11,-13.95 -0.05,-20.93c-0.07,-2.96 0.81,-4.1 3.93,-4.07c13.95,0.13 27.9,0.15 41.85,-0.01c3.42,-0.04 4.17,1.29 4.14,4.4c-0.13,13.62 -0.13,27.24 0,40.86c0.03,3.38 -1.03,4.73 -4.57,4.69c-13.78,-0.15 -27.57,-0.13 -41.35,0c-3.04,0.03 -4.08,-0.97 -4,-4.01c0.17,-6.97 0.05,-13.95 0.05,-20.93z" class="st5"/>
   <path id="svg_13" fill="#7ECFEC" d="m215.23,383.51c0,6.83 -0.11,13.66 0.05,20.48c0.08,3.29 -0.81,4.86 -4.46,4.82c-13.82,-0.15 -27.63,-0.13 -41.45,0c-3.06,0.03 -4.04,-1 -4.01,-4.03c0.12,-13.99 0.13,-27.97 0,-41.96c-0.03,-3.15 1.15,-3.95 4.09,-3.93c13.98,0.11 27.97,0.13 41.95,-0.01c3.21,-0.03 3.94,1.26 3.88,4.15c-0.15,6.82 -0.05,13.65 -0.05,20.48z" class="st5"/>
   <path id="svg_14" fill="#49B1D5" d="m124.91,358.95c6.66,0 13.32,0.14 19.97,-0.06c3.12,-0.09 4.43,0.66 4.39,4.1c-0.17,13.82 -0.15,27.64 -0.01,41.45c0.03,3.32 -1.18,4.3 -4.38,4.27c-13.81,-0.12 -27.63,-0.13 -41.44,0c-3.01,0.03 -4.05,-0.86 -4.02,-3.96c0.14,-13.98 0.15,-27.97 0,-41.95c-0.03,-3.13 1.04,-3.99 4.03,-3.91c7.15,0.18 14.31,0.06 21.46,0.06z" class="st6"/>
   <path id="svg_15" fill="#F85A1E" d="m190.66,292.98c6.82,0 13.64,0.11 20.46,-0.05c2.87,-0.07 4.16,0.6 4.12,3.83c-0.15,13.97 -0.13,27.95 -0.01,41.92c0.03,3.07 -1.1,4.06 -4.08,4.03c-13.97,-0.1 -27.94,-0.08 -41.92,-0.01c-2.71,0.01 -3.85,-0.86 -3.83,-3.74c0.1,-14.14 0.12,-28.28 -0.01,-42.42c-0.03,-2.95 1.1,-3.65 3.81,-3.6c7.15,0.13 14.31,0.04 21.46,0.04z" class="st7"/>
   <path id="svg_16" fill="#49B1D5" d="m256.42,292.98c6.82,0 13.64,0.14 20.46,-0.06c3.16,-0.1 4.38,0.71 4.34,4.12c-0.17,13.81 -0.16,27.62 -0.01,41.42c0.04,3.35 -1.2,4.29 -4.36,4.26c-13.8,-0.12 -27.61,-0.11 -41.42,-0.01c-2.98,0.02 -4.09,-0.97 -4.07,-4.04c0.12,-13.97 0.14,-27.95 -0.01,-41.92c-0.04,-3.24 1.25,-3.88 4.12,-3.82c6.97,0.16 13.96,0.05 20.95,0.05z" class="st6"/>
   <path id="svg_17" fill="#7ECFEC" d="m281.18,383.45c0,6.98 -0.11,13.97 0.05,20.95c0.07,3.24 -1.15,4.41 -4.37,4.38c-13.8,-0.1 -27.6,-0.09 -41.4,-0.01c-2.97,0.02 -4.15,-1.07 -4.13,-4.1c0.09,-13.97 0.08,-27.94 0,-41.91c-0.02,-2.67 0.66,-3.91 3.61,-3.88c14.3,0.11 28.6,0.1 42.9,0.01c2.7,-0.02 3.41,1.14 3.38,3.6c-0.1,6.99 -0.04,13.98 -0.04,20.96z" class="st5"/>
   <path id="svg_18" fill="#7ECFEC" d="m33.52,449.56c0,-6.99 0.1,-13.97 -0.05,-20.95c-0.06,-2.82 0.95,-3.76 3.75,-3.74c13.97,0.1 27.94,0.12 41.9,-0.01c3.38,-0.03 4.26,1.43 4.24,4.51c-0.09,13.64 -0.12,27.28 0.02,40.91c0.04,3.59 -1.44,4.53 -4.77,4.5c-13.63,-0.12 -27.27,-0.14 -40.9,0.01c-3.28,0.04 -4.35,-1.02 -4.25,-4.28c0.2,-6.97 0.06,-13.96 0.06,-20.95z" class="st5"/>
   <path id="svg_19" fill="#F85A1E" d="m58.45,227.01c6.82,0 13.64,0.13 20.45,-0.06c3.09,-0.08 4.44,0.61 4.4,4.08c-0.18,13.8 -0.15,27.61 -0.01,41.41c0.03,3.3 -1.15,4.32 -4.35,4.29c-13.8,-0.12 -27.6,-0.1 -41.4,-0.01c-2.93,0.02 -4.1,-0.88 -4.07,-4c0.14,-13.97 0.15,-27.94 -0.01,-41.91c-0.04,-3.19 1.12,-3.92 4.05,-3.85c6.97,0.17 13.96,0.05 20.94,0.05z" class="st7"/>
   <path id="svg_20" fill="#F85A1E" d="m124.48,227.01c6.82,0 13.64,0.14 20.45,-0.06c3.16,-0.09 4.39,0.72 4.35,4.12c-0.17,13.8 -0.16,27.61 -0.01,41.41c0.04,3.37 -1.25,4.26 -4.4,4.24c-13.63,-0.11 -27.27,-0.14 -40.91,0.01c-3.45,0.04 -4.6,-1.04 -4.55,-4.56c0.18,-13.64 0.2,-27.28 -0.01,-40.91c-0.06,-3.7 1.33,-4.42 4.63,-4.31c6.81,0.21 13.63,0.06 20.45,0.06z" class="st7"/>
   <path id="svg_21" fill="#49B1D5" d="m165.44,251.75c0,-6.82 0.13,-13.64 -0.06,-20.46c-0.08,-3.1 0.63,-4.4 4.08,-4.36c13.97,0.18 27.94,0.16 41.9,0.01c3.21,-0.04 3.88,1.19 3.85,4.09c-0.12,13.8 -0.14,27.61 0.01,41.41c0.04,3.34 -1.19,4.3 -4.36,4.27c-13.63,-0.12 -27.27,-0.13 -40.91,0.01c-3.41,0.04 -4.72,-0.97 -4.6,-4.53c0.26,-6.8 0.09,-13.62 0.09,-20.44z" class="st6"/>
   <path id="svg_22" fill="#49B1D5" d="m231.41,251.5c0,-6.65 0.16,-13.31 -0.07,-19.96c-0.11,-3.33 0.68,-4.67 4.35,-4.62c13.8,0.21 27.6,0.15 41.41,0.03c2.87,-0.02 4.14,0.6 4.11,3.83c-0.15,13.97 -0.14,27.94 -0.01,41.91c0.03,3.1 -1.14,4.03 -4.09,4.01c-13.8,-0.09 -27.6,-0.1 -41.41,0.01c-3.16,0.03 -4.46,-0.91 -4.36,-4.27c0.21,-6.96 0.07,-13.95 0.07,-20.94z" class="st6"/>
   <path id="svg_23" fill="#49B1D5" d="m322.61,227.01c6.82,0 13.64,0.11 20.45,-0.05c2.87,-0.07 4.14,0.59 4.1,3.82c-0.16,13.97 -0.14,27.94 -0.01,41.91c0.03,3.1 -1.12,4.04 -4.07,4.02c-13.97,-0.09 -27.94,-0.08 -41.91,-0.01c-2.69,0.01 -3.87,-0.86 -3.85,-3.74c0.1,-14.14 0.11,-28.28 -0.01,-42.41c-0.03,-2.98 1.17,-3.64 3.85,-3.58c7.15,0.13 14.3,0.04 21.45,0.04z" class="st6"/>
   <path id="svg_24" fill="#49B1D5" d="m413.06,251.87c0,6.99 -0.09,13.97 0.05,20.95c0.06,2.75 -0.85,3.89 -3.68,3.88c-14.13,-0.08 -28.27,-0.07 -42.4,0c-2.84,0.02 -3.74,-1.14 -3.72,-3.88c0.09,-14.14 0.09,-28.27 0,-42.41c-0.02,-2.61 0.9,-3.46 3.47,-3.45c14.3,0.09 28.6,0.09 42.9,0c2.61,-0.02 3.48,0.85 3.43,3.45c-0.14,7.16 -0.05,14.31 -0.05,21.46z" class="st6"/>
   <path id="svg_25" fill="#49B1D5" d="m479.02,251.69c0,6.98 -0.13,13.96 0.06,20.93c0.08,2.82 -0.99,3.93 -3.65,3.93c-14.28,0.03 -28.57,0.05 -42.85,0.12c-2.29,0.01 -3.28,-0.94 -3.27,-3.28c0.04,-14.46 0.06,-28.91 -0.01,-43.37c-0.01,-2.5 1.12,-3.06 3.34,-3.05c14.29,0.06 28.57,0.1 42.86,-0.03c2.96,-0.03 3.63,1.11 3.58,3.8c-0.16,6.99 -0.06,13.97 -0.06,20.95z" class="st6"/>
   <path id="svg_26" fill="#49B1D5" d="m453.55,210.29c-6.65,0 -13.3,-0.13 -19.94,0.06c-3.17,0.09 -4.4,-0.82 -4.36,-4.19c0.16,-13.79 0.12,-27.59 0.02,-41.38c-0.02,-2.72 0.74,-3.82 3.65,-3.8c14.12,0.12 28.25,0.11 42.37,0.01c2.71,-0.02 3.81,0.68 3.78,3.61c-0.13,13.96 -0.14,27.92 0.01,41.88c0.03,3.18 -1.2,3.93 -4.1,3.87c-7.14,-0.16 -14.28,-0.06 -21.43,-0.06z" class="st6"/>
   <path id="svg_27" fill="#49B1D5" d="m387.62,210.29c-6.65,0 -13.3,-0.12 -19.94,0.05c-3.11,0.08 -4.44,-0.72 -4.4,-4.14c0.16,-13.79 0.15,-27.59 0,-41.38c-0.03,-3.21 1.25,-3.86 4.12,-3.83c13.96,0.11 27.92,0.1 41.87,0.01c2.65,-0.02 3.87,0.56 3.84,3.56c-0.13,13.96 -0.14,27.92 0,41.88c0.03,3.14 -1.13,3.97 -4.07,3.91c-7.13,-0.16 -14.28,-0.06 -21.42,-0.06z" class="st6"/>
   <path id="svg_28" fill="#49B1D5" d="m322.71,161.04c6.98,0 13.96,0.08 20.94,-0.04c2.53,-0.04 3.51,0.75 3.5,3.4c-0.1,14.13 -0.09,28.26 -0.01,42.38c0.01,2.53 -0.78,3.56 -3.41,3.54c-14.29,-0.08 -28.58,-0.07 -42.87,0c-2.54,0.01 -3.53,-0.87 -3.51,-3.47c0.08,-14.13 0.11,-28.26 -0.02,-42.38c-0.03,-3.11 1.42,-3.5 3.96,-3.47c7.13,0.11 14.28,0.04 21.42,0.04z" class="st6"/>
   <path id="svg_29" fill="#49B1D5" d="m231.41,185.56c0,-6.81 0.1,-13.63 -0.05,-20.44c-0.06,-2.84 0.53,-4.18 3.8,-4.15c14.12,0.16 28.25,0.13 42.37,0.01c2.88,-0.02 3.68,1.01 3.66,3.77c-0.1,13.96 -0.11,27.92 0,41.88c0.02,2.87 -1.04,3.71 -3.79,3.7c-14.12,-0.09 -28.25,-0.1 -42.37,0c-2.9,0.02 -3.7,-1.12 -3.65,-3.84c0.11,-6.97 0.03,-13.95 0.03,-20.93z" class="st6"/>
   <path id="svg_30" fill="#484646" d="m190.03,194.03c-7.91,0 -7.91,0 -7.91,-8.17c0,-8.47 0,-8.47 8.7,-8.47c7.63,0 7.63,0 7.63,7.52c0,0.17 0,0.33 0,0.5c0,8.62 0,8.62 -8.42,8.62z" class="st8"/>
   <path id="svg_31" fill="#484646" d="m66.51,186.05c0,7.98 0,7.98 -8.07,7.98c-8.32,0 -8.32,0 -8.32,-8.3c0,-8.34 0,-8.34 8.42,-8.34c7.97,0 7.97,0 7.97,8.66z" class="st8"/>
   <path id="svg_32" fill="#484646" d="m132.48,185.77c0,8.25 0,8.25 -8.29,8.25c-8.06,0 -8.06,0 -8.06,-8.03c0,-8.61 0,-8.61 8.6,-8.61c7.75,0.01 7.75,0.01 7.75,8.39z" class="st8"/>
   <path id="svg_33" fill="#474545" d="m248.12,449.41c0,-7.76 0,-7.76 7.81,-7.76c8.5,0 8.5,0 8.5,8.56c0,7.75 0,7.75 -7.81,7.75c-8.5,0 -8.5,0 -8.5,-8.55z" class="st3"/>
   <path id="svg_34" fill="#FEFEFE" d="m459.8,381.36c-0.72,0.82 -1.34,1.59 -2.03,2.28c-19.63,19.64 -39.28,39.26 -58.86,58.95c-1.79,1.8 -2.83,1.96 -4.7,0.07c-11.32,-11.49 -22.72,-22.9 -34.19,-34.23c-1.86,-1.83 -1.81,-2.9 -0.03,-4.81c8.92,-9.61 8.86,-9.67 18.16,-0.35c4.93,4.94 10.07,9.7 14.73,14.89c2.9,3.23 4.6,2.72 7.41,-0.14c14.79,-15.07 29.86,-29.87 44.67,-44.92c2.61,-2.65 4.33,-3.37 6.86,-0.1c1.82,2.35 4.19,4.26 6.29,6.4c0.58,0.58 1.07,1.24 1.69,1.96z" class="st2"/>
   <path id="svg_35" fill="#2D2829" d="m100.94,75.24c-0.01,0.8 -0.23,1.56 -0.61,2.27c-0.11,0.23 -0.25,0.44 -0.4,0.65c-0.08,0.09 -0.14,0.18 -0.21,0.26c-5.33,2.09 -10.64,2.5 -15.9,-0.1c-0.13,-0.05 -0.25,-0.11 -0.38,-0.18c-0.05,-10.69 -0.09,-21.38 -0.14,-32.08c-0.19,-0.23 -0.36,-0.46 -0.49,-0.7c-0.21,-0.34 -0.36,-0.68 -0.46,-1.03c0.44,-0.6 0.6,-1.51 0.53,-2.84c-0.3,-5.09 -0.24,-10.21 -0.33,-15.32c-2.13,-4.34 -5.67,-6.12 -10.24,-4.82c-4.52,1.3 -5.85,4.99 -5.81,9.36c0.04,4.69 0.01,9.38 0.03,14.07l0.49,0l0.01,-0.01c0.04,-0.04 0.06,-0.06 0.11,-0.08c-0.03,0.04 -0.05,0.06 -0.09,0.09c-0.11,0.15 -0.26,0.28 -0.43,0.39c-0.3,0.21 -0.69,0.39 -1.16,0.5c-3.98,0 -7.96,-0.09 -11.94,0.04c-1.13,0.04 -2.02,-0.09 -2.62,-0.51c-0.28,-0.18 -0.49,-0.41 -0.64,-0.74c-0.25,-0.49 -0.35,-1.16 -0.29,-2.07c0.31,-4.78 -0.4,-9.6 0.38,-14.37c0.6,-13.54 11.1,-23.67 24.49,-23.62c13.34,0.05 24.07,10.33 24.57,23.72c0.21,5.63 0.1,11.28 0.13,16.91c0.24,0.34 0.46,0.68 0.65,1.03c0.03,0.03 0.04,0.06 0.05,0.09c0.11,0.19 0.21,0.38 0.3,0.56c0.01,0.08 0.03,0.15 0.03,0.23c1.21,9.42 0.53,18.86 0.37,28.3z" class="st9"/>
   <path id="svg_36" fill="#2D2829" d="m462.19,28.95c-0.01,4.98 -0.03,9.96 -0.04,14.95c-0.03,11.42 -0.05,22.83 -0.08,34.25c-0.13,0.06 -0.24,0.13 -0.36,0.19c-5.21,2.67 -10.49,2 -15.8,0.2c-0.1,-0.13 -0.2,-0.25 -0.29,-0.38c-0.16,-0.21 -0.3,-0.41 -0.43,-0.64l0,-0.02c-0.84,-1.56 -0.83,-3.35 -0.83,-5.11c-0.01,-8.32 -0.19,-16.64 0.08,-24.95c0.01,-0.09 0.03,-0.16 0.03,-0.25c0.05,-0.34 0.08,-0.69 0.09,-1.04c0.01,-0.14 0.03,-0.26 0.03,-0.4c-0.01,-0.23 -0.01,-0.45 -0.01,-0.68c-0.01,-0.3 -0.01,-0.61 -0.01,-0.93c0.49,0.21 0.96,0.5 1.41,0.9c0.02,-4.81 0.02,-9.61 0.06,-14.42c0.03,-4.37 -1.36,-8.04 -5.85,-9.3c-4.57,-1.3 -8.09,0.5 -10.2,4.83c0.51,0.56 0.9,1.15 1.18,1.75c-1.29,4.18 -0.38,8.47 -0.66,12.69c-0.09,1.43 -0.24,2.53 -0.53,3.38c-0.38,1.14 -1,1.82 -2.08,2.17l-0.05,0c-0.83,0.29 -1.92,0.39 -3.3,0.36c-3.23,-0.05 -6.62,0.91 -9.73,-0.35l-0.05,0c-0.51,-0.2 -0.98,-0.46 -1.46,-0.81c-0.09,-0.05 -0.19,-0.11 -0.28,-0.19c0.01,-5.48 -0.09,-10.97 0.06,-16.44c0.39,-13.81 10.95,-24.22 24.52,-24.34c13.76,-0.09 24.25,10.39 24.58,24.58z" class="st9"/>
   <path id="svg_37" fill="#656262" d="m446.04,46.16c-0.5,0.45 -1.03,0.79 -1.56,1.04c-2.33,1.14 -4.97,0.76 -7.49,0.76c-43.44,0.04 -86.86,0.03 -130.29,0.03c-65.9,0 -131.78,0.01 -197.67,-0.04c-2.84,0 -5.86,0.54 -8.46,-1.01c-0.38,-0.21 -0.74,-0.48 -1.09,-0.79c0.01,-0.18 0.02,-0.35 0.02,-0.53c0.03,-0.2 0.03,-0.39 0.04,-0.59c1.5,0.08 2.99,0.23 4.48,0.23c101.67,0.01 203.35,0.01 305.02,0c1.33,0 2.67,-0.05 3.99,-0.09l0.45,0c3.83,-0.01 7.66,-0.14 11.48,0.06c3,0.15 3.92,-0.86 4.03,-3.93c0.19,-5.04 -1.33,-10.24 1,-15.13c0.51,0.56 0.9,1.15 1.18,1.75c-1.29,4.18 -0.38,8.47 -0.66,12.69c-0.09,1.43 -0.24,2.53 -0.53,3.38c0.54,1.13 1.7,1.45 3.64,1.33c3.64,-0.24 7.3,-0.2 10.95,-0.24c-0.01,-0.3 -0.01,-0.61 -0.01,-0.93c0.49,0.21 0.96,0.5 1.41,0.9c0.03,0.37 0.05,0.73 0.07,1.11z" class="st10"/>
   <path id="svg_38" fill="#656262" d="m83.31,45.64c-0.01,0.14 -0.01,0.28 -0.01,0.41c-11.63,0.03 -23.26,0.05 -34.89,0.06c-15.89,0.04 -31.77,0.08 -47.66,0.1c1.14,-1.89 2.98,-0.9 4.44,-0.9c13.43,-0.09 26.88,-0.18 40.31,0.02c3.57,0.05 4.47,-1.09 4.38,-4.49c-0.1,-4.27 -0.69,-8.6 0.46,-12.83c0.1,4.28 0.46,8.57 0.24,12.84c-0.04,0.78 0,1.44 0.11,1.99l0,0.01c0.28,1.3 0.98,2 2.19,2.27c0.61,0.14 1.35,0.16 2.24,0.11c3.78,-0.25 7.6,-0.06 11.39,-0.08c0.16,-0.15 0.33,-0.28 0.49,-0.39l0.01,-0.01c0.04,-0.04 0.06,-0.06 0.11,-0.08c-0.03,0.04 -0.05,0.06 -0.09,0.09c-0.11,0.15 -0.26,0.28 -0.43,0.39c4.09,0.04 8.2,-0.09 12.28,0.15c1.19,0.08 2.09,-0.03 2.74,-0.36c0.29,-0.15 0.53,-0.36 0.7,-0.63c0.44,-0.6 0.6,-1.51 0.53,-2.84c-0.3,-5.09 -0.24,-10.21 -0.33,-15.32c2.21,6.44 0.97,12.99 0.79,19.49z" class="st10"/>
   <path id="svg_39" fill="#2D2829" d="m446.08,78.16c5.33,0 10.66,-0.01 16,-0.01c4.49,0.01 8.99,0.11 13.48,0c2.6,-0.06 3.37,1.01 3.53,3.54c0.84,13.45 0.9,13.45 -12.57,13.45c-141.99,0 -283.98,0 -425.98,0c-7.02,0 -7.02,0 -7.02,-6.96c0,-10 0,-10 9.97,-10c13.32,-0.01 26.63,-0.02 39.95,-0.03c5.33,0 10.66,0.01 16,0.01c2.68,-2.35 5.96,-1.78 9.07,-1.78c46.43,-0.04 92.86,-0.02 139.29,-0.03c62.91,0 125.81,-0.01 188.72,0.03c3.25,0 6.71,-0.67 9.56,1.78z" class="st9"/>
   <path id="svg_40" fill="#474545" d="m446.08,78.16c-115.55,0 -231.09,0 -346.64,0c0.01,-10.67 0.03,-21.34 0.04,-32.01c24.97,0.03 49.94,0.08 74.9,0.08c90.55,-0.01 181.1,-0.05 271.65,-0.07c0.02,10.66 0.03,21.33 0.05,32z" class="st3"/>
   <path id="svg_41" fill="#FDFDFD" d="m67.03,44.77l-0.01,0.01l-0.49,0l0,0.39l0.1,0c0.16,-0.11 0.31,-0.24 0.43,-0.39c0.04,-0.02 0.06,-0.05 0.09,-0.09c-0.06,0.02 -0.08,0.04 -0.12,0.08z" class="st11"/>
   <path id="svg_42" fill="#FDFDFD" d="m444.56,44.16c0,0.31 0,0.63 0.01,0.93c0.46,-0.01 0.94,-0.01 1.4,-0.03c-0.44,-0.4 -0.92,-0.69 -1.41,-0.9zm-13.39,-16.24c-0.28,-0.6 -0.66,-1.19 -1.18,-1.75c-0.09,5.11 -0.03,10.23 -0.33,15.31c-0.06,1.1 0.04,1.93 0.31,2.52c0.29,-0.85 0.44,-1.95 0.53,-3.38c0.29,-4.23 -0.62,-8.52 0.67,-12.7z" class="st11"/>
  </g>
  <path id="svg_43" fill="#FFD745" d="m233.13,-16.76l0,0c-4.28,0 -7.74,-3.47 -7.74,-7.74l0,0c0,-4.28 3.47,-7.74 7.74,-7.74l0,0c4.28,0 7.74,3.47 7.74,7.74l0,0c0,4.28 -3.47,7.74 -7.74,7.74z" class="st1"/>
  <path id="svg_44" fill="#82DEE9" d="m254.03,-16.76l0,0c-4.28,0 -7.74,-3.47 -7.74,-7.74l0,0c0,-4.28 3.47,-7.74 7.74,-7.74l0,0c4.28,0 7.74,3.47 7.74,7.74l0,0c0,4.28 -3.46,7.74 -7.74,7.74z" class="st0"/>
  <path id="svg_45" fill="#F85A1E" d="m276.87,-16.76l0,0c-4.28,0 -7.74,-3.47 -7.74,-7.74l0,0c0,-4.28 3.47,-7.74 7.74,-7.74l0,0c4.28,0 7.74,3.47 7.74,7.74l0,0c0,4.28 -3.46,7.74 -7.74,7.74z" class="st7"/>
 </g>
</svg>