<svg id="svg" version="1.1" xmlns="http://www.w3.org/2000/svg" xmlns:xlink="http://www.w3.org/1999/xlink" width="400" height="400" viewBox="0, 0, 400,400"><g id="svgg"><path id="path0" d="M232.010 68.107 C 228.706 69.707,225.518 73.369,223.223 78.200 C 221.212 82.436,220.580 84.361,219.153 90.600 C 218.418 93.812,218.412 106.252,219.144 109.000 C 221.907 119.378,226.888 123.588,236.400 123.588 C 249.053 123.588,255.088 114.805,254.259 97.600 C 253.864 89.425,252.624 84.512,249.157 77.400 C 245.057 68.988,238.042 65.186,232.010 68.107 M145.671 99.900 C 145.892 114.098,147.594 115.600,163.469 115.600 C 179.715 115.600,181.311 114.230,181.534 100.100 L 181.669 91.600 163.605 91.600 L 145.542 91.600 145.671 99.900 M46.806 105.900 C 46.532 106.945,46.161 108.340,45.981 109.000 C 45.586 110.451,44.866 113.260,44.367 115.300 C 43.561 118.596,43.129 120.256,42.773 121.428 C 42.568 122.104,42.400 123.038,42.400 123.505 C 42.400 123.971,42.220 124.464,42.000 124.600 C 41.780 124.736,41.600 125.319,41.600 125.895 C 41.600 126.472,41.432 127.496,41.227 128.172 C 40.856 129.395,40.266 131.644,39.567 134.500 C 39.365 135.325,39.035 136.675,38.833 137.500 C 38.631 138.325,38.283 139.720,38.058 140.600 C 37.834 141.480,37.438 143.100,37.179 144.200 C 36.920 145.300,36.547 146.740,36.349 147.400 C 36.056 148.383,34.235 155.650,29.184 176.000 C 28.993 176.770,28.640 178.210,28.400 179.200 C 28.160 180.190,27.792 181.675,27.582 182.500 C 27.372 183.325,27.050 184.689,26.866 185.531 C 26.683 186.373,26.402 187.273,26.243 187.531 C 26.022 187.888,32.024 188.000,51.352 188.000 L 76.751 188.000 76.958 186.300 C 77.072 185.365,77.362 182.800,77.602 180.600 C 77.841 178.400,78.211 175.160,78.423 173.400 C 78.635 171.640,79.087 167.500,79.428 164.200 C 79.768 160.900,80.217 156.670,80.426 154.800 C 80.635 152.930,80.989 149.690,81.213 147.600 C 81.437 145.510,81.795 142.225,82.010 140.300 C 82.448 136.366,82.965 131.625,83.567 126.000 C 83.791 123.910,84.151 120.670,84.366 118.800 C 84.581 116.930,84.943 113.690,85.169 111.600 C 85.395 109.510,85.699 106.945,85.845 105.900 L 86.109 104.000 66.706 104.000 L 47.304 104.000 46.806 105.900 M304.198 104.700 C 304.354 105.085,304.648 107.110,304.850 109.200 C 305.053 111.290,305.399 114.620,305.619 116.600 C 305.839 118.580,306.192 121.820,306.403 123.800 C 306.615 125.780,306.969 129.020,307.189 131.000 C 307.410 132.980,307.768 136.220,307.986 138.200 C 308.203 140.180,308.566 143.465,308.791 145.500 C 309.016 147.535,309.383 150.865,309.607 152.900 C 309.831 154.935,310.188 158.130,310.400 160.000 C 311.150 166.617,312.006 174.490,312.747 181.600 C 312.965 183.690,313.269 185.985,313.422 186.700 L 313.700 188.000 338.895 188.000 L 364.091 188.000 363.890 186.900 C 363.780 186.295,362.404 180.670,360.834 174.400 C 359.264 168.130,357.251 160.030,356.362 156.400 C 355.473 152.770,354.600 149.350,354.422 148.800 C 354.245 148.250,353.880 146.810,353.612 145.600 C 353.345 144.390,352.967 142.860,352.773 142.200 C 352.450 141.100,351.685 138.093,350.764 134.300 C 350.564 133.475,350.220 132.080,350.000 131.200 C 349.088 127.551,348.815 126.450,348.067 123.400 C 347.102 119.467,344.104 107.548,343.565 105.500 L 343.169 104.000 323.542 104.000 C 305.008 104.000,303.930 104.039,304.198 104.700 M103.862 144.660 C 103.723 146.167,103.443 148.840,103.239 150.600 C 103.035 152.360,102.674 155.600,102.436 157.800 C 102.199 160.000,101.817 163.420,101.588 165.400 C 101.359 167.380,101.012 170.440,100.817 172.200 C 100.622 173.960,100.233 177.470,99.953 180.000 C 99.674 182.530,99.435 185.410,99.422 186.400 L 99.400 188.200 113.180 188.305 C 123.593 188.385,127.036 188.532,127.274 188.905 C 127.641 189.485,127.714 199.238,127.357 200.167 C 127.142 200.728,125.465 200.800,112.581 200.800 C 102.750 200.800,97.962 200.938,97.784 201.225 C 97.117 202.305,97.109 209.508,97.772 212.779 C 102.508 236.153,131.707 244.813,148.609 227.857 C 154.690 221.757,157.076 215.547,157.477 204.775 C 157.748 197.489,157.635 197.127,154.666 195.808 C 136.145 187.575,117.722 169.139,107.414 148.522 L 104.113 141.920 103.862 144.660 M292.649 148.508 C 284.995 163.781,272.326 178.790,260.229 186.915 C 257.962 188.437,257.694 188.419,280.200 188.304 L 300.600 188.200 300.551 187.200 C 300.504 186.261,300.016 181.569,299.199 174.200 C 299.004 172.440,298.660 169.290,298.434 167.200 C 297.993 163.116,297.488 158.570,296.767 152.200 C 296.518 150.000,296.198 146.855,296.057 145.210 L 295.800 142.221 292.649 148.508 M242.667 201.067 C 241.846 201.888,242.923 212.478,244.205 216.200 C 249.844 232.560,267.569 240.890,283.658 234.743 C 292.570 231.337,298.639 224.566,302.070 214.200 C 302.622 212.529,302.746 202.084,302.224 201.238 C 301.923 200.753,243.150 200.583,242.667 201.067 M24.400 205.500 C 24.400 209.298,24.952 213.374,25.795 215.800 C 30.225 228.554,41.105 236.375,54.444 236.394 C 59.246 236.401,59.963 236.097,63.730 232.462 C 67.525 228.801,71.754 222.017,72.826 217.870 C 73.007 217.171,73.344 215.880,73.575 215.000 C 73.954 213.555,74.206 211.624,75.048 203.700 L 75.314 201.200 49.857 201.200 L 24.400 201.200 24.400 205.500 M315.260 203.900 C 315.420 205.385,315.665 207.680,315.805 209.000 C 317.517 225.130,329.708 236.370,345.516 236.394 C 350.605 236.401,351.528 235.987,355.442 231.939 C 362.385 224.760,365.600 216.686,365.600 206.429 L 365.600 201.200 340.285 201.200 L 314.969 201.200 315.260 203.900 M170.116 207.100 C 171.285 230.162,193.780 243.421,214.010 232.973 C 217.817 231.007,224.800 224.791,224.800 223.369 C 224.800 223.245,225.340 222.359,226.000 221.400 C 226.660 220.441,227.200 219.461,227.200 219.223 C 227.200 218.984,227.359 218.477,227.553 218.095 C 228.913 215.421,229.172 214.210,229.691 208.074 C 230.198 202.075,230.234 202.129,226.362 203.125 C 224.733 203.544,222.410 204.086,221.200 204.330 C 219.990 204.574,218.460 204.882,217.800 205.014 C 213.422 205.893,208.980 206.185,200.000 206.185 C 190.530 206.185,186.895 205.922,181.400 204.836 C 180.300 204.619,178.500 204.262,177.400 204.043 C 176.300 203.824,174.356 203.365,173.080 203.022 C 171.805 202.680,170.562 202.400,170.319 202.400 C 170.009 202.400,169.949 203.795,170.116 207.100 M37.200 306.000 L 37.200 338.800 86.000 338.800 L 134.800 338.800 134.800 306.000 L 134.800 273.200 86.000 273.200 L 37.200 273.200 37.200 306.000 M255.200 306.000 L 255.200 338.800 304.000 338.800 L 352.800 338.800 352.800 306.000 L 352.800 273.200 304.000 273.200 L 255.200 273.200 255.200 306.000 " stroke="none" fill="#b6e6f8" fill-rule="evenodd"></path><path id="path1" d="M189.200 13.008 C 175.284 14.733,160.269 20.233,150.200 27.293 C 149.320 27.910,147.643 29.067,146.473 29.864 C 142.290 32.715,135.925 38.632,131.194 44.069 C 128.243 47.460,122.800 54.830,122.800 55.434 C 122.800 55.567,122.464 56.154,122.053 56.738 C 120.885 58.398,118.297 63.457,116.654 67.293 C 113.329 75.053,111.672 81.073,109.962 91.600 C 108.958 97.784,109.499 113.627,110.946 120.400 C 114.272 135.965,119.968 148.223,129.276 159.845 C 133.879 165.591,138.462 170.054,145.654 175.792 C 148.357 177.948,156.698 183.065,156.975 182.737 C 157.038 182.662,157.212 170.410,157.361 155.512 L 157.631 128.423 156.716 128.233 C 156.212 128.128,154.720 127.932,153.400 127.799 C 144.431 126.888,137.414 121.208,134.128 112.197 C 133.454 110.347,133.400 108.392,133.400 85.600 L 133.400 61.000 139.400 61.000 L 145.400 61.000 145.508 69.911 L 145.615 78.821 151.508 78.711 L 157.400 78.600 157.600 69.800 L 157.800 61.000 163.569 60.889 C 170.625 60.752,169.986 59.817,169.994 70.300 L 170.000 78.800 175.792 78.800 L 181.585 78.800 181.692 69.900 L 181.800 61.000 187.800 61.000 L 193.800 61.000 193.922 84.600 C 194.049 109.336,193.974 110.702,192.278 114.400 C 188.673 122.262,182.713 126.567,173.800 127.750 L 170.200 128.228 169.955 144.414 C 169.261 190.192,169.162 188.668,172.900 189.752 C 183.523 192.833,188.767 193.572,200.000 193.572 C 208.556 193.572,210.513 193.407,218.200 192.037 C 221.799 191.396,229.187 189.156,229.833 188.510 C 230.311 188.032,230.400 183.886,230.400 162.200 C 230.400 134.600,230.443 135.200,228.470 135.200 C 225.805 135.200,219.553 131.882,216.051 128.609 C 199.011 112.686,204.317 70.081,224.858 57.888 C 245.316 45.744,266.545 67.074,266.573 99.800 C 266.590 119.917,258.755 132.212,243.900 135.381 L 242.800 135.615 242.813 147.708 C 242.820 154.358,242.733 164.008,242.620 169.152 C 242.439 177.387,242.686 181.420,243.428 182.335 C 243.644 182.603,252.968 176.808,253.600 176.013 C 253.710 175.875,254.430 175.325,255.200 174.792 C 258.961 172.188,269.010 162.141,271.594 158.400 C 272.126 157.630,272.675 156.910,272.813 156.800 C 273.185 156.504,277.022 150.739,278.039 148.947 C 280.425 144.745,281.263 143.068,282.942 139.125 C 284.929 134.462,286.696 129.512,287.270 127.000 C 287.472 126.120,287.820 124.680,288.043 123.800 C 290.998 112.177,290.978 93.822,287.996 82.000 C 287.746 81.010,287.445 79.613,287.327 78.896 C 287.208 78.179,286.951 77.494,286.756 77.373 C 286.560 77.252,286.400 76.724,286.400 76.200 C 286.400 75.676,286.220 75.136,286.000 75.000 C 285.780 74.864,285.600 74.438,285.600 74.054 C 285.600 73.034,283.030 66.810,280.705 62.200 C 279.596 60.000,278.488 57.796,278.244 57.303 C 278.000 56.810,277.665 56.405,277.500 56.403 C 277.335 56.401,277.200 56.164,277.200 55.875 C 277.200 55.587,276.885 55.002,276.500 54.575 C 276.115 54.149,275.546 53.308,275.236 52.707 C 274.926 52.105,274.381 51.295,274.025 50.907 C 273.669 50.518,272.942 49.570,272.408 48.800 C 271.875 48.030,271.337 47.310,271.214 47.200 C 271.090 47.090,270.188 46.010,269.210 44.800 C 267.284 42.419,262.227 37.293,258.936 34.388 C 257.037 32.712,256.926 32.516,257.458 31.788 C 258.721 30.061,259.822 28.650,260.247 28.218 C 261.317 27.128,261.256 26.120,260.089 25.637 C 259.467 25.379,258.480 24.725,257.896 24.184 C 257.313 23.643,256.687 23.200,256.506 23.200 C 256.325 23.200,255.917 22.840,255.600 22.400 C 255.283 21.960,254.703 21.600,254.312 21.600 C 253.920 21.600,253.600 21.420,253.600 21.200 C 253.600 19.461,250.641 21.711,249.654 24.200 C 249.111 25.570,247.128 26.589,246.733 25.700 C 246.660 25.535,245.790 24.971,244.800 24.446 C 243.810 23.922,242.084 23.002,240.964 22.402 C 226.122 14.446,206.427 10.872,189.200 13.008 M158.000 329.800 L 158.000 387.200 200.000 387.200 L 242.000 387.200 242.000 330.063 L 242.000 272.926 234.500 272.664 C 230.375 272.520,211.475 272.402,192.500 272.401 L 158.000 272.400 158.000 329.800 M193.800 327.200 L 193.800 339.400 187.800 339.400 L 181.800 339.400 181.694 327.605 C 181.635 321.117,181.677 315.577,181.785 315.294 C 181.937 314.898,183.359 314.804,187.892 314.889 L 193.800 315.000 193.800 327.200 M218.157 315.433 C 218.524 316.389,218.436 338.524,218.063 339.111 C 217.819 339.497,216.317 339.595,211.969 339.511 L 206.200 339.400 206.094 327.605 C 206.035 321.117,206.075 315.582,206.181 315.305 C 206.500 314.473,217.835 314.594,218.157 315.433 " stroke="none" fill="#f9e158" fill-rule="evenodd"></path><path id="path2" d="M198.300 12.289 C 199.015 12.378,200.185 12.378,200.900 12.289 C 201.615 12.201,201.030 12.128,199.600 12.128 C 198.170 12.128,197.585 12.201,198.300 12.289 M190.505 12.687 C 191.114 12.779,192.014 12.777,192.505 12.682 C 192.997 12.587,192.500 12.511,191.400 12.514 C 190.300 12.517,189.897 12.595,190.505 12.687 M207.500 12.682 C 207.995 12.778,208.805 12.778,209.300 12.682 C 209.795 12.587,209.390 12.509,208.400 12.509 C 207.410 12.509,207.005 12.587,207.500 12.682 M229.633 17.349 C 229.725 17.430,231.870 18.365,234.400 19.426 C 236.930 20.486,239.900 21.835,241.000 22.423 C 242.100 23.011,243.810 23.922,244.800 24.446 C 245.790 24.971,246.660 25.535,246.733 25.700 C 246.807 25.865,247.190 26.000,247.584 26.000 C 248.523 26.000,248.991 25.442,250.933 22.008 C 252.148 19.860,251.011 21.013,249.571 23.389 C 247.984 26.008,248.254 25.958,245.219 24.180 C 240.306 21.300,228.033 15.921,229.633 17.349 M260.832 27.129 C 260.814 27.419,260.575 27.886,260.300 28.165 C 259.829 28.644,258.763 30.002,257.458 31.788 C 256.926 32.516,257.037 32.712,258.936 34.388 C 262.227 37.293,267.284 42.419,269.210 44.800 C 270.188 46.010,271.090 47.090,271.214 47.200 C 271.337 47.310,271.875 48.030,272.408 48.800 C 272.942 49.570,273.669 50.518,274.025 50.907 C 274.381 51.295,274.926 52.105,275.236 52.707 C 275.546 53.308,276.115 54.149,276.500 54.575 C 276.885 55.002,277.200 55.587,277.200 55.875 C 277.200 56.164,277.335 56.401,277.500 56.403 C 277.665 56.405,278.000 56.810,278.244 57.303 C 278.488 57.796,279.596 60.000,280.705 62.200 C 283.030 66.810,285.600 73.034,285.600 74.054 C 285.600 74.438,285.780 74.864,286.000 75.000 C 286.220 75.136,286.400 75.676,286.400 76.200 C 286.400 76.724,286.560 77.252,286.756 77.373 C 286.951 77.494,287.208 78.179,287.327 78.896 C 287.445 79.613,287.746 81.010,287.996 82.000 C 290.989 93.867,291.001 111.996,288.025 123.900 C 287.791 124.835,287.443 126.275,287.252 127.100 C 285.565 134.376,280.345 145.749,275.112 153.547 C 273.986 155.226,272.951 156.690,272.813 156.800 C 272.675 156.910,272.126 157.630,271.594 158.400 C 269.010 162.141,258.961 172.188,255.200 174.792 C 254.430 175.325,253.710 175.875,253.600 176.013 C 252.963 176.814,243.648 182.600,243.422 182.335 C 243.358 182.261,243.121 181.480,242.894 180.600 L 242.483 179.000 242.441 181.100 C 242.393 183.536,242.710 183.678,244.886 182.200 C 245.695 181.650,246.470 181.200,246.608 181.200 C 247.299 181.200,255.638 175.131,259.457 171.849 C 274.898 158.581,284.963 141.253,289.365 120.363 C 290.745 113.813,291.299 98.682,290.393 92.277 C 287.211 69.780,278.705 52.869,262.834 37.491 L 257.561 32.382 259.422 30.014 C 260.445 28.711,261.188 27.411,261.073 27.123 C 260.902 26.696,260.857 26.697,260.832 27.129 M138.581 36.100 L 137.000 37.800 138.700 36.219 C 139.635 35.349,140.400 34.584,140.400 34.519 C 140.400 34.216,140.052 34.519,138.581 36.100 M132.581 42.100 L 131.000 43.800 132.700 42.219 C 133.635 41.349,134.400 40.584,134.400 40.519 C 134.400 40.216,134.052 40.519,132.581 42.100 M126.400 49.600 C 125.930 50.260,125.636 50.800,125.746 50.800 C 125.856 50.800,126.330 50.260,126.800 49.600 C 127.270 48.940,127.564 48.400,127.454 48.400 C 127.344 48.400,126.870 48.940,126.400 49.600 M235.700 54.676 C 236.085 54.776,236.715 54.776,237.100 54.676 C 237.485 54.575,237.170 54.493,236.400 54.493 C 235.630 54.493,235.315 54.575,235.700 54.676 M231.200 55.200 C 230.396 55.457,230.357 55.523,231.000 55.532 C 231.440 55.538,232.160 55.389,232.600 55.200 C 233.619 54.762,232.568 54.762,231.200 55.200 M240.200 55.200 C 240.640 55.389,241.360 55.538,241.800 55.532 C 242.443 55.523,242.404 55.457,241.600 55.200 C 240.232 54.762,239.181 54.762,240.200 55.200 M133.388 61.289 C 133.280 61.570,133.241 72.330,133.299 85.200 L 133.407 108.600 133.503 84.900 L 133.600 61.200 139.392 61.200 L 145.185 61.200 145.292 70.100 L 145.400 79.000 151.500 79.110 C 154.855 79.171,157.600 79.081,157.601 78.910 C 157.601 78.740,154.904 78.654,151.608 78.720 L 145.615 78.840 145.508 69.920 L 145.400 61.000 139.492 60.889 C 134.985 60.805,133.537 60.900,133.388 61.289 M160.918 61.098 C 162.633 61.173,165.333 61.172,166.918 61.097 C 168.503 61.021,167.100 60.959,163.800 60.960 C 160.500 60.961,159.203 61.022,160.918 61.098 M181.877 61.056 C 181.725 61.209,181.600 65.263,181.600 70.067 L 181.600 78.800 175.808 78.800 L 170.016 78.800 169.896 70.300 L 169.777 61.800 169.788 70.400 L 169.800 79.000 175.800 79.000 L 181.800 79.000 181.908 70.100 L 182.015 61.200 187.774 61.200 C 191.308 61.200,193.612 61.358,193.737 61.610 C 193.849 61.836,193.894 61.791,193.837 61.510 C 193.725 60.954,182.408 60.525,181.877 61.056 M219.178 62.300 L 217.800 63.800 219.300 62.422 C 220.696 61.138,220.984 60.800,220.678 60.800 C 220.612 60.800,219.937 61.475,219.178 62.300 M215.775 66.268 C 215.159 67.076,214.859 67.611,215.109 67.456 C 215.621 67.140,217.353 64.800,217.075 64.800 C 216.976 64.800,216.391 65.461,215.775 66.268 M213.814 69.035 C 213.441 69.604,213.205 70.138,213.289 70.222 C 213.373 70.307,213.758 69.841,214.144 69.188 C 215.006 67.728,214.748 67.609,213.814 69.035 M258.360 68.600 C 259.034 69.905,259.588 70.628,259.585 70.200 C 259.583 69.980,259.214 69.350,258.764 68.800 C 258.221 68.136,258.085 68.069,258.360 68.600 M227.781 70.900 L 226.200 72.600 227.900 71.019 C 229.481 69.548,229.784 69.200,229.481 69.200 C 229.416 69.200,228.651 69.965,227.781 70.900 M244.800 71.000 C 245.546 71.770,246.247 72.400,246.357 72.400 C 246.467 72.400,245.946 71.770,245.200 71.000 C 244.454 70.230,243.753 69.600,243.643 69.600 C 243.533 69.600,244.054 70.230,244.800 71.000 M260.000 71.353 C 260.000 71.782,261.190 74.000,261.421 74.000 C 261.531 74.000,261.323 73.415,260.959 72.700 C 260.217 71.240,260.000 70.936,260.000 71.353 M112.649 77.015 C 112.512 77.373,112.415 77.966,112.434 78.333 C 112.453 78.700,112.627 78.469,112.821 77.820 C 113.198 76.558,113.065 75.933,112.649 77.015 M207.649 84.200 C 207.616 84.640,207.496 85.450,207.383 86.000 L 207.177 87.000 207.606 86.019 C 207.842 85.479,207.961 84.669,207.872 84.219 C 207.713 83.421,207.707 83.421,207.649 84.200 M264.806 84.633 C 264.809 85.055,264.995 85.670,265.218 86.000 C 265.515 86.438,265.552 86.276,265.356 85.400 C 265.027 83.929,264.798 83.610,264.806 84.633 M206.893 88.400 C 206.893 89.170,206.975 89.485,207.076 89.100 C 207.176 88.715,207.176 88.085,207.076 87.700 C 206.975 87.315,206.893 87.630,206.893 88.400 M110.101 89.400 C 110.105 90.280,110.187 90.593,110.283 90.095 C 110.379 89.598,110.375 88.878,110.275 88.495 C 110.175 88.113,110.096 88.520,110.101 89.400 M265.687 88.600 C 265.691 89.040,265.832 89.940,266.000 90.600 C 266.274 91.678,266.306 91.698,266.313 90.800 C 266.317 90.250,266.176 89.350,266.000 88.800 C 265.749 88.016,265.681 87.973,265.687 88.600 M145.378 91.712 C 145.270 91.994,145.235 95.639,145.300 99.812 L 145.419 107.400 145.509 99.504 L 145.600 91.608 163.700 91.500 L 181.800 91.392 163.687 91.296 C 149.265 91.220,145.535 91.304,145.378 91.712 M206.162 99.800 C 206.162 103.320,206.224 104.706,206.298 102.881 C 206.372 101.056,206.372 98.176,206.297 96.481 C 206.222 94.786,206.161 96.280,206.162 99.800 M109.337 97.000 C 109.339 98.760,109.409 99.430,109.493 98.489 C 109.578 97.549,109.577 96.109,109.491 95.289 C 109.405 94.470,109.336 95.240,109.337 97.000 M266.534 96.800 C 266.534 98.450,266.605 99.125,266.691 98.300 C 266.778 97.475,266.778 96.125,266.691 95.300 C 266.605 94.475,266.534 95.150,266.534 96.800 M218.114 97.400 C 218.117 98.500,218.195 98.903,218.287 98.295 C 218.379 97.686,218.377 96.786,218.282 96.295 C 218.187 95.803,218.111 96.300,218.114 97.400 M254.514 97.400 C 254.517 98.500,254.595 98.903,254.687 98.295 C 254.779 97.686,254.777 96.786,254.682 96.295 C 254.587 95.803,254.511 96.300,254.514 97.400 M266.531 103.400 C 266.533 104.940,266.605 105.521,266.692 104.691 C 266.779 103.861,266.777 102.601,266.689 101.891 C 266.600 101.181,266.529 101.860,266.531 103.400 M218.109 102.800 C 218.109 103.790,218.187 104.195,218.282 103.700 C 218.378 103.205,218.378 102.395,218.282 101.900 C 218.187 101.405,218.109 101.810,218.109 102.800 M254.514 103.000 C 254.517 104.100,254.595 104.503,254.687 103.895 C 254.779 103.286,254.777 102.386,254.682 101.895 C 254.587 101.403,254.511 101.900,254.514 103.000 M109.340 108.400 C 109.340 110.270,109.409 111.035,109.493 110.100 C 109.577 109.165,109.577 107.635,109.493 106.700 C 109.409 105.765,109.340 106.530,109.340 108.400 M193.714 107.800 C 193.717 108.900,193.795 109.303,193.887 108.695 C 193.979 108.086,193.977 107.186,193.882 106.695 C 193.787 106.203,193.711 106.700,193.714 107.800 M265.822 109.422 C 265.672 110.225,265.628 110.962,265.726 111.060 C 265.824 111.157,266.027 110.581,266.178 109.778 C 266.328 108.975,266.372 108.238,266.274 108.140 C 266.176 108.043,265.973 108.619,265.822 109.422 M207.268 112.400 C 207.288 113.439,207.918 115.146,207.932 114.200 C 207.938 113.760,207.789 113.040,207.600 112.600 C 207.389 112.110,207.261 112.032,207.268 112.400 M110.093 116.800 C 110.093 117.570,110.175 117.885,110.276 117.500 C 110.376 117.115,110.376 116.485,110.276 116.100 C 110.175 115.715,110.093 116.030,110.093 116.800 M136.677 117.631 C 137.075 118.308,137.656 119.073,137.968 119.331 C 138.280 119.589,138.032 119.035,137.415 118.100 C 136.120 116.137,135.609 115.812,136.677 117.631 M187.827 120.705 C 186.646 122.078,186.380 122.518,187.163 121.800 C 188.350 120.713,190.239 118.393,189.927 118.405 C 189.857 118.408,188.912 119.443,187.827 120.705 M261.753 121.700 C 260.376 124.036,260.286 124.235,260.987 123.400 C 261.800 122.432,262.500 121.200,262.238 121.200 C 262.133 121.200,261.915 121.425,261.753 121.700 M257.425 127.519 C 255.101 130.099,254.993 130.275,256.757 128.600 C 258.569 126.880,260.721 124.360,260.327 124.419 C 260.257 124.430,258.951 125.825,257.425 127.519 M179.400 126.214 C 178.740 126.517,178.470 126.766,178.800 126.768 C 179.130 126.770,179.850 126.514,180.400 126.200 C 181.665 125.477,180.989 125.487,179.400 126.214 M215.400 128.000 C 216.706 129.320,217.865 130.400,217.975 130.400 C 218.085 130.400,217.106 129.320,215.800 128.000 C 214.494 126.680,213.335 125.600,213.225 125.600 C 213.115 125.600,214.094 126.680,215.400 128.000 M150.900 127.476 C 151.285 127.576,151.915 127.576,152.300 127.476 C 152.685 127.375,152.370 127.293,151.600 127.293 C 150.830 127.293,150.515 127.375,150.900 127.476 M153.400 127.798 C 154.415 128.142,157.562 128.262,157.369 127.950 C 157.250 127.758,156.218 127.614,155.076 127.632 C 153.934 127.649,153.180 127.724,153.400 127.798 M169.867 127.867 C 169.720 128.013,169.642 134.628,169.692 142.567 L 169.785 157.000 169.992 142.600 L 170.200 128.200 172.200 127.963 L 174.200 127.726 172.167 127.663 C 171.048 127.628,170.013 127.720,169.867 127.867 M220.800 132.196 C 220.800 132.470,223.249 133.684,223.432 133.501 C 223.519 133.414,222.962 133.044,222.195 132.678 C 221.428 132.312,220.800 132.095,220.800 132.196 M242.581 135.705 C 242.475 135.982,242.438 141.517,242.500 148.005 L 242.613 159.800 242.706 147.733 C 242.778 138.526,242.918 135.619,243.300 135.465 C 243.692 135.307,243.689 135.256,243.287 135.232 C 243.006 135.214,242.688 135.427,242.581 135.705 M157.200 165.800 C 157.200 175.150,157.098 182.800,156.974 182.800 C 156.849 182.800,156.354 182.610,155.874 182.378 C 155.030 181.970,155.026 181.977,155.776 182.578 C 157.622 184.057,157.600 184.256,157.600 166.000 C 157.600 156.540,157.510 148.800,157.400 148.800 C 157.290 148.800,157.200 156.450,157.200 165.800 M125.043 154.727 C 125.459 155.457,126.148 156.357,126.574 156.727 C 127.024 157.118,126.866 156.731,126.196 155.800 C 124.593 153.574,124.150 153.161,125.043 154.727 M129.081 160.187 C 129.477 160.731,129.966 161.181,130.170 161.187 C 130.373 161.194,130.117 160.750,129.600 160.200 C 128.401 158.923,128.157 158.918,129.081 160.187 M242.560 165.800 C 242.561 169.100,242.622 170.397,242.698 168.682 C 242.773 166.967,242.772 164.267,242.697 162.682 C 242.621 161.097,242.559 162.500,242.560 165.800 M132.800 164.510 C 132.800 164.571,134.195 165.966,135.900 167.610 L 139.000 170.600 136.010 167.500 C 133.233 164.621,132.800 164.217,132.800 164.510 M272.589 176.100 L 269.800 179.000 272.700 176.211 C 274.295 174.677,275.600 173.372,275.600 173.311 C 275.600 173.017,275.180 173.406,272.589 176.100 M230.000 188.384 C 230.000 188.595,229.254 188.991,228.342 189.265 C 227.430 189.538,226.873 189.824,227.105 189.902 C 227.728 190.109,230.400 188.908,230.400 188.420 C 230.400 188.189,230.310 188.000,230.200 188.000 C 230.090 188.000,230.000 188.173,230.000 188.384 M224.800 190.400 C 223.976 190.664,223.941 190.726,224.600 190.754 C 225.040 190.773,225.670 190.613,226.000 190.400 C 226.701 189.947,226.214 189.947,224.800 190.400 M222.000 191.200 C 221.176 191.464,221.141 191.526,221.800 191.554 C 222.240 191.573,222.870 191.413,223.200 191.200 C 223.901 190.747,223.414 190.747,222.000 191.200 M181.233 192.147 C 181.325 192.228,182.120 192.404,183.000 192.538 C 184.115 192.707,184.358 192.671,183.800 192.419 C 183.032 192.071,180.890 191.844,181.233 192.147 M216.200 192.419 C 215.642 192.671,215.885 192.707,217.000 192.538 C 217.880 192.404,218.675 192.228,218.767 192.147 C 219.110 191.844,216.968 192.071,216.200 192.419 M185.700 193.076 C 186.085 193.176,186.715 193.176,187.100 193.076 C 187.485 192.975,187.170 192.893,186.400 192.893 C 185.630 192.893,185.315 192.975,185.700 193.076 M212.900 193.076 C 213.285 193.176,213.915 193.176,214.300 193.076 C 214.685 192.975,214.370 192.893,213.600 192.893 C 212.830 192.893,212.515 192.975,212.900 193.076 M195.900 193.898 C 198.155 193.970,201.845 193.970,204.100 193.898 C 206.355 193.827,204.510 193.769,200.000 193.769 C 195.490 193.769,193.645 193.827,195.900 193.898 M105.100 200.699 C 109.115 200.765,115.685 200.765,119.700 200.699 C 123.715 200.634,120.430 200.581,112.400 200.581 C 104.370 200.581,101.085 200.634,105.100 200.699 M253.200 200.693 C 280.777 200.969,302.307 200.972,302.138 200.700 C 302.036 200.535,288.598 200.442,272.276 200.493 C 255.954 200.544,247.370 200.634,253.200 200.693 M250.783 227.700 C 251.764 228.745,252.619 229.600,252.683 229.600 C 252.984 229.600,252.666 229.241,250.900 227.583 L 249.000 225.800 250.783 227.700 M294.181 228.100 L 292.600 229.800 294.300 228.219 C 295.235 227.349,296.000 226.584,296.000 226.519 C 296.000 226.216,295.652 226.519,294.181 228.100 M90.289 229.417 C 89.935 229.848,88.825 231.304,87.824 232.652 C 77.129 247.061,56.974 252.811,39.510 246.436 C 35.755 245.065,36.000 244.621,36.000 252.800 L 36.000 260.000 199.800 260.000 L 363.600 260.000 363.600 252.800 C 363.600 248.840,363.506 245.600,363.390 245.600 C 363.275 245.600,361.250 246.213,358.890 246.962 C 341.216 252.572,323.293 246.933,311.728 232.122 L 309.141 228.810 306.830 231.905 C 289.708 254.837,255.882 254.746,238.553 231.720 L 236.312 228.743 235.300 230.234 C 218.755 254.581,182.667 255.341,165.722 231.700 C 164.736 230.325,163.781 229.200,163.600 229.200 C 163.419 229.200,162.461 230.325,161.473 231.700 C 144.271 255.629,106.273 254.361,91.367 229.360 C 90.952 228.664,90.907 228.667,90.289 229.417 M126.505 237.087 C 127.114 237.179,128.014 237.177,128.505 237.082 C 128.997 236.987,128.500 236.911,127.400 236.914 C 126.300 236.917,125.897 236.995,126.505 237.087 M271.705 237.087 C 272.314 237.179,273.214 237.177,273.705 237.082 C 274.197 236.987,273.700 236.911,272.600 236.914 C 271.500 236.917,271.097 236.995,271.705 237.087 M157.798 272.465 C 157.686 272.759,157.641 298.830,157.697 330.400 L 157.800 387.800 200.000 387.800 L 242.200 387.800 242.301 330.421 C 242.372 290.645,242.274 272.913,241.981 272.621 C 241.288 271.927,158.061 271.773,157.798 272.465 M234.500 272.664 L 242.000 272.926 242.000 330.063 L 242.000 387.200 200.000 387.200 L 158.000 387.200 158.000 329.800 L 158.000 272.400 192.500 272.401 C 211.475 272.402,230.375 272.520,234.500 272.664 M181.785 315.294 C 181.677 315.577,181.635 321.117,181.694 327.605 L 181.800 339.400 187.800 339.400 L 193.800 339.400 193.800 327.200 L 193.800 315.000 187.892 314.889 C 183.359 314.804,181.937 314.898,181.785 315.294 M206.181 315.305 C 206.075 315.582,206.035 321.117,206.094 327.605 L 206.200 339.400 212.000 339.416 L 217.800 339.432 212.100 339.305 L 206.400 339.179 206.400 327.200 L 206.400 315.221 212.300 315.099 L 218.200 314.977 212.287 314.888 C 207.831 314.822,206.327 314.924,206.181 315.305 M193.600 327.200 L 193.600 339.200 187.800 339.200 L 182.000 339.200 182.000 327.200 L 182.000 315.200 187.800 315.200 L 193.600 315.200 193.600 327.200 M218.177 327.200 C 218.177 333.690,218.232 336.345,218.299 333.100 C 218.366 329.855,218.366 324.545,218.299 321.300 C 218.232 318.055,218.177 320.710,218.177 327.200 M36.267 351.867 C 35.751 352.383,35.958 386.998,36.480 387.520 C 36.849 387.889,49.520 388.000,91.080 388.000 L 145.200 388.000 145.200 369.800 L 145.200 351.600 90.867 351.600 C 60.983 351.600,36.413 351.720,36.267 351.867 M254.668 351.865 C 254.151 352.382,254.357 386.997,254.880 387.520 C 255.410 388.050,341.835 388.234,356.104 387.735 L 363.608 387.473 363.504 369.637 L 363.400 351.800 309.168 351.699 C 279.341 351.643,254.816 351.718,254.668 351.865 " stroke="none" fill="#ea506e" fill-rule="evenodd"></path><path id="path3" d="M184.500 0.272 C 182.905 0.362,181.600 0.607,181.600 0.818 C 181.600 1.028,180.700 1.200,179.600 1.200 C 178.500 1.200,177.600 1.380,177.600 1.600 C 177.600 1.820,176.891 2.000,176.024 2.000 C 175.157 2.000,174.336 2.180,174.200 2.400 C 174.064 2.620,173.423 2.800,172.776 2.800 C 172.129 2.800,171.600 2.980,171.600 3.200 C 171.600 3.420,170.981 3.600,170.224 3.600 C 169.467 3.600,168.736 3.780,168.600 4.000 C 168.464 4.220,167.823 4.400,167.176 4.400 C 166.529 4.400,166.000 4.580,166.000 4.800 C 166.000 5.020,165.550 5.200,165.000 5.200 C 164.450 5.200,164.000 5.380,164.000 5.600 C 164.000 5.820,163.550 6.000,163.000 6.000 C 162.450 6.000,162.000 6.180,162.000 6.400 C 162.000 6.620,161.550 6.800,161.000 6.800 C 160.450 6.800,160.000 6.980,160.000 7.200 C 160.000 7.420,159.640 7.600,159.200 7.600 C 158.760 7.600,158.400 7.780,158.400 8.000 C 158.400 8.220,158.085 8.401,157.700 8.402 C 157.315 8.404,156.484 8.674,155.854 9.002 C 155.224 9.331,154.459 9.600,154.154 9.600 C 153.849 9.600,153.600 9.780,153.600 10.000 C 153.600 10.220,153.240 10.400,152.800 10.400 C 152.360 10.400,152.000 10.580,152.000 10.800 C 152.000 11.020,151.640 11.200,151.200 11.200 C 150.760 11.200,150.400 11.380,150.400 11.600 C 150.400 11.820,150.040 12.000,149.600 12.000 C 149.160 12.000,148.800 12.180,148.800 12.400 C 148.800 12.620,148.564 12.800,148.275 12.800 C 147.987 12.800,147.364 13.160,146.892 13.600 C 146.420 14.040,145.756 14.400,145.417 14.400 C 145.078 14.400,144.800 14.580,144.800 14.800 C 144.800 15.020,144.530 15.200,144.200 15.200 C 143.870 15.200,143.600 15.350,143.600 15.532 C 143.600 15.715,143.105 16.119,142.500 16.430 C 141.895 16.740,141.109 17.311,140.753 17.697 C 140.397 18.084,139.940 18.400,139.737 18.400 C 139.534 18.400,138.572 19.120,137.600 20.000 C 136.628 20.880,135.676 21.600,135.485 21.600 C 135.294 21.600,134.446 22.320,133.600 23.200 C 132.754 24.080,131.846 24.800,131.581 24.800 C 131.008 24.800,121.600 34.226,121.600 34.800 C 121.600 35.018,120.700 36.115,119.600 37.239 C 118.500 38.362,117.600 39.451,117.600 39.659 C 117.600 39.866,117.195 40.456,116.700 40.968 C 115.226 42.493,114.400 43.584,114.400 44.005 C 114.400 44.222,114.220 44.400,114.000 44.400 C 113.780 44.400,113.600 44.588,113.600 44.817 C 113.600 45.046,113.240 45.620,112.800 46.092 C 112.360 46.564,112.000 47.187,112.000 47.475 C 112.000 47.764,111.820 48.000,111.600 48.000 C 111.380 48.000,111.200 48.360,111.200 48.800 C 111.200 49.240,111.041 49.600,110.847 49.600 C 110.405 49.600,108.400 53.647,108.400 54.540 C 108.400 54.903,108.220 55.200,108.000 55.200 C 107.780 55.200,107.600 55.560,107.600 56.000 C 107.600 56.440,107.420 56.800,107.200 56.800 C 106.980 56.800,106.800 57.160,106.800 57.600 C 106.800 58.040,106.620 58.400,106.400 58.400 C 106.180 58.400,106.000 58.670,106.000 59.000 C 106.000 59.330,105.820 59.600,105.600 59.600 C 105.380 59.600,105.200 59.960,105.200 60.400 C 105.200 60.840,105.020 61.200,104.800 61.200 C 104.580 61.200,104.400 61.549,104.400 61.976 C 104.400 62.403,104.220 62.864,104.000 63.000 C 103.780 63.136,103.600 63.687,103.600 64.224 C 103.600 64.761,103.420 65.200,103.200 65.200 C 102.980 65.200,102.800 65.562,102.800 66.005 C 102.800 66.448,102.620 67.168,102.400 67.605 C 102.180 68.042,101.820 68.758,101.600 69.195 C 101.380 69.632,101.200 70.341,101.200 70.771 C 101.200 71.201,101.020 71.664,100.800 71.800 C 100.580 71.936,100.400 72.667,100.400 73.424 C 100.400 74.181,100.220 74.800,100.000 74.800 C 99.780 74.800,99.600 75.430,99.600 76.200 C 99.600 76.970,99.420 77.600,99.200 77.600 C 98.980 77.600,98.800 78.320,98.800 79.200 C 98.800 80.080,98.620 80.800,98.400 80.800 C 98.180 80.800,98.000 81.700,98.000 82.800 C 98.000 83.900,97.820 84.800,97.600 84.800 C 97.371 84.800,97.200 86.000,97.200 87.600 L 97.200 90.400 67.280 90.400 C 35.160 90.400,36.400 90.316,36.400 92.480 C 36.400 93.096,36.220 93.600,36.000 93.600 C 35.780 93.600,35.600 94.320,35.600 95.200 C 35.600 96.080,35.420 96.800,35.200 96.800 C 34.980 96.800,34.800 97.419,34.800 98.176 C 34.800 98.933,34.620 99.664,34.400 99.800 C 34.180 99.936,34.000 100.656,34.000 101.400 C 34.000 102.144,33.820 102.864,33.600 103.000 C 33.380 103.136,33.200 103.856,33.200 104.600 C 33.200 105.344,33.020 106.064,32.800 106.200 C 32.580 106.336,32.400 107.056,32.400 107.800 C 32.400 108.544,32.220 109.264,32.000 109.400 C 31.780 109.536,31.600 110.256,31.600 111.000 C 31.600 111.744,31.440 112.452,31.244 112.573 C 31.049 112.694,30.792 113.379,30.673 114.096 C 30.555 114.813,30.273 116.120,30.047 117.000 C 29.630 118.627,29.192 120.368,28.389 123.600 C 28.143 124.590,27.845 125.987,27.727 126.704 C 27.608 127.421,27.351 128.106,27.156 128.227 C 26.960 128.348,26.800 128.979,26.800 129.629 C 26.800 130.279,26.636 131.123,26.436 131.505 C 25.910 132.511,24.800 137.701,24.800 139.157 C 24.800 139.841,24.620 140.400,24.400 140.400 C 24.180 140.400,24.000 141.120,24.000 142.000 C 24.000 142.880,23.820 143.600,23.600 143.600 C 23.380 143.600,23.200 144.219,23.200 144.976 C 23.200 145.733,23.020 146.464,22.800 146.600 C 22.580 146.736,22.400 147.456,22.400 148.200 C 22.400 148.944,22.220 149.664,22.000 149.800 C 21.780 149.936,21.600 150.667,21.600 151.424 C 21.600 152.181,21.420 152.800,21.200 152.800 C 20.980 152.800,20.800 153.520,20.800 154.400 C 20.800 155.280,20.620 156.000,20.400 156.000 C 20.180 156.000,20.000 156.720,20.000 157.600 C 20.000 158.480,19.820 159.200,19.600 159.200 C 19.380 159.200,19.200 159.920,19.200 160.800 C 19.200 161.680,19.020 162.400,18.800 162.400 C 18.580 162.400,18.400 163.019,18.400 163.776 C 18.400 164.533,18.220 165.264,18.000 165.400 C 17.780 165.536,17.600 166.256,17.600 167.000 C 17.600 167.744,17.420 168.464,17.200 168.600 C 16.980 168.736,16.800 169.456,16.800 170.200 C 16.800 170.944,16.620 171.664,16.400 171.800 C 16.180 171.936,16.000 172.656,16.000 173.400 C 16.000 174.144,15.820 174.864,15.600 175.000 C 15.380 175.136,15.200 175.856,15.200 176.600 C 15.200 177.344,15.020 178.064,14.800 178.200 C 14.580 178.336,14.400 179.056,14.400 179.800 C 14.400 180.544,14.240 181.252,14.044 181.373 C 13.849 181.494,13.592 182.179,13.473 182.896 C 13.248 184.261,12.724 186.434,11.928 189.300 C 11.307 191.539,11.005 213.565,11.588 214.148 C 11.815 214.375,12.000 215.233,12.000 216.056 C 12.000 216.879,12.180 217.664,12.400 217.800 C 12.620 217.936,12.800 218.566,12.800 219.200 C 12.800 219.834,12.980 220.464,13.200 220.600 C 13.420 220.736,13.600 221.287,13.600 221.824 C 13.600 222.361,13.780 222.800,14.000 222.800 C 14.220 222.800,14.400 223.034,14.400 223.320 C 14.400 224.056,15.341 225.993,15.700 225.997 C 15.865 225.999,16.000 226.360,16.000 226.800 C 16.000 227.240,16.180 227.600,16.400 227.600 C 16.620 227.600,16.800 227.960,16.800 228.400 C 16.800 228.840,16.950 229.200,17.132 229.200 C 17.315 229.200,17.719 229.695,18.030 230.300 C 18.340 230.905,18.911 231.691,19.297 232.047 C 19.684 232.403,20.000 232.912,20.000 233.178 C 20.000 233.445,20.720 234.354,21.600 235.200 L 23.200 236.737 23.200 311.969 L 23.200 387.200 14.200 387.200 L 5.200 387.200 5.200 393.600 L 5.200 400.000 200.000 400.000 L 394.800 400.000 394.800 393.600 L 394.800 387.200 385.800 387.200 L 376.800 387.200 376.800 353.960 L 376.800 320.720 373.300 320.958 C 371.375 321.089,368.450 321.331,366.800 321.498 L 363.800 321.800 363.600 330.400 L 363.400 339.000 309.000 339.000 L 254.600 339.000 254.498 306.044 C 254.423 282.028,254.518 272.940,254.847 272.544 C 255.326 271.966,344.773 271.798,357.600 272.350 L 363.400 272.600 363.504 290.779 C 363.584 304.712,363.724 309.031,364.104 309.273 C 364.377 309.446,367.345 309.591,370.700 309.594 L 376.800 309.600 376.800 273.160 L 376.800 236.721 378.000 235.600 C 378.660 234.983,379.200 234.308,379.200 234.099 C 379.200 233.890,379.740 233.154,380.400 232.463 C 381.060 231.772,381.600 231.018,381.600 230.787 C 381.600 230.556,381.960 229.980,382.400 229.508 C 382.840 229.036,383.200 228.413,383.200 228.125 C 383.200 227.836,383.380 227.600,383.600 227.600 C 383.820 227.600,384.000 227.240,384.000 226.800 C 384.000 226.360,384.180 226.000,384.400 226.000 C 384.620 226.000,384.800 225.640,384.800 225.200 C 384.800 224.760,384.980 224.400,385.200 224.400 C 385.420 224.400,385.600 223.950,385.600 223.400 C 385.600 222.850,385.780 222.400,386.000 222.400 C 386.220 222.400,386.400 221.961,386.400 221.424 C 386.400 220.887,386.580 220.336,386.800 220.200 C 387.020 220.064,387.200 219.423,387.200 218.776 C 387.200 218.129,387.380 217.600,387.600 217.600 C 387.820 217.600,388.000 216.711,388.000 215.624 C 388.000 214.537,388.180 213.536,388.400 213.400 C 388.947 213.062,388.947 191.200,388.400 191.200 C 388.180 191.200,388.000 190.480,388.000 189.600 C 388.000 188.720,387.820 188.000,387.600 188.000 C 387.380 188.000,387.200 187.280,387.200 186.400 C 387.200 185.520,387.020 184.800,386.800 184.800 C 386.580 184.800,386.400 184.080,386.400 183.200 C 386.400 182.320,386.220 181.600,386.000 181.600 C 385.780 181.600,385.600 180.981,385.600 180.224 C 385.600 179.467,385.420 178.736,385.200 178.600 C 384.980 178.464,384.800 177.733,384.800 176.976 C 384.800 176.219,384.620 175.600,384.400 175.600 C 384.180 175.600,384.000 174.880,384.000 174.000 C 384.000 173.120,383.820 172.400,383.600 172.400 C 383.380 172.400,383.200 171.680,383.200 170.800 C 383.200 169.920,383.020 169.200,382.800 169.200 C 382.580 169.200,382.400 168.480,382.400 167.600 C 382.400 166.720,382.220 166.000,382.000 166.000 C 381.780 166.000,381.600 165.280,381.600 164.400 C 381.600 163.520,381.420 162.800,381.200 162.800 C 380.980 162.800,380.800 162.181,380.800 161.424 C 380.800 160.667,380.620 159.936,380.400 159.800 C 380.180 159.664,380.000 158.933,380.000 158.176 C 380.000 157.419,379.820 156.800,379.600 156.800 C 379.380 156.800,379.200 156.080,379.200 155.200 C 379.200 154.320,379.020 153.600,378.800 153.600 C 378.580 153.600,378.400 152.880,378.400 152.000 C 378.400 151.120,378.220 150.400,378.000 150.400 C 377.780 150.400,377.600 149.680,377.600 148.800 C 377.600 147.920,377.420 147.200,377.200 147.200 C 376.980 147.200,376.800 146.480,376.800 145.600 C 376.800 144.720,376.620 144.000,376.400 144.000 C 376.180 144.000,376.000 143.370,376.000 142.600 C 376.000 141.830,375.841 141.200,375.647 141.200 C 375.453 141.200,375.168 139.851,375.013 138.203 C 374.859 136.554,374.567 135.104,374.366 134.979 C 374.165 134.855,374.000 134.144,374.000 133.400 C 374.000 132.656,373.820 131.936,373.600 131.800 C 373.380 131.664,373.200 130.944,373.200 130.200 C 373.200 129.456,373.020 128.736,372.800 128.600 C 372.580 128.464,372.400 127.733,372.400 126.976 C 372.400 126.219,372.220 125.600,372.000 125.600 C 371.780 125.600,371.600 124.880,371.600 124.000 C 371.600 123.120,371.420 122.400,371.200 122.400 C 370.980 122.400,370.800 121.680,370.800 120.800 C 370.800 119.920,370.620 119.200,370.400 119.200 C 370.180 119.200,370.000 118.480,370.000 117.600 C 370.000 116.720,369.820 116.000,369.600 116.000 C 369.380 116.000,369.200 115.280,369.200 114.400 C 369.200 113.520,369.020 112.800,368.800 112.800 C 368.580 112.800,368.400 112.181,368.400 111.424 C 368.400 110.667,368.220 109.936,368.000 109.800 C 367.780 109.664,367.600 108.933,367.600 108.176 C 367.600 107.419,367.420 106.800,367.200 106.800 C 366.980 106.800,366.800 106.080,366.800 105.200 C 366.800 104.320,366.620 103.600,366.400 103.600 C 366.180 103.600,366.000 102.880,366.000 102.000 C 366.000 101.120,365.820 100.400,365.600 100.400 C 365.380 100.400,365.200 99.680,365.200 98.800 C 365.200 97.920,365.020 97.200,364.800 97.200 C 364.580 97.200,364.400 96.480,364.400 95.600 C 364.400 94.720,364.220 94.000,364.000 94.000 C 363.780 94.000,363.600 93.447,363.600 92.771 C 363.600 90.269,365.312 90.400,332.629 90.400 L 302.800 90.400 302.800 87.600 C 302.800 86.000,302.629 84.800,302.400 84.800 C 302.180 84.800,302.000 83.900,302.000 82.800 C 302.000 81.700,301.820 80.800,301.600 80.800 C 301.380 80.800,301.200 80.080,301.200 79.200 C 301.200 78.320,301.020 77.600,300.800 77.600 C 300.580 77.600,300.400 76.970,300.400 76.200 C 300.400 75.430,300.220 74.800,300.000 74.800 C 299.780 74.800,299.600 74.080,299.600 73.200 C 299.600 72.320,299.420 71.600,299.200 71.600 C 298.980 71.600,298.800 71.060,298.800 70.400 C 298.800 69.740,298.620 69.200,298.400 69.200 C 298.180 69.200,298.000 68.761,298.000 68.224 C 298.000 67.687,297.820 67.136,297.600 67.000 C 297.380 66.864,297.200 66.403,297.200 65.976 C 297.200 65.549,297.020 65.200,296.800 65.200 C 296.580 65.200,296.400 64.761,296.400 64.224 C 296.400 63.687,296.220 63.136,296.000 63.000 C 295.780 62.864,295.600 62.403,295.600 61.976 C 295.600 61.549,295.420 61.200,295.200 61.200 C 294.980 61.200,294.800 60.840,294.800 60.400 C 294.800 59.960,294.620 59.600,294.400 59.600 C 294.180 59.600,294.000 59.335,294.000 59.012 C 294.000 58.689,293.612 57.744,293.137 56.912 C 291.504 54.050,291.205 53.398,291.202 52.700 C 291.201 52.315,291.065 51.997,290.900 51.994 C 290.735 51.990,290.160 51.090,289.621 49.994 C 289.083 48.897,288.498 48.000,288.321 48.000 C 288.145 48.000,288.000 47.764,288.000 47.475 C 288.000 47.187,287.685 46.602,287.300 46.175 C 286.915 45.749,286.345 44.905,286.032 44.300 C 285.720 43.695,285.315 43.200,285.132 43.200 C 284.950 43.200,284.800 43.002,284.800 42.760 C 284.800 42.519,284.260 41.817,283.600 41.200 C 282.940 40.583,282.400 39.867,282.400 39.608 C 282.400 39.349,281.680 38.446,280.800 37.600 C 279.920 36.754,279.200 35.879,279.200 35.655 C 279.200 35.046,269.117 24.800,268.517 24.800 C 268.233 24.800,268.000 24.620,268.000 24.400 C 268.000 24.180,267.770 24.000,267.488 24.000 C 267.207 24.000,266.717 23.640,266.400 23.200 C 265.687 22.211,263.600 22.091,263.600 23.040 C 263.600 23.391,263.060 24.183,262.400 24.800 C 261.740 25.417,261.200 26.333,261.200 26.836 C 261.200 27.339,260.381 28.792,259.381 30.066 L 257.561 32.382 262.834 37.491 C 278.705 52.869,287.211 69.780,290.393 92.277 C 291.299 98.682,290.745 113.813,289.365 120.363 C 284.963 141.253,274.898 158.581,259.457 171.849 C 255.638 175.131,247.299 181.200,246.608 181.200 C 246.470 181.200,245.695 181.650,244.886 182.200 C 242.224 184.009,242.384 185.538,242.497 159.346 L 242.600 135.491 244.800 134.935 C 246.010 134.629,247.763 134.023,248.696 133.589 C 249.628 133.155,250.493 132.800,250.618 132.800 C 251.279 132.800,255.671 129.412,257.439 127.537 C 261.923 122.786,264.292 117.686,265.994 109.123 C 266.938 104.374,266.389 89.248,265.157 86.081 C 264.961 85.576,264.800 84.835,264.800 84.434 C 264.800 77.804,256.017 63.532,249.112 58.941 C 243.965 55.520,236.765 53.872,232.560 55.153 C 231.922 55.348,230.590 55.744,229.600 56.035 C 221.136 58.520,213.419 67.465,209.393 79.459 C 207.227 85.910,206.417 91.433,206.408 99.800 C 206.397 110.842,208.213 117.933,212.737 124.509 C 215.788 128.943,222.102 133.317,227.600 134.807 C 228.590 135.075,229.626 135.358,229.903 135.436 C 230.302 135.548,230.384 141.110,230.303 162.289 L 230.200 189.000 228.000 189.747 C 210.906 195.555,186.169 195.341,170.697 189.252 L 169.595 188.818 169.697 158.309 L 169.800 127.800 173.196 127.519 C 182.464 126.751,189.280 121.499,192.753 112.448 L 193.769 109.800 193.916 86.451 C 193.996 73.609,193.955 62.674,193.824 62.151 C 193.586 61.204,193.558 61.200,187.800 61.200 L 182.015 61.200 181.908 70.100 L 181.800 79.000 175.800 79.000 L 169.800 79.000 169.692 70.100 L 169.585 61.200 163.592 61.200 L 157.600 61.200 157.600 70.210 L 157.600 79.221 151.500 79.110 L 145.400 79.000 145.292 70.100 L 145.185 61.200 139.392 61.200 L 133.600 61.200 133.600 85.362 L 133.600 109.523 134.568 112.385 C 137.526 121.128,144.678 126.692,154.000 127.504 L 157.400 127.800 157.503 155.500 C 157.575 175.112,157.479 183.200,157.174 183.200 C 154.868 183.200,139.289 171.534,134.400 166.147 C 127.691 158.753,125.183 155.365,120.819 147.800 C 116.077 139.581,112.917 131.058,110.614 120.281 C 103.274 85.923,119.170 47.961,149.400 27.659 C 158.144 21.786,164.324 18.920,176.200 15.227 C 177.565 14.802,183.940 13.525,188.400 12.783 C 192.596 12.084,207.548 12.182,212.400 12.939 C 216.167 13.527,216.920 13.669,220.400 14.448 C 228.659 16.295,238.382 20.128,245.518 24.348 C 248.208 25.939,247.994 25.990,249.590 23.357 C 250.338 22.124,251.346 20.934,251.831 20.713 C 252.315 20.492,252.942 19.882,253.224 19.356 C 253.505 18.830,253.885 18.400,254.068 18.400 C 254.250 18.400,254.400 18.040,254.400 17.600 C 254.400 17.160,254.580 16.800,254.800 16.800 C 255.020 16.800,255.200 16.260,255.200 15.600 C 255.200 14.877,254.992 14.400,254.675 14.400 C 254.387 14.400,253.764 14.040,253.292 13.600 C 252.820 13.160,252.156 12.800,251.817 12.800 C 251.478 12.800,251.200 12.620,251.200 12.400 C 251.200 12.180,250.855 12.000,250.433 12.000 C 250.012 12.000,249.607 11.865,249.533 11.700 C 249.284 11.140,244.579 8.870,243.086 8.590 C 242.269 8.436,241.600 8.151,241.600 7.955 C 241.600 7.760,241.240 7.600,240.800 7.600 C 240.360 7.600,240.000 7.420,240.000 7.200 C 240.000 6.980,239.550 6.800,239.000 6.800 C 238.450 6.800,238.000 6.620,238.000 6.400 C 238.000 6.180,237.651 6.000,237.224 6.000 C 236.797 6.000,236.336 5.820,236.200 5.600 C 236.064 5.380,235.513 5.200,234.976 5.200 C 234.439 5.200,234.000 5.020,234.000 4.800 C 234.000 4.580,233.460 4.400,232.800 4.400 C 232.140 4.400,231.600 4.220,231.600 4.000 C 231.600 3.780,230.880 3.600,230.000 3.600 C 229.120 3.600,228.400 3.420,228.400 3.200 C 228.400 2.980,227.871 2.800,227.224 2.800 C 226.577 2.800,225.936 2.620,225.800 2.400 C 225.664 2.180,224.843 2.000,223.976 2.000 C 223.109 2.000,222.400 1.820,222.400 1.600 C 222.400 1.380,221.515 1.200,220.433 1.200 C 219.260 1.200,218.402 1.006,218.307 0.721 C 218.147 0.240,191.397 -0.114,184.500 0.272 M240.818 67.797 C 256.584 75.811,259.972 114.898,245.508 121.892 C 241.956 123.609,241.045 123.800,236.400 123.800 C 222.523 123.800,215.740 112.056,218.594 92.969 C 221.392 74.257,231.346 62.982,240.818 67.797 M181.916 99.000 C 182.075 109.382,181.068 112.199,176.356 114.547 L 174.243 115.600 163.770 115.600 C 155.159 115.600,153.031 115.488,151.795 114.972 C 148.630 113.650,146.734 111.542,145.706 108.204 C 145.180 106.497,144.976 91.957,145.471 91.463 C 145.620 91.314,153.855 91.239,163.771 91.296 L 181.800 91.400 181.916 99.000 M88.185 103.465 L 96.098 103.730 95.876 105.765 C 95.753 106.884,94.747 115.990,93.641 126.000 C 91.648 144.027,91.113 148.802,90.388 155.000 C 90.183 156.760,89.824 160.000,89.592 162.200 C 89.359 164.400,89.009 167.550,88.813 169.200 C 88.618 170.850,88.247 174.270,87.990 176.800 C 87.733 179.330,87.308 182.930,87.046 184.800 L 86.569 188.200 56.585 188.303 C 40.093 188.360,26.403 188.332,26.163 188.240 C 25.877 188.131,26.614 184.545,28.278 177.937 C 29.682 172.361,30.988 167.080,31.179 166.200 C 32.009 162.384,46.768 103.975,46.996 103.607 C 47.285 103.139,75.538 103.041,88.185 103.465 M352.813 103.853 C 353.171 104.211,374.000 186.835,374.000 187.898 C 374.000 188.828,313.320 188.610,313.025 187.679 C 312.899 187.282,312.618 185.167,312.400 182.979 C 312.183 180.790,311.833 177.470,311.624 175.600 C 311.229 172.082,310.644 166.692,310.017 160.800 C 309.818 158.930,309.383 154.970,309.049 152.000 C 308.716 149.030,307.979 142.190,307.413 136.800 C 306.847 131.410,306.214 125.650,306.007 124.000 C 304.837 114.687,303.888 104.468,304.134 103.827 C 304.453 102.996,351.981 103.021,352.813 103.853 M106.762 146.585 C 116.753 167.568,132.789 184.236,152.911 194.557 L 157.675 197.000 157.492 205.000 C 157.292 213.711,156.960 215.352,154.328 220.600 C 151.104 227.029,143.666 233.586,137.600 235.346 C 137.050 235.506,135.610 235.921,134.400 236.268 C 115.940 241.562,95.941 225.209,96.886 205.593 C 97.160 199.896,95.629 200.400,112.660 200.400 L 127.221 200.400 127.111 194.500 L 127.000 188.600 113.000 188.400 L 99.000 188.200 99.110 186.000 C 99.170 184.790,99.387 182.360,99.592 180.600 C 99.797 178.840,100.159 175.600,100.398 173.400 C 100.636 171.200,100.994 168.050,101.193 166.400 C 101.393 164.750,101.754 161.510,101.996 159.200 C 103.157 148.133,103.991 141.600,104.243 141.600 C 104.323 141.600,105.456 143.843,106.762 146.585 M297.171 153.209 C 297.841 159.254,298.564 165.730,298.777 167.600 C 298.989 169.470,299.360 172.890,299.600 175.200 C 299.840 177.510,300.208 180.605,300.418 182.077 C 300.628 183.549,300.800 185.574,300.800 186.577 L 300.800 188.400 279.600 188.400 C 267.940 188.400,258.408 188.265,258.417 188.100 C 258.427 187.935,259.732 186.861,261.317 185.714 C 268.405 180.586,275.233 173.858,282.201 165.135 C 284.426 162.350,292.800 148.626,292.800 147.765 C 292.800 147.067,295.587 141.853,295.830 142.097 C 295.897 142.164,296.500 147.164,297.171 153.209 M79.200 200.747 L 84.600 201.000 84.507 206.200 C 83.788 246.505,25.727 247.200,24.109 206.922 C 23.993 204.020,24.005 201.365,24.136 201.022 C 24.390 200.362,66.468 200.151,79.200 200.747 M302.666 203.400 C 302.933 204.940,303.162 207.169,303.175 208.354 C 303.198 210.359,303.057 211.143,301.903 215.400 C 294.667 242.102,257.292 244.554,245.062 219.130 C 243.086 215.022,241.506 203.708,242.534 201.029 C 242.753 200.457,245.680 200.405,272.479 200.497 L 302.182 200.600 302.666 203.400 M370.000 200.750 L 375.800 201.000 375.760 206.200 C 375.704 213.520,374.279 218.298,370.494 223.855 C 362.155 236.097,345.209 240.475,331.996 233.802 C 323.998 229.762,318.561 222.938,316.058 213.800 C 315.209 210.701,314.360 201.073,314.906 200.726 C 315.481 200.361,361.425 200.381,370.000 200.750 M177.600 203.638 C 183.092 204.859,188.218 205.566,194.278 205.940 C 204.372 206.562,216.573 205.359,226.177 202.796 C 227.925 202.330,229.545 201.915,229.777 201.874 C 230.493 201.749,230.252 210.993,229.462 214.000 C 227.250 222.417,221.311 229.909,213.878 233.662 C 211.341 234.943,210.622 235.206,206.800 236.250 C 204.600 236.852,194.844 237.121,194.006 236.604 C 193.788 236.469,192.618 236.100,191.405 235.785 C 178.697 232.474,169.602 220.037,169.600 205.967 C 169.600 201.404,169.484 201.574,172.106 202.301 C 173.258 202.621,175.730 203.222,177.600 203.638 M94.032 232.943 C 111.190 254.910,145.239 254.283,161.473 231.700 C 162.461 230.325,163.419 229.200,163.600 229.200 C 163.781 229.200,164.736 230.325,165.722 231.700 C 182.667 255.341,218.755 254.581,235.300 230.234 L 236.312 228.743 238.553 231.720 C 255.882 254.746,289.708 254.837,306.830 231.905 L 309.141 228.810 311.728 232.122 C 323.293 246.933,341.216 252.572,358.890 246.962 C 361.250 246.213,363.275 245.600,363.390 245.600 C 363.506 245.600,363.600 248.840,363.600 252.800 L 363.600 260.000 199.800 260.000 L 36.000 260.000 36.000 252.800 C 36.000 244.621,35.755 245.065,39.510 246.436 C 56.974 252.811,77.129 247.061,87.824 232.652 C 90.960 228.428,90.864 228.517,91.367 229.360 C 91.605 229.759,92.804 231.372,94.032 232.943 M137.336 272.263 L 145.200 272.527 145.200 305.865 L 145.200 339.203 90.700 339.101 L 36.200 339.000 36.096 306.000 C 36.000 275.331,36.041 272.965,36.673 272.500 C 37.422 271.950,122.027 271.751,137.336 272.263 M241.981 272.621 C 242.274 272.913,242.372 290.645,242.301 330.421 L 242.200 387.800 200.000 387.800 L 157.800 387.800 157.697 330.400 C 157.641 298.830,157.686 272.759,157.798 272.465 C 158.061 271.773,241.288 271.927,241.981 272.621 M182.000 327.200 L 182.000 339.200 187.800 339.200 L 193.600 339.200 193.600 327.200 L 193.600 315.200 187.800 315.200 L 182.000 315.200 182.000 327.200 M206.400 327.200 L 206.400 339.200 212.200 339.200 L 218.000 339.200 218.000 327.200 L 218.000 315.200 212.200 315.200 L 206.400 315.200 206.400 327.200 M145.200 369.800 L 145.200 388.000 91.080 388.000 C 49.520 388.000,36.849 387.889,36.480 387.520 C 35.958 386.998,35.751 352.383,36.267 351.867 C 36.413 351.720,60.983 351.600,90.867 351.600 L 145.200 351.600 145.200 369.800 M363.504 369.637 L 363.608 387.473 356.104 387.735 C 341.835 388.234,255.410 388.050,254.880 387.520 C 254.357 386.997,254.151 352.382,254.668 351.865 C 254.816 351.718,279.341 351.643,309.168 351.699 L 363.400 351.800 363.504 369.637 " stroke="none" fill="#040404" fill-rule="evenodd"></path><path id="path4" d="M181.767 99.000 C 181.767 103.180,181.826 104.836,181.898 102.679 C 181.971 100.523,181.970 97.103,181.898 95.079 C 181.825 93.056,181.766 94.820,181.767 99.000 M47.017 103.573 C 46.291 104.747,41.477 124.923,42.000 124.600 C 42.220 124.464,42.400 123.971,42.400 123.505 C 42.400 123.038,42.568 122.104,42.773 121.428 C 43.119 120.288,43.327 119.494,44.400 115.200 C 45.376 111.298,45.675 110.125,45.981 109.000 C 46.161 108.340,46.532 106.945,46.806 105.900 L 47.304 104.000 66.706 104.000 L 86.109 104.000 85.845 105.900 C 85.699 106.945,85.395 109.510,85.169 111.600 C 84.943 113.690,84.581 116.930,84.366 118.800 C 84.151 120.670,83.791 123.910,83.567 126.000 C 83.056 130.775,82.533 135.571,82.019 140.200 C 81.800 142.180,81.437 145.510,81.213 147.600 C 80.989 149.690,80.635 152.930,80.426 154.800 C 80.217 156.670,79.768 160.900,79.428 164.200 C 79.087 167.500,78.635 171.640,78.423 173.400 C 78.211 175.160,77.841 178.400,77.602 180.600 C 77.362 182.800,77.072 185.365,76.958 186.300 L 76.751 188.000 51.352 188.000 C 32.024 188.000,26.022 187.888,26.243 187.531 C 26.402 187.273,26.683 186.373,26.866 185.531 C 27.050 184.689,27.372 183.325,27.582 182.500 C 28.203 180.060,28.738 177.905,29.147 176.200 C 29.359 175.320,30.995 168.775,32.784 161.656 C 34.573 154.536,35.974 148.523,35.898 148.294 C 35.780 147.939,32.266 161.284,31.184 166.200 C 30.990 167.080,29.682 172.361,28.278 177.937 C 26.614 184.545,25.877 188.131,26.163 188.240 C 26.403 188.332,40.093 188.360,56.585 188.303 L 86.569 188.200 87.046 184.800 C 87.308 182.930,87.733 179.330,87.990 176.800 C 88.247 174.270,88.618 170.850,88.813 169.200 C 89.009 167.550,89.359 164.400,89.592 162.200 C 89.824 160.000,90.183 156.760,90.388 155.000 C 91.113 148.802,91.648 144.027,93.641 126.000 C 94.747 115.990,95.753 106.884,95.876 105.765 L 96.098 103.730 88.185 103.465 C 76.218 103.064,47.284 103.140,47.017 103.573 M304.234 103.545 C 304.025 103.883,309.007 104.000,323.561 104.000 L 343.169 104.000 343.565 105.500 C 344.104 107.548,347.102 119.467,348.067 123.400 C 348.499 125.160,349.028 127.320,349.244 128.200 C 349.460 129.080,349.817 130.520,350.037 131.400 C 350.257 132.280,350.592 133.630,350.782 134.400 C 352.032 139.456,352.461 141.139,352.773 142.200 C 352.967 142.860,353.345 144.390,353.612 145.600 C 353.880 146.810,354.245 148.250,354.422 148.800 C 354.600 149.350,355.473 152.770,356.362 156.400 C 357.251 160.030,359.264 168.130,360.834 174.400 C 362.404 180.670,363.780 186.295,363.890 186.900 L 364.091 188.000 338.895 188.000 L 313.700 188.000 313.422 186.700 C 313.269 185.985,312.965 183.690,312.747 181.600 C 312.063 175.034,311.599 170.715,311.200 167.200 C 310.988 165.330,310.631 162.135,310.407 160.100 C 310.183 158.065,309.824 154.825,309.609 152.900 C 309.395 150.975,309.055 147.635,308.854 145.478 C 308.654 143.321,308.359 141.431,308.200 141.278 C 307.888 140.979,308.131 144.080,309.040 152.000 C 309.355 154.750,309.791 158.665,310.007 160.700 C 310.635 166.609,311.213 171.939,311.624 175.600 C 311.833 177.470,312.183 180.790,312.400 182.979 C 312.618 185.167,312.899 187.282,313.025 187.679 C 313.320 188.610,374.000 188.828,374.000 187.898 C 374.000 186.835,353.171 104.211,352.813 103.853 C 352.229 103.269,304.591 102.967,304.234 103.545 M304.075 106.000 C 304.072 106.770,304.210 108.300,304.382 109.400 L 304.693 111.400 304.707 109.000 C 304.714 107.680,304.576 106.150,304.400 105.600 C 304.110 104.693,304.079 104.731,304.075 106.000 M304.875 113.200 C 304.872 113.970,305.010 115.500,305.182 116.600 L 305.493 118.600 305.507 116.200 C 305.514 114.880,305.376 113.350,305.200 112.800 C 304.910 111.893,304.879 111.931,304.875 113.200 M305.670 120.400 C 305.664 121.170,305.803 122.610,305.980 123.600 L 306.300 125.400 306.310 123.200 C 306.316 121.990,306.176 120.550,306.000 120.000 C 305.709 119.091,305.679 119.128,305.670 120.400 M235.700 123.876 C 236.085 123.976,236.715 123.976,237.100 123.876 C 237.485 123.775,237.170 123.693,236.400 123.693 C 235.630 123.693,235.315 123.775,235.700 123.876 M40.227 129.963 C 39.600 132.414,39.193 134.526,39.323 134.657 C 39.454 134.787,39.669 134.378,39.800 133.747 C 40.111 132.259,40.686 129.996,41.249 128.046 C 41.496 127.192,41.624 126.271,41.533 126.000 C 41.443 125.729,40.855 127.512,40.227 129.963 M306.666 129.800 C 306.793 131.560,306.965 133.075,307.049 133.167 C 307.351 133.499,307.111 128.573,306.778 127.600 C 306.566 126.980,306.523 127.815,306.666 129.800 M307.454 137.000 C 307.588 138.760,307.765 140.275,307.849 140.367 C 308.175 140.726,307.922 135.352,307.577 134.600 C 307.341 134.084,307.297 134.934,307.454 137.000 M38.622 136.329 C 38.458 137.059,38.422 137.756,38.542 137.876 C 38.843 138.177,39.320 136.156,39.099 135.517 C 39.001 135.233,38.786 135.598,38.622 136.329 M37.822 139.529 C 37.658 140.259,37.622 140.956,37.742 141.076 C 38.043 141.377,38.520 139.356,38.299 138.717 C 38.201 138.433,37.986 138.798,37.822 139.529 M36.639 144.353 C 36.044 146.803,35.937 149.131,36.521 146.930 C 37.479 143.319,37.664 142.393,37.517 141.951 C 37.423 141.670,37.028 142.751,36.639 144.353 M127.358 194.600 C 127.358 197.680,127.421 198.887,127.497 197.282 C 127.573 195.678,127.573 193.158,127.496 191.682 C 127.419 190.207,127.357 191.520,127.358 194.600 M24.174 200.924 C 24.063 201.213,24.030 203.508,24.101 206.024 L 24.229 210.600 24.314 205.900 L 24.400 201.200 49.857 201.200 L 75.314 201.200 75.048 203.700 C 74.209 211.593,73.956 213.545,73.597 214.900 C 73.379 215.725,73.042 217.016,72.849 217.770 C 71.766 221.994,67.567 228.760,63.730 232.462 C 59.963 236.097,59.246 236.401,54.444 236.394 C 39.692 236.373,28.287 227.048,24.853 212.200 C 24.649 211.320,24.464 210.967,24.441 211.416 C 24.230 215.580,28.663 224.106,33.347 228.545 C 52.946 247.121,84.019 233.549,84.507 206.200 L 84.600 201.000 79.200 200.747 C 67.918 200.219,24.390 200.359,24.174 200.924 M314.906 200.726 C 313.973 201.319,315.485 212.635,317.081 217.000 C 324.621 237.625,350.561 243.636,366.522 228.457 C 372.781 222.506,375.689 215.498,375.760 206.200 L 375.800 201.000 370.000 200.750 C 361.425 200.381,315.481 200.361,314.906 200.726 M365.600 206.429 C 365.600 216.686,362.385 224.760,355.442 231.939 C 351.528 235.987,350.605 236.401,345.516 236.394 C 329.708 236.370,317.517 225.130,315.805 209.000 C 315.665 207.680,315.420 205.385,315.260 203.900 L 314.969 201.200 340.285 201.200 L 365.600 201.200 365.600 206.429 M169.806 201.927 C 169.481 202.252,169.644 210.489,169.998 211.600 C 170.173 212.150,170.216 210.277,170.093 207.437 L 169.870 202.274 171.235 202.579 C 174.184 203.239,174.591 203.300,174.359 203.048 C 174.004 202.660,170.047 201.686,169.806 201.927 M227.600 202.458 C 226.193 202.927,225.904 203.105,226.800 202.951 C 230.046 202.393,229.808 202.016,229.729 207.600 C 229.677 211.253,229.752 212.169,230.006 211.000 C 230.437 209.017,230.509 202.106,230.100 201.886 C 229.935 201.798,228.810 202.055,227.600 202.458 M175.400 203.600 C 175.840 203.789,176.650 203.938,177.200 203.932 L 178.200 203.920 177.200 203.600 C 176.650 203.424,175.840 203.274,175.400 203.268 L 174.600 203.256 175.400 203.600 M223.000 203.600 L 222.200 203.944 223.000 203.944 C 223.440 203.944,224.160 203.789,224.600 203.600 L 225.400 203.256 224.600 203.256 C 224.160 203.256,223.440 203.411,223.000 203.600 M179.200 204.400 C 179.530 204.613,180.340 204.773,181.000 204.754 C 182.176 204.721,182.180 204.714,181.200 204.400 C 179.670 203.910,178.442 203.910,179.200 204.400 M218.800 204.400 C 217.825 204.712,217.830 204.721,219.000 204.732 C 219.660 204.738,220.560 204.589,221.000 204.400 C 222.094 203.930,220.267 203.930,218.800 204.400 M183.200 205.200 C 183.530 205.413,184.610 205.570,185.600 205.548 L 187.400 205.508 185.800 205.177 C 183.473 204.696,182.434 204.705,183.200 205.200 M214.000 205.200 L 212.600 205.495 214.400 205.541 C 215.390 205.567,216.470 205.413,216.800 205.200 C 217.522 204.734,216.216 204.734,214.000 205.200 M96.914 207.000 C 96.917 208.100,96.995 208.503,97.087 207.895 C 97.179 207.286,97.177 206.386,97.082 205.895 C 96.987 205.403,96.911 205.900,96.914 207.000 M189.000 205.990 C 190.176 206.299,199.094 206.541,198.767 206.254 C 198.675 206.174,196.170 206.011,193.200 205.892 C 190.230 205.772,188.340 205.816,189.000 205.990 M204.800 206.000 L 201.000 206.247 205.400 206.276 C 207.820 206.292,210.340 206.168,211.000 206.000 C 212.489 205.621,210.632 205.621,204.800 206.000 M302.893 208.400 C 302.893 209.170,302.975 209.485,303.076 209.100 C 303.176 208.715,303.176 208.085,303.076 207.700 C 302.975 207.315,302.893 207.630,302.893 208.400 M170.438 213.600 C 170.376 216.097,173.690 222.519,177.293 226.884 C 180.301 230.529,186.685 234.555,191.405 235.785 C 192.618 236.100,193.788 236.469,194.006 236.604 C 194.844 237.121,204.600 236.852,206.800 236.250 C 210.622 235.206,211.341 234.943,213.878 233.662 C 218.958 231.097,224.390 225.767,226.578 221.200 L 227.248 219.800 226.442 220.800 C 225.999 221.350,225.403 222.247,225.118 222.794 C 223.407 226.078,218.303 230.756,214.010 232.973 C 197.528 241.486,177.102 233.491,171.669 216.400 C 171.424 215.630,171.052 214.460,170.843 213.800 C 170.486 212.672,170.462 212.660,170.438 213.600 M229.088 213.333 C 228.930 213.736,228.811 214.456,228.825 214.933 C 228.849 215.756,228.871 215.750,229.240 214.825 C 229.454 214.289,229.573 213.569,229.503 213.225 C 229.399 212.711,229.325 212.730,229.088 213.333 M228.173 216.643 C 228.038 217.059,227.734 217.805,227.496 218.299 C 227.259 218.794,227.163 219.297,227.283 219.416 C 227.402 219.535,227.800 218.883,228.167 217.967 C 228.533 217.050,228.740 216.207,228.626 216.093 C 228.512 215.979,228.308 216.226,228.173 216.643 M36.673 272.500 C 36.041 272.965,36.000 275.331,36.096 306.000 L 36.200 339.000 90.700 339.101 L 145.200 339.203 145.200 305.865 L 145.200 272.527 137.336 272.263 C 122.027 271.751,37.422 271.950,36.673 272.500 M254.847 272.544 C 254.518 272.940,254.423 282.028,254.498 306.044 L 254.600 339.000 309.000 339.000 L 363.400 339.000 363.600 330.400 L 363.800 321.800 366.800 321.586 C 371.007 321.286,370.800 321.617,370.800 315.176 L 370.800 309.600 367.700 309.594 C 365.995 309.591,364.377 309.446,364.104 309.273 C 363.724 309.031,363.584 304.712,363.504 290.779 L 363.400 272.600 357.600 272.350 C 344.773 271.798,255.326 271.966,254.847 272.544 M134.800 306.000 L 134.800 338.800 86.000 338.800 L 37.200 338.800 37.200 306.000 L 37.200 273.200 86.000 273.200 L 134.800 273.200 134.800 306.000 M352.800 306.000 L 352.800 338.800 304.000 338.800 L 255.200 338.800 255.200 306.000 L 255.200 273.200 304.000 273.200 L 352.800 273.200 352.800 306.000 " stroke="none" fill="#56c1e6" fill-rule="evenodd"></path></g></svg>