<svg width="512" height="512" xmlns="http://www.w3.org/2000/svg" xml:space="preserve" version="1.1">

 <g>
  <title>Layer 1</title>
  <g id="svg_1">
   <path id="svg_2" fill="#DDEFFE" d="m463.74,454.15c-0.46,0.53 -0.89,1.07 -1.64,0.81c0,0 -0.01,0 -0.02,-0.01c-0.11,-0.04 -0.23,-0.1 -0.36,-0.18c-0.3,-0.2 -0.43,-1.34 -0.6,-0.64c-5.84,23.02 -21.01,36.62 -43.25,43.19c-2.41,0.72 -4.84,1.19 -7.38,0.97c-0.71,-0.14 -1.5,-0.18 -2.16,-0.41c-0.31,-0.1 -0.59,-0.25 -0.82,-0.47c-0.29,-0.26 -0.49,-0.64 -0.58,-1.18c-0.01,-0.05 -0.02,-0.11 -0.03,-0.17c-0.01,-0.11 -0.02,-0.23 -0.02,-0.35c5.96,-5.44 6.68,-12.41 6.64,-20.02c-0.21,-33.42 -0.03,-66.85 -0.16,-100.28c-0.02,-5.68 0.54,-10.18 6.69,-12.94c4.85,-2.17 5.98,-6.52 4.75,-11.92c-0.78,-3.41 -2.02,-6.68 -3.12,-10c-1.16,-3.48 -0.34,-6.14 2.74,-8.2c2.76,-1.85 5.52,-3.72 8.04,-5.89c6.24,-5.38 6.27,-12.11 0.09,-17.48c-1.89,-1.63 -3.95,-3.04 -5.99,-4.48c-6.29,-4.43 -6.43,-4.89 -4.01,-12.39c0.67,-2.06 1.41,-4.09 1.98,-6.18c2.3,-8.55 -1.96,-14.4 -10.9,-14.96c-3.15,-0.2 -6.32,-0.04 -9.48,-0.15c-3.6,-0.12 -5.88,-1.79 -6.93,-5.3c-0.95,-3.19 -1.74,-6.43 -3.08,-9.49c-3.11,-7.06 -9.9,-9.22 -16.48,-5.2c-2.7,1.65 -5.18,3.64 -7.65,5.59c-3.37,2.65 -6.51,2.84 -9.87,-0.03c-2.27,-1.94 -4.71,-3.7 -7.27,-5.26c-7.29,-4.45 -14.14,-2.12 -17.32,5.86c-1.11,2.79 -1.77,5.72 -2.69,8.57c-1.1,3.42 -3.35,5.18 -6.99,5.27c-3.16,0.07 -6.32,-0.04 -9.48,0.11c-8.46,0.39 -12.88,6.26 -11.01,14.6c0.59,2.61 1.79,5 2.64,7.52c2.03,6 1.62,7.32 -3.49,10.89c-2.31,1.62 -4.78,3.02 -6.89,4.93c-6.06,5.49 -6.05,12.14 0.03,17.64c1.98,1.79 4.29,3.13 6.48,4.64c5.56,3.86 5.97,5.16 3.68,11.68c-0.71,2.04 -1.64,4.01 -2.21,6.1c-1.9,6.96 -0.08,11.69 6.41,14.88c3.52,1.74 4.85,4.17 4.8,7.87c-0.06,4.65 0.1,9.31 -0.05,13.96c-0.18,5.75 -1.34,6.81 -7.24,7.02c-1,0.04 -2,0.02 -3,0.02c-56.21,0 -112.43,0.02 -168.64,-0.04c-2.73,-0.01 -5.72,0.68 -8.11,-1.07c-0.1,-0.07 -0.19,-0.14 -0.28,-0.22c-0.31,-0.26 -0.61,-0.56 -0.89,-0.91c-1.18,-2.52 -0.96,-5.21 -0.96,-7.86c-0.02,-122.78 -0.02,-245.56 -0.01,-368.34c0,-1.5 0.01,-3 0.1,-4.49c0.3,-5.1 2.06,-9.09 7.73,-10.06l321.51,0c4.85,1.15 6.58,4.58 6.75,9.19c0.1,2.82 0.09,5.65 0.09,8.48l0,405.58c0,6.64 -0.08,13.28 0.75,19.91c0.47,3.75 0.82,7.64 -0.84,11.29z" class="st0"/>
   <path id="svg_3" fill="#FEFEFE" d="m462.08,455c-0.98,26.74 -21.79,50.24 -48.45,54.9c-9.91,1.72 -19.85,0.72 -29.77,0.84c-1.83,0.04 -3.66,0.13 -5.49,0.13l-310.32,0c-8.67,0 -10.68,-1.37 -13.18,-9.72c-8.38,-27.87 -8.52,-55.87 -1.13,-83.97c0.62,-2.22 1.23,-4.44 1.86,-6.65c1.33,-4.66 4.45,-6.55 9.26,-6.53c21.56,0.08 43.11,0.01 64.67,0c0,-4.22 -0.01,-8.42 -0.02,-12.64c-0.31,-0.26 -0.61,-0.56 -0.89,-0.91c-1.18,-2.52 -0.96,-5.21 -0.96,-7.86c-0.02,-122.78 -0.02,-245.56 -0.01,-368.34c0,-1.5 0.01,-3 0.1,-4.49c0.3,-5.1 2.06,-9.09 7.73,-10.06c-4.23,2.46 -6.06,5.97 -6.06,11.03c0.1,126.79 0.09,253.57 0.09,380.35c0.1,0.17 0.2,0.33 0.28,0.5c2.3,4.06 1.88,8.22 0.21,12.42c-0.01,0.03 -0.02,0.06 -0.03,0.09l-0.18,0.15c-2.34,1.91 -5.18,1.51 -7.89,1.52c-16.94,0.05 -33.88,0.02 -50.82,0.02c-11.28,0.01 -12.29,0.28 -15.35,10.01c-0.13,0.44 -0.28,0.91 -0.43,1.39c-0.04,0.15 -0.09,0.3 -0.14,0.46c-0.77,6.11 -2.7,12.01 -3.47,18.11c-2.63,20.66 -1.75,41.13 3.83,61.29c0.63,2.24 1.31,4.46 2.3,6.58c1.54,3.3 4.05,5.15 7.76,5.33c2.66,0.13 5.32,0.12 7.98,0.12c100.27,0 200.53,0 300.8,0.01c2.62,0 5.25,-0.12 7.85,0.2c0.2,0.02 0.4,0.04 0.6,0.07c0.19,0 0.37,-0.01 0.56,-0.01c5.94,-0.09 11.89,0.01 17.84,0.01c30,-0.03 53.01,-18.96 58.88,-48.4c0.41,-2.04 0.01,-4.41 1.99,-5.95z" class="st1"/>
   <path id="svg_4" fill="#FEFEFE" d="m463.74,454.15c-0.46,0.53 -0.89,1.07 -1.64,0.81c1.88,-4.3 1.15,-8.88 0.62,-13.17c-0.51,-4.15 -0.71,-8.25 -0.71,-12.39c-0.02,-139.54 -0.03,-279.09 0.06,-418.63c0.01,-4.72 -0.97,-8.48 -5.08,-11.07c4.85,1.15 6.58,4.58 6.75,9.19c0.1,2.82 0.09,5.65 0.09,8.48l0,405.58c0,6.64 -0.08,13.28 0.75,19.91c0.47,3.75 0.82,7.64 -0.84,11.29z" class="st1"/>
   <path id="svg_5" fill="#B7CBDF" d="m461.71,451.05c-3.18,9.68 -7.21,18.7 -13.95,26.23c-9.81,10.98 -21.76,18.12 -36.68,19.63c-1.18,0.38 -2.38,0.49 -3.57,0.5c-0.82,0.01 -1.64,-0.03 -2.45,-0.06c0.69,-0.12 1.33,-0.42 1.87,-1.12c0.07,-0.09 0.14,-0.18 0.2,-0.28c6.34,-2.65 7.9,-7.98 7.9,-14.15c0.01,-35.42 0.04,-70.84 -0.04,-106.26c-0.01,-5 -0.91,-10.13 6.11,-11.19c0.56,-0.08 1,-0.84 1.52,-1.26c6.65,-5.32 4.48,-11.7 2.25,-18.16c-3.02,-8.76 -2.96,-8.77 4.4,-13.91c1.63,-1.14 3.25,-2.3 4.81,-3.54c6.65,-5.3 6.58,-14.54 -0.21,-19.73c-3.03,-2.31 -6.19,-4.46 -9.39,-6.54c-1.94,-1.26 -2.67,-2.5 -1.68,-4.9c1.45,-3.52 2.56,-7.19 3.63,-10.86c2.49,-8.54 -2.81,-15.85 -11.74,-16.17c-3.65,-0.12 -7.32,-0.1 -10.97,0.03c-2.73,0.09 -4.2,-0.73 -4.84,-3.68c-0.85,-3.86 -2.25,-7.63 -3.68,-11.33c-1.79,-4.63 -5.23,-6.72 -10.31,-7.15c-5.75,-0.49 -9.25,2.99 -13.15,5.99c-6.62,5.09 -6.6,5.1 -13.01,0.18c-1.32,-1 -2.73,-1.9 -3.98,-2.98c-7.48,-6.47 -18.47,-2.85 -21.2,6.86c-3.41,12.17 -3.89,12.04 -16.44,12.06c-10.79,0.01 -16.35,7.68 -13.01,17.97c1.27,3.92 4.66,8 3.52,11.64c-1.21,3.89 -6.53,5.16 -9.98,7.69c-8.61,6.33 -8.54,16.14 0.23,22.38c2.57,1.82 5.21,3.57 7.89,5.23c1.97,1.22 2.73,2.5 1.68,4.88c-1.41,3.18 -2.52,6.5 -3.55,9.83c-2.02,6.5 -0.66,13.07 5.04,15.01c7.38,2.51 6.3,7.51 6.29,12.76c-0.01,2.66 0,5.32 0,7.99c-0.01,6.37 -0.01,6.38 -6.6,6.38c-59.7,0.02 -119.4,0.04 -179.11,0.06l0,0.28c0.01,4.22 0.02,8.42 0.02,12.64c0.09,0.08 0.17,0.17 0.26,0.24c2.55,2.28 5.76,1.62 8.73,1.63c57.06,0.05 114.11,0.02 171.17,0.04c1.83,0.01 3.65,-0.07 5.47,-0.29c0.02,0 0.05,0.01 0.07,0.01c0.27,0.03 0.54,0.06 0.81,0.08c2.01,0.19 4.02,0.22 6.04,0.14c3.25,-0.12 5.14,-0.46 6.2,-1.61c0.29,-0.3 0.52,-0.66 0.7,-1.09c0.48,-1.11 0.63,-2.69 0.64,-4.92c0.08,-10.46 0.01,-20.92 0.03,-31.39l0,-0.28c-0.01,-0.16 -0.01,-0.31 -0.02,-0.47c-0.13,-3.7 0.27,-7.41 -0.15,-11.11c-0.04,-0.43 -0.1,-0.85 -0.17,-1.28c-0.04,-0.2 -0.07,-0.39 -0.11,-0.59c0,-0.01 -0.01,-0.03 -0.01,-0.04c-0.12,-0.26 -0.25,-0.48 -0.4,-0.67c-1.04,-1.4 -2.76,-1.16 -4.33,-1.27c-3.47,-0.26 -4.67,-2.08 -3.74,-5.41c0.68,-2.4 1.71,-4.68 2.55,-7.02c2.36,-6.48 1.48,-9.29 -4.05,-13.23c-2.03,-1.45 -4.23,-2.66 -6.13,-4.28c-3.29,-2.79 -3.27,-4.3 0.13,-7.11c1.92,-1.6 4.11,-2.82 6.13,-4.27c5.34,-3.82 6.21,-6.55 4.03,-12.82c-0.88,-2.51 -2.08,-4.91 -2.67,-7.51c-0.81,-3.59 0.28,-5.03 3.99,-4.99c3.16,0.04 6.31,0.16 9.47,0.17c4.37,0.02 7.21,-1.88 8.57,-6.12c0.92,-2.85 1.64,-5.75 2.63,-8.57c1.6,-4.55 3.43,-5.16 7.42,-2.6c2.38,1.53 4.46,3.46 6.71,5.17c3.67,2.81 7.21,2.91 10.91,0.05c2.5,-1.93 4.97,-3.9 7.61,-5.63c3.31,-2.16 5.02,-1.59 6.43,2.15c0.93,2.49 1.52,5.1 2.31,7.63c1.94,6.25 3.93,7.76 10.35,7.92c2.65,0.07 5.31,-0.12 7.97,-0.07c4.27,0.09 5.3,1.56 4.08,5.7c-0.7,2.39 -1.76,4.66 -2.47,7.05c-1.85,6.2 -1.03,8.68 4.14,12.4c2.02,1.46 4.22,2.67 6.12,4.29c3.23,2.77 3.25,4.53 0.05,7.26c-2.15,1.84 -4.67,3.17 -6.92,4.88c-4.21,3.2 -5.06,5.71 -3.69,10.84c0.73,2.73 1.94,5.31 2.79,7.99c1.34,4.2 0.56,5.55 -3.7,6.1c-1.73,0.22 -3.34,0.37 -4.2,1.79c-0.07,0.1 -0.12,0.2 -0.17,0.31c-0.11,0.22 -0.21,0.48 -0.28,0.76c-0.74,4 -0.1,8.11 -0.95,12.11c-0.03,0.14 -0.07,0.29 -0.1,0.43c-0.01,0.49 -0.03,0.98 -0.04,1.47c-0.86,32.85 -0.13,65.72 -0.37,98.58c-0.01,1.99 0.09,3.99 -0.09,5.97c-0.38,4.25 -1.66,5.04 -5.42,2.99c-4.52,-2.46 -8.59,-5.65 -12.94,-8.39c-2.07,-1.31 -4.04,-3.03 -6.81,-2.42c-0.06,0.06 -0.11,0.11 -0.15,0.17c-0.1,0.1 -0.19,0.2 -0.26,0.3c-1.29,1.68 -0.96,3.67 -0.75,5.63c0.33,3.04 0.9,6.05 1.41,9.07c0.04,0.26 0.08,0.51 0.12,0.77c0.06,0.32 0.11,0.64 0.16,0.96c1.01,8.71 3.47,17.04 6.36,25.27c0.31,0.88 0.68,1.7 1.21,2.41c0.43,0.58 0.96,1.07 1.65,1.46c9.92,-0.12 19.86,0.88 29.77,-0.84c26.66,-4.66 47.47,-28.16 48.45,-54.9l0,-0.05c-0.12,-1.29 -0.24,-2.6 -0.37,-3.9zm-67.14,45.12c2.18,0.73 3.88,1.13 5.51,1.22c-1.63,-0.08 -3.36,-0.42 -5.51,-1.22zm6.2,1.24c0.1,0 0.2,0 0.3,-0.01c0.19,0 0.38,-0.01 0.58,-0.02c0.32,-0.04 0.65,-0.04 0.99,-0.03c-0.25,0 -0.51,0.02 -0.76,0.05c-0.27,0.02 -0.54,0.02 -0.81,0.02c-0.1,0 -0.2,0 -0.3,-0.01z" class="st2"/>
   <path id="svg_6" fill="#8897B6" d="m295.24,202.25c-34.28,0 -68.56,0 -102.84,0c-1.5,0 -3.01,0.1 -4.49,-0.11c-4.78,-0.67 -7.56,-3.61 -7.55,-7.79c0.01,-4.25 2.74,-7.1 7.55,-7.74c1.31,-0.18 2.66,-0.1 3.99,-0.1c69.23,0 138.45,0 207.68,-0.01c2.33,0 4.65,-0.04 6.89,0.81c3.39,1.29 4.88,3.72 4.81,7.32c-0.07,3.41 -1.67,5.62 -4.81,6.82c-2.23,0.85 -4.55,0.82 -6.89,0.82c-34.78,-0.03 -69.56,-0.02 -104.34,-0.02z" class="st3"/>
   <path id="svg_7" fill="#8796B6" d="m295.94,158.27c34.94,0 69.88,-0.01 104.83,0.01c2.47,0 5.04,-0.36 7.27,1.15c2.76,1.87 3.75,4.54 3.22,7.77c-0.55,3.35 -2.73,5.27 -5.88,6.01c-1.43,0.34 -2.98,0.21 -4.47,0.21c-69.88,0.01 -139.77,0.01 -209.65,0.01c-1.16,0 -2.34,0.06 -3.49,-0.06c-4.62,-0.46 -7.51,-3.53 -7.41,-7.78c0.11,-4.43 2.86,-7.21 7.77,-7.26c13.48,-0.12 26.95,-0.06 40.43,-0.06c22.46,0 44.92,0 67.38,0z" class="st4"/>
   <path id="svg_8" fill="#B7CBDF" d="m247.89,95.18c-0.21,-24.74 20.69,-45.73 44.87,-46.74c26.65,-1.11 47.92,21.75 48.54,44.54c0.77,28.12 -20.77,49.15 -47.07,48.94c-25.7,-0.21 -45.95,-20.18 -46.34,-46.74z" class="st2"/>
   <path id="svg_9" fill="#8796B6" d="m256.77,230.47c-22.27,0 -44.54,0.01 -66.8,-0.01c-2.3,0 -4.62,0.17 -6.63,-1.49c-2.58,-2.14 -3.55,-4.8 -2.8,-7.98c0.73,-3.05 2.97,-4.77 5.91,-5.42c1.59,-0.35 3.3,-0.24 4.96,-0.24c43.71,-0.01 87.41,-0.01 131.12,-0.01c1,0 2,-0.03 2.99,0.02c4.84,0.24 8.18,3.3 8.29,7.59c0.11,4.14 -3.33,7.47 -8.24,7.5c-15.79,0.1 -31.57,0.05 -47.36,0.05c-7.14,0 -14.29,-0.01 -21.44,-0.01z" class="st4"/>
   <path id="svg_10" fill="#8896B6" d="m218.57,341.47c-5.15,5.46 -9.68,10.29 -14.24,15.08c-1.03,1.08 -2.05,2.24 -3.28,3.05c-3.55,2.33 -7.16,2.69 -10.4,-0.57c-3.28,-3.3 -3.19,-7.15 -0.19,-10.26c10.29,-10.63 20.81,-21.04 31.34,-31.42c2.29,-2.26 5.19,-2.86 8.28,-1.33c3.19,1.58 4.67,4.1 4.33,7.66c-0.46,4.93 -1.5,9.78 -0.31,14.83c1.09,4.59 3.18,7.34 8.13,7.94c8.39,1.02 15.57,-2.45 19.94,-10.13c0.74,-1.3 1.21,-2.78 2.12,-3.94c2.41,-3.1 5.56,-4.17 9.25,-2.45c3.65,1.7 5.08,4.82 4.27,8.62c-4.17,19.38 -33.3,30.46 -49.42,18.86c-5.04,-3.64 -7.59,-8.95 -9.82,-15.94z" class="st5"/>
   <path id="svg_11" fill="#8796B6" d="m377.15,230.47c-8.48,0 -16.97,0.06 -25.45,-0.02c-5.46,-0.05 -8.6,-2.87 -8.62,-7.49c-0.02,-4.61 3.13,-7.58 8.59,-7.6c17.14,-0.08 34.27,-0.07 51.41,0c5.03,0.02 8.28,3.02 8.43,7.32c0.15,4.64 -3.01,7.7 -8.39,7.76c-8.67,0.1 -17.32,0.02 -25.97,0.03z" class="st4"/>
   <path id="svg_12" fill="#8897B7" d="m204.58,279.35c3.83,0 7.66,-0.17 11.48,0.04c5.53,0.3 8.45,3.13 8.44,7.81c-0.01,4.7 -2.88,7.64 -8.43,7.81c-7.81,0.24 -15.64,0.24 -23.46,0c-5.42,-0.17 -8.52,-3.27 -8.6,-7.81c-0.08,-4.37 3.22,-7.51 8.6,-7.8c3.97,-0.22 7.98,-0.05 11.97,-0.05z" class="st6"/>
   <path id="svg_13" fill="#FED424" d="m205.01,95.13c0.07,4.17 -3.29,7.61 -7.53,7.68c-4.25,0.08 -7.66,-3.11 -7.87,-7.35c-0.21,-4.35 3.35,-8.02 7.77,-7.98c4.2,0.03 7.56,3.41 7.63,7.65z" class="st7"/>
   <path id="svg_14" fill="#FED423" d="m223.98,87.47c4.25,-0.1 7.62,3.1 7.77,7.39c0.16,4.36 -2.89,7.73 -7.18,7.94c-4.45,0.22 -8.08,-3.18 -8.11,-7.59c-0.03,-4.17 3.34,-7.64 7.52,-7.74z" class="st8"/>
   <path id="svg_15" fill="#FED423" d="m375.2,95.14c0.01,4.36 -3.14,7.62 -7.41,7.7c-4.5,0.08 -7.82,-3.31 -7.72,-7.88c0.09,-4.25 3.44,-7.53 7.66,-7.48c4.2,0.04 7.46,3.38 7.47,7.66z" class="st8"/>
   <path id="svg_16" fill="#FED423" d="m402.1,95.08c0.07,4.28 -3.13,7.64 -7.39,7.75c-4.36,0.11 -7.58,-2.93 -7.75,-7.31c-0.17,-4.52 3.15,-8.07 7.55,-8.05c4.18,0.01 7.52,3.37 7.59,7.61z" class="st8"/>
   <path id="svg_17" fill="#D2E4F5" d="m401.06,496.94c2.07,-0.02 4.16,0.06 6.07,-0.99c1.06,1.36 2.6,0.8 3.95,0.96c-3.19,1.96 -6.68,0.61 -10.02,0.94c-0.34,-0.2 -0.46,-0.4 -0.34,-0.61c0.11,-0.2 0.23,-0.3 0.34,-0.3z" class="st9"/>
   <path id="svg_18" fill="#F8E390" d="m383.86,510.74c-1.83,0.04 -3.66,0.13 -5.49,0.13l-310.32,0c-8.67,0 -10.68,-1.37 -13.18,-9.72c-8.38,-27.87 -8.52,-55.87 -1.13,-83.97c0.61,-0.65 1.28,-1.09 1.99,-1.39c1.7,-0.71 3.62,-0.59 5.47,-0.6c9.97,-0.06 19.93,-0.02 29.9,-0.02c71.11,0 142.21,-0.01 213.32,0.01c3.3,0.01 6.65,-0.38 9.87,0.77c0.33,0.14 0.63,0.33 0.9,0.57c0.06,0.03 0.12,0.09 0.18,0.14c0.13,0.12 0.26,0.26 0.38,0.4c0.11,0.19 0.21,0.38 0.3,0.58c0.07,0.15 0.14,0.3 0.19,0.46c0.76,1.99 0.55,4.14 0.56,6.24c0.03,18.25 0.01,36.5 0.02,54.76c0,1.82 -0.08,3.65 0.13,5.47c1.02,8.79 8.94,13.16 16.81,9.04c5.3,-2.77 10.09,-6.39 14.95,-9.86c3.64,-2.61 7.27,-5.27 11.5,-6.9c5.4,-2.08 10.3,-1.01 14.15,3.02c0.53,0.55 1.03,1.16 1.52,1.82c1.78,9.41 4.26,18.64 7.49,27.65c0.15,0.47 0.32,0.93 0.49,1.4z" class="st10"/>
   <path id="svg_19" fill="#FEF6D6" d="m315.37,416.66c-0.06,0.1 -0.12,0.21 -0.18,0.31c-52.89,0.03 -105.78,0.06 -158.67,0.1c-33.74,0.03 -67.48,0.07 -101.22,0.11l-1.56,0c0.62,-2.22 1.23,-4.44 1.86,-6.65c1.33,-4.66 4.45,-6.55 9.26,-6.53c21.56,0.08 43.11,0.01 64.67,0l0.47,0c59.42,0.01 118.84,0.02 178.26,0.04c2.33,0 4.65,0.06 6.98,0.09c0.3,0.53 0.57,1.05 0.8,1.58c1.6,3.66 1.44,7.31 -0.67,10.95z" class="st11"/>
   <path id="svg_20" fill="#FE633E" d="m401.19,366.12c0.05,35.87 0.13,71.73 0.11,107.6c0,5.51 -3.04,6.98 -7.84,3.92c-6.44,-4.09 -12.78,-8.34 -19.16,-12.52c-0.67,0.05 -1.42,0.21 -1.97,-0.11c-6.74,-3.95 -12.36,-1.21 -17.96,2.7c-5.18,3.61 -10.39,7.22 -15.81,10.47c-6.88,4.12 -10.85,1.95 -10.97,-6c-0.29,-18.3 0.38,-36.6 -0.39,-54.9c1.93,-16.47 1.48,-33.01 1.49,-49.52c0.09,-1.54 0.68,-2.28 2.12,-1.1c1.35,1.1 1.81,2.76 2.29,4.35c0.86,2.87 1.52,5.8 2.71,8.56c3.07,7.09 10.51,9.35 16.98,5.12c2.78,-1.82 5.47,-3.81 7.98,-5.99c2.91,-2.53 5.59,-2.39 8.48,-0.08c1.95,1.55 3.99,3 5.99,4.48c9.31,6.87 17.14,4.14 20.33,-7.09c0.68,-2.4 1.31,-4.82 2.19,-7.15c0.58,-1.52 1.11,-3.32 3.43,-2.74z" class="st12"/>
   <path id="svg_21" fill="#FED422" d="m328.12,352.56c-1.32,0.06 -2.65,0.17 -3.97,0.16c-4.57,-0.04 -6.34,-2.36 -4.99,-6.71c1.08,-3.48 2.38,-6.9 3.62,-10.33c1.18,-3.25 0.45,-5.8 -2.53,-7.72c-2.79,-1.8 -5.53,-3.68 -8.22,-5.63c-4.72,-3.43 -4.75,-5.79 -0.13,-9.17c2.54,-1.86 5.13,-3.68 7.82,-5.33c3.59,-2.21 4.37,-5.07 2.79,-8.91c-1.26,-3.06 -2.32,-6.22 -3.31,-9.38c-1.47,-4.7 0.26,-6.85 5.29,-6.74c2.66,0.06 5.31,0.22 7.97,0.27c7.13,0.14 7.57,-0.2 9.67,-7.22c0.71,-2.38 1.34,-4.79 2.1,-7.16c1.75,-5.44 4.23,-6.29 8.76,-2.96c2.81,2.06 5.58,4.19 8.3,6.37c2.62,2.1 5.1,1.94 7.66,-0.09c3,-2.37 5.98,-4.77 9.11,-6.94c3.46,-2.4 5.92,-1.65 7.36,2.31c1.3,3.58 2.3,7.27 3.31,10.95c0.93,3.4 3.06,4.95 6.55,4.8c3.65,-0.15 7.31,-0.35 10.96,-0.32c4.44,0.03 6,2.11 4.78,6.44c-0.9,3.19 -1.96,6.36 -3.26,9.4c-1.85,4.31 -0.69,7.29 3.27,9.6c2.58,1.5 5.02,3.26 7.41,5.04c4.26,3.17 4.22,5.75 -0.15,8.95c-2.54,1.86 -5.14,3.67 -7.83,5.32c-3.6,2.21 -4.38,5.1 -2.8,8.92c1.07,2.6 1.92,5.3 2.83,7.97c2.16,6.32 0.7,8.32 -5.88,8.15c-0.96,-0.02 -1.93,0.26 -2.9,0.4c-0.14,0.08 -0.3,0.25 -0.43,0.23c-9.11,-1.16 -12.29,4.28 -13.48,12.01c-0.2,1.3 -0.67,2.57 -1.3,3.75c-2.1,3.94 -5.31,4.89 -9.08,2.53c-2.95,-1.85 -5.67,-4.06 -8.42,-6.18c-2.81,-2.16 -5.41,-2.07 -8.13,0.07c-2.48,1.95 -4.84,4.05 -7.49,5.77c-4.41,2.87 -7.76,1.89 -10.02,-2.93c-1.34,-2.87 -1.97,-5.99 -2.82,-9.02c-1.02,-3.66 -2.99,-5.85 -7.01,-5.62c-1.85,-0.09 -3.75,0.08 -5.41,-1.05z" class="st13"/>
   <path id="svg_22" fill="#FED422" d="m328.28,417.9c1.18,1.65 0.72,3.54 0.73,5.33c0.03,16.47 0,32.93 0.05,49.4c0.01,2.07 -0.69,4.59 1.68,5.87c2.58,1.39 4.77,-0.05 6.89,-1.48c6.34,-4.27 12.64,-8.6 19.07,-12.74c7.2,-4.64 10.57,-4.39 17.62,0.85c0.53,5.52 1.05,11.05 1.58,16.57c-8.15,-6.53 -15.68,-4.81 -23.33,1.25c-5.18,4.11 -10.92,7.5 -16.37,11.27c-4.63,3.2 -9.63,3.98 -14.52,1.19c-4.67,-2.66 -6.5,-7.14 -6.47,-12.6c0.1,-21.56 0.05,-43.12 0.05,-64.68c4.28,-2.74 8.63,-2.62 13.02,-0.23z" class="st13"/>
   <path id="svg_23" fill="#E93411" d="m334.07,352.37c4.25,-0.66 6.54,1.28 7.51,5.35c0.77,3.22 1.74,6.41 2.81,9.55c1.66,4.83 4.19,5.63 8.25,2.67c2.82,-2.06 5.61,-4.15 8.29,-6.39c2.95,-2.47 5.61,-2.21 8.47,0.17c2.68,2.23 5.48,4.33 8.31,6.36c3.83,2.74 6.39,1.91 7.96,-2.56c0.77,-2.19 1.32,-4.45 1.98,-6.68c2.65,-8.96 4.64,-10.07 14.07,-7.85c-0.22,4.37 0.7,8.8 -0.53,13.13c-3.7,3.76 -3.4,9.04 -5.1,13.56c-3.22,8.56 -12.57,11.47 -19.85,6.03c-2.38,-1.78 -5.04,-3.29 -7.11,-5.38c-2.98,-3.02 -4.96,-2.51 -8.24,0.03c-4.28,3.3 -7.9,8.14 -14.42,7.84c-6.47,-0.3 -9.94,-2.64 -12.37,-8.71c-1.76,-4.39 -1.55,-9.51 -4.96,-13.26c-0.13,-0.26 -0.25,-0.53 -0.38,-0.79c-0.11,-2.33 0.19,-4.68 -0.1,-6.97c-0.55,-4.26 0.67,-6.68 5.41,-6.1z" class="st14"/>
   <path id="svg_24" fill="#F8E28F" d="m328.28,417.9c-4.34,0.07 -8.69,0.14 -13.03,0.21c-0.02,-0.38 -0.04,-0.76 -0.06,-1.15c0.02,-4.28 0.04,-8.56 0.06,-12.84c4.08,-0.54 9.35,1.7 12,-0.98c2.84,-2.87 0.87,-8.2 0.98,-12.44c0.22,-8.12 0.17,-16.25 0.23,-24.37c0.05,-0.64 0.26,-0.67 0.63,-0.18c0,0 0.04,0.07 0.04,0.07c-0.06,15.27 -0.12,30.54 -0.19,45.8c-0.01,1.98 0.22,4 -0.66,5.88z" class="st15"/>
   <path id="svg_25" fill="#FE633E" d="m329.09,366.15c-0.21,0.07 -0.42,0.12 -0.63,0.17c-0.11,-4.59 -0.23,-9.17 -0.34,-13.76c1.97,-0.55 3.96,-0.49 5.95,-0.2c-4.29,0.42 -5.53,2.86 -4.94,6.92c0.33,2.24 0,4.58 -0.04,6.87z" class="st12"/>
   <path id="svg_26" fill="#D9EBFB" d="m401.06,496.94c0.01,0.3 0.01,0.61 0,0.91c-3.17,-0.57 -7.91,2.19 -8.61,-4.17c3.08,0.92 5.37,3.4 8.61,3.26z" class="st16"/>
   <path id="svg_27" fill="#FED422" d="m261.23,95.04c0.07,-18.25 15.23,-33.38 33.42,-33.37c18.12,0.01 33.41,15.27 33.48,33.4c0.07,18.46 -15.2,33.6 -33.77,33.48c-18.39,-0.11 -33.21,-15.1 -33.13,-33.51z" class="st13"/>
   <path id="svg_28" fill="#F8E390" d="m344.18,328.04c0.6,-2.89 -0.35,-5.11 -2.62,-7.03c-2.3,-1.94 -2.57,-4.44 -0.19,-6.41c2.66,-2.2 3.26,-4.79 2.78,-7.98c-0.47,-3.15 0.66,-5.29 4.13,-5.39c3.03,-0.09 4.9,-1.45 6.04,-4.27c1.36,-3.36 3.77,-4.71 7.09,-2.5c2.53,1.68 4.79,1.72 7.34,0.03c3.27,-2.17 5.83,-1.05 7.04,2.46c1.05,3.03 3.08,4.07 5.99,4.27c3.35,0.23 5.06,2.33 4.16,5.37c-0.97,3.27 -0.08,5.34 2.3,7.4c2.86,2.49 2.67,5.2 -0.15,7.61c-2.24,1.91 -3.11,3.86 -2.18,6.96c0.98,3.29 -0.69,5.44 -4.34,5.67c-2.69,0.17 -4.69,1.15 -5.66,3.99c-1.29,3.77 -3.86,4.91 -7.35,2.6c-2.37,-1.57 -4.53,-1.59 -6.9,0c-3.51,2.35 -5.96,1.06 -7.44,-2.56c-0.97,-2.38 -2.52,-3.96 -5.16,-3.99c-4.28,-0.08 -5.53,-2.37 -4.88,-6.23z" class="st10"/>
  </g>
 </g>
</svg>