<svg width="512" height="512" xmlns="http://www.w3.org/2000/svg" xml:space="preserve" version="1.1">

 <g>
  <title>Layer 1</title>
  <g id="svg_1">
   <path id="svg_2" fill="#FEFEFE" d="m475.2,156.04c-3.53,7.48 -8.09,14.46 -13.27,20.96c-4.44,9.1 -10.69,17.1 -15.73,25.83c-15.8,25.08 -31.6,50.17 -47.41,75.25c0.06,8.81 0.16,17.62 0.16,26.43c0.01,61.19 -0.16,122.37 0.15,183.55c0.06,11.77 -3.93,19.8 -15.15,23.83c0.08,-2.34 2.16,-2.76 3.65,-3.63c6.48,-3.78 9.62,-9.42 9.74,-16.85c0.03,-1.99 0.03,-3.99 0.03,-5.99c0,-65.54 0,-131.08 -0.01,-196.62c0,-2.97 0.01,-5.94 0.24,-8.89l0,-0.07c0.04,-0.57 0.13,-1.12 0.26,-1.66c0.47,-2.06 1.5,-3.91 2.65,-5.68c15.06,-23.15 29.29,-46.82 44.5,-69.88c0.23,-0.38 0.45,-0.76 0.68,-1.13c0.17,-0.28 0.34,-0.56 0.51,-0.84c4.85,-7.98 9.96,-15.79 14.88,-23.73c0.08,-0.12 0.16,-0.25 0.23,-0.37c0.01,0 0.01,-0.01 0.01,-0.01c3.72,-5.72 7.32,-11.51 10.89,-17.31c5.87,-9.55 3.92,-19.75 -4.9,-26.57c-4.22,-3.27 -8.81,-5.99 -13.43,-8.6c-9.31,-5.28 -19.83,-2.68 -25.88,6.17c-3.84,5.63 -7.18,11.59 -11.11,17.17c-0.04,0.07 -0.08,0.13 -0.12,0.2c-0.2,0.31 -0.39,0.63 -0.59,0.94c-4.3,6.96 -8.74,13.84 -13.08,20.77c-0.68,1.09 -1.31,2.23 -2.26,3.08c-0.06,0.07 -0.13,0.13 -0.19,0.17c-0.22,0.2 -0.47,0.37 -0.73,0.52c-0.29,0.1 -0.54,0.12 -0.74,0.08c-0.08,-0.02 -0.16,-0.04 -0.23,-0.08c-0.43,-0.2 -0.68,-0.71 -0.94,-1.19c-0.88,-2.6 -0.61,-5.29 -0.61,-7.94c-0.02,-32.96 -0.03,-65.92 0,-98.88c0,-4.56 -0.33,-9.01 -2.9,-12.96c-3.77,-5.8 -9.28,-8.4 -16.07,-8.43c-17.92,-0.1 -35.83,0.01 -53.75,-0.08c-0.76,0 -1.51,0 -2.27,-0.01l-0.41,0c-7.78,-0.25 -15.6,0.85 -23.34,-0.7c-0.01,0 -0.03,-0.01 -0.04,-0.01c-0.17,-0.09 -0.33,-0.19 -0.48,-0.3c-1.09,-0.8 -1.45,-2.11 -1.9,-3.33c-2.15,-5.89 -6.58,-8.52 -12.61,-8.7c-6.13,-0.17 -12.27,0.04 -18.4,-0.08c-6.67,-0.12 -9.2,-2.64 -9.59,-9.35c-0.1,-1.82 -0.13,-3.66 -0.04,-5.47c0.28,-5.44 -1.65,-9.69 -6.35,-12.63c-1.06,-0.66 -2.46,-1.22 -2.25,-2.92c7.51,3.35 11.1,8.94 10.07,17.3c-0.22,1.79 -0.19,3.66 0.01,5.46c0.45,3.94 2.28,6.37 6.74,6.27c6.62,-0.15 13.25,-0.09 19.88,-0.02c8.58,0.09 13.47,4.59 14.44,13.14c7.97,0.03 15.94,0.06 23.91,0.09c19.61,-0.06 39.22,-0.34 58.83,-0.08c10.51,0.14 18.05,8.81 18.06,19.91c0.04,34.74 0.01,69.48 0.02,104.21c0,2.16 0.08,4.32 0.12,6.48c0.32,-0.23 0.64,-0.46 0.96,-0.69c5.29,-8.38 10.57,-16.75 15.86,-25.13c3.82,-6.05 7.48,-12.2 11.5,-18.11c5.88,-8.64 16.84,-11.45 26.04,-6.49c5.4,2.9 10.6,6.29 15.53,9.94c7.42,5.5 10.17,15.3 6.23,23.66z" class="st0"/>
   <path id="svg_3" fill="#FEC150" d="m329.22,508.93c-2.34,1.83 -5.15,1.91 -7.73,2.77c-0.17,0.06 -0.34,0.13 -0.51,0.19l-271.9,0c-11.25,-3.64 -15.57,-9.72 -15.58,-22.36c-0.05,-55.6 -0.02,-111.2 -0.02,-166.79l0,-253.69c0,-2.33 -0.05,-4.66 0.04,-6.99c0.47,-12.59 9.03,-21.26 21.6,-21.52c11.98,-0.24 23.97,-0.06 35.96,-0.06c12.65,-0.01 25.3,-0.03 37.95,0.02c2.37,0 4.83,-0.25 6.97,1.14c0.09,0.06 0.17,0.12 0.26,0.18c0.02,0.03 0.05,0.06 0.07,0.09c0.94,1.21 1.2,2.66 1.23,4.13c0.18,7.65 0.17,15.31 0.01,22.97c-0.03,1.39 -0.24,2.78 -1.04,3.97c-0.06,0.09 -0.12,0.18 -0.19,0.27c-0.02,0.02 -0.05,0.03 -0.07,0.05c-2.31,1.7 -5.03,1.36 -7.63,1.37c-16.66,0.04 -33.31,0 -49.97,0.02c-9.66,0.02 -10.96,1.3 -10.97,11.02c-0.01,96.77 -0.01,193.53 -0.01,290.3c0,30.31 0,60.62 0.01,90.93c0,2.17 -0.04,4.33 0.17,6.49c0.34,3.53 2.26,5.39 5.78,5.7c2.32,0.2 4.66,0.15 6.99,0.15c49.13,0.01 98.26,0.01 147.39,-0.01c3.18,0 6.33,0.15 9.51,0.16c0.28,0.01 0.56,0.01 0.85,0.01l0.13,0c2.27,-0.2 4.53,-0.16 6.8,-0.01c0.49,-0.01 0.97,-0.01 1.46,-0.01c0.56,-0.01 1.12,-0.02 1.67,-0.02c17.46,-0.18 34.91,-0.13 52.37,-0.06l1.47,0c8.83,0.01 17.65,-0.06 26.47,-0.01c2.16,0.01 4.34,-0.11 6.41,0.69c0.42,0.2 0.81,0.46 1.1,0.8c0.08,0.1 0.16,0.22 0.22,0.34c0.04,0.05 0.06,0.11 0.09,0.17c3.43,8.09 -0.45,22.18 -7.36,27.6z" class="st1"/>
   <path id="svg_4" fill="#FEFEFE" d="m184.78,3.02c-4.57,2.82 -6.31,7.03 -6.33,12.2c-0.01,2.65 0.17,5.32 -0.24,7.95c-0.74,4.71 -3.2,7.03 -8,7.24c-5.63,0.25 -11.28,0.22 -16.92,0.04c-7.79,-0.23 -13.66,2.26 -16.15,10.25c-0.15,0.48 -0.44,0.88 -0.81,1.21c-0.13,0.11 -0.27,0.22 -0.41,0.32c-27.31,-0.03 -54.62,-0.15 -81.93,-0.04c-10.52,0.05 -18.54,8.26 -18.87,18.74c-0.05,1.66 -0.02,3.33 -0.02,4.99c0,140.05 0.1,280.09 -0.18,420.13c-0.02,11.89 2.88,20.81 14.16,25.84c-11.25,-3.64 -15.57,-9.72 -15.58,-22.36c-0.05,-55.6 -0.02,-111.2 -0.02,-166.79l0,-253.69c0,-2.33 -0.05,-4.66 0.04,-6.99c0.47,-12.59 9.03,-21.26 21.6,-21.52c11.98,-0.24 23.97,-0.06 35.96,-0.06c12.65,-0.01 25.3,-0.03 37.95,0.02c2.37,0 4.83,-0.25 6.97,1.14c1.07,-7.97 5.94,-12.4 13.98,-12.52c6.49,-0.1 12.99,0 19.48,-0.03c5.49,-0.03 7.37,-1.93 7.54,-7.52c0.04,-1.33 0.12,-2.67 -0.01,-3.99c-0.83,-8.24 2.32,-14.17 10.04,-17.48c0.21,1.71 -1.19,2.26 -2.25,2.92z" class="st0"/>
   <path id="svg_5" fill="#C1CFD9" d="m299.38,70.2c-0.05,1.02 -0.35,1.98 -0.95,2.81c-0.03,0.06 -0.08,0.11 -0.12,0.16c-0.05,0.07 -0.11,0.14 -0.17,0.21c-2.21,1.54 -4.77,1.31 -7.25,1.31c-49.14,0.02 -98.28,0.03 -147.42,-0.01c-2.46,-0.01 -5.1,0.42 -7.2,-1.38c-0.12,-0.09 -0.23,-0.2 -0.35,-0.32l0,-30.75c0.02,-0.2 0.05,-0.4 0.08,-0.59c1.07,-7.97 5.94,-12.4 13.98,-12.52c6.49,-0.1 12.99,0 19.48,-0.03c5.49,-0.03 7.37,-1.93 7.54,-7.52c0.04,-1.33 0.12,-2.67 -0.01,-3.99c-0.83,-8.24 2.32,-14.17 10.04,-17.48l59.97,0c7.51,3.35 11.1,8.94 10.07,17.3c-0.22,1.79 -0.19,3.66 0.01,5.46c0.45,3.94 2.28,6.37 6.74,6.27c6.62,-0.15 13.25,-0.09 19.88,-0.02c8.58,0.09 13.47,4.59 14.44,13.14c0.2,0.2 0.37,0.42 0.52,0.64c0.49,0.75 0.72,1.61 0.75,2.51c0.28,8.27 0.33,16.53 -0.03,24.8z" class="st2"/>
   <path id="svg_6" fill="#E9B04D" d="m399.1,488.06c0.06,11.77 -3.93,19.8 -15.15,23.83l-62.97,0c0.17,-0.06 0.34,-0.13 0.51,-0.19c11.43,-4.45 15.46,-13.28 14.5,-25.09c-0.15,-1.81 -0.02,-3.64 -0.02,-5.45c0.1,-0.12 0.2,-0.23 0.3,-0.34c1.7,-1.77 4.01,-1.42 6.15,-1.47c5.65,-0.14 11.31,0.14 16.96,-0.13c4.89,-0.23 6.47,-1.87 6.88,-6.71c0.18,-2.15 0.1,-4.32 0.1,-6.48l0,-128.7c0,-2.22 0.02,-4.43 0.14,-6.63c0.02,-0.54 0.06,-1.07 0.1,-1.61c0,-0.07 0,-0.15 0.01,-0.22c0.23,-3.1 1.78,-5.68 3.42,-8.2c8.45,-12.97 16.56,-26.16 24.9,-39.21c0.79,-1.24 1.34,-2.88 2.93,-3.28c0.28,-0.08 0.58,-0.11 0.93,-0.1c0.06,8.81 0.16,17.62 0.16,26.43c0.01,61.19 -0.16,122.37 0.15,183.55z" class="st3"/>
   <path id="svg_7" fill="#E9B04D" d="m397.72,177.92c-8.55,13.66 -17.3,27.19 -25.8,40.87c-0.7,1.13 -1.46,2.26 -2.62,2.97c-0.51,0.32 -0.9,0.4 -1.2,0.32c-0.08,-0.01 -0.15,-0.04 -0.22,-0.08c-0.5,-0.26 -0.74,-0.98 -1.03,-1.62c-0.69,-2.8 -0.47,-5.64 -0.47,-8.46c-0.02,-41.46 -0.01,-82.91 -0.01,-124.36c0,-1.66 0.04,-3.33 -0.05,-4.99c-0.29,-6.03 -1.87,-7.6 -7.85,-7.89c-7.14,-0.34 -14.31,0.65 -21.41,-0.62c-0.55,-0.26 -0.98,-0.57 -1.3,-0.92c-0.07,-0.07 -0.14,-0.15 -0.19,-0.23c-1.17,-1.45 -0.87,-3.47 -0.91,-5.3c-0.09,-4.28 0.11,-8.59 -1.57,-12.65c-1.55,-3.73 -3.95,-6.78 -7.42,-8.98c-1.13,-0.72 -2.6,-1.16 -3.26,-2.39c-0.2,-0.35 -0.32,-0.76 -0.36,-1.25c19.61,-0.06 39.22,-0.34 58.83,-0.08c10.51,0.14 18.05,8.81 18.06,19.91c0.04,34.74 0.01,69.48 0.02,104.21c0,2.16 0.08,4.32 0.12,6.48c0.04,0.1 0.07,0.2 0.1,0.3c0.58,1.87 -0.58,3.34 -1.46,4.76z" class="st3"/>
   <path id="svg_8" fill="#FB8085" d="m417.48,182.99c-0.03,0.07 -0.06,0.15 -0.1,0.22c-0.02,0.06 -0.04,0.12 -0.07,0.17c-3.3,7.69 -8.35,14.38 -12.79,21.38c-27.35,43.16 -54.59,86.39 -82.02,129.51c-17.78,27.94 -35.32,56.04 -53.22,83.9c-1.16,1.8 -2.04,3.93 -4.02,5.02c-0.05,0.03 -0.09,0.05 -0.13,0.07c-0.24,0.13 -0.5,0.24 -0.77,0.33c-5.63,-0.8 -11.16,-2.16 -16.78,-2.98c-0.05,-0.01 -0.09,-0.01 -0.14,-0.02c-0.11,-0.1 -0.21,-0.2 -0.3,-0.3l0,-0.01c-1.83,-2.04 -0.24,-4.14 0.34,-6.11c3.07,-10.38 9.85,-18.74 15.42,-27.74c13.62,-22 27.75,-43.67 41.36,-65.68c0.28,-0.44 0.57,-0.87 0.85,-1.31c0.33,-0.51 0.67,-1.02 1,-1.54c13.65,-21.05 26.84,-42.39 40.31,-63.55c6.33,-9.93 12.7,-19.84 18.96,-29.83c0.65,-1.03 1.19,-2.19 2.5,-2.52c0.1,-0.03 0.2,-0.05 0.31,-0.06c10.45,-16.16 21.04,-32.24 30.76,-48.86c0.04,-0.07 0.09,-0.15 0.13,-0.22c0.32,-0.23 0.64,-0.46 0.96,-0.69c0.27,0.07 0.54,0.14 0.8,0.22c6.59,1.85 12.02,5.57 16.64,10.6z" class="st4"/>
   <path id="svg_9" fill="#FB8085" d="m446.2,202.83c-15.8,25.08 -31.6,50.17 -47.41,75.25c-0.4,0.61 -0.8,1.22 -1.19,1.83c-10.16,15.54 -20.22,31.14 -29.68,47.12c-0.39,1.27 -0.87,2.49 -1.42,3.67c-2.11,4.53 -5.24,8.47 -7.89,12.66c-17.89,28.33 -35.78,56.66 -53.74,84.95c-0.08,0.13 -0.17,0.26 -0.25,0.39c-0.29,0.46 -0.59,0.92 -0.89,1.37c-3.24,4.93 -6.75,9.64 -11.26,13.55c-1.24,1.08 -2.26,2.6 -4.14,2.56c-0.13,-0.01 -0.27,-0.02 -0.41,-0.04c-0.02,-0.03 -0.05,-0.07 -0.07,-0.1c-3.51,-5.21 -7.59,-10 -11.16,-15.19c0.03,-0.05 0.06,-0.09 0.09,-0.14c0.02,-0.04 0.05,-0.08 0.07,-0.12c15.32,-24.23 30.7,-48.44 46.02,-72.68c20.36,-32.21 40.77,-64.38 61.16,-96.57c13.9,-21.92 27.68,-43.92 41.74,-65.74c1.06,-1.65 1.93,-3.51 3.65,-4.65c0.05,-0.03 0.09,-0.06 0.14,-0.09c0.1,-0.06 0.21,-0.12 0.32,-0.18c6.19,1.25 10.5,5.77 15.53,9.01c0.38,0.24 0.64,0.58 0.79,0.96c0.27,0.63 0.26,1.42 0,2.18z" class="st4"/>
   <path id="svg_10" fill="#8B9AA5" d="m475.2,156.04c-3.53,7.48 -8.09,14.46 -13.27,20.96c-0.29,-0.01 -0.58,-0.03 -0.85,-0.08c-2.78,-0.43 -4.72,-2.55 -6.99,-3.94c-11.46,-7.03 -22.76,-14.33 -34.12,-21.52c-1.31,-0.83 -3.1,-1.38 -3.79,-2.92c-0.19,-0.41 -0.29,-0.91 -0.28,-1.5c3.82,-6.05 7.48,-12.2 11.5,-18.11c5.88,-8.64 16.84,-11.45 26.04,-6.49c5.4,2.9 10.6,6.29 15.53,9.94c7.42,5.5 10.17,15.3 6.23,23.66z" class="st5"/>
   <path id="svg_11" fill="#C8E1E6" d="m461.93,177c-4.44,9.1 -10.69,17.1 -15.73,25.83c-0.12,-0.5 -0.29,-0.95 -0.51,-1.34c-1.29,-2.42 -4.21,-2.99 -6.29,-4.47c-3.04,-2.15 -6.33,-3.96 -9.51,-5.92c-0.16,-0.05 -0.32,-0.09 -0.47,-0.15c-4.71,-1.44 -8.71,-4.03 -12.11,-7.57c-0.12,-0.12 -0.24,-0.25 -0.36,-0.38c-5.44,-3.48 -10.87,-6.96 -16.3,-10.44c-0.2,-0.13 -0.41,-0.26 -0.61,-0.39c5.29,-8.38 10.57,-16.75 15.86,-25.13c0.29,0.19 0.58,0.37 0.87,0.56c13.59,8.74 27.19,17.49 40.76,26.25c1.3,0.84 2.53,1.78 3.78,2.7c0.21,0.15 0.41,0.3 0.62,0.45z" class="st6"/>
   <path id="svg_12" fill="#FEC150" d="m335.97,72.91c-0.06,0.08 -0.13,0.16 -0.21,0.23c-1.28,1.4 -3.07,1.45 -4.79,1.44c-9.26,-0.01 -18.53,0.34 -27.8,-0.12c-0.51,-0.01 -1.02,-0.04 -1.53,-0.08c-0.33,-0.01 -0.65,-0.03 -0.98,-0.05c-0.93,-0.14 -1.74,-0.46 -2.35,-1.16c-0.06,-0.06 -0.12,-0.13 -0.17,-0.2l0,-30.72c7.97,0.03 15.94,0.06 23.91,0.09c0.94,0.39 1.81,0.81 2.63,1.26c11.51,6.24 11.98,17.51 11.29,29.31z" class="st1"/>
   <path id="svg_13" fill="#F4F4F4" d="m298.14,72.97c0.63,0.09 1.26,0.19 1.89,0.28c4.3,0.82 6.24,3.73 6.33,7.79c0.36,14.81 0.23,29.63 0.07,44.44c-0.01,1.34 -0.3,2.65 -1.16,3.75c-2.5,1.82 -5.41,1.35 -8.2,1.36c-21.28,0.04 -42.57,0.02 -63.85,0.03c-2.32,0 -4.68,-0.14 -6.92,0.63c-2.77,0.95 -4.5,2.75 -4.46,5.87c0.03,2.9 1.66,4.56 4.24,5.5c2.56,0.93 5.24,0.84 7.89,0.85c21.12,0.02 42.24,-0.02 63.35,0.03c2.77,0.01 5.71,-0.51 8.12,1.57c1.42,2.26 1.17,4.81 1.17,7.28c0.03,53.38 0.01,106.75 0.03,160.13c0,3.04 -0.42,5.96 -1.53,8.78c-7.17,11.57 -14.29,23.16 -21.52,34.7c-10.06,16.05 -20.24,32.03 -30.26,48.1c-3,4.81 -5.05,10.07 -6.07,15.69c1.07,2.18 0.05,4.24 -0.41,6.31c-2.81,12.49 -5.83,24.95 -8.96,37.36c-1.54,6.12 -2.76,11.87 1.41,17.37c-11.49,0.05 -22.98,0.14 -34.47,0.14c-42.97,0.02 -85.95,0.01 -128.92,0c-7.95,0 -9.85,-1.83 -9.85,-9.51c-0.01,-129.58 -0.01,-259.17 0,-388.75c0,-7.41 2.12,-9.55 9.41,-9.57c20.15,-0.05 40.31,-0.08 60.46,-0.12c54.06,-0.01 108.14,-0.01 162.21,-0.01z" class="st7"/>
   <path id="svg_14" fill="#E9E9E9" d="m303.99,427.93c12.71,-20.24 25.38,-40.5 38.15,-60.7c8.51,-13.45 17.18,-26.8 25.78,-40.2c0.04,48.76 0.1,97.52 0.09,146.29c0,5.4 -2.23,7.54 -7.59,7.62c-8.15,0.13 -16.3,0.15 -24.45,0.22c-11.66,-0.12 -23.32,-0.24 -34.97,-0.37c4.51,-12.57 1.75,-25.62 2.44,-38.44c0.25,-4.8 -0.21,-9.64 0.55,-14.42z" class="st8"/>
   <path id="svg_15" fill="#7C8A95" d="m239.3,480.79c-4.49,-2.91 -5.55,-6.77 -4.2,-11.97c4.23,-16.31 8.13,-32.71 12.17,-49.07c6.13,-0.07 11.97,1.32 17.69,3.4c5.2,0.77 9.31,3.22 12.1,7.75c4.75,4.17 8.62,8.99 11.21,14.8c0.48,2.12 -1.27,2.86 -2.47,3.87c-11.39,9.55 -23.1,18.7 -34.66,28.04c-1.82,1.47 -3.82,2.56 -6.07,3.19c-1.93,-0.01 -3.85,-0.01 -5.77,-0.01z" class="st9"/>
   <path id="svg_16" fill="#F4F4F4" d="m245.06,480.79c14.47,-11.6 29.23,-22.87 43.2,-35.1c6.74,-4.6 11.07,-11.33 15.74,-17.76c1.62,1.48 0.95,3.43 0.96,5.18c0.06,12.14 -0.13,24.29 0.12,36.43c0.09,4.45 -0.87,8.16 -4.07,11.25c-18.66,0 -37.3,0 -55.95,0z" class="st7"/>
   <path id="svg_17" fill="#E9E9E9" d="m305.11,321.25c-0.04,-34.11 -0.1,-68.22 -0.13,-102.33c-0.02,-24.63 0,-49.25 0,-73.88c1.9,-1.85 4.33,-1.32 6.59,-1.4c2.98,-0.11 5.96,0.11 8.93,-0.13c5.11,-0.42 7.8,-2.71 7.85,-6.56c0.05,-3.82 -2.73,-6.13 -7.86,-6.41c-3.3,-0.18 -6.62,0.01 -9.93,-0.09c-1.95,-0.06 -4.02,0.23 -5.59,-1.41c0,-15.27 -0.11,-30.53 0.08,-45.79c0.06,-4.42 -1.19,-7.75 -5.03,-9.99c11.98,-0.11 23.96,-0.22 35.94,-0.34c7.65,0.05 15.3,0.11 22.95,0.15c7.22,0.04 9.12,1.88 9.12,9.14c0.02,45.09 0.01,90.17 0.01,135.26c0,1.5 0.09,2.99 0.13,4.49c-16.67,26.44 -33.3,52.9 -50.02,79.3c-4.25,6.71 -8.02,13.76 -13.04,19.99z" class="st8"/>
   <path id="svg_18" fill="#FA636F" d="m277.05,430.89c-4.03,-2.58 -8.07,-5.17 -12.1,-7.75c7.31,-11.66 14.58,-23.35 21.95,-34.99c21.29,-33.65 42.63,-67.27 63.94,-100.91c21.4,-33.78 42.78,-67.57 64.17,-101.35c0.62,-0.98 1.3,-1.93 1.95,-2.89c4.63,2.19 8.82,5.09 12.94,8.1c-10.29,16.25 -20.58,32.5 -30.86,48.75c-24.65,38.95 -49.29,77.9 -73.93,116.86c-14.44,22.84 -28.84,45.72 -43.33,68.53c-1.32,2.05 -2.24,4.54 -4.73,5.65z" class="st10"/>
   <path id="svg_19" fill="#66B39C" d="m188.88,152.81c0,9.32 0.06,18.64 -0.02,27.96c-0.07,9.31 -4.87,14.08 -14.26,14.11c-18.47,0.05 -36.94,0.07 -55.42,-0.01c-9.07,-0.03 -13.93,-4.85 -13.97,-13.88c-0.08,-18.64 -0.08,-37.28 0,-55.91c0.04,-9.03 4.9,-13.81 14,-13.84c18.64,-0.06 37.28,-0.07 55.92,0.01c8.77,0.04 13.62,4.87 13.72,13.61c0.11,9.31 0.03,18.63 0.03,27.95z" class="st11"/>
   <path id="svg_20" fill="#66B39C" d="m146.77,318.87c-9.15,0 -18.3,0.06 -27.46,-0.02c-9.32,-0.07 -14.08,-4.85 -14.11,-14.25c-0.06,-18.47 -0.06,-36.94 0,-55.41c0.03,-8.89 4.56,-13.85 13.38,-13.95c18.97,-0.21 37.94,-0.21 56.91,0c8.81,0.1 13.33,5.06 13.36,13.97c0.07,18.47 0.06,36.94 0,55.41c-0.03,9.38 -4.8,14.16 -14.13,14.23c-9.31,0.08 -18.63,0.02 -27.95,0.02z" class="st11"/>
   <path id="svg_21" fill="#66B39C" d="m146.75,442.83c-8.98,0 -17.97,0.03 -26.95,-0.01c-9.78,-0.03 -14.56,-4.65 -14.58,-14.26c-0.06,-18.47 -0.06,-36.94 0,-55.41c0.03,-8.89 4.57,-13.83 13.39,-13.92c18.97,-0.2 37.94,-0.21 56.9,0c8.78,0.1 13.32,5.09 13.35,13.99c0.06,18.47 0.06,36.94 0,55.41c-0.03,9.38 -4.82,14.13 -14.16,14.18c-9.32,0.06 -18.63,0.02 -27.95,0.02z" class="st11"/>
   <path id="svg_22" fill="#DCE9FA" d="m304.98,129.04c5.33,0 10.65,-0.04 15.98,0.02c5.54,0.06 8.86,2.71 9.02,7.11c0.2,5.4 -2.64,8.53 -8.52,8.8c-5.48,0.25 -10.98,0.06 -16.48,0.07c-24.93,0 -49.87,0.02 -74.8,-0.02c-6.5,-0.01 -9.89,-2.44 -10.17,-7.02c-0.35,-5.82 2.75,-8.93 9.17,-8.94c24.27,-0.04 48.54,-0.01 72.81,-0.01c0.99,0 1.99,-0.01 2.99,-0.01z" class="st12"/>
   <path id="svg_23" fill="#DCE9FA" d="m259.52,253c9.64,0 19.28,-0.03 28.91,0.01c6.98,0.02 10.47,2.64 10.54,7.8c0.07,4.89 -4.02,8.15 -10.41,8.16c-19.44,0.03 -38.88,0.03 -58.33,0c-6.51,-0.01 -9.93,-2.41 -10.23,-6.96c-0.37,-5.62 2.7,-8.94 8.6,-8.99c10.32,-0.08 20.62,-0.02 30.92,-0.02z" class="st12"/>
   <path id="svg_24" fill="#DCE9FA" d="m251.02,177.02c-7.31,0 -14.62,0.04 -21.93,-0.01c-5.8,-0.04 -8.96,-2.71 -9.08,-7.52c-0.14,-5.26 2.72,-8.31 8.76,-8.38c14.79,-0.18 29.58,-0.16 44.36,-0.01c5.72,0.06 9.98,4.11 9.73,8.6c-0.21,3.74 -4.93,7.29 -9.89,7.32c-7.32,0.04 -14.64,0 -21.95,0z" class="st12"/>
   <path id="svg_25" fill="#DCE9FA" d="m251.5,300.98c-7.48,0 -14.96,0.04 -22.44,-0.01c-5.3,-0.04 -8.64,-2.52 -9.05,-6.56c-0.55,-5.56 1.13,-7.69 7.37,-9.01c1.6,-0.34 3.29,-0.38 4.94,-0.38c12.47,-0.03 24.94,-0.02 37.4,-0.02c0.66,0 1.33,-0.02 1.99,0.01c6.75,0.29 11.02,3.48 11.13,8.28c0.1,4.79 -4.19,7.69 -11.4,7.7c-6.64,-0.01 -13.29,-0.01 -19.94,-0.01z" class="st12"/>
   <path id="svg_26" fill="#F5F8F8" d="m141.2,174.13c0.17,0.01 -0.68,0.03 -1.49,-0.13c-5.2,-0.99 -17.09,-16.35 -16.73,-21.58c0.35,-5.07 5.19,-8.23 10,-6.62c1.66,0.56 2.89,1.57 3.98,2.86c5.38,6.36 5.39,6.36 10.3,-0.22c3.18,-4.26 6.25,-8.62 9.56,-12.78c3.4,-4.27 7.72,-5.03 11.27,-2.25c3.65,2.85 4.12,7.1 0.98,11.47c-5.92,8.23 -11.97,16.38 -18.02,24.52c-2.17,2.95 -4.99,4.88 -9.85,4.73z" class="st13"/>
   <path id="svg_27" fill="#F5F8F8" d="m130.87,272c3.02,-0.01 5.2,2.14 7.14,4.8c4.07,5.58 4.08,5.53 8.26,-0.22c3.43,-4.71 6.88,-9.41 10.4,-14.04c3.21,-4.23 7.48,-5.16 11.26,-2.61c3.7,2.49 4.35,7.1 1.26,11.42c-6.1,8.53 -12.25,17.03 -18.64,25.34c-4.44,5.78 -12.21,5.89 -16.85,0.31c-3.4,-4.09 -6.55,-8.42 -9.42,-12.89c-3.43,-5.37 -0.03,-11.89 6.59,-12.11z" class="st13"/>
   <path id="svg_28" fill="#F5F8F8" d="m141.59,422.08c0.16,0 -0.35,0.04 -0.84,-0.01c-5.91,-0.55 -18.46,-16.23 -17.73,-22.14c0.72,-5.8 7.39,-8.61 12.14,-5.08c0.66,0.49 1.21,1.14 1.73,1.78c5.5,6.64 5.47,6.63 10.7,-0.57c3.13,-4.3 6.21,-8.65 9.55,-12.79c3.2,-3.96 7.51,-4.58 10.93,-1.93c3.54,2.74 4.2,6.95 1.29,11.04c-6.08,8.52 -12.33,16.94 -18.59,25.33c-2.08,2.79 -4.87,4.53 -9.18,4.37z" class="st13"/>
  </g>
 </g>
</svg>