<svg width="512" height="512" xmlns="http://www.w3.org/2000/svg" xml:space="preserve" version="1.1">

 <g>
  <title>Layer 1</title>
  <g id="svg_1">
   <path id="svg_2" fill="#FEFEFE" d="m196.4,146.85c-19.02,-19.26 -19.05,-48.29 -0.58,-67.62c13.15,-13.76 32.1,-19.24 52.08,-11.7c0.98,0.36 1.88,1.62 3.13,0.53c-5.16,-13.86 -5.46,-27.59 1.33,-41.04c6.6,-13.05 17.01,-21.42 31.12,-25.3c1.5,-0.41 3.41,-0.01 4.51,-1.62c-0.17,2.61 -2.48,2.35 -4.03,2.8c-21.23,6.22 -32.34,20.89 -35.44,42.26c-0.86,5.89 0.78,11.53 2.18,17.17c0.47,1.91 1.47,3.74 0.92,5.82c-0.11,0.15 -0.23,0.29 -0.34,0.41c-0.05,0.05 -0.09,0.1 -0.14,0.14c-1.75,1.71 -3.66,0.09 -5.32,-0.48c-13.25,-4.51 -25.95,-3.18 -38.08,3.52c-26.08,14.4 -32.27,50.23 -12.32,72.08c3.54,3.88 5.38,7.76 4.98,12.93c-0.26,3.31 0.04,6.66 -0.08,9.99c-0.11,3.15 0.88,4.02 3.72,2.26c3.67,-2.28 7.47,-4.38 11.1,-6.73c3.21,-2.08 6.53,-2.95 10.39,-2.65c17.97,1.37 32.76,-4.71 43.39,-19.52c9.03,-12.58 10.93,-26.49 6.77,-41.36c-0.51,-1.83 -2.16,-3.91 -0.36,-5.76l0.15,-0.15c0.14,-0.13 0.29,-0.26 0.46,-0.38c4.26,-0.18 8.01,2.01 12.12,2.62c4.16,0.62 8.32,1.07 12.42,0.32c3.73,-0.67 6.85,0.21 9.98,2.07c5.11,3.03 10.04,6.41 16.06,9.26c0.23,-6.19 0.13,-11.8 0.1,-17.4c-0.02,-3.34 0.98,-6.06 3.26,-8.59c24.28,-26.95 12.57,-67.65 -22.29,-77.84c-1.7,-0.5 -4.21,-0.01 -4.61,-2.79c2.95,0.95 5.92,1.82 8.84,2.85c33.02,11.62 43.15,53.65 18.93,78.84c-2.15,2.24 -3.08,4.41 -2.99,7.47c0.19,6.29 0.06,12.6 0.06,19.52c-6.31,-2.62 -11.45,-6.27 -16.81,-9.44c-3.54,-2.09 -6.76,-3.28 -11.16,-2.57c-8.21,1.32 -16.17,-0.9 -23.9,-3.71l-0.03,0c0.01,0 0.02,0.01 0.03,0.01c1.1,7.58 3.38,14.9 3.17,22.8c-0.51,19.62 -18.12,40.8 -37.46,44.15c-2.77,0.47 -5.51,1.54 -8.35,0.99c-10.27,-2 -18.62,2.28 -26.65,7.85c-2.13,1.48 -4.56,2.53 -7.65,4.22c0,-7.14 -0.1,-13.38 0.05,-19.62c0.07,-2.7 -0.74,-4.67 -2.66,-6.61z" class="st0"/>
   <path id="svg_3" fill="#FEFEFE" d="m511.9,317.97c-2.47,0.02 -2.29,-2.15 -2.66,-3.55c-2.81,-10.76 -8.57,-19.79 -16,-27.88c-1.14,-1.24 -2.14,-2.56 -2.48,-4.27c-0.01,-0.22 -0.02,-0.43 -0.03,-0.65c-0.01,-0.21 -0.02,-0.41 -0.02,-0.62c-0.54,-13.01 -0.13,-26.02 -0.22,-39.04c-0.11,-16.84 -8.67,-26.94 -25.31,-29.79c-2.22,-0.38 -4.54,-0.44 -6.63,-1.42c-0.18,-0.08 -0.36,-0.17 -0.54,-0.27c-0.02,-0.01 -0.03,-0.02 -0.05,-0.03c-1.04,-0.98 -1.25,-2.29 -1.39,-3.61c-0.71,-6.44 -2.24,-12.67 -4.64,-18.69c-0.54,-1.33 -0.97,-2.7 -0.53,-4.15c0.01,-0.03 0.02,-0.07 0.04,-0.1c0,-0.03 0.01,-0.05 0.02,-0.08c0.65,-1.41 1.88,-2.31 2.94,-3.36c4.71,-4.67 7.15,-10.19 7.13,-16.96c-0.1,-28.63 0,-57.26 -0.06,-85.89c-0.03,-11.17 -6.27,-19.55 -16.39,-22.37c-10.15,-2.83 -20.29,1.43 -26.02,10.94c-0.77,1.28 -1.38,2.66 -2.48,3.72c-0.15,0.09 -0.29,0.17 -0.44,0.24c-0.12,0.05 -0.24,0.1 -0.36,0.14c-1.73,0.58 -3.24,-0.52 -4.74,-1.22c-12.19,-5.63 -24.2,-5.65 -36.03,1c-0.06,0.03 -0.11,0.07 -0.17,0.1c-0.26,0.16 -0.52,0.31 -0.77,0.47c-10.84,6.76 -16.63,16.76 -18.36,29.39c-0.01,0.18 -0.02,0.36 -0.02,0.54c-0.26,6.02 -0.45,12.04 -0.46,18.05c-0.01,8.6 0.37,17.2 1.53,25.77c0.59,4.31 2.41,8.3 4.67,12.04c0.93,1.56 2.22,2.95 2.28,4.91c-0.03,0.32 -0.09,0.6 -0.18,0.86c-0.02,0.09 -0.05,0.18 -0.09,0.26c-0.66,1.56 -2.36,2.04 -3.8,2.75c-19.06,9.37 -28.25,24.78 -28.41,45.9c-0.02,2.8 1.11,6 -0.86,8.5c-0.07,0.09 -0.14,0.17 -0.22,0.26c-0.28,0.31 -0.61,0.61 -1,0.89c-6.19,0.53 -12.25,-0.85 -18.36,-1.39c-20.2,-1.76 -40.44,-3.14 -60.7,-2.69c-20.58,0.45 -41.18,1.33 -61.63,4.05c-1.8,0.24 -3.61,0.65 -5.44,0.15c-0.58,-0.28 -1.03,-0.61 -1.35,-0.99c-0.15,-0.16 -0.28,-0.32 -0.38,-0.49c-0.91,-1.46 -0.58,-3.37 -0.54,-5.06c0.14,-6.85 -0.27,-13.62 -2.42,-20.17c-4.21,-12.77 -12.37,-22.14 -24.38,-28.22c-1.9,-0.96 -4.49,-1.23 -5.3,-3.63c-0.04,-0.08 -0.06,-0.17 -0.08,-0.26c-0.05,-0.17 -0.09,-0.35 -0.12,-0.54c0.06,-1.01 0.34,-1.99 0.89,-2.82c6.23,-9.42 7.63,-19.91 7.3,-30.92c-0.24,-7.95 -0.15,-15.91 0.01,-23.86c-0.01,-0.21 -0.02,-0.41 -0.04,-0.61c-0.01,-0.21 -0.03,-0.42 -0.05,-0.63c-1.66,-21.63 -15.29,-35.91 -36.97,-37.89c-7.22,-0.65 -14.17,1.47 -20.45,5.28c-0.16,0.09 -0.31,0.18 -0.47,0.28c-0.14,0.09 -0.28,0.18 -0.41,0.27c-10.73,7.12 -17.04,16.8 -18.08,29.99c-0.48,6.09 -1.19,12.1 -0.24,18.15c0.05,0.33 0.1,0.65 0.16,0.98c0.04,0.23 0.09,0.47 0.14,0.7c0.45,4.98 0.34,9.98 0.2,14.97c-0.24,8.05 1.27,15.54 5.98,22.23c0.77,1.09 1.38,2.29 1.41,3.68c-0.02,0.34 -0.08,0.65 -0.18,0.92c-0.01,0.05 -0.03,0.1 -0.05,0.14c-0.58,1.42 -2.07,1.94 -3.41,2.57c-16.92,7.93 -26.19,21.34 -28.6,39.73c-0.26,1.96 0.09,4.19 -1.6,5.75c-0.08,0.08 -0.17,0.15 -0.27,0.23c-0.09,0.04 -0.18,0.07 -0.27,0.11c-2.4,0.95 -4.98,1.11 -7.5,1.55c-15.55,2.69 -24.31,13.11 -24.44,29.03c-0.12,13.24 0.31,26.48 -0.2,39.71c0,0.19 -0.01,0.37 -0.02,0.56c-0.01,0.18 -0.01,0.36 -0.02,0.54c-0.37,2.06 -1.71,3.52 -3.07,4.99c-6.95,7.53 -12.2,16.04 -15.14,25.93c-0.46,1.56 -0.39,3.82 -2.97,3.9c2.75,-5.75 4.07,-12.06 7.39,-17.6c3.59,-5.99 8.07,-11.26 12.54,-16.56c0.02,-14.32 0.04,-28.65 0.07,-42.97c0.02,-15.18 10.51,-26.99 25.53,-28.87c2.79,-0.35 5.51,-1.28 8.37,-0.95c0.79,-23.13 11.91,-39.07 33.3,-47.87c-2.39,-5.2 -6.16,-9.65 -7.4,-15.52c-1.49,-7.09 -0.53,-14.16 -0.89,-21.23c-0.09,-1.81 0.01,-3.63 0.03,-5.45c-2.45,-22.1 0.67,-39.58 19.09,-50.74c23.01,-14.42 54.96,0.17 58.9,26.93c0.34,2.27 0.54,4.57 0.8,6.86c-0.17,13.39 1.04,26.79 -0.72,40.16c-0.94,7.15 -4.58,13.01 -8.23,18.93c14.33,5.85 24.9,15.39 30.31,30.24c3.27,8.97 2.83,18.24 2.86,27.5c18.79,-2.18 37.62,-3.58 56.53,-4.35c18.78,-0.76 37.51,-0.06 56.23,1.08c11.74,0.71 23.43,2.16 35.15,3.27c0.19,-7.59 -0.51,-15.25 1.45,-22.73c4.5,-17.17 15.43,-28.46 31.75,-34.85c-0.26,-2.51 -2.38,-3.93 -3.57,-5.89c-4.1,-6.79 -5.1,-14.38 -5.41,-21.96c-0.45,-10.95 -0.15,-21.93 -0.12,-32.9c0,-0.78 0.39,-1.57 0.59,-2.36c1.71,-13.05 7.99,-23.13 19.37,-29.92c12.02,-7.32 24.39,-7.27 37.01,-1.74c1.66,0.72 3.24,1.62 4.86,2.44c4.68,-12.48 15.37,-18.94 27.69,-16.75c11.58,2.07 19.41,12.01 19.43,24.88c0.05,28.14 -0.07,56.28 0.07,84.41c0.04,9.45 -3.51,16.75 -11.43,21.9c3.96,8.09 6.19,16.61 6.37,25.64c13.8,0.41 25.52,4.39 31.55,18.25c1.54,3.55 2.38,7.19 2.37,11.09c-0.03,14.49 0.03,28.98 0.05,43.47c9.55,10.07 16.28,21.74 19.92,35.16z" class="st0"/>
   <path id="svg_4" fill="#CB8A66" d="m511.9,317.97l0,16.99c-2.78,18.75 -14.99,31.43 -28.33,43.15c-8,7.02 -16.97,12.83 -26.54,17.61c-1.54,0.77 -3.01,1.75 -4.81,1.79l-0.31,0c-0.03,-0.01 -0.07,-0.01 -0.1,-0.03c-1.58,-0.37 -2.24,-1.74 -3.01,-2.93c-5.16,-7.99 -12.24,-13.7 -20.8,-17.68c-1.36,-0.64 -3.02,-1.04 -3.5,-2.64c-0.02,-0.04 -0.04,-0.09 -0.04,-0.13c-0.07,-0.23 -0.1,-0.47 -0.11,-0.75c0.08,-0.67 0.18,-1.35 0.54,-1.9c6.82,-10.34 8.08,-21.93 7.68,-33.9c-0.3,-8.78 0.13,-17.55 -0.71,-26.36c-2.48,-25.98 -32.04,-43.31 -56.92,-29.09c-0.11,0.06 -0.21,0.12 -0.32,0.18c-0.18,0.11 -0.35,0.22 -0.53,0.34c-12.78,8.06 -18.29,20.23 -18.59,34.91c-0.23,11.63 -0.79,23.28 0.65,34.92c0.76,6.1 2.57,11.66 5.81,16.82c0.98,1.58 2.23,3.09 1.61,5.1c-0.04,0.13 -0.09,0.26 -0.15,0.4c-0.04,0.03 -0.07,0.06 -0.11,0.09l-0.01,0c-3.01,2.6 -6.89,3.66 -10.17,5.84c-14.44,9.61 -21.22,23.22 -21.89,40.31c-0.14,3.71 1.3,7.78 -1.27,11.16c-0.04,0.04 -0.07,0.08 -0.11,0.13c-0.15,0.19 -0.32,0.39 -0.51,0.58c-7.95,2.82 -16.35,2.74 -24.56,3.35c-18.85,1.41 -37.75,2.82 -56.67,2.16c-20.05,-0.71 -40.12,-1.42 -60.04,-4.11c-1.82,-0.24 -3.61,-0.57 -5.27,-1.37c-0.26,-0.17 -0.48,-0.34 -0.68,-0.53c-0.05,-0.04 -0.1,-0.09 -0.14,-0.14c-1.63,-1.65 -1.25,-3.96 -1.27,-6.06c-0.04,-5.3 -0.08,-10.56 -1.25,-15.79c-2.61,-11.67 -8.81,-20.91 -18.29,-28.05c-0.83,-0.63 -1.72,-1.19 -2.49,-1.88l-0.01,0c-0.22,-0.2 -0.43,-0.41 -0.63,-0.64c-0.3,-0.35 -0.57,-0.74 -0.78,-1.19c-0.9,-2.41 -0.66,-4.93 -0.66,-7.41c-0.03,-18.13 0.13,-36.26 -0.05,-54.38c-0.19,-18.36 -10.57,-32.95 -27.51,-38.04c-10.24,-3.08 -20.38,-2.1 -29.83,3.26c-0.17,0.09 -0.33,0.18 -0.5,0.28c-0.14,0.09 -0.27,0.18 -0.41,0.28c-12.07,8.08 -18.15,19.18 -17.87,34.02c0.34,18.09 0.09,36.19 0.08,54.28c-0.01,2.32 0.17,4.66 -0.46,6.93c-0.25,0.8 -0.73,1.45 -1.36,1.94c-0.07,0.05 -0.14,0.1 -0.21,0.15c-0.09,0.06 -0.17,0.12 -0.26,0.17c-6.51,3.92 -11.76,9.1 -15.78,15.55c-0.52,0.84 -1.19,1.58 -2.22,1.82c-0.01,0.01 -0.02,0.01 -0.03,0.01c-0.15,0.02 -0.31,0.03 -0.46,0.03c-0.86,0 -1.66,-0.28 -2.43,-0.66c-18.84,-9.51 -35.39,-21.82 -47.87,-39.13c-4.93,-6.86 -8.14,-14.4 -9.35,-22.77l0,-17.99c2.75,-5.75 4.07,-12.06 7.39,-17.6c3.59,-5.99 8.07,-11.26 12.54,-16.56c0.42,-0.6 0.85,-1.19 1.29,-1.76c6.6,-8.54 15.93,-13.79 24.69,-19.69c2.53,-1.71 5.18,-3.24 7.87,-4.69c0.22,-0.12 0.44,-0.23 0.65,-0.34c0.32,-0.18 0.65,-0.35 0.97,-0.52c38.14,-20.34 79.3,-30.6 121.76,-36.54c1.39,-0.19 2.76,-0.46 4.04,0.12c0.25,0.11 0.5,0.25 0.75,0.44c18.79,-2.18 37.62,-3.58 56.53,-4.35c18.78,-0.76 37.51,-0.06 56.23,1.08c11.74,0.71 23.43,2.16 35.15,3.27c0.14,-0.09 0.28,-0.16 0.42,-0.23c2.95,-1.5 5.97,-0.12 8.83,0.3c32.58,4.78 64.41,12.43 94.93,25.08c7.7,3.2 14.97,7.3 22.56,10.71c0.29,0.18 0.58,0.36 0.87,0.54c0.15,0.09 0.31,0.18 0.46,0.27c8.47,5.2 17.07,10.21 24.76,16.6c2.91,2.41 5.69,4.9 7.93,7.9c0.45,0.58 0.87,1.19 1.27,1.81c9.55,10.07 16.28,21.74 19.92,35.16z" class="st1"/>
   <path id="svg_5" fill="#FEFEFE" d="m369.96,511.89c-7.62,-6.42 -16.48,-10.96 -24.79,-16.34c-10.57,-6.84 -21.5,-13.12 -31.89,-20.21c-6.35,-4.34 -9.57,-12.25 -4.52,-21.03c3.4,-5.91 13.48,-8.94 21.17,-4.4c-0.03,-5.87 -0.05,-11.74 -0.07,-17.61c-0.15,0.19 -0.32,0.39 -0.51,0.58c-7.95,2.82 -16.35,2.74 -24.56,3.35c-18.85,1.41 -37.75,2.82 -56.67,2.16c-20.05,-0.71 -40.12,-1.42 -60.04,-4.11c-1.82,-0.24 -3.61,-0.57 -5.27,-1.37c-0.26,-0.17 -0.48,-0.34 -0.68,-0.53c-0.03,5.84 -0.06,11.68 -0.09,17.52c7.86,-3.82 14.09,-2.79 19.77,3.3c4,4.27 4.59,12.13 1.19,17.62c-0.86,1.37 -1.98,2.77 -3.32,3.63c-18.72,11.97 -37.49,23.84 -56.27,35.71c-0.68,0.42 -1.56,0.51 -2.35,0.75c0,0.33 -0.01,0.65 -0.02,0.98c-0.35,-0.45 -0.36,-0.91 -0.03,-1.37c0.02,-0.01 0.03,-0.02 0.05,-0.03c0.19,-0.13 0.39,-0.26 0.58,-0.39c16.31,-10.98 33.21,-21.04 49.71,-31.75c1.95,-1.26 3.95,-2.45 5.86,-3.78c6.18,-4.32 8.31,-10.96 5.61,-17.4c-2.46,-5.86 -8.44,-8.75 -15.68,-7.85c-1.63,0.2 -3.54,1.77 -5.1,0.6c-0.01,0 -0.01,-0.01 -0.02,-0.01c-0.35,-0.27 -0.68,-0.68 -0.99,-1.27c-0.33,-5.52 -1.86,-11.1 0.96,-16.4c0.05,-0.08 0.09,-0.17 0.14,-0.25c27.92,3.6 55.96,5.29 84.1,4.67c21.27,-0.46 42.52,-1.69 63.63,-4.69c0.04,0.07 0.07,0.13 0.11,0.2c2.88,5.28 1.3,10.87 1.04,16.36c-0.25,0.66 -0.56,1.1 -0.9,1.36c-0.03,0.03 -0.07,0.06 -0.1,0.07c-1.16,0.8 -2.69,-0.15 -4.03,-0.39c-9.68,-1.74 -15.98,1.89 -17.93,10.39c-1.29,5.59 1.44,11.43 7.21,15.12c16.78,10.72 33.66,21.28 50.48,31.95c1.81,1.15 4.49,1.79 4.22,4.86z" class="st0"/>
   <path id="svg_6" fill="#FEF5DF" d="m467.11,422.72c-0.05,0.07 -0.09,0.13 -0.15,0.19c0,0.01 -0.01,0.01 -0.01,0.01c-0.84,1.08 -2.1,1.3 -3.35,1.33c-10.13,0.22 -20.25,0.14 -30.38,-0.14c2.73,0.52 5.06,2 7.35,3.58c2.52,1.73 4.35,4.07 6.01,6.59c1.56,2.36 3.05,4.75 3.92,7.48c0.91,2.85 1.75,5.74 1.79,8.76c0.15,13.96 0.36,27.93 -0.06,41.88c-0.33,10.86 -5.73,16.93 -16.3,19.49l-65.97,0c-7.62,-6.42 -16.48,-10.96 -24.79,-16.34c-10.57,-6.84 -21.5,-13.12 -31.89,-20.21c-6.35,-4.34 -9.57,-12.25 -4.52,-21.03c3.4,-5.91 13.48,-8.94 21.17,-4.4c0.06,-0.01 0.12,-0.01 0.18,-0.02c2.27,-0.19 3.99,1.15 5.75,2.25c9.86,6.16 19.73,12.3 29.62,18.42c1.07,0.66 1.95,1.86 3.96,1.45c0.25,-6.5 -0.09,-13.1 0.15,-19.68c0.52,-13.75 6.8,-23.67 19.74,-29.02c2.64,-1.1 5.36,-1.8 8.23,-1.75c19.83,0.31 39.61,-1.66 59.45,-1.08c0.29,0.01 0.58,0.01 0.87,0.03c0.14,0 0.29,0 0.43,0.01c3.03,0.37 6.58,-1.36 8.8,2.2z" class="st2"/>
   <path id="svg_7" fill="#FEF5DF" d="m101.52,506.73c0,1.84 -0.13,3.68 -1.46,5.16l-64.98,0c-11.11,-2.7 -16.32,-9.28 -16.4,-20.99c-0.09,-12.97 -0.1,-25.95 0,-38.93c0.14,-17.44 12.68,-30.02 30.23,-30.48c1.73,-0.04 3.44,-0.23 5.17,-0.32c0.08,-0.01 0.15,-0.01 0.23,-0.01c0.03,-0.01 0.05,-0.01 0.08,-0.01c5.57,0.45 11.15,0.25 16.73,0.3c0.19,-0.01 0.38,-0.02 0.57,-0.02c1.96,-0.08 3.93,0.1 5.88,0.52c12.24,2.59 23.43,14.38 23.84,29.81c0.49,18.31 0.13,36.64 0.11,54.97z" class="st2"/>
   <path id="svg_8" fill="#FE59AB" d="m311.82,2.95c-2.92,-1.03 -5.89,-1.9 -8.84,-2.85l-14.99,0c-1.1,1.61 -3.01,1.21 -4.51,1.62c-14.11,3.88 -24.52,12.25 -31.12,25.3c-6.79,13.45 -6.49,27.18 -1.33,41.04c0.03,0.21 0.07,0.42 0.11,0.64c1.96,10 16.08,23.03 24.19,24.28c0.2,0.04 0.4,0.06 0.59,0.08l0.03,0c7.73,2.81 15.69,5.03 23.9,3.71c4.4,-0.71 7.62,0.48 11.16,2.57c5.36,3.17 10.5,6.82 16.81,9.44c0,-6.92 0.13,-13.23 -0.06,-19.52c-0.09,-3.06 0.84,-5.23 2.99,-7.47c24.22,-25.19 14.09,-67.22 -18.93,-78.84zm-23.43,27.83c2.53,2.11 4.48,6.49 7.26,6.2c2.63,-0.27 4.88,-4.1 7.34,-6.32c2.64,-2.37 5.66,-2.76 8.79,-1.21c2.75,1.37 4.12,3.76 4.21,5.99c-0.05,5.28 -3.38,7.64 -6.18,10.11c-2.75,2.43 -3.18,4.23 -0.06,6.6c1.7,1.3 3.19,2.95 4.51,4.66c2.63,3.39 2.29,7.69 -0.87,10.3c-3.2,2.66 -6.59,2.86 -9.99,0.14c-2.71,-2.16 -4.6,-6.71 -7.71,-6.51c-2.56,0.17 -4.81,4.16 -7.34,6.29c-3.47,2.92 -8.01,2.75 -10.81,-0.23c-2.92,-3.1 -2.84,-7.23 0.09,-10.82c2.08,-2.54 6.28,-4.15 6.12,-7.42c-0.15,-2.88 -4.02,-4.6 -6.07,-6.98c-3.13,-3.65 -3.14,-7.57 -0.04,-10.72c3.02,-3.06 7.16,-3.08 10.75,-0.08z" class="st3"/>
   <path id="svg_9" fill="#FEFEFE" d="m60.31,397.9c-2.41,7.65 -3.78,15.57 -6,23.26c-0.07,0.25 -0.15,0.5 -0.22,0.75c-1.13,1.4 -2.75,1.11 -4.17,0.97c-16.32,-1.66 -30.96,14.14 -29.96,30.58c0.68,11.1 0.6,22.31 0,33.43c-0.66,12.09 3.58,20.59 15.12,25c-11.11,-2.7 -16.32,-9.28 -16.4,-20.99c-0.09,-12.97 -0.1,-25.95 0,-38.93c0.14,-17.44 12.68,-30.02 30.23,-30.48c1.73,-0.04 3.44,-0.23 5.17,-0.32c0,-8.33 2.33,-16.11 5.66,-23.65c-0.86,0 -1.66,-0.28 -2.43,-0.66c-18.84,-9.51 -35.39,-21.82 -47.87,-39.13c-4.93,-6.86 -8.14,-14.4 -9.35,-22.77c2.18,2.29 1.96,5.48 3.02,8.2c6.84,17.6 19.83,29.92 34.68,40.62c7,5.03 14.41,9.43 22.17,13.23c0.08,0.15 0.19,0.31 0.27,0.47c0.08,0.15 0.12,0.3 0.08,0.42z" class="st0"/>
   <path id="svg_10" fill="#FEFEFE" d="m457.03,395.72c-1.54,0.77 -3.01,1.75 -4.81,1.79c3.2,7.36 5.65,14.89 5.66,23c0.14,0 0.29,0 0.43,0.01c3.03,0.37 6.58,-1.36 8.8,2.2c-0.05,0.07 -0.09,0.13 -0.15,0.19c13.05,1.05 24.86,13.67 24.93,26.77c0.08,12.81 -0.56,25.67 0.2,38.44c0.68,11.6 -4.3,18.92 -14.17,23.77c-0.04,-2.39 2.14,-2.74 3.54,-3.71c6,-4.19 9.3,-9.57 9.14,-17.2c-0.27,-12.81 -0.06,-25.63 -0.08,-38.44c-0.03,-13.32 -6.96,-23.04 -19.65,-27.63c-1.39,-0.51 -2.92,-0.72 -3.92,-1.99l-0.01,-0.01c-2.84,-1.98 -6.07,-0.51 -9.08,-1.02c-0.39,-0.44 -0.66,-0.91 -0.85,-1.41c-0.46,-1.18 -0.48,-2.5 -0.66,-3.76c-0.75,-5.11 -1.81,-10.13 -3.89,-14.9c-0.59,-1.37 -1.19,-2.81 -0.65,-4.34c0.06,-0.15 0.12,-0.3 0.2,-0.45c19.84,-10.19 37.79,-22.64 50.63,-41.44c4.35,-6.38 6.02,-13.83 9.26,-20.63c-2.78,18.75 -14.99,31.43 -28.33,43.15c-8,7.02 -16.97,12.83 -26.54,17.61z" class="st0"/>
   <path id="svg_11" fill="#FEEFCB" d="m142.59,503.81c-0.03,2.15 0.18,4.37 -0.95,6.29c-0.16,0.27 -0.36,0.55 -0.58,0.81c0,0.33 -0.01,0.65 -0.02,0.98l-40.98,0c0,-19.63 0.2,-39.26 -0.08,-58.88c-0.19,-13.09 -6.42,-22.65 -18.39,-28.33c-3.43,-1.63 -7.02,-1.83 -10.68,-1.86c0.18,-0.61 0.45,-1.06 0.78,-1.39c1.01,-1.02 2.62,-0.88 4.02,-0.96c3.16,-0.2 6.33,-0.12 9.51,-0.06c0.34,0.01 0.68,0.01 1.02,0.02c0.24,0 0.47,0.01 0.71,0.01c6.7,-0.11 13.4,-0.07 20.09,0l0.53,0c0.29,0.01 0.59,0.01 0.88,0.02c10.7,0.28 20.23,3.27 27.31,12.02c0.12,0.14 0.23,0.28 0.34,0.42c0.01,0.01 0.02,0.03 0.03,0.04c4.57,6.37 6.67,13.42 6.44,21.33c-0.2,6.78 -0.35,13.57 0.2,20.35c0.02,0.22 0.03,0.43 0.06,0.65c0,0.1 0.01,0.19 0.02,0.29c-0.48,9.41 -0.14,18.84 -0.26,28.25z" class="st4"/>
   <path id="svg_12" fill="#FEEFCB" d="m477.92,511.89l-41.99,0c11.64,-4.34 15.66,-13.05 15.09,-24.99c-0.48,-10.12 -0.35,-20.28 -0.04,-30.41c0.48,-15.82 -5.71,-27.18 -20.91,-33.58l36.87,0c0.01,0 0.01,0 0.02,0c13.05,1.05 24.86,13.67 24.93,26.77c0.08,12.81 -0.56,25.67 0.2,38.44c0.68,11.6 -4.3,18.92 -14.17,23.77z" class="st4"/>
   <path id="svg_13" fill="#89FEB2" d="m182.04,219.83c-0.12,0.02 -0.25,0.03 -0.37,0.05c-35.97,5.08 -71.27,12.8 -104.85,27.11c-7.32,3.12 -14.45,6.69 -21.67,10.05c-0.53,-0.05 -0.95,-0.18 -1.28,-0.37c-1.31,-0.75 -1.21,-2.44 -1.24,-3.75c-0.31,-12.92 -0.23,-25.84 -0.07,-38.76c0.02,-1.22 0.26,-2.38 0.89,-3.4c0.15,-0.26 0.33,-0.5 0.54,-0.74c0.79,-23.13 11.91,-39.07 33.3,-47.87c0.12,0.02 0.24,0.05 0.36,0.08c4.33,1.04 6.74,5.04 10.45,7.04c0.19,0.11 0.39,0.21 0.59,0.3c0.08,0.04 0.17,0.08 0.26,0.12c15.41,8.6 32.11,6.67 45.33,-5.22c1.25,-1.11 2.31,-2.67 4.29,-2.42c0.1,0 0.2,0.02 0.3,0.04c14.33,5.85 24.9,15.39 30.31,30.24c3.27,8.97 2.83,18.24 2.86,27.5z" class="st5"/>
   <path id="svg_14" fill="#FEE900" d="m459.47,250.86c-0.02,1.97 0.47,4.33 -1.45,5.64c-0.31,0.21 -0.67,0.39 -1.1,0.54c-25.17,-12.74 -51.54,-22.12 -79.01,-28.5c-15.78,-3.67 -31.75,-6.29 -47.76,-8.68c-0.07,-0.01 -0.13,-0.02 -0.2,-0.03c0.19,-7.59 -0.51,-15.25 1.45,-22.73c4.5,-17.17 15.43,-28.46 31.75,-34.85c0.13,-0.03 0.26,-0.05 0.38,-0.06c2.56,-0.28 3.54,2.13 5.17,3.39c1.94,1.49 4,2.8 6.09,4.07c0.01,0.01 0.02,0.01 0.03,0.02c0.2,0.12 0.4,0.24 0.6,0.34c14.14,8.17 31.27,6.26 44.11,-4.97c1.48,-1.29 2.73,-2.93 4.78,-3.43c0.1,0.03 0.19,0.06 0.29,0.09c0.11,0.02 0.22,0.05 0.32,0.09c12.03,3.52 21.4,10.27 26.52,22.11c0.07,0.15 0.13,0.3 0.2,0.46c3.96,8.09 6.19,16.61 6.37,25.64c0.21,0.24 0.39,0.49 0.54,0.75c0.98,1.63 0.96,3.51 0.97,5.37c0.04,11.58 0.09,23.16 -0.05,34.74z" class="st6"/>
   <path id="svg_15" fill="#FEF5DF" d="m279.12,115.87c-0.51,19.62 -18.12,40.8 -37.46,44.15c-2.77,0.47 -5.51,1.54 -8.35,0.99c-10.27,-2 -18.62,2.28 -26.65,7.85c-2.13,1.48 -4.56,2.53 -7.65,4.22c0,-7.14 -0.1,-13.38 0.05,-19.62c0.07,-2.7 -0.74,-4.67 -2.66,-6.61c-19.02,-19.26 -19.05,-48.29 -0.58,-67.62c13.15,-13.76 32.1,-19.24 52.08,-11.7c0.98,0.36 1.88,1.62 3.13,0.53c0.08,0.17 0.17,0.33 0.25,0.5c5.41,10.75 13.42,18.89 24.2,24.27c0.15,0.08 0.29,0.15 0.44,0.23c0.01,0 0.02,0.01 0.03,0.01c1.1,7.58 3.38,14.9 3.17,22.8z" class="st2"/>
   <path id="svg_16" fill="#818BB2" d="m463.07,162.46c0.04,9.45 -3.51,16.75 -11.43,21.9c-0.08,-0.12 -0.15,-0.24 -0.24,-0.36c-6.52,-10.16 -15.41,-17.46 -26.7,-21.85c-0.04,-0.15 -0.08,-0.3 -0.1,-0.45c-0.32,-1.79 0.71,-3.22 1.56,-4.65c4.56,-7.65 6.39,-16.01 6.3,-24.82c-0.09,-9.16 0.39,-18.32 -0.26,-27.47c-0.02,-0.31 -0.05,-0.62 -0.07,-0.93c0,-0.14 -0.01,-0.27 -0.02,-0.41c-0.46,-12.36 -5.14,-22.69 -14.86,-30.63c-0.77,-0.62 -1.71,-1.31 -1.47,-2.51c0.02,-0.12 0.05,-0.24 0.1,-0.36c4.68,-12.48 15.37,-18.94 27.69,-16.75c11.58,2.07 19.41,12.01 19.43,24.88c0.05,28.14 -0.07,56.28 0.07,84.41z" class="st7"/>
   <path id="svg_17" fill="#F9BAA6" d="m157.1,143.16c-0.94,7.15 -4.58,13.01 -8.23,18.93c-0.07,0.07 -0.15,0.15 -0.22,0.22c-6.44,6.48 -13.66,11.85 -22.96,13.2c-9.81,1.43 -19.45,1.03 -27.85,-5.35c0.05,-0.32 0.14,-0.62 0.26,-0.89c0.58,-1.43 1.89,-2.28 3.04,-3.28c8.84,-7.7 13.68,-17.24 13.54,-29.14c-0.08,-6.3 -0.04,-12.59 0,-18.88c0.01,-1.91 -0.15,-3.87 0.8,-5.64c0.02,-0.06 0.06,-0.12 0.09,-0.18c0.06,-0.07 0.12,-0.14 0.19,-0.21c0.21,-0.23 0.44,-0.43 0.69,-0.59c0.29,-0.21 0.59,-0.38 0.91,-0.52c0.59,-0.28 1.22,-0.48 1.85,-0.7c10.72,-2.38 21.49,-4.55 32.23,-6.85c1.68,-0.36 3.39,-0.87 5.12,-0.61c0.42,0.06 0.84,0.17 1.26,0.33c-0.17,13.39 1.04,26.79 -0.72,40.16z" class="st8"/>
   <path id="svg_18" fill="#FEF5DF" d="m55.15,257.04c-12.01,7.2 -23.63,14.94 -33.86,24.57c-0.43,0.39 -0.85,0.79 -1.27,1.2c0.02,-14.32 0.04,-28.65 0.07,-42.97c0.02,-15.18 10.51,-26.99 25.53,-28.87c2.79,-0.35 5.51,-1.28 8.37,-0.95l0,0.4c0.04,13.83 0.06,27.65 0.16,41.48c0.01,1.47 -0.5,3.1 0.37,4.43c0.16,0.25 0.37,0.49 0.63,0.71z" class="st2"/>
   <path id="svg_19" fill="#FEF5DF" d="m491.98,282.81c-0.41,-0.4 -0.83,-0.8 -1.25,-1.19c-10.2,-9.66 -21.84,-17.35 -33.81,-24.58c0.28,-0.26 0.49,-0.53 0.64,-0.81c0.75,-1.35 0.24,-2.93 0.26,-4.37c0.11,-13.79 0.14,-27.59 0.19,-41.38l0,-0.48c13.8,0.41 25.52,4.39 31.55,18.25c1.54,3.55 2.38,7.19 2.37,11.09c-0.03,14.49 0.03,28.98 0.05,43.47z" class="st2"/>
   <path id="svg_20" fill="#717EB2" d="m157.82,103c-0.4,0.1 -0.81,0.21 -1.21,0.3c-12.35,3.14 -24.81,5.75 -37.38,7.85c-1.19,0.47 -2.1,0.51 -2.78,0.2c-0.92,-0.43 -1.41,-1.52 -1.59,-3.06c-0.18,-1.49 -0.2,-3 -0.13,-4.49c0.53,-12.01 -4.57,-21.52 -12.98,-29.63c-1.18,-1.14 -2.97,-1.9 -3.49,-3.56c-0.14,-0.41 -0.19,-0.87 -0.14,-1.4c23.01,-14.42 54.96,0.17 58.9,26.93c0.34,2.27 0.54,4.57 0.8,6.86z" class="st9"/>
   <path id="svg_21" fill="#717EB2" d="m432.97,103.21c-0.01,0.77 -0.32,1.24 -0.77,1.55c-0.44,0.3 -1,0.44 -1.54,0.56c-11.74,2.52 -23.38,5.52 -35.31,7.07c-0.29,-0.01 -0.56,-0.04 -0.81,-0.07c-0.47,-0.07 -0.88,-0.17 -1.24,-0.3c-2.79,-1.03 -2.74,-3.97 -2.66,-6.79c0.28,-9.29 -2.09,-17.73 -7.69,-25.22c-1.8,-2.41 -3.91,-4.49 -6.2,-6.44c-1.02,-0.88 -2.3,-1.62 -2.68,-2.94c-0.12,-0.41 -0.15,-0.87 -0.06,-1.41c12.02,-7.32 24.39,-7.27 37.01,-1.74c1.66,0.72 3.24,1.62 4.86,2.44c0.09,0.07 0.18,0.14 0.26,0.22c7.94,6.57 14.24,14.17 16.29,24.72c0.55,2.81 0.29,5.57 0.54,8.35z" class="st9"/>
   <path id="svg_22" fill="#FEC9B8" d="m391.81,148.07c-1.74,6.87 -5.62,12.69 -10.46,17.82c-1.69,1.79 -3.58,3.35 -5.93,4.12c-0.52,0.17 -1.05,0.3 -1.61,0.39c-4.16,-1.73 -6.79,-5.46 -10.37,-7.95c-0.09,-0.07 -0.19,-0.13 -0.29,-0.2c-0.26,-2.51 -2.38,-3.93 -3.57,-5.89c-4.1,-6.79 -5.1,-14.38 -5.41,-21.96c-0.45,-10.95 -0.15,-21.93 -0.12,-32.9c0,-0.78 0.39,-1.57 0.59,-2.36c0.44,0.46 0.78,0.93 1.05,1.42c1.61,2.93 0.53,6.3 0.63,9.41c0.28,8.45 -1.19,8.31 8.1,6.45c7.29,-1.47 14.53,-3.18 21.82,-4.66c1.91,-0.39 3.85,-1.18 5.76,0.03c0.11,0.11 0.22,0.22 0.33,0.34c0.1,0.11 0.19,0.24 0.27,0.36c0,0 0,0 0.01,0c0.2,0.3 0.34,0.63 0.35,0.99c0.31,11.56 1.74,23.18 -1.15,34.59z" class="st10"/>
   <path id="svg_23" fill="#FEC9B8" d="m98.69,169.57c-0.28,0.2 -0.56,0.4 -0.85,0.59c-4.12,-1.67 -6.79,-5.24 -10.24,-7.79c-0.1,-0.07 -0.21,-0.15 -0.31,-0.22c-2.39,-5.2 -6.16,-9.65 -7.4,-15.52c-1.49,-7.09 -0.53,-14.16 -0.89,-21.23c-0.09,-1.81 0.01,-3.63 0.03,-5.45c0.24,-0.5 0.54,-0.89 0.91,-1.2c0.74,-0.63 1.7,-0.91 2.7,-1.11c9.76,-1.92 19.42,-4.28 29.21,-6.04c1.31,-0.23 2.74,-0.66 3.91,0.34c0.09,0.08 0.19,0.17 0.28,0.27c0.01,7.29 -0.26,14.59 0.07,21.86c0.7,15.2 -5.22,26.9 -17.42,35.5z" class="st10"/>
   <path id="svg_24" fill="#828CB2" d="m119.23,111.15c-0.84,1.02 -2.09,0.81 -3.19,1.06c-0.19,0.04 -0.37,0.08 -0.56,0.12c-11.8,2.46 -23.58,4.93 -35.38,7.4c-0.36,0.07 -0.71,0.15 -1.07,0.22c-2.45,-22.1 0.67,-39.58 19.09,-50.74c0.34,0.28 0.68,0.55 1.02,0.85c7.95,6.6 14.07,14.42 16.4,24.89c0.92,4.13 0.39,8.27 0.46,12.39c0.03,1.66 0.27,2.93 1.36,3.49c0.45,0.24 1.06,0.36 1.87,0.32z" class="st11"/>
   <path id="svg_25" fill="#828BB2" d="m395.1,111.15c-0.13,0.55 -0.32,0.93 -0.56,1.17c-0.49,0.52 -1.17,0.46 -1.93,0.17c-0.01,0 -0.01,0 -0.01,0c-0.22,-0.08 -0.44,-0.17 -0.66,-0.28c-10.36,2.12 -20.73,4.2 -31.07,6.38c-3.52,0.74 -5.01,1.08 -5.64,0.02c-0.47,-0.79 -0.46,-2.33 -0.47,-5.05c-0.02,-4.8 -0.07,-9.61 -0.12,-14.42c1.71,-13.05 7.99,-23.13 19.37,-29.92c0.26,0.32 0.54,0.64 0.83,0.94c2.84,3.07 6.56,5.2 9.07,8.69c5.94,8.26 8.67,17.34 8.06,27.48c-0.13,2.27 -0.58,4.93 3.11,4.82c0.01,0 0.01,0 0.02,0z" class="st12"/>
   <path id="svg_26" fill="#FEF5DF" d="m328.04,321.41c-0.07,7.68 -4.7,18.96 -13.69,28.38c-1.9,1.99 -2.67,3.95 -2.59,6.63c0.16,4.99 0.06,9.98 0.04,14.98c-0.03,5.22 -0.1,5.26 -4.79,2.54c-4.03,-2.33 -8.21,-4.45 -12.01,-7.11c-3.66,-2.57 -7.43,-3.1 -11.75,-2.74c-26.31,2.22 -48.98,-16.45 -51.87,-43.65c-2.58,-24.36 13.98,-47.51 40.07,-52.18c29.59,-5.3 56.48,17.65 56.59,53.15z" class="st2"/>
   <path id="svg_27" fill="#86DAFE" d="m457.88,420.51c0,0.46 0,0.92 -0.02,1.38c-19.08,0.29 -38.17,1.02 -57.24,0.74c-15.52,-0.22 -29.73,12.44 -29.64,29.64c0.04,7.47 0,14.94 0,23.49c-14.06,-8.86 -27.52,-17.33 -40.97,-25.8c-0.03,-0.02 -0.05,-0.03 -0.08,-0.05c-0.03,-5.87 -0.05,-11.74 -0.07,-17.61l0,-0.34c0.24,-10.09 -0.38,-20.25 3.82,-29.91c5.83,-13.41 15.45,-22.6 29.21,-27.49c0.24,-0.09 0.46,-0.16 0.68,-0.19c1.73,-0.32 2.85,1 4.01,2.03c2.06,1.81 4.21,3.49 6.5,4.98c0.24,0.16 0.48,0.31 0.72,0.46c0.07,0.05 0.15,0.1 0.23,0.15c15.94,8.11 31.28,6.25 44.95,-5.45c1.32,-1.12 2.41,-2.75 4.48,-2.44c0.05,0 0.11,0.01 0.16,0.02c11.76,4.49 20.91,12.1 27.39,22.91c0.07,0.16 0.14,0.32 0.21,0.48c3.2,7.36 5.65,14.89 5.66,23z" class="st13"/>
   <path id="svg_28" fill="#717EB2" d="m134.83,433.01c-7.23,-7.79 -16.26,-11.24 -26.78,-11.1c-1.32,-2.21 0.28,-3.8 1.25,-5.44c3.66,-6.15 5.36,-12.72 5.33,-19.93c-0.13,-26.92 -0.24,-53.85 0.03,-80.77c0.12,-11.83 -4.42,-21.21 -12.65,-29.25c-1.59,-1.55 -4.05,-2.56 -3.89,-5.4c24.13,-14.05 54.4,0.14 59,27.54c0.7,4.14 0.84,8.24 0.84,12.38c0.03,19.29 0.07,38.58 0.1,57.87c2.63,5.74 1.37,11.82 1.2,17.69c-0.41,13.75 -6.29,24.96 -17.22,33.4c-2.09,1.63 -4.35,3.11 -7.21,3.01z" class="st9"/>
   <path id="svg_29" fill="#818BB2" d="m98.12,281.13c8.32,6.86 15.31,14.63 17.35,25.72c0.3,1.61 0.55,3.27 0.55,4.9c0.03,29.39 0.01,58.78 0.03,88.17c0,5.99 -2.17,11.29 -4.94,16.42c-1.01,1.87 -2.83,3.29 -3.07,5.58c-6.93,-0.01 -13.87,-0.02 -20.8,-0.03c-5.62,-3.42 -7.45,-9.26 -8.57,-15.02c-1.8,-9.23 -1.91,-18.63 -0.01,-27.94c0.09,-21.31 0.25,-42.62 0.26,-63.92c0.02,-14.97 6.69,-26.06 19.2,-33.88z" class="st7"/>
   <path id="svg_30" fill="#717EB2" d="m424.62,374.12c-6.19,5.84 -12.63,11.22 -21.37,12.93c-10.27,2.01 -20.09,1.34 -29.21,-4.3c-0.37,-2.44 1.52,-3.51 2.98,-4.79c8.9,-7.77 13.53,-17.5 13.56,-29.35c0.02,-10.98 -0.04,-21.96 0.02,-32.94c0.06,-12.04 -4.44,-21.98 -13.52,-29.88c-1.44,-1.26 -3.48,-2.2 -3.08,-4.7c24.38,-14.79 56.61,1.67 59.05,29.71c1.3,14.94 1.43,29.89 -0.22,44.79c-0.77,6.93 -4.42,12.82 -8.21,18.53z" class="st9"/>
   <path id="svg_31" fill="#828BB2" d="m374,281.09c3.61,4.07 8.35,6.95 11.34,11.74c4.25,6.82 6.66,14.01 6.63,22.06c-0.05,10.99 -0.05,21.99 0,32.98c0.05,13.12 -4.77,23.86 -15.26,31.94c-1.03,0.79 -1.78,1.95 -2.66,2.94c-3.72,-2.73 -7.43,-5.45 -11.15,-8.18c0.44,-2.57 -1.81,-3.78 -2.89,-5.55c-4.12,-6.72 -5.74,-14.23 -5.79,-21.85c-0.07,-11.76 -0.63,-23.52 0.53,-35.31c1.34,-13.63 7.87,-23.62 19.25,-30.77z" class="st12"/>
   <path id="svg_32" fill="#FE59AB" d="m182.13,431.99l0,0.39c-0.03,5.84 -0.06,11.68 -0.09,17.52c0,0.01 0,0.01 0,0.02c-0.3,1.65 -1.6,2.41 -2.84,3.21c-11.01,6.97 -22.15,13.74 -33.08,20.83c-1.01,0.65 -2.04,1.38 -3.29,1.31c-0.26,-0.01 -0.54,-0.06 -0.83,-0.16c-1.85,-2.18 -0.84,-4.77 -0.91,-7.15c-0.19,-6.97 0.15,-13.96 -0.32,-20.9c-0.36,-5.2 -3.38,-9.6 -5.94,-14.05c0.31,-0.17 0.62,-0.34 0.93,-0.53c16.42,-9.37 23.15,-23.92 22.22,-42.64c-0.17,-3.33 0.01,-6.68 0.07,-10.02c0.01,-0.3 0.02,-0.6 0.02,-0.9c15.2,8.83 22.55,22.44 23.88,39.59c0.35,4.47 0.13,8.98 0.18,13.48z" class="st3"/>
   <path id="svg_33" fill="#FE59AB" d="m87.25,421.88c-3.2,0.43 -6.45,0.08 -9.68,0.07c-2.24,0 -4.47,0.16 -6.66,0.87c-5.59,-0.7 -11.29,0.85 -16.82,-0.91c0,-0.25 -0.01,-0.49 -0.01,-0.74c0,-8.33 2.33,-16.11 5.66,-23.65c0.07,-0.17 0.14,-0.34 0.22,-0.51c4.09,-5.93 8.25,-11.79 14.39,-15.88c1.37,-0.92 2.66,-1.91 4.33,-2.2c0,0.29 0.01,0.58 0.02,0.86c0.09,4.7 0.41,9.4 0.14,14.07c-0.58,9.83 2.08,18.58 7.4,26.57c0.33,0.48 0.67,0.97 1.01,1.45z" class="st3"/>
   <path id="svg_34" fill="#FEF5DF" d="m203,470.82c-0.86,1.37 -1.98,2.77 -3.32,3.63c-18.72,11.97 -37.49,23.84 -56.27,35.71c-0.68,0.42 -1.56,0.51 -2.35,0.75l0,-0.42c-0.01,-10.05 -0.01,-20.1 -0.03,-30.14c0,-1.81 -0.12,-3.63 0.97,-5.24c0.26,-0.16 0.51,-0.32 0.77,-0.49c13.08,-8.23 26.16,-16.46 39.25,-24.71c0.01,0 0.01,-0.01 0.02,-0.01c7.86,-3.82 14.09,-2.79 19.77,3.3c4,4.27 4.59,12.13 1.19,17.62z" class="st2"/>
   <path id="svg_35" fill="#F9BAA6" d="m391.94,112.21c1.09,-0.25 2.33,-0.04 3.16,-1.07c12.74,-2.08 25.35,-4.84 37.88,-7.94c0.28,0.58 0.81,1.16 0.79,1.73c-0.34,12.42 0.86,24.85 -0.71,37.26c-0.95,7.52 -4.47,13.76 -8.35,19.95c-6.53,6.3 -13.57,11.81 -22.84,13.27c-9.88,1.55 -19.49,1.08 -28.05,-5.02c10.97,-8.22 18.02,-18.62 18.13,-32.83c0.05,-6.79 0.01,-13.59 0.01,-20.38c-0.01,-1.65 -0.02,-3.31 -0.02,-4.97z" class="st8"/>
   <path id="svg_36" fill="#838CB3" d="m230.77,105.99c4.54,0.04 7.32,2.95 7.29,7.63c-0.03,4.66 -2.86,7.52 -7.42,7.51c-4.22,-0.01 -7.53,-3.39 -7.49,-7.64c0.04,-4.26 3.38,-7.54 7.62,-7.5z" class="st14"/>
   <path id="svg_37" fill="#828CB3" d="m215.05,113.55c0,4.57 -2.92,7.56 -7.39,7.57c-4.21,0.01 -7.53,-3.33 -7.53,-7.57c0,-4.25 3.32,-7.57 7.54,-7.56c4.47,0 7.39,2.99 7.38,7.56z" class="st15"/>
   <path id="svg_38" fill="#838CB3" d="m261.07,113.72c-0.08,4.65 -2.92,7.46 -7.49,7.4c-4.23,-0.05 -7.47,-3.46 -7.36,-7.74c0.11,-4.33 3.39,-7.49 7.69,-7.39c4.54,0.1 7.24,3.01 7.16,7.73z" class="st14"/>
   <path id="svg_39" fill="#838CB3" d="m256.33,309.03c4.18,-0.14 7.5,3.08 7.67,7.44c0.18,4.59 -2.61,7.6 -7.15,7.72c-4.52,0.12 -7.55,-2.71 -7.75,-7.24c-0.18,-4.22 3.08,-7.78 7.23,-7.92z" class="st14"/>
   <path id="svg_40" fill="#838DB3" d="m287.01,316.78c0.02,4.66 -2.77,7.45 -7.39,7.42c-4.4,-0.03 -7.58,-3.22 -7.5,-7.51c0.09,-4.35 3.38,-7.7 7.53,-7.66c4.2,0.03 7.35,3.35 7.36,7.75z" class="st16"/>
   <path id="svg_41" fill="#838DB3" d="m310.02,316.92c-0.11,4.7 -2.88,7.38 -7.53,7.27c-4.22,-0.09 -7.55,-3.58 -7.35,-7.7c0.21,-4.37 3.56,-7.61 7.71,-7.47c4.22,0.16 7.28,3.53 7.17,7.9z" class="st16"/>
  </g>
 </g>
</svg>