<svg width="512" height="512" xmlns="http://www.w3.org/2000/svg" xml:space="preserve" version="1.1">

 <g>
  <title>Layer 1</title>
  <path id="svg_1" fill="#FA4B04" d="m178.03,0.1c87.3,0 174.6,0 261.9,0c33.39,2.35 52.81,35.13 52.71,62.84c-0.46,129.21 -0.06,258.42 -0.32,387.62c-0.05,27.39 -13.02,47.18 -38.34,58.53c-4.54,2.03 -9.43,1.6 -14.05,2.81c-87.3,0 -174.6,0 -261.9,0c-20.53,-1.54 -34.95,-12.56 -45.13,-29.66c-4.92,-8.26 -7.41,-17.36 -7.4,-27.15c0.04,-132.73 0.01,-265.47 0.05,-398.2c0.01,-23.91 17.12,-47.26 39.79,-54.68c4.13,-1.35 8.52,-1.03 12.69,-2.11z" class="st0"/>
  <path id="svg_2" fill="#D34818" d="m63.02,308.91c0,-10.94 0,-21.87 -0.01,-32.81c2.14,-2.19 4.94,-1.6 7.52,-1.63c8.44,-0.09 16.89,0.57 25.31,-0.26c20.1,-1.87 28.53,-24.31 16.98,-39.57c-4.79,-6.32 -11.48,-8.72 -19.03,-9.24c-3.96,-0.27 -7.95,-0.01 -11.94,0.01c-4.3,-0.1 -8.59,0.28 -12.87,0.13c-2.11,-0.08 -4.35,0.21 -5.98,-1.65c0.01,-10.94 0.01,-21.88 0.02,-32.83c2.02,-2 4.63,-1.51 7.06,-1.56c7.62,-0.17 15.25,0.63 22.85,-0.28c7.44,-0.27 13.85,-2.69 18.96,-8.43c6.85,-7.69 7.87,-16.42 4.23,-25.52c-3.79,-9.47 -11.27,-14.51 -21.61,-14.87c-4.81,-0.17 -9.63,-0.01 -14.45,0.04c-4.09,-0.09 -8.18,0.35 -12.25,0.05c-1.83,-0.14 -4.08,0.27 -4.8,-2.31c0.01,-10.94 0.01,-21.87 0.02,-32.81c2,-2.45 4.82,-1.71 7.38,-1.83c3.14,-0.15 6.29,0.2 9.43,0.11c4.81,0.05 9.64,0.14 14.46,0.06c12.91,-0.21 22.84,-9.86 23.65,-22.94c0.79,-12.79 -8.23,-23.72 -20.99,-25.44c-0.99,-0.13 -1.98,-0.22 -2.97,-0.45c-7.93,-0.95 -15.86,-0.11 -23.79,-0.28c-2.43,-0.05 -5.02,0.43 -7.04,-1.56c3.66,-27.55 22.21,-47.01 49.7,-52.18c0.43,-0.08 0.79,-0.5 1.18,-0.76c21.33,0 42.65,0 63.98,0c-2.9,1.74 -6.3,1.71 -9.44,2.61c-23.22,6.71 -41.81,30.42 -41.73,56.37c0.38,131.45 0.35,262.9 0.03,394.34c-0.07,27.88 21.48,52.94 48.47,57.46c0.99,0.16 2.01,0.07 2.67,1.03c-21.66,0 -43.32,0 -64.97,0c-6.78,-2.45 -13.94,-3.86 -20.22,-7.71c-19.19,-11.77 -29.38,-28.71 -29.82,-51.34c-0.04,-2 0,-3.99 0,-5.99c2.38,-2.05 5.27,-1.28 7.98,-1.45c4.07,-0.25 8.16,0.59 12.2,-0.33c3.77,-0.8 7.6,-0.43 11.41,-0.52c13.07,-0.32 23.52,-11.04 23.51,-24.15c-0.01,-13.24 -10.29,-23.81 -23.45,-24.13c-3.81,-0.09 -7.64,0.29 -11.42,-0.51c-4.56,-0.98 -9.15,-0.04 -13.72,-0.33c-2.25,-0.14 -4.64,0.31 -6.51,-1.49c-0.01,-10.94 -0.01,-21.89 -0.01,-32.83c2.08,-2.28 4.87,-1.59 7.43,-1.7c3.46,-0.15 6.92,0.2 10.38,0.11c3.99,0.02 7.98,0.13 11.98,0.08c13.81,-0.17 23.74,-8.96 25.09,-22.22c1.32,-12.95 -6.63,-23.37 -20.03,-26.24c-0.65,-0.14 -1.31,-0.24 -1.97,-0.4c-8.45,-0.9 -16.9,-0.17 -25.34,-0.27c-2.57,-0.01 -5.36,0.57 -7.52,-1.58z" class="st1"/>
  <path id="svg_3" fill="#9CC5FA" d="m265.87,208.62c-4.02,3.98 -8.11,7.89 -12.04,11.96c-13.78,14.28 -13.82,35.63 0.02,49.88c8.23,8.48 16.6,16.83 25.06,25.08c14.46,14.1 35.66,14.09 50.21,0.11c3.84,-3.69 7.72,-7.33 11.58,-10.99c0.71,-0.22 1.34,-0.03 1.78,0.52c9.31,11.72 20.8,21.34 31.06,32.13c11.51,11.69 23.24,23.16 34.73,34.87c2.42,2.47 6.03,3.56 7.7,6.84c-22.78,25.72 -51.11,38.17 -85.62,35.84c-2.14,-0.14 -4.25,-0.66 -6.37,-1c-5.08,-2.32 -9.24,-5.93 -13.12,-9.8c-29.94,-29.85 -60.08,-59.52 -89.62,-89.76c-17.92,-18.35 -26.98,-40.87 -27.47,-66.67c-0.43,-22.57 5.93,-42.99 19.37,-61.17c0.98,-1.33 1.87,-2.77 3.4,-3.59c3.04,-0.58 4.17,2.11 6.06,3.52c11.42,11.59 23.09,22.94 34.43,34.6c2.74,2.83 6.93,3.9 8.84,7.63z" class="st2"/>
  <path id="svg_4" fill="#80B3FA" d="m217.07,162.97c-12.26,15.26 -19.55,32.75 -21.72,52.07c-1.43,12.71 -0.28,25.41 3.42,37.88c5.08,17.13 14.15,31.61 26.76,44.15c28.67,28.5 57.16,57.17 85.81,85.69c3.97,3.95 8.4,7.42 12.62,11.11c-15.96,-1.68 -30.01,-8.17 -42.83,-17.44c-4.83,-3.49 -9.33,-7.53 -13.57,-11.73c-27.27,-27.11 -54.35,-54.4 -81.63,-81.5c-15.77,-15.66 -26.6,-33.91 -30.27,-56.02c-4.88,-29.36 2.3,-55.63 20.66,-78.91c4.12,-5.23 8.74,-10.02 13.8,-14.37c3.56,1.03 4.4,4.72 6.76,6.95c5.91,5.6 11.6,11.43 17.3,17.25c1.33,1.34 3.29,2.44 2.89,4.87z" class="st3"/>
  <path id="svg_5" fill="#F8F5F8" d="m265.87,208.62c-4.18,-2.12 -7.75,-4.97 -11.03,-8.33c-10.88,-11.15 -21.87,-22.19 -32.82,-33.27c-6.44,-6.98 -2.62,-18.8 2.3,-23.66c6.72,-6.65 16.97,-7.63 24.56,-2.27c11.72,11.72 23.46,23.41 35.14,35.16c7.04,7.08 8.7,14.83 4.98,22.54c-3.72,7.72 -10.92,11.28 -20.69,10.24c-0.81,-0.09 -1.63,-0.27 -2.44,-0.41z" class="st4"/>
  <path id="svg_6" fill="#F8F5F8" d="m415.95,359.03c-3.57,-1.83 -6.67,-4.24 -9.48,-7.11c-11.13,-11.36 -22.34,-22.64 -33.51,-33.94c-6.1,-6.18 -3.72,-18.73 2.6,-24.72c7.01,-6.62 16.26,-7.13 24.28,-1.23c11.41,11.42 22.84,22.82 34.24,34.26c7.46,7.49 9.27,16.14 5.05,23.89c-4.43,8.12 -12.56,11.22 -23.18,8.85z" class="st4"/>
  <path id="svg_7" fill="#DCD9EB" d="m248.89,141.09c-5.39,-1.88 -10.89,-3.39 -16.47,-1.19c-10.44,4.12 -14.72,13.58 -11.24,24.27c0.31,0.94 0.57,1.9 0.85,2.85c-1.65,-1.35 -3.3,-2.7 -4.95,-4.06c-5.55,-5.69 -11.04,-11.44 -16.68,-17.04c-3.76,-3.74 -7.45,-7.51 -10.26,-12.05c0.36,-3.29 -1.19,-6.35 -0.41,-9.85c3.39,-15.12 19.51,-21.4 31.04,-11.21c9.93,8.81 19.27,18.34 28.12,28.28z" class="st5"/>
  <path id="svg_8" fill="#DCD9EB" d="m399.84,292.03c-4.77,-1.53 -9.11,-3.76 -14.72,-2.41c-11.46,2.75 -17.75,15.3 -12.45,26.91c0.2,0.44 0.2,0.96 0.29,1.45c-11.13,-10.73 -22.8,-20.95 -32.27,-33.3c-0.01,-3.76 -1.33,-7.41 -0.31,-11.27c3.91,-14.7 20.84,-19.55 32.25,-8.97c6.32,5.86 12.27,12.13 18.34,18.26c3.01,3.04 5.91,6.21 8.87,9.33z" class="st5"/>
  <path id="svg_9" fill="#FECF64" d="m63.02,393.97c7.06,0.73 14.22,-0.86 21.24,0.85c-1.21,1.64 -3.18,1.63 -4.86,2.22c-10.15,3.59 -17.24,13.48 -17.02,23.84c0.22,10.25 7.35,19.57 17.54,22.94c1.55,0.51 3.27,0.7 4.31,2.22c-7.02,1.64 -14.16,0.1 -21.21,0.83c-6.12,-0.57 -12.26,0.04 -18.41,-0.73c-13.15,-1.65 -23.09,-11.67 -23.49,-24.26c-0.45,-13.94 8.41,-24.65 22.01,-27.08c6.64,-1.19 13.28,-0.16 19.89,-0.83z" class="st6"/>
  <path id="svg_10" fill="#FECF64" d="m94.26,190.17c-7.88,1.43 -15.85,0.49 -23.77,0.77c-2.49,0.09 -4.98,0.09 -7.47,0.13c-6.94,-0.67 -13.92,0.47 -20.87,-0.93c-13.12,-2.64 -21.98,-14.24 -21.01,-27.97c0.88,-12.35 11.81,-22.63 24.5,-23.27c5.79,-0.29 11.63,0.74 17.37,-0.71c5.97,1.49 12.07,0.11 18.07,0.78c0.23,2.4 -1.91,2.38 -3.25,3.02c-15.63,7.46 -20.06,24.45 -9.72,38.11c4.35,5.75 10.37,8.47 17.63,8.67c2.86,0.07 6,-1 8.52,1.4z" class="st6"/>
  <path id="svg_11" fill="#FECF64" d="m81.07,105.08c-6.01,0.1 -12.02,0.19 -18.03,0.29c-5.99,-0.07 -11.98,-0.04 -17.96,-0.25c-12.16,-0.43 -23.13,-11.17 -23.93,-23.29c-0.88,-13.29 7.84,-25.15 20.15,-27.76c7.26,-1.54 14.6,-0.41 21.87,-1.03c8.91,0.08 17.82,0.14 26.74,0.25c1.78,0.02 3.65,-0.44 5.3,0.68c-2.21,2.19 -5.02,1.35 -7.58,1.38c-13.31,0.15 -21.83,6.84 -24.63,19.51c-2.35,10.63 3.62,21.87 14.26,27.02c1.48,0.72 3.8,0.64 3.81,3.2z" class="st6"/>
  <path id="svg_12" fill="#FECF64" d="m63,223.89c6.67,0.1 13.34,0.2 20,0.3c-0.29,2.31 -2.39,1.92 -3.8,2.47c-9.5,3.68 -15.38,10.47 -16.54,20.58c-1.14,9.94 3.13,17.7 11.29,23.38c3.72,2.59 7.92,2.99 12.32,3.13c3.68,0.12 7.64,-1.29 11.01,1.4c-5.87,1.72 -11.87,0.5 -17.81,0.78c-5.48,0.26 -10.98,0.12 -16.47,0.16c-5.31,-0.05 -10.63,-0.07 -15.94,-0.14c-14.39,-0.2 -25.97,-11.83 -25.96,-26.03c0.01,-14.34 11.5,-25.82 25.95,-25.91c5.32,-0.03 10.64,-0.08 15.95,-0.12z" class="st6"/>
  <path id="svg_13" fill="#FECF64" d="m82.03,360.86c-6.34,0.09 -12.68,0.19 -19.03,0.28c-5.31,-0.05 -10.63,-0.08 -15.94,-0.16c-14.58,-0.2 -25.95,-11.55 -25.96,-25.89c0,-14.22 11.49,-25.77 25.97,-26.04c5.31,-0.1 10.63,-0.1 15.94,-0.15c9.63,0.07 19.26,0.11 28.88,0.21c1.79,0.02 3.67,-0.44 5.31,0.75c-3.41,2.6 -7.38,1.43 -11.05,1.33c-9.38,-0.25 -15.92,4.15 -20.39,11.86c-4.72,8.14 -4.58,16.54 0.28,24.62c2.79,4.65 6.84,8.04 11.9,10.23c1.52,0.67 3.83,0.47 4.09,2.96z" class="st6"/>
  <path id="svg_14" fill="#FEDF7D" d="m97.28,275.15c-3.99,-0.05 -8.02,-0.45 -11.97,-0.08c-9.68,0.91 -18.62,-6.89 -21.87,-14.53c-4.29,-10.07 -2.94,-19.36 4.32,-27.79c4.1,-4.76 9.38,-7.11 15.25,-8.56c5.97,-0.11 11.97,-0.72 17.86,0.89c11.45,3.13 19.68,14.8 18.57,26.37c-1.25,13.13 -10.15,22.65 -22.16,23.7z" class="st7"/>
  <path id="svg_15" fill="#FEDF7D" d="m82.03,360.86c-10.49,-3.34 -17.87,-9.6 -20.47,-20.82c-3.43,-14.77 9.85,-31.56 23.67,-30.12c3.95,0.41 7.98,0 11.97,-0.04c12.73,1.27 22.88,12.89 22.4,25.65c-0.52,13.69 -10.94,24.76 -24.1,25.38c-4.47,0.2 -8.97,-0.03 -13.47,-0.05z" class="st7"/>
  <path id="svg_16" fill="#FEDF7D" d="m81.07,105.08c-7.35,-3.02 -13.58,-7.23 -17.37,-14.65c-8.09,-15.83 3.57,-36.99 22.52,-36.36c2.99,0.1 5.99,-0.06 8.98,-0.09c13.39,0.38 24.51,11.89 24.43,25.3c-0.08,13.71 -10.91,25.38 -24.09,25.81c-4.82,0.15 -9.65,0 -14.47,-0.01z" class="st7"/>
  <path id="svg_17" fill="#FEDF7D" d="m94.26,190.17c-7.72,-0.36 -15.6,0.77 -22.45,-4.61c-7.71,-6.05 -11.46,-13.89 -10.56,-23.38c0.92,-9.79 6.67,-16.74 15.43,-21.16c1.45,-0.73 3.3,-0.61 4.42,-2.06c4.49,0 8.98,-0.09 13.47,0.01c14.04,0.33 24.95,11.61 25.08,25.82c0.1,13.73 -11.34,25.16 -25.39,25.38z" class="st7"/>
  <path id="svg_18" fill="#FEDF7D" d="m84.23,446.04c-19.18,-2.13 -31.42,-24.72 -16.41,-43.09c4.08,-5 9.84,-7.67 16.44,-8.13c3.49,-0.02 6.98,-0.12 10.46,-0.04c13.88,0.35 24.58,11.34 24.8,25.37c0.21,13.98 -10.8,25.49 -24.83,25.88c-3.49,0.1 -6.97,0.01 -10.46,0.01z" class="st7"/>
 </g>
</svg>