<svg width="512" height="512" xmlns="http://www.w3.org/2000/svg" xml:space="preserve" version="1.1">

 <g>
  <title>Layer 1</title>
  <g id="svg_1">
   <path id="svg_2" fill="#FEFEFE" d="m503.95,438.53c0,2.41 -0.1,4.37 -2.71,5.81c-13.9,7.68 -27.7,15.57 -41.53,23.4c-22.98,13.17 -45.98,26.29 -68.9,39.54c-3.97,2.3 -7.97,3.99 -12.62,3.79l0,0.83c-0.22,-0.3 -0.29,-0.59 -0.2,-0.87c0.01,-0.04 0.02,-0.07 0.04,-0.11c0.05,-0.12 0.13,-0.24 0.24,-0.35c14.47,-3.59 26.02,-12.94 38.75,-19.9c14.16,-7.73 27.93,-16.18 42.12,-23.92c0.19,-0.11 0.39,-0.21 0.58,-0.31c0.06,-0.04 0.11,-0.07 0.17,-0.1c12.63,-7.38 25.33,-14.62 38.06,-21.81c3.34,-1.88 4.65,-4.21 4.64,-7.97c-0.07,-44.59 -0.07,-89.19 -0.01,-133.79c0.01,-7.3 -3.3,-12.22 -9.43,-15.77c-27.62,-15.96 -55.22,-31.96 -82.88,-47.87c-8.93,-5.14 -17.74,-10.47 -26.74,-15.49c-1.53,-0.86 -2.98,-1.82 -3.88,-3.39c-0.04,-0.04 -0.06,-0.08 -0.08,-0.13c-0.02,-0.03 -0.04,-0.06 -0.06,-0.1c-1.01,-2.56 -0.71,-5.25 -0.71,-7.89c-0.02,-41.92 -0.24,-83.85 0.13,-125.76c0.1,-11.28 -3.89,-18.63 -13.81,-24.18c-34.06,-19.07 -67.71,-38.87 -101.57,-58.3c-1.59,-0.92 -3.95,-1.21 -4.1,-3.78c36.82,21.14 73.63,42.31 110.49,63.39c6.71,3.84 10.09,9.57 10.1,17.12c0.04,46.45 -0.04,92.89 -0.08,139.33c18.92,10.96 37.82,21.95 56.75,32.89c19.79,11.44 39.66,22.74 59.38,34.32c5.15,3.02 7.86,7.87 7.86,14.1c-0.03,45.76 -0.02,91.52 0,137.27z" class="st0"/>
   <path id="svg_3" fill="#FEFEFE" d="m250.47,0.11c-0.1,3.01 -2.89,3.44 -4.7,4.49c-24.89,14.41 -49.77,28.81 -74.71,43.11c-9.67,5.54 -19.2,11.31 -28.95,16.68c-5.07,2.79 -8.42,6.94 -9.62,12.7c-0.67,2.46 -0.38,4.98 -0.38,7.46c-0.02,42.64 -0.11,85.28 0.09,127.92c0.01,1.65 -0.13,3.12 -0.44,4.45c-0.09,0.42 -0.21,0.82 -0.34,1.21l0,0.01c-1,2.94 -3.02,5.16 -6.48,7.1c-33.51,18.81 -66.76,38.05 -100.2,56.97c-1.02,0.57 -1.99,1.24 -3.04,1.72c-9.97,4.54 -13.59,12.05 -13.46,23.16c0.49,41.97 0.34,83.94 0.05,125.92c-0.05,6.55 2.06,10.29 7.78,13.35c11.57,6.19 22.95,12.78 34.3,19.39c0.13,0.1 0.26,0.19 0.39,0.28c0.18,0.14 0.36,0.27 0.54,0.4c9.05,6.6 19.17,11.48 28.78,17.19c7.58,4.49 15.36,8.67 22.9,13.24c0.09,0.06 0.19,0.11 0.28,0.17c0.25,0.14 0.5,0.29 0.75,0.43c6.36,3.65 12.74,7.28 19.09,10.97c1.41,0.82 3.68,1.01 3.64,3.47c-7.95,-4.67 -15.91,-9.34 -23.86,-14.01c-16.77,-9.57 -33.54,-19.15 -50.32,-28.69c-0.93,-0.53 -1.55,-1.18 -1.81,-2.2c-10.17,-4.53 -19.44,-10.71 -29.18,-16.03c-2.91,-1.59 -5.57,-3.81 -8.63,-4.91c-5.15,-1.86 -6.11,-5.26 -6.09,-10.34c0.19,-44.46 0.17,-88.91 0.05,-133.37c-0.02,-7.81 3.15,-13.41 9.77,-17.18c27.39,-15.59 54.8,-31.14 82.2,-46.72c9.52,-5.42 18.96,-10.98 28.56,-16.23c3.1,-1.7 3.31,-4.11 3.31,-7.08c-0.05,-44.29 -0.04,-88.58 0,-132.88c0,-2.08 -0.71,-4.35 0.88,-6.24c1.07,-6.31 5.26,-10.09 10.49,-13.09c35.64,-20.51 71.27,-41.04 106.9,-61.57c0.54,-0.32 0.98,-0.83 1.46,-1.25z" class="st0"/>
   <path id="svg_4" fill="#B3B3B4" d="m380.04,80.62c0.04,46.45 -0.04,92.89 -0.08,139.33c-0.1,0.1 -0.2,0.2 -0.31,0.3c-5.42,5.27 -12.55,7.83 -18.85,11.69c-6.61,4.04 -13.4,7.81 -20.18,11.56c-1.56,0.87 -3.22,2.7 -5.18,1.53c-0.02,0 -0.03,-0.01 -0.05,-0.03c-0.28,-0.17 -0.57,-0.4 -0.86,-0.71c-1.15,-3.57 -0.6,-7.25 -0.63,-10.87c-0.07,-10.95 -0.01,-21.9 -0.03,-32.85c-0.03,-11.21 -3.81,-16.84 -14.49,-20.43c-10.99,-3.7 -22.09,-7.05 -33.07,-10.77c-1.56,-0.53 -3.22,-0.82 -4.6,-1.82c-0.1,-0.16 -0.18,-0.31 -0.24,-0.45l0,-0.02c-0.79,-1.8 1.06,-2.55 1.99,-3.52c2.43,-2.5 4.8,-5.1 7.43,-7.37c5.88,-5.08 7.77,-11.71 8.15,-19.13c0.37,-7.19 -0.74,-14.26 -1.35,-21.38c0.02,-0.55 0.04,-1.1 0.05,-1.65l0,-0.01c0.03,-0.56 0.05,-1.13 0.06,-1.69c0,-0.01 0,-0.01 0,-0.01c0.36,-11.94 0.22,-23.89 -0.05,-35.82c-0.13,-5.76 -3.44,-9.85 -8.5,-12.5c-1.75,-0.93 -3.71,-1.4 -5.45,-2.36c-0.5,-0.38 -1.04,-0.64 -1.59,-0.8c-1,-0.31 -2.06,-0.34 -3.14,-0.34c-16.02,-0.02 -32.05,-0.03 -48.07,0c-0.98,0.01 -1.94,0.06 -2.84,0.32c-0.65,0.19 -1.27,0.49 -1.84,0.94c-2.31,1.28 -4.9,2.05 -7.04,3.68c-3.48,2.63 -5.94,6.06 -6.06,10.43c-0.31,11.82 -0.52,23.65 -0.04,35.48l0,0.01c0.02,0.56 0.04,1.14 0.08,1.7c0,0 0,0 0,0.01c0.02,0.54 0.04,1.08 0.07,1.62c-0.46,6.59 -1.63,13.1 -1.54,19.79c0.14,9.08 2.23,17.02 9.55,23.02c2.29,1.88 4.28,4.16 6.37,6.28c0.9,0.91 2.39,1.67 1.8,3.32c0,0 0,0.01 -0.01,0.02c-0.03,0.11 -0.08,0.22 -0.14,0.34c-2.58,1.99 -5.72,2.59 -8.72,3.46c-10.36,2.99 -20.52,6.58 -30.71,10.08c-9.08,3.11 -12.76,8.31 -12.84,17.9c-0.11,13.11 0.01,26.23 -0.07,39.35c-0.01,2.27 0.49,4.74 -1.21,6.69l-0.06,0.06c-0.09,0.1 -0.18,0.2 -0.28,0.29c-2.14,0.36 -3.85,-0.73 -5.58,-1.71c-11.12,-6.29 -22.11,-12.82 -33.32,-18.97c-2.98,-1.64 -4.57,-3.6 -5.15,-6.47l0,-0.01c-0.2,-0.92 -0.28,-1.93 -0.28,-3.06c0.18,-44.71 0.1,-89.42 0.12,-134.13c0,-1.64 -0.34,-3.33 0.36,-4.92c1.07,-6.31 5.26,-10.09 10.49,-13.09c35.64,-20.51 71.27,-41.04 106.9,-61.57c0.54,-0.32 0.98,-0.83 1.46,-1.25l8.98,0c36.82,21.14 73.63,42.31 110.49,63.39c6.71,3.84 10.09,9.57 10.1,17.12z" class="st1"/>
   <path id="svg_5" fill="#FEFEFE" d="m378.19,511.07l0,0.83c-0.22,-0.3 -0.29,-0.59 -0.2,-0.87c-2.22,-0.4 -4.35,-1.07 -6.33,-2.22c-23.25,-13.39 -46.5,-26.77 -69.75,-40.18c-0.85,-0.49 -1.59,-1.18 -2.38,-1.78c-6.8,-2.2 -12.38,-6.71 -18.63,-9.96c-8.61,-4.48 -16.57,-10.13 -25.49,-14.04c-12.54,7.08 -25.08,14.16 -37.62,21.24c-2.01,1.14 -3.89,2.56 -6.29,2.83c-10.01,7.18 -21.1,12.54 -31.66,18.81c-14.95,8.88 -30.07,17.46 -45.12,26.17c-0.25,-2.27 1.74,-2.58 3.06,-3.33c24.55,-14.08 49,-28.33 73.53,-42.43c0.06,-0.03 0.13,-0.07 0.19,-0.1c0.31,-0.16 0.61,-0.33 0.92,-0.48l0,-0.01l0.01,0c12.87,-6.83 25.25,-14.52 38.01,-21.55c1.41,-0.77 2.72,-1.75 4.34,-2c0.2,-0.03 0.41,-0.05 0.62,-0.06l0.01,0c6.99,1.84 12.54,6.45 18.77,9.76c8.55,4.53 16.67,9.84 25.35,14.15c0.05,0.03 0.11,0.05 0.16,0.08c0.11,0.07 0.23,0.13 0.34,0.2c22.93,13.17 45.84,26.36 68.7,39.63c3.08,1.78 6.64,2.68 9.3,5.16c0.05,0.05 0.11,0.1 0.16,0.15z" class="st0"/>
   <path id="svg_6" fill="#E47E73" d="m212.96,462.82c-0.01,0.96 -0.15,1.89 -0.53,2.73l-0.01,0l0,0.01c-0.22,0.49 -0.52,0.94 -0.92,1.36c-10.01,7.18 -21.1,12.54 -31.66,18.81c-14.95,8.88 -30.07,17.46 -45.12,26.17l-7.98,0c-7.95,-4.67 -15.91,-9.34 -23.86,-14.01c0.04,-0.34 0.07,-0.69 0.1,-1.03c0.97,-10.07 0.26,-20.17 0.42,-30.25c0.33,-18.95 -2.1,-13.24 11.29,-27.06c4.95,-5.11 10.31,-9.83 14.82,-15.35c0.2,-0.19 0.4,-0.39 0.6,-0.59c0.04,-0.02 0.07,-0.05 0.1,-0.09c7.75,-7.5 14.38,-16.05 22.26,-23.43c0.04,-0.04 0.08,-0.08 0.12,-0.11c0.21,-0.21 0.43,-0.41 0.65,-0.61c6.32,1.79 12.1,4.94 18.51,6.62c9.77,2.55 19.58,5.05 29.03,8.7c0.21,0.08 0.42,0.16 0.63,0.25c0.38,0.14 0.77,0.3 1.15,0.45c7.25,4.11 9.85,10.87 10.26,18.67c0.5,9.58 0.2,19.17 0.14,28.76z" class="st2"/>
   <path id="svg_7" fill="#E8E8E8" d="m503.95,438.53c0,2.41 -0.1,4.37 -2.71,5.81c-13.9,7.68 -27.7,15.57 -41.53,23.4c-0.23,-0.32 -0.42,-0.65 -0.57,-0.99c-0.81,-1.82 -0.51,-3.83 -0.52,-5.76c-0.05,-12.63 0.01,-25.26 -0.03,-37.89c-0.03,-11.17 -3.81,-16.48 -14.26,-20.04c-10.52,-3.58 -21.09,-7.03 -31.61,-10.62c-2.12,-0.72 -4.44,-1.14 -5.86,-3.17c-0.04,-0.05 -0.07,-0.09 -0.1,-0.14c-0.03,-0.09 -0.06,-0.18 -0.08,-0.27c-0.57,-2.12 0.82,-3.59 1.88,-5.14c2.81,-4.12 5.35,-8.43 8.36,-12.4c4.31,-5.69 6.18,-11.86 5.87,-19.05c-0.38,-8.58 -0.11,-17.19 -0.11,-25.79l0,-0.15c-0.01,-0.32 -0.01,-0.64 -0.02,-0.96c-0.22,-11.83 -0.01,-23.65 -0.11,-35.48c-0.05,-5.88 -0.43,-6.33 -6.17,-6.34c-20.1,-0.04 -40.2,-0.14 -60.29,0.03c-12.64,0.11 -18.97,6.55 -19.24,19.14c-0.16,7.57 0.1,15.13 -0.12,22.69l0,0.01c0,0.25 -0.01,0.5 -0.02,0.75l0,0.23c-0.04,9.03 0.11,18.07 -0.08,27.1c-0.13,5.71 1.38,10.74 4.59,15.4c3.48,5.04 6.78,10.2 10.21,15.28c0.99,1.48 2.34,2.84 2.08,4.86l0,0.03c-0.03,0.06 -0.07,0.11 -0.11,0.17c-1.32,2.12 -3.67,2.52 -5.79,3.21c-10.12,3.3 -20.31,6.38 -30.37,9.86c-12.73,4.39 -16.32,9.25 -16.44,22.85c-0.09,11.66 0.01,23.32 -0.04,34.99c-0.01,2.01 0.35,4.13 -0.73,5.98c-0.14,0.25 -0.3,0.49 -0.5,0.72c-6.8,-2.2 -12.38,-6.71 -18.63,-9.96c-8.61,-4.48 -16.57,-10.13 -25.49,-14.04c-0.25,-0.27 -0.46,-0.56 -0.63,-0.85c-1.06,-1.75 -0.91,-3.8 -0.92,-5.77c-0.03,-46.21 -0.03,-92.42 0,-138.63c0,-2.16 0,-4.33 0.92,-6.35c0.4,-0.55 0.84,-1.06 1.3,-1.54c0.05,-0.06 0.11,-0.11 0.17,-0.17c0.02,-0.02 0.04,-0.04 0.06,-0.05c0.14,-0.15 0.29,-0.29 0.44,-0.43c3.09,-2.8 7.1,-4.27 10.66,-6.3c20.99,-11.96 41.98,-23.93 62.93,-35.94c1.58,-0.9 3.07,-2.03 5.05,-1.76c0.02,-0.01 0.03,-0.02 0.05,-0.03c13.64,-7.82 27.28,-15.65 40.93,-23.45c1.02,-0.58 2.12,-0.99 3.2,-1.46c0.13,-0.06 0.26,-0.11 0.39,-0.17c18.92,10.96 37.82,21.95 56.75,32.89c19.79,11.44 39.66,22.74 59.38,34.32c5.15,3.02 7.86,7.87 7.86,14.1c-0.03,45.76 -0.02,91.52 0,137.27z" class="st3"/>
   <path id="svg_8" fill="#5DA264" d="m459.92,423.28c-0.04,14.39 -0.13,28.77 -0.2,43.16c-0.01,0.43 -0.01,0.87 -0.01,1.3c-22.98,13.17 -45.98,26.29 -68.9,39.54c-3.97,2.3 -7.97,3.99 -12.62,3.79c-0.07,-0.01 -0.13,-0.02 -0.2,-0.04c-2.22,-0.4 -4.35,-1.07 -6.33,-2.22c-23.25,-13.39 -46.5,-26.77 -69.75,-40.18c-0.85,-0.49 -1.59,-1.18 -2.38,-1.78l0,-1c0.05,-13.95 0.11,-27.89 0.15,-41.84c0.04,-13.48 3.86,-18.75 16.72,-22.96c12.27,-4.02 24.54,-8.03 36.8,-12.05c0.11,0.01 0.21,0.02 0.31,0.04c1.46,0.24 2.44,1.27 3.37,2.29c12.21,13.46 34.89,13.56 46.9,-0.87c0.74,-0.9 1.57,-1.86 2.9,-1.6c0.14,0.03 0.29,0.07 0.44,0.13c12.27,4.1 24.54,8.21 36.81,12.3c12.05,4.02 16.02,9.43 15.99,21.99z" class="st4"/>
   <path id="svg_9" fill="#D5D6D7" d="m255.47,296.81c-0.03,48.38 -0.04,96.75 -0.06,145.13l0,0.91c-12.54,7.08 -25.08,14.16 -37.62,21.24c-2.01,1.14 -3.89,2.56 -6.29,2.83l0,-0.88c-0.04,-10.46 -0.04,-20.91 -0.14,-31.37c-0.07,-7.94 -2.94,-14.46 -9.89,-18.79c-0.27,-0.38 -0.5,-0.78 -0.69,-1.19c-1.15,-2.34 -1.18,-4.99 -1.32,-7.45c-0.64,-11.45 -1.34,-22.91 -2.35,-34.33c-1.46,-16.54 -0.63,-33.35 -4.71,-49.58c-9.43,-37.46 -52.81,-57.75 -87.65,-41.24c-24.73,11.72 -36.49,31.54 -37.62,58.7c-0.7,16.93 -2.14,33.84 -3.49,50.74c-0.52,6.46 -1.06,12.93 -1.35,19.41c-0.08,1.64 0.03,3.31 -0.36,4.91c-0.07,0.27 -0.15,0.53 -0.25,0.79c-0.08,0.23 -0.17,0.45 -0.28,0.67c-8.26,6.15 -9.7,14.74 -9.11,24.31c0.39,6.44 0.13,12.92 0.04,19.37c-0.03,1.87 0.25,3.88 -1.03,5.44c-0.15,0.2 -0.34,0.39 -0.55,0.57c-10.17,-4.53 -19.44,-10.71 -29.18,-16.03c-2.91,-1.59 -5.57,-3.81 -8.63,-4.91c-5.15,-1.86 -6.11,-5.26 -6.09,-10.34c0.19,-44.46 0.17,-88.91 0.05,-133.37c-0.02,-7.81 3.15,-13.41 9.77,-17.18c27.39,-15.59 54.8,-31.14 82.2,-46.72c9.52,-5.42 18.96,-10.98 28.56,-16.23c3.1,-1.7 3.31,-4.11 3.31,-7.08c-0.05,-44.29 -0.04,-88.58 0,-132.88c0,-2.08 -0.71,-4.35 0.88,-6.24c0.03,46.3 0.09,92.6 0.02,138.9c0,0.71 0.03,1.38 0.12,2c0.29,2.27 1.24,3.96 3.65,5.3c13.49,7.49 26.87,15.15 40.29,22.75c0.04,-0.01 0.07,-0.02 0.11,-0.03c2.56,-0.65 4.31,1.11 6.24,2.21c22.49,12.87 45.12,25.51 67.6,38.41c1.01,0.58 2.11,0.97 3.18,1.41c0.17,0.08 0.35,0.16 0.52,0.24c0.12,0.06 0.24,0.11 0.35,0.17c0.88,0.42 1.71,0.92 2.35,1.69c0.08,0.09 0.15,0.18 0.22,0.28c0.01,0.05 0.03,0.09 0.04,0.14c0.04,0.12 0.08,0.25 0.12,0.37c0,0 0,0 0,0.01c0.01,0.03 0.02,0.05 0.03,0.08c0,0.03 0.01,0.05 0.02,0.08c-1.38,2.1 -1.01,4.47 -1.01,6.78z" class="st5"/>
   <path id="svg_10" fill="#D2756E" d="m130.71,424.21c-0.14,2.08 -1.86,3.06 -3.11,4.32c-6.41,6.49 -12.76,13.05 -19.38,19.33c-2.65,2.52 -3.57,5.15 -3.51,8.75c0.19,12.28 0.1,24.57 0.04,36.86c-0.01,1.35 0.6,3.1 -0.74,3.99c-0.28,0.18 -0.65,0.33 -1.13,0.43c-16.77,-9.57 -33.54,-19.15 -50.32,-28.69c-0.93,-0.53 -1.55,-1.18 -1.81,-2.2c0,-0.32 0,-0.65 0.01,-0.97c0.08,-10.17 0.31,-20.32 0.15,-30.48c-0.13,-8.2 2.56,-14.62 9.94,-18.67c0.34,-0.38 0.71,-0.73 1.08,-1.03c2.88,-2.4 6.62,-2.94 10.08,-3.92c8.94,-2.54 17.78,-5.43 26.73,-7.92c3.11,-0.86 5.26,-3.5 8.34,-4.38c0.18,0.17 0.37,0.34 0.55,0.51l0.09,0.09c7.89,7.38 16.15,14.41 22.49,23.29c0.18,0.23 0.34,0.46 0.5,0.69z" class="st6"/>
   <path id="svg_11" fill="#3A6288" d="m253.41,287.95c-2.03,0.49 -3.47,-0.84 -5.02,-1.73c-24.23,-13.74 -48.46,-27.5 -72.69,-41.26c-0.03,-15.95 -0.12,-31.9 -0.07,-47.85c0.02,-7.09 3.08,-13.07 9.57,-15.65c14.42,-5.74 29.16,-10.7 44.29,-14.36c1.82,0.22 2.86,1.61 4.02,2.77c6.25,6.21 12.48,12.44 18.67,18.71c1.62,1.64 3.5,3.21 2.96,5.96c-2.65,4.95 -7.34,8.06 -10.98,12.11c-1.89,2.1 -4.02,3.96 -5.95,6.03c-4.93,5.3 -6.7,11.35 -4.16,18.36c5.72,15.78 11.92,31.38 17.79,47.1c1.14,3.07 3.71,6.12 1.57,9.81z" class="st7"/>
   <path id="svg_12" fill="#EECBBE" d="m254.77,194.04c0.05,-2.16 -1.73,-3.1 -2.96,-4.35c-7.41,-7.56 -14.87,-15.06 -22.32,-22.59c-4.36,-4.25 -8.71,-8.5 -13.08,-12.74c-4.21,-4.07 -5.4,-9.45 -5.68,-14.87c-0.43,-8.21 -0.58,-16.48 1.73,-24.53c0.37,-7.17 6.92,-13.16 15.4,-14.08c6.69,-0.73 12.78,0.68 18.47,4.46c11.44,7.6 7.62,7.01 19.59,0.34c6.68,-3.72 13.39,-5.74 20.94,-3.49c6.65,1.98 11.3,7.46 11.64,13.74c2.49,9.9 2.5,19.88 0.74,29.88c-0.59,3.31 -2.34,6.16 -4.72,8.53c-4.31,4.3 -8.7,8.51 -13.06,12.76c0.41,2.63 -1.78,3.74 -3.19,5.2c-7.1,7.37 -14.59,14.36 -21.51,21.91c-0.71,0.36 -1.38,0.38 -1.99,-0.17z" class="st8"/>
   <path id="svg_13" fill="#3A6288" d="m256.16,194.04c-0.05,-2.16 1.74,-3.1 2.97,-4.35c7.41,-7.56 14.88,-15.06 22.32,-22.59c1.7,-0.28 3.25,0.28 4.84,0.8c11.33,3.71 22.69,7.33 34,11.08c10.54,3.5 15,9.73 15.03,20.72c0.03,15.12 0.05,30.23 0.07,45.35c-20.08,11.58 -40.13,23.18 -60.24,34.71c-6.16,3.53 -12.45,6.84 -18.67,10.26c0,0 0.02,-0.04 0.02,-0.04c-1.55,-2.39 -0.05,-4.54 0.72,-6.6c5.49,-14.79 11.08,-29.55 16.77,-44.27c1.02,-2.64 1.91,-5.32 2.86,-7.97c2.59,-7.22 0.77,-13.39 -4.41,-18.74c-4.39,-4.53 -8.93,-8.91 -13.33,-13.43c-1.35,-1.39 -3.14,-2.59 -2.95,-4.93z" class="st7"/>
   <path id="svg_14" fill="#704D4D" d="m298.49,115.93c-3.99,-11.76 -15.67,-16.73 -27.33,-11.51c-2.87,1.28 -5.84,2.65 -8.22,4.63c-5.29,4.41 -9.78,3.54 -14.74,-0.65c-5.02,-4.24 -10.79,-7.02 -17.74,-6.65c-8.58,0.45 -14.85,4.9 -18.01,13.22c-1.9,-1.34 -1.05,-3.34 -1.07,-5.03c-0.08,-9.6 -0.05,-19.2 -0.04,-28.8c0.02,-11.75 3.15,-16.21 14.27,-20.31c1.39,-0.61 2.86,-0.73 4.36,-0.73c16.86,-0.01 33.71,-0.01 50.57,0.01c1.32,0 2.66,-0.02 3.84,0.74c10.54,2.53 15.15,8.27 15.19,19.05c0.05,10.49 0.04,20.97 -0.02,31.46c-0.01,1.55 0.69,3.38 -1.06,4.57z" class="st9"/>
   <path id="svg_15" fill="#C7BBB8" d="m284.37,60.84c-19.59,0 -39.18,-0.01 -58.77,-0.01c1.11,-1.99 3.02,-1.74 4.84,-1.74c16.62,0 33.24,-0.01 49.86,0.03c1.54,-0.01 3.51,-0.71 4.07,1.72z" class="st10"/>
   <path id="svg_16" fill="#704D4D" d="m107.71,400.06c-5.42,5.42 -12.85,6.28 -19.62,8.52c-9.01,2.98 -18.15,5.56 -27.24,8.31c1.17,-18.58 2.19,-37.17 3.57,-55.73c0.89,-11.92 0.64,-23.98 3.18,-35.72c6.46,-29.86 32.79,-50.55 63.85,-50.44c30.4,0.11 56.9,21.48 63.17,50.92c1.78,8.34 1.82,16.84 2.43,25.29c1.56,21.55 2.96,43.12 4.43,64.67c-13,-3.74 -25.99,-7.54 -39.02,-11.17c-3.54,-0.99 -5.9,-4.32 -9.74,-4.57c-3.46,-0.55 -4.38,-3.51 -5,-6.11c-2.09,-8.69 -3.28,-17.65 1.83,-25.61c7.52,-11.73 6.5,-24.59 5.2,-37.23c-1.34,-13.07 -13.42,-21.79 -26.72,-20.73c-12.81,1.02 -22.63,11.58 -22.83,24.58c-0.05,3.32 0.19,6.66 -0.05,9.97c-0.63,8.57 1.19,16.47 5.6,23.86c5,8.37 4.18,17.2 1.53,26.03c-0.69,2.25 -1.35,4.96 -4.57,5.16z" class="st9"/>
   <path id="svg_17" fill="#EECBBE" d="m107.71,400.06c6.57,-9.06 7.62,-19.63 2.53,-28.67c-7.32,-13 -7.36,-26.43 -6.24,-40.16c1.07,-13.16 13.51,-22.68 27.5,-22.22c13.37,0.44 24.51,11.08 25.13,24.34c0.31,6.65 0.23,13.32 0.04,19.98c-0.18,6.59 -4.6,11.66 -6.69,17.55c-3.56,10.04 -4.22,20.08 2.73,29.26c-2.69,5.24 -7.39,8.81 -11.11,13.18c-3.31,3.9 -7.24,7.27 -10.9,10.88c-7,-6.96 -14,-13.91 -21,-20.87c-0.92,-0.92 -1.94,-1.81 -1.99,-3.27z" class="st8"/>
   <path id="svg_18" fill="#F68A7C" d="m170.66,450.93c-0.17,0 -0.33,0 -0.5,0c-13.82,0 -13.76,0.01 -12.54,-13.84c0.21,-2.33 1.03,-3.2 3.31,-3.18c6.79,0.07 13.58,0.07 20.37,0c2.26,-0.02 3.47,0.76 3.29,3.15c-0.01,0.16 0,0.33 0.01,0.5c0.81,13.37 0.81,13.37 -13.94,13.37z" class="st11"/>
   <path id="svg_19" fill="#EECBBE" d="m407.12,388.99c-5.63,6.28 -11.95,11.44 -20.59,12.97c-13.74,2.43 -24.73,-2.16 -33.32,-12.96c-4.73,-6.96 -9.52,-13.89 -14.18,-20.9c-2.52,-3.79 -3.88,-7.93 -3.77,-12.62c0.22,-9.61 0.18,-19.22 0.25,-28.84c1.12,-1.75 2.98,-1.92 4.77,-2.27c11.71,-2.27 23.4,-4.64 35.09,-6.99c3.14,-0.63 6.19,-0.72 9.35,-0.08c11.04,2.25 22.09,4.41 33.13,6.66c2.22,0.45 4.7,0.49 6.13,2.77c0.04,10.63 0.13,21.25 0.11,31.88c-0.01,3.41 -1.34,6.39 -3.23,9.23c-4.67,7.01 -9.18,14.1 -13.74,21.15z" class="st8"/>
   <path id="svg_20" fill="#704D4D" d="m423.96,326.74c-13.91,-2.84 -27.82,-5.72 -41.75,-8.48c-1.57,-0.31 -3.31,-0.16 -4.9,0.14c-13.95,2.7 -27.88,5.48 -41.81,8.24c-0.04,-8.81 -0.24,-17.61 -0.08,-26.42c0.18,-9.97 7.16,-17.74 17.08,-17.91c22.89,-0.37 45.78,-0.11 68.67,-0.2c2.48,-0.01 3.09,0.99 3.07,3.26c-0.15,13.79 -0.2,27.58 -0.28,41.37z" class="st9"/>
   <path id="svg_21" fill="#538457" d="m419.58,424.93c14.35,0 14.27,0 13.57,14.36c-0.14,2.86 -1.16,3.72 -3.87,3.67c-6.3,-0.13 -12.6,-0.1 -18.91,-0.02c-2.89,0.04 -4.09,-1.08 -4.27,-4.08c-0.87,-13.94 -0.94,-13.93 13.48,-13.93z" class="st12"/>
   <path id="svg_22" fill="#538457" d="m380.47,424.93c10.04,0.16 8.6,-1.37 8.67,8.7c0.07,10.25 0.83,9.33 -9.43,9.27c-9.8,-0.06 -8.37,1.3 -8.51,-8.36c0,-0.17 0,-0.33 0,-0.5c0,-9.11 0,-9.11 9.27,-9.11z" class="st12"/>
   <path id="svg_23" fill="#538457" d="m380.09,477.92c-8.89,0 -8.89,0 -8.89,-8.99c0,-8.99 0,-8.99 8.89,-8.99c9.87,0 9.06,-0.8 9.06,9.17c0.01,8.81 0.01,8.81 -9.06,8.81z" class="st12"/>
   <path id="svg_24" fill="#ECD8BD" d="m256.16,194.04c6.09,6.11 12.31,12.09 18.22,18.37c5.57,5.92 6.22,12.82 3.34,20.33c-6.7,17.48 -13.28,35 -19.87,52.52c-0.57,1.53 -0.91,3.15 -1.35,4.72c-1.03,-0.68 -2.06,-1.36 -3.09,-2.03c-0.21,-4.95 -2.79,-9.15 -4.44,-13.62c-5.07,-13.72 -10.25,-27.39 -15.59,-41c-3.43,-8.75 -2,-16.18 4.8,-22.72c5.63,-5.42 11.07,-11.04 16.6,-16.56c0.45,-0.01 0.92,-0.01 1.38,-0.01z" class="st13"/>
   <path id="svg_25" fill="#4281B6" d="m317.35,211.1c0,8.92 0,8.92 -8.46,8.92c-8.57,0 -8.63,0 -8.55,-8.81c0.09,-10.48 -1.43,-9.07 8.2,-9.15c8.81,-0.08 8.81,-0.02 8.81,9.04z" class="st14"/>
  </g>
 </g>
</svg>