<svg id="svg" version="1.1" xmlns="http://www.w3.org/2000/svg" xmlns:xlink="http://www.w3.org/1999/xlink" width="400" height="400" viewBox="0, 0, 400,400"><g id="svgg"><path id="path0" d="M285.156 61.586 C 244.785 64.363,220.497 86.448,214.560 125.781 C 214.054 129.135,213.912 134.887,213.779 157.321 L 213.616 184.760 187.765 184.861 L 161.914 184.961 161.814 214.743 L 161.714 244.526 187.595 244.626 L 213.477 244.727 213.575 321.582 L 213.674 398.437 244.531 398.437 L 275.389 398.437 275.487 321.582 L 275.586 244.727 301.347 244.531 L 327.108 244.336 330.920 214.844 C 333.017 198.623,334.740 185.220,334.749 185.059 C 334.758 184.897,321.394 184.766,305.051 184.766 L 275.336 184.766 275.502 161.426 C 275.705 132.838,276.174 130.192,282.068 124.330 C 288.178 118.253,293.699 117.205,319.629 117.194 L 336.719 117.188 336.719 90.483 L 336.719 63.779 334.566 63.526 C 323.261 62.198,293.342 61.022,285.156 61.586 " stroke="none" fill="#fbfbfb" fill-rule="evenodd"></path><path id="path1" d="M18.555 1.626 C 10.543 3.132,3.059 10.761,1.589 18.919 C 1.001 22.187,1.001 377.813,1.589 381.081 C 3.091 389.419,10.581 396.909,18.919 398.411 C 20.523 398.699,50.828 398.828,117.259 398.828 L 213.281 398.828 213.281 321.875 L 213.281 244.922 187.500 244.922 L 161.719 244.922 161.719 214.844 L 161.719 184.766 187.500 184.766 L 213.281 184.766 213.285 162.598 C 213.289 138.759,213.639 129.906,214.862 122.727 C 220.538 89.406,240.901 68.634,273.828 62.579 C 283.681 60.767,323.094 61.348,335.840 63.494 L 337.109 63.707 337.109 90.643 L 337.109 117.578 318.457 117.580 C 292.828 117.582,288.067 118.497,282.042 124.578 C 276.393 130.280,276.031 132.422,275.873 161.033 L 275.742 184.761 305.359 184.861 L 334.975 184.961 331.784 209.766 C 330.028 223.408,328.290 236.899,327.921 239.746 L 327.250 244.922 301.516 244.922 L 275.781 244.922 275.781 321.875 L 275.781 398.828 327.272 398.828 C 362.104 398.828,379.513 398.693,381.081 398.411 C 389.419 396.909,396.909 389.419,398.411 381.081 C 398.999 377.813,398.999 22.187,398.411 18.919 C 396.909 10.581,389.419 3.091,381.081 1.589 C 378.070 1.047,21.444 1.083,18.555 1.626 " stroke="none" fill="#3c5c9b" fill-rule="evenodd"></path><path id="path2" d="M304.980 61.604 C 305.464 61.697,306.255 61.697,306.738 61.604 C 307.222 61.511,306.826 61.435,305.859 61.435 C 304.893 61.435,304.497 61.511,304.980 61.604 M313.405 117.480 C 317.877 117.543,325.084 117.543,329.421 117.480 C 333.757 117.417,330.098 117.366,321.289 117.366 C 312.480 117.366,308.933 117.417,313.405 117.480 M213.465 161.328 C 213.465 174.326,213.514 179.644,213.574 173.145 C 213.634 166.646,213.634 156.011,213.574 149.512 C 213.514 143.013,213.465 148.330,213.465 161.328 M275.573 164.063 C 275.573 175.557,275.622 180.259,275.683 174.512 C 275.744 168.765,275.744 159.360,275.683 153.613 C 275.622 147.866,275.573 152.568,275.573 164.063 M213.473 321.875 C 213.473 364.307,213.518 381.665,213.574 360.449 C 213.630 339.233,213.630 304.517,213.574 283.301 C 213.518 262.085,213.473 279.443,213.473 321.875 M275.582 321.875 C 275.582 364.307,275.628 381.665,275.684 360.449 C 275.739 339.233,275.739 304.517,275.684 283.301 C 275.628 262.085,275.582 279.443,275.582 321.875 " stroke="none" fill="#768db5" fill-rule="evenodd"></path><path id="path3" d="M299.707 61.608 C 300.298 61.697,301.265 61.697,301.855 61.608 C 302.446 61.518,301.963 61.445,300.781 61.445 C 299.600 61.445,299.116 61.518,299.707 61.608 M311.816 61.988 C 312.192 62.086,312.808 62.086,313.184 61.988 C 313.560 61.890,313.252 61.809,312.500 61.809 C 311.748 61.809,311.440 61.890,311.816 61.988 M336.904 90.430 C 336.904 105.254,336.952 111.262,337.012 103.780 C 337.071 96.298,337.071 84.170,337.012 76.827 C 336.952 69.484,336.903 75.605,336.904 90.430 M234.165 82.520 L 232.227 84.570 234.277 82.632 C 236.183 80.831,236.507 80.469,236.216 80.469 C 236.154 80.469,235.231 81.392,234.165 82.520 M301.660 117.457 C 302.036 117.555,302.651 117.555,303.027 117.457 C 303.403 117.359,303.096 117.278,302.344 117.278 C 301.592 117.278,301.284 117.359,301.660 117.457 M301.367 244.531 L 275.586 244.735 301.246 244.828 C 318.034 244.890,326.991 244.787,327.148 244.531 C 327.281 244.316,327.336 244.183,327.269 244.234 C 327.203 244.285,315.547 244.419,301.367 244.531 M174.512 244.824 C 181.655 244.884,193.345 244.884,200.488 244.824 C 207.632 244.764,201.787 244.716,187.500 244.716 C 173.213 244.716,167.368 244.764,174.512 244.824 M229.004 398.730 C 237.544 398.789,251.519 398.789,260.059 398.730 C 268.599 398.672,261.611 398.624,244.531 398.624 C 227.451 398.624,220.464 398.672,229.004 398.730 " stroke="none" fill="#a4accc" fill-rule="evenodd"></path><path id="path4" d="" stroke="none" fill="#9caccc" fill-rule="evenodd"></path></g></svg>