<svg id="svg" version="1.1" xmlns="http://www.w3.org/2000/svg" xmlns:xlink="http://www.w3.org/1999/xlink" width="400" height="400" viewBox="0, 0, 400,400"><g id="svgg"><path id="path0" d="M83.040 40.989 C 80.242 42.139,78.504 43.721,76.944 46.536 L 75.800 48.600 75.693 94.052 L 75.587 139.505 95.693 139.777 C 106.752 139.927,140.190 139.993,170.000 139.925 L 224.200 139.800 224.302 94.920 L 224.403 50.039 223.544 47.743 C 222.402 44.690,219.711 41.998,216.661 40.857 L 214.370 40.000 149.885 40.009 L 85.400 40.019 83.040 40.989 M152.746 70.100 C 153.705 71.241,162.064 84.090,164.399 88.015 C 170.657 98.532,166.184 111.039,154.834 114.759 C 150.528 116.170,146.816 115.820,141.800 113.527 C 131.983 109.042,129.367 97.034,135.975 86.791 C 136.759 85.575,137.580 84.270,137.800 83.889 C 138.936 81.924,146.453 70.461,147.082 69.736 C 148.541 68.054,151.165 68.222,152.746 70.100 M350.400 70.400 C 350.400 70.620,350.112 70.800,349.760 70.800 C 349.409 70.800,348.617 71.340,348.000 72.000 C 347.383 72.660,346.703 73.200,346.488 73.200 C 346.274 73.200,345.863 73.483,345.576 73.829 C 345.289 74.175,344.411 74.807,343.627 75.233 C 341.326 76.483,340.644 76.958,340.083 77.700 C 339.793 78.085,339.304 78.400,338.997 78.400 C 338.691 78.400,338.256 78.715,338.032 79.100 C 337.808 79.485,337.619 79.666,337.612 79.503 C 337.605 79.339,337.136 79.609,336.568 80.103 C 336.000 80.596,335.460 80.954,335.366 80.898 C 335.273 80.842,334.631 81.337,333.939 81.998 C 333.247 82.659,332.438 83.200,332.141 83.200 C 331.843 83.200,331.600 83.350,331.600 83.532 C 331.600 83.715,331.112 84.120,330.515 84.432 C 328.985 85.232,325.988 88.057,326.238 88.462 C 326.353 88.648,326.156 88.800,325.800 88.800 C 325.444 88.800,325.256 88.968,325.383 89.172 C 325.509 89.377,325.430 89.658,325.207 89.796 C 324.940 89.961,324.803 96.623,324.810 109.124 L 324.820 128.200 326.424 129.900 L 328.029 131.600 344.214 131.600 C 360.594 131.600,361.646 131.504,358.834 130.263 C 355.583 128.829,352.787 125.185,352.249 121.683 C 351.737 118.352,351.851 118.400,344.504 118.400 L 338.000 118.400 338.000 107.095 L 338.000 95.790 339.072 94.995 C 339.662 94.558,340.554 93.795,341.054 93.300 C 341.554 92.805,342.242 92.400,342.582 92.400 C 342.922 92.400,343.203 92.265,343.208 92.100 C 343.212 91.935,344.108 91.260,345.200 90.600 C 346.292 89.940,347.188 89.265,347.192 89.100 C 347.197 88.935,347.378 88.800,347.595 88.800 C 347.960 88.800,348.287 88.564,350.418 86.766 C 351.983 85.446,352.902 71.862,351.520 70.480 C 350.936 69.896,350.400 69.858,350.400 70.400 M369.900 131.476 C 369.237 131.649,369.200 135.403,369.200 203.229 C 369.200 242.593,369.055 274.800,368.878 274.800 C 368.701 274.800,368.512 275.565,368.457 276.500 C 368.402 277.435,368.187 278.371,367.979 278.580 C 367.770 278.789,367.600 279.279,367.600 279.668 C 367.600 280.057,367.240 281.017,366.800 281.800 C 366.360 282.583,366.000 283.453,366.000 283.732 C 366.000 284.459,365.056 286.393,364.700 286.397 C 364.535 286.399,364.400 286.720,364.400 287.112 C 364.400 287.503,364.040 288.083,363.600 288.400 C 363.160 288.717,362.800 289.297,362.800 289.688 C 362.800 290.080,362.659 290.400,362.486 290.400 C 362.314 290.400,361.835 290.972,361.422 291.670 C 360.421 293.366,359.732 294.180,357.637 296.146 C 356.668 297.056,355.279 298.385,354.551 299.100 C 353.822 299.815,352.940 300.400,352.590 300.400 C 352.239 300.400,352.064 300.580,352.200 300.800 C 352.336 301.020,352.167 301.200,351.824 301.200 C 351.481 301.200,351.200 301.358,351.200 301.551 C 351.200 301.745,350.660 302.127,350.000 302.400 C 349.340 302.673,348.800 303.022,348.800 303.174 C 348.800 303.326,348.178 303.695,347.418 303.993 C 346.658 304.291,346.110 304.655,346.201 304.801 C 346.291 304.947,346.106 305.067,345.790 305.067 C 345.107 305.067,341.459 306.868,341.267 307.300 C 341.193 307.465,340.608 307.600,339.967 307.600 C 339.325 307.600,338.800 307.755,338.800 307.944 C 338.800 308.133,337.855 308.400,336.700 308.537 C 333.143 308.957,332.540 309.066,332.036 309.377 C 331.215 309.885,316.887 309.674,315.887 309.140 C 315.399 308.879,314.953 308.708,314.896 308.761 C 314.619 309.018,310.400 308.261,310.400 307.954 C 310.400 307.759,309.860 307.600,309.200 307.600 C 308.540 307.600,308.000 307.420,308.000 307.200 C 308.000 306.980,307.550 306.800,307.000 306.800 C 306.450 306.800,306.000 306.620,306.000 306.400 C 306.000 306.180,305.747 306.000,305.438 306.000 C 304.772 306.000,301.459 304.332,301.267 303.900 C 301.193 303.735,300.788 303.600,300.367 303.600 C 299.945 303.600,299.600 303.450,299.600 303.268 C 299.600 303.085,299.109 302.680,298.509 302.368 C 297.909 302.055,296.796 301.219,296.034 300.508 C 295.273 299.798,294.572 299.294,294.477 299.390 C 294.280 299.587,288.400 293.544,288.400 293.145 C 288.400 293.002,287.861 292.307,287.202 291.602 C 286.542 290.896,286.083 290.190,286.180 290.032 C 286.277 289.875,286.007 289.493,285.579 289.185 C 285.150 288.876,284.800 288.303,284.800 287.912 C 284.800 287.520,284.620 287.200,284.400 287.200 C 284.180 287.200,284.000 286.840,284.000 286.400 C 284.000 285.960,283.864 285.600,283.698 285.600 C 283.531 285.600,283.156 285.015,282.864 284.300 C 281.741 281.550,281.496 280.978,281.153 280.305 C 280.959 279.923,280.800 279.194,280.800 278.685 C 280.800 278.176,280.638 277.589,280.441 277.380 C 279.635 276.526,279.483 272.197,279.339 245.900 C 279.257 230.775,279.042 218.400,278.862 218.400 C 278.682 218.400,278.283 218.872,277.974 219.448 C 276.500 222.203,271.660 225.200,268.684 225.200 C 267.736 225.200,266.744 225.416,266.480 225.680 C 265.857 226.303,265.779 274.216,266.400 274.600 C 266.620 274.736,266.800 275.827,266.800 277.024 C 266.800 278.221,266.942 279.200,267.115 279.200 C 267.288 279.200,267.473 279.773,267.527 280.473 C 267.580 281.174,267.790 281.947,267.994 282.193 C 268.198 282.438,268.409 283.305,268.464 284.119 C 268.519 284.934,268.662 285.601,268.782 285.603 C 269.059 285.607,270.000 287.614,270.000 288.200 C 270.000 288.874,270.961 290.793,271.300 290.797 C 271.465 290.799,271.600 291.160,271.600 291.600 C 271.600 292.040,271.780 292.400,272.000 292.400 C 272.220 292.400,272.400 292.760,272.400 293.200 C 272.400 293.640,272.580 294.000,272.800 294.000 C 273.020 294.000,273.200 294.320,273.200 294.712 C 273.200 295.103,273.560 295.683,274.000 296.000 C 274.440 296.317,274.800 296.807,274.800 297.088 C 274.800 297.624,278.095 302.133,279.300 303.247 C 279.685 303.603,280.000 304.098,280.000 304.347 C 280.000 304.596,280.300 304.800,280.667 304.800 C 281.033 304.800,281.229 304.905,281.101 305.033 C 280.854 305.279,283.991 308.400,284.484 308.400 C 284.643 308.400,285.403 309.030,286.173 309.800 C 286.943 310.570,287.714 311.200,287.887 311.201 C 288.059 311.201,288.830 311.741,289.600 312.400 C 290.370 313.059,291.225 313.599,291.500 313.599 C 291.775 313.600,292.000 313.780,292.000 314.000 C 292.000 314.220,292.270 314.400,292.600 314.400 C 292.930 314.400,293.547 314.715,293.971 315.100 C 295.464 316.455,295.971 316.800,296.467 316.800 C 296.743 316.800,298.145 317.370,299.584 318.066 C 301.023 318.762,302.513 319.482,302.895 319.666 C 303.277 319.850,303.952 320.000,304.395 320.000 C 304.838 320.000,305.200 320.142,305.200 320.315 C 305.200 320.488,305.773 320.673,306.473 320.727 C 307.174 320.780,307.939 320.977,308.173 321.165 C 308.603 321.508,310.289 321.849,313.600 322.261 C 314.590 322.385,315.581 322.632,315.803 322.812 C 316.404 323.297,332.227 322.995,335.000 322.445 C 336.320 322.183,338.076 321.867,338.903 321.742 C 339.729 321.617,340.505 321.355,340.626 321.158 C 340.748 320.961,341.377 320.800,342.024 320.800 C 342.671 320.800,343.200 320.620,343.200 320.400 C 343.200 320.180,343.639 320.000,344.176 320.000 C 344.713 320.000,345.264 319.820,345.400 319.600 C 345.536 319.380,346.177 319.200,346.824 319.200 C 347.471 319.200,348.000 319.020,348.000 318.800 C 348.000 318.580,348.360 318.400,348.800 318.400 C 349.240 318.400,349.601 318.265,349.603 318.100 C 349.607 317.741,351.544 316.800,352.280 316.800 C 352.566 316.800,352.800 316.620,352.800 316.400 C 352.800 316.180,353.160 316.000,353.600 316.000 C 354.040 316.000,354.400 315.820,354.400 315.600 C 354.400 315.380,354.670 315.200,355.000 315.200 C 355.330 315.200,355.600 315.020,355.600 314.800 C 355.600 314.580,355.870 314.400,356.200 314.400 C 356.530 314.400,356.800 314.220,356.800 314.000 C 356.800 313.780,357.070 313.600,357.400 313.600 C 357.730 313.600,358.000 313.450,358.000 313.268 C 358.000 313.085,358.492 312.680,359.093 312.368 C 359.694 312.055,360.711 311.305,361.352 310.700 C 361.994 310.095,362.773 309.600,363.083 309.600 C 363.393 309.600,363.536 309.420,363.400 309.200 C 363.264 308.980,363.371 308.800,363.639 308.800 C 363.906 308.800,364.817 308.094,365.662 307.231 C 366.508 306.369,367.200 305.767,367.200 305.894 C 367.200 306.240,369.092 304.028,370.445 302.100 C 371.102 301.165,371.776 300.400,371.945 300.400 C 372.225 300.400,372.922 299.261,374.813 295.716 C 375.190 295.009,375.656 294.559,375.849 294.716 C 376.042 294.872,376.076 294.846,375.925 294.658 C 375.774 294.471,376.269 293.151,377.025 291.725 C 377.781 290.300,378.400 288.879,378.400 288.567 C 378.400 288.255,378.580 288.000,378.800 288.000 C 379.020 288.000,379.200 287.676,379.200 287.280 C 379.200 286.884,379.374 286.386,379.587 286.173 C 379.799 285.961,380.017 285.205,380.072 284.493 C 380.126 283.782,380.312 283.200,380.485 283.200 C 380.658 283.200,380.800 282.671,380.800 282.024 C 380.800 281.377,380.980 280.736,381.200 280.600 C 381.420 280.464,381.600 279.463,381.600 278.376 C 381.600 277.289,381.780 276.400,382.000 276.400 C 382.762 276.400,382.530 131.736,381.767 131.443 C 381.050 131.168,370.972 131.195,369.900 131.476 M83.800 184.891 C 79.033 186.590,75.270 192.189,76.868 195.204 C 78.084 197.498,79.760 199.175,82.108 200.449 L 84.600 201.800 116.600 201.800 L 148.600 201.800 150.643 200.722 C 158.342 196.660,158.328 189.288,150.615 185.607 L 148.086 184.400 116.543 184.432 C 95.243 184.453,84.610 184.602,83.800 184.891 " stroke="none" fill="#cddce5" fill-rule="evenodd"></path><path id="path1" d="M348.400 3.600 C 348.083 4.040,347.638 4.401,347.412 4.403 C 347.185 4.404,346.685 4.959,346.300 5.635 C 345.530 6.988,345.293 12.000,346.000 12.000 C 346.220 12.000,346.400 12.225,346.400 12.500 C 346.401 13.182,348.178 15.200,348.778 15.200 C 349.045 15.200,349.954 15.920,350.800 16.800 C 351.646 17.680,352.503 18.400,352.705 18.400 C 352.907 18.400,353.930 19.210,354.978 20.200 C 356.026 21.190,357.008 22.000,357.160 22.000 C 357.311 22.000,358.208 22.720,359.151 23.600 C 360.095 24.480,361.046 25.200,361.265 25.200 C 361.484 25.200,362.354 25.920,363.200 26.800 C 364.046 27.680,364.903 28.400,365.105 28.400 C 365.307 28.400,366.311 29.192,367.336 30.160 L 369.200 31.921 369.200 43.880 C 369.200 52.649,369.328 55.968,369.680 56.320 C 370.012 56.652,372.053 56.800,376.280 56.800 L 382.400 56.800 382.400 41.200 C 382.400 31.067,382.260 25.600,382.000 25.600 C 381.780 25.600,381.600 25.375,381.600 25.100 C 381.599 24.418,379.822 22.400,379.222 22.400 C 378.955 22.400,378.046 21.680,377.200 20.800 C 376.354 19.920,375.541 19.200,375.392 19.200 C 375.243 19.200,374.644 18.698,374.060 18.085 C 373.477 17.471,372.370 16.529,371.600 15.991 C 370.830 15.453,369.609 14.425,368.887 13.707 C 368.164 12.988,367.422 12.400,367.237 12.400 C 367.052 12.400,366.203 11.755,365.350 10.967 C 364.498 10.179,363.262 9.253,362.605 8.908 C 361.948 8.563,360.931 7.768,360.345 7.141 C 359.758 6.513,359.153 6.000,359.000 6.000 C 358.847 6.000,358.217 5.460,357.600 4.800 C 356.983 4.140,356.191 3.600,355.840 3.600 C 355.488 3.600,355.200 3.420,355.200 3.200 C 355.200 2.358,349.034 2.721,348.400 3.600 M75.694 148.600 C 75.915 159.542,76.492 161.236,80.991 164.140 C 84.442 166.366,81.829 166.295,151.200 166.039 L 215.800 165.800 217.600 164.848 C 222.930 162.027,223.770 159.912,223.927 148.902 L 224.055 140.004 149.786 139.902 L 75.516 139.800 75.694 148.600 M257.067 189.867 C 256.733 190.200,256.710 224.501,257.043 225.367 C 257.321 226.093,265.516 226.322,266.220 225.623 C 266.429 225.416,267.707 225.069,269.060 224.852 C 273.080 224.207,274.403 223.322,278.300 218.669 C 278.795 218.078,279.200 217.415,279.200 217.197 C 279.200 216.979,279.380 216.800,279.600 216.800 C 279.855 216.800,280.000 213.400,280.000 207.400 C 280.000 201.400,279.855 198.000,279.600 198.000 C 279.380 198.000,279.200 197.460,279.200 196.800 C 279.200 196.140,279.020 195.600,278.800 195.600 C 278.580 195.600,278.400 195.357,278.400 195.059 C 278.400 194.265,275.236 191.200,274.417 191.200 C 274.188 191.200,274.000 191.020,274.000 190.800 C 274.000 190.580,273.640 190.400,273.200 190.400 C 272.760 190.400,272.400 190.220,272.400 190.000 C 272.400 189.551,257.511 189.422,257.067 189.867 M10.200 372.000 C 10.064 372.220,9.344 372.400,8.600 372.400 C 7.856 372.400,7.136 372.580,7.000 372.800 C 6.864 373.020,6.476 373.200,6.137 373.200 C 5.798 373.200,4.999 373.759,4.360 374.442 C 3.722 375.126,3.200 375.567,3.200 375.424 C 3.200 374.942,1.406 376.989,0.800 378.162 C 0.006 379.700,-0.080 390.841,0.700 391.100 C 0.975 391.192,1.200 391.436,1.200 391.644 C 1.200 392.266,4.731 395.600,5.389 395.600 C 5.725 395.600,6.000 395.780,6.000 396.000 C 6.000 396.220,6.360 396.400,6.800 396.400 C 7.240 396.400,7.600 396.580,7.600 396.800 C 7.600 397.066,55.333 397.200,150.000 397.200 C 244.667 397.200,292.400 397.066,292.400 396.800 C 292.400 396.580,292.760 396.400,293.200 396.400 C 293.640 396.400,294.000 396.220,294.000 396.000 C 294.000 395.780,294.275 395.600,294.611 395.600 C 295.413 395.600,298.451 392.516,299.147 390.995 C 299.447 390.338,299.852 389.487,300.047 389.105 C 300.543 388.131,300.501 380.000,300.000 380.000 C 299.780 380.000,299.600 379.640,299.600 379.200 C 299.600 378.760,299.420 378.400,299.200 378.400 C 298.980 378.400,298.800 378.029,298.800 377.576 C 298.800 377.123,298.620 376.864,298.400 377.000 C 298.180 377.136,297.999 377.012,297.999 376.724 C 297.998 376.436,297.459 375.840,296.800 375.400 C 296.141 374.960,295.602 374.465,295.601 374.300 C 295.601 374.135,295.375 373.996,295.100 373.991 C 294.825 373.986,294.150 373.630,293.600 373.200 C 293.027 372.752,291.970 372.414,291.124 372.409 C 290.312 372.404,289.536 372.220,289.400 372.000 C 289.006 371.362,257.313 371.461,257.100 372.100 C 256.825 372.927,43.885 373.028,43.059 372.202 C 42.329 371.472,10.647 371.277,10.200 372.000 " stroke="none" fill="#555563" fill-rule="evenodd"></path><path id="path2" d="M72.400 8.796 C 72.400 9.018,72.040 9.200,71.600 9.200 C 71.160 9.200,70.800 9.344,70.800 9.520 C 70.800 9.695,70.209 10.053,69.486 10.314 C 67.798 10.925,65.277 13.367,64.000 15.629 L 63.000 17.400 62.897 194.575 C 62.815 336.469,62.895 371.813,63.297 372.069 C 64.081 372.566,255.495 372.484,256.426 371.986 C 257.313 371.511,257.684 225.947,256.800 225.400 C 256.256 225.064,256.250 189.717,256.794 189.533 C 257.302 189.361,257.366 18.714,256.858 16.977 C 256.051 14.218,255.120 12.898,252.361 10.600 C 249.795 8.463,256.117 8.608,160.700 8.496 C 101.393 8.426,72.400 8.524,72.400 8.796 M42.598 195.800 C 42.598 292.600,42.644 332.140,42.700 283.667 C 42.756 235.194,42.756 155.994,42.700 107.667 C 42.644 59.340,42.598 99.000,42.598 195.800 M216.661 40.857 C 219.711 41.998,222.402 44.691,223.544 47.743 L 224.403 50.038 224.397 103.631 C 224.394 133.325,224.236 157.532,224.042 157.912 C 223.850 158.291,223.456 159.140,223.166 159.800 C 222.198 162.004,218.784 164.973,216.384 165.697 C 213.673 166.515,86.115 166.885,83.686 166.082 C 80.632 165.073,78.173 162.900,76.514 159.745 L 75.491 157.800 75.580 103.875 C 75.630 74.217,75.826 49.407,76.017 48.742 C 77.017 45.253,79.600 42.403,83.045 40.987 L 85.400 40.019 149.885 40.009 L 214.370 40.000 216.661 40.857 M362.800 56.400 C 362.800 56.620,362.116 56.800,361.280 56.800 C 359.737 56.800,357.609 57.552,357.603 58.100 C 357.601 58.265,357.274 58.400,356.876 58.400 C 356.021 58.400,353.600 60.652,353.600 61.447 C 353.600 61.751,353.420 62.000,353.200 62.000 C 352.980 62.000,352.800 62.270,352.800 62.600 C 352.800 62.930,352.620 63.200,352.400 63.200 C 352.180 63.200,352.000 63.931,352.000 64.824 C 352.000 65.804,351.842 66.349,351.600 66.200 C 351.056 65.864,351.074 70.114,351.619 70.659 C 351.896 70.936,351.961 73.428,351.812 78.039 C 351.329 92.919,351.177 118.890,351.570 119.364 C 351.787 119.626,352.088 120.641,352.239 121.620 C 352.787 125.186,355.559 128.818,358.834 130.263 C 359.695 130.643,360.400 131.066,360.400 131.202 C 360.400 131.338,367.600 131.455,376.400 131.460 C 385.200 131.466,392.400 131.320,392.400 131.135 C 392.400 130.951,392.836 130.800,393.370 130.800 C 394.513 130.800,398.972 126.651,399.598 125.005 C 399.854 124.331,400.000 113.144,400.000 94.134 C 400.000 61.894,400.067 62.967,397.913 60.625 C 397.521 60.198,397.200 59.725,397.200 59.573 C 397.200 59.421,396.660 59.073,396.000 58.800 C 395.340 58.527,394.800 58.145,394.800 57.951 C 394.800 57.758,394.440 57.600,394.000 57.600 C 393.560 57.600,393.200 57.420,393.200 57.200 C 393.200 56.980,392.401 56.800,391.424 56.800 C 390.447 56.800,389.536 56.620,389.400 56.400 C 388.976 55.714,382.526 55.895,382.255 56.600 C 382.065 57.096,380.993 57.200,376.062 57.200 C 371.249 57.200,370.002 57.084,369.600 56.600 C 369.018 55.899,362.800 55.716,362.800 56.400 M227.225 185.086 C 231.599 187.807,230.327 194.389,225.200 195.567 C 222.709 196.139,185.895 196.141,183.229 195.569 C 176.933 194.219,176.645 185.088,182.873 184.283 C 188.442 183.563,225.865 184.241,227.225 185.086 M150.615 185.607 C 158.328 189.288,158.342 196.660,150.643 200.722 L 148.600 201.800 116.600 201.800 L 84.600 201.800 82.108 200.449 C 75.339 196.777,74.812 190.632,80.911 186.471 C 83.920 184.418,83.100 184.465,116.543 184.432 L 148.086 184.400 150.615 185.607 " stroke="none" fill="#fb8b04" fill-rule="evenodd"></path><path id="path3" d="M51.860 8.702 C 51.703 8.957,51.310 9.064,50.987 8.940 C 50.664 8.816,50.400 8.924,50.400 9.181 C 50.400 9.437,50.220 9.536,50.000 9.400 C 49.780 9.264,49.600 9.338,49.600 9.564 C 49.600 9.790,49.339 9.875,49.021 9.753 C 48.702 9.630,48.027 9.925,47.521 10.407 C 47.014 10.889,46.195 11.556,45.700 11.888 C 45.205 12.220,44.800 12.726,44.800 13.013 C 44.800 13.299,44.593 13.602,44.339 13.687 C 44.085 13.772,43.850 14.215,43.817 14.672 C 43.783 15.129,43.432 15.997,43.036 16.601 C 42.641 17.205,42.544 17.559,42.820 17.387 C 43.135 17.193,43.223 17.239,43.056 17.509 C 42.517 18.382,42.762 372.129,43.303 372.473 C 44.340 373.135,256.788 372.665,257.208 372.000 C 257.445 371.626,257.553 343.963,257.495 298.600 L 257.402 225.800 257.302 298.600 C 257.209 366.482,257.156 371.434,256.525 371.900 C 255.743 372.476,64.203 372.644,63.297 372.069 C 62.895 371.813,62.815 336.469,62.897 194.575 L 63.000 17.400 64.000 15.629 C 65.277 13.367,67.798 10.925,69.486 10.314 C 70.209 10.053,70.800 9.695,70.800 9.520 C 70.800 9.344,71.160 9.200,71.600 9.200 C 72.040 9.200,72.400 9.020,72.400 8.800 C 72.400 8.544,68.859 8.400,62.576 8.400 C 56.129 8.400,52.838 8.537,53.000 8.800 C 53.136 9.020,53.072 9.200,52.857 9.200 C 52.642 9.200,52.395 8.984,52.307 8.720 C 52.187 8.360,52.075 8.356,51.860 8.702 M257.299 105.500 C 257.233 161.234,257.065 189.600,256.800 189.600 C 256.328 189.600,256.229 225.047,256.700 225.338 C 256.865 225.440,256.950 217.666,256.889 208.062 C 256.816 196.495,256.919 190.330,257.196 189.800 C 257.483 189.250,257.580 162.843,257.506 105.200 L 257.398 21.400 257.299 105.500 M369.549 56.500 C 370.035 57.119,370.797 57.190,376.149 57.112 L 382.200 57.023 376.228 56.900 C 372.304 56.820,370.040 56.610,369.628 56.289 C 369.074 55.858,369.065 55.883,369.549 56.500 M224.086 148.000 C 224.033 152.510,223.877 156.650,223.740 157.200 C 223.555 157.945,223.609 158.091,223.954 157.772 C 224.283 157.467,224.383 154.830,224.300 148.572 L 224.184 139.800 224.086 148.000 M75.365 147.200 C 75.365 151.050,75.425 152.625,75.498 150.700 C 75.571 148.775,75.571 145.625,75.498 143.700 C 75.425 141.775,75.365 143.350,75.365 147.200 M75.650 156.439 C 75.623 157.230,75.883 158.445,76.229 159.139 C 77.004 160.691,77.344 160.801,76.731 159.300 C 76.484 158.695,76.151 157.480,75.991 156.600 L 75.700 155.000 75.650 156.439 M222.792 159.620 C 222.065 161.375,219.719 163.739,217.600 164.853 L 215.800 165.800 151.000 166.011 C 105.878 166.158,85.714 166.094,84.600 165.797 C 82.255 165.174,80.558 164.164,78.779 162.331 C 77.911 161.436,77.200 160.882,77.200 161.101 C 77.200 162.237,81.709 165.533,84.200 166.218 C 86.774 166.925,213.972 166.423,216.384 165.696 C 219.319 164.811,224.542 159.609,223.521 158.588 C 223.404 158.470,223.075 158.935,222.792 159.620 M182.873 184.283 C 176.645 185.088,176.933 194.219,183.229 195.569 C 185.895 196.141,222.709 196.139,225.200 195.567 C 230.327 194.389,231.599 187.807,227.225 185.086 C 225.865 184.241,188.442 183.563,182.873 184.283 " stroke="none" fill="#ec640c" fill-rule="evenodd"></path><path id="path4" d="M148.606 68.690 C 147.493 68.977,141.745 77.063,137.800 83.889 C 137.580 84.270,136.759 85.575,135.975 86.791 C 130.838 94.754,130.790 101.594,135.821 108.498 C 141.273 115.978,153.161 117.837,159.922 112.268 C 167.799 105.778,169.497 96.583,164.399 88.015 C 162.064 84.090,153.705 71.241,152.746 70.100 C 151.718 68.879,150.061 68.315,148.606 68.690 M80.923 139.899 C 83.741 139.968,88.241 139.968,90.923 139.899 C 93.605 139.830,91.300 139.773,85.800 139.773 C 80.300 139.774,78.105 139.830,80.923 139.899 M276.426 220.900 C 275.450 222.055,275.153 222.550,275.765 222.000 C 276.796 221.073,278.617 218.800,278.327 218.800 C 278.257 218.800,277.402 219.745,276.426 220.900 M269.400 224.800 L 267.800 225.086 269.200 225.137 C 269.970 225.165,270.870 225.013,271.200 224.800 C 271.855 224.377,271.762 224.377,269.400 224.800 " stroke="none" fill="#4c74c8" fill-rule="evenodd"></path></g></svg>