<svg width="512" height="512" xmlns="http://www.w3.org/2000/svg" xml:space="preserve" version="1.1">

 <g>
  <title>Layer 1</title>
  <g id="svg_1">
   <path id="svg_2" fill="#FEFEFE" d="m448.75,500.98c0.2,4.57 -1.13,8.02 -5.1,10.36c6.1,-9.7 2.88,-20.47 3.47,-30.78c0.22,-3.88 -2.51,-5.88 -5.87,-7.08c-2.31,-0.45 -4.04,-0.79 -5.33,-1.2c-0.62,-0.19 -1.14,-0.4 -1.57,-0.65c-2.26,-1.28 -2.27,-3.56 -2.27,-9.66c0,-75.61 0,-151.22 0.01,-226.82c0,-2.49 -0.14,-4.98 0.35,-7.43c0.39,-1.21 0.85,-1.87 1.34,-2.16c-0.03,76.58 -0.05,153.16 -0.08,229.74c0,1.49 -0.01,2.98 0,4.48c0.03,3.31 -0.69,6.87 0.28,9.89c1.32,4.11 6.13,0.25 8.63,2.61c4.43,1.34 6.2,4.38 6.1,8.94c-0.15,6.58 -0.27,13.18 0.04,19.76z" class="st0"/>
   <path id="svg_3" fill="#FEFEFE" d="m474.48,246.08c-8.31,3.51 -16.25,2.22 -23.02,-4.03c-5.92,-5.45 -11.71,-11.02 -17.56,-16.56c1.15,-0.55 2.48,0.83 3.6,1.84c4.7,4.19 9.46,8.3 13.94,12.73c11.84,11.73 29.63,6.98 34,-9.01c1.76,-6.42 0.02,-12.42 -4.3,-17.12c-7.17,-7.8 -14.7,-15.27 -22.57,-22.4c-12.54,-11.34 -24.08,-23.71 -36.06,-35.65c-0.87,-0.87 -1.54,-1.92 -1.85,-3.14c-0.04,-0.1 -0.06,-0.19 -0.08,-0.29c-0.01,-0.11 -0.02,-0.21 -0.03,-0.32c-0.67,-7.78 -0.26,-15.58 -0.28,-23.37c0,-0.35 -0.01,-0.71 -0.01,-1.06c0,-0.38 -0.01,-0.75 -0.01,-1.13c-0.24,-26.52 -0.05,-53.04 -0.09,-79.56c-0.01,-1.65 -0.02,-3.31 0.42,-4.92c0.05,-0.21 0.11,-0.41 0.19,-0.6c0.01,-0.03 0.02,-0.05 0.03,-0.07c0.02,-0.05 0.04,-0.1 0.06,-0.14c0.11,-0.24 0.24,-0.47 0.4,-0.69c0.03,-0.06 0.07,-0.13 0.12,-0.19c2.46,-1.89 5.38,-1.24 8.14,-1.43c5.08,-0.36 7.25,-2.27 7.52,-7.37c0.35,-6.46 0.25,-12.93 0.06,-19.39c-0.21,-6.73 -2.43,-8.92 -9.15,-8.99c-15.26,-0.14 -30.51,-0.02 -45.76,-0.04c-0.71,-0.01 -1.41,-0.02 -2.12,-0.03c-0.48,-0.01 -0.96,-0.01 -1.44,-0.02c-6.77,-0.08 -13.54,-0.04 -20.31,0.07c-5.66,0.08 -7.96,2.01 -8.48,7.61c-0.65,7.09 -0.58,14.25 -0.03,21.36c0.36,4.68 2.74,6.6 7.81,7.58c2.53,0.48 5.39,-0.26 7.57,1.61c0.04,0.05 0.08,0.08 0.12,0.12c0.1,0.09 0.2,0.18 0.29,0.28c0.61,1.03 0.88,2.16 0.88,3.32c0.04,17.02 0.48,34.05 -0.22,51.06c-0.36,1.14 -0.78,1.8 -1.23,2.13c-0.03,0.02 -0.05,0.03 -0.07,0.05c-1.18,0.75 -2.58,-0.68 -3.7,-1.78c-5.3,-5.2 -11.03,-9.98 -16.22,-15.25c-16.79,-17.03 -34.38,-33.25 -51.33,-50.11c-0.02,-0.02 -0.03,-0.03 -0.05,-0.05c-0.26,-0.25 -0.51,-0.49 -0.76,-0.74c-7.81,-7.63 -14.89,-16.02 -23.56,-22.73c-8.52,-6.61 -16.91,-6.5 -25.59,-0.13c-1.74,1.28 -3.47,2.57 -4.97,4.13c-18.28,19.01 -37.7,36.86 -56.51,55.32c-15.03,14.74 -29.82,29.75 -45.2,44.12c-12.73,11.9 -24.69,24.54 -37.32,36.52c-22.5,21.32 -44.81,42.84 -66.72,64.77c-5.83,5.84 -7.84,12.77 -5.15,20.48c2.79,7.97 8.69,12.87 17.28,13.75c5.27,0.54 10.08,-0.82 14.35,-4.31c5.66,-4.64 10.67,-9.94 15.98,-14.93c1.12,-1.05 2.49,-2.55 3.69,-1.83c0.01,0 0.02,0.01 0.03,0.02c0.49,0.3 0.94,0.97 1.34,2.19c0.51,2.64 0.37,5.3 0.37,7.95c0.01,75.44 0.01,150.89 -0.01,226.33c0,2.96 0.36,5.98 -0.8,8.83c0,0.01 -0.01,0.01 -0.01,0.02c-0.16,0.22 -0.33,0.42 -0.5,0.6c-0.44,0.44 -0.92,0.75 -1.43,0.95c-2.08,0.85 -4.64,0.08 -6.72,0.92c-0.18,0.07 -0.35,0.15 -0.52,0.25c-3.7,1.18 -5.12,3.85 -5.13,7.57c-0.02,7.12 0.18,14.24 -0.09,21.34c-0.13,3.4 2.96,5.54 2.64,8.82c-3.53,-3.01 -4.3,-6.88 -4.12,-11.36c0.28,-6.58 0.08,-13.18 0.08,-19.77c0,-4.09 1.61,-6.96 5.92,-7.77c2.88,-1.59 6.07,-0.15 9.03,-0.96c-0.02,-81.96 -0.04,-163.92 -0.07,-245.89c-5.16,4.9 -10.53,9.6 -15.43,14.73c-10.75,11.25 -24.78,8.89 -32.19,1.16c-7.53,-7.85 -8.69,-21.36 2.45,-32.12c62.59,-60.47 124.86,-121.26 187.24,-181.95c6.41,-6.24 12.73,-12.59 19.23,-18.75c10.13,-9.6 21.68,-9.75 31.8,-0.18c7.57,7.15 14.8,14.68 22.19,22.03c16.63,16.11 33.25,32.23 49.91,48.3c6.78,6.54 13.66,12.96 20.5,19.44c0.06,-18.93 0.12,-37.85 0.18,-56.77c-2.62,-0.13 -5.26,-0.21 -7.88,-0.4c-5.81,-0.43 -8.58,-2.95 -8.75,-8.64c-0.22,-7.43 -0.23,-14.87 0.01,-22.3c0.19,-6.03 3.01,-8.46 9.15,-8.46c8.09,0.01 16.19,0.1 24.28,0.16c16.07,-0.06 32.15,-0.16 48.22,-0.13c5.25,0.01 8.18,2.68 8.33,7.83c0.23,7.79 0.21,15.58 0.01,23.37c-0.13,4.99 -2.9,7.57 -7.83,7.76c-2.81,0.11 -5.63,-0.04 -8.44,-0.08c-0.15,0.3 -0.3,0.6 -0.45,0.9c-0.02,29.2 -0.03,58.4 -0.04,87.6c0.04,8.25 0.09,16.5 0.13,24.76c19.53,19.07 39.13,38.07 58.55,57.26c11.29,11.15 8.3,28.98 -5.88,34.97z" class="st0"/>
   <path id="svg_4" fill="#43CA8D" d="m443.65,511.34l-327.51,0c-4.34,-1.09 -6.25,-4.08 -6.37,-8.33c-0.22,-7.44 -0.23,-14.89 0.01,-22.33c0.07,-2.35 0.88,-4.49 2.56,-6.66c-11.96,0.01 -23.52,0.05 -35.08,-0.02c-1.95,-0.01 -4.03,0.31 -5.81,-0.64c-0.43,-0.23 -0.83,-0.53 -1.22,-0.92c2.88,-1.59 6.07,-0.15 9.03,-0.96c0.27,-0.23 0.56,-0.44 0.85,-0.61c0.85,-0.51 1.78,-0.79 2.77,-0.78c12.41,0.14 24.88,-1.14 37.24,0.88c0.06,0.01 0.11,0.02 0.17,0.03l0.66,0c12.24,-0.11 24.46,-0.16 36.69,0l1,0c26.48,-0.11 52.95,-0.24 79.43,0.04c0.15,0 0.29,0.01 0.44,0c0.08,0.01 0.17,0.01 0.25,0.01l0.66,0c0.2,0 0.41,0 0.62,-0.01c2.48,-0.32 4.97,-0.14 7.45,-0.14c54.33,-0.01 108.66,0.06 162.99,-0.07c7.98,-0.02 15.93,0.25 23.87,0.8c2.75,0.18 5.51,0.4 8.26,0.65c4.43,1.34 6.2,4.38 6.1,8.94c-0.15,6.58 -0.27,13.18 0.04,19.76c0.2,4.57 -1.13,8.02 -5.1,10.36z" class="st1"/>
   <path id="svg_5" fill="#00B966" d="m116.14,511.34l-47.79,0c-3.53,-3.01 -4.3,-6.88 -4.12,-11.36c0.28,-6.58 0.08,-13.18 0.08,-19.77c0,-4.09 1.61,-6.96 5.92,-7.77l45.55,0c-5.04,3.92 -4.68,8.25 -4.63,12.53c0.06,5.29 0.26,10.6 -0.06,15.87c-0.27,4.61 1.24,8.02 5.05,10.5z" class="st2"/>
   <path id="svg_6" fill="#DEEAF9" d="m442.61,472.28l-6.69,0c-24.76,0.02 -49.53,0.05 -74.29,0.05c-38.59,0.01 -77.18,0.01 -115.77,-0.01c-2.15,0 -4.3,-0.16 -6.44,-0.24c-0.22,-0.27 -0.4,-0.55 -0.55,-0.83c-0.04,-0.07 -0.08,-0.13 -0.11,-0.2c-0.1,-0.2 -0.18,-0.4 -0.25,-0.6c-0.7,-1.93 -0.31,-4.03 -0.31,-6.04c-0.04,-52.22 -0.06,-104.45 -0.01,-156.67c0,-6.91 -0.05,-13.83 -0.11,-20.74c0,-0.7 -0.01,-1.4 -0.02,-2.11c-0.06,-8.29 -0.14,-16.59 -0.12,-24.89c0.02,-8.93 -1.91,-10.85 -10.81,-10.83c-22.5,0.04 -45,-0.06 -67.49,-0.14c-9.66,-0.03 -19.33,-0.06 -28.99,-0.07c-1.66,0 -3.32,-0.12 -4.94,0.3c-0.19,0.05 -0.37,0.1 -0.56,0.15c-1.16,0.33 -2.34,0.63 -3.57,0.5c-0.06,-0.09 -0.11,-0.18 -0.16,-0.27c-0.08,-0.12 -0.15,-0.25 -0.22,-0.37c-3.1,-5.64 0.85,-10.11 3.12,-14.77c0.85,-1.75 2.66,-2.93 4.04,-4.36c20.78,-21.43 42.62,-41.78 63.96,-62.64c12.56,-12.28 24.69,-25.03 37.69,-36.84c12.42,-11.27 23.79,-23.57 35.98,-35.04c4.94,-4.65 10.1,-9.08 14.87,-13.93c0.89,-0.9 1.88,-1.73 3.21,-1.93c0.05,-0.02 0.1,-0.02 0.16,-0.03c0.12,0 0.23,0.01 0.34,0.02c1.46,0.15 2.5,1.1 3.46,2.09c5.84,6.09 12.56,11.25 18.44,17.33c19.44,20.1 39.96,39.12 59.93,58.68c11.82,11.57 23.26,23.56 35.52,34.66c9.82,8.9 19,18.43 28.45,27.69c1.48,1.44 3.51,2.65 3.41,5.18l0,0.18c-0.03,76.58 -0.05,153.16 -0.08,229.74c0,1.49 -0.01,2.98 0,4.48c0.03,3.31 -0.69,6.87 0.28,9.89c1.32,4.11 6.13,0.25 8.63,2.61z" class="st3"/>
   <path id="svg_7" fill="#B0DAFB" d="m284.57,79.75c0,0.15 -0.02,0.3 -0.05,0.46c-13.03,11.73 -25.38,24.17 -38.01,36.31c-15.87,15.25 -31.18,31.1 -47.24,46.13c-12.09,11.32 -23.26,23.57 -35.55,34.63c-12.32,11.09 -23.52,23.29 -35.54,34.65c-5.07,4.8 -7.18,10.57 -6.98,17.34c0,0.15 0,0.31 0.01,0.47c1.4,3.19 0.37,6.51 0.41,9.75c0.1,8.31 0.17,16.63 -0.01,24.94c0,0.32 -0.01,0.65 -0.01,0.97c-0.01,0.09 -0.01,0.19 -0.01,0.28c0.33,4.47 0.14,8.95 0.15,13.42c0.01,54.68 0.02,109.36 -0.03,164.04c0,2.62 0.56,5.42 -0.76,7.86c-0.22,0.4 -0.49,0.8 -0.83,1.18c-13.49,-1.22 -27.01,-0.11 -40.52,-0.69c-0.11,0 -0.23,0 -0.34,-0.01c-0.02,-81.96 -0.04,-163.92 -0.07,-245.89c0,-0.01 0,-0.03 -0.01,-0.04c-0.36,-1.95 1.08,-3.03 2.22,-4.12c18.64,-17.88 36.72,-36.35 55.72,-53.87c0.61,-0.56 1.22,-1.12 1.8,-1.71c21.12,-21.76 43.2,-42.55 64.97,-63.64c15.94,-15.43 31.13,-31.66 47.9,-46.22c1.39,-1.21 2.71,-2.47 4.7,-2.52c0.23,0.01 0.45,0.02 0.67,0.05c0.24,0.02 0.48,0.06 0.71,0.12c1.68,0.34 3.11,1.26 4.35,2.46c7.03,6.76 13.87,13.72 20.72,20.66c0.82,0.83 1.68,1.71 1.63,2.99z" class="st4"/>
   <path id="svg_8" fill="#FE4756" d="m294.48,30.51c-0.24,0.28 -0.5,0.51 -0.77,0.67c-1,0.64 -2.2,0.64 -3.33,0.55c-7.22,-0.55 -12.64,2.96 -17.52,7.65c-3.79,3.65 -7.47,7.42 -11.18,11.15c-1.18,1.18 -2.34,2.36 -3.81,3.11c-0.43,0.22 -0.88,0.41 -1.37,0.55c-1.95,0.3 -3.16,1.72 -4.46,2.98c-56.74,55.16 -113.48,110.32 -170.21,165.49c-0.93,0.9 -1.75,1.94 -2.62,2.91c-0.01,0.01 -0.01,0.01 -0.02,0.02c-5.16,4.9 -10.53,9.6 -15.43,14.73c-10.75,11.25 -24.78,8.89 -32.19,1.16c-7.53,-7.85 -8.69,-21.36 2.45,-32.12c62.59,-60.47 124.86,-121.26 187.24,-181.95c6.41,-6.24 12.73,-12.59 19.23,-18.75c10.13,-9.6 21.68,-9.75 31.8,-0.18c7.57,7.15 14.8,14.68 22.19,22.03z" class="st5"/>
   <path id="svg_9" fill="#FE656F" d="m474.48,246.08c-8.31,3.51 -16.25,2.22 -23.02,-4.03c-5.92,-5.45 -11.71,-11.02 -17.56,-16.56c-0.04,-0.03 -0.08,-0.07 -0.12,-0.11c-16.9,-16.59 -33.75,-33.24 -50.71,-49.76c-32.05,-31.22 -64.17,-62.36 -96.27,-93.53c-0.7,-0.68 -1.52,-1.26 -2.28,-1.88c-0.15,-0.15 -0.3,-0.3 -0.45,-0.45c-7.9,-7.85 -15.79,-15.71 -23.7,-23.55c-1.07,-1.07 -2.34,-1.81 -3.87,-2.02c0.22,-0.22 0.44,-0.45 0.66,-0.67c5.46,-5.53 10.86,-11.11 16.39,-16.57c5.44,-5.35 12.08,-6.99 19.35,-6.56c0.52,0.03 1.05,0.07 1.58,0.12c16.63,16.11 33.25,32.23 49.91,48.3c6.78,6.54 13.66,12.96 20.5,19.44c0.05,0 0.09,0.01 0.14,0.02c1.38,0.13 2.26,1.11 3.15,2c16.55,16.66 34.06,32.33 50.34,49.27c0.78,0.8 1.41,1.69 2.03,2.59c0.41,0.58 0.82,1.16 1.26,1.72c19.53,19.07 39.13,38.07 58.55,57.26c11.29,11.15 8.3,28.98 -5.88,34.97z" class="st6"/>
   <path id="svg_10" fill="#544E55" d="m421.81,153.85c-0.38,-0.37 -0.77,-0.74 -1.15,-1.11c-18.68,-18.03 -37.6,-35.8 -55.7,-54.42l-0.07,-0.07c0.06,-18.93 0.12,-37.85 0.18,-56.77c0.04,-0.04 0.08,-0.09 0.12,-0.12c0.8,-0.84 1.85,-1.2 2.96,-1.23c3.7,-0.11 7.39,-0.21 11.08,-0.21c0.91,0 1.83,0.01 2.74,0.03c3.29,0.05 6.57,0.21 9.85,0.56c0.45,0.04 0.9,0.1 1.35,0.15c0.33,0.22 0.61,0.46 0.85,0.7c0.04,0.04 0.08,0.08 0.11,0.12c0.01,0.01 0.01,0.01 0.01,0.02c1.58,1.79 1.09,4.2 1.1,6.37c0.09,14.89 0.22,29.77 -0.04,44.65c-0.1,6.09 1.74,10.79 6.26,14.9c5.5,5 10.56,10.49 15.86,15.71c1.09,1.07 2.09,2.2 2.93,3.44c0.55,0.79 1.03,1.63 1.43,2.52c0.04,8.25 0.09,16.5 0.13,24.76z" class="st7"/>
   <path id="svg_11" fill="#7B6C79" d="m438.44,32.91c-0.13,4.99 -2.9,7.57 -7.83,7.76c-2.81,0.11 -5.63,-0.04 -8.44,-0.08c-0.42,0.3 -0.86,0.52 -1.31,0.69c-0.11,0.04 -0.23,0.08 -0.34,0.12c-0.11,0.03 -0.21,0.07 -0.31,0.09c-1.52,0.42 -3.14,0.33 -4.74,0.41c-6.37,0.34 -12.73,-0.03 -19.08,-0.4c-0.48,-0.03 -0.95,-0.06 -1.43,-0.09c-0.31,-0.02 -0.63,-0.04 -0.94,-0.05c-3.56,-0.21 -7.13,-0.39 -10.7,-0.42c-1.57,-0.01 -2.95,-0.36 -4.09,-1.02c-1.93,-1.12 -3.16,-3.15 -3.43,-6.03c-0.79,-8.57 -0.73,-17.19 0,-25.76c0.19,-2.26 1.21,-3.92 2.83,-5c0.9,-0.61 2,-1.04 3.25,-1.29c16.07,-0.06 32.15,-0.16 48.22,-0.13c5.25,0.01 8.18,2.68 8.33,7.83c0.23,7.79 0.21,15.58 0.01,23.37z" class="st8"/>
   <path id="svg_12" fill="#695D67" d="m421.72,41.49c-0.02,29.2 -0.03,58.4 -0.04,87.6c-0.47,-0.46 -0.94,-0.93 -1.42,-1.39c-8.02,-7.88 -16.09,-15.73 -24.01,-23.71c-2.2,-2.21 -2.4,-5.3 -2.39,-8.35c0.02,-18.04 0,-36.09 -0.01,-54.14c0.09,-0.01 0.19,-0.02 0.28,-0.02c0.28,-0.03 0.55,-0.05 0.83,-0.07c8.52,-0.69 17.04,-0.68 25.56,-0.01c0.09,0 0.19,0.01 0.28,0.02c0.31,0.02 0.61,0.04 0.92,0.07z" class="st9"/>
   <path id="svg_13" fill="#695D67" d="m422.17,40.59c-0.15,0.3 -0.3,0.6 -0.45,0.9l-1.51,0c-7.94,0 -15.88,0.01 -23.82,0.01l-2.54,0c-9.51,-0.01 -19.03,-0.01 -28.54,-0.02l-0.24,0c-2.62,-0.13 -5.26,-0.21 -7.88,-0.4c-5.81,-0.43 -8.58,-2.95 -8.75,-8.64c-0.22,-7.43 -0.23,-14.87 0.01,-22.3c0.19,-6.03 3.01,-8.46 9.15,-8.46c8.09,0.01 16.19,0.1 24.28,0.16c-0.68,0.4 -1.28,0.84 -1.81,1.31c-2.42,2.16 -3.33,5.02 -3.18,8.64c0.26,6.58 0.02,13.19 0.08,19.79c0.04,4.64 1.61,7.31 5,8.37c1.14,0.36 2.5,0.53 4.07,0.54c1.93,0 3.85,0.01 5.78,0.02c9.81,0.02 19.62,0.05 29.44,0.08l0.91,0z" class="st9"/>
   <path id="svg_14" fill="#AA6B51" d="m238.51,471.97c-4.1,0.85 -8.25,0.38 -12.37,0.37c-22.68,-0.03 -45.36,-0.17 -68.04,-0.26c-1.04,-1.84 -0.77,-3.86 -0.77,-5.83c0,-57.45 -0.02,-114.89 0.02,-172.34c0,-2.93 -0.49,-6.01 1.45,-8.64c2.12,-1.72 4.67,-1.5 7.13,-1.5c21.86,-0.04 43.72,-0.06 65.59,0c7.28,0.02 7.55,0.37 7.55,7.49c0,58.46 0.01,116.93 -0.03,175.39c0,1.77 0.53,3.64 -0.53,5.32z" class="st10"/>
   <path id="svg_15" fill="#955A44" d="m158.93,285.38c0,60.3 0.01,120.6 -0.01,180.9c0,1.96 0.38,4 -0.83,5.8c-12.66,0.55 -25.32,0.34 -37.97,0.1c0,-60.28 0,-120.56 0.01,-180.84c0,-1.98 0.1,-3.97 0.16,-5.95c1.1,-1.18 2.56,-1.47 4.05,-1.49c10.35,-0.15 20.7,-0.21 31.05,0.03c0.99,0.02 1.95,0.29 2.83,0.78c0.25,0.23 0.48,0.45 0.71,0.67z" class="st11"/>
   <path id="svg_16" fill="#BB7B62" d="m238.51,471.97c0.01,-60.55 -0.02,-121.1 0.11,-181.65c0.01,-3.94 -1.1,-5.06 -5.03,-5.03c-24.88,0.17 -49.77,0.09 -74.66,0.09c0,0 0,0 0,0c-1.18,-1.32 -1.48,-2.94 -1.5,-4.61c-0.1,-8.76 -0.15,-17.53 0.03,-26.29c0.04,-1.67 0.36,-3.29 1.4,-4.65c-10.26,0.54 -20.55,0.29 -30.83,0.18c-1.49,-0.02 -2.98,-0.26 -4.05,-1.52c1.54,-1.45 3.46,-0.87 5.22,-0.87c33.63,0.03 67.27,0.09 100.9,0.17c7.38,0.02 9.22,1.93 9.23,9.58c0.04,71.57 0.06,143.15 0.09,214.72c0,0 -0.47,0.06 -0.47,0.06l-0.44,-0.18z" class="st12"/>
   <path id="svg_17" fill="#60B7FD" d="m392.69,285.29c0.03,21.92 0.06,43.84 0.09,65.75c-1.15,2.33 -3.35,2.54 -5.51,2.56c-13.72,0.16 -27.44,0.19 -41.15,-0.01c-5.13,-0.07 -6.47,-1.41 -6.53,-6.61c-0.19,-19 -0.13,-38.01 -0.03,-57.01c0.01,-1.66 0.18,-3.31 1.22,-4.72c1.8,-1.5 3.99,-1.45 6.13,-1.46c13.23,-0.06 26.46,-0.06 39.68,0c2.13,0.01 4.36,-0.16 6.1,1.5z" class="st13"/>
   <path id="svg_18" fill="#60B7FD" d="m392.72,367.08c0.04,19.67 0.12,39.34 0.1,59.02c0,5.42 -2.1,7.54 -7.5,7.55c-14.71,0.04 -29.43,-0.05 -44.14,-0.08c-1.71,-1.7 -1.65,-3.91 -1.66,-6.06c-0.06,-18.07 -0.09,-36.14 0.01,-54.2c0.04,-6.68 1.22,-7.84 7.86,-7.89c13.09,-0.1 26.19,-0.07 39.29,0c2.14,0 4.35,-0.07 6.04,1.66z" class="st13"/>
   <path id="svg_19" fill="#8AC9FE" d="m392.72,367.08c-15.73,-0.02 -31.46,0.04 -47.18,-0.14c-3.5,-0.04 -4.52,1.1 -4.49,4.54c0.16,20.69 0.11,41.39 0.14,62.08c-5.35,0.01 -10.7,0.01 -16.05,0.02c-1.94,-2.24 -1.47,-4.99 -1.47,-7.58c-0.05,-16.35 -0.04,-32.71 -0.02,-49.06c0.01,-8.39 -0.34,-8.51 -7.62,-8.48c-0.99,0 -1.97,-0.19 -2.91,-0.56c-0.6,-0.26 -1.08,-0.67 -1.46,-1.21c-1.22,-5.03 -1.84,-10.05 0.5,-14.97c1.73,-1.24 3.77,-1.32 5.73,-1.19c4.38,0.31 5.78,-1.75 5.76,-5.92c-0.09,-17.24 -0.07,-34.49 -0.02,-51.74c0.01,-2.62 -0.36,-5.34 1.3,-7.71c5.41,-1.9 10.8,-2.49 16.13,0.28c0.02,20.49 0.1,40.99 -0.02,61.48c-0.02,3.63 0.61,5.3 4.83,5.22c14.04,-0.27 28.09,-0.11 42.14,-0.09c1.67,0 3.31,-0.02 4.76,-1.02c-0.01,5.36 -0.03,10.7 -0.05,16.05z" class="st14"/>
   <path id="svg_20" fill="#23A7FD" d="m341.06,285.45c-5.26,0.01 -10.53,0.02 -15.79,0.03c-4.36,2.14 -8.73,2.05 -13.1,0.05c-0.95,-1.03 -1.29,-2.32 -1.33,-3.65c-0.26,-9.08 -0.26,-18.16 0,-27.24c0.06,-2.25 1,-4.15 2.59,-5.61c0.15,-0.24 0.01,0.01 -0.43,0.05c-11.89,1.27 -23.79,2.38 -35.61,-0.58c1.02,-1.15 2.4,-0.95 3.7,-0.95c34.59,0.06 69.19,0.11 103.78,0.23c5.97,0.02 7.95,2.16 7.96,8.19c0,9.76 -0.08,19.53 -0.13,29.29c-17.22,0.09 -34.43,0.14 -51.64,0.19z" class="st15"/>
   <path id="svg_21" fill="#23A7FD" d="m316.08,433.5c-11.88,0.06 -23.75,0.13 -35.63,0.18c-2.83,0.01 -5.24,-0.73 -6.14,-3.84c-0.87,-8.56 -0.25,-17.14 -0.35,-25.7c-0.12,-11.23 0.03,-22.46 -0.07,-33.69c-0.02,-2.67 0.52,-4.7 3.54,-4.81c10.72,-0.4 21.45,-0.52 32.17,0.08c1,0.06 1.86,0.64 2.61,1.32l0,0c1.85,2.05 1.56,4.61 1.57,7.05c0.04,13.85 0.09,27.69 -0.01,41.54c-0.05,6.08 -0.11,12.12 2.31,17.87z" class="st15"/>
   <path id="svg_22" fill="#AA6B51" d="m123.98,248.48c12.03,0 24.05,0 35.72,0c-1.59,12.58 -0.38,24.76 -0.77,36.9c-12.88,0.01 -25.76,0.01 -38.64,0.02c-0.05,-10.31 -0.07,-20.62 -0.2,-30.93c-0.02,-1.72 0.66,-3.17 1.11,-4.72c0.94,-0.43 1.86,-0.85 2.78,-1.27z" class="st10"/>
   <path id="svg_23" fill="#0193F9" d="m277.38,248.53c12.23,0 24.47,0 37.58,0c-2.96,2.87 -2.74,5.97 -2.72,9.07c0.05,9.27 0.02,18.53 0.03,27.8c-0.23,0.21 -0.47,0.42 -0.7,0.63c-2.99,1.36 -6.19,0.94 -9.28,0.84c-9.05,-0.29 -18.14,0.91 -27.16,-0.7c-0.59,-0.32 -0.97,-0.8 -1.14,-1.44c0.19,-11.07 -0.62,-22.15 0.42,-33.21c0.41,-1.58 1.41,-2.57 2.97,-2.99z" class="st16"/>
   <path id="svg_24" fill="#60B7FD" d="m316.08,433.5c-3.17,-1.97 -3.89,-4.91 -3.87,-8.47c0.09,-19.33 0.02,-38.66 0,-57.99c13,-0.11 13.01,-0.11 13,12.81c-0.02,17.91 -0.05,35.83 -0.08,53.74c-3.01,-0.04 -6.03,-0.07 -9.05,-0.09z" class="st13"/>
   <path id="svg_25" fill="#5FB7FD" d="m312.21,367.03c-10.74,0 -21.5,0.26 -32.23,-0.12c-4.77,-0.17 -5.72,1.52 -5.68,5.9c0.19,19 0.03,38.01 0.01,57.02c-1,-0.88 -0.91,-2.07 -0.91,-3.23c0.04,-47.09 0.09,-94.19 0.13,-141.28c0.33,-0.4 0.61,-0.37 0.84,0.09l0,0c1.97,2.21 1.59,4.95 1.6,7.56c0.04,15.38 0,30.76 0.03,46.15c0.01,11.11 -0.61,10.32 10.12,10.36c6.45,0.03 12.9,-0.02 19.35,0.02c2.14,0.01 4.32,-0.14 6.3,0.97c0.62,0.41 0.78,0.96 0.48,1.63c0,4.99 -0.02,9.96 -0.04,14.93z" class="st17"/>
   <path id="svg_26" fill="#23A7FD" d="m274.38,285.41c-0.28,-0.01 -0.56,-0.04 -0.84,-0.09c-0.03,-9.88 -0.07,-19.76 -0.07,-29.64c0,-1.44 -0.34,-3 0.94,-4.18c-0.01,11.31 -0.02,22.61 -0.03,33.91z" class="st15"/>
   <path id="svg_27" fill="#DEEAF9" d="m197.49,383.17c-8.32,-0.09 -15.18,-6.96 -15.19,-15.2c0,-8.47 7.03,-15.33 15.62,-15.24c8.74,0.1 15.2,6.84 15.01,15.68c-0.18,8.46 -6.86,14.84 -15.44,14.76z" class="st3"/>
   <path id="svg_28" fill="#60B7FD" d="m312.27,352.11c-0.01,-0.35 -0.01,-0.7 -0.02,-1.05c-1.71,-1.9 -1.59,-4.27 -1.6,-6.57c-0.04,-17.51 -0.04,-35.02 0,-52.53c0.01,-2.3 -0.11,-4.67 1.62,-6.56c0,0 0,0 0,0c4.33,0.03 8.67,0.06 13,0.09c-0.02,20.38 -0.17,40.77 0.05,61.15c0.05,4.46 -1.25,6 -5.6,5.47c-2.45,-0.3 -4.97,-0.02 -7.45,0z" class="st13"/>
   <path id="svg_29" fill="#23A7FD" d="m312.27,285.39c-0.01,21.89 -0.02,43.78 -0.02,65.67c-11.07,0.01 -22.14,-0.12 -33.2,0.12c-3.77,0.08 -4.74,-1.17 -4.72,-4.82c0.15,-20.32 0.06,-40.63 0.05,-60.95c12.63,0 25.26,-0.01 37.89,-0.02z" class="st15"/>
  </g>
 </g>
</svg>