<svg id="svg" version="1.1" xmlns="http://www.w3.org/2000/svg" xmlns:xlink="http://www.w3.org/1999/xlink" width="400" height="400" viewBox="0, 0, 400,400"><g id="svgg"><path id="path0" d="M256.672 19.061 C 256.523 19.211,256.400 44.503,256.400 75.267 L 256.400 131.200 312.400 131.200 L 368.400 131.200 368.400 75.000 L 368.400 18.800 356.200 18.800 L 344.000 18.800 344.000 37.600 L 344.000 56.400 312.604 56.400 L 281.208 56.400 281.104 37.700 L 281.000 19.000 268.972 18.894 C 262.357 18.836,256.822 18.911,256.672 19.061 M294.000 31.400 L 294.000 43.600 300.000 43.600 L 306.000 43.600 306.000 31.400 L 306.000 19.200 300.000 19.200 L 294.000 19.200 294.000 31.400 M319.200 31.400 L 319.200 43.600 325.000 43.600 L 330.800 43.600 330.800 31.400 L 330.800 19.200 325.000 19.200 L 319.200 19.200 319.200 31.400 M112.300 62.699 L 118.400 62.821 118.406 67.110 C 118.409 69.470,118.547 71.612,118.711 71.870 C 119.012 72.343,118.896 63.836,118.589 62.900 C 118.466 62.524,116.913 62.422,112.313 62.489 L 106.200 62.578 112.300 62.699 M131.359 62.962 C 131.241 63.271,131.218 64.126,131.308 64.862 C 131.457 66.076,131.478 66.044,131.536 64.510 L 131.600 62.821 137.700 62.699 L 143.800 62.578 137.687 62.489 C 132.747 62.417,131.534 62.508,131.359 62.962 M131.668 68.200 C 131.674 68.640,131.824 69.450,132.000 70.000 L 132.320 71.000 132.332 70.000 C 132.338 69.450,132.189 68.640,132.000 68.200 L 131.656 67.400 131.668 68.200 M96.200 69.380 C 94.102 69.896,90.400 71.412,90.400 71.755 C 90.400 71.866,91.345 71.543,92.500 71.038 C 95.353 69.792,96.648 69.543,102.000 69.214 L 106.600 68.932 102.400 68.910 C 100.090 68.898,97.300 69.110,96.200 69.380 M143.634 71.000 C 143.622 71.440,143.787 72.070,144.000 72.400 C 144.514 73.195,144.514 72.196,144.000 71.000 L 143.656 70.200 143.634 71.000 M132.974 72.599 C 133.312 73.409,134.042 74.609,134.595 75.266 C 135.993 76.929,136.025 76.860,131.900 81.076 C 126.879 86.208,127.033 86.149,124.878 83.757 C 123.908 82.681,123.479 82.340,123.923 83.000 C 126.530 86.873,126.546 86.870,131.707 81.693 C 136.638 76.747,136.412 77.303,134.600 74.574 C 133.830 73.414,133.200 72.281,133.200 72.056 C 133.200 71.831,133.011 71.530,132.779 71.387 C 132.548 71.244,132.636 71.790,132.974 72.599 M86.470 75.000 C 84.482 77.175,82.065 81.398,82.537 81.870 C 82.671 82.005,82.892 81.774,83.028 81.357 C 83.701 79.289,85.190 76.840,86.940 74.924 C 88.007 73.756,88.790 72.800,88.680 72.800 C 88.570 72.800,87.575 73.790,86.470 75.000 M119.214 73.505 C 119.206 74.003,119.367 74.723,119.571 75.105 C 119.775 75.487,120.049 76.141,120.180 76.557 C 120.311 76.974,120.502 77.231,120.605 77.129 C 120.707 77.026,120.439 75.966,120.010 74.771 C 119.550 73.493,119.223 72.972,119.214 73.505 M120.800 77.942 C 120.800 78.425,122.770 81.600,123.070 81.600 C 123.204 81.600,121.373 78.208,120.929 77.633 C 120.858 77.542,120.800 77.681,120.800 77.942 M146.012 78.151 C 145.967 79.460,150.884 86.000,151.912 86.000 C 152.152 86.000,153.338 85.010,154.548 83.800 L 156.748 81.600 162.569 81.600 L 168.391 81.600 168.502 97.800 L 168.614 114.000 168.607 97.700 L 168.600 81.400 162.596 81.290 L 156.592 81.180 154.410 83.390 C 153.209 84.606,152.114 85.600,151.975 85.600 C 151.237 85.600,148.229 81.777,146.468 78.600 C 146.224 78.160,146.019 77.958,146.012 78.151 M81.854 83.954 C 81.700 84.918,81.658 85.791,81.761 85.894 C 82.030 86.163,82.515 83.345,82.307 82.722 C 82.212 82.436,82.008 82.990,81.854 83.954 M81.378 100.000 C 81.378 106.930,81.433 109.765,81.499 106.300 C 81.566 102.835,81.566 97.165,81.499 93.700 C 81.433 90.235,81.378 93.070,81.378 100.000 M65.800 94.400 L 65.000 94.744 65.800 94.766 C 66.240 94.778,66.870 94.613,67.200 94.400 C 67.995 93.886,66.996 93.886,65.800 94.400 M68.494 106.143 C 68.409 117.246,68.336 118.461,67.763 118.241 C 67.412 118.107,66.647 117.890,66.063 117.760 C 64.580 117.431,61.714 116.109,61.408 115.613 C 61.268 115.386,60.959 115.200,60.722 115.200 C 59.334 115.200,63.543 117.552,66.173 118.246 C 68.940 118.975,68.825 119.534,68.700 105.974 L 68.588 93.800 68.494 106.143 M182.800 94.400 C 183.130 94.613,183.760 94.778,184.200 94.766 L 185.000 94.744 184.200 94.400 C 183.004 93.886,182.005 93.886,182.800 94.400 M104.700 95.603 C 105.195 96.176,105.600 96.848,105.600 97.098 C 105.600 97.348,105.780 97.664,106.000 97.800 C 106.900 98.356,106.312 97.100,105.100 95.876 C 104.385 95.154,104.205 95.031,104.700 95.603 M154.700 95.603 C 155.195 96.176,155.600 96.848,155.600 97.098 C 155.600 97.348,155.780 97.664,156.000 97.800 C 156.900 98.356,156.312 97.100,155.100 95.876 C 154.385 95.154,154.205 95.031,154.700 95.603 M181.294 106.476 C 181.191 119.554,181.065 118.974,183.851 118.239 C 186.567 117.523,190.788 115.054,190.237 114.504 C 190.136 114.403,189.636 114.714,189.126 115.196 C 188.116 116.152,185.617 117.387,183.937 117.760 C 183.353 117.890,182.590 118.106,182.243 118.239 C 181.679 118.455,181.600 117.223,181.500 106.540 L 181.388 94.600 181.294 106.476 M188.285 96.622 C 188.992 97.179,190.136 98.302,190.827 99.117 C 191.518 99.933,191.896 100.229,191.667 99.775 C 191.207 98.861,187.797 95.597,187.309 95.604 C 187.139 95.607,187.578 96.065,188.285 96.622 M105.400 103.331 C 104.960 104.013,103.988 104.982,103.241 105.485 C 102.493 105.988,102.082 106.400,102.327 106.400 C 102.916 106.400,105.519 104.099,106.048 103.111 C 106.731 101.835,106.263 101.993,105.400 103.331 M155.400 103.331 C 154.960 104.013,153.988 104.982,153.241 105.485 C 152.493 105.988,152.082 106.400,152.327 106.400 C 152.916 106.400,155.519 104.099,156.048 103.111 C 156.731 101.835,156.263 101.993,155.400 103.331 M192.828 103.676 C 192.813 104.268,192.980 104.864,193.200 105.000 C 193.678 105.295,193.678 104.511,193.200 103.400 C 192.893 102.686,192.853 102.715,192.828 103.676 M56.643 103.833 C 56.322 104.668,56.382 108.013,56.733 108.900 C 56.886 109.285,57.011 108.160,57.011 106.400 C 57.011 102.938,57.004 102.892,56.643 103.833 M95.876 105.100 C 97.100 106.312,98.356 106.900,97.800 106.000 C 97.664 105.780,97.348 105.600,97.098 105.600 C 96.848 105.600,96.176 105.195,95.603 104.700 C 95.031 104.205,95.154 104.385,95.876 105.100 M145.876 105.100 C 147.100 106.312,148.356 106.900,147.800 106.000 C 147.664 105.780,147.348 105.600,147.098 105.600 C 146.848 105.600,146.176 105.195,145.603 104.700 C 145.031 104.205,145.154 104.385,145.876 105.100 M193.088 107.733 C 192.610 108.949,192.724 109.973,193.239 109.087 C 193.467 108.696,193.591 108.066,193.515 107.687 C 193.388 107.060,193.351 107.064,193.088 107.733 M58.473 113.000 C 58.723 113.550,59.084 114.000,59.273 114.000 C 59.463 114.000,59.324 113.550,58.963 113.000 C 58.603 112.450,58.243 112.000,58.163 112.000 C 58.083 112.000,58.222 112.450,58.473 113.000 M190.893 113.200 C 190.618 113.640,190.531 114.000,190.700 114.000 C 190.869 114.000,191.232 113.640,191.507 113.200 C 191.782 112.760,191.869 112.400,191.700 112.400 C 191.531 112.400,191.168 112.760,190.893 113.200 M81.680 115.400 C 81.668 116.280,81.803 117.810,81.980 118.800 L 82.300 120.600 82.320 119.000 C 82.332 118.120,82.197 116.590,82.020 115.600 L 81.700 113.800 81.680 115.400 M167.788 117.388 C 167.631 119.064,167.593 120.526,167.703 120.636 C 167.813 120.746,168.031 119.464,168.188 117.788 C 168.345 116.112,168.384 114.650,168.274 114.540 C 168.164 114.430,167.945 115.712,167.788 117.388 M82.618 122.266 C 83.877 127.981,89.020 138.453,91.242 139.826 C 91.487 139.977,90.784 138.774,89.680 137.151 C 87.964 134.630,85.458 129.803,84.410 127.000 C 83.666 125.011,83.200 123.275,83.200 122.495 C 83.200 122.029,83.013 121.532,82.784 121.390 C 82.513 121.223,82.455 121.529,82.618 122.266 M167.049 121.815 C 166.912 122.173,166.818 122.856,166.841 123.333 C 166.867 123.881,167.003 123.686,167.210 122.803 C 167.560 121.316,167.465 120.733,167.049 121.815 M110.270 122.308 C 108.766 123.059,109.109 123.313,110.789 122.693 C 111.861 122.298,112.159 122.301,112.299 122.709 C 112.715 123.928,115.133 126.995,116.409 127.922 L 117.800 128.932 116.400 127.535 C 114.575 125.713,113.775 124.698,113.035 123.267 C 112.275 121.798,111.695 121.597,110.270 122.308 M137.891 122.053 C 137.511 122.266,137.203 122.656,137.206 122.920 C 137.211 123.270,137.292 123.277,137.506 122.946 C 137.668 122.697,138.160 122.422,138.600 122.337 C 139.040 122.251,139.216 122.065,138.991 121.924 C 138.767 121.782,138.272 121.840,137.891 122.053 M107.300 123.744 C 106.805 123.989,106.400 124.332,106.400 124.505 C 106.400 124.679,106.940 124.541,107.600 124.200 C 108.260 123.859,108.800 123.494,108.800 123.390 C 108.800 123.121,108.339 123.230,107.300 123.744 M136.178 124.700 C 135.785 125.305,134.729 126.499,133.832 127.354 C 132.405 128.713,132.363 128.798,133.501 128.026 C 134.653 127.245,136.139 125.561,136.965 124.100 C 137.510 123.135,136.884 123.612,136.178 124.700 M166.160 125.453 C 166.007 126.084,165.456 127.573,164.935 128.761 C 164.415 129.950,164.071 131.005,164.171 131.105 C 164.271 131.205,164.635 130.611,164.980 129.785 C 166.042 127.244,166.836 124.703,166.633 124.499 C 166.526 124.393,166.313 124.822,166.160 125.453 M100.400 127.982 C 100.400 130.775,110.506 142.027,111.828 140.706 C 111.922 140.611,111.144 139.969,110.100 139.279 C 105.649 136.339,100.269 129.560,100.960 127.761 C 101.078 127.453,101.001 127.200,100.787 127.200 C 100.574 127.200,100.400 127.552,100.400 127.982 M149.246 127.914 C 149.221 128.417,148.909 129.272,148.554 129.814 C 148.199 130.356,148.065 130.800,148.256 130.800 C 148.783 130.800,149.687 128.511,149.477 127.707 C 149.338 127.175,149.281 127.226,149.246 127.914 M122.534 130.891 C 123.131 131.271,126.762 131.237,127.770 130.842 C 128.208 130.671,127.144 130.552,125.304 130.567 C 123.524 130.582,122.277 130.728,122.534 130.891 M147.224 131.955 C 146.982 132.408,145.856 133.908,144.723 135.289 C 143.590 136.670,143.152 137.356,143.750 136.813 C 145.274 135.429,148.159 131.625,147.889 131.356 C 147.766 131.232,147.467 131.502,147.224 131.955 M159.798 138.002 C 159.398 138.444,159.166 138.899,159.282 139.015 C 159.397 139.130,159.790 138.769,160.155 138.212 C 160.952 136.996,160.793 136.902,159.798 138.002 M141.429 138.229 C 141.005 138.538,140.736 138.869,140.830 138.963 C 140.924 139.057,141.348 138.881,141.771 138.571 C 142.195 138.262,142.464 137.931,142.370 137.837 C 142.276 137.743,141.852 137.919,141.429 138.229 M94.189 143.189 C 95.711 144.722,97.024 145.909,97.108 145.826 C 97.299 145.634,92.085 140.400,91.703 140.400 C 91.548 140.400,92.667 141.655,94.189 143.189 M155.270 143.073 C 153.879 144.503,152.809 145.742,152.892 145.825 C 152.976 145.909,154.289 144.722,155.811 143.189 C 157.333 141.655,158.403 140.416,158.189 140.436 C 157.975 140.456,156.662 141.643,155.270 143.073 M119.004 143.606 C 119.138 143.823,119.807 144.000,120.490 144.000 C 122.001 144.000,121.849 143.800,120.080 143.463 C 119.255 143.306,118.852 143.360,119.004 143.606 M129.400 143.600 L 128.200 143.905 129.476 143.953 C 130.178 143.979,130.864 143.820,131.000 143.600 C 131.274 143.157,131.140 143.157,129.400 143.600 M231.600 174.588 L 231.600 205.176 233.562 208.088 C 238.419 215.296,241.770 223.761,243.267 232.600 C 243.491 233.920,243.758 239.725,243.861 245.500 L 244.048 256.000 293.824 256.000 L 343.600 256.000 343.600 200.000 L 343.600 144.000 331.200 144.000 L 318.800 144.000 318.800 162.802 L 318.800 181.605 287.500 181.502 L 256.200 181.400 256.096 162.700 L 255.992 144.000 243.796 144.000 L 231.600 144.000 231.600 174.588 M269.200 156.200 L 269.200 168.400 275.000 168.400 L 280.800 168.400 280.800 156.200 L 280.800 144.000 275.000 144.000 L 269.200 144.000 269.200 156.200 M294.000 156.200 L 294.000 168.400 300.000 168.400 L 306.000 168.400 306.000 156.200 L 306.000 144.000 300.000 144.000 L 294.000 144.000 294.000 156.200 M97.774 146.358 C 98.972 148.296,112.564 155.169,113.449 154.285 C 113.557 154.177,112.600 153.761,111.322 153.361 C 108.036 152.330,103.887 150.253,100.449 147.917 C 98.826 146.815,97.623 146.113,97.774 146.358 M150.000 147.663 C 148.065 149.095,141.961 152.285,139.843 152.973 C 139.426 153.108,139.188 153.321,139.312 153.446 C 139.876 154.009,148.725 149.350,151.334 147.116 C 153.196 145.522,152.519 145.800,150.000 147.663 M137.000 154.000 C 136.708 154.473,137.099 154.473,138.200 154.000 C 138.971 153.669,138.969 153.655,138.124 153.628 C 137.642 153.613,137.136 153.780,137.000 154.000 M114.033 154.544 C 114.505 154.950,116.443 155.193,116.210 154.816 C 116.068 154.587,115.483 154.400,114.910 154.400 C 114.336 154.400,113.942 154.465,114.033 154.544 M133.790 154.816 C 133.621 155.089,133.923 155.138,134.666 154.960 C 136.199 154.592,136.344 154.400,135.090 154.400 C 134.517 154.400,133.932 154.587,133.790 154.816 M119.200 155.620 C 120.190 155.797,121.630 155.933,122.400 155.923 L 123.800 155.905 122.600 155.600 C 121.940 155.432,120.500 155.296,119.400 155.297 L 117.400 155.300 119.200 155.620 M127.400 155.600 L 126.200 155.905 127.600 155.923 C 128.370 155.933,129.810 155.797,130.800 155.620 L 132.600 155.300 130.600 155.297 C 129.500 155.296,128.060 155.432,127.400 155.600 M110.006 167.988 C 109.747 168.472,109.647 168.980,109.783 169.117 C 109.920 169.253,110.140 168.951,110.272 168.445 C 110.478 167.658,110.692 167.562,111.756 167.776 C 112.440 167.913,114.080 168.240,115.400 168.503 C 116.722 168.765,121.033 168.980,125.000 168.980 C 128.967 168.980,133.278 168.765,134.600 168.503 C 135.920 168.240,137.560 167.913,138.244 167.776 C 139.308 167.562,139.522 167.658,139.728 168.445 C 139.860 168.951,140.080 169.253,140.217 169.117 C 140.926 168.408,139.495 167.113,138.261 167.347 C 137.568 167.479,135.560 167.856,133.800 168.186 C 129.618 168.968,120.382 168.968,116.200 168.186 C 114.440 167.856,112.432 167.479,111.739 167.347 C 110.710 167.152,110.391 167.270,110.006 167.988 M140.428 171.076 C 140.413 171.558,140.580 172.064,140.800 172.200 C 141.273 172.492,141.273 172.101,140.800 171.000 C 140.469 170.229,140.455 170.231,140.428 171.076 M108.229 174.629 C 108.081 175.215,108.051 175.784,108.161 175.894 C 108.271 176.004,108.481 175.615,108.629 175.029 C 108.776 174.442,108.806 173.873,108.696 173.763 C 108.586 173.653,108.376 174.042,108.229 174.629 M141.228 174.276 C 141.213 174.758,141.380 175.264,141.600 175.400 C 142.073 175.692,142.073 175.301,141.600 174.200 C 141.269 173.429,141.255 173.431,141.228 174.276 M142.028 177.476 C 142.013 177.958,142.180 178.464,142.400 178.600 C 142.873 178.892,142.873 178.501,142.400 177.400 C 142.069 176.629,142.055 176.631,142.028 177.476 M107.354 178.243 C 107.097 179.267,123.769 196.800,125.000 196.800 C 125.224 196.800,129.365 192.799,134.203 187.909 C 139.042 183.019,142.305 179.644,141.457 180.409 C 140.608 181.174,136.653 185.085,132.668 189.100 C 128.682 193.115,125.259 196.400,125.059 196.400 C 123.897 196.400,107.590 179.177,107.834 178.207 C 107.973 177.653,107.981 177.200,107.851 177.200 C 107.721 177.200,107.497 177.669,107.354 178.243 M75.400 191.249 C 74.520 191.412,72.270 191.749,70.400 191.996 C 57.594 193.690,53.221 194.807,46.580 198.084 C 31.485 205.534,21.550 219.869,19.195 237.600 C 18.584 242.193,18.863 315.786,19.501 318.400 C 20.428 322.202,20.710 323.072,21.761 325.360 C 24.606 331.558,29.652 336.889,35.578 339.956 C 42.353 343.463,43.566 343.600,67.945 343.600 C 96.426 343.600,93.600 345.908,93.600 322.646 L 93.600 306.400 62.400 306.400 L 31.200 306.400 31.200 300.000 L 31.200 293.600 37.397 293.600 L 43.594 293.600 43.697 268.700 L 43.800 243.800 50.000 243.800 L 56.200 243.800 56.303 268.700 L 56.406 293.600 62.593 293.600 L 68.779 293.600 68.889 273.100 L 69.000 252.600 69.995 250.652 C 71.299 248.098,74.295 245.446,77.034 244.422 C 80.484 243.131,169.516 243.131,172.966 244.422 C 175.850 245.501,178.892 248.272,180.180 250.994 L 181.200 253.150 181.200 273.375 L 181.200 293.600 187.397 293.600 L 193.594 293.600 193.697 268.700 L 193.800 243.800 200.000 243.800 L 206.200 243.800 206.303 268.700 L 206.406 293.600 212.603 293.600 L 218.800 293.600 218.800 300.000 L 218.800 306.400 200.000 306.400 L 181.200 306.400 181.200 325.026 L 181.200 343.653 193.300 343.503 C 206.786 343.335,207.640 343.205,213.400 340.447 C 222.668 336.008,228.378 328.521,230.593 317.905 C 231.357 314.246,231.509 241.674,230.764 236.707 C 230.031 231.820,229.118 228.321,227.502 224.200 C 222.277 210.874,210.726 199.923,197.200 195.470 C 192.482 193.917,188.746 193.167,180.000 192.016 C 178.130 191.770,175.771 191.432,174.757 191.266 C 172.553 190.903,172.000 191.041,172.000 191.953 C 172.000 192.331,171.847 192.811,171.659 193.020 C 171.471 193.229,171.083 194.300,170.797 195.400 C 170.510 196.500,170.156 197.580,170.010 197.800 C 169.864 198.020,169.498 199.010,169.197 200.000 C 167.688 204.968,160.356 226.602,160.098 226.851 C 159.845 227.094,155.447 225.518,152.000 223.948 C 151.450 223.698,150.640 223.361,150.200 223.200 C 149.006 222.763,147.092 221.953,146.305 221.553 C 145.923 221.359,145.426 221.200,145.201 221.200 C 144.976 221.200,143.938 220.822,142.896 220.360 C 140.709 219.391,141.480 219.704,132.223 216.028 L 125.046 213.179 112.823 218.026 C 106.100 220.691,100.240 223.037,99.800 223.239 C 97.174 224.443,90.160 227.099,89.950 226.969 C 89.813 226.884,87.045 218.812,83.799 209.030 C 80.553 199.249,77.696 191.180,77.449 191.099 C 77.202 191.018,76.280 191.085,75.400 191.249 M106.400 262.400 L 106.400 268.400 125.000 268.400 L 143.600 268.400 143.600 262.400 L 143.600 256.400 125.000 256.400 L 106.400 256.400 106.400 262.400 M168.595 318.600 C 168.595 352.920,168.642 366.901,168.700 349.669 C 168.758 332.436,168.758 304.356,168.700 287.269 C 168.642 270.181,168.595 284.280,168.595 318.600 M81.385 275.200 C 81.385 285.430,81.436 289.615,81.500 284.500 C 81.563 279.385,81.563 271.015,81.500 265.900 C 81.436 260.785,81.385 264.970,81.385 275.200 M268.985 269.300 C 268.880 269.575,268.841 294.820,268.897 325.400 L 269.000 381.000 325.000 381.000 L 381.000 381.000 381.000 325.000 L 381.000 269.000 368.800 269.000 L 356.600 269.000 356.496 287.700 L 356.392 306.400 324.996 306.400 L 293.600 306.400 293.600 287.600 L 293.600 268.800 281.387 268.800 C 271.986 268.800,269.131 268.915,268.985 269.300 M306.800 281.400 L 306.800 293.600 312.600 293.600 L 318.400 293.600 318.400 281.400 L 318.400 269.200 312.600 269.200 L 306.800 269.200 306.800 281.400 M331.600 281.400 L 331.600 293.600 337.600 293.600 L 343.600 293.600 343.600 281.400 L 343.600 269.200 337.600 269.200 L 331.600 269.200 331.600 281.400 M114.700 281.500 C 120.475 281.562,129.925 281.562,135.700 281.500 C 141.475 281.437,136.750 281.386,125.200 281.386 C 113.650 281.386,108.925 281.437,114.700 281.500 M119.800 306.800 C 120.240 306.989,120.960 307.144,121.400 307.144 L 122.200 307.144 121.400 306.800 C 120.960 306.611,120.240 306.456,119.800 306.456 L 119.000 306.456 119.800 306.800 M124.800 308.262 C 124.800 308.463,125.347 308.951,126.015 309.345 C 126.684 309.740,127.700 310.773,128.274 311.640 C 128.848 312.507,129.412 313.122,129.527 313.006 C 129.642 312.891,129.208 312.143,128.562 311.344 C 127.232 309.702,124.800 307.709,124.800 308.262 M130.589 318.800 C 130.589 320.560,130.714 321.685,130.867 321.300 C 131.019 320.915,131.144 319.790,131.144 318.800 C 131.144 317.810,131.019 316.685,130.867 316.300 C 130.714 315.915,130.589 317.040,130.589 318.800 M129.401 323.998 C 129.002 324.882,128.434 325.806,128.138 326.051 C 127.842 326.297,127.600 326.669,127.600 326.878 C 127.600 327.086,127.835 327.019,128.122 326.729 C 128.916 325.925,130.570 322.837,130.334 322.600 C 130.219 322.486,129.799 323.115,129.401 323.998 M126.196 328.006 C 126.058 328.230,125.102 328.851,124.072 329.388 C 123.043 329.924,122.415 330.371,122.677 330.381 C 123.220 330.403,125.933 328.883,126.729 328.112 C 127.019 327.831,127.075 327.600,126.852 327.600 C 126.629 327.600,126.334 327.783,126.196 328.006 M113.400 330.800 L 106.200 331.028 113.400 331.086 C 117.360 331.118,120.960 330.989,121.400 330.800 L 122.200 330.456 121.400 330.514 C 120.960 330.546,117.360 330.675,113.400 330.800 M56.400 368.800 L 56.400 381.200 62.600 381.200 L 68.800 381.200 68.800 368.800 L 68.800 356.400 62.600 356.400 L 56.400 356.400 56.400 368.800 M181.294 368.700 L 181.400 381.000 187.500 381.110 L 193.600 381.221 193.600 368.810 L 193.600 356.400 187.394 356.400 L 181.188 356.400 181.294 368.700 M81.378 368.800 C 81.378 375.510,81.432 378.255,81.499 374.900 C 81.566 371.545,81.566 366.055,81.499 362.700 C 81.432 359.345,81.378 362.090,81.378 368.800 " stroke="none" fill="#dfb26d" fill-rule="evenodd"></path><path id="path1" d="M97.200 19.240 C 90.640 20.532,87.612 21.500,82.800 23.845 C 64.151 32.931,53.459 53.772,57.015 74.104 C 57.728 78.175,59.084 82.800,59.565 82.800 C 59.749 82.800,61.316 82.443,63.049 82.006 C 64.782 81.570,66.965 81.210,67.900 81.206 C 69.252 81.201,69.600 81.056,69.600 80.498 C 69.600 79.453,71.374 74.760,72.607 72.543 C 78.468 62.006,88.345 56.421,101.142 56.406 L 106.484 56.400 106.303 62.500 C 106.204 65.855,106.192 67.196,106.278 65.481 L 106.433 62.361 112.617 62.481 L 118.801 62.600 118.801 59.500 L 118.800 56.400 125.000 56.400 L 131.200 56.400 131.199 59.500 L 131.199 62.600 137.399 62.480 L 143.600 62.361 143.600 66.034 C 143.600 70.300,144.331 73.714,146.075 77.600 C 147.515 80.806,151.050 85.600,151.975 85.600 C 152.114 85.600,153.211 84.602,154.414 83.383 L 156.600 81.166 162.686 81.283 L 168.772 81.400 168.886 78.200 L 169.000 75.000 175.000 75.000 L 181.000 75.000 181.117 78.100 C 181.233 81.175,181.242 81.200,182.317 81.200 C 182.913 81.200,184.660 81.488,186.200 81.840 C 191.233 82.990,190.835 83.233,192.144 78.200 C 198.023 55.582,185.480 30.376,164.400 22.446 C 163.630 22.156,162.640 21.760,162.200 21.565 C 160.864 20.973,156.784 19.955,153.400 19.370 C 149.692 18.728,100.377 18.615,97.200 19.240 M256.185 19.300 C 256.080 19.575,256.041 44.820,256.097 75.400 L 256.200 131.000 256.400 74.900 C 256.510 44.045,256.549 18.800,256.487 18.800 C 256.426 18.800,256.289 19.025,256.185 19.300 M293.781 19.304 C 293.675 19.582,293.638 25.207,293.700 31.804 L 293.812 43.800 293.906 31.500 L 294.000 19.200 299.994 19.200 L 305.988 19.200 306.100 31.500 L 306.212 43.800 306.306 31.300 L 306.400 18.800 300.187 18.800 C 295.558 18.800,293.926 18.929,293.781 19.304 M318.894 31.300 L 318.988 43.800 319.100 31.500 L 319.212 19.200 325.000 19.200 L 330.788 19.200 330.900 31.500 L 331.012 43.800 331.106 31.300 L 331.200 18.800 325.000 18.800 L 318.800 18.800 318.894 31.300 M343.600 37.398 L 343.600 55.995 312.300 56.100 L 281.000 56.205 312.500 56.302 L 344.000 56.400 344.000 37.600 C 344.000 27.260,343.910 18.800,343.800 18.800 C 343.690 18.800,343.600 27.169,343.600 37.398 M368.595 75.000 C 368.595 106.020,368.642 118.769,368.700 103.331 C 368.758 87.893,368.758 62.513,368.700 46.931 C 368.642 31.349,368.595 43.980,368.595 75.000 M156.404 62.500 C 156.409 69.477,156.828 71.405,159.070 74.784 L 160.520 76.968 156.160 81.080 L 151.800 85.192 150.465 83.696 C 146.034 78.730,144.240 73.046,143.777 62.500 L 143.509 56.400 149.955 56.400 L 156.400 56.400 156.404 62.500 M131.249 67.709 C 131.195 69.794,132.861 74.040,134.366 75.656 C 135.492 76.864,135.704 76.512,131.053 81.147 L 126.906 85.280 126.015 84.340 C 124.673 82.924,122.753 80.064,121.491 77.600 C 120.871 76.390,120.481 75.850,120.624 76.400 C 121.043 78.013,123.437 82.058,125.098 83.958 C 126.995 86.128,126.930 86.156,131.900 81.076 C 136.020 76.865,135.991 76.926,134.608 75.282 C 133.250 73.669,132.013 70.652,131.623 68.006 L 131.298 65.800 131.249 67.709 M118.991 70.000 C 119.173 72.319,119.931 75.403,120.242 75.091 C 120.343 74.990,120.237 74.118,120.007 73.154 C 119.777 72.189,119.415 70.590,119.204 69.600 L 118.819 67.800 118.991 70.000 M93.096 69.920 C 88.758 71.679,82.800 77.343,82.800 79.708 C 82.800 79.937,83.488 79.060,84.329 77.759 C 87.038 73.568,91.228 70.590,96.085 69.404 C 97.706 69.009,97.919 68.881,97.000 68.856 C 96.340 68.838,94.583 69.317,93.096 69.920 M82.177 81.043 C 82.044 81.459,81.770 82.213,81.567 82.719 C 81.365 83.224,81.222 84.574,81.249 85.719 L 81.298 87.800 81.646 85.400 C 81.837 84.080,82.176 82.476,82.399 81.835 C 82.621 81.194,82.717 80.584,82.611 80.478 C 82.505 80.372,82.310 80.626,82.177 81.043 M63.400 94.814 C 53.703 99.618,53.679 112.987,63.359 117.727 C 64.564 118.317,66.056 118.784,66.675 118.764 C 67.595 118.735,67.473 118.638,66.000 118.229 C 52.682 114.533,53.645 96.718,67.308 94.022 L 69.000 93.688 67.400 93.656 C 66.380 93.636,64.931 94.056,63.400 94.814 M97.303 94.175 C 92.372 96.902,92.393 103.342,97.341 105.810 C 101.289 107.780,106.400 104.578,106.400 100.135 C 106.400 95.504,101.135 92.055,97.303 94.175 M147.303 94.175 C 142.372 96.902,142.393 103.342,147.341 105.810 C 151.289 107.780,156.400 104.578,156.400 100.135 C 156.400 95.504,151.135 92.055,147.303 94.175 M181.206 94.300 C 181.211 94.882,181.274 94.902,181.581 94.418 C 181.898 93.915,182.239 93.910,184.074 94.378 C 189.665 95.806,193.600 100.789,193.600 106.441 C 193.600 108.279,193.438 108.875,192.095 111.964 C 190.910 114.689,187.642 117.218,184.000 118.229 C 182.502 118.645,182.392 118.734,183.342 118.764 C 190.436 118.986,196.183 108.279,192.843 101.062 C 190.680 96.391,181.176 90.868,181.206 94.300 M102.798 94.847 C 104.556 95.835,106.000 98.159,106.000 100.000 C 106.000 101.841,104.556 104.165,102.798 105.153 C 97.713 108.011,91.986 102.292,94.843 97.208 C 96.503 94.256,99.934 93.237,102.798 94.847 M152.798 94.847 C 154.556 95.835,156.000 98.159,156.000 100.000 C 156.000 101.841,154.556 104.165,152.798 105.153 C 147.713 108.011,141.986 102.292,144.843 97.208 C 146.503 94.256,149.934 93.237,152.798 94.847 M81.228 115.433 C 81.244 117.175,81.412 118.960,81.601 119.400 C 81.807 119.878,81.854 118.668,81.718 116.400 C 81.434 111.695,81.191 111.215,81.228 115.433 M168.279 116.946 C 168.103 118.676,168.044 120.178,168.149 120.282 C 168.460 120.593,168.871 117.132,168.730 115.400 C 168.631 114.189,168.521 114.565,168.279 116.946 M68.778 116.900 C 68.677 117.945,68.720 118.800,68.874 118.800 C 69.360 118.800,69.443 118.245,69.199 116.600 L 68.962 115.000 68.778 116.900 M180.800 117.400 C 180.800 118.170,180.944 118.800,181.120 118.800 C 181.296 118.800,181.366 118.170,181.276 117.400 C 181.186 116.630,181.042 116.000,180.956 116.000 C 180.870 116.000,180.800 116.630,180.800 117.400 M82.046 121.400 C 82.027 122.060,82.187 122.870,82.400 123.200 C 82.890 123.958,82.890 122.730,82.400 121.200 C 82.086 120.220,82.079 120.224,82.046 121.400 M167.448 122.000 C 164.762 134.506,156.064 145.535,144.112 151.590 C 142.400 152.457,141.195 153.174,141.434 153.183 C 144.592 153.305,155.388 145.076,160.068 138.977 C 163.751 134.179,168.422 123.633,167.902 121.290 C 167.810 120.878,167.627 121.164,167.448 122.000 M106.235 124.799 C 99.709 128.047,99.749 127.912,103.746 133.193 C 106.499 136.830,112.410 141.600,114.163 141.600 C 114.488 141.600,114.851 141.759,114.970 141.952 C 115.198 142.320,115.365 142.371,119.600 143.363 C 130.133 145.830,141.271 141.117,147.439 131.582 C 149.946 127.707,149.994 127.803,144.083 124.900 C 138.000 121.913,138.054 121.918,136.828 124.230 C 135.343 127.029,132.177 129.418,128.200 130.738 C 127.345 131.022,127.230 131.146,127.800 131.168 C 130.324 131.267,135.963 127.173,137.361 124.226 C 137.733 123.442,138.249 122.800,138.508 122.800 C 139.350 122.800,148.800 127.773,148.800 128.216 C 148.800 131.772,137.394 142.000,133.428 142.000 C 133.109 142.000,132.748 142.161,132.626 142.358 C 132.373 142.768,130.291 143.114,126.031 143.456 C 118.453 144.064,109.600 140.034,104.591 133.697 C 102.796 131.425,100.903 128.139,101.231 127.863 C 101.579 127.569,111.436 122.800,111.694 122.800 C 111.842 122.800,112.248 123.402,112.597 124.137 C 114.044 127.186,120.180 131.592,122.287 131.096 C 122.799 130.975,122.662 130.845,121.800 130.632 C 118.311 129.772,113.951 126.378,112.817 123.640 C 112.130 121.983,111.764 122.047,106.235 124.799 M82.823 124.491 C 82.703 128.035,88.814 138.410,94.112 143.656 C 98.155 147.659,106.575 153.236,108.501 153.187 C 108.776 153.180,107.380 152.325,105.400 151.287 C 94.954 145.811,87.549 137.297,83.753 126.400 C 83.254 124.970,82.836 124.111,82.823 124.491 M124.305 131.483 C 124.802 131.579,125.522 131.575,125.905 131.475 C 126.287 131.375,125.880 131.296,125.000 131.301 C 124.120 131.305,123.807 131.387,124.305 131.483 M231.200 174.771 C 231.200 195.483,231.337 206.037,231.607 206.204 C 234.010 207.690,240.629 222.042,242.051 228.850 C 243.098 233.865,243.277 235.917,243.532 245.800 L 243.800 256.200 293.800 256.200 L 343.800 256.200 343.800 200.000 L 343.800 143.800 331.300 143.791 L 318.800 143.783 331.200 143.897 L 343.600 144.011 343.600 200.006 L 343.600 256.000 293.824 256.000 L 244.048 256.000 243.861 245.500 C 243.758 239.725,243.491 233.920,243.267 232.600 C 241.770 223.761,238.419 215.296,233.562 208.088 L 231.600 205.176 231.600 174.588 L 231.600 144.000 243.796 144.000 L 255.992 144.000 256.096 162.700 L 256.200 181.400 287.400 181.404 L 318.600 181.407 287.504 181.301 L 256.408 181.195 256.304 162.498 L 256.200 143.800 243.700 143.694 L 231.200 143.589 231.200 174.771 M269.067 143.867 C 268.920 144.013,268.800 149.683,268.800 156.467 L 268.800 168.800 275.000 168.800 L 281.200 168.800 281.200 156.200 L 281.200 143.600 275.267 143.600 C 272.003 143.600,269.213 143.720,269.067 143.867 M293.785 144.094 C 293.677 144.377,293.636 150.007,293.694 156.604 L 293.800 168.600 300.000 168.600 L 306.200 168.600 306.200 156.200 L 306.200 143.800 300.091 143.690 C 295.399 143.605,293.937 143.698,293.785 144.094 M280.800 156.200 L 280.800 168.400 275.000 168.400 L 269.200 168.400 269.200 156.200 L 269.200 144.000 275.000 144.000 L 280.800 144.000 280.800 156.200 M306.000 156.200 L 306.000 168.400 300.000 168.400 L 294.000 168.400 294.000 156.200 L 294.000 144.000 300.000 144.000 L 306.000 144.000 306.000 156.200 M109.400 153.476 C 109.620 153.688,110.610 154.091,111.600 154.372 C 112.590 154.653,113.813 155.045,114.319 155.242 C 114.824 155.439,115.814 155.591,116.519 155.579 C 117.398 155.565,116.732 155.266,114.400 154.626 C 112.530 154.113,110.550 153.557,110.000 153.392 C 109.356 153.198,109.142 153.228,109.400 153.476 M137.800 154.056 C 133.259 155.524,128.576 156.106,123.000 155.897 C 120.140 155.789,118.160 155.846,118.600 156.022 C 119.797 156.503,129.626 156.463,132.069 155.968 C 135.950 155.181,139.980 154.021,140.580 153.518 C 141.133 153.055,140.542 153.169,137.800 154.056 M109.797 167.326 C 109.469 167.794,109.200 168.530,109.200 168.961 C 109.200 169.391,109.025 170.296,108.810 170.972 C 108.336 172.465,107.184 177.024,106.933 178.400 C 106.747 179.422,123.505 196.808,124.983 197.126 C 125.315 197.198,129.409 193.400,134.422 188.369 C 144.106 178.651,143.429 179.723,142.425 175.700 C 141.523 172.090,141.151 170.545,140.828 169.061 C 140.407 167.124,139.666 166.378,138.600 166.815 C 137.843 167.126,137.848 167.145,138.709 167.172 C 139.833 167.207,140.017 167.646,141.625 174.148 L 142.898 179.296 134.152 188.048 C 129.342 192.862,125.224 196.800,125.000 196.800 C 124.776 196.800,120.647 192.851,115.824 188.024 L 107.056 179.249 107.512 177.724 C 108.083 175.816,109.170 171.491,109.588 169.468 C 109.944 167.743,110.251 167.345,111.400 167.123 C 112.148 166.978,112.141 166.951,111.297 166.720 C 110.646 166.542,110.228 166.711,109.797 167.326 M113.000 167.600 C 113.440 167.789,114.340 167.938,115.000 167.932 C 116.170 167.921,116.175 167.912,115.200 167.600 C 113.733 167.130,111.906 167.130,113.000 167.600 M134.800 167.600 C 133.825 167.912,133.830 167.921,135.000 167.932 C 135.660 167.938,136.560 167.789,137.000 167.600 C 138.094 167.130,136.267 167.130,134.800 167.600 M117.400 168.377 C 118.591 168.703,124.686 168.939,124.367 168.648 C 124.275 168.564,122.400 168.395,120.200 168.273 C 117.835 168.141,116.690 168.184,117.400 168.377 M128.000 168.400 L 125.400 168.662 128.400 168.684 C 130.050 168.696,131.940 168.568,132.600 168.400 C 134.162 168.002,131.946 168.002,128.000 168.400 M95.800 188.025 L 94.200 188.286 96.204 188.343 L 98.208 188.400 105.804 196.020 C 112.985 203.223,113.358 203.672,112.624 204.220 C 112.196 204.539,112.039 204.800,112.275 204.800 C 114.601 204.800,113.732 203.539,106.170 195.949 C 97.687 187.432,97.992 187.666,95.800 188.025 M150.770 189.088 C 150.054 189.891,150.009 190.022,150.600 189.588 C 151.040 189.265,151.493 188.877,151.608 188.726 C 151.722 188.575,152.712 188.382,153.808 188.298 L 155.800 188.144 153.770 188.072 C 152.017 188.010,151.607 188.149,150.770 189.088 M91.100 188.832 C 90.715 189.056,90.403 189.456,90.406 189.720 C 90.410 190.048,90.520 190.029,90.754 189.660 C 90.943 189.363,91.705 188.977,92.448 188.801 C 93.546 188.542,93.612 188.476,92.800 188.453 C 92.250 188.437,91.485 188.608,91.100 188.832 M157.520 188.795 C 159.324 189.222,159.344 189.270,158.615 191.415 C 158.262 192.456,158.046 193.380,158.136 193.469 C 158.225 193.558,158.606 192.688,158.983 191.535 C 159.762 189.154,159.309 188.358,157.224 188.441 C 156.333 188.477,156.372 188.523,157.520 188.795 M76.591 190.657 C 76.366 190.739,75.106 190.963,73.791 191.154 C 71.723 191.455,71.617 191.509,73.003 191.551 C 73.884 191.578,75.165 191.439,75.849 191.243 C 77.495 190.771,77.795 191.017,78.611 193.516 C 78.991 194.679,79.372 195.562,79.456 195.477 C 80.252 194.681,77.635 190.277,76.591 190.657 M172.279 190.927 C 171.555 191.500,170.887 193.441,171.557 193.026 C 171.801 192.876,172.000 192.418,172.000 192.010 C 172.000 191.065,172.682 190.833,174.197 191.262 C 174.856 191.448,176.206 191.577,177.197 191.549 C 178.844 191.503,178.778 191.470,176.432 191.166 C 175.020 190.983,173.643 190.748,173.371 190.644 C 173.100 190.540,172.608 190.668,172.279 190.927 M180.400 191.952 C 181.599 192.236,183.947 192.604,189.800 193.423 C 190.911 193.578,190.926 193.565,190.000 193.245 C 188.969 192.888,184.520 192.186,181.000 191.825 C 179.362 191.657,179.253 191.680,180.400 191.952 M64.800 192.402 C 64.200 192.595,64.840 192.637,66.400 192.506 C 67.830 192.386,69.075 192.223,69.167 192.144 C 69.489 191.865,65.788 192.084,64.800 192.402 M59.800 193.196 C 59.302 193.408,59.831 193.451,61.200 193.312 C 62.410 193.189,63.475 193.023,63.567 192.944 C 63.911 192.647,60.567 192.870,59.800 193.196 M91.857 193.900 C 92.178 195.192,93.162 197.546,93.184 197.075 C 93.208 196.589,91.933 192.800,91.746 192.800 C 91.657 192.800,91.707 193.295,91.857 193.900 M55.400 194.102 C 51.433 195.479,50.796 195.729,50.923 195.857 C 51.001 195.934,51.860 195.731,52.832 195.406 C 53.804 195.081,55.590 194.553,56.800 194.234 C 58.345 193.825,58.643 193.657,57.800 193.669 C 57.140 193.678,56.060 193.873,55.400 194.102 M170.436 195.239 C 170.165 196.143,169.839 197.180,169.713 197.542 C 169.561 197.975,169.616 198.063,169.874 197.800 C 170.329 197.335,171.334 194.000,171.092 193.758 C 171.002 193.668,170.706 194.335,170.436 195.239 M192.000 193.887 C 192.550 193.985,194.337 194.498,195.972 195.027 C 199.132 196.050,200.391 196.125,197.509 195.119 C 193.939 193.873,192.914 193.602,191.972 193.654 L 191.000 193.709 192.000 193.887 M47.476 197.087 C 46.417 197.636,45.634 198.168,45.736 198.269 C 45.837 198.370,46.973 197.910,48.260 197.246 C 49.547 196.582,50.330 196.050,50.000 196.064 C 49.670 196.077,48.534 196.538,47.476 197.087 M79.616 196.125 C 79.592 196.611,80.867 200.400,81.054 200.400 C 81.143 200.400,81.093 199.905,80.943 199.300 C 80.622 198.008,79.638 195.654,79.616 196.125 M203.233 197.741 C 203.807 198.228,207.200 200.036,207.200 199.855 C 207.200 199.583,203.857 197.600,203.398 197.600 C 203.216 197.600,203.142 197.664,203.233 197.741 M43.600 199.233 L 42.600 200.048 43.900 199.414 C 44.615 199.065,45.200 198.694,45.200 198.590 C 45.200 198.192,44.563 198.448,43.600 199.233 M93.640 198.800 C 93.608 199.490,94.524 202.257,94.914 202.647 C 95.154 202.888,94.846 201.721,94.003 199.200 C 93.819 198.650,93.656 198.470,93.640 198.800 M138.019 201.781 C 136.309 203.523,136.185 204.800,137.725 204.800 C 137.961 204.800,137.805 204.546,137.380 204.235 C 136.632 203.688,136.645 203.634,137.804 202.514 C 138.462 201.878,139.247 201.052,139.549 200.679 C 140.567 199.420,139.778 199.988,138.019 201.781 M208.394 200.782 C 208.941 201.202,209.468 201.466,209.565 201.369 C 209.791 201.142,208.329 200.027,207.800 200.022 C 207.580 200.020,207.847 200.361,208.394 200.782 M168.200 202.000 C 168.050 202.473,168.017 202.950,168.127 203.060 C 168.237 203.170,168.450 202.873,168.600 202.400 C 168.750 201.927,168.783 201.450,168.673 201.340 C 168.563 201.230,168.350 201.527,168.200 202.000 M38.385 202.832 L 37.000 204.063 38.288 203.213 C 39.430 202.459,40.293 201.600,39.908 201.600 C 39.832 201.600,39.147 202.154,38.385 202.832 M210.800 202.408 C 211.350 202.877,212.250 203.629,212.800 204.080 C 213.350 204.530,215.141 206.181,216.779 207.749 C 218.935 209.812,219.268 210.047,217.984 208.600 C 215.925 206.280,211.762 202.533,210.600 201.954 C 210.025 201.667,210.082 201.795,210.800 202.408 M33.146 207.505 C 31.278 209.427,29.337 211.630,28.833 212.400 C 28.125 213.480,28.263 213.389,29.434 212.000 C 30.269 211.010,32.267 208.864,33.874 207.231 C 35.481 205.598,36.739 204.205,36.669 204.136 C 36.600 204.066,35.014 205.582,33.146 207.505 M83.612 208.400 C 83.612 208.730,83.787 209.270,84.000 209.600 C 84.345 210.133,84.388 210.133,84.388 209.600 C 84.388 209.270,84.213 208.730,84.000 208.400 C 83.655 207.867,83.612 207.867,83.612 208.400 M96.827 208.820 C 96.774 210.032,98.776 211.009,99.364 210.058 C 99.481 209.870,99.165 209.794,98.663 209.890 C 98.002 210.016,97.628 209.808,97.303 209.132 C 97.015 208.535,96.844 208.423,96.827 208.820 M152.832 208.913 C 152.814 209.305,152.395 209.789,151.900 209.988 C 151.291 210.232,151.210 210.357,151.651 210.375 C 152.474 210.407,153.341 209.390,153.069 208.713 C 152.942 208.396,152.851 208.472,152.832 208.913 M84.412 210.800 C 84.412 211.130,84.587 211.670,84.800 212.000 C 85.145 212.533,85.188 212.533,85.188 212.000 C 85.188 211.670,85.013 211.130,84.800 210.800 C 84.455 210.267,84.412 210.267,84.412 210.800 M165.067 211.067 C 164.920 211.213,164.811 211.708,164.825 212.167 C 164.849 212.933,164.882 212.923,165.234 212.042 C 165.626 211.063,165.544 210.589,165.067 211.067 M221.153 212.900 C 225.314 218.434,228.467 225.304,229.801 231.747 C 229.932 232.378,230.135 232.799,230.251 232.682 C 230.885 232.048,227.628 222.681,225.522 219.082 C 224.905 218.028,224.400 217.058,224.400 216.928 C 224.400 216.500,220.207 210.813,219.887 210.807 C 219.715 210.803,220.285 211.745,221.153 212.900 M85.212 213.200 C 85.212 213.530,85.387 214.070,85.600 214.400 C 85.945 214.933,85.988 214.933,85.988 214.400 C 85.988 214.070,85.813 213.530,85.600 213.200 C 85.255 212.667,85.212 212.667,85.212 213.200 M26.439 215.703 C 23.815 220.337,22.738 222.471,22.926 222.659 C 23.040 222.773,23.512 222.010,23.975 220.963 C 24.439 219.915,25.536 217.921,26.415 216.529 C 27.294 215.138,27.875 214.001,27.706 214.003 C 27.538 214.005,26.968 214.770,26.439 215.703 M130.159 215.222 C 131.676 215.879,133.006 216.328,133.114 216.219 C 133.222 216.111,132.881 215.859,132.355 215.659 C 131.830 215.459,130.703 215.004,129.851 214.648 C 128.999 214.291,128.099 214.006,127.851 214.014 C 127.603 214.022,128.641 214.566,130.159 215.222 M86.012 215.600 C 86.012 215.930,86.187 216.470,86.400 216.800 C 86.745 217.333,86.788 217.333,86.788 216.800 C 86.788 216.470,86.613 215.930,86.400 215.600 C 86.055 215.067,86.012 215.067,86.012 215.600 M114.000 217.078 C 113.230 217.414,112.170 217.855,111.645 218.056 C 111.119 218.258,110.774 218.507,110.877 218.611 C 111.047 218.781,115.968 216.942,116.367 216.560 C 116.750 216.192,115.299 216.510,114.000 217.078 M133.600 216.537 C 133.600 216.788,139.242 218.891,139.425 218.708 C 139.524 218.609,138.384 218.049,136.893 217.464 C 134.273 216.436,133.600 216.247,133.600 216.537 M86.812 218.000 C 86.812 218.330,86.987 218.870,87.200 219.200 C 87.545 219.733,87.588 219.733,87.588 219.200 C 87.588 218.870,87.413 218.330,87.200 218.000 C 86.855 217.467,86.812 217.467,86.812 218.000 M162.667 218.267 C 162.520 218.413,162.411 218.908,162.425 219.367 C 162.449 220.133,162.482 220.123,162.834 219.242 C 163.226 218.263,163.144 217.789,162.667 218.267 M105.000 220.800 C 102.360 221.878,100.388 222.769,100.617 222.780 C 101.033 222.800,110.049 219.268,110.367 218.961 C 110.827 218.517,109.368 219.016,105.000 220.800 M142.000 219.795 C 142.000 220.049,144.765 221.203,145.349 221.191 C 145.597 221.186,145.015 220.826,144.056 220.391 C 142.196 219.547,142.000 219.490,142.000 219.795 M87.683 220.800 C 87.793 221.130,88.283 222.613,88.773 224.096 C 89.262 225.578,89.783 226.865,89.931 226.955 C 90.237 227.141,99.371 223.562,99.873 223.060 C 100.053 222.880,99.210 223.127,98.000 223.609 C 96.790 224.090,95.530 224.575,95.200 224.686 C 94.870 224.796,93.837 225.227,92.904 225.643 C 90.128 226.882,90.105 226.865,88.746 222.600 C 88.466 221.720,88.067 220.820,87.859 220.600 C 87.616 220.342,87.553 220.412,87.683 220.800 M161.867 220.667 C 161.720 220.813,161.611 221.308,161.625 221.767 C 161.649 222.533,161.682 222.523,162.034 221.642 C 162.426 220.663,162.344 220.189,161.867 220.667 M150.203 223.205 C 150.337 223.422,150.709 223.600,151.029 223.600 C 151.349 223.600,151.923 223.785,152.305 224.010 C 156.728 226.623,160.842 227.309,160.788 225.424 C 160.781 225.191,160.592 225.315,160.368 225.700 C 159.907 226.491,159.158 226.586,157.995 226.000 C 157.558 225.780,156.842 225.420,156.405 225.200 C 155.968 224.980,155.426 224.800,155.201 224.800 C 154.976 224.800,154.028 224.459,153.096 224.043 C 150.680 222.965,149.918 222.744,150.203 223.205 M161.067 223.067 C 160.920 223.213,160.811 223.708,160.825 224.167 C 160.849 224.933,160.882 224.923,161.234 224.042 C 161.626 223.063,161.544 222.589,161.067 223.067 M21.651 225.356 C 20.728 227.822,20.169 229.907,20.513 229.598 C 20.829 229.314,22.781 223.447,22.614 223.281 C 22.539 223.206,22.106 224.140,21.651 225.356 M19.822 231.422 C 19.672 232.225,19.638 232.972,19.748 233.082 C 19.858 233.192,20.072 232.625,20.222 231.822 C 20.373 231.019,20.406 230.273,20.296 230.163 C 20.186 230.053,19.973 230.619,19.822 231.422 M230.497 234.600 C 230.496 235.480,230.632 236.740,230.800 237.400 C 231.240 239.130,231.255 237.243,230.820 234.800 L 230.500 233.000 230.497 234.600 M19.000 236.000 C 18.844 237.347,18.806 238.539,18.916 238.649 C 19.026 238.759,19.244 237.747,19.400 236.400 C 19.556 235.053,19.594 233.861,19.484 233.751 C 19.374 233.641,19.156 234.653,19.000 236.000 M231.392 277.400 C 231.392 297.200,231.440 305.241,231.500 295.270 C 231.559 285.298,231.559 269.098,231.500 259.270 C 231.440 249.441,231.392 257.600,231.392 277.400 M43.877 243.857 C 43.725 244.009,43.600 255.263,43.600 268.867 L 43.600 293.600 37.400 293.600 L 31.200 293.600 31.200 300.000 L 31.200 306.400 62.400 306.400 L 93.600 306.400 93.600 322.646 C 93.600 345.781,96.615 343.331,67.800 343.607 L 46.200 343.814 67.451 343.907 C 96.805 344.036,94.062 346.266,93.906 322.400 L 93.800 306.200 62.700 306.098 L 31.600 305.995 31.600 300.008 L 31.600 294.021 37.700 293.910 L 43.800 293.800 43.903 268.900 L 44.006 244.000 50.000 244.000 L 55.994 244.000 56.097 268.900 L 56.200 293.800 62.400 293.815 L 68.600 293.830 62.503 293.705 L 56.406 293.580 56.303 268.690 L 56.200 243.800 50.177 243.690 C 46.864 243.629,44.029 243.704,43.877 243.857 M76.970 244.423 C 73.924 245.595,68.832 250.565,69.743 251.477 C 69.854 251.587,70.306 250.968,70.749 250.101 C 71.738 248.161,73.802 246.307,76.305 245.108 L 78.200 244.200 124.472 244.095 C 170.239 243.991,170.767 243.999,172.931 244.808 C 175.530 245.781,178.431 248.215,179.384 250.222 C 179.760 251.016,180.164 251.570,180.280 251.454 C 181.209 250.524,176.055 245.577,172.944 244.413 C 169.607 243.165,80.217 243.174,76.970 244.423 M193.877 243.857 C 193.725 244.009,193.600 255.259,193.600 268.857 L 193.600 293.580 187.300 293.706 L 181.000 293.832 187.400 293.816 L 193.800 293.800 193.903 268.900 L 194.006 244.000 200.000 244.000 L 205.994 244.000 206.097 268.900 L 206.200 293.800 212.400 293.815 L 218.600 293.830 212.503 293.705 L 206.406 293.580 206.303 268.690 L 206.200 243.800 200.177 243.690 C 196.864 243.629,194.029 243.704,193.877 243.857 M69.000 253.200 C 68.848 253.891,68.814 254.547,68.924 254.657 C 69.034 254.767,69.248 254.291,69.400 253.600 C 69.552 252.909,69.586 252.253,69.476 252.143 C 69.366 252.033,69.152 252.509,69.000 253.200 M180.434 252.400 C 180.446 252.730,180.611 253.360,180.800 253.800 L 181.144 254.600 181.166 253.800 C 181.178 253.360,181.013 252.730,180.800 252.400 C 180.455 251.867,180.415 251.867,180.434 252.400 M81.199 256.290 C 81.199 256.460,83.989 256.546,87.399 256.480 L 93.600 256.361 93.606 263.680 C 93.612 271.054,93.786 272.227,95.288 275.028 C 96.838 277.919,101.567 281.245,104.000 281.155 C 104.842 281.124,104.779 281.054,103.600 280.712 C 100.965 279.948,99.488 279.109,97.789 277.411 C 96.271 275.892,95.702 274.975,94.555 272.200 C 94.373 271.760,94.129 267.980,94.012 263.800 L 93.800 256.200 87.500 256.090 C 84.035 256.029,81.200 256.119,81.199 256.290 M106.177 256.514 C 106.067 256.802,106.027 259.639,106.089 262.818 L 106.200 268.600 125.110 268.704 L 144.020 268.808 143.910 262.504 L 143.800 256.200 125.089 256.096 C 109.988 256.012,106.339 256.093,106.177 256.514 M156.203 256.500 C 156.109 256.775,155.979 260.330,155.916 264.400 C 155.747 275.145,153.719 278.624,146.400 280.718 C 145.225 281.054,145.160 281.124,146.000 281.155 C 148.782 281.258,153.637 277.537,155.335 274.000 C 156.115 272.377,156.212 271.426,156.323 264.310 L 156.446 256.420 162.723 256.299 L 169.000 256.178 162.687 256.089 C 157.930 256.022,156.333 256.123,156.203 256.500 M143.600 262.400 L 143.600 268.400 125.000 268.400 L 106.400 268.400 106.400 262.400 L 106.400 256.400 125.000 256.400 L 143.600 256.400 143.600 262.400 M306.494 281.300 L 306.588 293.800 306.700 281.500 L 306.812 269.200 312.600 269.200 L 318.388 269.200 318.500 281.500 L 318.612 293.800 318.706 281.300 L 318.800 268.800 312.600 268.800 L 306.400 268.800 306.494 281.300 M331.294 281.300 L 331.388 293.800 331.500 281.510 L 331.612 269.221 337.706 269.099 L 343.800 268.978 337.500 268.889 L 331.200 268.800 331.294 281.300 M356.267 269.067 C 356.120 269.213,356.000 277.583,356.000 287.667 L 356.000 306.000 325.004 306.000 L 294.008 306.000 293.900 287.500 L 293.792 269.000 293.696 287.700 L 293.600 306.400 324.992 306.400 L 356.385 306.400 356.492 287.600 C 356.552 277.260,356.585 268.800,356.567 268.800 C 356.548 268.800,356.413 268.920,356.267 269.067 M101.800 294.020 C 114.756 294.167,123.203 294.420,124.200 294.691 C 127.474 295.580,128.511 295.993,131.085 297.433 C 142.428 303.776,146.730 318.370,140.684 330.000 C 138.217 334.744,134.744 338.217,130.000 340.684 C 125.496 343.025,122.115 343.600,112.841 343.600 L 104.894 343.600 103.773 345.900 C 100.621 352.364,94.027 356.000,85.454 356.000 C 83.114 356.000,81.200 356.135,81.199 356.300 C 81.198 356.661,90.978 356.253,92.400 355.833 C 97.145 354.432,102.156 350.342,104.170 346.225 L 105.259 344.000 113.210 344.000 C 124.756 344.000,128.697 342.935,134.652 338.208 C 149.928 326.079,145.579 301.522,127.000 295.006 C 123.150 293.656,122.060 293.600,101.480 293.691 L 81.000 293.783 101.800 294.020 M106.181 306.504 C 106.075 306.781,106.036 312.496,106.094 319.204 L 106.200 331.400 113.200 331.415 L 120.200 331.430 113.300 331.306 L 106.400 331.181 106.400 318.791 L 106.400 306.400 113.340 306.400 C 117.292 306.400,120.866 306.589,121.640 306.840 C 126.606 308.445,129.117 310.918,130.738 315.800 C 131.018 316.641,131.144 316.761,131.160 316.200 C 131.255 312.860,126.183 307.514,121.923 306.463 C 119.251 305.804,106.437 305.837,106.181 306.504 M190.928 306.300 C 196.168 306.363,204.628 306.363,209.728 306.300 C 214.827 306.236,210.540 306.185,200.200 306.185 C 189.860 306.185,185.687 306.237,190.928 306.300 M18.880 316.600 C 18.880 317.260,19.024 318.250,19.200 318.800 C 19.511 319.772,19.520 319.767,19.520 318.600 C 19.520 317.940,19.376 316.950,19.200 316.400 C 18.889 315.428,18.880 315.433,18.880 316.600 M230.633 317.600 C 229.120 327.162,223.175 335.328,214.294 340.043 C 212.702 340.888,211.614 341.584,211.875 341.589 C 213.367 341.622,220.106 337.048,222.852 334.139 C 227.101 329.637,232.031 319.002,231.104 316.336 C 231.002 316.041,230.790 316.610,230.633 317.600 M131.301 318.600 C 131.305 319.480,131.387 319.793,131.483 319.295 C 131.579 318.798,131.575 318.078,131.475 317.695 C 131.375 317.313,131.296 317.720,131.301 318.600 M19.634 320.400 C 19.646 320.730,19.811 321.360,20.000 321.800 L 20.344 322.600 20.366 321.800 C 20.378 321.360,20.213 320.730,20.000 320.400 C 19.655 319.867,19.615 319.867,19.634 320.400 M130.632 321.949 C 129.733 325.777,126.320 329.217,122.000 330.651 C 121.053 330.966,120.866 331.130,121.421 331.158 C 124.831 331.332,131.762 324.260,131.100 321.283 C 131.007 320.863,130.827 321.119,130.632 321.949 M20.645 323.600 C 21.601 327.310,26.886 334.528,30.600 337.194 C 31.040 337.510,30.175 336.536,28.678 335.030 C 25.586 331.919,23.382 328.837,21.609 325.144 C 20.937 323.745,20.503 323.050,20.645 323.600 M32.289 338.430 C 32.778 338.939,33.278 339.255,33.401 339.132 C 33.524 339.009,33.124 338.592,32.512 338.206 L 31.400 337.504 32.289 338.430 M34.148 339.515 C 34.446 339.998,37.969 341.764,38.191 341.542 C 38.294 341.440,37.379 340.866,36.159 340.267 C 34.938 339.669,34.033 339.330,34.148 339.515 M38.800 341.727 C 38.800 342.038,42.515 343.112,44.400 343.346 L 46.200 343.569 44.600 343.173 C 43.720 342.955,42.460 342.618,41.800 342.423 C 41.140 342.229,40.195 341.952,39.700 341.808 C 39.205 341.664,38.800 341.628,38.800 341.727 M207.000 342.800 C 205.893 343.082,205.877 343.109,206.800 343.147 C 207.350 343.169,208.070 343.013,208.400 342.800 C 209.081 342.360,208.729 342.360,207.000 342.800 M186.700 343.899 C 189.835 343.967,194.965 343.967,198.100 343.899 C 201.235 343.832,198.670 343.776,192.400 343.776 C 186.130 343.776,183.565 343.832,186.700 343.899 M56.181 356.504 C 56.075 356.781,56.038 362.496,56.100 369.204 L 56.212 381.400 56.306 368.910 L 56.400 356.421 62.500 356.299 L 68.600 356.178 62.487 356.089 C 57.873 356.022,56.327 356.124,56.181 356.504 M187.600 356.294 L 193.600 356.421 193.600 368.830 L 193.600 381.239 187.419 381.120 C 184.019 381.054,181.378 381.140,181.550 381.311 C 181.722 381.482,184.548 381.572,187.831 381.511 L 193.800 381.400 193.800 368.800 L 193.800 356.200 187.700 356.184 L 181.599 356.168 187.600 356.294 M81.462 381.300 C 81.564 381.465,101.156 381.600,125.000 381.600 C 148.844 381.600,168.436 381.465,168.538 381.300 C 168.640 381.135,149.048 381.000,125.000 381.000 C 100.952 381.000,81.360 381.135,81.462 381.300 M59.718 381.498 C 61.433 381.573,64.133 381.572,65.718 381.497 C 67.303 381.421,65.900 381.359,62.600 381.360 C 59.300 381.361,58.003 381.422,59.718 381.498 " stroke="none" fill="#646c7b" fill-rule="evenodd"></path><path id="path2" d="M106.400 66.000 L 106.400 69.200 102.700 69.214 C 92.365 69.253,86.218 73.137,82.781 81.800 C 81.972 83.838,81.816 86.757,81.809 100.000 C 81.800 113.748,82.156 121.002,82.860 121.437 C 83.047 121.553,83.200 122.029,83.200 122.495 C 83.200 126.821,89.196 137.635,94.581 143.019 C 99.915 148.354,110.818 154.400,115.103 154.400 C 115.570 154.400,116.048 154.554,116.165 154.743 C 116.850 155.851,133.150 155.851,133.835 154.743 C 133.952 154.554,134.656 154.400,135.400 154.400 C 136.144 154.400,136.864 154.220,137.000 154.000 C 137.136 153.780,137.599 153.600,138.029 153.600 C 138.459 153.600,139.123 153.438,139.505 153.240 C 139.887 153.042,141.820 152.126,143.800 151.203 C 149.042 148.761,159.122 140.725,159.216 138.913 C 159.225 138.741,159.765 137.977,160.416 137.215 C 161.067 136.453,161.600 135.613,161.600 135.348 C 161.600 135.083,161.744 134.807,161.921 134.733 C 162.426 134.523,165.020 128.865,165.924 126.000 C 168.114 119.057,168.400 115.741,168.400 97.255 L 168.400 81.600 162.574 81.600 L 156.748 81.600 154.548 83.800 C 153.338 85.010,152.151 86.000,151.910 86.000 C 150.538 86.000,145.200 78.029,145.200 75.980 C 145.200 75.551,145.040 75.200,144.844 75.200 C 144.299 75.200,143.936 72.676,143.735 67.500 L 143.553 62.800 137.576 62.800 L 131.600 62.800 131.600 64.794 C 131.600 68.380,132.498 71.245,134.685 74.641 C 135.408 75.764,136.000 76.847,136.000 77.048 C 136.000 77.594,127.463 86.000,126.909 86.000 C 126.024 86.000,120.800 79.170,120.800 78.013 C 120.800 77.780,120.641 77.277,120.447 76.895 C 119.003 74.057,118.715 72.624,118.518 67.300 L 118.352 62.800 112.376 62.800 L 106.400 62.800 106.400 66.000 M104.593 95.331 L 106.400 97.063 106.400 99.984 C 106.400 104.355,104.355 106.400,99.984 106.400 L 97.063 106.400 95.331 104.593 C 93.626 102.813,93.600 102.744,93.600 99.982 C 93.600 93.949,100.225 91.146,104.593 95.331 M154.593 95.331 L 156.400 97.063 156.400 99.984 C 156.400 104.355,154.355 106.400,149.984 106.400 L 147.063 106.400 145.331 104.593 C 139.357 98.357,148.357 89.357,154.593 95.331 M67.200 94.400 C 66.870 94.613,66.212 94.791,65.738 94.794 C 65.264 94.797,64.113 95.205,63.181 95.700 C 53.522 100.831,55.424 115.395,66.063 117.760 C 66.647 117.890,67.412 118.107,67.763 118.241 C 68.337 118.461,68.400 117.278,68.400 106.243 C 68.400 99.509,68.265 94.003,68.100 94.006 C 67.935 94.009,67.530 94.187,67.200 94.400 M181.600 106.200 C 181.600 117.275,181.663 118.461,182.237 118.241 C 182.588 118.107,183.353 117.890,183.937 117.760 C 187.316 117.009,192.000 113.311,192.000 111.395 C 192.000 111.068,192.180 110.800,192.400 110.800 C 192.620 110.800,192.800 110.318,192.800 109.728 C 192.800 109.139,193.019 108.052,193.286 107.312 C 193.668 106.257,193.668 105.800,193.286 105.189 C 193.019 104.761,192.800 103.964,192.800 103.418 C 192.800 100.286,187.851 95.374,184.000 94.682 C 183.450 94.584,182.685 94.370,182.300 94.209 C 181.642 93.932,181.600 94.654,181.600 106.200 M113.035 123.267 C 117.986 132.841,132.438 132.957,136.945 123.459 C 137.309 122.692,137.818 121.994,138.077 121.908 C 138.573 121.742,148.105 126.379,148.333 126.897 C 148.407 127.064,148.722 127.200,149.033 127.200 C 149.970 127.200,149.536 129.667,148.399 130.800 C 148.289 130.910,147.938 131.505,147.620 132.121 C 146.328 134.628,139.506 140.800,138.028 140.800 C 137.793 140.800,137.600 140.980,137.600 141.200 C 137.600 141.420,137.328 141.600,136.995 141.600 C 136.662 141.600,135.987 141.808,135.495 142.062 C 133.541 143.072,133.175 143.200,132.229 143.200 C 131.689 143.200,131.136 143.380,131.000 143.600 C 130.854 143.837,128.404 144.000,125.000 144.000 C 121.596 144.000,119.146 143.837,119.000 143.600 C 118.864 143.380,118.311 143.200,117.771 143.200 C 117.231 143.200,116.387 142.992,115.895 142.738 C 114.018 141.767,113.593 141.600,113.005 141.600 C 112.672 141.600,112.400 141.420,112.400 141.200 C 112.400 140.980,112.207 140.800,111.972 140.800 C 111.224 140.800,107.865 138.337,106.000 136.421 C 101.764 132.068,99.124 127.200,101.000 127.200 C 101.330 127.200,101.600 127.020,101.600 126.800 C 101.600 126.580,101.960 126.400,102.400 126.400 C 102.840 126.400,103.201 126.265,103.203 126.100 C 103.207 125.749,105.137 124.800,105.846 124.800 C 106.114 124.800,106.393 124.665,106.467 124.500 C 106.710 123.953,111.391 121.733,111.915 121.917 C 112.198 122.016,112.702 122.624,113.035 123.267 M110.100 168.657 C 109.825 169.263,109.600 170.253,109.600 170.856 C 109.600 171.459,109.439 172.052,109.242 172.174 C 109.045 172.295,108.791 173.071,108.676 173.897 C 108.561 174.724,108.276 176.266,108.041 177.324 L 107.615 179.249 116.156 187.824 C 120.853 192.541,124.854 196.399,125.048 196.398 C 125.727 196.394,142.844 178.874,142.423 178.614 C 142.190 178.470,142.000 177.744,142.000 177.000 C 142.000 176.256,141.820 175.536,141.600 175.400 C 141.380 175.264,141.200 174.544,141.200 173.800 C 141.200 173.056,141.020 172.336,140.800 172.200 C 140.580 172.064,140.400 171.459,140.400 170.856 C 140.400 168.718,139.545 167.526,138.200 167.790 C 137.540 167.920,135.920 168.240,134.600 168.503 C 133.278 168.765,128.967 168.980,125.000 168.980 C 121.033 168.980,116.722 168.765,115.400 168.503 C 114.080 168.240,112.460 167.920,111.800 167.790 C 110.770 167.588,110.529 167.711,110.100 168.657 M81.600 275.000 L 81.600 293.600 101.980 293.600 C 123.316 293.600,123.887 293.640,128.400 295.428 C 134.013 297.653,140.065 303.619,141.967 308.800 C 142.249 309.570,142.619 310.560,142.787 311.000 C 144.399 315.213,144.399 322.393,142.786 326.600 C 139.552 335.038,135.427 339.169,126.600 342.810 C 124.780 343.561,122.970 343.728,114.205 343.959 C 105.462 344.188,105.002 344.239,104.858 344.991 C 103.702 351.016,94.933 356.400,86.273 356.400 L 81.600 356.400 81.600 368.800 L 81.600 381.200 125.000 381.200 L 168.400 381.200 168.400 318.800 L 168.400 256.400 162.400 256.400 L 156.400 256.400 156.394 263.900 C 156.386 274.275,154.988 277.477,149.232 280.304 L 147.000 281.400 125.000 281.400 L 103.000 281.400 101.062 280.473 C 95.223 277.679,93.600 274.093,93.600 263.988 L 93.600 256.400 87.600 256.400 L 81.600 256.400 81.600 275.000 M106.667 306.667 C 106.520 306.813,106.400 312.320,106.400 318.903 L 106.400 330.874 114.100 330.728 C 125.929 330.505,130.564 327.144,130.552 318.800 C 130.546 314.318,126.707 308.000,123.990 308.000 C 123.770 308.000,123.277 307.841,122.895 307.647 C 120.766 306.566,107.565 305.768,106.667 306.667 " stroke="none" fill="#ecdfce" fill-rule="evenodd"></path><path id="path3" d="M93.600 6.400 C 93.600 6.620,92.700 6.800,91.600 6.800 C 90.500 6.800,89.600 6.980,89.600 7.200 C 89.600 7.420,88.880 7.600,88.000 7.600 C 87.120 7.600,86.400 7.756,86.400 7.946 C 86.400 8.136,85.598 8.401,84.617 8.536 C 83.636 8.670,81.971 9.163,80.917 9.630 C 77.371 11.203,74.000 12.989,74.000 13.296 C 74.000 13.463,73.640 13.600,73.200 13.600 C 72.760 13.600,72.400 13.780,72.400 14.000 C 72.400 14.220,72.080 14.400,71.688 14.400 C 71.297 14.400,70.717 14.760,70.400 15.200 C 70.083 15.640,69.575 16.000,69.272 16.000 C 68.969 16.000,68.217 16.540,67.600 17.200 C 66.983 17.860,66.272 18.400,66.019 18.400 C 65.458 18.400,56.000 27.912,56.000 28.476 C 56.000 28.698,55.460 29.383,54.800 30.000 C 54.140 30.617,53.600 31.369,53.600 31.672 C 53.600 31.975,53.240 32.483,52.800 32.800 C 52.360 33.117,52.000 33.697,52.000 34.088 C 52.000 34.480,51.820 34.800,51.600 34.800 C 51.380 34.800,51.200 35.160,51.200 35.600 C 51.200 36.040,51.048 36.400,50.863 36.400 C 50.677 36.400,50.116 37.255,49.616 38.300 C 49.115 39.345,48.367 40.892,47.953 41.738 C 47.539 42.584,47.200 43.529,47.200 43.838 C 47.200 44.147,47.020 44.400,46.800 44.400 C 46.580 44.400,46.400 44.762,46.400 45.205 C 46.400 45.648,46.242 46.323,46.049 46.705 C 45.480 47.833,44.800 50.196,44.800 51.048 C 44.800 51.484,44.637 52.011,44.439 52.220 C 43.518 53.189,42.730 75.290,43.586 76.146 C 43.814 76.374,44.000 77.334,44.000 78.280 C 44.000 79.226,44.180 80.000,44.400 80.000 C 44.620 80.000,44.800 80.720,44.800 81.600 C 44.800 82.480,44.980 83.200,45.200 83.200 C 45.420 83.200,45.600 83.729,45.600 84.376 C 45.600 85.023,45.780 85.664,46.000 85.800 C 46.220 85.936,46.400 86.476,46.400 87.000 C 46.400 87.524,46.580 88.064,46.800 88.200 C 47.020 88.336,47.200 88.876,47.200 89.400 C 47.200 89.924,47.399 90.476,47.643 90.626 C 47.886 90.777,47.931 91.013,47.743 91.150 C 47.554 91.288,47.158 91.830,46.862 92.355 C 46.567 92.880,45.982 93.920,45.562 94.667 C 45.143 95.414,44.800 96.289,44.800 96.612 C 44.800 96.935,44.620 97.200,44.400 97.200 C 44.180 97.200,44.000 97.729,44.000 98.376 C 44.000 99.023,43.820 99.664,43.600 99.800 C 43.065 100.131,43.065 112.269,43.600 112.600 C 43.820 112.736,44.000 113.377,44.000 114.024 C 44.000 114.671,44.180 115.200,44.400 115.200 C 44.620 115.200,44.800 115.543,44.800 115.962 C 44.800 116.869,46.408 120.000,46.874 120.000 C 47.053 120.000,47.200 120.288,47.200 120.640 C 47.200 120.991,47.740 121.783,48.400 122.400 C 49.060 123.017,49.600 123.680,49.600 123.874 C 49.600 124.069,50.145 124.549,50.811 124.943 C 51.477 125.336,52.459 126.095,52.993 126.629 C 53.527 127.163,54.202 127.600,54.494 127.600 C 54.785 127.600,55.283 127.960,55.600 128.400 C 55.917 128.840,56.497 129.200,56.888 129.200 C 57.280 129.200,57.600 129.380,57.600 129.600 C 57.600 129.820,58.050 130.000,58.600 130.000 C 59.150 130.000,59.600 130.180,59.600 130.400 C 59.600 130.620,60.140 130.800,60.800 130.800 C 61.460 130.800,62.000 130.980,62.000 131.200 C 62.000 131.444,63.867 131.600,66.800 131.600 C 71.333 131.600,71.600 131.644,71.600 132.400 C 71.600 132.840,71.780 133.200,72.000 133.200 C 72.220 133.200,72.400 133.740,72.400 134.400 C 72.400 135.060,72.580 135.600,72.800 135.600 C 73.020 135.600,73.200 135.960,73.200 136.400 C 73.200 136.840,73.380 137.200,73.600 137.200 C 73.820 137.200,74.000 137.560,74.000 138.000 C 74.000 138.440,74.180 138.800,74.400 138.800 C 74.620 138.800,74.800 139.055,74.800 139.368 C 74.800 140.081,76.098 142.394,76.500 142.397 C 76.665 142.399,76.800 142.760,76.800 143.200 C 76.800 143.640,76.950 144.000,77.132 144.000 C 77.315 144.000,77.720 144.492,78.032 145.093 C 78.345 145.694,79.095 146.711,79.700 147.352 C 80.305 147.994,80.800 148.684,80.800 148.887 C 80.800 149.453,88.757 157.132,89.630 157.410 C 90.054 157.544,90.400 157.781,90.400 157.936 C 90.400 158.091,91.030 158.557,91.800 158.972 C 92.570 159.387,93.200 159.878,93.200 160.063 C 93.200 160.248,93.436 160.400,93.725 160.400 C 94.013 160.400,94.636 160.760,95.108 161.200 C 95.580 161.640,96.244 162.000,96.583 162.000 C 97.002 162.000,97.200 162.386,97.200 163.200 C 97.200 163.860,97.020 164.400,96.800 164.400 C 96.580 164.400,96.400 165.120,96.400 166.000 C 96.400 166.880,96.220 167.600,96.000 167.600 C 95.780 167.600,95.600 168.320,95.600 169.200 C 95.600 170.080,95.420 170.800,95.200 170.800 C 94.980 170.800,94.800 171.438,94.800 172.217 C 94.800 174.214,93.828 175.055,91.200 175.334 C 88.995 175.568,84.862 176.123,80.000 176.839 C 78.570 177.049,76.230 177.393,74.800 177.603 C 68.837 178.479,66.069 178.843,63.800 179.049 C 62.480 179.169,61.229 179.432,61.020 179.634 C 60.811 179.835,59.596 180.000,58.320 180.000 C 57.040 180.000,56.000 180.179,56.000 180.400 C 56.000 180.620,55.280 180.800,54.400 180.800 C 53.520 180.800,52.800 180.980,52.800 181.200 C 52.800 181.420,52.181 181.600,51.424 181.600 C 50.667 181.600,49.936 181.780,49.800 182.000 C 49.664 182.220,49.023 182.400,48.376 182.400 C 47.729 182.400,47.200 182.580,47.200 182.800 C 47.200 183.020,46.928 183.200,46.595 183.200 C 46.262 183.200,45.677 183.368,45.295 183.574 C 44.913 183.779,44.015 184.183,43.300 184.471 C 42.585 184.760,42.000 185.131,42.000 185.298 C 42.000 185.464,41.640 185.600,41.200 185.600 C 40.760 185.600,40.400 185.780,40.400 186.000 C 40.400 186.220,40.040 186.400,39.600 186.400 C 39.160 186.400,38.800 186.580,38.800 186.800 C 38.800 187.020,38.440 187.200,38.000 187.200 C 37.560 187.200,37.200 187.380,37.200 187.600 C 37.200 187.820,36.880 188.000,36.488 188.000 C 36.097 188.000,35.517 188.360,35.200 188.800 C 34.883 189.240,34.369 189.600,34.059 189.600 C 33.748 189.600,33.202 189.915,32.846 190.300 C 32.489 190.685,31.726 191.270,31.150 191.600 C 28.754 192.972,20.800 200.299,20.800 201.135 C 20.800 201.338,20.080 202.245,19.200 203.152 C 18.320 204.059,17.600 205.031,17.600 205.312 C 17.600 205.593,17.240 206.083,16.800 206.400 C 16.360 206.717,16.000 207.257,16.000 207.600 C 16.000 207.943,15.640 208.483,15.200 208.800 C 14.760 209.117,14.400 209.607,14.400 209.888 C 14.400 210.170,14.220 210.400,14.000 210.400 C 13.780 210.400,13.600 210.745,13.600 211.167 C 13.600 211.588,13.465 211.993,13.300 212.067 C 12.868 212.259,11.200 215.572,11.200 216.238 C 11.200 216.547,11.020 216.800,10.800 216.800 C 10.580 216.800,10.400 217.072,10.400 217.405 C 10.400 217.738,10.220 218.368,10.000 218.805 C 9.780 219.242,9.410 219.974,9.178 220.431 C 8.945 220.887,8.650 222.147,8.522 223.231 C 8.394 224.314,8.134 225.200,7.944 225.200 C 7.755 225.200,7.600 225.819,7.600 226.576 C 7.600 227.333,7.420 228.064,7.200 228.200 C 6.980 228.336,6.800 229.337,6.800 230.424 C 6.800 231.511,6.620 232.400,6.400 232.400 C 5.847 232.400,5.847 321.058,6.400 321.400 C 6.620 321.536,6.800 322.256,6.800 323.000 C 6.800 323.744,6.980 324.464,7.200 324.600 C 7.420 324.736,7.600 325.287,7.600 325.824 C 7.600 326.361,7.780 326.800,8.000 326.800 C 8.220 326.800,8.401 327.295,8.402 327.900 C 8.404 328.505,8.674 329.516,9.002 330.146 C 9.331 330.776,9.600 331.541,9.600 331.846 C 9.600 332.151,9.780 332.400,10.000 332.400 C 10.220 332.400,10.400 332.760,10.400 333.200 C 10.400 333.640,10.580 334.000,10.800 334.000 C 11.020 334.000,11.200 334.360,11.200 334.800 C 11.200 335.240,11.380 335.600,11.600 335.600 C 11.820 335.600,12.003 335.825,12.007 336.100 C 12.022 337.117,22.197 348.000,23.133 348.000 C 23.324 348.000,24.016 348.511,24.669 349.135 C 25.321 349.759,26.428 350.522,27.128 350.832 C 27.828 351.142,28.400 351.531,28.400 351.698 C 28.400 351.864,28.760 352.000,29.200 352.000 C 29.640 352.000,30.000 352.180,30.000 352.400 C 30.000 352.620,30.360 352.800,30.800 352.800 C 31.240 352.800,31.600 352.980,31.600 353.200 C 31.600 353.420,31.949 353.600,32.376 353.600 C 32.803 353.600,33.264 353.780,33.400 354.000 C 33.536 354.220,34.087 354.400,34.624 354.400 C 35.161 354.400,35.600 354.560,35.600 354.756 C 35.600 355.094,36.472 355.311,39.900 355.825 C 40.725 355.948,41.805 356.249,42.300 356.492 L 43.200 356.935 43.200 375.468 L 43.200 394.000 125.000 394.000 L 206.800 394.000 206.800 375.468 L 206.800 356.935 207.700 356.492 C 208.195 356.249,209.275 355.948,210.100 355.825 C 213.528 355.311,214.400 355.094,214.400 354.756 C 214.400 354.560,214.839 354.400,215.376 354.400 C 215.913 354.400,216.464 354.220,216.600 354.000 C 216.736 353.780,217.197 353.600,217.624 353.600 C 218.051 353.600,218.400 353.420,218.400 353.200 C 218.400 352.980,218.760 352.800,219.200 352.800 C 219.640 352.800,220.000 352.620,220.000 352.400 C 220.000 352.180,220.360 352.000,220.800 352.000 C 221.240 352.000,221.600 351.864,221.600 351.698 C 221.600 351.531,222.185 351.140,222.900 350.828 C 223.615 350.516,224.491 349.932,224.847 349.530 C 225.203 349.129,225.681 348.800,225.911 348.800 C 226.839 348.800,236.853 338.398,237.687 336.569 C 237.930 336.036,238.280 335.600,238.464 335.600 C 238.649 335.600,238.800 335.240,238.800 334.800 C 238.800 334.360,238.980 334.000,239.200 334.000 C 239.420 334.000,239.600 333.640,239.600 333.200 C 239.600 332.760,239.780 332.400,240.000 332.400 C 240.220 332.400,240.400 332.040,240.400 331.600 C 240.400 331.160,240.574 330.800,240.786 330.800 C 240.999 330.800,241.292 329.900,241.438 328.800 C 241.584 327.700,241.860 326.800,242.052 326.800 C 242.243 326.800,242.400 326.361,242.400 325.824 C 242.400 325.287,242.580 324.736,242.800 324.600 C 243.020 324.464,243.200 323.744,243.200 323.000 C 243.200 322.256,243.380 321.536,243.600 321.400 C 243.860 321.239,244.000 312.063,244.000 295.176 L 244.000 269.200 250.000 269.200 L 256.000 269.200 256.000 327.800 C 256.000 366.600,256.135 386.400,256.400 386.400 C 256.620 386.400,256.800 386.760,256.800 387.200 C 256.800 387.640,256.980 388.000,257.200 388.000 C 257.420 388.000,257.600 388.270,257.600 388.600 C 257.600 388.930,257.780 389.200,258.000 389.200 C 258.220 389.200,258.400 389.430,258.400 389.712 C 258.400 389.993,258.782 390.488,259.249 390.812 C 259.716 391.135,260.333 391.625,260.620 391.900 C 260.908 392.175,261.336 392.400,261.571 392.400 C 261.807 392.400,262.000 392.580,262.000 392.800 C 262.000 393.020,262.360 393.200,262.800 393.200 C 263.240 393.200,263.600 393.380,263.600 393.600 C 263.600 393.865,284.333 394.000,325.000 394.000 C 365.667 394.000,386.400 393.865,386.400 393.600 C 386.400 393.380,386.760 393.200,387.200 393.200 C 387.640 393.200,388.000 393.020,388.000 392.800 C 388.000 392.580,388.270 392.400,388.600 392.400 C 388.930 392.400,389.200 392.263,389.200 392.095 C 389.200 391.927,389.605 391.612,390.100 391.395 C 390.595 391.178,391.178 390.595,391.395 390.100 C 391.612 389.605,391.927 389.200,392.095 389.200 C 392.263 389.200,392.400 388.930,392.400 388.600 C 392.400 388.270,392.580 388.000,392.800 388.000 C 393.020 388.000,393.200 387.640,393.200 387.200 C 393.200 386.760,393.380 386.400,393.600 386.400 C 393.865 386.400,394.000 365.667,394.000 325.000 C 394.000 284.333,393.865 263.600,393.600 263.600 C 393.380 263.600,393.200 263.240,393.200 262.800 C 393.200 262.360,393.020 262.000,392.800 262.000 C 392.580 262.000,392.400 261.730,392.400 261.400 C 392.400 261.070,392.220 260.800,392.000 260.800 C 391.780 260.800,391.600 260.570,391.600 260.289 C 391.600 259.715,390.204 258.400,389.595 258.400 C 389.378 258.400,389.200 258.220,389.200 258.000 C 389.200 257.780,388.930 257.600,388.600 257.600 C 388.270 257.600,388.000 257.420,388.000 257.200 C 388.000 256.980,387.640 256.800,387.200 256.800 C 386.760 256.800,386.400 256.620,386.400 256.400 C 386.400 256.141,381.200 256.000,371.600 256.000 L 356.800 256.000 356.800 200.000 L 356.800 144.000 365.200 144.000 C 370.533 144.000,373.600 143.854,373.600 143.600 C 373.600 143.380,373.960 143.200,374.400 143.200 C 374.840 143.200,375.200 143.020,375.200 142.800 C 375.200 142.580,375.478 142.400,375.817 142.400 C 376.471 142.400,377.229 141.873,378.328 140.655 C 378.698 140.246,379.225 139.674,379.500 139.384 C 379.775 139.094,380.000 138.664,380.000 138.429 C 380.000 138.193,380.180 138.000,380.400 138.000 C 380.620 138.000,380.800 137.640,380.800 137.200 C 380.800 136.760,380.980 136.400,381.200 136.400 C 381.465 136.400,381.600 115.667,381.600 75.000 C 381.600 34.333,381.465 13.600,381.200 13.600 C 380.980 13.600,380.800 13.240,380.800 12.800 C 380.800 12.360,380.620 12.000,380.400 12.000 C 380.180 12.000,380.000 11.796,380.000 11.547 C 380.000 10.848,376.587 7.600,375.853 7.600 C 375.494 7.600,375.200 7.420,375.200 7.200 C 375.200 6.980,374.840 6.800,374.400 6.800 C 373.960 6.800,373.600 6.620,373.600 6.400 C 373.600 6.135,352.933 6.000,312.400 6.000 C 271.867 6.000,251.200 6.135,251.200 6.400 C 251.200 6.620,250.840 6.800,250.400 6.800 C 249.960 6.800,249.600 6.980,249.600 7.200 C 249.600 7.420,249.306 7.600,248.947 7.600 C 247.963 7.600,245.064 10.750,244.074 12.896 L 243.200 14.791 243.200 72.796 L 243.200 130.800 234.800 130.800 C 229.467 130.800,226.400 130.946,226.400 131.200 C 226.400 131.420,226.040 131.600,225.600 131.600 C 225.160 131.600,224.800 131.780,224.800 132.000 C 224.800 132.220,224.525 132.400,224.189 132.400 C 223.396 132.400,220.000 135.796,220.000 136.589 C 220.000 136.925,219.820 137.200,219.600 137.200 C 219.380 137.200,219.200 137.560,219.200 138.000 C 219.200 138.440,219.020 138.800,218.800 138.800 C 218.537 138.800,218.400 147.800,218.400 165.000 C 218.400 179.410,218.260 191.200,218.088 191.200 C 217.917 191.200,217.517 190.840,217.200 190.400 C 216.883 189.960,216.303 189.600,215.912 189.600 C 215.520 189.600,215.200 189.420,215.200 189.200 C 215.200 188.980,214.964 188.800,214.675 188.800 C 214.387 188.800,213.764 188.440,213.292 188.000 C 212.820 187.560,212.156 187.200,211.817 187.200 C 211.478 187.200,211.200 187.020,211.200 186.800 C 211.200 186.580,210.855 186.400,210.433 186.400 C 210.012 186.400,209.607 186.265,209.533 186.100 C 209.312 185.601,205.978 184.000,205.162 184.000 C 204.743 184.000,204.400 183.820,204.400 183.600 C 204.400 183.380,204.051 183.200,203.624 183.200 C 203.197 183.200,202.736 183.020,202.600 182.800 C 202.464 182.580,201.924 182.400,201.400 182.400 C 200.876 182.400,200.336 182.220,200.200 182.000 C 200.064 181.780,199.333 181.600,198.576 181.600 C 197.819 181.600,197.200 181.420,197.200 181.200 C 197.200 180.980,196.491 180.800,195.624 180.800 C 194.757 180.800,193.936 180.620,193.800 180.400 C 193.664 180.180,192.573 180.000,191.376 180.000 C 190.179 180.000,189.200 179.835,189.200 179.633 C 189.200 179.431,187.985 179.165,186.500 179.042 C 180.123 178.513,178.579 178.312,178.220 177.966 C 178.011 177.765,176.742 177.600,175.400 177.600 C 174.058 177.600,172.789 177.435,172.580 177.234 C 172.371 177.032,171.120 176.769,169.800 176.649 C 168.480 176.529,166.050 176.246,164.400 176.019 C 162.750 175.792,160.320 175.494,159.000 175.356 C 156.161 175.058,155.200 174.265,155.200 172.217 C 155.200 171.438,155.020 170.800,154.800 170.800 C 154.580 170.800,154.400 170.080,154.400 169.200 C 154.400 168.320,154.220 167.600,154.000 167.600 C 153.780 167.600,153.600 166.880,153.600 166.000 C 153.600 165.120,153.420 164.400,153.200 164.400 C 152.980 164.400,152.800 163.860,152.800 163.200 C 152.800 162.386,152.998 162.000,153.417 162.000 C 153.756 162.000,154.420 161.640,154.892 161.200 C 155.364 160.760,155.987 160.400,156.275 160.400 C 156.564 160.400,156.800 160.220,156.800 160.000 C 156.800 159.780,156.988 159.600,157.217 159.600 C 157.446 159.600,157.851 159.417,158.117 159.193 C 159.940 157.655,160.560 157.200,160.830 157.200 C 161.311 157.200,169.200 149.237,169.200 148.752 C 169.200 148.515,169.695 147.844,170.300 147.260 C 170.905 146.677,171.655 145.705,171.968 145.100 C 172.280 144.495,172.685 144.000,172.868 144.000 C 173.050 144.000,173.200 143.722,173.200 143.383 C 173.200 143.044,173.572 142.369,174.027 141.883 C 174.483 141.397,174.955 140.505,175.077 139.900 C 175.200 139.295,175.458 138.800,175.650 138.800 C 175.843 138.800,176.000 138.440,176.000 138.000 C 176.000 137.560,176.180 137.200,176.400 137.200 C 176.620 137.200,176.800 136.840,176.800 136.400 C 176.800 135.960,176.980 135.600,177.200 135.600 C 177.420 135.600,177.600 135.060,177.600 134.400 C 177.600 133.740,177.780 133.200,178.000 133.200 C 178.220 133.200,178.400 132.840,178.400 132.400 C 178.400 131.644,178.667 131.600,183.200 131.600 C 186.133 131.600,188.000 131.444,188.000 131.200 C 188.000 130.980,188.540 130.800,189.200 130.800 C 189.860 130.800,190.400 130.620,190.400 130.400 C 190.400 130.180,190.850 130.000,191.400 130.000 C 191.950 130.000,192.400 129.820,192.400 129.600 C 192.400 129.380,192.760 129.200,193.200 129.200 C 193.640 129.200,194.000 129.050,194.000 128.868 C 194.000 128.685,194.492 128.280,195.093 127.968 C 195.694 127.655,196.711 126.905,197.352 126.300 C 197.994 125.695,198.685 125.200,198.888 125.200 C 199.314 125.200,200.400 124.187,200.400 123.789 C 200.400 123.642,200.940 123.017,201.600 122.400 C 202.260 121.783,202.800 120.991,202.800 120.640 C 202.800 120.288,202.947 120.000,203.126 120.000 C 203.592 120.000,205.200 116.869,205.200 115.962 C 205.200 115.543,205.380 115.200,205.600 115.200 C 205.820 115.200,206.000 114.671,206.000 114.024 C 206.000 113.377,206.180 112.736,206.400 112.600 C 206.639 112.453,206.800 109.870,206.800 106.200 C 206.800 102.530,206.639 99.947,206.400 99.800 C 206.180 99.664,206.000 99.023,206.000 98.376 C 206.000 97.729,205.820 97.200,205.600 97.200 C 205.380 97.200,205.200 96.935,205.200 96.612 C 205.200 96.289,204.857 95.414,204.438 94.667 C 204.018 93.920,203.433 92.880,203.138 92.355 C 202.842 91.830,202.446 91.288,202.257 91.150 C 202.069 91.012,202.114 90.777,202.357 90.626 C 202.601 90.476,202.800 89.924,202.800 89.400 C 202.800 88.876,202.980 88.336,203.200 88.200 C 203.420 88.064,203.600 87.524,203.600 87.000 C 203.600 86.476,203.780 85.936,204.000 85.800 C 204.220 85.664,204.400 85.023,204.400 84.376 C 204.400 83.729,204.580 83.200,204.800 83.200 C 205.020 83.200,205.200 82.480,205.200 81.600 C 205.200 80.720,205.380 80.000,205.600 80.000 C 205.820 80.000,206.000 79.226,206.000 78.280 C 206.000 77.334,206.186 76.374,206.414 76.146 C 206.686 75.874,206.774 72.435,206.671 66.166 C 206.524 57.214,206.352 55.408,205.200 50.800 C 204.953 49.810,204.651 48.503,204.529 47.895 C 204.407 47.287,204.149 46.692,203.954 46.571 C 203.759 46.451,203.600 45.913,203.600 45.376 C 203.600 44.839,203.420 44.400,203.200 44.400 C 202.980 44.400,202.800 44.164,202.800 43.875 C 202.800 42.917,199.575 36.400,199.101 36.400 C 198.935 36.400,198.800 36.040,198.800 35.600 C 198.800 35.160,198.620 34.800,198.400 34.800 C 198.180 34.800,198.000 34.480,198.000 34.088 C 198.000 33.697,197.640 33.117,197.200 32.800 C 196.760 32.483,196.400 31.975,196.400 31.672 C 196.400 31.369,195.860 30.617,195.200 30.000 C 194.540 29.383,194.000 28.698,194.000 28.476 C 194.000 27.912,184.542 18.400,183.981 18.400 C 183.728 18.400,183.017 17.860,182.400 17.200 C 181.783 16.540,181.031 16.000,180.728 16.000 C 180.425 16.000,179.917 15.640,179.600 15.200 C 179.283 14.760,178.703 14.400,178.312 14.400 C 177.920 14.400,177.600 14.220,177.600 14.000 C 177.600 13.780,177.255 13.600,176.833 13.600 C 176.412 13.600,176.007 13.459,175.933 13.287 C 175.730 12.810,172.832 11.200,172.177 11.200 C 171.860 11.200,171.600 11.020,171.600 10.800 C 171.600 10.580,171.364 10.400,171.075 10.400 C 170.786 10.400,169.799 10.037,168.880 9.593 C 167.961 9.149,166.398 8.675,165.405 8.539 C 164.412 8.403,163.600 8.136,163.600 7.946 C 163.600 7.756,162.880 7.600,162.000 7.600 C 161.120 7.600,160.400 7.420,160.400 7.200 C 160.400 6.980,159.500 6.800,158.400 6.800 C 157.300 6.800,156.400 6.620,156.400 6.400 C 156.400 6.137,145.667 6.000,125.000 6.000 C 104.333 6.000,93.600 6.137,93.600 6.400 M153.400 19.370 C 156.784 19.955,160.864 20.973,162.200 21.565 C 162.640 21.760,163.630 22.156,164.400 22.446 C 185.480 30.376,198.023 55.582,192.144 78.200 C 190.835 83.233,191.233 82.990,186.200 81.840 C 184.660 81.488,182.913 81.200,182.317 81.200 C 181.242 81.200,181.233 81.175,181.117 78.100 L 181.000 75.000 175.000 75.000 L 169.000 75.000 168.771 97.400 C 168.624 111.756,168.381 120.446,168.095 121.600 C 163.880 138.610,152.117 150.822,135.800 155.130 C 128.485 157.061,117.973 156.671,111.000 154.210 C 96.010 148.919,85.641 137.159,81.893 121.200 C 81.271 118.550,81.041 84.180,81.635 82.612 C 85.352 72.808,90.962 68.800,100.968 68.800 L 106.000 68.800 106.002 67.100 C 106.003 66.165,106.120 63.375,106.263 60.900 L 106.522 56.400 101.161 56.406 C 88.343 56.421,78.472 62.000,72.607 72.543 C 71.374 74.760,69.600 79.453,69.600 80.498 C 69.600 81.056,69.252 81.201,67.900 81.206 C 66.965 81.210,64.782 81.570,63.049 82.006 C 61.316 82.443,59.749 82.800,59.565 82.800 C 59.084 82.800,57.728 78.175,57.015 74.104 C 53.459 53.772,64.151 32.931,82.800 23.845 C 87.612 21.500,90.640 20.532,97.200 19.240 C 100.377 18.615,149.692 18.728,153.400 19.370 M281.200 37.400 L 281.200 56.000 312.400 56.000 L 343.600 56.000 343.600 37.400 L 343.600 18.800 356.200 18.800 L 368.800 18.800 368.800 75.001 L 368.800 131.203 312.500 131.101 L 256.200 131.000 256.097 75.400 C 256.041 44.820,256.080 19.575,256.185 19.300 C 256.331 18.915,259.226 18.800,268.787 18.800 L 281.200 18.800 281.200 37.400 M306.400 31.200 L 306.400 43.600 300.000 43.600 L 293.600 43.600 293.600 31.467 C 293.600 24.793,293.720 19.213,293.867 19.067 C 294.013 18.920,296.893 18.800,300.267 18.800 L 306.400 18.800 306.400 31.200 M331.200 31.200 L 331.200 43.600 325.000 43.600 L 318.800 43.600 318.800 31.200 L 318.800 18.800 325.000 18.800 L 331.200 18.800 331.200 31.200 M118.807 61.700 C 118.822 72.127,121.043 79.107,126.013 84.340 L 126.906 85.280 131.053 81.147 C 135.704 76.512,135.492 76.864,134.366 75.656 C 131.940 73.052,131.200 70.095,131.200 63.009 L 131.200 56.400 125.000 56.400 L 118.800 56.400 118.807 61.700 M143.777 62.500 C 144.240 73.046,146.034 78.730,150.465 83.696 L 151.800 85.192 156.160 81.080 L 160.520 76.968 159.070 74.784 C 156.828 71.405,156.409 69.477,156.404 62.500 L 156.400 56.400 149.955 56.400 L 143.509 56.400 143.777 62.500 M68.885 105.500 C 68.970 112.045,69.121 117.670,69.220 118.000 C 69.947 120.425,62.417 118.010,59.548 114.897 C 52.639 107.402,57.608 93.695,67.264 93.613 L 68.729 93.600 68.885 105.500 M186.168 94.569 C 197.966 99.787,195.156 118.800,182.586 118.800 L 180.689 118.800 180.941 116.700 C 181.080 115.545,181.195 109.875,181.197 104.100 L 181.200 93.600 182.589 93.600 C 183.352 93.600,184.963 94.036,186.168 94.569 M97.143 94.863 C 93.080 97.219,93.112 102.854,97.202 105.153 C 100.054 106.756,103.502 105.735,105.153 102.798 C 108.021 97.696,102.201 91.930,97.143 94.863 M147.143 94.863 C 143.080 97.219,143.112 102.854,147.202 105.153 C 150.054 106.756,153.502 105.735,155.153 102.798 C 158.021 97.696,152.201 91.930,147.143 94.863 M106.400 125.238 C 103.870 126.527,101.620 127.647,101.400 127.726 C 100.823 127.933,102.468 131.011,104.591 133.697 C 109.600 140.034,118.453 144.064,126.031 143.456 C 130.291 143.114,132.373 142.768,132.626 142.358 C 132.748 142.161,133.109 142.000,133.428 142.000 C 137.394 142.000,148.800 131.772,148.800 128.216 C 148.800 127.773,139.350 122.800,138.508 122.800 C 138.249 122.800,137.733 123.442,137.361 124.226 C 132.916 133.594,117.057 133.537,112.597 124.137 C 111.798 122.453,111.898 122.435,106.400 125.238 M256.304 162.500 L 256.408 181.200 287.604 181.200 L 318.800 181.200 318.800 162.394 L 318.800 143.589 331.300 143.694 L 343.800 143.800 343.800 200.000 L 343.800 256.200 293.800 256.200 L 243.800 256.200 243.532 245.800 C 243.277 235.917,243.098 233.865,242.051 228.850 C 240.629 222.042,234.010 207.690,231.607 206.204 C 231.337 206.037,231.200 195.483,231.200 174.771 L 231.200 143.589 243.700 143.694 L 256.200 143.800 256.304 162.500 M281.200 156.200 L 281.200 168.800 275.000 168.800 L 268.800 168.800 268.800 156.467 C 268.800 149.683,268.920 144.013,269.067 143.867 C 269.213 143.720,272.003 143.600,275.267 143.600 L 281.200 143.600 281.200 156.200 M306.200 156.200 L 306.200 168.600 300.000 168.600 L 293.800 168.600 293.694 156.604 C 293.636 150.007,293.677 144.377,293.785 144.094 C 293.937 143.698,295.399 143.605,300.091 143.690 L 306.200 143.800 306.200 156.200 M113.269 167.246 C 121.345 168.901,136.081 168.527,139.221 166.587 C 139.700 166.291,140.490 167.523,140.837 169.107 C 141.153 170.552,141.535 172.138,142.425 175.700 C 143.429 179.723,144.106 178.651,134.422 188.369 C 129.409 193.400,125.315 197.198,124.983 197.126 C 123.505 196.808,106.747 179.422,106.933 178.400 C 107.184 177.024,108.336 172.465,108.810 170.972 C 109.025 170.296,109.200 169.391,109.200 168.961 C 109.200 167.989,110.333 166.312,110.796 166.598 C 110.984 166.714,112.097 167.006,113.269 167.246 M106.170 195.949 C 113.687 203.495,114.596 204.800,112.332 204.800 C 112.128 204.800,111.216 205.160,110.306 205.600 C 109.395 206.040,108.502 206.400,108.321 206.400 C 108.139 206.400,107.228 206.740,106.296 207.156 C 105.363 207.571,103.790 208.216,102.800 208.589 C 101.810 208.961,100.394 209.552,99.653 209.901 C 97.520 210.906,97.305 210.637,95.586 204.800 C 95.294 203.810,94.941 202.820,94.800 202.600 C 94.659 202.380,94.310 201.390,94.024 200.400 C 93.738 199.410,93.240 197.881,92.916 197.002 C 89.929 188.884,89.936 188.836,94.294 188.198 C 98.201 187.625,97.282 187.026,106.170 195.949 M156.920 188.363 C 157.975 188.537,159.021 188.861,159.243 189.083 C 159.683 189.523,153.462 208.949,152.559 209.955 C 152.079 210.490,146.457 208.565,139.704 205.556 C 138.772 205.140,137.849 204.800,137.653 204.800 C 135.459 204.800,136.391 203.491,144.046 195.818 C 152.660 187.186,152.019 187.557,156.920 188.363 M82.946 205.461 C 85.556 213.348,87.833 220.160,88.005 220.600 C 88.178 221.040,88.517 221.985,88.760 222.700 C 90.181 226.897,90.148 226.873,92.904 225.644 C 93.837 225.228,97.930 223.581,102.000 221.985 C 106.070 220.389,110.300 218.691,111.400 218.212 C 112.500 217.733,114.030 217.112,114.800 216.830 C 115.570 216.549,116.605 216.157,117.100 215.960 C 121.602 214.161,122.139 213.938,122.895 213.553 C 123.759 213.113,126.509 213.090,127.020 213.518 C 127.229 213.693,128.120 214.078,129.000 214.372 C 129.880 214.667,131.320 215.221,132.200 215.605 C 133.080 215.988,137.760 217.873,142.600 219.793 C 147.440 221.713,152.163 223.625,153.096 224.042 C 154.028 224.459,154.976 224.800,155.201 224.800 C 155.426 224.800,155.923 224.959,156.305 225.153 C 159.457 226.757,160.233 226.714,160.612 224.917 C 160.742 224.303,161.017 223.487,161.224 223.105 C 161.431 222.723,161.600 222.059,161.600 221.629 C 161.600 221.199,161.780 220.736,162.000 220.600 C 162.220 220.464,162.400 219.949,162.400 219.456 C 162.400 218.963,162.548 218.389,162.728 218.180 C 162.908 217.971,163.470 216.450,163.976 214.800 C 164.481 213.150,165.050 211.440,165.239 211.000 C 165.428 210.560,166.956 205.970,168.634 200.800 C 171.996 190.445,172.048 190.357,174.508 190.816 C 175.439 190.989,177.820 191.339,179.800 191.594 C 196.485 193.738,204.094 196.521,212.756 203.646 C 217.171 207.277,224.400 215.526,224.400 216.933 C 224.400 217.061,224.905 218.028,225.522 219.082 C 228.645 224.420,230.607 231.408,231.226 239.400 C 232.021 249.680,231.521 316.805,230.625 320.000 C 227.567 330.906,219.858 339.162,209.800 342.302 C 204.949 343.817,203.031 344.000,191.976 344.000 L 181.192 344.000 181.296 325.100 L 181.400 306.200 200.100 306.096 L 218.800 305.992 218.800 300.006 L 218.800 294.020 212.500 293.910 L 206.200 293.800 206.097 268.900 L 205.994 244.000 200.000 244.000 L 194.006 244.000 193.903 268.900 L 193.800 293.800 187.500 293.910 L 181.200 294.020 181.200 274.470 C 181.200 261.522,181.053 254.460,180.766 253.560 C 179.364 249.164,176.740 246.234,172.931 244.808 C 170.767 243.999,170.239 243.991,124.472 244.095 L 78.200 244.200 76.305 245.108 C 72.621 246.872,70.467 249.496,69.333 253.600 C 68.969 254.916,68.831 260.593,68.818 274.710 L 68.800 294.020 62.500 293.910 L 56.200 293.800 56.097 268.900 L 55.994 244.000 50.000 244.000 L 44.006 244.000 43.903 268.900 L 43.800 293.800 37.700 293.910 L 31.600 294.021 31.600 300.008 L 31.600 305.995 62.700 306.098 L 93.800 306.200 93.906 322.400 C 94.029 341.269,93.930 341.810,90.051 343.435 C 88.377 344.136,48.639 344.272,45.120 343.588 C 42.104 343.003,37.640 341.566,36.000 340.654 C 35.230 340.225,34.238 339.678,33.796 339.437 C 27.634 336.085,22.006 328.640,19.788 320.908 L 18.778 317.388 18.891 275.794 L 19.004 234.200 20.071 230.332 C 21.674 224.518,25.681 215.975,27.878 213.685 C 28.150 213.402,28.687 212.638,29.071 211.987 C 30.308 209.893,37.697 203.069,41.201 200.784 C 49.735 195.219,54.155 193.840,70.800 191.552 C 72.670 191.295,74.830 190.959,75.600 190.805 C 77.930 190.341,77.963 190.407,82.946 205.461 M94.012 263.800 C 94.129 267.980,94.373 271.760,94.555 272.200 C 95.702 274.975,96.271 275.892,97.789 277.411 C 101.481 281.102,102.186 281.200,125.000 281.200 C 145.174 281.200,146.085 281.136,149.519 279.482 C 154.422 277.121,155.740 273.973,155.998 264.000 L 156.200 256.200 162.501 256.090 L 168.802 255.980 168.701 318.690 L 168.600 381.400 125.000 381.400 L 81.400 381.400 81.294 368.700 L 81.189 356.000 85.448 356.000 C 94.027 356.000,100.620 352.366,103.773 345.900 L 104.894 343.600 112.841 343.600 C 120.260 343.600,122.090 343.418,126.200 342.273 C 137.578 339.103,145.516 325.968,143.045 314.400 C 141.848 308.798,139.952 305.211,136.161 301.375 C 132.640 297.813,129.467 296.145,122.954 294.433 C 121.878 294.150,114.355 294.000,101.254 294.000 L 81.200 294.000 81.200 274.990 L 81.200 255.980 87.500 256.090 L 93.800 256.200 94.012 263.800 M143.910 262.504 L 144.020 268.808 125.110 268.704 L 106.200 268.600 106.089 262.818 C 106.027 259.639,106.067 256.802,106.177 256.514 C 106.339 256.093,109.988 256.012,125.089 256.096 L 143.800 256.200 143.910 262.504 M293.904 287.500 L 294.008 306.000 325.000 306.000 L 355.992 306.000 356.096 287.500 L 356.200 269.000 368.700 268.894 L 381.200 268.789 381.200 324.994 L 381.200 381.200 325.000 381.200 L 268.800 381.200 268.800 324.994 L 268.800 268.789 281.300 268.894 L 293.800 269.000 293.904 287.500 M318.800 281.200 L 318.800 293.600 312.600 293.600 L 306.400 293.600 306.400 281.200 L 306.400 268.800 312.600 268.800 L 318.800 268.800 318.800 281.200 M343.600 281.200 L 343.600 293.600 337.400 293.600 L 331.200 293.600 331.200 281.200 L 331.200 268.800 337.400 268.800 L 343.600 268.800 343.600 281.200 M121.923 306.463 C 131.114 308.730,134.481 320.323,127.992 327.362 C 124.724 330.908,123.018 331.400,114.000 331.400 L 106.200 331.400 106.094 319.204 C 106.036 312.496,106.075 306.781,106.181 306.504 C 106.437 305.837,119.251 305.804,121.923 306.463 M68.600 368.800 L 68.600 381.400 63.200 381.515 C 60.230 381.579,57.395 381.530,56.900 381.408 L 56.000 381.185 56.000 368.859 C 56.000 362.080,56.125 356.409,56.277 356.257 C 56.429 356.104,59.264 356.029,62.577 356.090 L 68.600 356.200 68.600 368.800 M193.800 368.800 L 193.800 381.400 187.600 381.400 L 181.400 381.400 181.294 369.204 C 181.236 362.496,181.277 356.777,181.385 356.494 C 181.537 356.098,183.000 356.005,187.691 356.090 L 193.800 356.200 193.800 368.800 " stroke="none" fill="#040404" fill-rule="evenodd"></path><path id="path4" d="M92.400 188.872 C 91.630 189.092,90.944 189.326,90.876 189.393 C 90.762 189.505,96.307 206.426,97.269 208.900 C 97.775 210.201,98.245 210.251,100.504 209.245 C 101.437 208.829,104.540 207.551,107.400 206.404 C 110.260 205.257,112.775 204.153,112.988 203.951 C 113.232 203.720,110.554 200.759,105.792 195.992 L 98.208 188.400 96.004 188.436 C 94.792 188.456,93.170 188.652,92.400 188.872 M144.244 196.036 C 139.910 200.403,136.840 203.796,137.044 203.994 C 137.240 204.185,138.840 204.897,140.600 205.578 C 142.360 206.259,144.700 207.196,145.800 207.660 C 146.900 208.125,148.160 208.637,148.600 208.799 C 149.040 208.961,149.883 209.321,150.473 209.600 C 151.063 209.878,151.783 210.015,152.073 209.903 C 152.468 209.750,159.200 190.454,159.200 189.475 C 159.200 189.104,155.573 188.400,153.723 188.412 L 151.800 188.424 144.244 196.036 " stroke="none" fill="#f9c12b" fill-rule="evenodd"></path></g></svg>