<svg width="512" height="512" xmlns="http://www.w3.org/2000/svg" xml:space="preserve" version="1.1">

 <g>
  <title>Layer 1</title>
  <g id="svg_1">
   <path id="svg_2" fill="#FEFEFE" d="m183.97,321.82c-45.12,48.88 -90.25,97.75 -135.37,146.64c-14.87,16.12 -39.73,12.12 -46.5,-7.5c-1.48,-0.94 -0.28,-3.19 -1.98,-4.02c2.36,0 1.98,2.1 2.67,3.39c0.05,0.09 0.1,0.18 0.16,0.26c0.1,0.22 0.2,0.44 0.3,0.66c8.89,18.9 31.64,21.62 45.29,5.6c9.16,-10.74 19.1,-20.82 28.67,-31.22c14.74,-16.02 29.56,-31.97 44.26,-48.03c8.87,-9.69 17.79,-19.33 26.74,-28.94c10.76,-11.55 21.43,-23.19 32.15,-34.79c0.95,-1.03 1.84,-2.08 3.16,-2.53c0.18,-0.06 0.38,-0.11 0.58,-0.15c0.09,-0.01 0.18,-0.03 0.28,-0.04c1.72,-0.09 3.22,0.69 4.77,1.22c6.59,2.26 11.98,0.11 16.64,-4.55c4.67,-4.65 4.72,-10.26 3.03,-16.13c-0.49,-1.72 -1.69,-3.25 -1.44,-5.18c0.05,-0.09 0.1,-0.17 0.17,-0.26c0.08,-0.15 0.17,-0.3 0.28,-0.44c2.98,-4.57 7.86,-7.14 11.83,-10.65c10.93,-9.65 22.31,-18.76 33.43,-28.18c1.38,-1.18 2.79,-2.41 4.49,-3.14c0.03,-0.03 0.05,-0.04 0.08,-0.04c0.11,-0.06 0.23,-0.1 0.35,-0.15c2.93,0.64 4.72,2.49 6.17,4.69c0.17,0.26 0.34,0.53 0.51,0.81c0.37,0.6 0.72,1.23 1.07,1.86c0.94,3.51 3.32,5.63 6.59,6.97c3.23,1.34 6.59,2.4 9.71,3.96c6.5,3.25 11.83,1.4 16.87,-3.13c2.8,-2.51 4.76,-6.09 8.74,-7.18c0.14,0.1 0.28,0.21 0.42,0.31c0.07,0.05 0.13,0.09 0.19,0.15c7.83,5.79 14.07,13.22 20.74,20.21c0.38,0.4 0.59,0.9 0.68,1.44c0.04,0.2 0.06,0.42 0.06,0.63c0.01,0.25 -0.01,0.51 -0.05,0.76c-0.41,1.9 -1.85,3.09 -3.07,4.44c-5.61,6.22 -5.97,14.88 -0.9,20.87c6.63,7.83 15.44,9.69 22.97,4.85c1.55,-1 2.91,-2.22 4.21,-3.51c28.22,-28.21 56.42,-56.44 84.64,-84.65c9.47,-9.45 8.14,-22.16 -5.82,-29.18c-5.8,-2.92 -11.28,-1.76 -16.09,2.6c-1.7,1.54 -3.04,3.59 -5.53,4.06c-0.2,0 -0.38,-0.01 -0.56,-0.04c-0.23,-0.03 -0.44,-0.08 -0.65,-0.16c-1.03,-0.34 -1.85,-1.09 -2.62,-1.85c-5.66,-5.57 -11.27,-11.18 -16.83,-16.85c-0.9,-0.92 -1.83,-1.87 -2.08,-3.09c-0.06,-0.29 -0.08,-0.59 -0.06,-0.91l0,-0.01c0.01,-0.24 0.06,-0.49 0.13,-0.75c1.67,-2.94 4.38,-4.94 6.67,-7.32c4.73,-4.91 6.28,-10.35 3.4,-16.8c-1.48,-3.33 -2.68,-6.79 -4.12,-10.14c-1.45,-3.4 -3.68,-5.87 -7.35,-6.84c-0.51,-0.24 -1,-0.51 -1.47,-0.8c-0.3,-0.17 -0.6,-0.36 -0.89,-0.56c-3.67,-2.47 -6.38,-6.05 -9.53,-9.1c-4.17,-4.03 -8.4,-8.02 -12.19,-12.44c-0.18,-0.17 -0.36,-0.33 -0.54,-0.5c-0.24,-0.22 -0.48,-0.44 -0.72,-0.67c-6.16,-5.73 -11.95,-11.85 -17.98,-17.72c-1.14,-1.11 -2.14,-2.29 -2.97,-3.57c-0.21,-0.29 -0.39,-0.59 -0.55,-0.9c-0.46,-0.79 -0.85,-1.62 -1.17,-2.5c-1.29,-3.34 -3.83,-5.28 -7.08,-6.5c-2.94,-1.11 -5.91,-2.18 -8.75,-3.52c-6.6,-3.12 -12.12,-1.46 -17.26,3.25c-2.76,2.52 -4.71,6.07 -8.69,7.12c-0.11,-0.08 -0.23,-0.17 -0.34,-0.26c-0.12,-0.07 -0.23,-0.16 -0.34,-0.25c-7.76,-5.8 -14,-13.19 -20.65,-20.15c-0.37,-0.39 -0.59,-0.88 -0.68,-1.42c-0.04,-0.2 -0.06,-0.41 -0.06,-0.62c-0.01,-0.26 0.01,-0.53 0.05,-0.79c0.41,-1.9 1.85,-3.09 3.07,-4.44c5.62,-6.22 6,-14.83 0.94,-20.84c-6.62,-7.85 -15.44,-9.73 -22.98,-4.9c-1.69,1.08 -3.15,2.44 -4.57,3.85c-28.12,28.12 -56.24,56.23 -84.34,84.37c-4.47,4.48 -7.27,9.69 -5.37,16.17c2.06,7.01 6.59,11.86 13.82,13.76c5.3,1.4 9.81,-0.4 13.84,-3.78c1.63,-1.37 2.88,-3.28 5.21,-3.68c0.17,0 0.33,0.02 0.48,0.04c0.23,0.04 0.45,0.09 0.66,0.16c1.39,0.44 2.38,1.57 3.4,2.58c5.19,5.13 10.37,10.28 15.49,15.5c1.09,1.12 2.38,2.2 2.67,3.74c0,0.01 0,0.01 0,0.01c0.06,0.29 0.08,0.59 0.05,0.92c-0.02,0.27 -0.07,0.56 -0.16,0.86c-1.73,2.89 -4.39,4.95 -6.71,7.3c-4.75,4.82 -5.54,10.34 -3.33,16.52c1.01,2.81 2.53,5.44 3.43,8.27c1.48,4.66 4.22,7.8 9.07,8.92c0.29,0.22 0.59,0.43 0.88,0.65c0.22,0.16 0.44,0.33 0.66,0.51c1.84,1.41 3.49,3 4.16,5.43c-0.05,0.2 -0.1,0.4 -0.15,0.6c-0.01,0.04 -0.03,0.08 -0.04,0.12c-1.43,4.82 -5.81,7.58 -8.47,11.55c-0.99,1.48 -2.35,2.72 -3.35,4.23c-0.04,0.05 -0.08,0.09 -0.12,0.14c-0.12,0.14 -0.24,0.28 -0.36,0.42c-8.26,9.53 -16.18,19.34 -24.28,28.99c-1.65,1.97 -3.08,4.16 -5.5,5.25c-0.03,0.02 -0.06,0.04 -0.09,0.05c-0.19,0.08 -0.37,0.15 -0.57,0.22c-2.08,0.03 -3.77,-1.14 -5.63,-1.79c-6.14,-2.15 -11.47,-0.59 -15.95,3.77c-4.54,4.42 -5.95,9.77 -3.74,15.9c0.61,1.69 1.59,3.31 1.32,5.23c-0.11,0.16 -0.22,0.31 -0.34,0.47c-0.02,0.04 -0.05,0.08 -0.09,0.12c-4.68,6.44 -11.22,11.02 -16.95,16.37c-5.94,5.55 -11.99,11.02 -17.93,16.56c-19.66,18.37 -39.57,36.47 -59.23,54.85c-17.11,15.99 -34.58,31.59 -51.54,47.73c-3.77,3.58 -7.25,7.32 -9.12,12.31c-0.36,0.98 -0.71,2.36 -2.36,1.98c3.37,-9.02 10.27,-15.16 17.11,-21.46c45.71,-42.08 91.34,-84.25 137.01,-126.38c0.85,-0.79 1.77,-1.49 2.66,-2.23c-0.46,-1.23 -0.88,-2.47 -1.38,-3.69c-2.88,-7.03 -1.41,-14.15 3.99,-19.22c5.25,-4.93 12.84,-5.98 19.46,-2.67c1.04,0.52 2.03,1.12 3.05,1.68c9.9,-11.69 19.8,-23.37 29.7,-35.06c4.16,-5.24 8.32,-10.47 12.47,-15.7c-1.75,-2.02 -3.51,-4.03 -5.27,-6.05c-4.65,-0.27 -7.68,-2.6 -9.3,-7c-1.43,-3.9 -3.1,-7.71 -4.68,-11.55c-2.47,-6.05 -1.48,-11.37 3.26,-15.95c2.63,-2.53 5.24,-5.1 7.86,-7.65c-0.39,-2.95 -3.01,-4.19 -4.79,-6c-5.64,-5.74 -11.46,-11.31 -17.21,-16.94c-5.35,5.57 -11.09,10.28 -19.59,8.13c-7.35,-1.86 -12.19,-6.62 -14.52,-13.71c-2.33,-7.09 0.19,-12.97 5.28,-18.05c28.46,-28.44 56.89,-56.91 85.36,-85.35c8.57,-8.55 18.58,-8.69 26.75,-0.47c8.02,8.06 7.88,17.95 -0.38,26.39c-0.7,0.71 -1.42,1.4 -2.13,2.09c4.03,6.14 10.02,10.45 14.87,15.82c2.09,2.32 4.25,4.58 6.38,6.86c3.88,-1.81 6.19,-5.39 9.14,-8.23c4.71,-4.52 9.89,-5.71 15.92,-3.2c3.98,1.65 7.96,3.25 11.94,4.89c3.25,1.33 5.66,3.42 6.25,7.09l0,0.01c1.73,4.13 5.4,6.61 8.36,9.67c4.96,5.12 10.1,10.08 15.16,15.11c7.58,7.59 15.17,15.18 22.76,22.78c4.47,0.31 7.21,2.75 8.76,6.86c1.46,3.86 3.05,7.66 4.65,11.46c2.54,5.98 1.59,11.28 -2.99,15.89c-2.67,2.69 -5.41,5.31 -8.13,7.96c2.1,4.51 6.3,7.16 9.56,10.62c3.99,4.22 8.27,8.17 12.43,12.24c3.23,-2.83 5.97,-6.28 10.25,-7.73c8.05,-2.73 16.64,0.65 21.9,8.68c4.38,6.68 3.77,14.98 -1.85,21.14c-3.7,4.06 -7.7,7.82 -11.58,11.7c-25.28,25.29 -50.54,50.58 -75.85,75.83c-5.96,5.94 -13.77,7.38 -20.54,4.07c-7.54,-3.69 -12.09,-11.57 -11.27,-19.47c0.6,-5.73 4.18,-9.6 8.22,-13.19c-2.99,-5.3 -8.09,-8.66 -12.06,-13.07c-2.98,-3.32 -6.14,-6.48 -9.22,-9.71c-3.69,1.78 -5.94,5.19 -8.75,7.93c-4.93,4.81 -10.32,6.23 -16.75,3.29c-3.61,-1.65 -7.33,-3.07 -11.04,-4.48c-3.9,-1.48 -6.37,-4.05 -6.9,-8.28c-1.87,-2.37 -3.89,-4.59 -6.34,-6.37c-16.68,13.93 -33.35,27.86 -50.02,41.79c0.46,3.43 2.93,6.1 3.07,9.78c0.54,13.69 -11.88,22.48 -24.45,17.07c-0.9,-0.39 -1.82,-0.73 -2.74,-1.09z" class="st0"/>
   <path id="svg_3" fill="#FEFEFE" d="m444.59,337.25c0.54,-4.73 1.82,-9.45 3.35,-13.98c1.41,-4.13 5.05,-5.12 9,-4.24c3.81,0.86 5.31,3.67 5.12,8.56c-0.45,3.7 -1.62,8.38 -3.24,12.89c-1.39,3.85 -4.69,5.09 -8.5,4.36c-4.04,-0.76 -6.17,-3.83 -5.73,-7.59z" class="st0"/>
   <path id="svg_4" fill="#FEFEFE" d="m469.58,358.44c-1.59,-2.87 -1.61,-5.86 0.4,-8.4c2.98,-3.77 6.33,-7.25 10.3,-10.01c2.59,-1.8 5.37,-1.51 7.95,0.07c2.44,1.5 3.68,3.81 3.57,6.68c-0.18,4.47 -11.13,15.11 -16.35,15.26c-2.13,0.02 -4.44,-1.02 -5.87,-3.6z" class="st0"/>
   <path id="svg_5" fill="#FEFEFE" d="m502.05,462.99c2.99,6.95 -0.55,13.22 -7.96,15.05c-9.57,1.61 -19.2,0.43 -28.8,0.6c-2.49,0.05 -4.98,-0.29 -7.48,-0.29c-87.45,-0.01 -174.91,-0.01 -262.36,-0.01c-1.83,0 -3.67,0.07 -5.5,-0.06c-8.07,-0.59 -12.83,-7.88 -9.62,-15.32c3.94,-9.16 7.88,-18.38 12.68,-27.09c9.28,-16.86 23.87,-26.39 42.97,-28.96c0.12,-4.15 0.29,-8.29 0.35,-12.44c0.14,-10.25 4.03,-14.21 14.24,-14.21c47.88,-0.02 95.77,0.01 143.66,-0.02c12.63,-0.01 25.27,-0.17 37.9,-0.2c1.94,0 4.02,-0.53 5.75,0.93c5.51,1.31 7.76,5.2 7.98,10.46c0.21,5.13 0.16,10.26 0.23,15.39c19.32,2.22 33.8,12.02 43.21,28.79c4.92,8.76 8.78,18.13 12.75,27.38z" class="st0"/>
   <path id="svg_6" fill="#FEFEFE" d="m511.87,378.97c-4.94,5.56 -11.95,5.93 -18.54,6.98c-4.14,0.65 -7.03,-1.75 -7.86,-5.95c-0.79,-3.98 1.04,-6.95 4.73,-8.2c4.38,-1.49 8.9,-2.67 13.45,-3.45c3.68,-0.63 6,2.14 8.22,4.62c-6.02,-4.31 -12.33,-2.92 -18.64,-0.9c-5.05,1.61 -7.26,4.46 -6.33,7.98c0.96,3.61 4.31,5.25 9.31,4.18c4.66,-1 9.48,-1.67 13.37,-4.88c0.63,-0.52 1.44,-0.81 2.29,-0.38z" class="st0"/>
   <path id="svg_7" fill="#863F30" d="m167.28,305.07c-13.84,15.05 -27.73,30.08 -41.53,45.17c-8.99,9.81 -18.02,19.59 -27.1,29.32c-15.45,16.54 -30.7,33.25 -46.07,49.85c-7.46,8.05 -14.76,16.26 -22.6,23.98c-7.7,7.57 -16.46,10.28 -26.73,7.86c-0.38,-0.09 -0.76,-0.19 -1.15,-0.29c-1.48,-0.94 -0.28,-3.19 -1.98,-4.02l0,-12c3.37,-9.02 10.27,-15.16 17.11,-21.46c45.71,-42.08 91.34,-84.25 137.01,-126.38c0.85,-0.79 1.77,-1.49 2.66,-2.23c0.15,0.04 0.29,0.09 0.44,0.15c4.91,1.62 8.01,5.1 9.86,9.85c0.01,0.01 0.01,0.03 0.02,0.05c0.02,0.05 0.04,0.1 0.06,0.15z" class="st1"/>
   <path id="svg_8" fill="#FBC06D" d="m511.87,372.97l0,6c-4.94,5.56 -11.95,5.93 -18.54,6.98c-4.14,0.65 -7.03,-1.75 -7.86,-5.95c-0.79,-3.98 1.04,-6.95 4.73,-8.2c4.38,-1.49 8.9,-2.67 13.45,-3.45c3.68,-0.63 6,2.14 8.22,4.62z" class="st2"/>
   <path id="svg_9" fill="#863F30" d="m494.09,478.04c-9.57,1.61 -19.2,0.43 -28.8,0.6c-2.49,0.05 -4.98,-0.29 -7.48,-0.29c-87.45,-0.01 -174.91,-0.01 -262.36,-0.01c-1.83,0 -3.67,0.07 -5.5,-0.06c-8.07,-0.59 -12.83,-7.88 -9.62,-15.32c3.94,-9.16 7.88,-18.38 12.68,-27.09c9.28,-16.86 23.87,-26.39 42.97,-28.96c4.3,-2.81 9.2,-2.55 13.99,-2.56c48.21,-0.04 96.41,-0.04 144.62,-0.01c9.31,0.01 18.62,-0.21 27.92,0.13c0.12,0 0.24,-0.01 0.36,-0.01c0.27,-0.01 0.55,-0.02 0.82,-0.02c5.15,-0.13 10.3,-0.05 15.45,-0.01c1.95,0.01 3.95,-0.03 5.6,1.29c0.05,0.45 0.04,0.81 -0.02,1.11c-0.01,0.03 -0.02,0.06 -0.03,0.08c-0.4,1.62 -2.33,1.22 -3.55,1.27c-5.76,0.22 -11.55,0.44 -17.08,-0.73c-0.08,-0.01 -0.15,-0.01 -0.21,0c-0.53,0.07 -0.04,0.88 -0.17,0.29c-0.03,-0.17 0.13,-0.25 0.47,-0.19c0.02,0 0.03,0 0.05,0.01c16.42,2.83 27.97,12.48 36.1,26.48c5.18,8.93 9.22,18.47 13.23,27.98c2.68,6.35 1.72,9.72 -3.65,14.69c6.44,-0.23 12.78,-0.13 19.12,-0.1c1.79,0.02 3.72,-0.22 5.09,1.43z" class="st1"/>
   <path id="svg_10" fill="#6C3328" d="m184.1,321.19c-0.01,0.2 -0.05,0.41 -0.13,0.63c-45.12,48.88 -90.25,97.75 -135.37,146.64c-14.87,16.12 -39.73,12.12 -46.5,-7.5c0.21,-0.3 0.44,-0.5 0.69,-0.63c0.57,-0.3 1.23,-0.23 1.96,-0.07c9.38,2.04 17.41,-0.47 23.95,-7.42c19.76,-21.03 39.48,-42.09 59.15,-63.21c11.52,-12.37 22.94,-24.83 34.35,-37.31c13.3,-14.55 26.53,-29.17 39.83,-43.72c1.42,-1.55 2.64,-3.52 5.1,-3.7c0.02,-0.01 0.05,-0.02 0.07,-0.03c0.41,-0.2 0.83,-0.22 1.27,-0.07c0.21,0.17 0.41,0.33 0.61,0.51c0.42,0.34 0.84,0.69 1.25,1.04c4.44,3.87 8.35,8.3 12.52,12.44c0.66,0.66 1.32,1.41 1.25,2.4z" class="st3"/>
   <path id="svg_11" fill="#863F30" d="m339.76,94.49c-0.15,2.64 -1.71,4.77 -3.87,6.92c-36.27,36.15 -72.43,72.39 -108.68,108.55c-1.93,1.93 -3.65,4.64 -6.76,4.48c-0.47,-0.02 -0.98,-0.11 -1.53,-0.28c-4.65,-0.27 -7.68,-2.6 -9.3,-7c-1.43,-3.9 -3.1,-7.71 -4.68,-11.55c-2.47,-6.05 -1.48,-11.37 3.26,-15.95c2.63,-2.53 5.24,-5.1 7.86,-7.65c0.13,-0.53 0.29,-1.03 0.5,-1.52c0,0 0,0 0,-0.01c0.6,-1.45 1.52,-2.72 2.7,-3.89c24.43,-24.4 48.83,-48.81 73.25,-73.22c0.93,-0.93 1.8,-1.96 3.07,-2.44c0.16,-0.06 0.33,-0.11 0.5,-0.15c3.88,-1.81 6.19,-5.39 9.14,-8.23c4.71,-4.52 9.89,-5.71 15.92,-3.2c3.98,1.65 7.96,3.25 11.94,4.89c3.25,1.33 5.66,3.42 6.25,7.09l0,0.01c0.36,1.14 0.49,2.18 0.43,3.15z" class="st1"/>
   <path id="svg_12" fill="#6C3328" d="m396.03,173.11c-2.67,2.69 -5.41,5.31 -8.13,7.96c-0.14,0.54 -0.31,1.05 -0.52,1.55c-0.61,1.45 -1.53,2.72 -2.71,3.89c-24.4,24.36 -48.78,48.75 -73.17,73.13c-0.96,0.96 -1.85,2.06 -3.22,2.45c-0.12,0.04 -0.25,0.07 -0.39,0.09c-3.69,1.78 -5.94,5.19 -8.75,7.93c-4.93,4.81 -10.32,6.23 -16.75,3.29c-3.61,-1.65 -7.33,-3.07 -11.04,-4.48c-3.9,-1.48 -6.37,-4.05 -6.9,-8.28c-0.21,-0.81 -0.3,-1.58 -0.27,-2.3c0.08,-2.15 1.18,-3.94 2.92,-5.68c36.94,-36.87 73.82,-73.8 110.76,-110.67c1.68,-1.68 3.38,-3.57 5.83,-3.5c0.59,0.01 1.23,0.14 1.92,0.41c4.47,0.31 7.21,2.75 8.76,6.86c1.46,3.86 3.05,7.66 4.65,11.46c2.54,5.98 1.59,11.28 -2.99,15.89z" class="st3"/>
   <path id="svg_13" fill="#6C3328" d="m440.19,226.02c-3.7,4.06 -7.7,7.82 -11.58,11.7c-25.28,25.29 -50.54,50.58 -75.85,75.83c-5.96,5.94 -13.77,7.38 -20.54,4.07c-7.54,-3.69 -12.09,-11.57 -11.27,-19.47c0.6,-5.73 4.18,-9.6 8.22,-13.19c0.14,-0.43 0.32,-0.84 0.53,-1.22c0.8,-1.52 2.06,-2.71 3.28,-3.93c24.08,-24.08 48.15,-48.16 72.23,-72.24c1.16,-1.16 2.27,-2.36 3.7,-3.16c0.31,-0.19 0.64,-0.34 0.98,-0.48c3.23,-2.83 5.97,-6.28 10.25,-7.73c8.05,-2.73 16.64,0.65 21.9,8.68c4.38,6.68 3.77,14.98 -1.85,21.14z" class="st3"/>
   <path id="svg_14" fill="#863F30" d="m276.96,66.01c-0.7,0.71 -1.42,1.4 -2.13,2.09c-0.16,0.45 -0.36,0.87 -0.58,1.26c-0.83,1.49 -2.04,2.68 -3.25,3.89c-24.09,24.07 -48.16,48.15 -72.24,72.23c-1.17,1.17 -2.28,2.42 -3.76,3.18c-0.3,0.16 -0.61,0.3 -0.94,0.41c-5.35,5.57 -11.09,10.28 -19.59,8.13c-7.35,-1.86 -12.19,-6.62 -14.52,-13.71c-2.33,-7.09 0.19,-12.97 5.28,-18.05c28.46,-28.44 56.89,-56.91 85.36,-85.35c8.57,-8.55 18.58,-8.69 26.75,-0.47c8.02,8.06 7.88,17.95 -0.38,26.39z" class="st1"/>
   <path id="svg_15" fill="#FBA52F" d="m385.61,138.9c-0.35,0.03 -0.7,0.08 -1.03,0.15c-2.48,0.51 -4.39,2.02 -6.2,3.84c-36.65,36.68 -73.31,73.36 -110.02,109.99c-1.87,1.86 -3.13,3.86 -3.67,6.27c-0.11,0.48 -0.19,0.98 -0.24,1.49c-1.87,-2.37 -3.89,-4.59 -6.34,-6.37c-0.18,-0.14 -0.35,-0.29 -0.53,-0.43c-6.37,-5.16 -12.68,-10.37 -16.84,-17.64c-0.03,-0.05 -0.06,-0.1 -0.09,-0.15c0.01,-0.02 0.02,-0.05 0.03,-0.07c0.64,-1.78 2.11,-2.91 3.37,-4.18c37.56,-37.58 75.12,-75.16 112.74,-112.69c1.18,-1.17 2.18,-3.03 3.92,-3.33c0.6,-0.11 1.31,-0.03 2.14,0.34c7.58,7.59 15.17,15.18 22.76,22.78z" class="st4"/>
   <path id="svg_16" fill="#FBC06D" d="m362.85,116.12c-0.53,0.03 -1,0.14 -1.42,0.33c-1.57,0.66 -2.49,2.21 -3.66,3.37c-37.5,37.45 -74.96,74.94 -112.45,112.4c-1.4,1.4 -2.95,2.64 -4.43,3.96c-0.05,0.01 -0.1,0.02 -0.15,0.02c-1.64,0.19 -2.67,-0.94 -3.6,-1.97c-4.15,-4.62 -9.46,-8.18 -12.72,-13.64c-0.08,-0.12 -0.16,-0.25 -0.23,-0.38c-1.75,-2.02 -3.51,-4.03 -5.27,-6.05c0.3,-0.07 0.59,-0.14 0.87,-0.23c2.29,-0.7 4.13,-2.1 5.84,-3.82c36.65,-36.68 73.3,-73.36 110.02,-109.96c1.99,-1.99 3.18,-4.09 3.56,-6.56c0.1,-0.72 0.15,-1.46 0.12,-2.25c1.73,4.13 5.4,6.61 8.36,9.67c4.96,5.12 10.1,10.08 15.16,15.11z" class="st2"/>
   <path id="svg_17" fill="#B95D4F" d="m419.88,382.45c3.42,2.67 4.73,6.54 4.47,10.9c-0.23,3.68 0.87,7.55 -0.66,11.09c-0.22,0.49 -0.48,0.98 -0.81,1.46c-52.03,0.04 -104.06,0.07 -156.09,0.11c-10.28,0.01 -20.57,-0.34 -30.81,0.9c0.12,-4.15 0.29,-8.29 0.35,-12.44c0.14,-10.25 4.03,-14.21 14.24,-14.21c47.88,-0.02 95.77,0.01 143.66,-0.02c12.63,-0.01 25.27,-0.17 37.9,-0.2c1.94,0 4.02,-0.53 5.75,0.93c-5.82,3.04 -11.99,0.77 -18,1.48z" class="st5"/>
   <path id="svg_18" fill="#B95D4F" d="m296.08,90.78c-0.05,0.14 -0.1,0.27 -0.16,0.4c-0.77,1.75 -2.36,2.83 -3.65,4.13c-23.49,23.52 -47,47.02 -70.49,70.54c-1.79,1.79 -3.46,3.69 -5.17,5.56c-0.18,0.2 -0.37,0.4 -0.55,0.6c-0.39,-2.95 -3.01,-4.19 -4.79,-6c-5.64,-5.74 -11.46,-11.31 -17.21,-16.94c0.1,-0.18 0.18,-0.39 0.28,-0.57c0.06,-0.11 0.12,-0.21 0.2,-0.29c26.55,-26.5 53.09,-52.98 79.65,-79.47c0.21,-0.21 0.43,-0.43 0.64,-0.64c4.03,6.14 10.02,10.45 14.87,15.82c2.09,2.32 4.25,4.58 6.38,6.86z" class="st5"/>
   <path id="svg_19" fill="#A24F41" d="m409.89,203.93c-0.12,0.21 -0.22,0.43 -0.33,0.64c-0.13,0.23 -0.26,0.45 -0.44,0.63c-26.44,26.39 -52.91,52.79 -79.36,79.17l-0.59,0.59c-2.99,-5.3 -8.09,-8.66 -12.06,-13.07c-2.98,-3.32 -6.14,-6.48 -9.22,-9.71c0.07,-0.08 0.14,-0.16 0.2,-0.24c1.22,-1.43 2.35,-2.92 3.67,-4.24c23.46,-23.51 46.95,-46.98 70.42,-70.48c1.78,-1.78 3.44,-3.66 5.14,-5.51l0,-0.01c0.19,-0.21 0.39,-0.42 0.58,-0.63c2.1,4.51 6.3,7.16 9.56,10.62c3.99,4.22 8.27,8.17 12.43,12.24z" class="st6"/>
   <path id="svg_20" fill="#6C3328" d="m494.09,478.04l-26,0c-0.13,-1.85 1.52,-2.07 2.23,-2.98c2.91,-3.73 4.49,-7.27 2.18,-12.27c-4.39,-9.47 -8.3,-19.2 -13.43,-28.3c-7.8,-13.87 -19.77,-22.32 -34.87,-26.93c-0.02,-0.01 -0.03,-0.01 -0.05,-0.01c-0.1,-0.04 -0.2,-0.07 -0.3,-0.1c-0.58,-0.17 -1.16,-0.34 -1.74,-0.5l11.36,0c3.74,-0.01 7.48,-0.02 11.22,-0.04l0.24,0c0.35,-0.46 0.74,-0.49 1.16,-0.09c19.32,2.22 33.8,12.02 43.21,28.79c4.92,8.76 8.78,18.13 12.75,27.38c2.99,6.95 -0.55,13.22 -7.96,15.05z" class="st3"/>
   <path id="svg_21" fill="#6C3328" d="m258.11,254.27c-16.68,13.93 -33.35,27.86 -50.02,41.79c-0.19,0.09 -0.37,0.15 -0.54,0.19c-0.85,0.16 -1.57,-0.32 -2.13,-0.88c-4.34,-4.32 -9.18,-8.19 -12.76,-13.26c-0.03,-0.04 -0.06,-0.09 -0.09,-0.13c-0.02,-0.03 -0.05,-0.07 -0.07,-0.1c-0.01,-0.06 -0.02,-0.12 -0.02,-0.18c-0.01,-0.03 -0.01,-0.05 -0.01,-0.07c-0.28,-2.61 1.74,-3.97 3.27,-5.53c6.16,-6.25 12.42,-12.4 18.58,-18.64c6.15,-6.22 6.21,-11.37 0.31,-17.61c-0.89,-0.93 -1.92,-1.77 -2.51,-2.92c-0.17,-0.31 -0.31,-0.65 -0.4,-1.02c4.16,-5.24 8.32,-10.47 12.47,-15.7c0.09,0.09 0.18,0.17 0.27,0.26c5.41,5.17 10.81,10.33 16.22,15.51c0.07,0.07 0.14,0.13 0.21,0.2c5.59,5.87 11.18,11.75 16.77,17.62c0.15,0.16 0.3,0.31 0.45,0.47z" class="st3"/>
   <path id="svg_22" fill="#B95D4F" d="m188.89,303.4c-5.76,5.22 -11.94,6.21 -18.56,2.95c-0.77,-0.38 -1.55,-0.82 -2.34,-1.32c-0.26,-0.03 -0.51,-0.06 -0.77,-0.11c-0.03,-0.01 -0.06,-0.01 -0.09,-0.02c-3.06,-3.48 -6.17,-6.93 -9.88,-9.76c-0.12,-0.09 -0.23,-0.18 -0.35,-0.27c-0.46,-1.23 -0.88,-2.47 -1.38,-3.69c-2.88,-7.03 -1.41,-14.15 3.99,-19.22c5.25,-4.93 12.84,-5.98 19.46,-2.67c1.04,0.52 2.03,1.12 3.05,1.68c0.11,0.07 0.21,0.13 0.32,0.2c4.24,2.68 7.89,5.9 10.11,10.47c0.01,0.02 0.02,0.04 0.03,0.06c0.04,0.09 0.09,0.19 0.13,0.28c0.02,0.04 0.04,0.08 0.05,0.13c0.08,0.16 0.15,0.32 0.22,0.48c3.56,7.36 2.02,15.36 -3.99,20.81z" class="st5"/>
   <path id="svg_23" fill="#A24F41" d="m186.71,322.91c-0.9,-0.39 -1.82,-0.73 -2.74,-1.09c-0.15,-0.16 -0.3,-0.32 -0.45,-0.48c-5.17,-5.44 -10.35,-10.87 -15.53,-16.31c0.36,0.09 0.73,0.18 1.09,0.28c3.88,1.03 7.68,2.49 11.92,1.22c10.26,-3.08 14.31,-11.9 11.06,-24.56c0.13,-0.18 0.26,-0.29 0.39,-0.33c0.01,-0.01 0.02,-0.01 0.02,-0.01c0.2,-0.04 0.39,0.07 0.58,0.34c4.92,4.62 9.85,9.24 14.78,13.84c0.09,0.09 0.17,0.17 0.26,0.25c0.46,3.43 2.93,6.1 3.07,9.78c0.54,13.69 -11.88,22.48 -24.45,17.07z" class="st6"/>
   <path id="svg_24" fill="#873F30" d="m220.1,247.94c0.02,3.74 -1.02,6.66 -3.73,9.28c-6.9,6.69 -13.63,13.54 -20.39,20.36c-1.25,1.25 -2.96,2.26 -2.93,4.39l-0.44,0.01l-0.06,0l-0.49,-0.01c-3.27,-3.59 -6.55,-7.16 -9.81,-10.75c-0.08,-0.08 -0.15,-0.17 -0.23,-0.25c9.9,-11.69 19.8,-23.37 29.7,-35.06c0.25,0.2 0.51,0.4 0.76,0.6c3.77,2.93 7.58,5.73 7.62,11.43z" class="st7"/>
   <path id="svg_25" fill="#A34F41" d="m446.09,406.82c-0.39,0.03 -0.78,0.06 -1.16,0.09c-0.07,-0.03 -0.14,-0.06 -0.21,-0.08c-5.03,-2.02 -10.27,-0.41 -15.39,-0.85c-2.14,-0.19 -4.3,-0.06 -6.45,-0.08c0,-0.48 0,-0.96 -0.01,-1.44c-0.02,-3.02 -0.13,-6.05 0.09,-9.05c0.42,-5.45 -0.69,-10.2 -6.64,-14.44l21.56,0c5.51,1.31 7.76,5.2 7.98,10.46c0.21,5.13 0.16,10.26 0.23,15.39z" class="st8"/>
   <path id="svg_26" fill="#FBC06D" d="m491.8,346.78c-0.18,4.47 -11.13,15.11 -16.35,15.26c-2.13,0.02 -4.44,-1.02 -5.87,-3.6c-1.59,-2.87 -1.61,-5.86 0.4,-8.4c2.98,-3.77 6.33,-7.25 10.3,-10.01c2.59,-1.8 5.37,-1.51 7.95,0.07c2.44,1.5 3.68,3.81 3.57,6.68z" class="st2"/>
   <path id="svg_27" fill="#FBC06D" d="m462.06,327.59c-0.45,3.7 -1.62,8.38 -3.24,12.89c-1.39,3.85 -4.69,5.09 -8.5,4.36c-4.04,-0.76 -6.17,-3.83 -5.73,-7.59c0.54,-4.73 1.82,-9.45 3.35,-13.98c1.41,-4.13 5.05,-5.12 9,-4.24c3.81,0.86 5.31,3.67 5.12,8.56z" class="st2"/>
  </g>
 </g>
</svg>