<svg width="512" height="512" xmlns="http://www.w3.org/2000/svg" xml:space="preserve" version="1.1">

 <g>
  <title>Layer 1</title>
  <g id="svg_1">
   <path id="svg_2" fill="#FEFEFE" d="m511.83,390.77c-0.15,-28.77 -19.64,-53.95 -47.44,-61.55c-8.09,-2.21 -16.41,-3.64 -24.68,-5.14c-3.12,-0.57 -4.4,-2.15 -4.66,-5.04c-0.28,-2.92 -2.92,-5.72 1.03,-8.62c6.17,-4.53 10.98,-10.63 13.52,-17.85c2.03,-5.74 5.53,-9.96 9.6,-14.21c23.61,-24.65 26.25,-62.49 6.18,-88.1c-2.14,-2.74 -3.01,-5.36 -3.12,-8.82c-0.6,-20.13 -10.05,-34.82 -27.84,-44.23c-1.27,-0.68 -3.12,-0.59 -3.73,-2.47c4.65,-4.65 8.55,-9.87 10.97,-16.01c1.05,-2.67 2.51,-3.76 5.41,-4.44c17.43,-4.09 30.16,-18.91 31.67,-36.33c1.52,-17.47 -8.65,-34.5 -24.74,-41.46c-16.44,-7.1 -35.45,-2.87 -47.37,10.83c-1.94,2.23 -3.67,2.74 -6.53,2.52c-29.37,-2.21 -53.99,21.25 -53.24,50.68c0.35,13.47 5.75,24.86 15.59,34.73c-11.07,4.53 -19.52,11.72 -25.62,21.89c-3.27,-3.76 -5.99,-7.59 -9.4,-10.62c-4.16,-3.69 -5.58,-7.69 -5.56,-13.35c0.06,-21.26 -10.04,-36.53 -28.94,-46.08c-0.88,-0.44 -2.07,-0.41 -2.5,-1.6c23.56,-25.09 16.3,-55.53 0.28,-71.16c-18.15,-17.71 -46.76,-19.09 -66.17,-2.9c-10.21,8.52 -16.29,19.48 -17.73,32.66c-1.77,16.11 3.74,29.88 15.21,41.62c-1.53,0.74 -2.6,1.24 -3.64,1.78c-18.27,9.4 -27.76,24.35 -28.46,44.93c-0.11,3.16 1.5,6.88 -0.95,9.41c-4.75,4.9 -9.38,9.9 -13.71,15.52c-3.24,-5.42 -6.91,-9.71 -11.19,-13.49c-4.23,-3.72 -9.3,-6.11 -14.34,-8.75c21.85,-22.19 18.79,-52.89 1.15,-70.72c-18.27,-18.46 -47.77,-19.62 -67.33,-2.95c-17.9,15.25 -26.95,47.18 -2.31,73.65c-0.21,0.27 -0.37,0.66 -0.64,0.77c-12.96,5.52 -22.11,14.82 -27.37,27.86c-0.77,1.93 -2.13,2.36 -3.73,3c-10.67,4.29 -16.32,12.7 -16.36,24.37c-0.04,11.86 0.08,23.73 -0.03,35.59c-0.21,21.99 7.52,40.56 23.58,55.63c1.63,1.53 3.02,3.07 3.74,5.36c2.9,9.25 8.29,16.88 15.71,23.1c0.99,0.83 2.27,1.33 2.21,3.15c-0.18,5.94 -2.88,9.27 -8.98,10.54c-4.7,0.98 -9.41,1.91 -14.13,2.82c-33.61,6.45 -55.09,32.31 -55.11,66.43c-0.03,37.83 0.02,75.66 -0.06,113.49c-0.03,3.14 0.03,4.79 4.14,4.79c167.82,-0.12 335.64,-0.11 503.46,-0.04c3.18,0 4.34,-0.55 4.33,-4.1c-0.16,-39.03 0.04,-78.07 -0.17,-117.09zm-374.56,-78.73c9.14,-7.26 15.08,-16.58 18.37,-27.79l1.3,0.37c0,12.64 -0.04,25.29 0.02,37.92c0.02,3.06 -1.41,3.99 -4.16,3.48c-3.87,-0.74 -7.75,-1.42 -11.58,-2.33c-2.68,-0.64 -6,-10.02 -3.95,-11.65zm217.78,-27.46c0.44,-0.09 0.88,-0.2 1.31,-0.29c2.11,6.54 4.63,12.89 9.01,18.22c2.18,2.64 4.44,5.32 7.09,7.42c2.49,1.96 2.97,3.67 2.39,6.85c-0.91,4.92 -2.87,7.63 -8.14,7.73c-2.53,0.06 -5.02,1.08 -7.55,1.53c-2.71,0.47 -4.17,-0.5 -4.15,-3.55c0.09,-12.63 0.04,-25.27 0.04,-37.91z" class="st0"/>
   <path id="svg_3" d="m511.83,390.77c-0.15,-28.77 -19.64,-53.95 -47.44,-61.55c-8.09,-2.21 -16.41,-3.64 -24.68,-5.14c-3.12,-0.57 -4.4,-2.15 -4.66,-5.04c-0.28,-2.92 -2.92,-5.72 1.03,-8.62c6.17,-4.53 10.98,-10.63 13.52,-17.85c2.03,-5.74 5.53,-9.96 9.6,-14.21c23.61,-24.65 26.25,-62.49 6.18,-88.1c-2.14,-2.74 -3.01,-5.36 -3.12,-8.82c-0.6,-20.13 -10.05,-34.82 -27.84,-44.23c-1.27,-0.68 -3.12,-0.59 -3.73,-2.47c4.65,-4.65 8.55,-9.87 10.97,-16.01c1.05,-2.67 2.51,-3.76 5.41,-4.44c17.43,-4.09 30.16,-18.91 31.67,-36.33c1.52,-17.47 -8.65,-34.5 -24.74,-41.46c-16.44,-7.1 -35.45,-2.87 -47.37,10.83c-1.94,2.23 -3.67,2.74 -6.53,2.52c-29.37,-2.21 -53.99,21.25 -53.24,50.68c0.35,13.47 5.75,24.86 15.59,34.73c-11.07,4.53 -19.52,11.72 -25.62,21.89c-3.27,-3.76 -5.99,-7.59 -9.4,-10.62c-4.16,-3.69 -5.58,-7.69 -5.56,-13.35c0.06,-21.26 -10.04,-36.53 -28.94,-46.08c-0.88,-0.44 -2.07,-0.41 -2.5,-1.6c23.56,-25.09 16.3,-55.53 0.28,-71.16c-18.15,-17.71 -46.76,-19.09 -66.17,-2.9c-10.21,8.52 -16.29,19.48 -17.73,32.66c-1.77,16.11 3.74,29.88 15.21,41.62c-1.53,0.74 -2.6,1.24 -3.64,1.78c-18.27,9.4 -27.76,24.35 -28.46,44.93c-0.11,3.16 1.5,6.88 -0.95,9.41c-4.75,4.9 -9.38,9.9 -13.71,15.52c-3.24,-5.42 -6.91,-9.71 -11.19,-13.49c-4.23,-3.72 -9.3,-6.11 -14.34,-8.75c21.85,-22.19 18.79,-52.89 1.15,-70.72c-18.27,-18.46 -47.77,-19.62 -67.33,-2.95c-17.9,15.25 -26.95,47.18 -2.31,73.65c-0.21,0.27 -0.37,0.66 -0.64,0.77c-12.96,5.52 -22.11,14.82 -27.37,27.86c-0.77,1.93 -2.13,2.36 -3.73,3c-10.67,4.29 -16.32,12.7 -16.36,24.37c-0.04,11.86 0.08,23.73 -0.03,35.59c-0.21,21.99 7.52,40.56 23.58,55.63c1.63,1.53 3.02,3.07 3.74,5.36c2.9,9.25 8.29,16.88 15.71,23.1c0.99,0.83 2.27,1.33 2.21,3.15c-0.18,5.94 -2.88,9.27 -8.98,10.54c-4.7,0.98 -9.41,1.91 -14.13,2.82c-33.61,6.45 -55.09,32.31 -55.11,66.43c-0.03,37.83 0.02,75.66 -0.06,113.49c-0.03,3.14 0.03,4.79 4.14,4.79c167.82,-0.12 335.64,-0.11 503.46,-0.04c3.18,0 4.34,-0.55 4.33,-4.1c-0.16,-39.03 0.04,-78.07 -0.17,-117.09zm-374.56,-78.73c9.14,-7.26 15.08,-16.58 18.37,-27.79l1.3,0.37c0,12.64 -0.04,25.29 0.02,37.92c0.02,3.06 -1.41,3.99 -4.16,3.48c-3.87,-0.74 -7.75,-1.42 -11.58,-2.33c-2.68,-0.64 -6,-10.02 -3.95,-11.65zm217.78,-27.46c0.44,-0.09 0.88,-0.2 1.31,-0.29c2.11,6.54 4.63,12.89 9.01,18.22c2.18,2.64 4.44,5.32 7.09,7.42c2.49,1.96 2.97,3.67 2.39,6.85c-0.91,4.92 -2.87,7.63 -8.14,7.73c-2.53,0.06 -5.02,1.08 -7.55,1.53c-2.71,0.47 -4.17,-0.5 -4.15,-3.55c0.09,-12.63 0.04,-25.27 0.04,-37.91z"/>
   <path id="svg_4" fill="#656D78" d="m338.55,316.51c-11.82,-4.67 -23.83,-5.66 -35.63,-7.76c-3.13,-0.56 -5.88,-1.77 -8.23,-3.94c-5.61,-5.18 -5.51,-6.95 0.48,-11.43c17.36,-13 26.43,-30.36 26.82,-52.06c0.22,-12.38 -0.06,-24.76 0.12,-37.14c0.05,-3.29 -0.62,-4.85 -4.26,-5.36c-5.76,-0.8 -11.42,-2.33 -17.11,-3.61c-8.16,-1.83 -15.52,-5.42 -22.32,-10.24c-9.39,-6.66 -16.11,-14.22 -14.38,-27.22c1.19,-8.95 0.23,-9.13 -8.99,-9.06c-8.4,0.06 -8.22,-0.97 -7.09,6.85c2.87,19.81 -10.44,27.79 -24.47,35.34c-9.36,5.04 -20.01,5.93 -30.21,8.19c-1.76,0.39 -3.39,0.44 -3.32,2.91c0.44,15.62 -1.19,31.32 0.87,46.87c2.5,18.92 12.07,33.81 27.71,44.56c4.25,2.92 3.9,5.32 1.27,8.67c-2.75,3.51 -6.14,5.86 -10.65,6.65c-11.8,2.07 -23.82,3.03 -35.06,7.53c-1.07,-1.96 -0.62,-3.69 -0.62,-5.35c-0.03,-31.64 -0.06,-63.28 -0.01,-94.93c0.07,-48.94 38.8,-85.91 87.65,-83.75c37.78,1.67 71.68,32.9 76.51,70.32c0.64,4.97 0.93,9.91 0.93,14.9c-0.01,31.13 -0.01,62.25 -0.01,93.38c0,1.71 0,3.39 0,5.68z" class="st1"/>
   <path id="svg_5" fill="#B3DC7E" d="m247.75,458.64c0,11 -0.08,22.01 0.06,33.01c0.04,2.8 -0.6,3.85 -3.64,3.81c-14.09,-0.16 -28.19,-0.1 -42.29,-0.04c-2.34,0.01 -4.15,-0.11 -3.66,-3.18c1.91,-12.17 -2.58,-22.99 -7.47,-33.6c-10.93,-23.68 -11.99,-47.67 -2.58,-71.98c1.39,-3.6 0.35,-4.7 -2.88,-5.77c-11.5,-3.79 -11.41,-3.86 -15.12,7.58c-3.86,11.9 -5.55,24.09 -4.8,36.56c0.2,3.25 -0.36,4.51 -3.97,4.4c-8.59,-0.27 -17.19,-0.07 -25.78,-0.1c-1.62,0 -3.54,0.56 -3.46,-2.33c0.5,-16.93 -1.93,-34.11 4.2,-50.54c9.71,-26.02 28.33,-41.88 55.3,-48.19c3.32,-0.78 5.06,-0.12 6.79,3.15c15.69,29.55 31.6,58.99 47.54,88.41c1.28,2.37 1.81,4.69 1.79,7.34c-0.09,10.49 -0.03,20.98 -0.03,31.47z" class="st2"/>
   <path id="svg_6" fill="#B3DC7F" d="m264.25,458.74c0,-10.66 0.05,-21.32 -0.04,-31.97c-0.02,-2.5 0.57,-4.64 1.76,-6.83c15.99,-29.59 31.95,-59.19 47.79,-88.86c1.47,-2.75 2.91,-3.44 5.98,-2.91c29.96,5.14 55.31,31.61 59.18,61.67c1.57,12.18 0.5,24.37 0.94,36.55c0.08,2.16 -0.51,3.03 -2.85,3c-9.11,-0.12 -18.22,-0.19 -27.33,0.03c-3.21,0.08 -3.17,-1.45 -3.02,-3.77c0.98,-15.34 -2.04,-30.04 -7.1,-44.44c-1.06,-3.01 -2.05,-3.9 -5.41,-2.76c-11.37,3.87 -11.5,3.72 -8.02,14.92c6.24,20.13 5.49,39.93 -2.55,59.43c-1.31,3.17 -2.36,6.46 -3.82,9.55c-4.38,9.29 -7.29,18.84 -5.96,29.26c0.35,2.78 -0.51,3.87 -3.57,3.83c-14.09,-0.16 -28.19,-0.15 -42.28,-0.01c-2.88,0.03 -3.79,-0.76 -3.75,-3.7c0.15,-10.98 0.06,-21.99 0.05,-32.99z" class="st3"/>
   <path id="svg_7" fill="#FE816E" d="m16.62,439.73c0.01,-16.33 -0.39,-32.66 0.11,-48.97c0.59,-19.29 9.9,-33.46 26.97,-42.58c3.48,-1.86 5.38,-1.83 7.51,2.19c15.16,28.66 30.61,57.17 46.01,85.7c1.16,2.14 2.01,4.21 2,6.76c-0.1,16.15 -0.16,32.31 0.04,48.46c0.04,3.52 -1.13,4.2 -4.35,4.16c-13.57,-0.16 -27.16,-0.27 -40.73,0.05c-4.17,0.1 -4.63,-1.4 -4.61,-4.97c0.14,-26.98 0,-53.96 0.16,-80.94c0.02,-3.92 -0.81,-5.22 -4.99,-5.12c-11.61,0.28 -11.61,0.06 -11.61,11.8c0,24.75 -0.06,49.49 0.07,74.24c0.02,3.53 -0.39,5.08 -4.59,4.99c-11.98,-0.25 -11.99,-0.02 -11.99,-11.95c-0.01,-14.6 -0.01,-29.21 0,-43.82z" class="st4"/>
   <path id="svg_8" fill="#E5E8EC" d="m495.39,440.61c0,16.84 -0.08,33.69 0.07,50.53c0.03,3.18 -0.56,4.37 -4.11,4.34c-12.46,-0.08 -12.47,0.08 -12.47,-12.42c0,-24.75 -0.06,-49.5 0.07,-74.25c0.02,-3.19 -0.57,-4.36 -4.12,-4.34c-12.46,0.08 -12.46,-0.08 -12.46,12.42c0,24.75 -0.06,49.5 0.07,74.25c0.02,3.2 -0.58,4.38 -4.12,4.32c-13.92,-0.23 -27.84,-0.16 -41.76,-0.03c-2.79,0.03 -3.81,-0.56 -3.78,-3.6c0.15,-16.5 0.11,-33 0.03,-49.5c-0.01,-2.19 0.74,-3.96 1.72,-5.79c15.55,-28.82 31.16,-57.6 46.5,-86.53c1.89,-3.57 3.52,-3.76 6.67,-2.12c17.38,8.98 26.9,23.22 27.55,42.7c0.56,16.65 0.12,33.34 0.12,50.01c0,0.01 0.01,0.01 0.02,0.01z" class="st5"/>
   <path id="svg_9" fill="#EFCFB3" d="m305.53,230.62c-0.09,7.53 0.43,15.09 -1.56,22.52c-6.05,22.58 -25.9,36.8 -50.14,35.81c-22.42,-0.92 -42.43,-18.08 -46.35,-39.84c-2,-11.07 -0.6,-22.27 -1.03,-33.4c-0.07,-1.89 0.63,-2.71 2.55,-3.04c17.6,-3.06 32.76,-10.82 45.12,-23.8c1.39,-1.46 2.32,-1.49 3.73,-0.01c12.37,12.97 27.52,20.76 45.12,23.8c2.33,0.4 2.61,1.63 2.58,3.54c-0.07,4.8 -0.02,9.61 -0.02,14.42z" class="st6"/>
   <path id="svg_10" fill="#B17946" d="m156.5,248.71c-3.66,-13.43 -11.21,-23.5 -23.96,-29.3c-1.71,-0.78 -2.38,-1.6 -1.64,-3.51c0.55,-1.42 0.66,-3.01 1.01,-4.52c0.85,-3.65 -0.11,-5.64 -4.3,-4.94c-1,0.17 -2.07,0.14 -3.09,0.01c-5.57,-0.73 -9.07,0.11 -10.47,7.03c-1.39,6.87 -7.13,11.22 -14.26,12.65c-5.55,1.12 -11.19,1.74 -16.77,2.69c-17.61,2.99 -23.76,9.63 -25.5,28.18c-5.15,-7.87 -7.48,-16.03 -7.71,-24.59c-0.38,-13.92 -0.22,-27.85 -0.12,-41.77c0.04,-5.77 3.21,-8.89 9.05,-8.9c22.52,-0.06 45.05,-0.33 67.56,0.14c12.11,0.25 22.01,6.04 29.74,15.38c1.09,1.31 2.2,2.62 1.93,4.58c-2.14,15.57 -0.37,31.25 -1.47,46.87z" class="st7"/>
   <path id="svg_11" fill="#B17946" d="m355.26,249.99c-0.7,-15.83 0.53,-30.43 -0.77,-44.98c-0.17,-1.93 1.1,-3.23 2.14,-4.54c9.44,-11.8 21.62,-18.59 36.85,-18.66c11.63,-0.05 23.42,-1.55 34.86,1.91c30.65,9.28 43.28,44.27 26.73,72.41c-0.05,0.08 -0.31,0.05 -0.81,0.1c0.07,-7.78 -2.17,-14.64 -7.84,-20.3c-5.83,-5.81 -13.32,-6.67 -20.81,-7.73c-3.4,-0.48 -6.82,-0.81 -10.22,-1.34c-10.38,-1.61 -16.51,-7.04 -18.71,-17.16c-0.56,-2.57 -1.34,-3.45 -3.87,-3.29c-2.91,0.18 -5.87,0.3 -8.76,-0.02c-4.08,-0.45 -5.14,1.66 -3.88,4.77c2.32,5.7 0.02,8.1 -5.03,10.7c-9.08,4.66 -14.72,12.68 -18.01,22.31c-0.54,1.56 -1.01,3.13 -1.87,5.82z" class="st7"/>
   <path id="svg_12" fill="#EFCFB3" d="m437.6,265.35c-0.24,4.08 0.34,8.88 -0.71,13.66c-3.64,16.69 -18.66,27.97 -35.39,26.41c-16.69,-1.56 -29.59,-15.53 -29.91,-32.49c-0.11,-5.66 -0.15,-11.33 0.02,-16.99c0.31,-9.84 6.8,-18.67 15.91,-22.02c1.62,-0.6 3.2,-1.41 4.77,0.08c8.57,8.13 19.63,9.08 30.5,10.59c0.34,0.05 0.68,0.05 1.03,0.09c12.57,1.46 13.77,2.8 13.77,15.34c0.01,1.54 0.01,3.08 0.01,5.33z" class="st6"/>
   <path id="svg_13" fill="#EFCFB3" d="m74.4,264.47c0,-3.26 -0.07,-6.52 0.02,-9.78c0.14,-5.44 2.5,-8.2 7.82,-9.08c4.57,-0.76 9.15,-1.46 13.74,-2c8.5,-1 16.5,-3.26 23.03,-9.11c1.9,-1.7 3.58,-1.37 5.62,-0.53c8.65,3.56 14.24,9.97 15.36,19.09c1.05,8.63 1.37,17.51 -0.39,26.15c-3.39,16.66 -18.83,27.92 -35.46,26.2c-16.53,-1.7 -29.28,-15.51 -29.7,-32.18c-0.07,-2.92 -0.01,-5.84 -0.01,-8.75c-0.02,-0.01 -0.02,-0.01 -0.03,-0.01z" class="st6"/>
   <path id="svg_14" fill="#EFCFB3" d="m298.38,324.88c-5.07,9.49 -9.96,18.53 -14.72,27.62c-1,1.9 -2.19,2.62 -4.4,2.61c-15.46,-0.1 -30.92,-0.09 -46.38,-0.01c-2.12,0.01 -3.43,-0.52 -4.46,-2.49c-4.37,-8.35 -8.82,-16.66 -13.4,-24.9c-1.39,-2.5 -0.93,-3.16 1.81,-4.04c9.09,-2.94 15.8,-8.86 19.59,-17.71c1.03,-2.41 2.26,-2.97 4.67,-2.35c10.16,2.58 20.39,2.66 30.58,0.23c1.79,-0.43 2.69,-0.14 3.65,1.54c7.09,12.32 10.38,15.06 23.06,19.5z" class="st6"/>
   <path id="svg_15" fill="#EFCFB3" d="m256.09,49.63c9.6,0 19.21,0.14 28.81,-0.08c3.35,-0.07 4.45,0.73 3.96,4.21c-2.32,16.49 -16.39,28.9 -32.95,28.87c-16.54,-0.03 -30.71,-12.66 -32.79,-29.04c-0.4,-3.12 0.31,-4.12 3.64,-4.04c9.77,0.23 19.55,0.08 29.33,0.08z" class="st6"/>
   <path id="svg_16" fill="#EFCFB3" d="m115.92,99.16c9.78,0 19.55,0.14 29.32,-0.08c3.22,-0.07 3.62,1.12 3.3,3.87c-1.91,16.51 -16.37,29.31 -33.14,29.21c-16.5,-0.1 -30.77,-12.93 -32.63,-29.21c-0.31,-2.74 0.08,-3.94 3.3,-3.87c9.96,0.21 19.91,0.08 29.85,0.08z" class="st6"/>
   <path id="svg_17" fill="#EFCFB3" d="m396.89,99.16c9.6,0 19.21,0.19 28.81,-0.1c3.61,-0.11 3.85,1.34 3.47,4.19c-2.22,16.48 -16.33,28.93 -32.89,28.91c-16.55,-0.02 -30.7,-12.6 -32.82,-29c-0.39,-3.04 0.18,-4.17 3.59,-4.09c9.94,0.25 19.89,0.09 29.84,0.09z" class="st6"/>
   <path id="svg_18" fill="#EFCFB3" d="m363.31,470.21c0,7.04 -0.12,14.09 0.06,21.12c0.08,2.91 -0.34,4.26 -3.8,4.14c-8.58,-0.28 -17.17,-0.24 -25.76,-0.02c-3.1,0.08 -3.51,-1.1 -3.61,-3.82c-0.26,-7.13 0.67,-13.83 3.68,-20.45c3.32,-7.31 5.96,-14.95 8.52,-22.57c0.79,-2.34 1.84,-2.86 3.99,-2.79c5.46,0.19 12.47,-1.75 15.93,0.94c3.27,2.53 0.73,9.95 0.96,15.21c0.13,2.74 0.03,5.5 0.03,8.24z" class="st6"/>
   <path id="svg_19" fill="#EFCFB3" d="m148.69,470.62c0,-7.21 0.1,-14.43 -0.05,-21.64c-0.05,-2.48 0.7,-3.5 3.17,-3.13c0.34,0.05 0.69,0 1.03,0.01c4.98,0.03 10.7,-1.46 14.73,0.52c4.13,2.02 3.62,8.65 5.68,13.06c2.1,4.49 3.31,9.42 5.63,13.78c3.36,6.29 2.72,12.93 2.86,19.57c0.04,2.01 -0.64,2.66 -2.64,2.64c-9.27,-0.08 -18.55,-0.12 -27.82,0.02c-2.59,0.04 -2.63,-1.29 -2.62,-3.18c0.06,-7.23 0.03,-14.44 0.03,-21.65z" class="st6"/>
   <path id="svg_20" fill="#E5E8EC" d="m421.28,56.35c6.84,-6.79 16.64,-8.58 25.77,-4.79c9.31,3.86 15.36,12.96 15.31,23c-0.05,10.09 -6,18.51 -16.36,22.63c-1.58,-17.65 -9.6,-31.46 -24.72,-40.84z" class="st5"/>
   <path id="svg_21" fill="#E5E8EC" d="m394.4,437.17c2.25,1.7 1.93,3.78 1.93,5.76c0,16.12 -0.1,32.23 0.09,48.35c0.04,3.41 -0.93,4.21 -4.24,4.19c-12.35,-0.06 -12.35,0.06 -12.35,-12.45c0,-10.8 0.11,-21.6 -0.07,-32.4c-0.05,-3.09 0.21,-4.87 3.92,-5.39c4.77,-0.67 8.16,-3.98 10.72,-8.06z" class="st5"/>
   <path id="svg_22" fill="#FE816E" d="m117.53,437.14c3.1,4.76 7.11,7.88 12.54,8.54c2.38,0.29 2.11,1.68 2.11,3.21c0,14.43 -0.05,28.86 0.04,43.28c0.01,2.38 -0.58,3.16 -3.12,3.29c-13.44,0.66 -13.44,0.75 -13.44,-12.51c0,-13.23 0,-26.45 0,-39.68c0.02,-2.04 -0.36,-4.17 1.87,-6.13z" class="st4"/>
   <path id="svg_23" fill="#656C77" d="m87.5,82.32c7.19,-10.74 16.53,-16.27 28.71,-16.07c11.73,0.19 20.75,5.66 27.59,16.07c-18.93,0 -37.15,0 -56.3,0z" class="st8"/>
   <path id="svg_24" fill="#B17846" d="m284.29,32.99c-19.27,0 -37.43,0 -56.55,0c6.48,-10.09 15.06,-15.58 26.28,-16.22c12.82,-0.73 22.66,4.82 30.27,16.22z" class="st9"/>
   <path id="svg_25" fill="#E5E8EC" d="m368.1,82.41c7.03,-10.68 16.3,-16.26 28.5,-16.18c12,0.08 21.03,5.75 28.03,16.18c-19.04,0 -37.32,0 -56.53,0z" class="st5"/>
   <path id="svg_26" fill="#FEE9A6" d="m238.77,371.64c11.81,0 22.62,0 34.43,0c-5.74,10.7 -11.23,20.93 -17.18,32.01c-5.92,-10.98 -11.39,-21.11 -17.25,-32.01z" class="st10"/>
   <path id="svg_27" fill="#EFCFB3" d="m255.95,99.16c4.63,0 9.26,0.12 13.88,-0.05c2.48,-0.09 2.84,0.89 2.47,3.03c-1.24,7.32 -8.34,13.38 -16.01,13.51c-7.88,0.13 -15.23,-5.9 -16.61,-13.42c-0.49,-2.67 0.47,-3.21 2.9,-3.12c4.46,0.16 8.92,0.05 13.37,0.05z" class="st6"/>
   <path id="svg_28" fill="#EFCFB3" d="m115.8,148.69c4.46,0 8.92,0.13 13.37,-0.05c2.56,-0.1 3.27,0.67 2.77,3.21c-1.44,7.38 -8.47,13.28 -16.16,13.33c-7.7,0.05 -14.7,-5.65 -16.34,-13.09c-0.62,-2.81 0.21,-3.58 2.99,-3.46c4.45,0.2 8.92,0.06 13.37,0.06z" class="st6"/>
   <path id="svg_29" fill="#EFCFB3" d="m396.71,148.69c4.28,0 8.58,0.2 12.85,-0.06c3.47,-0.21 3.53,1.3 2.83,3.96c-1.89,7.17 -8.34,12.44 -15.67,12.6c-7.58,0.17 -14.28,-4.96 -16.37,-12.34c-0.81,-2.86 -0.78,-4.48 2.99,-4.22c4.44,0.28 8.91,0.06 13.37,0.06z" class="st6"/>
   <path id="svg_30" fill="#FBD66F" d="m404.98,419.39c-7.87,-8.68 -9.22,-18.74 -9.47,-29.13c-0.01,-0.61 0,-1.45 0.37,-1.82c1.82,-1.8 11.8,0.34 13.33,2.49c4.94,6.99 5.87,13.75 0,20.8c-1.8,2.17 -2.79,4.99 -4.23,7.66z" class="st11"/>
   <path id="svg_31" fill="#E5E8EC" d="m107.06,419.4c-1.62,-2.94 -2.81,-5.87 -4.66,-8.28c-4.89,-6.39 -4.96,-12.49 -0.25,-19.05c2.12,-2.94 10.84,-5.76 13.8,-3.83c0.77,0.5 0.59,1.11 0.56,1.74c-0.36,10.51 -1.54,20.76 -9.45,29.42z" class="st5"/>
   <path id="svg_32" fill="#B3DB7E" d="m350.01,182.52c-2.5,-3.73 -2.91,-7.48 -1.26,-11.69c1.65,-4.22 3.82,-8.06 6.83,-11.41c1.96,-2.18 4.2,-5.26 6.75,-5.22c3.5,0.06 2.31,4.49 3.39,6.86c1.37,3 5.36,6.03 3.92,8.71c-1.33,2.5 -5.83,3.17 -8.71,5c-3.72,2.39 -7.22,5.11 -10.92,7.75z" class="st12"/>
   <path id="svg_33" fill="#EECEB2" d="m391.97,320.32c8.75,2.23 16.42,2.16 24.05,0.32c1.4,-0.34 2.65,-0.33 2.7,1.2c0.06,1.86 2.38,3.89 -0.09,5.6c-4.23,2.93 -8.46,5.88 -12.85,8.55c-1.93,1.18 -16.65,-8.43 -16.12,-10.53c0.45,-1.81 -0.35,-5.13 2.31,-5.14z" class="st13"/>
   <path id="svg_34" fill="#EECEB2" d="m95.62,320.53c7.89,2.02 15.39,1.92 22.87,0.23c1.48,-0.34 2.98,-0.72 3.1,1.23c0.11,1.82 2.35,3.84 -0.23,5.56c-4.14,2.76 -8.32,5.46 -12.39,8.32c-1.5,1.06 -2.52,0.38 -3.69,-0.41c-3.84,-2.58 -7.65,-5.23 -11.58,-7.68c-2.71,-1.68 -0.64,-3.67 -0.55,-5.48c0.1,-1.73 1.19,-2.38 2.47,-1.77z" class="st13"/>
   <path id="svg_35" fill="#B2DB7E" d="m164.45,175.71c-0.19,1.71 -0.14,3.37 -1.46,4c-1.27,0.61 -1.99,-0.94 -2.86,-1.63c-4.58,-3.63 -9.55,-6.63 -15.02,-8.65c-2.44,-0.9 -2.81,-1.73 -1.32,-3.91c2.03,-2.97 3.31,-6.35 3.9,-9.92c0.32,-1.96 1.26,-2.32 2.77,-1.27c7.66,5.29 12.44,12.47 13.99,21.38z" class="st14"/>
   <path id="svg_36" fill="#FD816D" d="m207.05,128.73c1.31,-10.9 6.28,-18.22 14.14,-23.78c1.49,-1.05 2.45,-0.87 2.79,1.14c0.66,3.92 2.26,7.5 4.42,10.81c1.1,1.69 1.15,2.51 -1.09,3.17c-6.69,1.96 -13.1,4.72 -20.26,8.66z" class="st15"/>
   <path id="svg_37" fill="#FD816D" d="m304.9,128.63c-7.08,-3.73 -13.29,-6.52 -19.83,-8.44c-2.13,-0.63 -2.93,-1.23 -1.45,-3.39c2.14,-3.11 3.62,-6.59 4.31,-10.31c0.38,-2.04 1.03,-2.87 2.95,-1.49c7.82,5.6 12.8,12.89 14.02,23.63z" class="st15"/>
   <path id="svg_38" fill="#CACFD7" d="m112.28,371.57c-2.09,-0.37 -5.56,1.25 -6.91,-0.71c-2.04,-2.98 -2.97,-6.83 -3.9,-10.43c-0.52,-2.02 5.04,-4.62 7.56,-3.52c2.96,1.3 5.99,2.58 8.66,4.36c1.9,1.27 6.07,0.6 4.95,4.98c-0.99,3.88 -2.92,6.32 -7.41,5.33c-0.8,-0.17 -1.69,-0.01 -2.95,-0.01z" class="st16"/>
   <path id="svg_39" fill="#FDC629" d="m397.54,371.57c-2.88,0.18 -7.07,1.01 -8.14,-4.9c-0.38,-2.12 -0.16,-3.07 1.73,-3.95c3.55,-1.65 7.21,-3.18 10.45,-5.32c3.25,-2.14 5.54,-0.19 7.91,1.17c2.77,1.59 0.37,3.73 -0.12,5.36c-2.31,7.67 -2.42,7.64 -11.83,7.64z" class="st17"/>
   <path id="svg_40" fill="#FCC529" d="m90.93,345.77c-6.07,3.04 -11.36,5.65 -16.6,8.36c-1.29,0.67 -2.19,0.74 -2.86,-0.69c-0.07,-0.15 -0.16,-0.3 -0.22,-0.46c-1.42,-3.71 -5.36,-6.62 -4.59,-10.85c0.38,-2.06 15.27,-2.39 17.83,-0.69c1.83,1.22 3.66,2.47 6.44,4.33z" class="st18"/>
   <path id="svg_41" fill="#F96D50" d="m421.93,346.16c6.31,-8.86 14.24,-6.44 22.13,-4.56c1.95,0.47 2.16,1.31 1.31,2.86c-0.08,0.15 -0.19,0.29 -0.25,0.45c-4.55,10.62 -4.55,10.63 -14.88,5.49c-2.74,-1.36 -5.44,-2.77 -8.31,-4.24z" class="st19"/>
   <path id="svg_42" fill="#B1D97D" d="m444.31,172.28c-6.93,-3.14 -13.05,-5.09 -19.55,-6.31c1.1,-2.87 2.55,-5.47 3.04,-8.24c0.77,-4.35 2.14,-4.57 5.34,-1.85c4.94,4.17 8.63,9.09 11.17,16.4z" class="st20"/>
   <path id="svg_43" fill="#B1DA7D" d="m86.62,164.99c-5.04,0 -9.92,0 -15.28,0c1.91,-4.86 5.64,-7.87 9.57,-10.68c1.55,-1.11 2.3,-0.51 2.76,1.31c0.8,3.09 1.9,6.09 2.95,9.37z" class="st21"/>
   <path id="svg_44" fill="#F77E6B" d="m424.46,383.3c-2.26,-3.4 -1.18,-13.65 1.26,-15.52c1.65,-1.27 2.83,0.45 4.17,0.92c1.31,0.46 1.8,1.29 0.96,2.77c-2.17,3.81 -4.17,7.7 -6.39,11.83z" class="st22"/>
   <path id="svg_45" fill="#F5D16D" d="m87.73,383.58c-2.32,-4.31 -4.16,-8.1 -6.35,-11.66c-1.72,-2.79 0.55,-3 2.04,-3.91c1.93,-1.17 3.15,-0.92 3.58,1.49c0.77,4.39 5.03,8.44 0.73,14.08z" class="st23"/>
   <path id="svg_46" fill="#F8C228" d="m124.17,345.67c4.14,-2.35 6.7,-6.14 11.36,-6.18c0.88,-0.01 2.3,-0.31 2.54,0.99c0.11,0.62 -0.63,1.45 -1.08,2.12c-0.37,0.56 -0.89,1.03 -1.32,1.56c-4.45,5.58 -4.45,5.58 -11.5,1.51z" class="st24"/>
   <path id="svg_47" fill="#F56B4F" d="m373.48,340.46c3.81,-1.13 11.59,1.68 13.25,4.4c0.63,1.03 0.25,1.7 -0.65,1.91c-2.22,0.52 -4.09,3.98 -6.68,1.27c-2.18,-2.27 -3.91,-4.96 -5.92,-7.58z" class="st25"/>
   <path id="svg_48" d="m255.68,272.59c-13.05,-0.59 -23.26,-6.38 -30.2,-17.92c-1.51,-2.51 -1.28,-3.94 1.55,-4.84c0.64,-0.2 1.23,-0.6 1.84,-0.91c2.76,-1.38 5.41,-3.53 8.3,-3.92c3.57,-0.48 3.86,3.97 5.99,5.93c8.51,7.81 21.77,6.51 28.14,-3.39c1.85,-2.87 3.19,-3.45 5.94,-1.63c1.7,1.13 3.63,1.91 5.47,2.82c5.95,2.96 6.02,3 2.09,8.59c-7,9.95 -16.73,14.83 -29.12,15.27z"/>
  </g>
 </g>
</svg>