<svg width="512" height="512" xmlns="http://www.w3.org/2000/svg" xml:space="preserve" version="1.1">

 <g>
  <title>Layer 1</title>
  <g id="svg_1">
   <path id="svg_2" fill="#FEFEFE" d="m493.69,392.7c5,38.55 -19.3,71.25 -57.28,78.68c-37.96,7.43 -76.55,-20.42 -81.56,-58.85c-0.36,-2.81 -0.65,-5.62 -0.97,-8.43c-7.42,5.91 -14.58,12.17 -22.75,17.08c-14.52,10.08 -30.23,17.68 -47.19,22.68c-48.41,15.9 -96.12,14.43 -143.08,-5.73c-3.23,-0.34 -5.74,-2.49 -8.73,-3.42c-4.91,1.39 -5.83,7.04 -9.93,9.3c-2.39,1.97 -4.77,3.94 -7.16,5.92c-25.58,16.69 -51.65,17.97 -78.24,2.43c-1.27,-0.74 -2.52,-1.52 -3.78,-2.27c-2.73,-2.34 -5.9,-4.15 -8.09,-7.1c-12.32,-11.58 -19.07,-25.8 -20.93,-42.64c-2.07,-18.73 3.05,-35.27 14.04,-50.25c1.76,-2.39 3.51,-4.82 6.32,-6.14c1.88,-3.78 5.63,-5.58 8.66,-8.12c4.95,-3.27 10.01,-6.3 15.64,-8.27c1.36,-0.48 2.89,-0.92 3.41,-2.59c-20.99,-17.45 -35.68,-39.25 -44.89,-64.85c-2.36,-9.71 -4.72,-19.41 -7.08,-29.11c2.75,0.4 2.39,2.85 2.74,4.57c1.58,7.8 3.36,15.53 5.56,23.17c0.18,0.57 0.36,1.14 0.55,1.7c0.1,0.3 0.2,0.61 0.3,0.91c7.87,23.37 21.71,42.82 39.9,59.44c1.31,1.2 3.04,2.13 3.44,4.11c-0.01,0.11 -0.02,0.21 -0.04,0.31c-0.01,0.08 -0.03,0.15 -0.05,0.22c-0.42,2 -2.15,2.74 -3.84,3.39c-5.11,1.97 -9.78,4.74 -14.42,7.6c-0.12,0.08 -0.23,0.15 -0.35,0.22c-0.03,0.02 -0.07,0.04 -0.1,0.07c-3.2,2.13 -6.08,4.61 -8.67,7.44c-0.05,0.05 -0.09,0.1 -0.13,0.15c-0.24,0.25 -0.46,0.5 -0.68,0.75c-11.18,11.5 -17.53,25.15 -19.05,41.2c-2.07,21.78 4.93,40.14 20.11,55.61c0.09,0.11 0.19,0.22 0.28,0.32c0.08,0.1 0.17,0.19 0.25,0.28c2.34,2.57 5.23,4.49 7.94,6.63c0.14,0.1 0.28,0.21 0.41,0.32c0.03,0.02 0.07,0.04 0.1,0.06c12.41,7.87 25.71,12.52 40.66,12.17c11.87,-0.28 22.88,-3.2 33.15,-9.07c1.79,-1.02 3.63,-1.94 5.41,-2.99c0.08,-0.05 0.16,-0.09 0.24,-0.14c0.1,-0.07 0.2,-0.14 0.3,-0.22c2.52,-1.83 4.58,-4.22 7.15,-5.98c0.09,-0.08 0.19,-0.14 0.29,-0.21c0.09,-0.08 0.19,-0.15 0.28,-0.24c2.04,-1.69 3.61,-3.81 5.27,-5.87c1.23,-1.53 2.66,-2.79 4.69,-2.95c0.2,-0.03 0.4,-0.03 0.61,-0.03c0.06,0.01 0.12,0.02 0.18,0.03c2.7,0.44 5.03,1.9 7.58,2.77c0.23,0.08 0.46,0.15 0.7,0.21c0.33,0.1 0.66,0.18 1,0.25c17.64,7.27 35.86,12.26 54.85,14.59c27.88,3.41 55.08,0.41 81.83,-7.73c1.43,-0.44 2.84,-0.95 4.3,-1.28c0.37,-0.1 0.74,-0.2 1.1,-0.32c0.35,-0.09 0.7,-0.19 1.05,-0.3c16.26,-4.76 31.17,-12.41 45.24,-21.8c0.03,-0.02 0.05,-0.03 0.08,-0.05c0.33,-0.22 0.66,-0.43 0.98,-0.65c6.59,-4.33 12.86,-9.05 18.91,-14.12c1.03,-0.86 1.99,-2.33 3.57,-1.7c0.04,0.01 0.07,0.03 0.11,0.04c0.17,0.08 0.35,0.18 0.54,0.31c2.3,7.96 2.53,16.37 6.03,24.1c11.59,25.61 31.06,39.94 59.18,42.37c30.45,2.62 55.6,-15.6 66.94,-38.86c15.9,-32.59 2.23,-73.98 -29.99,-90.53c-0.13,-0.07 -0.26,-0.13 -0.39,-0.2c-0.02,-0.01 -0.05,-0.03 -0.07,-0.04c-8.91,-4.93 -18.86,-6.39 -28.62,-8.4c-0.17,-0.28 -0.3,-0.53 -0.39,-0.76c10.43,0.99 20.61,2.88 29.8,8.33c21.41,11.09 33.74,29 36.78,52.48z" class="st0"/>
   <path id="svg_3" fill="#FEFEFE" d="m511.9,210.02c-2.58,5.79 -2.4,12.17 -3.88,18.21c-5.16,21.08 -13.68,40.52 -27.11,57.69c-1.8,3.1 -3.97,5.89 -6.7,8.24c-11.77,14.64 -26.39,25.79 -42.69,34.9c-1.52,0.85 -2.97,1.83 -4.45,2.75c-0.86,-2.26 1.82,-2.49 2.99,-3.16c9.82,-5.66 19.24,-11.86 27.79,-19.36c5.33,-4.66 10.47,-9.47 14.83,-15.05c0.17,-0.2 0.32,-0.41 0.48,-0.61c0.05,-0.05 0.1,-0.1 0.15,-0.15c2.58,-2.45 4.79,-5.2 6.81,-8.12c0.06,-0.08 0.12,-0.17 0.18,-0.26c0.05,-0.07 0.1,-0.14 0.15,-0.21c15.16,-20.78 24.72,-43.85 28.6,-69.3c0.3,-1.95 -0.39,-4.92 2.85,-5.57z" class="st0"/>
   <path id="svg_4" fill="#FEFEFE" d="m511.9,178.04c-3.41,-1.01 -2.13,-4.29 -3.15,-6.46c-0.04,-0.2 -0.07,-0.4 -0.09,-0.59c-0.03,-0.2 -0.05,-0.39 -0.07,-0.58c-0.01,-0.08 -0.01,-0.15 -0.02,-0.23c0,-0.04 -0.01,-0.09 -0.01,-0.13c0,-0.01 0,-0.03 -0.01,-0.04c-0.58,-3.42 -1,-6.87 -1.78,-10.26c-0.05,-0.23 -0.09,-0.46 -0.15,-0.68c-0.05,-0.25 -0.11,-0.49 -0.16,-0.73c-0.02,-0.06 -0.03,-0.11 -0.05,-0.16c-0.04,-0.17 -0.09,-0.34 -0.14,-0.51c-0.06,-0.26 -0.13,-0.51 -0.21,-0.76c-6.07,-24.74 -17.74,-46.43 -34.74,-65.43c-4.13,-4.62 -8.85,-8.54 -13.17,-12.89c-0.16,-0.15 -0.31,-0.3 -0.46,-0.46c-0.08,-0.07 -0.15,-0.15 -0.23,-0.23c-2.71,-2.75 -5.92,-4.85 -9.03,-7.07c-0.22,-0.15 -0.43,-0.31 -0.64,-0.46c-0.09,-0.07 -0.19,-0.14 -0.28,-0.2c-22.07,-16.33 -46.93,-25.55 -74.11,-28.48c-5.37,-0.58 -10.87,-1.12 -16.34,-0.57c-0.23,0.01 -0.46,0.04 -0.69,0.08c-0.27,0.02 -0.55,0.05 -0.82,0.09c-3.24,0.35 -6.49,0.21 -9.74,0.2c-0.28,0.02 -0.56,0.04 -0.84,0.06c-0.26,0.02 -0.53,0.04 -0.79,0.06c-20.78,1.6 -40.35,7.53 -58.75,17.28c-16.56,8.78 -30.73,20.61 -43.21,34.5c-0.25,0.26 -0.48,0.52 -0.72,0.79c-0.04,0.05 -0.09,0.11 -0.14,0.16c-1.87,2.45 -4.04,4.66 -5.73,7.26c-0.21,0.22 -0.4,0.46 -0.6,0.7c-0.21,0.26 -0.43,0.53 -0.65,0.79l0,0.01c-0.49,0.56 -1.02,1.08 -1.7,1.41c-0.08,0.04 -0.15,0.07 -0.23,0.1c-0.2,0.08 -0.42,0.15 -0.65,0.19c-1.85,0.18 -3.05,-1.01 -4.37,-2.01c-9.16,-6.96 -19.08,-12.62 -29.58,-17.28c-0.25,-0.11 -0.5,-0.22 -0.75,-0.33c-0.17,-0.07 -0.33,-0.15 -0.5,-0.22c-34.4,-13.76 -69.01,-14.11 -103.84,-1.84c-0.05,0.01 -0.1,0.03 -0.15,0.05c-0.35,0.13 -0.7,0.26 -1.05,0.41c-35,13.42 -60.04,37.58 -76.59,70.89c-0.14,0.27 -0.28,0.54 -0.41,0.82l-0.21,0.42c-1.33,3.26 -2.81,6.46 -4.18,9.7c-0.08,0.18 -0.16,0.37 -0.24,0.55c-0.03,0.08 -0.05,0.16 -0.08,0.24c-2.9,9.3 -5.61,18.64 -6.99,28.33c-0.25,1.79 -0.31,3.67 -1.34,5.28c-0.16,0.18 -0.33,0.31 -0.51,0.36c-0.04,0.02 -0.07,0.03 -0.11,0.03c-0.25,0.07 -0.52,0.01 -0.8,-0.17c0.3,-0.02 0.61,-0.04 0.92,-0.06c0.81,-12.08 4,-23.61 8,-34.95c1.38,-3.28 2.77,-6.56 4.15,-9.84c16.72,-34.31 42.42,-59 78.14,-72.96c35.72,-13.05 71.19,-12.85 106.38,2.04c11.19,4.52 21.47,10.61 31,17.98c1.03,0.81 1.91,1.84 3.35,1.89c0.95,-1.09 1.9,-2.18 2.85,-3.27c1.31,-2.64 3.39,-4.68 5.38,-6.79c22.37,-26.62 50.74,-43.31 84.53,-50.92c6.63,-1.49 13.33,-2.77 20.17,-2.8c3.67,-0.46 7.33,-0.94 11.02,-0.33c11.68,-1.04 23.13,0.61 34.47,3.09c21.48,4.69 41.27,13.17 58.65,26.86c3.3,1.92 6.34,4.17 8.83,7.11c25.16,21.16 41.51,47.75 49.17,79.71c0.75,0.62 0.71,1.45 0.62,2.3c0.69,3.63 1.37,7.27 2.05,10.9c0.03,0.35 0.06,0.71 0.09,1.06c1.26,2.16 0.09,5.03 2.03,6.99z" class="st0"/>
   <path id="svg_5" fill="#C25B26" d="m511.9,185.03c-0.81,2 -0.81,4 0,6l0,5c-0.81,2 -0.81,4 0,6l0,7.99c-2.58,5.79 -2.4,12.17 -3.88,18.21c-5.16,21.08 -13.68,40.52 -27.11,57.69c-0.26,-0.18 -0.53,-0.37 -0.79,-0.56c-8.94,-6.3 -17.19,-13.51 -25.76,-20.3c-16.23,-12.88 -32.42,-25.82 -48.52,-38.86c-4.6,-3.73 -4.55,-4.06 -0.68,-8.63c0.63,-0.6 1.26,-1.21 1.89,-1.83c1.54,-1.5 3.06,-3.02 4.56,-4.57c0.68,-0.69 1.34,-1.39 2.01,-2.09c7.58,-8.56 17.74,-13.61 26.84,-20.15c10.43,-7.49 22.75,-9.79 34.16,-14.5c3.85,-1.59 8.33,-2.15 12.58,-2.91c1.69,-0.03 3.44,0.65 5.04,-0.42c0.59,-0.32 1.21,-0.53 1.88,-0.53c1.98,0.25 3.96,0.39 5.87,-0.38c1.39,-0.4 2.76,-0.82 4.23,-0.73c1.28,0.26 2.65,0.18 3.89,0.56l0.01,0c0.16,0.05 0.3,0.1 0.45,0.16c0.1,0.05 0.21,0.1 0.31,0.15c0.35,0.18 0.68,0.41 0.99,0.72c1.26,2.16 0.09,5.03 2.03,6.99l0,6.99z" class="st1"/>
   <path id="svg_6" fill="#C5CCC8" d="m57.84,240.25c-6.94,9.56 -13.31,19.51 -20.09,29.18c-2.04,2.91 -4.24,3.37 -7.23,1.94c-7.07,-3.38 -14.47,-6.06 -21.27,-10c-0.7,-0.4 -1.39,-0.81 -2.07,-1.24c-2.36,-9.71 -4.72,-19.41 -7.08,-29.11l0,-2c0.81,-2 0.81,-4 0,-6l0,-16.99c1.22,-1.8 -0.08,-3.98 0.8,-5.83c0.03,-0.08 0.08,-0.15 0.12,-0.23c0.81,-12.08 4,-23.61 8,-34.95c0.39,0.12 0.77,0.25 1.15,0.39c5.92,2.11 10.92,5.98 16.42,8.89c8.23,4.37 16.26,9.1 24.39,13.64c2.89,1.62 4.15,3.86 4.48,7.18c1.24,12.4 2.96,24.75 4.21,37.15c0.3,3.01 -0.07,5.54 -1.83,7.98z" class="st2"/>
   <path id="svg_7" fill="#C86B3C" d="m511.9,202.03c-1.55,-2 -1.5,-4 0,-6c0,2 0,4 0,6z" class="st3"/>
   <path id="svg_8" fill="#E2E6E3" d="m0.1,206.03l0,-6c0.3,-0.02 0.61,-0.04 0.92,-0.06c0,0.07 -0.01,0.13 -0.01,0.2c-0.1,1.98 0.78,4.12 -0.91,5.86z" class="st4"/>
   <path id="svg_9" fill="#CB7244" d="m511.9,191.03c-1.47,-2 -1.58,-4 0,-6c0,2 0,4 0,6z" class="st5"/>
   <path id="svg_10" fill="#DBDFDC" d="m0.1,223.02c1.48,2 1.56,4 0,6c0,-2 0,-4 0,-6z" class="st6"/>
   <path id="svg_11" fill="#7C5F53" d="m284.99,442.18c-0.24,0.58 -0.59,1.14 -1.05,1.68c-48.41,15.9 -96.12,14.43 -143.08,-5.73c-0.28,-0.45 -0.52,-0.91 -0.7,-1.37c-1.27,-3.14 -0.53,-6.54 -0.67,-9.82c-0.08,-1.98 -0.01,-3.96 0.07,-5.95c0,0 0,0 0,-0.01c0.03,-1 0.06,-2.01 0.07,-3.01c0.03,-0.83 0.03,-1.65 0.01,-2.47c1.11,-8.18 3.29,-16.16 3.08,-24.59c-0.18,-7.07 -2.56,-13.67 -3.08,-20.61l-0.03,-2.64c-0.01,-0.88 -0.02,-1.76 -0.03,-2.64c-0.37,-32.96 -0.06,-65.92 -0.15,-98.87c0,-2.58 -0.23,-5.18 0.5,-7.7c0.07,-0.23 0.15,-0.46 0.23,-0.69c0.06,-0.11 0.13,-0.22 0.2,-0.33c1.39,-2.15 3.84,-2.64 6.02,-3.46c29.06,-10.91 59.05,-15.32 90.03,-12.76c0.27,0.02 0.53,0.05 0.8,0.08c0.03,0 0.06,0 0.1,0.01c4.22,0.44 8.43,1.22 12.71,1.19c0.01,0 0.01,0 0.02,0.01c0.07,0.02 0.15,0.04 0.22,0.06c9.58,2.71 19.52,4.03 28.99,7.22c0.27,0.08 0.54,0.18 0.8,0.27c0.1,0.03 0.19,0.07 0.29,0.1c1.67,0.66 3.3,1.36 4.24,2.89c0.03,0.06 0.07,0.11 0.09,0.17c0.16,0.27 0.28,0.56 0.39,0.88c0.74,2.61 0.55,5.29 0.55,7.95c0.01,57.57 0.02,115.15 -0.02,172.73c0,2.47 0.43,5.08 -0.6,7.41z" class="st7"/>
   <path id="svg_12" fill="#2D2C2C" d="m285.01,224.92c-0.27,0.79 -0.71,1.37 -1.25,1.82c-0.13,0.11 -0.26,0.21 -0.4,0.31l-0.01,0.01c-0.86,0.58 -1.9,0.95 -2.9,1.35c-5.22,2.1 -10.45,4.2 -15.68,6.3c-5.15,2.05 -10.53,3.7 -14.51,7.85c-0.15,0.14 -0.28,0.29 -0.42,0.44c-4.44,1.96 -8.61,0.05 -12.84,-0.93c0.08,-0.26 0.15,-0.52 0.21,-0.78c1.44,-5.97 -2.02,-10.33 -5.14,-14.93c-5.22,-7.71 -10.33,-15.5 -15.06,-23.51c-2.22,-3.78 -4.71,-5.32 -9.26,-4.63c-17.24,2.64 -34.55,4.8 -51.84,7.08c-3.13,0.42 -4.56,2.44 -5.88,4.79c-5.78,10.29 -11.4,20.68 -17.51,30.77c-2.61,4.31 -3.07,8.19 0.01,12.41c1.25,1.71 2.55,3.51 2.94,5.73c-0.03,0.05 -0.05,0.1 -0.08,0.14c-0.04,0.08 -0.09,0.16 -0.14,0.23c-2.58,4.28 -7.96,6.46 -12.28,5.01c-0.15,-0.05 -0.3,-0.11 -0.45,-0.17l-0.01,0c-0.01,0 -0.02,-0.01 -0.03,-0.01c-3.83,-9.9 -11.43,-13.43 -21.64,-14.22c-8.9,-0.68 -17.75,-2.61 -26.56,-4.33c-3.71,-0.73 -6.26,-0.02 -8.4,3.37c-5.68,9 -11.72,17.77 -17.91,26.42c-2.25,3.14 -2.59,6.2 -1.34,9.84c3.72,10.85 7.89,21.55 11.24,32.52c0.64,2.12 1.75,4.24 0.9,6.5c-0.08,0.21 -0.17,0.43 -0.29,0.64l-0.01,0c0,0.02 -0.02,0.05 -0.03,0.07c-1.99,1.18 -3.97,2.39 -5.94,0.44c-0.14,-0.14 -0.29,-0.29 -0.43,-0.47c-20.99,-17.45 -35.68,-39.25 -44.89,-64.85c0.6,0.09 1.19,0.2 1.77,0.33c5.92,1.34 10.94,4.88 16.42,7.25c9.22,3.98 9.13,4.19 14.66,-3.89c5.63,-8.22 11.21,-16.48 16.9,-24.66c1.4,-2.01 1.9,-3.88 1.57,-6.44c-1.64,-12.51 -3.09,-25.04 -4.32,-37.6c-0.29,-3.01 -1.34,-4.73 -3.97,-6.18c-12.5,-6.89 -24.9,-13.95 -37.31,-21c-1,-0.57 -2.19,-0.94 -3.05,-1.74c-0.34,-0.31 -0.63,-0.69 -0.83,-1.18c1.38,-3.28 2.77,-6.56 4.15,-9.84c0.63,-0.49 1.23,-0.69 1.8,-0.71c1.32,-0.04 2.49,0.9 3.61,1.55c10.78,6.28 21.88,11.99 32.49,18.54c3.97,2.45 7.58,2.78 11.69,0.67c12.57,-6.46 25.57,-12.05 38.17,-18.46c2.24,-1.13 3.64,-2.74 4.5,-5.04c5.83,-15.57 11.76,-31.11 17.68,-46.65c1.32,-3.45 -0.49,-4.9 -3.13,-6.14c-8.43,-3.98 -16.56,-8.52 -24.76,-12.94c-1.26,-0.68 -3.03,-0.98 -3.66,-2.42c-0.17,-0.37 -0.26,-0.81 -0.25,-1.36c35.72,-13.05 71.19,-12.85 106.38,2.04c0.14,0.45 0.18,0.87 0.16,1.25c-0.1,1.81 -1.68,2.99 -2.64,4.34c-1.98,2.76 -1.88,5.02 0.42,7.54c14.56,15.97 28.52,32.47 42.9,48.6c1.61,1.81 3.68,2.77 5.83,3.71c8.54,3.73 17.19,7.18 25.73,10.91c1.27,0.55 2.51,1.13 3.65,1.9c0.24,0.16 0.48,0.33 0.71,0.52c0.26,0.19 0.51,0.41 0.75,0.64c4.55,7.7 6,16.36 7.83,24.9c0.04,0.18 0.08,0.37 0.12,0.55c0.08,0.37 0.16,0.74 0.24,1.11c0.62,3.7 0.86,7.45 1.5,11.14c0.08,0.42 0.15,0.83 0.24,1.25c0,0.02 0.01,0.04 0.01,0.06c0.49,7.42 0.77,14.84 -0.13,22.24z" class="st8"/>
   <path id="svg_13" fill="#A94B21" d="m509.78,169.99c-0.3,0.14 -0.6,0.26 -0.9,0.34c-0.1,0.04 -0.19,0.06 -0.29,0.08c-1.51,0.38 -3.04,0.18 -4.57,-0.31c-1.39,0.32 -2.77,0.64 -4.16,0.96c-1.96,0.74 -3.93,0.71 -5.9,0.02c-0.35,0.33 -0.7,0.66 -1.06,0.99c-1.65,0.71 -3.29,0.69 -4.95,0.01c-3.59,1.54 -7.27,2.58 -11.2,3.04c-4.54,0.54 -8.78,2.79 -12.92,4.34c-7.08,2.65 -15.14,3.81 -20.81,9.74c-2.14,2.24 -5.39,2.68 -7.99,4.5c-7.28,5.13 -14.76,9.93 -21.05,16.31c-3.1,2.26 -5.78,4.94 -8.05,8.03c-2.96,2.81 -2.91,4.61 0.75,7.45c19.77,15.39 39.34,31.06 58.74,46.91c5.04,4.12 10.88,7.4 14.88,12.7c0.22,0.26 0.42,0.54 0.61,0.82c-1.8,3.1 -3.97,5.89 -6.7,8.24c-0.55,0.13 -1.06,0.15 -1.53,0.08c-1.85,-0.24 -3.13,-1.77 -4.51,-2.88c-23.07,-18.32 -46.14,-36.63 -69.14,-55.04c-4.63,-3.71 -3.71,-3.33 -6.8,1.08c-11.78,16.77 -18.51,35.52 -22.14,55.52c-0.3,1.67 -1.05,3.15 -1.63,4.71c-0.27,1.44 -0.18,2.91 -0.37,4.36c-0.2,1.3 -0.67,2.44 -1.84,3.18c-0.07,-0.02 -0.15,-0.04 -0.22,-0.07c-0.04,0 -0.08,-0.01 -0.12,-0.03c-5.24,-1.52 -8.08,-5.67 -10.73,-10.03c0.03,-0.23 0.06,-0.45 0.1,-0.68c0,-0.08 0.02,-0.17 0.03,-0.25c3.3,-23.44 11.87,-44.87 24.98,-64.55c3.46,-5.2 3.52,-5.38 -1.23,-9.27c-5.28,-4.31 -10.7,-8.45 -15.92,-12.82c-2.69,-2.24 -4.51,-2.91 -7.26,0.46c-13.94,17.13 -27.22,34.78 -41.21,51.87c-1.12,1.37 -2.08,2.95 -3.74,3.68c-0.08,0.04 -0.17,0.08 -0.26,0.11c-0.27,0.1 -0.55,0.18 -0.86,0.23c-3.79,-0.5 -7.11,-2.09 -10.11,-4.4c-0.17,-0.3 -0.29,-0.59 -0.37,-0.87c-0.04,-0.12 -0.07,-0.24 -0.09,-0.36c-0.3,-1.57 0.58,-2.9 1.61,-4.19c15.08,-18.76 29.94,-37.71 45.19,-56.33c1.14,-1.41 2.57,-2.8 0.01,-4.22c-8.63,-6.68 -16.77,-13.98 -25.79,-20.12c-1.68,-0.18 -1.93,1.22 -2.49,2.28c-2.81,4 -6.18,7.46 -10.23,10.21c-0.64,0.23 -1.22,0.52 -1.73,0.88c-0.01,0.03 -0.02,0.04 -0.04,0.04c-0.28,0.2 -0.53,0.41 -0.77,0.66c0,0 0,0.01 -0.01,0.01c-0.53,0.51 -0.99,1.12 -1.39,1.8c-5.13,5.52 -11.94,8.78 -17.88,13.22c-0.18,0.14 -0.38,0.19 -0.59,0.19c-0.42,0 -0.86,-0.24 -1.23,-0.54c-0.98,-3.98 -1.74,-7.99 -1.72,-12.12c0.25,-0.49 0.53,-0.96 0.85,-1.39c2.71,-3.87 7.41,-5.57 10.54,-9c0.45,-0.27 0.88,-0.55 1.29,-0.86c0.55,-0.39 1.07,-0.82 1.57,-1.3c0.44,-0.39 0.85,-0.81 1.25,-1.26c2.71,-2.71 5.33,-5.51 8.14,-8.1c2.56,-2.35 2.67,-4.18 -0.23,-6.4c-4.22,-3.25 -8.31,-6.66 -12.48,-9.98c-18.25,-14.5 -36.54,-28.94 -54.69,-43.56c-1.77,-1.43 -3.98,-2.7 -4.04,-5.01l0,-0.01c-0.03,-0.66 0.12,-1.38 0.51,-2.23c1.31,-2.64 3.39,-4.68 5.38,-6.79c0.69,-0.57 1.34,-0.75 1.95,-0.68c0.9,0.08 1.72,0.69 2.5,1.33c23.4,18.92 47.18,37.35 70.51,56.36c0.53,0.13 0.92,0.86 1.37,1.38c0.37,0.45 0.79,0.74 1.36,0.34c0.25,-0.17 0.52,-0.47 0.83,-0.94c13.69,-19.01 21.14,-40.53 25.68,-63.23c0.22,-1.53 0.15,-3.07 0.3,-4.6c0.14,-1.33 0.5,-2.61 0.74,-3.93c0.19,-2.76 0.06,-5.53 0.06,-8.3c0.02,-3.44 0.01,-6.88 0,-10.31c0.01,-2.76 0.1,-5.51 -0.04,-8.27c-0.1,-1.05 -0.47,-2.05 -0.61,-3.09c-0.31,-2.03 -0.17,-4.12 -0.81,-6.1c-0.14,-0.85 -0.18,-1.67 0.07,-2.42c0.14,-0.45 0.39,-0.87 0.79,-1.26c3.67,-0.46 7.33,-0.94 11.02,-0.33c0.43,0.32 0.78,0.69 1.07,1.1c0.45,0.62 0.74,1.34 0.92,2.13c0.37,2.02 0.19,4.13 0.94,6.1c0.21,0.81 0.33,1.62 0.37,2.45c0.07,3.16 0.03,6.32 0.07,9.47c-0.02,3.83 -0.01,7.66 0,11.48c-0.04,2.86 0.02,5.73 -0.09,8.58c-0.08,1.36 -0.41,2.66 -0.77,3.96c-0.28,1.48 -0.23,2.99 -0.44,4.47c-2.48,23.26 -10.76,44.38 -23.58,63.83c-1.19,1.8 -2.45,3.57 -3.61,5.39c-1.15,1.8 -1.05,3.47 0.66,4.86c7.34,6 14.75,11.92 22.2,17.78c2.83,2.23 4.54,0.43 6.22,-1.62c6.14,-7.44 12.15,-14.98 18.12,-22.56c22.64,-28.74 45.65,-57.18 68.34,-85.88c0.36,-0.45 0.66,-1.03 1.1,-1.39c0.39,-0.32 0.88,-0.46 1.6,-0.2c3.3,1.92 6.34,4.17 8.83,7.11c0.16,0.54 0.22,1.04 0.21,1.51c-0.07,2.41 -2.15,4.01 -3.48,5.66c-18.06,22.59 -35.93,45.33 -54.06,67.86c-9.79,12.17 -19.25,24.61 -29.27,36.6c-2.65,3.17 -2.53,5.25 0.81,7.74c5.33,3.98 10.38,8.33 15.64,12.41c4.58,3.57 5.59,3.64 9.64,-0.62c10.02,-10.55 21,-19.82 33.6,-27.25c19.33,-11.39 40.01,-18.75 62.18,-22.03c1.74,-0.28 3.51,-0.16 5.25,-0.41c1.54,-0.43 3.09,-0.72 4.68,-0.8c0.81,0 1.62,0 2.39,0.16c0.3,0.06 0.59,0.15 0.88,0.27c0.06,0.02 0.12,0.05 0.18,0.08c0.41,0.19 0.79,0.46 1.14,0.83c0.69,3.63 1.37,7.27 2.05,10.9z" class="st9"/>
   <path id="svg_14" fill="#607216" d="m436.41,471.38c-37.96,7.43 -76.55,-20.42 -81.56,-58.85c-0.36,-2.81 -0.65,-5.62 -0.97,-8.43c-0.04,-0.08 -0.08,-0.16 -0.11,-0.24c-2.7,-5.86 -0.39,-11.68 0.83,-17.24c4.09,-18.6 14.39,-33.15 29.98,-43.94c0.23,-0.16 0.46,-0.32 0.69,-0.48c0.11,-0.06 0.21,-0.12 0.32,-0.18c1.73,-1.02 3.41,-2.24 5.64,-1.36l0.01,0c0.1,0.09 0.2,0.17 0.29,0.26c2.07,1.98 1.89,4.68 2.08,7.25c-0.52,5.01 -0.41,10.03 -0.08,15.05c0.14,1.27 -0.21,2.46 -0.63,3.64c-0.9,1.91 -0.73,3.92 -0.49,5.93c0,0.69 -0.23,1.31 -0.54,1.9c-1.04,1.67 -0.33,3.45 -0.31,5.19c-0.48,4.47 -0.88,8.96 -2.43,13.23c-0.93,1.51 -0.88,3.2 -0.87,4.88c0.14,2.31 -0.46,4.69 0.66,6.91c1.41,2.28 1.97,4.93 3.24,7.29c4.7,8.71 12.85,12.06 21.79,14.19c1.29,0.31 2.62,0.44 3.91,0.82c4.43,0.64 8.85,0.65 13.27,-0.04c5.92,-1.14 11.37,-3.63 16.7,-6.24c7.14,-3.5 9.75,-10.42 12.13,-17.37c1.01,-2.37 0.94,-4.76 0.08,-7.15c-1.31,-8.06 -3.3,-15.99 -4.64,-24.04c0.13,-1.74 0.56,-3.5 -0.39,-5.17c-0.4,-0.87 -0.69,-1.77 -0.62,-2.75c0.32,-2.22 0.21,-4.45 0.2,-6.68l0,-5.28c0.03,-1.67 0.05,-3.34 -0.18,-5c0.75,-2.08 0.32,-4.57 1.71,-6.43c0.21,-0.3 0.47,-0.57 0.79,-0.83c21.41,11.09 33.74,29 36.78,52.48c5,38.55 -19.3,71.25 -57.28,78.68z" class="st10"/>
   <path id="svg_15" fill="#BAA694" d="m331.62,414.25c0,1.82 -0.15,3.63 -0.33,5.43c-0.05,0.5 -0.11,1 -0.16,1.5c-14.52,10.08 -30.23,17.68 -47.19,22.68l0,-1.38c0.03,-55.64 0.05,-111.29 0.08,-166.93c0.01,-7.49 0.04,-14.98 0.07,-22.47l0.03,0c0.16,-0.02 0.31,-0.03 0.46,-0.04c5.67,-0.47 10.39,1.72 14.66,5.15c0.24,0.2 0.48,0.4 0.72,0.6l9.93,4.32c0.35,0.12 0.69,0.25 1.04,0.37c7.18,2.58 14.35,5.16 19.09,11.55c0.04,0.04 0.08,0.09 0.11,0.14c0.38,0.51 0.74,1.05 1.08,1.61c0.52,2.8 0.37,5.63 0.37,8.45c0.02,43.01 0,86.01 0.04,129.02z" class="st11"/>
   <path id="svg_16" fill="#C25B26" d="m474.21,294.16c-11.77,14.64 -26.39,25.79 -42.69,34.9c-1.52,0.85 -2.97,1.83 -4.45,2.75c-0.04,0.02 -0.07,0.05 -0.11,0.07c-1.05,1.34 -2.58,1.36 -4.05,1.42c-9.86,0.37 -19.27,2.6 -28.21,6.79c-1.02,0.47 -2.05,0.84 -3.17,0.83c-0.21,0 -0.43,-0.02 -0.65,-0.05c-1.66,0.73 -3.33,1.46 -4.99,2.19c-0.6,-0.01 -1.01,-0.15 -1.31,-0.38c-0.82,-0.62 -0.77,-1.89 -1,-2.83c-2.76,-10.99 -8.49,-20.41 -15.32,-29.26c-1.25,-1.63 -3.13,-3.04 -2.35,-5.52c0.01,-0.03 0.02,-0.07 0.03,-0.1c0.35,-1 0.69,-2 1.03,-3c0.81,-1.64 0.76,-3.28 0.04,-4.93c2.94,-3.91 2.55,-8.81 3.7,-13.21c3.53,-13.59 7.62,-26.83 15.36,-38.8c2.29,-3.53 5.09,-6.85 6.77,-10.66c1.7,-3.83 3.54,-1.87 5.12,-0.65c5.51,4.23 10.83,8.72 16.26,13.06c15.51,12.4 31.03,24.79 46.59,37.14c4.11,3.26 8.32,6.38 12.5,9.56c0.3,0.22 0.6,0.45 0.9,0.68z" class="st1"/>
   <path id="svg_17" fill="#4C6612" d="m460.95,403.89c-3.33,15.71 -15.18,21.15 -29.09,24.08c-4.96,0.73 -9.92,0.75 -14.89,-0.02c-6.68,-0.24 -12.45,-2.96 -18.07,-6.37c-4.46,-2.7 -6.81,-6.87 -8.98,-11.29c-0.71,-1.44 -0.62,-3.26 -2.04,-4.38c-0.88,-2.54 -0.2,-5.17 -0.41,-7.74c0.01,-0.07 0.01,-0.14 0.01,-0.22c0.01,-0.11 0.02,-0.22 0.01,-0.33c0.04,-1.53 -0.34,-3.1 0.42,-4.57c1,-4.7 2.01,-9.41 3.02,-14.11c-0.76,-1.63 -0.62,-3.27 -0.09,-4.93c0.34,-0.4 0.69,-0.8 1.03,-1.2c-0.61,-1.95 -0.7,-3.89 0.07,-5.82c0.31,-1.06 0.62,-2.13 0.93,-3.19c-0.64,-5.26 -0.72,-10.51 0.05,-15.77c-0.68,-2.38 -1.36,-4.77 -2.04,-7.16c0.12,-0.07 0.23,-0.14 0.35,-0.21c10.96,-6.74 23.1,-8.71 35.73,-8.78c0.05,0 0.1,0.01 0.15,0.01c10.43,0.99 20.61,2.88 29.8,8.33c-0.15,0.34 -0.26,0.7 -0.33,1.07c-0.42,1.94 -0.05,4.1 -1.64,5.7c0.84,1.49 0.37,3.09 0.44,4.64c0,0.11 0.01,0.21 0.02,0.32c0,0.02 0.01,0.05 0.01,0.07l0,6.01c-0.21,2.27 0.47,4.6 -0.43,6.84c0.33,0.73 0.67,1.47 1,2.21c0.64,1.63 0.71,3.25 -0.04,4.86c2.61,7.84 3.86,15.96 5.03,24.1c0.7,2.62 0.73,5.23 -0.02,7.85z" class="st12"/>
   <path id="svg_18" fill="#C5CCC8" d="m115.04,449.93c-25.58,16.69 -51.65,17.97 -78.24,2.43c-1.27,-0.74 -2.52,-1.52 -3.78,-2.27c0.26,-0.33 0.54,-0.66 0.82,-0.98c3.47,-4.11 7.68,-7.55 10.96,-11.85c1.55,-2.02 3.71,-1.9 5.85,-0.72c3.67,2.01 4.52,-1.32 6.06,-3.26c1.69,-2.13 0.77,-3.72 -1.24,-4.9c-2.99,-1.75 -3.56,-4.04 -2.05,-7.14c1.01,-2.09 1.63,-4.37 2.26,-6.61c1.04,-3.72 2.54,-6.33 7.28,-5.45c3.51,0.65 2.99,-2.8 3.69,-4.8c0.76,-2.22 0.31,-4.14 -2.31,-4.51c-5.1,-0.71 -5.86,-4.09 -5.52,-8.33c0.09,-1.15 0.15,-2.35 -0.06,-3.49c-0.67,-3.67 0.84,-5.74 4.44,-6.4c2.9,-0.52 4.44,-1.72 3.54,-5.12c-0.84,-3.18 -1.89,-5.31 -5.72,-4.09c-3.2,1.01 -5.03,-0.66 -6.23,-3.43c-0.73,-1.68 -1.29,-3.43 -2.08,-5.08c-1.58,-3.35 -1.3,-6.14 2.23,-8.02c3.22,-1.7 2.96,-3.69 1.07,-6.43c-1.85,-2.67 -3.52,-3.81 -6.38,-1.45c-2.52,2.09 -4.75,1.66 -6.83,-0.92c-2.87,-3.56 -5.99,-6.93 -9.01,-10.38c-0.26,-0.3 -0.51,-0.59 -0.77,-0.89c4.95,-3.27 10.01,-6.3 15.64,-8.27c1.36,-0.48 2.89,-0.92 3.41,-2.59c0.16,0.11 0.32,0.19 0.48,0.25c1.8,0.78 3.57,-0.59 5.36,-0.31c0.28,-0.21 0.57,-0.42 0.86,-0.62c0.37,-0.26 0.76,-0.51 1.16,-0.73c0.46,-0.26 0.93,-0.49 1.43,-0.67c0.06,-0.03 0.13,-0.05 0.19,-0.07c10.98,-2.47 21.8,-1.79 32.48,1.55c0.17,0.05 0.33,0.11 0.5,0.16c0.12,0.04 0.24,0.08 0.36,0.12c5.57,1.81 11.03,3.86 15.92,7.19c1.48,1.01 3.28,1.72 3.61,3.82c-0.04,0.08 -0.08,0.16 -0.12,0.23c-0.01,0.03 -0.03,0.05 -0.05,0.08c-2.39,4.52 -6.68,7.41 -9.82,11.3c-1.09,1.36 -2.74,1.01 -4.08,0.09c-3.08,-2.11 -4.42,0.07 -5.92,2.22c-1.46,2.09 -2.51,3.98 0.35,5.83c2.39,1.55 2.48,3.74 1.32,6.13c-1.09,2.24 -1.88,4.61 -2.96,6.86c-0.91,1.88 -2.1,3.6 -4.43,3.43c-3.42,-0.25 -4.08,1.93 -4.74,4.53c-0.64,2.53 -0.03,4.15 2.44,5.14c2.13,0.85 2.79,2.71 2.84,4.85c0.08,2.82 0.1,5.65 -0.02,8.47c-0.08,2.12 -0.75,3.97 -2.82,4.89c-2.15,0.95 -3.08,2.39 -2.4,4.74c0.62,2.19 0.64,4.78 3.83,5.04c2.42,0.21 3.19,2.11 3.88,4.03c1.16,3.29 2.11,6.66 3.41,9.9c0.74,1.85 0.8,3.67 -0.71,5.08c-2.08,1.95 -1.57,3.7 -0.09,5.65c1.39,1.82 2.36,4.3 5.42,2.97c2.4,-1.05 3.73,0.47 5.02,2.06c2.91,3.54 5.68,7.22 9.34,10.05c0.3,0.24 0.61,0.47 0.93,0.69z" class="st2"/>
   <path id="svg_19" fill="#7C5F53" d="m385.89,343.06c-15.62,11.23 -26.38,25.77 -30.35,44.85c-1.1,5.25 -1.78,10.59 -1.66,15.99l0,0.2c-7.42,5.91 -14.58,12.17 -22.75,17.08c-0.37,-0.26 -0.64,-0.55 -0.82,-0.85c-0.8,-1.26 -0.33,-2.82 -0.33,-4.2c-0.04,-47.02 -0.02,-94.05 -0.02,-141.07c0.02,-0.01 0.04,-0.02 0.06,-0.03c0.29,-0.16 0.63,-0.33 0.86,-0.2c9.04,5.31 17.87,10.9 24.43,19.28c0.24,0.28 0.46,0.56 0.67,0.85c2.93,3.72 6.21,7.1 9.96,10.01c0.03,0.04 0.06,0.09 0.09,0.13c3.34,4.82 6.68,9.63 10.02,14.46c4.73,6.84 7.29,14.59 9.54,22.46c0.1,0.34 0.2,0.69 0.3,1.04z" class="st7"/>
   <path id="svg_20" fill="#D4C6C0" d="m44.43,404.93c3.38,2.51 2.68,5.32 1.62,8.43c-0.99,2.91 -1.81,5.44 -6.07,5.09c-3.7,-0.3 -6.29,5.25 -4.09,8.27c1.38,1.9 1.85,3.58 0.42,5.41c-3.04,3.89 -6.01,7.89 -10.41,10.35c-0.32,0.18 -0.64,0.35 -0.97,0.51c-12.32,-11.58 -19.07,-25.8 -20.93,-42.64c-2.07,-18.73 3.05,-35.27 14.04,-50.25c1.76,-2.39 3.51,-4.82 6.32,-6.14c0.24,0.04 0.5,0.11 0.76,0.21c4.05,1.36 10.59,7.63 11.07,10.78c0.13,0.9 -0.32,1.58 -0.6,2.36c-1.42,3.91 0.62,7.53 4.7,8.41c4.54,0.98 6.63,6.39 3.96,10.24c-2.29,3.28 -1.46,7.51 1.92,9.79c4.55,3.07 4.34,7.5 -0.46,10.01c-3.04,1.58 -4.04,7.12 -1.28,9.17z" class="st13"/>
   <path id="svg_21" fill="#D4C6C0" d="m140.89,414.92c-0.2,2.13 -0.67,4.14 -1.33,6.06c0,0.01 0,0.01 0,0.01c-1.62,4.65 -4.34,8.81 -6.98,13c-0.15,0.24 -0.3,0.48 -0.45,0.72c-4.91,1.39 -5.83,7.04 -9.93,9.3c-0.32,-0.24 -0.63,-0.49 -0.94,-0.75c-3.03,-2.5 -5.55,-5.49 -7.98,-8.58c-2.09,-2.66 -2.43,-5.09 0.49,-7.3c2.54,-1.91 2.55,-3.94 0.76,-6.41c-1.66,-2.28 -3.23,-3.72 -6.1,-1.64c-2.59,1.86 -4.31,0.63 -5.36,-2.03c-0.67,-1.7 -1.37,-3.39 -1.97,-5.13c-1.24,-3.6 -0.77,-6.2 3.58,-6.94c2.2,-0.38 3.83,-1.42 3.08,-4.08c-0.7,-2.43 -0.5,-5.61 -4.53,-5.3c-4.18,0.32 -4.4,-2.6 -4.39,-5.63c0.01,-2.95 0.52,-5.48 4.4,-4.98c3.36,0.43 3.63,-2.07 4.29,-4.33c0.73,-2.46 0.26,-4.08 -2.39,-5.06c-3.28,-1.22 -3.46,-3.82 -2.04,-6.54c1.28,-2.48 1.94,-6.29 6.3,-4.24c2.74,1.29 3.93,-0.61 5.25,-2.37c1.49,-1.99 1.8,-3.9 -0.29,-5.71c-2.76,-2.37 -1.95,-4.68 0.28,-6.79c2.55,-2.41 4.5,-5.53 7.96,-6.85c0.09,-0.05 0.18,-0.08 0.27,-0.11c0.03,-0.01 0.05,-0.02 0.08,-0.03c2.04,-0.24 3.54,0.84 4.67,2.29c4.75,6.1 9.59,12.17 11.96,19.52c0.62,1.89 1.06,3.87 1.3,5.96c4.35,14.65 4.35,29.29 0.01,43.94z" class="st13"/>
   <path id="svg_22" fill="#7C5F53" d="m68.23,403.4c-0.56,1.37 -0.93,2.88 -1.03,4.35c-0.19,2.98 -1.73,3.91 -4.28,2.83c-3.67,-1.56 -5.13,-0.01 -5.76,3.43c-0.3,1.62 -0.77,3.26 -1.5,4.73c-2.08,4.19 -3.18,7.93 2.61,10.13c1.69,0.64 1.98,2 0.71,3.57c-1.15,1.42 -2.32,2.88 -3.14,4.49c-1.39,2.72 -2.99,3.29 -5.29,1.07c-2.4,-2.32 -3.98,-1.49 -5.89,0.98c-3.01,3.9 -5.71,8.23 -10.31,10.51c-0.43,0.23 -0.87,0.43 -1.33,0.6c-2.73,-2.34 -5.9,-4.15 -8.09,-7.1c0.23,-0.27 0.47,-0.53 0.72,-0.79c3.22,-3.52 6.93,-6.6 9.73,-10.55c1.29,-1.8 1.84,-3.23 -0.53,-4.28c-3.15,-1.4 -2.67,-3.14 -0.85,-5.33c1.16,-1.4 2.02,-3.04 3.08,-4.53c0.67,-0.94 1.51,-2.16 2.79,-1.1c3.67,3.08 4.31,-0.22 4.65,-2.46c0.39,-2.66 4.71,-6.3 -1.24,-7.96c-1.54,-0.42 -2.48,-1.04 -2.13,-2.69c0.56,-2.59 1.24,-5.15 1.86,-7.73c0.21,-0.89 0.69,-1.75 1.62,-1.46c2.44,0.73 3.85,0.44 3.46,-2.56c-0.27,-2.11 0.68,-4.24 -3.18,-4.79c-3.62,-0.52 -2.39,-5.15 -3.56,-7.86c-0.76,-1.76 -0.21,-3.3 1.94,-3.74c1.5,-0.31 1.96,-1.1 1.29,-2.48c-0.98,-2.03 -1.72,-6.34 -2.8,-5.79c-4.88,2.51 -5.23,-1.79 -6.92,-3.85c-1.66,-2.03 -4.18,-4.33 0.04,-6.58c1.22,-0.65 0.37,-1.71 -0.3,-2.47c-2.99,-3.44 -5.59,-7.29 -9.61,-9.67c-0.21,-0.13 -0.42,-0.25 -0.63,-0.36c1.88,-3.78 5.63,-5.58 8.66,-8.12c0.42,0.18 0.83,0.38 1.22,0.6c3.92,2.18 6.28,6.01 8.99,9.36c2.13,2.63 3.86,3.25 6.22,0.82c3.02,-3.1 4.91,-2.27 7.05,1.21c3.59,5.82 3.87,5.82 -1.68,9.52c-2.03,1.36 -2.82,2.53 -1.53,4.76c0.67,1.14 1.36,2.37 1.6,3.64c0.93,4.99 3.26,7.31 8.43,4.9c2.26,-1.05 3.44,-0.24 3.77,2.16c0.13,0.98 0.39,1.97 0.75,2.89c1.64,4.18 0.79,6.88 -4.19,7.13c-3.13,0.16 -4.52,1.46 -3.74,4.77c0.33,1.43 0.34,3.02 0.11,4.47c-0.69,4.27 0.97,6.54 5.3,6.8c3.07,0.17 4.14,1.51 2.91,4.53z" class="st7"/>
   <path id="svg_23" fill="#7C5F53" d="m121.83,442.81c0.15,0.38 0.28,0.78 0.37,1.2c-2.39,1.97 -4.77,3.94 -7.16,5.92c-0.52,-0.07 -1.01,-0.18 -1.47,-0.33c-4.37,-1.37 -6.16,-5.76 -9.05,-8.81c-1.85,-1.97 -3.01,-4.52 -6.07,-1.68c-1.21,1.13 -2.05,0.23 -2.76,-0.87c-1.17,-1.82 -2.3,-3.69 -3.66,-5.36c-1.52,-1.85 -1.35,-3.14 0.78,-4.25c2.22,-1.17 2.31,-2.75 1.24,-4.96c-1.24,-2.52 -2.01,-5.27 -2.98,-7.92c-0.93,-2.58 -0.67,-5.29 -5.4,-5.21c-3.3,0.06 -2.37,-5.38 -3.47,-8.29c-0.77,-2.05 0.7,-3.09 2.63,-3.27c2.63,-0.23 3.19,-1.8 3.12,-4.12c-0.09,-2.83 -0.1,-5.68 0.17,-8.49c0.24,-2.46 -0.59,-3.97 -3.01,-4.17c-3.08,-0.25 -3.49,-1.9 -2.79,-4.42c0.49,-1.76 1.01,-3.52 1.36,-5.31c0.4,-2.1 1.39,-2.91 3.46,-2c2.89,1.27 4.27,-0.01 5.04,-2.77c0.49,-1.75 1.09,-3.56 2.06,-5.07c2.06,-3.21 2.23,-5.77 -1.72,-7.47c-2.26,-0.97 -1.86,-2.27 -0.63,-3.85c1.01,-1.32 1.98,-2.7 2.74,-4.17c1.44,-2.78 3.22,-3.66 5.66,-1.21c2,2.01 3.26,1.23 4.69,-0.77c2.52,-3.53 5.73,-6.47 8.99,-9.32c0.11,0.02 0.22,0.03 0.33,0.06c4.47,0.72 7.99,3.77 8.57,7.34c0.03,0.21 0.06,0.43 0.07,0.64c-1.83,1.7 -3.7,3.35 -5.45,5.12c-2.68,2.72 -6.71,5.4 -0.35,8.61c1.58,0.8 1,2.22 0.15,3.42c-1.16,1.62 -2.44,3.19 -3.42,4.91c-1.23,2.15 -2.53,2.15 -4.4,0.8c-0.92,-0.66 -2.11,-2.53 -3.28,-0.95c-1.55,2.11 -2.82,4.59 -2.97,7.3c-0.08,1.47 1.42,1.75 2.56,1.81c4.22,0.22 4.41,2.68 3.12,5.71c-1.15,2.7 0.15,8.04 -5.92,5.9c-0.87,-0.31 -2.2,-0.98 -2.61,0.25c-0.78,2.38 -0.81,4.94 -0.16,7.36c0.31,1.18 1.64,0.75 2.6,0.68c1.53,-0.11 3.61,-1.91 4.45,0.17c1.22,3.02 2.14,6.38 2.15,9.59c0,1.98 -3.05,1.72 -4.66,1.93c-3.36,0.45 -3.68,2.03 -2.64,4.69c0.48,1.23 0.93,2.49 1.29,3.77c1,3.58 2.31,6.05 6.06,2.22c1.67,-1.7 3.13,-1.44 4.33,0.7c0.73,1.3 1.59,2.57 2.58,3.67c2.34,2.61 2.11,4.71 -1.08,6.24c-3.49,1.68 -3.37,3.32 -1.07,6.38c2.32,3.08 6.16,4.92 7.61,8.65z" class="st7"/>
   <path id="svg_24" fill="#B7A392" d="m140.89,414.92c-0.01,7.34 -0.02,14.7 -0.03,22.05l0,1.16c-3.23,-0.34 -5.74,-2.49 -8.73,-3.42c-0.13,-0.24 -0.25,-0.48 -0.34,-0.72c-0.17,-0.48 -0.2,-0.97 0.23,-1.53c3.37,-4.4 5.53,-9.43 7.61,-14.49c0.42,-1.02 0.84,-2.04 1.26,-3.05z" class="st14"/>
   <path id="svg_25" fill="#C25B26" d="m449.11,69.97c-0.23,0.29 -0.46,0.57 -0.68,0.86c-18.27,23.01 -36.53,46.04 -54.81,69.04c-11.22,14.11 -22.48,28.19 -33.72,42.28c-2.17,2.72 -4.13,2.92 -6.99,0.47c-7.04,-6.01 -14.23,-11.88 -21.72,-17.32c-3.32,-2.42 -3.28,-4.32 -1.24,-7.27c5.14,-7.45 10.67,-14.82 13.94,-23.23c4.6,-11.86 10.2,-23.45 11.64,-36.45c0.3,-2.64 0.18,-5.7 1.45,-8.32c0.8,-1.63 0.76,-3.27 0.03,-4.91c0.33,-1.04 0.66,-2.08 0.99,-3.12c0.95,-2.82 0.32,-5.72 0.44,-8.58c0,-0.11 0.01,-0.21 0.02,-0.31c0,-0.13 0.01,-0.25 0.02,-0.37l0,-11.33c-0.01,-0.11 -0.02,-0.23 -0.02,-0.34c-0.01,-0.11 -0.01,-0.22 -0.01,-0.32c-0.13,-3.19 0.5,-6.41 -0.44,-9.56l0,-0.01c-0.02,-0.71 -0.04,-1.41 -0.05,-2.12c-1.23,-1.82 0.27,-4.09 -0.97,-5.91c-0.21,-0.65 -0.42,-1.3 -0.62,-1.95c-0.13,-0.39 -0.26,-0.79 -0.38,-1.18c11.68,-1.04 23.13,0.61 34.47,3.09c21.48,4.69 41.27,13.17 58.65,26.86z" class="st1"/>
   <path id="svg_26" fill="#C25B26" d="m507.11,156.79c-0.02,0.77 -0.22,1.22 -0.52,1.47c-0.04,0.03 -0.09,0.06 -0.13,0.08c-0.97,0.6 -2.75,-0.33 -3.5,0.67c-1.36,0.33 -2.73,0.66 -4.09,0.99c-1.96,-0.74 -3.92,-0.75 -5.88,0c-9.97,2.34 -20.11,3.93 -29.82,7.4c-24.63,8.81 -46.52,21.81 -64.38,41.21c-5.42,5.89 -5.67,5.74 -12.06,0.86c-5.79,-4.42 -11.45,-9 -17.25,-13.41c-2.84,-2.16 -2.42,-4.2 -0.4,-6.66c8.67,-10.61 17.31,-21.24 25.87,-31.93c13.07,-16.31 26.08,-32.67 39.09,-49.02c7.8,-9.81 15.56,-19.65 23.3,-29.5c0.18,-0.23 0.28,-0.51 0.35,-0.82c0.09,-0.34 0.15,-0.72 0.25,-1.05c25.16,21.16 41.51,47.75 49.17,79.71z" class="st1"/>
   <path id="svg_27" fill="#C25B26" d="m345.93,84.15c-0.77,1.62 -0.74,3.25 -0.01,4.88c-2.57,8.86 -4.04,18.01 -7.28,26.71c-4.95,13.29 -10.45,26.27 -19.63,37.32c-1.73,1.18 -2.76,-0.45 -4.06,-1.01c-23.7,-18.87 -47.4,-37.73 -71.07,-56.63c-0.76,-0.62 -1.52,-1.05 -2.38,-1.24c-0.39,-0.09 -0.79,-0.13 -1.23,-0.11c22.37,-26.62 50.74,-43.31 84.53,-50.92c6.63,-1.49 13.33,-2.77 20.17,-2.8l0,3.76c1.22,1.82 -0.26,4.07 0.95,5.89c0.33,0.73 0.66,1.45 0.98,2.17c-0.89,2.82 -0.3,5.71 -0.41,8.57c-0.01,0.12 -0.01,0.23 -0.02,0.34c0,0.11 -0.01,0.21 -0.02,0.31l0,10.35c0.01,0.12 0.02,0.24 0.02,0.36c0.01,0.11 0.02,0.21 0.02,0.32c0.1,2.87 -0.5,5.77 0.43,8.6c-0.33,1.04 -0.66,2.09 -0.99,3.13z" class="st1"/>
   <path id="svg_28" fill="#C5CCC8" d="m124.24,105.88c-6.25,15.56 -12.05,31.31 -17.88,47.03c-0.88,2.37 -2.12,3.9 -4.41,4.97c-13.84,6.49 -27.65,13.04 -41.39,19.72c-2.51,1.22 -4.4,1.22 -6.85,-0.21c-11.79,-6.84 -23.69,-13.48 -35.59,-20.13c-1.17,-0.65 -2.24,-1.63 -3.56,-1.97c-0.43,-0.12 -0.89,-0.16 -1.39,-0.11c16.72,-34.31 42.42,-59 78.14,-72.96c0.48,0.3 0.96,0.6 1.45,0.9c9.13,5.59 18.83,10.13 28.36,14.99c3.73,1.9 4.84,3.5 3.12,7.77z" class="st2"/>
   <path id="svg_29" fill="#C5CCC8" d="m274.45,163.03c-0.12,0.28 -0.27,0.57 -0.47,0.86c-9.56,-4.19 -19.06,-8.52 -28.71,-12.5c-3.95,-1.63 -7.11,-3.87 -9.92,-7.12c-13.17,-15.23 -26.4,-30.42 -39.96,-45.3c-3.55,-3.9 -4.37,-6.8 -0.51,-10.61c0.9,-0.9 1.55,-2.06 2.22,-3.18c0.2,-0.31 0.39,-0.62 0.59,-0.92c11.19,4.52 21.47,10.61 31,17.98c1.03,0.81 1.91,1.84 3.35,1.89c0.21,0.12 0.43,0.25 0.64,0.38c8.51,5.07 14.59,12.71 20.81,20.16c8.05,9.65 14.26,20.43 19.49,31.8c0.95,2.05 2.49,4.16 1.47,6.56z" class="st2"/>
   <path id="svg_30" fill="#C25B26" d="m308.47,167.04c-3.46,3.34 -6.95,6.67 -10.42,10c-1.47,0.87 -2.7,2.05 -4.06,3.06c-2.81,3.98 -7.21,6.03 -10.84,9.02c-0.33,0.27 -0.65,0.55 -0.97,0.84c-1.77,-7.33 -3.3,-14.73 -5.96,-21.82c-0.57,-1.52 -0.74,-3.23 -2.24,-4.25c-0.07,-0.46 -0.15,-0.92 -0.24,-1.38c-1.37,-6.8 -5.16,-12.57 -8.51,-18.46c-8,-14.1 -18.1,-26.55 -30.56,-37.01c-0.83,-0.7 -1.51,-1.59 -2.22,-2.43c-0.13,-0.16 -0.27,-0.32 -0.41,-0.48c0.95,-1.09 1.9,-2.18 2.85,-3.27c0.01,0.51 0.05,0.99 0.14,1.44c0.86,4.43 5.41,5.84 8.35,8.22c21.46,17.41 43.18,34.49 64.86,51.62c2.19,1.73 2.01,3.19 0.23,4.9z" class="st1"/>
   <path id="svg_31" fill="#C68162" d="m509.87,171.05c-0.4,-0.07 -0.8,-0.08 -1.21,-0.06c-1.61,0.06 -3.28,0.5 -4.64,-0.89c1.36,-0.03 2.73,-0.06 4.09,-0.08l0.01,0c0.14,0 0.29,-0.01 0.43,-0.01c0.41,-0.01 0.82,-0.01 1.23,-0.02c0.03,0.35 0.06,0.71 0.09,1.06z" class="st15"/>
   <path id="svg_32" fill="#C7734A" d="m507.73,159.09c-0.37,-0.01 -0.74,-0.01 -1.11,-0.02c-1.22,-0.02 -2.44,-0.04 -3.66,-0.06c0.55,-0.93 1.62,-0.9 2.57,-1.1c0.26,-0.05 0.51,-0.12 0.74,-0.24c0.35,-0.17 0.64,-0.43 0.84,-0.88c0.75,0.62 0.71,1.45 0.62,2.3z" class="st16"/>
   <path id="svg_33" fill="#BD663D" d="m405.93,218.04c1.49,-3.87 4.17,-6.54 8.04,-8.03c-2.28,3.07 -4.96,5.75 -8.04,8.03z" class="st17"/>
   <path id="svg_34" fill="#C7805F" d="m493.96,171.08c1.97,-0.01 3.93,-0.02 5.9,-0.02c-1.96,1.5 -3.92,1.49 -5.9,0.02z" class="st18"/>
   <path id="svg_35" fill="#C87C58" d="m487.95,172.08c1.65,-0.01 3.3,-0.01 4.95,-0.02c-1.64,1.41 -3.29,1.52 -4.95,0.02z" class="st19"/>
   <path id="svg_36" fill="#C5CCC8" d="m134.85,259.14c-6.56,-7.39 -7.53,-14.41 -1.2,-23.13c6.39,-8.81 11.03,-18.9 16.34,-28.48c1.14,-2.06 2.45,-3.18 4.92,-3.5c18.61,-2.38 37.2,-4.85 55.77,-7.51c2.62,-0.38 3.92,0.28 5.24,2.37c7.39,11.64 14.72,23.31 22.44,34.73c2.52,3.73 -0.51,5.71 -1.37,8.44c-2.59,1.51 -5.21,0.1 -7.79,0.01c-29.35,-1.05 -57.75,3.46 -85.11,14.24c-0.92,0.36 -1.89,0.57 -2.84,0.86c-1.79,1.76 -3.49,3.83 -6.4,1.97z" class="st2"/>
   <path id="svg_37" fill="#BAA694" d="m134.85,259.14c2.38,0.13 4.22,-1.48 6.4,-1.97c-0.11,2.16 -0.31,4.31 -0.31,6.47c-0.04,35.78 -0.05,71.56 -0.06,107.35c-3.06,-8.48 -7.33,-16.27 -12.99,-23.29c-1.35,-1.67 -2.5,-3.59 -4.96,-3.81c-2.18,-3.58 -5.28,-6.14 -8.97,-8.04c-5.43,-5.1 -12.36,-7.34 -19.07,-10.01c-1.17,-1.36 -1.36,-3.02 -1.35,-4.69c0.03,-11.82 -0.34,-23.64 0.19,-35.44c0.22,-2.97 2.37,-4.55 4.5,-6.13c7.94,-5.89 16.42,-10.92 25.02,-15.76c4.91,1.04 8.14,-2.11 11.6,-4.68z" class="st11"/>
   <path id="svg_38" fill="#C25B26" d="m299.96,258.79c-5.29,-1.92 -10.32,-4.54 -15.88,-5.71c-1.41,-0.71 -2.81,-1.43 -4.22,-2.15c-0.28,-0.41 -0.7,-0.84 -0.62,-1.33c1.23,-7.97 1.41,-16.15 4.58,-23.75c0.02,-7.93 0.05,-15.85 0.07,-23.78c6.37,-4.68 13.66,-8.09 19.09,-14.04c1.42,-0.9 2.62,-2.11 4.03,-3.03c3.69,-2.93 7.02,-6.23 9.94,-9.94c0.88,-1.16 1.58,-2.49 3.05,-3.05c4.06,-0.17 5.99,3.63 8.33,5.6c6.15,5.17 13,9.55 18.59,15.39c2.71,1.66 1,3.35 0.03,5.03c-15.11,18.93 -30.2,37.88 -45.35,56.78c-0.96,1.24 -1.75,2.37 -1.64,3.98z" class="st1"/>
   <path id="svg_39" fill="#2D2C2C" d="m259.84,348.59c0.71,3.74 -0.33,6.28 -5.11,5.47c-4.2,-0.71 -5.13,1.43 -4.9,5.14c0.12,1.83 1.14,4.65 -1.12,5.39c-3.11,1.01 -6.75,1.14 -9.79,-0.1c-1.98,-0.81 -0.98,-3.64 -0.93,-5.54c0.08,-3.17 -0.61,-4.95 -4.37,-4.99c-3.89,-0.04 -3.65,2.18 -3.77,4.83c-0.09,2.01 1.27,5.09 -1.24,5.79c-2.92,0.81 -6.31,0.58 -9.37,0.08c-2.08,-0.34 -1.4,-2.82 -1.24,-4.31c0.47,-4.58 -0.92,-6.42 -5.98,-6.49c-5.14,-0.07 -5.18,2.45 -5.06,6.12c0.05,1.64 1.03,4.24 -1.35,4.73c-3.2,0.65 -6.85,1.22 -9.74,-0.37c-1.9,-1.04 -0.92,-4.05 -0.75,-6.11c0.33,-3.91 -1.72,-4.45 -4.83,-4.19c-2.84,0.23 -6.33,-0.91 -6.23,4.07c0.04,2.19 1.31,5.48 -1.07,6.41c-2.62,1.02 -5.91,0.6 -8.88,0.37c-2.79,-0.22 -2.06,-2.74 -1.9,-4.34c0.47,-4.63 -0.49,-7.53 -6.05,-6.53c-2.04,0.37 -3.1,-0.77 -2.99,-2.9c0.12,-2.48 -0.35,-5.17 0.44,-7.4c1.01,-2.83 4.06,-1.37 6.23,-1.64c2.85,-0.35 2.08,-2.44 2.32,-4.14c0.32,-2.22 -1.24,-5.57 1.07,-6.42c2.79,-1.03 6.27,-0.71 9.34,-0.26c2.55,0.37 1.45,2.99 1.51,4.63c0.19,5.75 3.73,8.09 9.3,6.11c2.29,-0.81 1.39,-2.67 1.66,-4.18c0.4,-2.19 -1.29,-5.51 1.16,-6.36c2.82,-0.98 6.33,-0.77 9.35,-0.16c2.57,0.51 1.09,3.36 1.47,5.15c0.38,1.82 -1.04,4.51 1.35,5.3c2.63,0.87 5.64,0.73 8.38,-0.01c1.61,-0.43 1.11,-2.2 1.18,-3.47c0.37,-7.3 0.41,-6.83 6.64,-7.4c6.51,-0.6 5.5,3.5 5.31,7.2c-0.15,2.99 0.88,4.06 3.97,4.13c3.46,0.07 4.2,-1.37 4.18,-4.46c-0.02,-2.15 -1.41,-5.46 1.19,-6.29c2.86,-0.92 6.32,-0.67 9.36,-0.09c2.32,0.44 1.39,3.13 1.27,4.76c-0.29,4.15 0.44,6.8 5.55,6.03c5.04,-0.78 4.59,2.89 4.44,6.44z" class="st8"/>
   <path id="svg_40" fill="#C5CCC8" d="m283.82,225.86c-0.43,8.5 -2.24,16.78 -3.95,25.07c-9.5,-1.89 -18.72,-4.99 -28.35,-6.32c-0.62,-0.09 -1.12,-1.06 -1.67,-1.62c1.41,-3.89 4.37,-5.76 8.17,-7.13c8.67,-3.12 17.21,-6.64 25.8,-10z" class="st2"/>
   <path id="svg_41" fill="#C5CCC8" d="m150.19,192.73c-1.5,0.33 -2.34,-1.09 -3.34,-2.15c-9.25,-9.81 -18.44,-19.68 -27.76,-29.43c-1.76,-1.84 -1.93,-3.4 -1.04,-5.71c6.26,-16.28 12.44,-32.6 18.5,-48.96c0.93,-2.5 2.07,-3.74 4.88,-3.89c12.3,-0.65 24.58,-1.47 36.87,-2.36c2.17,-0.16 3.38,0.86 4.62,2.28c13.81,15.78 27.62,31.57 41.5,47.29c1.51,1.71 1.9,3.14 1.04,5.34c-3.36,8.67 -6.5,17.44 -9.76,26.15c-0.51,1.36 -0.92,2.65 -2.89,2.92c-20.76,2.77 -41.52,5.64 -62.62,8.52z" class="st2"/>
   <path id="svg_42" fill="#C5CCC8" d="m123.24,263.8c-1.46,3.64 -5.24,4.27 -8.06,6.08c-6.93,4.45 -14.28,8.29 -20.14,14.25c-1,1.74 -2.36,3.1 -3.94,4.36c-10.82,8.6 -20.06,18.64 -27.45,30.35c-1.05,1.66 -2.3,3.25 -2.58,5.29c-0.86,1.04 -2.04,0.81 -3.17,0.78c0.84,-2.12 -0.4,-3.92 -1.01,-5.76c-3.98,-11.99 -8,-23.96 -12.18,-35.88c-0.86,-2.46 -0.69,-4.3 0.81,-6.46c7.03,-10.12 13.95,-20.31 20.77,-30.56c1.38,-2.07 2.76,-2.8 5.28,-2.36c14.09,2.47 28.2,4.79 42.32,7.08c1.64,0.27 2.73,0.92 3.51,2.38c1.91,3.52 3.89,6.98 5.84,10.45z" class="st2"/>
   <path id="svg_43" fill="#C25B26" d="m355.98,294.96c-8.3,-7.12 -16.7,-14.11 -26.01,-19.9c-6.28,-4.67 -13.5,-7.76 -20.07,-11.95c6.69,-6.68 11.88,-14.6 17.95,-21.78c8.04,-9.51 14.98,-19.89 23.34,-29.15c1.58,-1.75 3.59,-3.6 4.43,-5.57c2.26,-5.3 4.86,-2.85 7.43,-0.86c6.66,5.18 13.16,10.56 19.82,15.75c2.02,1.57 2.09,3.12 0.83,5.11c-2.57,4.05 -5.14,8.11 -7.63,12.21c-9.75,16.01 -15.71,33.43 -19.05,51.81c-0.29,1.45 -0.7,2.89 -1.04,4.33z" class="st1"/>
   <path id="svg_44" fill="#B76642" d="m358.94,61.06c0,4.02 -0.01,8.03 -0.01,12.05c-0.29,0.43 -0.59,0.41 -0.89,0.01c-0.01,-4.02 -0.01,-8.05 -0.02,-12.07c0.31,-0.41 0.61,-0.43 0.92,0.01z" class="st20"/>
   <path id="svg_45" fill="#C66B3D" d="m346.01,72.11c-0.01,-3.68 -0.01,-7.36 -0.02,-11.04c0.31,-0.43 0.62,-0.45 0.94,0c-0.01,3.68 -0.02,7.37 -0.03,11.05c-0.3,0.42 -0.6,0.41 -0.89,-0.01z" class="st21"/>
   <path id="svg_46" fill="#C47652" d="m358.94,61.06l-0.46,0.01c0,0 -0.46,-0.02 -0.46,-0.02c0,-3.29 0,-6.58 0,-9.87c1.93,3.15 0.54,6.6 0.92,9.88z" class="st22"/>
   <path id="svg_47" fill="#C57854" d="m346.01,72.11c0.3,-0.02 0.59,-0.02 0.89,0c0.01,2.97 0.01,5.94 0.02,8.91c-1.94,-2.8 -0.54,-5.95 -0.91,-8.91z" class="st23"/>
   <path id="svg_48" fill="#C47652" d="m346.92,61.06l-0.47,0.01c0,0 -0.47,-0.01 -0.47,-0.01c0.39,-2.96 -1,-6.1 0.92,-8.89c0.01,2.97 0.02,5.93 0.02,8.89z" class="st22"/>
   <path id="svg_49" fill="#C57B58" d="m358.03,73.13c0.3,-0.02 0.59,-0.03 0.89,-0.01c-0.38,2.96 1.03,6.1 -0.93,8.89c0.02,-2.97 0.03,-5.93 0.04,-8.88z" class="st24"/>
   <path id="svg_50" fill="#BB643A" d="m346.97,198.04c0.16,-1.68 1.41,-3.36 -0.03,-5.03c2.76,1.27 2.77,2.16 0.03,5.03z" class="st25"/>
   <path id="svg_51" fill="#C06C44" d="m293.99,180.1c0.85,-1.69 1.99,-2.99 4.06,-3.06c-0.94,1.58 -2.07,2.89 -4.06,3.06z" class="st26"/>
   <path id="svg_52" fill="#BF6A42" d="m307.02,185.01c-0.91,1.59 -2,2.94 -4.03,3.03c0.86,-1.65 2.01,-2.93 4.03,-3.03z" class="st27"/>
   <path id="svg_53" fill="#C57651" d="m492.99,160c1.96,-1.48 3.92,-1.46 5.88,0c-1.96,0 -3.92,0 -5.88,0z" class="st28"/>
   <path id="svg_54" fill="#BE6940" d="m314.95,152.05c1.35,0.34 2.71,0.67 4.06,1.01c-2.11,2.71 -2.91,0.16 -4.06,-1.01z" class="st29"/>
   <path id="svg_55" fill="#C2724C" d="m345.92,50c-1.76,-1.73 -0.65,-3.93 -0.95,-5.9c1.83,1.73 0.7,3.93 0.95,5.9z" class="st30"/>
   <path id="svg_56" fill="#C1724D" d="m356.99,43.15c1.81,1.73 0.64,3.94 0.96,5.91c-1.79,-1.73 -0.72,-3.93 -0.96,-5.91z" class="st31"/>
   <path id="svg_57" fill="#BF6A42" d="m320.02,172.02c-0.7,1.34 -1.68,2.39 -3.05,3.05c0.36,-1.67 0.59,-3.47 3.05,-3.05z" class="st27"/>
   <path id="svg_58" fill="#C47754" d="m345.92,89.03c-1.44,-1.63 -1.43,-3.26 0.01,-4.88c0,1.63 -0.01,3.25 -0.01,4.88z" class="st32"/>
   <path id="svg_59" fill="#C4744D" d="m367.01,297.04c1.44,1.66 1.45,3.3 -0.04,4.93c0.01,-1.65 0.03,-3.29 0.04,-4.93z" class="st33"/>
   <path id="svg_60" fill="#C57B57" d="m357.01,85.12c1.41,1.64 1.46,3.28 -0.03,4.91c0.01,-1.63 0.02,-3.27 0.03,-4.91z" class="st34"/>
   <path id="svg_61" fill="#82914E" d="m392.92,348.03c-0.02,5.26 -0.03,10.51 -0.05,15.76c-1.46,-5.25 -1.52,-10.51 0.05,-15.76z" class="st35"/>
   <path id="svg_62" fill="#7B8B44" d="m416.97,427.95c4.96,0.01 9.92,0.01 14.88,0.02c-4.95,1.58 -9.92,1.62 -14.88,-0.02z" class="st36"/>
   <path id="svg_63" fill="#819049" d="m460.95,403.89c0,-2.61 0.01,-5.23 0.01,-7.84c1.51,2.61 1.51,5.22 -0.01,7.84z" class="st37"/>
   <path id="svg_64" fill="#7A8B43" d="m387.85,397.95c0.01,2.66 0.02,5.31 0.03,7.97c-1.88,-2.48 -0.51,-5.32 -0.86,-7.97c0.28,-0.44 0.55,-0.46 0.83,0z" class="st38"/>
   <path id="svg_65" fill="#7E8E48" d="m454.98,364.87c0.01,-2.29 0.02,-4.58 0.03,-6.87c0.29,-0.48 0.58,-0.48 0.87,0c-0.3,2.28 0.96,4.78 -0.9,6.87z" class="st39"/>
   <path id="svg_66" fill="#758435" d="m455.88,357.99l-0.44,-0.01c0,0 -0.44,0.01 -0.44,0.01c0,-2.02 0,-4.04 0,-6.06c0.29,-0.44 0.58,-0.41 0.87,0c0.01,2.03 0.01,4.05 0.01,6.06z" class="st40"/>
   <path id="svg_67" fill="#7C8C48" d="m391.94,366.99c-0.02,1.94 -0.04,3.88 -0.07,5.81c-1.45,-1.95 -1.48,-3.89 0.07,-5.81z" class="st41"/>
   <path id="svg_68" fill="#7C8C44" d="m390.84,374.01c0.03,1.64 0.06,3.28 0.09,4.92c-1.55,-1.61 -1.36,-3.25 -0.09,-4.92z" class="st42"/>
   <path id="svg_69" fill="#7C8C46" d="m387.85,397.95l-0.42,0c0,0 -0.42,0 -0.42,0c0.12,-1.66 -0.74,-3.51 0.89,-4.9c-0.01,1.63 -0.03,3.26 -0.05,4.9z" class="st43"/>
   <path id="svg_70" fill="#7C8C45" d="m455.94,371.94c0.01,-1.62 0.03,-3.24 0.04,-4.86c1.41,1.63 1.47,3.25 -0.04,4.86z" class="st44"/>
   <path id="svg_71" fill="#7E8D48" d="m455.88,351.94l-0.44,0.01c0,0 -0.44,-0.01 -0.43,-0.01c-0.02,-1.65 -0.04,-3.3 -0.06,-4.94c1.68,1.38 0.74,3.27 0.93,4.94z" class="st45"/>
   <path id="svg_72" fill="#7C5F53" d="m61.07,324.14c-3.15,-1.05 -0.4,-2.48 0.03,-3.24c5.96,-10.53 13.79,-19.58 22.72,-27.67c3.56,-3.23 7.01,-6.64 11.22,-9.09c-0.05,13.9 -0.1,27.79 -0.14,41.69c-11.16,-2.97 -22.4,-4.21 -33.83,-1.69z" class="st7"/>
  </g>
 </g>
</svg>