<svg width="512" height="512" xmlns="http://www.w3.org/2000/svg" xml:space="preserve" version="1.1">

 <g>
  <title>Layer 1</title>
  <g id="svg_1">
   <path id="svg_2" fill="#FEFEFE" d="m151.87,352.79c-36.85,-0.01 -73.7,-0.22 -110.55,-0.05c-12.64,0.06 -21.6,-4.8 -26.9,-16.51c-3.15,-6.95 -6.84,-13.66 -10.34,-20.45c-1.02,-1.98 -2.13,-3.86 -0.18,-5.89c13.12,-29.11 26.22,-58.23 39.35,-87.34c13.82,-30.61 27.64,-61.22 41.47,-91.84c1.05,1.28 0.19,2.93 -0.49,4.42c-6.6,14.54 -13.1,29.13 -19.72,43.65c-12.77,28 -25.44,56.03 -38.11,84.07c-6.71,14.85 -13.41,29.71 -20.1,44.58c-0.36,0.81 -0.79,1.61 -1.07,2.45c-0.06,0.18 -0.11,0.36 -0.15,0.54c-0.06,0.24 -0.11,0.49 -0.13,0.74c0.08,0.67 -0.23,-0.11 -0.01,0.5c4.41,12.38 9.2,24.66 18.65,34.18c5.15,5.19 12.3,5.47 19.16,5.49c27.91,0.09 55.82,0.07 83.73,0.02c3.3,0 6.6,0.05 9.9,0.1c6.99,0.11 13.98,0.19 20.95,-0.35c0.09,-0.01 0.19,-0.02 0.28,-0.04c8.71,-1.14 14.57,-5.98 18.32,-13.9c3.05,-6.45 6.21,-12.87 9.89,-19.01c1.44,-2.4 2.74,-4.91 1.36,-7.81c-0.02,-0.05 -0.04,-0.11 -0.07,-0.16c-0.05,-0.11 -0.1,-0.23 -0.15,-0.34c-19.77,-43.77 -39.47,-87.55 -59.4,-131.24c-6.5,-14.24 -12.93,-28.52 -19.38,-42.79c-0.76,-1.68 -2.07,-3.61 -0.76,-5.1c14.17,31.36 28.35,62.72 42.51,94.09c12.78,28.34 25.53,56.7 38.29,85.05c1.86,1.96 1.12,3.88 0.06,5.92c-4.02,7.8 -7.85,15.7 -12,23.44c-3.77,7.03 -9.11,12.16 -17.62,12.75c-2.12,1.4 -4.51,0.83 -6.79,0.83z" class="st0"/>
   <path id="svg_3" fill="#FEFEFE" d="m242.94,426.17c0,2.8 0.36,5.68 -0.98,8.34c-0.09,0.1 -0.18,0.19 -0.26,0.28c-0.06,0.05 -0.11,0.1 -0.17,0.15c-2.15,1.95 -4.93,1.42 -7.5,1.44c-17.58,0.07 -35.17,0.04 -52.76,0.02c-4.77,0 -9.28,0.79 -13.11,3.83c-3.84,3.05 -6.02,7.02 -6.13,12.01c-0.11,4.99 0.04,9.98 -0.08,14.97c-0.07,2.8 -0.3,4.48 -1.13,5.5c-0.44,0.54 -1.04,0.89 -1.88,1.13l-0.01,0c-0.97,0.27 -2.26,0.39 -3.95,0.45c-4.63,0.16 -9.3,-0.5 -13.89,0.52c-12.62,2.28 -16.15,6.53 -16.17,19.5c-0.01,4.15 0.02,8.3 -0.02,12.44c-0.02,1.84 -0.05,3.67 -1.4,5.15c-0.04,-7.1 -0.22,-14.2 -0.08,-21.29c0.2,-10.02 6.79,-16.48 16.87,-16.82c0.56,-0.31 1.17,-0.35 1.78,-0.37c0.01,0 0.01,0 0.02,0c2.56,-0.43 5.13,-0.43 7.7,-0.34c3.14,-0.13 6.28,-0.24 9.41,-0.32c1.04,-0.55 1.4,-1.64 1.31,-3.54c-0.21,-4.47 -0.06,-8.97 -0.05,-13.45c0.01,-14.38 6.52,-20.82 21.05,-20.83c17.91,0 35.82,0.01 53.72,0c1.99,-0.01 3.98,-0.1 5.97,-0.15c0.01,-99.83 0.02,-199.66 0.05,-299.49c0,-2.57 0.37,-4.89 -3.61,-4.87c-43.4,0.17 -86.8,0.19 -130.2,0.26c0.35,-0.4 0.9,-0.77 1.69,-1.09c2.3,-0.6 4.63,-0.48 6.96,-0.48c38.73,-0.01 77.46,-0.02 116.19,0c10.12,0 10.67,0.56 10.67,10.75c0.01,95.43 0.01,190.86 -0.01,286.3z" class="st0"/>
   <path id="svg_4" fill="#FEFEFE" d="m249.31,-0.3c0.18,2.34 -1.79,2.51 -3.23,3.06c-11.78,4.54 -19.28,12.77 -21.3,25.39c-2.13,13.28 2.97,23.71 13.4,31.77c1.58,1.22 3.43,2.18 4.14,4.14l0.01,0c0.05,0.15 0.1,0.31 0.14,0.47c0.05,0.17 0.08,0.34 0.11,0.52c0.62,11.31 0.3,22.63 0.2,33.94c-0.04,4.93 -1.32,5.96 -6.38,6.25c-1.99,0.12 -3.99,0.06 -5.98,0.06l-160.46,0c-2.49,0 -5,-0.13 -7.47,0.23c-5.65,0.83 -9.44,4.76 -9.93,10.23c-0.45,5.15 2.47,9.74 7.54,11.68c4.92,1.89 10.09,1.77 15.25,1.76c2.65,0 5.32,-0.23 7.92,0.5c0.66,0.29 1.12,0.62 1.42,0.98c-6.63,-0.13 -13.28,0.11 -19.87,-0.49c-9.32,-0.85 -14.6,-6.48 -14.1,-14.16c0.51,-7.86 6.21,-12.46 15.61,-12.47c36.72,-0.01 73.44,0 110.17,0c19.94,0 39.88,-0.11 59.81,0.09c3.94,0.03 5.1,-1.05 5.02,-5.02c-0.22,-11.65 -0.01,-23.3 0.03,-34.96c-7.04,-4.41 -12.81,-9.93 -16.06,-17.82c-7.31,-17.77 2.27,-38.38 20.63,-44.3c1.22,-0.4 2.65,-0.51 3.38,-1.85z" class="st0"/>
   <path id="svg_5" fill="#FEFEFE" d="m266.66,2.85c-1.71,-0.62 -4.12,-0.44 -4.37,-3.15c5.36,2.42 11.07,4.03 15.66,8.1c17.45,15.46 15.17,42.23 -4.73,54.39c-0.7,0.43 -1.32,0.99 -1.98,1.48c0.04,11.49 0.3,22.98 0.01,34.46c-0.12,4.44 1.14,5.54 5.53,5.53c56,-0.16 112,-0.11 167.99,-0.08c2.64,0 5.4,-0.08 7.9,0.62c5.77,1.6 9.61,7.47 9.21,13.33c-0.43,6.32 -4.86,11.21 -11.14,12.32c-7.53,1.33 -15.13,0.18 -22.68,0.82c0.28,-0.31 0.65,-0.61 1.14,-0.91c3.95,-1 7.96,-0.49 11.94,-0.55c3.86,-0.06 7.66,-0.41 11.29,-1.75c5.25,-1.94 8.25,-6.85 7.56,-12.15c-0.68,-5.24 -4.43,-8.98 -9.86,-9.78c-2.48,-0.36 -4.99,-0.23 -7.48,-0.23l-162.25,0c-10.37,-0.01 -10.73,-0.31 -10.66,-10.62c0.06,-9.83 -0.34,-19.67 0.23,-29.49c0.03,-0.22 0.07,-0.44 0.12,-0.64c0.04,-0.17 0.09,-0.33 0.16,-0.48c0.76,-2.05 2.76,-3.04 4.43,-4.33c13.9,-10.77 17.67,-27.64 9.28,-42.64c-3.87,-6.91 -9.84,-11.55 -17.3,-14.25z" class="st0"/>
   <path id="svg_6" fill="#FEFEFE" d="m508.92,315.3c-4.12,7.93 -7.95,16 -12.19,23.87c-3.77,6.98 -9.05,12.21 -17.59,12.77c-6.68,1.86 -13.5,0.79 -20.23,0.81c-32.38,0.1 -64.76,-0.19 -97.14,-0.01c-12.62,0.07 -21.61,-4.74 -26.89,-16.49c-3.13,-6.96 -6.84,-13.67 -10.34,-20.46c-1.02,-1.98 -2.12,-3.87 -0.18,-5.9c12.77,-28.36 25.51,-56.72 38.3,-85.07c14.16,-31.39 28.35,-62.76 42.53,-94.13c-22.45,-0.07 -44.9,-0.16 -67.35,-0.19c-20.46,-0.04 -40.92,0.07 -61.38,-0.08c-3.69,-0.02 -5.2,0.69 -5.19,4.88c0.13,99.83 0.12,199.66 0.13,299.49c4.64,0.08 9.28,0.16 13.92,0.24c16.78,-0.04 33.55,-0.23 50.32,-0.06c9.06,0.09 16.29,7.64 16.48,16.67c0.12,5.82 0.18,11.66 -0.03,17.47c-0.11,3.03 0.78,3.97 3.89,4.02c6.09,0.11 12.24,-1.03 18.27,0.69c8.17,0.88 14.29,6.74 14.86,14.7c0.55,7.78 0.51,15.59 -0.02,23.38c-1.48,-1.63 -1.37,-3.67 -1.39,-5.66c-0.03,-4.49 0,-8.98 -0.01,-13.46c-0.03,-10.65 -3.69,-15.29 -14.14,-17.94c-0.16,-0.03 -0.31,-0.07 -0.47,-0.09c-5.12,-1.01 -10.3,-0.27 -15.44,-0.46c-1.74,-0.06 -3.06,-0.18 -4.04,-0.47c-2.35,-0.69 -2.84,-2.36 -2.94,-6.63c-0.11,-4.66 0.07,-9.33 -0.07,-14c-0.29,-10.14 -6.52,-16.58 -16.65,-16.72c-15.43,-0.21 -30.86,-0.09 -46.31,-0.07c-0.68,0.01 -1.36,0.01 -2.04,0.01l-0.55,0c-4.68,-0.4 -9.57,1.21 -14.01,-1.45c-0.06,-0.03 -0.12,-0.06 -0.18,-0.1c-0.02,-0.02 -0.03,-0.05 -0.04,-0.07c-1.4,-2.23 -1.15,-4.76 -1.15,-7.21c-0.03,-96.33 -0.03,-192.66 -0.01,-288.99c0.01,-8.42 0.95,-9.44 8.98,-9.45c39.92,-0.06 79.84,-0.04 119.77,-0.02c1.66,0.01 3.33,0.02 4.94,0.43c0.91,0.3 1.5,0.69 1.86,1.14c1,1.23 0.24,2.92 -0.48,4.5c-6.91,15.12 -13.72,30.29 -20.62,45.42c-12.5,27.37 -24.83,54.82 -37.2,82.26c-6.76,15 -13.7,29.93 -20.35,44.99c-0.3,0.67 -0.61,1.33 -0.82,2.02c-0.06,0.18 -0.11,0.36 -0.15,0.55c-0.06,0.24 -0.1,0.48 -0.13,0.73c4.16,12.88 9.27,25.35 18.95,35.07c4.97,4.99 12.12,5.08 18.8,5.1c27.59,0.09 55.18,0.06 82.76,0.02c3.31,0 6.63,0.05 9.94,0.1c7.31,0.1 14.62,0.19 21.92,-0.35c0.09,-0.01 0.19,-0.02 0.28,-0.03c8.77,-1.05 14.47,-6.16 18.3,-13.9c3.53,-7.13 7.03,-14.28 10.75,-21.32c0.97,-1.83 1.43,-3.6 0.53,-5.52c-0.02,-0.05 -0.04,-0.1 -0.07,-0.15c-0.05,-0.11 -0.1,-0.22 -0.15,-0.33c-15.79,-35.06 -31.63,-70.08 -47.5,-105.08c-10.3,-22.71 -20.66,-45.39 -30.86,-68.14c-0.82,-1.82 -2.78,-3.88 -1.17,-5.82c13.8,30.58 27.61,61.14 41.41,91.73c13.12,29.1 26.23,58.21 39.34,87.32c1.63,1.75 1.26,3.46 0.24,5.44z" class="st0"/>
   <path id="svg_7" fill="#CD8C52" d="m374.25,473.82c-0.36,0.41 -0.75,0.71 -1.17,0.93c-1.17,0.61 -2.55,0.6 -3.88,0.61c-13.24,0.08 -26.48,0.06 -39.73,0.03c-1.63,0 -3.13,-0.61 -5.72,-0.97c0.22,0.05 0.48,0.53 0.64,0.75c0.07,0.1 0.12,0.15 0.14,0.08c0.01,-0.03 0.01,-0.08 0.01,-0.16c-0.01,-0.18 0.1,-0.21 0.33,-0.2c3.52,0.2 5.58,2.57 7.32,5.19c2.46,3.69 3.77,7.84 3.44,12.25c-0.48,6.53 1.65,13.25 -1.45,19.57l-210.68,0c-0.04,-7.1 -0.22,-14.2 -0.08,-21.29c0.2,-10.02 6.79,-16.48 16.87,-16.82c0.56,-0.31 1.17,-0.35 1.78,-0.37c0.01,0 0.01,0 0.02,0c0.21,-0.01 0.41,-0.01 0.62,-0.02c2.36,-0.12 4.72,-0.23 7.08,-0.32c3.14,-0.13 6.28,-0.24 9.41,-0.32c0.54,-0.03 1.08,-0.04 1.62,-0.05c22.31,-0.61 44.64,-0.36 66.95,-0.38c20.27,-0.03 40.53,0.01 60.79,-0.02c6.74,-0.01 7.04,-0.37 7.11,-7.01c0.02,-2.33 -0.16,-4.67 0.03,-6.98c0.69,-8.37 -1.26,-15.53 -8.67,-20.43c-0.58,-0.39 -1.13,-0.86 -1.44,-1.48c-0.2,-0.39 -0.31,-0.85 -0.27,-1.38c16.78,-0.04 33.55,-0.23 50.32,-0.06c9.06,0.09 16.29,7.64 16.48,16.67c0.12,5.82 0.18,11.66 -0.03,17.47c-0.11,3.03 0.78,3.97 3.89,4.02c6.09,0.11 12.24,-1.03 18.27,0.69z" class="st1"/>
   <path id="svg_8" fill="#6FA8D3" d="m273.22,62.19c-0.7,0.43 -1.32,0.99 -1.98,1.48c-0.36,0.31 -0.75,0.61 -1.15,0.88c-7.29,5.13 -20.35,5.12 -27.62,-0.02c-0.39,-0.27 -0.76,-0.56 -1.11,-0.86c-7.04,-4.41 -12.81,-9.93 -16.06,-17.82c-7.31,-17.77 2.27,-38.38 20.63,-44.3c1.22,-0.4 2.65,-0.51 3.38,-1.85l12.98,0c5.36,2.42 11.07,4.03 15.66,8.1c17.45,15.46 15.17,42.23 -4.73,54.39z" class="st2"/>
   <path id="svg_9" fill="#BE7D47" d="m389.09,511.9l-54.91,0c0,-5.64 -0.2,-11.28 0.04,-16.91c0.35,-8.24 -1.63,-15.11 -9.69,-19.74c-0.05,-0.03 -0.09,-0.06 -0.14,-0.08c-0.83,-0.48 -1.73,-0.93 -2.7,-1.35l52.56,0c8.17,0.88 14.29,6.74 14.86,14.7c0.55,7.78 0.51,15.59 -0.02,23.38z" class="st3"/>
   <path id="svg_10" fill="#9B9C9F" d="m461.88,117.53c-0.43,6.32 -4.86,11.21 -11.14,12.32c-7.53,1.33 -15.13,0.18 -22.68,0.82c-0.06,0 -0.13,0 -0.19,0.01c-7.56,2.64 -15.11,2.6 -22.67,0.01l-0.01,0c-22.45,-0.07 -44.9,-0.16 -67.35,-0.19c-20.46,-0.04 -40.92,0.07 -61.38,-0.08c-3.69,-0.02 -5.2,0.69 -5.19,4.88c0.13,99.83 0.12,199.66 0.13,299.49c-0.11,0.06 -0.24,0.12 -0.37,0.17c-5.15,2.23 -24.42,2.22 -29.5,-0.02c-0.12,-0.04 -0.23,-0.1 -0.33,-0.15c0.01,-99.83 0.02,-199.66 0.05,-299.49c0,-2.57 0.37,-4.89 -3.61,-4.87c-43.4,0.17 -86.8,0.19 -130.2,0.26l-0.03,0c-7.56,2.59 -15.12,2.63 -22.68,-0.01l-0.04,0c-6.63,-0.13 -13.28,0.11 -19.87,-0.49c-9.32,-0.85 -14.6,-6.48 -14.1,-14.16c0.51,-7.86 6.21,-12.46 15.61,-12.47c36.72,-0.01 73.44,0 110.17,0c19.94,0 39.88,-0.11 59.81,0.09c3.94,0.03 5.1,-1.05 5.02,-5.02c-0.22,-11.65 -0.01,-23.3 0.03,-34.96c0.32,0.14 0.64,0.27 0.96,0.39l0.01,0c9.31,3.65 18.61,3.64 27.92,0.01c0.33,-0.13 0.66,-0.26 0.99,-0.4c0.04,11.49 0.3,22.98 0.01,34.46c-0.12,4.44 1.14,5.54 5.53,5.53c56,-0.16 112,-0.11 167.99,-0.08c2.64,0 5.4,-0.08 7.9,0.62c5.77,1.6 9.61,7.47 9.21,13.33z" class="st4"/>
   <path id="svg_11" fill="#DC9F64" d="m188.22,309.85c-0.35,0.18 -0.69,0.34 -1.04,0.49c-4.76,1.99 -9.72,0.78 -14.62,0.55c-0.81,-0.23 -1.44,-0.65 -1.94,-1.17c-0.19,-0.19 -0.36,-0.39 -0.5,-0.61c-0.47,-0.63 -0.81,-1.34 -1.15,-2.08c-11.72,-25.57 -23.21,-51.24 -34.9,-76.82c-10.58,-23.16 -20.91,-46.44 -31.52,-69.58c-2.34,-5.1 -4.72,-10.2 -6.52,-14.68c-2.52,6.92 -6.22,14.37 -9.68,21.92c-19.05,41.43 -37.5,83.13 -56.48,124.59c-2.08,4.54 -4.3,9.01 -6.16,13.65c-0.42,1.03 -0.86,2.05 -1.51,2.89c-0.2,0.26 -0.42,0.5 -0.66,0.73c-0.51,0.48 -1.14,0.87 -1.93,1.12c-4.87,0.3 -9.79,1.43 -14.53,-0.43c-0.4,-0.16 -0.79,-0.33 -1.18,-0.53c13.12,-29.11 26.22,-58.23 39.35,-87.34c13.82,-30.61 27.64,-61.22 41.47,-91.84c0,-0.01 0.01,-0.02 0.01,-0.03c7.56,0 15.12,0.01 22.68,0.01c0,0.01 0.01,0.01 0.01,0.02c14.17,31.36 28.35,62.72 42.51,94.09c12.78,28.34 25.53,56.7 38.29,85.05z" class="st5"/>
   <path id="svg_12" fill="#FDC83E" d="m158.66,351.96c-2.12,1.4 -4.51,0.83 -6.79,0.83c-36.85,-0.01 -73.7,-0.22 -110.55,-0.05c-12.64,0.06 -21.6,-4.8 -26.9,-16.51c-3.15,-6.95 -6.84,-13.66 -10.34,-20.45c-1.02,-1.98 -2.13,-3.86 -0.18,-5.89c0.44,0 0.89,-0.01 1.33,-0.01c5.2,-0.06 10.39,-0.11 15.6,-0.16c0.44,-0.29 0.9,-0.53 1.37,-0.72c1.83,-0.77 3.82,-0.81 5.82,-0.81c33.22,0 66.44,-0.01 99.65,0.02c2.31,0 4.68,-0.17 6.78,1.16c0.1,0.11 0.2,0.22 0.28,0.33c0.08,0.1 0.15,0.19 0.21,0.28c1.34,1.94 1.08,4.27 1.11,6.48c0.07,8.15 0.02,16.3 0.02,24.45c0.01,10.11 -0.32,9.29 9.11,9.34c2.82,0.01 5.64,-0.07 8.46,0.06c1.37,0.06 2.79,0.06 3.97,0.75c0.38,0.22 0.73,0.51 1.05,0.9z" class="st6"/>
   <path id="svg_13" fill="#DC9F64" d="m297.31,468.96c0.36,4.1 -1.28,5 -5.1,4.99c-37.2,-0.12 -74.39,-0.07 -111.58,-0.08c-7.23,0 -14.46,-0.01 -21.69,-0.03l-0.01,0c-6.22,-0.02 -12.43,-0.04 -18.64,-0.05c0.59,-0.15 1.19,-0.27 1.78,-0.37c0.01,0 0.01,0 0.02,0c2.56,-0.43 5.13,-0.43 7.7,-0.34c2.27,0.07 4.54,0.2 6.8,0.18c1.14,-0.02 1.99,-0.16 2.61,-0.5c1.04,-0.55 1.4,-1.64 1.31,-3.54c-0.21,-4.47 -0.06,-8.97 -0.05,-13.45c0.01,-14.38 6.52,-20.82 21.05,-20.83c17.91,0 35.82,0.01 53.72,0c1.99,-0.01 3.98,-0.1 5.97,-0.15l30.2,0c4.64,0.08 9.28,0.16 13.92,0.24c0.81,0.44 1.58,0.9 2.31,1.37c7.18,4.69 10.69,11.32 9.68,20.6c-0.43,3.94 -0.34,8 0,11.96z" class="st5"/>
   <path id="svg_14" fill="#EEB433" d="m188.28,315.77c-4.02,7.8 -7.85,15.7 -12,23.44c-3.77,7.03 -9.11,12.16 -17.62,12.75c-6.12,-0.04 -12.26,-0.42 -18.35,-0.01c-1.75,0.12 -3.02,-0.04 -3.93,-0.5c-1.65,-0.83 -2.09,-2.67 -2.01,-5.68c0.32,-11.92 0.12,-23.86 0.12,-35.79c0.08,-0.1 0.16,-0.19 0.24,-0.28c1.28,-1.35 3.03,-1.39 4.72,-1.42c8.89,-0.13 17.78,-0.09 26.67,-0.03c1.42,0.01 2.75,0.29 4,0.86c0.39,0.18 0.77,0.38 1.15,0.61c5.23,0.04 10.46,0.08 15.69,0.12c0.42,0 0.84,0.01 1.26,0.01c1.86,1.96 1.12,3.88 0.06,5.92z" class="st7"/>
   <path id="svg_15" fill="#DC9F64" d="m508.68,309.86c-0.33,0.17 -0.67,0.33 -1,0.47c-4.76,2 -9.72,0.79 -14.62,0.56c-0.83,-0.26 -1.48,-0.66 -2,-1.17c-0.22,-0.21 -0.42,-0.44 -0.6,-0.68c-0.73,-0.96 -1.21,-2.13 -1.73,-3.28c-15.92,-34.81 -31.47,-69.79 -47.37,-104.6c-7.96,-17.41 -15.9,-34.82 -23.67,-52.31c-0.52,-1.19 -1.33,-2.35 -0.71,-3.76c-8.61,19.27 -17.36,38.49 -26.03,57.74c-12.57,27.92 -25.28,55.77 -37.91,83.67c-3.09,6.82 -6.12,13.67 -9.36,20.43c-0.36,0.75 -0.72,1.51 -1.19,2.15c-0.16,0.23 -0.34,0.45 -0.54,0.65c-0.48,0.49 -1.07,0.89 -1.84,1.12c-4.87,0.3 -9.79,1.44 -14.53,-0.42c-0.41,-0.15 -0.81,-0.33 -1.22,-0.54c12.77,-28.36 25.51,-56.72 38.3,-85.07c14.16,-31.39 28.35,-62.76 42.53,-94.13l0.01,0c7.56,0 15.11,-0.01 22.67,-0.01c0.02,0.04 0.04,0.09 0.06,0.13c13.8,30.58 27.61,61.14 41.41,91.73c13.12,29.1 26.23,58.21 39.34,87.32z" class="st5"/>
   <path id="svg_16" fill="#FDC83E" d="m479.14,351.94c-6.68,1.86 -13.5,0.79 -20.23,0.81c-32.38,0.1 -64.76,-0.19 -97.14,-0.01c-12.62,0.07 -21.61,-4.74 -26.89,-16.49c-3.13,-6.96 -6.84,-13.67 -10.34,-20.46c-1.02,-1.98 -2.12,-3.87 -0.18,-5.9c0.46,0 0.91,-0.01 1.37,-0.01c5.19,-0.06 10.39,-0.1 15.58,-0.16l0.01,0c0.38,-0.26 0.77,-0.47 1.17,-0.64c1.89,-0.84 3.94,-0.89 6.01,-0.89c32.89,-0.01 65.79,-0.01 98.68,0.02c2.31,0 4.68,-0.17 6.77,1.16c0.11,0.12 0.21,0.24 0.31,0.36c0.07,0.09 0.13,0.19 0.2,0.28c1.32,1.93 1.07,4.24 1.09,6.45c0.07,8.64 0.02,17.28 0.03,25.93c0.02,7.85 0.03,7.84 8.08,7.86c3.32,0 6.64,-0.07 9.96,0.04c1.54,0.05 3.14,-0.02 4.48,0.78c0.37,0.21 0.72,0.5 1.04,0.87z" class="st6"/>
   <path id="svg_17" fill="#EEB433" d="m508.92,315.3c-4.12,7.93 -7.95,16 -12.19,23.87c-3.77,6.98 -9.05,12.21 -17.59,12.77c-6.44,-0.03 -12.89,-0.31 -19.32,-0.01c-1.69,0.08 -2.98,-0.03 -3.92,-0.48c-1.49,-0.7 -2.11,-2.24 -2.02,-5.19c0.37,-12.07 0.13,-24.17 0.14,-36.25c0.08,-0.1 0.16,-0.19 0.24,-0.28c1.26,-1.38 3.01,-1.42 4.69,-1.45c9.22,-0.13 18.43,-0.09 27.65,-0.03c1.36,0.01 2.65,0.27 3.86,0.79c0.44,0.19 0.87,0.41 1.29,0.67c5.24,0.05 10.48,0.09 15.71,0.14c0.41,0 0.81,0.01 1.22,0.01c1.63,1.75 1.26,3.46 0.24,5.44z" class="st7"/>
   <path id="svg_18" fill="#FEFEFE" d="m169.24,304.64c-19.49,-43.02 -38.98,-86.04 -58.49,-129.05c-4.75,-10.49 -9.55,-20.96 -14.7,-32.26c-7.57,16.7 -14.71,32.44 -21.83,48.19c-17.8,39.4 -35.59,78.8 -53.39,118.2c0.24,0 0.47,0 0.71,0.01c4.91,0.04 9.83,0.09 14.74,0.1c32.74,0.05 65.47,0.1 98.21,0.15l0.45,0c11.89,-0.09 23.79,-0.17 35.68,-0.26l0.65,0c-0.67,-1.7 -1.28,-3.42 -2.03,-5.08zm-3.12,3.61c-8.89,-0.06 -17.78,-0.1 -26.67,0.03c-1.69,0.03 -3.44,0.07 -4.72,1.42c-0.08,-0.11 -0.18,-0.22 -0.28,-0.33c-2.1,-1.33 -4.47,-1.16 -6.78,-1.16c-33.21,-0.03 -66.43,-0.02 -99.65,-0.02c-2,0 -3.99,0.04 -5.82,0.81c0.65,-0.84 1.09,-1.86 1.51,-2.89c1.86,-4.64 4.08,-9.11 6.16,-13.65c18.98,-41.46 37.43,-83.16 56.48,-124.59c3.46,-7.55 7.16,-15 9.68,-21.92c1.8,4.48 4.18,9.58 6.52,14.68c10.61,23.14 20.94,46.42 31.52,69.58c11.69,25.58 23.18,51.25 34.9,76.82c0.34,0.74 0.68,1.45 1.15,2.08c-1.25,-0.57 -2.58,-0.85 -4,-0.86z" class="st0"/>
   <path id="svg_19" fill="#FEFEFE" d="m490.85,307.39c-20.85,-46.05 -41.72,-92.09 -62.58,-138.14c-3.79,-8.36 -7.59,-16.72 -11.67,-25.72c-1.13,2.3 -1.89,3.77 -2.58,5.27c-13.81,30.44 -27.64,60.87 -41.41,91.33c-10.48,23.18 -20.87,46.39 -31.29,69.59l-0.01,0l0,0.01l0.64,0c6.27,0.03 12.53,0.08 18.81,0.1c31.08,0.06 62.17,0.12 93.26,0.18l0.44,0c12.2,-0.1 24.41,-0.2 36.6,-0.29c0.23,-0.01 0.46,-0.01 0.69,-0.01c-0.3,-0.77 -0.56,-1.56 -0.9,-2.32zm-4.25,0.86c-9.22,-0.06 -18.43,-0.1 -27.65,0.03c-1.68,0.03 -3.43,0.07 -4.69,1.45c-0.1,-0.12 -0.2,-0.24 -0.31,-0.36c-2.09,-1.33 -4.46,-1.16 -6.77,-1.16c-32.89,-0.03 -65.79,-0.03 -98.68,-0.02c-2.07,0 -4.12,0.05 -6.01,0.89c0.47,-0.64 0.83,-1.4 1.19,-2.15c3.24,-6.76 6.27,-13.61 9.36,-20.43c12.63,-27.9 25.34,-55.75 37.91,-83.67c8.67,-19.25 17.42,-38.47 26.03,-57.74c-0.62,1.41 0.19,2.57 0.71,3.76c7.77,17.49 15.71,34.9 23.67,52.31c15.9,34.81 31.45,69.79 47.37,104.6c0.52,1.15 1,2.32 1.73,3.28c-1.21,-0.52 -2.5,-0.78 -3.86,-0.79z" class="st0"/>
  </g>
 </g>
</svg>