<?xml version="1.0" standalone="no"?>
<!DOCTYPE svg PUBLIC "-//W3C//DTD SVG 20010904//EN"
 "http://www.w3.org/TR/2001/REC-SVG-20010904/DTD/svg10.dtd">
<svg version="1.0" xmlns="http://www.w3.org/2000/svg"
 width="119.000000pt" height="100.000000pt" viewBox="0 0 119.000000 100.000000"
 preserveAspectRatio="xMidYMid meet">

<g transform="translate(0.000000,100.000000) scale(0.100000,-0.100000)"
fill="#000000" stroke="none">
<path d="M530 916 l0 -66 57 0 58 0 -28 28 c-26 25 -29 26 -38 10 -6 -10 -17
-18 -25 -18 -9 0 -14 7 -12 18 2 10 11 16 21 14 9 -2 17 2 17 7 0 5 12 11 27
13 25 3 23 5 -25 31 l-52 28 0 -65z m45 25 c7 -12 -12 -24 -25 -16 -11 7 -4
25 10 25 5 0 11 -4 15 -9z"/>
<path d="M691 948 c-23 -21 -26 -34 -10 -44 6 -3 8 -15 6 -26 -4 -15 -3 -17 8
-8 10 8 14 7 18 -7 4 -16 6 -15 12 5 9 27 14 27 31 5 7 -10 18 -18 26 -18 7 0
13 -10 12 -23 0 -15 3 -19 9 -13 7 7 14 5 22 -6 11 -14 13 -13 19 12 6 23 9
26 17 14 5 -7 9 -26 9 -41 0 -16 5 -28 11 -28 6 0 8 -9 3 -22 -6 -20 -5 -21
10 -9 14 12 16 10 16 -22 0 -19 6 -40 14 -46 8 -7 12 -21 8 -34 -5 -20 -4 -20
11 -8 9 7 17 10 17 7 0 -10 -63 -61 -72 -59 -4 2 -5 -3 -3 -10 6 -16 -21 -51
-34 -43 -6 4 -8 13 -4 21 3 8 1 15 -3 15 -15 0 -30 -14 -37 -32 -7 -20 -58
-32 -103 -23 -39 7 -41 28 -4 33 14 2 35 13 49 23 13 10 29 19 36 19 7 0 33 9
59 21 l47 20 -58 44 c-32 24 -76 59 -98 78 -23 21 -43 31 -46 25 -4 -6 -12 -7
-19 -3 -9 6 -9 9 1 15 8 6 -1 11 -27 16 -55 11 -71 8 -100 -15 -15 -12 -32
-21 -39 -21 -7 0 -33 -11 -56 -25 -24 -14 -51 -25 -59 -25 -9 0 -48 -16 -88
-35 -40 -19 -72 -30 -72 -25 0 5 4 11 9 14 5 3 12 21 15 40 5 27 10 34 23 29
12 -5 15 -2 10 10 -3 9 -2 19 3 22 6 4 10 19 10 34 0 38 11 46 27 19 11 -20
12 -21 13 -4 0 15 3 16 14 7 12 -10 15 -8 18 11 2 13 9 23 16 23 8 0 19 8 26
18 17 22 22 22 31 -5 6 -20 8 -21 12 -5 4 14 8 16 19 6 12 -10 13 -9 8 5 -3 9
-1 22 5 30 15 18 4 43 -22 50 -32 8 -31 8 -62 -20 -20 -18 -34 -24 -51 -20
-24 6 -76 -12 -69 -24 3 -4 -14 -20 -38 -36 -43 -28 -97 -78 -97 -88 0 -4 11
-4 25 0 37 9 30 -10 -10 -29 -19 -9 -35 -23 -35 -30 0 -8 -11 -19 -25 -25 -36
-17 -31 -33 7 -25 l33 6 -18 -27 c-10 -15 -16 -34 -13 -41 3 -8 -7 -23 -24
-35 -38 -27 -38 -41 0 -34 33 7 37 -1 15 -30 -26 -34 -18 -53 10 -26 14 13 25
29 25 37 0 18 17 16 24 -3 10 -25 7 -31 -14 -37 -11 -3 -19 -10 -18 -16 2 -5
-13 -24 -32 -41 l-35 -30 38 6 c42 7 44 4 21 -31 -22 -34 -13 -55 12 -28 10
11 24 28 31 39 11 19 11 19 18 -1 3 -11 10 -27 15 -36 4 -8 3 -23 -2 -34 -10
-16 -8 -17 20 -12 39 8 45 -2 21 -32 -19 -23 -20 -24 -64 -6 -25 9 -45 22 -45
29 0 11 -39 36 -56 36 -2 0 -2 -11 2 -24 5 -20 1 -25 -22 -33 l-27 -9 31 -13
c18 -8 32 -19 32 -26 0 -8 20 -21 45 -31 29 -11 45 -23 45 -34 0 -18 88 -65
175 -93 117 -38 303 -39 455 -2 85 21 192 74 205 102 5 12 19 24 32 28 12 3
36 19 53 35 17 17 35 30 40 30 6 0 10 5 10 10 0 6 -9 10 -21 10 -18 0 -20 4
-15 26 6 23 5 25 -16 19 -13 -4 -30 -15 -38 -26 -8 -10 -36 -27 -62 -38 l-48
-20 -6 24 c-3 14 -10 25 -16 25 -5 0 -6 5 -3 11 4 6 20 7 38 3 27 -6 30 -4 20
8 -9 11 -10 23 -1 51 13 41 24 47 33 18 3 -10 14 -26 25 -36 18 -17 20 -17 20
-1 0 9 -8 28 -17 43 l-17 26 37 -7 c45 -8 48 5 7 34 -17 12 -28 25 -25 29 2 5
-7 13 -20 19 -26 12 -31 27 -16 51 7 11 13 7 25 -16 19 -39 51 -54 41 -20 -4
12 -11 26 -16 31 -17 19 -9 28 21 21 39 -9 39 8 1 31 -17 10 -28 21 -25 26 3
4 -2 21 -11 37 -20 40 -19 44 10 37 32 -8 32 7 0 28 -14 9 -23 21 -20 25 2 5
-9 14 -25 21 -41 17 -51 34 -16 28 33 -7 34 7 1 28 -14 9 -23 20 -20 24 3 4
-3 11 -13 15 -29 11 -82 49 -82 60 0 17 -47 34 -59 22 -12 -12 -65 8 -57 21 3
4 -8 13 -24 19 -24 9 -32 8 -49 -9z m-281 -56 c0 -13 -12 -22 -22 -16 -10 6
-1 24 13 24 5 0 9 -4 9 -8z m370 -8 c0 -8 -4 -12 -10 -9 -5 3 -10 10 -10 16 0
5 5 9 10 9 6 0 10 -7 10 -16z m-490 -44 c0 -5 -4 -10 -10 -10 -5 0 -10 5 -10
10 0 6 5 10 10 10 6 0 10 -4 10 -10z m617 4 c-3 -3 -12 -4 -19 -1 -8 3 -5 6 6
6 11 1 17 -2 13 -5z m-253 -80 c20 -7 21 -20 3 -27 -19 -7 -41 8 -33 22 8 13
9 13 30 5z m-414 -25 c0 -5 -7 -9 -15 -9 -15 0 -20 12 -9 23 8 8 24 -1 24 -14z
m715 11 c3 -5 1 -10 -4 -10 -6 0 -11 5 -11 10 0 6 2 10 4 10 3 0 8 -4 11 -10z
m-330 -20 c3 -5 -2 -10 -12 -10 -10 0 -29 -3 -43 -5 -22 -5 -21 -3 5 9 36 18
42 19 50 6z m133 -48 c4 -12 -45 -28 -55 -18 -8 8 28 36 41 33 6 -2 11 -8 14
-15z m-208 3 c0 -3 -9 -9 -21 -13 -20 -8 -20 -9 -3 -23 11 -8 15 -9 10 -1 -4
7 -1 12 8 12 25 0 19 -19 -9 -32 -14 -6 -25 -15 -25 -19 0 -4 -9 -5 -20 -2
-11 3 -20 0 -20 -6 0 -6 -9 -11 -19 -11 -18 0 -19 3 -10 30 7 19 18 30 30 30
10 0 19 4 19 8 0 5 10 14 23 20 25 12 37 14 37 7z m460 -40 c0 -8 -4 -15 -10
-15 -5 0 -10 7 -10 15 0 8 5 15 10 15 6 0 10 -7 10 -15z m-844 -22 c-10 -10
-19 5 -10 18 6 11 8 11 12 0 2 -7 1 -15 -2 -18z m234 12 c0 -2 -15 -15 -34
-28 -25 -17 -32 -27 -26 -37 7 -12 10 -12 16 3 7 20 50 23 61 3 4 -8 27 -24
51 -36 23 -12 42 -26 42 -31 0 -5 11 -7 25 -3 15 4 25 2 25 -4 0 -19 31 -42
56 -42 14 0 23 -5 21 -12 -1 -8 6 -12 19 -10 13 2 24 -4 28 -15 6 -15 8 -15
16 -3 6 8 10 10 10 4 0 -7 25 -10 71 -9 l70 2 -2 -31 c-1 -17 2 -39 6 -48 11
-28 -2 -48 -32 -49 -15 0 -22 -3 -16 -6 10 -3 10 -10 2 -25 -6 -11 -8 -22 -5
-25 8 -9 -65 -43 -92 -43 -12 0 -43 -11 -69 -24 l-45 -25 41 -12 c32 -9 53 -9
101 1 33 7 60 16 60 20 0 4 16 11 35 14 20 4 33 11 31 15 -3 4 7 14 22 21 26
13 26 14 4 18 -18 3 -21 8 -16 30 9 37 14 40 14 8 0 -15 4 -25 10 -21 5 3 17
-6 27 -21 16 -25 16 -27 -2 -40 -10 -7 -54 -26 -99 -41 -75 -26 -93 -28 -236
-28 -157 0 -174 3 -287 47 -57 22 -58 23 -43 63 7 18 15 25 25 21 8 -3 15 0
15 7 0 7 4 6 10 -3 7 -11 4 -16 -13 -21 -22 -6 -21 -6 5 -19 15 -7 25 -16 23
-21 -3 -4 5 -10 17 -14 13 -4 37 -13 53 -20 48 -22 131 -29 165 -15 l30 12
-44 24 c-25 13 -56 24 -69 24 -66 0 -139 68 -102 96 8 6 15 16 15 23 0 13 19
14 37 3 8 -5 9 -13 3 -22 -6 -8 -10 -25 -10 -37 0 -25 38 -41 67 -28 17 8 17
8 1 12 -10 3 -18 12 -18 22 0 33 23 50 75 53 37 2 51 7 53 20 4 20 -21 27 -64
17 -21 -4 -44 0 -70 12 -22 10 -45 18 -52 19 -7 0 -32 13 -55 29 -23 15 -52
31 -64 35 -13 4 -23 11 -23 15 0 19 24 78 39 95 13 16 14 19 1 14 -56 -20 -60
-20 -60 1 0 27 17 36 37 19 14 -11 16 -11 8 1 -5 9 -4 12 3 7 6 -4 28 4 49 18
37 24 53 31 53 21z m296 -21 c-3 -9 -6 -20 -6 -25 0 -6 -9 -5 -22 2 -21 11
-21 12 -3 25 25 19 39 18 31 -2z m-37 -58 c11 -13 9 -15 -18 -13 -17 1 -30 7
-29 12 1 6 -4 21 -11 34 l-13 24 29 -21 c16 -12 35 -28 42 -36z m-427 -228
c-9 -9 -12 -7 -12 12 0 19 3 21 12 12 9 -9 9 -15 0 -24z m728 12 c0 -13 -5
-18 -15 -14 -12 5 -13 10 -4 20 15 19 19 18 19 -6z m-596 -135 c9 -14 13 -25
8 -25 -5 0 -14 11 -20 25 -6 14 -10 25 -8 25 2 0 11 -11 20 -25z m470 -9 c-3
-9 -10 -16 -15 -16 -5 0 -4 9 3 20 14 22 21 20 12 -4z m-399 -26 c3 -6 -1 -7
-9 -4 -18 7 -21 14 -7 14 6 0 13 -4 16 -10z m85 -24 c0 -10 -50 8 -54 20 -5
12 0 12 24 -1 17 -9 30 -17 30 -19z m255 24 c-3 -5 -14 -10 -23 -10 -15 0 -15
2 -2 10 20 13 33 13 25 0z m-59 -9 c-3 -5 -16 -11 -28 -14 -22 -6 -22 -5 -4 8
22 17 40 20 32 6z m234 -17 c-3 -5 -9 -8 -14 -6 -5 2 -6 -4 -3 -12 4 -9 -4
-18 -21 -24 -24 -8 -28 -7 -28 9 0 10 10 20 24 24 12 3 20 10 17 14 -3 5 3 8
12 7 10 -2 16 -7 13 -12z m-706 -6 c-5 -8 -2 -9 9 -5 10 3 17 2 17 -3 0 -5 6
-7 14 -4 9 3 21 -5 31 -23 12 -22 14 -23 10 -6 -5 18 -3 22 9 17 13 -5 13 -10
5 -27 -10 -18 -13 -19 -23 -5 -6 8 -28 20 -48 27 -37 12 -45 21 -31 34 10 11
15 8 7 -5z m631 -18 c3 -5 1 -18 -4 -27 -6 -10 -11 -13 -11 -8 0 6 -5 3 -10
-5 -7 -11 -10 -11 -10 -2 0 7 -4 10 -10 7 -5 -3 -10 -2 -10 4 0 5 5 13 10 16
6 3 10 1 10 -5 0 -6 4 -9 10 -5 5 3 7 12 3 20 -6 17 12 21 22 5z m-466 -33
c10 0 8 -4 -5 -14 -22 -16 -31 -16 -40 -1 -5 8 -1 9 12 5 18 -7 18 -6 -1 9
l-20 17 20 -8 c11 -4 26 -8 34 -8z m390 -15 c0 -14 -2 -13 -8 3 -8 19 -8 19
-15 -2 -7 -23 -46 -33 -46 -13 0 18 -20 11 -21 -7 0 -16 -1 -16 -8 1 -7 17 -8
17 -14 3 -4 -10 -15 -15 -34 -13 -15 2 -26 7 -23 12 3 5 8 8 12 7 4 -2 22 4
41 12 26 10 37 11 45 3 9 -9 12 -9 12 -1 0 11 38 22 53 15 4 -2 7 -11 6 -20z
m-329 -4 c0 -5 7 -2 16 7 9 9 21 13 28 10 6 -3 19 -8 29 -11 17 -6 20 -26 4
-25 -4 1 -14 1 -22 1 -8 0 -15 5 -15 11 0 5 5 7 10 4 6 -3 10 -4 10 -1 0 3 -5
8 -10 11 -6 3 -14 -5 -20 -19 -5 -14 -14 -26 -20 -26 -6 0 -9 3 -7 7 3 5 -1
14 -9 21 -8 7 -14 8 -14 3 0 -6 -8 -7 -17 -4 -11 4 -13 8 -5 11 7 2 10 7 7 12
-3 4 4 6 15 3 11 -3 20 -10 20 -15z m130 -13 c0 -8 -7 -15 -15 -15 -8 0 -15 5
-15 11 0 5 5 7 10 4 6 -3 10 -1 10 4 0 6 2 11 5 11 3 0 5 -7 5 -15z"/>
<path d="M905 120 c-3 -5 -1 -10 4 -10 6 0 11 5 11 10 0 6 -2 10 -4 10 -3 0
-8 -4 -11 -10z"/>
<path d="M745 70 c-3 -5 -1 -10 4 -10 6 0 11 5 11 10 0 6 -2 10 -4 10 -3 0 -8
-4 -11 -10z"/>
</g>
</svg>
