<svg width="512" height="512" xmlns="http://www.w3.org/2000/svg" xml:space="preserve" version="1.1">

 <g>
  <title>Layer 1</title>
  <g id="svg_1">
   <path id="svg_2" fill="#FEFEFE" d="m509.08,138.52c0,82.73 0.02,165.46 0.01,248.19c0,13.94 -11.3,25.44 -25.36,25.83c-4.45,0.13 -8.91,-0.01 -13.37,-0.03c-5.8,2.28 -11.58,4.63 -17.42,6.83c-3.21,1.21 -3.68,2.43 -1,5.03c7.93,7.69 15.69,15.54 23.43,23.43c4.16,4.24 4.12,7.74 0.2,12.51c-5.03,2.99 -7.76,2.78 -11.85,-1.26c-7.88,-7.79 -15.72,-15.6 -23.44,-23.54c-2.25,-2.31 -3.32,-2.52 -4.56,0.82c-2.21,5.96 -4.79,11.79 -7.58,18.55c-7.36,-14.65 -14.3,-28.47 -21.23,-42.28c-47.17,-0.01 -94.35,-0.02 -141.52,-0.02c-0.05,25.59 -0.22,51.18 -0.04,76.78c0.03,4.57 -1.22,5.74 -5.73,5.72c-38.39,-0.23 -76.8,-0.19 -115.19,-0.24c-47.54,0.05 -95.08,0.09 -142.61,0.13c1.59,-1.46 3.58,-1.58 5.57,-1.58c45.58,0.02 91.13,-0.22 136.71,0.1l0.55,0c29.26,-0.3 58.52,0.1 87.79,-0.21c10.15,-0.1 20.37,1.35 30.45,-0.98c1.98,-10.15 0.63,-20.39 0.82,-30.59c0.26,-13.88 0.04,-27.76 0.09,-41.64c0,-2.62 -0.33,-5.33 1.3,-7.69c0.1,-0.09 0.2,-0.17 0.31,-0.24c0.12,-0.08 0.24,-0.16 0.36,-0.23c0.09,-0.05 0.18,-0.1 0.27,-0.14c0.16,-0.08 0.33,-0.15 0.5,-0.21c1.19,-0.43 2.49,-0.39 3.76,-0.39c20.29,0.05 40.59,-0.04 60.87,-0.12c0.58,-0.01 1.15,-0.01 1.73,-0.01c22.89,-0.1 45.77,-0.19 68.65,-0.08c1.16,0.01 2.31,0.07 3.44,0.27c0.56,0.09 1.05,0.24 1.5,0.45c0.25,0.12 0.49,0.25 0.7,0.41c1.5,1.01 2.34,2.71 3.18,4.4c5.05,10.02 9.96,20.1 15.07,30.09c0.72,1.43 1.07,3.13 2.79,4.33c2.42,-4.38 3.95,-9.04 5.87,-13.52c2.34,-5.44 3.95,-5.82 8.11,-1.74c7.41,7.27 14.66,14.7 22.04,22.01c2.92,2.89 6.1,4.35 9.81,2.05c0.24,-0.14 0.48,-0.3 0.71,-0.48c0.03,-0.04 0.05,-0.08 0.07,-0.11c3.12,-4.58 2.99,-6.95 -1.04,-11.13c-6.96,-7.21 -14.16,-14.2 -21.2,-21.34c-4.97,-5.05 -4.68,-6.54 1.95,-9.23c4.71,-1.91 9.22,-4.41 14.2,-5.67c0.35,-0.08 0.7,-0.17 1.06,-0.25c0.75,-0.16 1.53,-0.29 2.31,-0.38c2.98,-0.21 5.95,-0.1 8.92,-0.16c16.5,-0.33 26.48,-10.34 26.49,-26.88c0.06,-66.18 0.01,-132.37 0.03,-198.55c0.01,-15.39 -0.15,-30.77 0.1,-46.15c0,-0.3 0.01,-0.6 0.01,-0.89l0,-0.94c0.04,-7.95 -0.23,-15.91 0.1,-23.85c0.57,-13.86 -11.48,-26.78 -24.85,-25.45c-1.47,0.15 -2.97,0.07 -4.41,-0.34c-0.16,-0.05 -0.31,-0.1 -0.46,-0.15c-0.12,-0.05 -0.24,-0.11 -0.36,-0.18c-2.24,-1.17 -3.01,-3.46 -3.99,-5.6c-16.76,-36.28 -44.79,-57.8 -84.32,-63.23c-33.89,-4.65 -63.16,6.37 -87.88,29.47c-9.7,9.06 -17.01,20.15 -22.37,32.42c-0.97,2.23 -1.81,4.59 -3.98,5.88c-0.24,0.15 -0.51,0.28 -0.78,0.39c-0.1,0.05 -0.2,0.09 -0.3,0.13c-6.62,2.05 -13.42,1.27 -20.15,1.34c-6.04,0.08 -12.09,0.14 -18.14,-0.03c-0.29,0 -0.58,-0.01 -0.86,-0.02c-0.1,0 -0.2,-0.01 -0.3,-0.01c-21.26,0.24 -42.53,0.08 -63.79,0.1c-41.55,0.03 -83.1,0.43 -124.63,-0.2c-16.06,-0.25 -28.26,12.76 -27.09,27.28c0.59,7.29 0.28,14.66 0.07,22.01c-0.01,0.33 -0.02,0.64 -0.03,0.97c0,0.1 -0.01,0.2 -0.01,0.3c0.29,2.64 0.14,5.29 0.14,7.94c0.01,66.32 0.02,132.65 -0.01,198.97c0,2.87 0.46,5.81 -0.83,8.53l0,0.01c-0.08,0.18 -0.17,0.35 -0.28,0.53c-0.02,0.05 -0.05,0.1 -0.08,0.15c-5.42,2.44 -10.83,2.46 -16.26,0.02c5.27,-0.05 10.55,-0.11 15.81,-0.17c0.02,-72.1 0.03,-144.18 0.04,-216.28c-0.01,-8.93 -0.12,-17.85 -0.01,-26.77c0.17,-13.24 11.43,-24.83 24.59,-24.85c64.13,-0.09 128.26,-0.01 192.4,0.01c13.54,-0.5 27.12,0.62 40.65,-0.9c8.89,-21.68 22.57,-39.43 42.37,-52.22c56.14,-36.29 131.09,-13.4 157.46,48.12c0.71,1.66 1.56,3.26 2.34,4.89c8.15,-0.31 16.11,-0.1 22.67,5.98c5.3,4.92 8.73,10.73 8.92,18c0.22,9.29 0.02,18.54 0.02,27.78z" class="st0"/>
   <path id="svg_3" fill="#29AAE1" d="m144.63,493.51c-0.05,0.45 -0.12,0.89 -0.21,1.35c-47.54,0.05 -95.08,0.09 -142.61,0.13l0,-140c5.27,-0.05 10.55,-0.11 15.81,-0.17c0.26,-0.21 0.53,-0.39 0.8,-0.53l0,-0.01c1.47,-0.8 3.13,-0.84 4.78,-0.84c7.34,0.01 14.69,-0.18 22.02,0.09l0.22,0c0.28,-0.01 0.57,-0.02 0.84,-0.02c5.94,-0.13 11.89,-0.15 17.83,0.02l0.07,0c0.3,-0.01 0.6,-0.01 0.89,-0.02c10.74,-0.19 21.48,-0.05 32.21,-0.06c1.65,0 3.3,0.04 4.87,0.67c0.08,0.03 0.15,0.07 0.22,0.12c0.2,0.09 0.39,0.21 0.56,0.35c0.08,0.05 0.15,0.11 0.22,0.19c0.03,0.01 0.06,0.04 0.09,0.08c0.15,0.13 0.29,0.29 0.42,0.46c1.92,3.53 2.66,7.46 3.72,11.27c0.71,2.53 0.16,4.27 -1.64,5.08c-0.65,0.31 -1.48,0.49 -2.47,0.54c-1.82,0.09 -3.63,0.08 -5.45,0.08c-23.93,0 -47.87,-0.01 -71.8,0.01c-6.54,0 -6.97,0.45 -6.97,7.09c-0.01,30.43 -0.01,60.86 0,91.3c0,6.72 0.29,7 6.95,7c35,0.01 70.01,0.01 105,0.01c2.48,0 4.95,-0.1 7.42,0.14c0.35,0.05 0.68,0.14 1.01,0.25c0.02,0 0.04,0.01 0.05,0.02c0.01,0 0.02,0 0.03,0.01c0.04,0.01 0.08,0.02 0.12,0.04l0.01,0c0.17,0.07 0.33,0.14 0.49,0.22c0.15,0.24 0.3,0.48 0.45,0.7c0.02,0.03 0.04,0.06 0.05,0.08c2.73,4.41 4.6,9.06 4,14.35z" class="st1"/>
   <path id="svg_4" fill="#FB7A51" d="m484.74,137.72l0,0c-0.02,0.33 -0.04,0.64 -0.06,0.96c-0.06,0.77 -0.15,1.55 -0.36,2.3c-0.36,1.32 -0.7,2.65 -1.06,3.97c-0.37,1.37 -0.73,2.74 -1.11,4.1c-2.4,8.75 -5.09,17.39 -9.39,25.57c-9.72,18.47 -23.26,33.14 -41.23,43.7c-5.22,3.07 -6.38,2.72 -9.18,-2.65c-12.34,-23.74 -24.93,-47.35 -37.03,-71.22c-0.89,-1.77 -1.95,-3.44 -2.98,-5.14l-0.42,-0.74c-0.14,-0.27 -0.28,-0.53 -0.42,-0.79c-1.76,-3.4 -3.12,-7.02 -5.3,-10.19c-0.19,-0.28 -0.39,-0.55 -0.6,-0.81c-0.17,-0.24 -0.35,-0.46 -0.54,-0.68c-6.92,-3.62 -14.56,-5.15 -21.92,-7.45c-24.95,-7.86 -49.84,-15.88 -74.85,-23.53c-1.56,-0.47 -3.19,-0.86 -4.42,-1.98c-0.17,-0.15 -0.34,-0.32 -0.49,-0.5c-0.08,-0.08 -0.15,-0.18 -0.22,-0.27c-0.71,-2.16 -0.12,-3.89 1.17,-5.39c0.29,-0.32 0.6,-0.63 0.93,-0.93c8.89,-21.68 22.57,-39.43 42.37,-52.22c56.14,-36.29 131.09,-13.4 157.46,48.12c0.71,1.66 1.56,3.26 2.34,4.89c0.4,0.36 0.74,0.73 1.03,1.14c1.06,1.43 1.56,3.14 2.15,4.85c5.09,14.62 4.33,29.77 4.13,44.89z" class="st2"/>
   <path id="svg_5" fill="#E5E5E5" d="m332.87,411.07c-0.4,0.63 -1.2,1.04 -2.71,1.02c-21.38,-0.24 -42.76,0.34 -64.15,-0.3c-0.13,0 -0.25,-0.01 -0.38,-0.01c-0.08,0 -0.16,0 -0.24,-0.01l-0.1,0c-1.92,-2.24 -1.47,-4.98 -1.48,-7.58c-0.06,-13.71 0.01,-27.42 -0.05,-41.13c-0.03,-6.05 -0.44,-6.3 -6.49,-6.53c-3.72,-0.14 -7.62,0.9 -11.08,-1.41c-0.05,-0.09 -0.11,-0.17 -0.15,-0.26c-0.06,-0.09 -0.11,-0.19 -0.15,-0.28c-1.44,-2.74 -0.95,-5.74 -0.95,-8.65c-0.04,-50.44 -0.02,-100.88 -0.03,-151.31c0,-8.78 -0.01,-8.79 -8.66,-8.79l-181.68,0c-7.14,0.08 -7.53,0.41 -7.54,7.61c-0.03,50.77 0,101.54 -0.05,152.31c0,2.59 0.54,5.34 -0.68,7.76c-0.22,0.45 -0.5,0.88 -0.84,1.3c-9.1,0 -18.2,0.01 -27.3,0.01l-0.53,0c0.02,-72.1 0.03,-144.18 0.04,-216.28c0.48,-0.44 0.98,-0.74 1.51,-0.97c1.42,-0.62 3.01,-0.62 4.56,-0.62c74.69,-0.03 149.39,-0.08 224.08,0.02c0.33,0 0.65,0.07 0.98,0.11c0.09,0.01 0.19,0.01 0.28,0.01c0.38,0.03 0.76,0.04 1.14,0.04c5.89,0.13 11.86,-0.96 17.65,0.95c0.48,0.38 0.65,0.88 0.56,1.47l0,0.01c-0.01,0.01 -0.01,0.02 -0.01,0.03c-0.04,0.03 -0.08,0.05 -0.12,0.07c-0.03,0.02 -0.06,0.04 -0.09,0.06c-3.58,2.15 -7.55,1.03 -11.34,1.09c-3.73,0.06 -4.52,1.29 -3.44,4.81c9.08,29.48 17.52,59.14 26.87,88.53c0.99,3.11 1.88,6.16 1.17,9.3c-0.06,0.29 -0.14,0.59 -0.23,0.87c-0.05,0.15 -0.1,0.31 -0.17,0.47c-0.1,0.29 -0.22,0.58 -0.36,0.86c-0.19,44.69 -0.04,89.37 -0.05,134.04c-0.01,4.79 0.9,5.62 5.93,5.65c11.06,0.06 22.13,-0.03 33.2,0.04c1.86,0.01 3.24,0.1 4.34,0.38c2.42,0.63 3.32,2.22 4.46,6.19c1.52,5.25 3.18,10.46 4.33,15.79c0.24,1.2 0.47,2.47 -0.05,3.33z" class="st3"/>
   <path id="svg_6" fill="#EDEDED" d="m509.09,386.72c0,13.94 -11.3,25.44 -25.36,25.83c-4.45,0.13 -8.91,-0.01 -13.37,-0.03c-0.55,-0.24 -1.08,-0.49 -1.63,-0.73c-16.21,-7.29 -31.81,-15.85 -47.79,-23.61c-1.2,-0.58 -2.69,-1.36 -1.97,-2.38c0,-0.01 0.01,-0.01 0.02,-0.02c0.24,-0.34 0.71,-0.69 1.52,-1.09c9.23,-1.06 18.47,-0.32 27.71,-0.47c7.93,-0.13 15.85,-0.01 23.78,-0.04c6.46,-0.03 6.76,-0.29 6.77,-6.67c0.04,-23.99 0.02,-47.99 0.02,-71.98c0,-18.04 0.03,-36.07 -0.02,-54.11c-0.01,-6.65 -0.39,-7.01 -7.01,-7.02c-15.85,-0.03 -31.71,-0.04 -47.55,0.02c-0.39,0.01 -0.76,0 -1.12,-0.08c-0.09,-0.02 -0.18,-0.04 -0.26,-0.07c-0.32,-0.09 -0.63,-0.25 -0.91,-0.49c-0.11,-0.18 -0.2,-0.38 -0.26,-0.58c-0.03,-0.09 -0.06,-0.18 -0.07,-0.27c-0.11,-0.56 0.01,-1.09 0.5,-1.26c3.47,-1.22 3.43,-4.02 3.49,-6.82c0,-0.07 0,-0.14 0.01,-0.21l0,-0.18c1.18,-1.68 2.96,-2.62 4.64,-3.63c23.96,-14.38 39.77,-35.12 48.04,-61.77c2.03,-6.54 2.94,-13.28 3.89,-20.03c0.36,-2.54 0.72,-5.08 1.16,-7.61c0.04,-0.91 0.08,-1.84 0.12,-2.75c0.4,-0.42 0.83,-0.73 1.31,-0.97c0.8,-0.43 1.72,-0.62 2.67,-0.64c6.03,-0.19 12.07,-0.22 18.11,0.03c0.75,0.03 1.48,0.19 2.14,0.49c0.51,0.22 0.99,0.53 1.43,0.93c-0.02,82.75 0,165.48 -0.01,248.21z" class="st4"/>
   <path id="svg_7" fill="#B2B2B2" d="m250.22,137.14c-0.12,0.47 -0.35,0.94 -0.71,1.41l-231.85,0c-0.01,-8.93 -0.12,-17.85 -0.01,-26.77c0.17,-13.24 11.43,-24.83 24.59,-24.85c64.13,-0.09 128.26,-0.01 192.4,0.01c0.48,0.45 0.83,0.94 1.13,1.47c0.57,1.03 0.88,2.18 1.23,3.34c4.05,13.58 8.17,27.15 12.37,40.7c0.48,1.53 1.26,3.1 0.85,4.69z" class="st5"/>
   <path id="svg_8" fill="#6EC5EA" d="m265.73,412.25c-0.12,0.22 -0.23,0.34 -0.35,0.34c-0.05,25.59 -0.22,51.18 -0.04,76.78c0.03,4.57 -1.22,5.74 -5.73,5.72c-38.39,-0.23 -76.8,-0.19 -115.19,-0.24c-0.11,-0.45 -0.23,-0.9 -0.34,-1.35c-1.2,-4.78 -2.39,-9.56 -3.6,-14.35c0.03,-0.03 0.06,-0.06 0.09,-0.08c0.44,-0.42 0.89,-0.71 1.36,-0.92c1.89,-0.87 4.05,-0.42 6.05,-0.43c30.58,-0.05 61.16,-0.02 91.74,-0.05c2,-0.01 4.18,0.49 5.85,-0.98c0,0 0,-0.01 0.01,0c0.19,-0.17 0.38,-0.36 0.55,-0.58c0.96,-1.87 0.77,-3.88 0.77,-5.85c0.02,-30.26 0.02,-60.52 0.01,-90.78c-0.01,-6.72 -0.28,-6.99 -6.95,-7c-41.75,-0.02 -83.49,-0.01 -125.25,0c-2.2,0 -4.39,0.13 -6.57,0.51c-0.11,0.01 -0.22,0.03 -0.33,0.05c-0.24,0.04 -0.48,0.08 -0.7,0.11c-2.72,0.41 -5.46,0.31 -8.18,0.31c-23.61,0.01 -47.22,0 -70.84,0.01c-7.76,0.01 -7.84,0.08 -7.84,7.62c-0.02,29.29 -0.02,58.57 0,87.85c0,7.32 0.22,7.56 7.46,7.56c33.68,0.03 67.36,0.01 101.04,0.02c2.8,0 5.62,-0.14 8.4,0.24c0.59,0.09 1.15,0.29 1.67,0.56c0.05,0.02 0.09,0.05 0.13,0.07c0.17,0.1 0.31,0.2 0.41,0.33c0.1,0.1 0.18,0.21 0.23,0.33c0.02,0.04 0.04,0.08 0.04,0.12l0.01,0c0.08,0.24 0.09,0.51 0.03,0.81c-13.03,0.07 -26.06,0.18 -39.1,0.2c-26.07,0.03 -52.15,-0.06 -78.23,0.08c-3.61,0.02 -4.86,-0.92 -4.84,-4.71c0.13,-33.08 0.14,-66.15 -0.01,-99.23c-0.02,-3.97 1.54,-4.59 4.98,-4.57c26.4,0.11 52.81,0.07 79.22,0.06c5.6,0 5.57,-0.02 3.84,-5.45c-1.08,-3.43 -2.61,-6.77 -2.47,-10.49c0.03,-0.03 0.07,-0.06 0.1,-0.08c1.89,-1.6 4.22,-1.32 6.43,-1.33c5.71,-0.01 11.43,-0.15 17.13,0.08l0.07,0c0.27,0 0.55,-0.01 0.81,-0.01c12.55,-0.19 25.1,-0.2 37.65,-0.01c0.25,0 0.49,0 0.73,0.01l0.16,0c7.86,-0.17 15.7,-0.19 23.56,-0.01c0.12,0 0.25,0.01 0.37,0.01c0.27,0 0.54,-0.01 0.8,-0.01c12.29,-0.18 24.59,-0.19 36.89,0.01c0.26,0 0.52,0.01 0.77,0.01l0.08,0c5.75,0.31 11.67,-1.27 17.28,1.06c0.21,0.09 0.41,0.18 0.62,0.28c4.27,0.04 8.56,0.41 12.79,0.04c4.63,-0.41 6.19,0.91 6.1,5.85c-0.29,16.94 -0.05,33.88 -0.01,50.83c0.1,0.07 0.18,0.13 0.24,0.2c0.05,0.05 0.09,0.1 0.11,0.15c0.05,0.09 0.05,0.19 -0.01,0.3z" class="st6"/>
   <path id="svg_9" fill="#EDEDED" d="m407.17,412.11c-0.06,0.17 -0.15,0.33 -0.26,0.5c-47.17,-0.01 -94.35,-0.02 -141.52,-0.02l0,-0.43c0,-0.13 0,-0.26 0.01,-0.39l0,-0.19l1.11,0c20.43,0 40.85,-0.12 61.29,0.1c1.62,0.02 2.7,-0.17 3.34,-0.61c0.99,-0.67 0.96,-1.96 0.28,-4.12c-1.61,-5.01 -3.18,-10.05 -4.41,-15.16c-0.91,-3.79 -2.57,-5.28 -6.75,-5.16c-11.88,0.34 -23.77,-0.09 -35.66,0.23c-4.47,0.12 -5.48,-1.32 -5.47,-5.62c0.15,-45.81 0.1,-91.64 0.1,-137.46c0.41,-0.17 0.76,-0.18 1.06,-0.02c0.15,0.07 0.28,0.18 0.41,0.33c0.05,0.07 0.11,0.14 0.16,0.23c0.08,0.16 0.15,0.31 0.2,0.47c1.12,2.69 0.73,5.53 0.73,8.31c0.04,40.17 0.02,80.33 0.02,120.49c0,0.65 0,1.32 0.01,1.98c0.01,8.57 0.01,8.57 8.36,8.58c33.81,0.06 67.61,-0.1 101.41,0.07c0.21,-0.03 0.4,-0.04 0.59,-0.04c0,0 0,0 0.01,0c0.27,0 0.52,0.03 0.75,0.08c1.13,0.23 1.96,0.99 2.55,2.22c3.67,7.66 7.66,15.16 11.26,22.86c0.42,0.89 0.79,1.82 0.42,2.77z" class="st4"/>
   <path id="svg_10" fill="#CBCBCB" d="m475.57,460.32c-0.57,-0.11 -1.07,-0.31 -1.53,-0.58c-1.41,-0.78 -2.39,-2.12 -3.51,-3.24c-12.98,-12.96 -26.28,-25.62 -38.78,-39.02c-13.63,-14.62 -27.93,-28.58 -41.97,-42.79c-0.46,-0.46 -1.24,-0.91 -1.57,-1.47c-0.04,-0.06 -0.07,-0.13 -0.1,-0.19c-0.18,-0.48 0,-1.03 0.96,-1.73c1.72,-0.52 3.34,-0.05 4.75,0.79c5.21,3.1 10.89,3.27 16.72,3.23c18.12,-0.1 36.22,-0.05 54.34,-0.02c2.37,0.01 4.82,-0.32 7.02,0.97c0.06,0.02 0.13,0.06 0.19,0.1c0.07,0.07 0.13,0.15 0.18,0.22c0.55,0.72 0.11,1.29 -0.57,1.74c-1.15,0.75 -2.48,0.88 -3.8,0.89c-19.78,0.13 -39.55,0.05 -58.9,0.05c3.03,1.99 7.68,2.37 9.92,6.49c0.01,0.01 0.03,0.01 0.04,0.02c15.71,7.88 31.43,15.73 47.13,23.63c1.26,0.63 2.77,0.99 3.69,2.11c0.23,0.28 0.42,0.6 0.57,0.98c-5.8,2.28 -11.58,4.63 -17.42,6.83c-3.21,1.21 -3.68,2.43 -1,5.03c7.93,7.69 15.69,15.54 23.43,23.43c4.17,4.26 4.13,7.76 0.21,12.53z" class="st7"/>
   <path id="svg_11" fill="#808080" d="m475.57,460.32c-5.03,2.99 -7.76,2.78 -11.85,-1.26c-7.88,-7.79 -15.72,-15.6 -23.44,-23.54c-2.25,-2.31 -3.32,-2.52 -4.56,0.82c-2.21,5.96 -4.79,11.79 -7.58,18.55c-7.36,-14.65 -14.3,-28.47 -21.23,-42.28c-0.15,-0.3 -0.3,-0.61 -0.45,-0.9c-4.43,-8.98 -8.86,-17.95 -13.28,-26.93c-0.37,-0.17 -0.69,-0.36 -0.98,-0.59c-0.01,0 -0.01,0 -0.01,0c-1.9,-1.44 -2.28,-3.86 -3.27,-5.88c-0.05,-0.23 -0.12,-0.46 -0.2,-0.67c-0.1,-0.25 -0.2,-0.5 -0.32,-0.74c-0.55,-1.23 -1.16,-2.46 -0.28,-3.86c0.03,-0.07 0.08,-0.13 0.12,-0.19c1.47,0.07 2.33,1.11 3.26,2.04c27.56,27.81 55.13,55.61 82.68,83.42c0.25,0.26 0.46,0.55 0.64,0.85c0.27,0.39 0.49,0.78 0.75,1.16z" class="st8"/>
   <path id="svg_12" fill="#CACACA" d="m275.14,86.58c-0.51,1.81 -1.01,3.59 -1.52,5.4c0.14,0.39 0.23,0.76 0.27,1.14c0.21,1.58 -0.23,3.12 -0.58,4.65c-2.77,12.2 -4.65,24.47 -2.85,37.02c0.21,1.47 0.18,2.95 -0.59,4.31c-0.17,0.27 -0.38,0.44 -0.61,0.51c-0.02,0.02 -0.04,0.03 -0.07,0.03c-0.23,0.07 -0.5,0.05 -0.78,-0.07c-0.01,0 -0.02,-0.01 -0.03,-0.01c-6.2,-2.17 -12.61,-0.43 -18.89,-1.01c-0.14,-0.49 -0.29,-0.96 -0.43,-1.45c-2.67,-9.13 -5.33,-18.27 -8.03,-27.4c-2.09,-7.09 -4.71,-14.03 -6.14,-21.31c-0.1,-0.49 -0.19,-0.96 -0.27,-1.45c13.54,-0.5 27.12,0.62 40.65,-0.9c-0.03,0.17 -0.08,0.36 -0.13,0.54z" class="st9"/>
   <path id="svg_13" fill="#CACACA" d="m509.08,138.52c-0.48,0 -0.95,0.01 -1.43,0.01c-7.66,0.04 -15.32,0.1 -22.98,0.15c-0.42,0 -0.83,0.01 -1.25,0.01c-0.13,-12.43 1.07,-24.94 -2.06,-37.2c-1.19,-4.63 -2.45,-9.24 -3.69,-13.86c-0.07,-0.27 -0.15,-0.55 -0.22,-0.81c8.15,-0.31 16.11,-0.1 22.67,5.98c5.3,4.92 8.73,10.73 8.92,18c0.24,9.23 0.04,18.48 0.04,27.72z" class="st9"/>
   <path id="svg_14" fill="#FEFEFE" d="m189.71,354.87c-7.91,-0.02 -15.82,-0.03 -23.73,-0.05c-1.8,-2.5 -1.27,-5.4 -1.27,-8.16c-0.04,-30.4 -0.02,-60.79 -0.03,-91.19c0,-1.65 -0.03,-3.3 -0.06,-4.95c-0.05,-2.56 -1.13,-4.04 -3.84,-4.07c-9.56,-0.1 -19.12,-0.13 -28.68,0.02c-2.37,0.04 -3.64,1.2 -3.76,3.62c-0.09,1.82 -0.1,3.63 -0.1,5.45c0,30.4 0.02,60.79 -0.03,91.19c0,2.75 0.56,5.67 -1.42,8.1c-7.91,0.01 -15.82,0.02 -23.73,0.03c0,0 -0.12,0.09 -0.12,0.09c-2,-2.19 -1.64,-4.93 -1.64,-7.53c-0.04,-19.81 -0.01,-39.62 -0.02,-59.43c0,-8.84 -0.01,-8.84 -8.58,-8.85c-6.59,0 -13.18,-0.02 -19.77,0.01c-6.87,0.03 -7.1,0.24 -7.11,7.33c-0.03,20.14 0.01,40.28 -0.03,60.42c-0.01,2.75 0.49,5.68 -1.67,8.01c-6.22,-0.03 -12.45,-0.07 -18.67,-0.1c-0.01,-54.93 0.03,-109.85 -0.12,-164.77c-0.01,-4.68 1.53,-5.88 6.01,-5.87c63.4,0.12 126.79,0.11 190.19,0.01c3.77,-0.01 5.12,0.85 5.11,4.93c-0.15,55.26 -0.12,110.51 -0.13,165.77c-5.97,-0.01 -11.93,-0.02 -17.9,-0.03c-2.05,-2.4 -1.49,-5.33 -1.49,-8.08c-0.04,-41.85 -0.03,-83.69 -0.03,-125.54c0,-1.16 0.01,-2.32 0,-3.47c-0.07,-6.73 -0.36,-7.05 -6.93,-7.08c-7.43,-0.04 -14.86,-0.06 -22.28,0.01c-5.64,0.05 -6.17,0.55 -6.19,6.33c-0.07,19.52 -0.02,39.03 -0.03,58.55c0,23.82 0.03,47.63 -0.04,71.45c0,2.71 0.65,5.7 -1.91,7.85z" class="st0"/>
   <path id="svg_15" fill="#2BDFC5" d="m64.12,354.91c0.03,-24.26 0.14,-48.53 -0.01,-72.79c-0.02,-3.89 1.02,-5.05 4.93,-4.95c10.04,0.27 20.09,0.19 30.14,0.03c3.05,-0.05 3.93,0.96 3.91,3.96c-0.13,24.59 -0.12,49.18 -0.15,73.78c-12.94,-0.01 -25.88,-0.02 -38.82,-0.03z" class="st10"/>
   <path id="svg_16" fill="#F1F1F1" d="m139.67,478.97c-0.08,-0.27 -0.15,-0.54 -0.21,-0.81c1.82,-1.89 4.23,-1.63 6.49,-1.64c31.93,-0.05 63.86,-0.05 95.79,0c2.26,0 4.67,-0.27 6.52,1.58c-1.63,1.74 -3.73,0.84 -5.58,0.85c-34.06,0.12 -68.13,0.16 -102.19,0.21c-0.26,-0.12 -0.53,-0.18 -0.82,-0.19z" class="st11"/>
   <path id="svg_17" fill="#F8DD58" d="m269.27,139.54c-1.83,-14.65 -0.89,-29.11 3,-43.37c0.39,-1.42 0.9,-2.8 1.36,-4.2c22.81,7.24 45.62,14.5 68.44,21.72c9.38,2.97 18.79,5.84 28.15,8.85c2.13,0.68 4.61,0.72 6.11,2.81c0.15,4.94 -2.52,9.15 -3.54,13.78c-5.8,19.3 -11.98,38.49 -17.97,57.73c-2.65,8.52 -5.17,17.08 -8.09,25.51c-2.04,5.88 -2.68,6.43 -8.53,4.19c-31.4,-12.05 -52.89,-33.96 -64.56,-65.54c-1.89,-5.11 -3.55,-10.32 -4.36,-15.73c-0.29,-1.88 -1.3,-3.84 -0.01,-5.75z" class="st12"/>
   <path id="svg_18" fill="#CDCDCD" d="m269.27,139.54c2.79,14.87 7.4,29.06 15.54,41.93c13.24,20.94 31.46,35.69 54.64,44.35c3.18,1.19 4.66,1.06 5.83,-2.77c8.65,-28.21 17.59,-56.33 26.44,-84.47c3.84,-2.25 7.67,-2.08 11.51,-0.01c4.67,8.73 9.39,17.43 13.98,26.2c8.96,17.11 17.9,34.23 26.68,51.44c1.53,3 2.72,3.7 5.83,1.85c27.53,-16.47 44.8,-40.29 51.74,-71.66c0.38,-1.71 0.31,-3.65 1.84,-4.95c0.1,26.78 -9.71,49.62 -27.12,69.62c-8.66,9.95 -18.99,17.57 -30.46,23.81c-2.33,-0.09 -2.75,-2.14 -3.55,-3.65c-12.23,-23.03 -24.31,-46.15 -36.13,-69.4c-2.38,-4.69 -5.22,-9.12 -7.82,-14.42c-3.93,12.76 -7.73,24.84 -11.5,36.94c-5.7,18.29 -11.57,36.52 -17.11,54.85c-0.47,1.56 -0.91,3.22 -2.54,4.09c-0.49,0.17 -1,0.23 -1.51,0.2c-13.71,-3.32 -25.78,-10 -36.76,-18.64c-22.11,-17.39 -35.27,-40.27 -40.05,-67.88c-0.98,-5.66 -3.35,-11.55 -0.48,-17.42c0,0 0.11,0.02 0.11,0.02c0.3,-0.02 0.59,-0.03 0.89,-0.03z" class="st13"/>
   <path id="svg_19" fill="#B3B2B0" d="m383.23,138.56c-3.84,0 -7.68,0.01 -11.51,0.01c1.46,-4.43 2.35,-9.06 4.6,-13.21c2.79,4.14 4.81,8.7 6.91,13.2z" class="st14"/>
   <path id="svg_20" fill="#EDEDED" d="m268.28,139.54c0.91,30.34 11.63,56.51 33.56,77.62c12.12,11.67 26.25,20.24 42.61,24.8c0.44,0.12 0.78,0.56 1.17,0.85c-1.54,1.59 -3.57,1.54 -5.52,1.56c-19.03,0.2 -38.07,-0.22 -57.1,0.23c-1,0.02 -1.96,-0.17 -2.78,-0.8c-0.33,0 -0.66,0 -0.98,0c2.82,-1.96 1.18,-4.48 0.56,-6.6c-2.76,-9.46 -5.78,-18.85 -8.64,-28.29c-6.63,-21.85 -13.17,-43.73 -19.9,-65.54c-0.92,-2.98 -0.3,-3.91 2.7,-3.84c4.77,0.09 9.54,0.01 14.32,0.01z" class="st4"/>
   <path id="svg_21" fill="#989898" d="m111.38,172.36c-19.79,0 -39.57,-0.09 -59.36,0.08c-3.69,0.03 -4.75,-0.99 -4.74,-4.72c0.05,-13.26 -0.09,-13.26 12.93,-13.26c36.93,0 73.87,0.06 110.8,-0.09c4.09,-0.02 5.31,1.05 5.25,5.21c-0.19,12.77 -0.02,12.78 -12.95,12.78c-17.3,0 -34.61,0 -51.93,0z" class="st15"/>
   <path id="svg_22" fill="#FEFEFE" d="m280.22,243.79c2.68,-0.84 5.43,-1.02 8.24,-1.01c19.05,0.05 38.11,0.02 57.16,0.02c0.36,0.01 0.72,0.01 1.08,0.02c0.18,2.57 2.29,3.93 3.62,5.78c0.22,2.64 -0.03,5.1 -2.31,6.89c-2.37,1 -4.87,0.79 -7.33,0.79c-14.36,0.02 -28.72,-0.01 -43.08,0.02c-6.64,0.02 -6.84,0.27 -6.88,7.06c0,0.01 0,0.17 0,0.5c0,7.96 0.13,8.14 7.91,8.14c46.38,0.01 92.77,0.01 139.15,0c8.21,0 8.32,-0.13 8.32,-8.26c0,-1.98 0.14,-3.97 -0.42,-5.9c-0.87,-1.85 -2.55,-1.77 -4.2,-1.77c-2.78,0 -5.55,0.04 -8.33,-0.02c-6.84,-0.13 -11.03,-5.12 -10.29,-12.23c1.29,-1.51 3.05,-0.99 4.64,-0.99c16.02,-0.03 32.03,0.12 48.04,-0.12c4.11,-0.06 4.92,1.4 4.91,5.15c-0.11,44.34 -0.12,88.68 0.02,133.02c0.01,4.01 -1.23,5.02 -5.07,4.98c-18.82,-0.18 -37.64,-0.08 -56.47,-0.08c-4.97,-2.42 -9.93,-4.84 -14.9,-7.26c0.04,-0.24 0.08,-0.48 0.13,-0.73c5.34,0 10.68,0 16.03,0c15.66,0 31.31,0.03 46.97,-0.04c1.72,-0.01 3.65,0.74 5.13,-0.88c-2.17,-3.13 -1.26,-6.71 -1.39,-10.12c-0.22,-5.69 -0.53,-6.14 -6.33,-6.19c-9.57,-0.07 -19.13,-0.01 -28.7,-0.02c-45.52,-0.04 -91.04,0.12 -136.56,-0.17c-8.76,-0.06 -8.81,0.03 -8.75,8.85c0.01,1.8 -0.29,3.65 0.6,5.34c0.38,0.44 0.78,0.86 1.25,1.2c2.03,1.07 4.22,0.64 6.33,0.64c27.67,-0.06 55.34,-0.26 83.01,-0.16c2.79,0.01 5.63,-0.23 8.15,1.39c1.09,2.38 2.19,4.76 3.28,7.15c-1.46,1.63 -3.4,0.97 -5.13,0.97c-34.16,0.04 -68.33,-0.06 -102.49,0.13c-4.53,0.03 -5.43,-1.42 -5.42,-5.65c0.13,-45.48 0.08,-90.96 0.08,-136.44z" class="st0"/>
   <path id="svg_23" fill="#29AAE1" d="m349.54,248.05c-3.76,-0.21 -3.34,-2.7 -2.84,-5.23c5.24,-16.31 10.52,-32.61 15.7,-48.95c5.13,-16.2 10.16,-32.43 15.54,-49.64c2.99,5.55 5.66,10.36 8.21,15.24c12.67,24.31 25.31,48.64 37.97,72.96c0.45,0.86 1.07,1.63 1.61,2.45c3.71,5.06 -0.67,6.2 -3.82,7.94c-0.8,1.34 -2.06,2.1 -3.45,2.66c-21.06,8.51 -42.67,9.98 -64.77,5.02c-1.65,-0.37 -3.09,-1.09 -4.15,-2.45z" class="st1"/>
   <path id="svg_24" fill="#DADADA" d="m349.54,248.05c24.73,6.7 48.82,4.43 72.37,-5.23c0.31,0.34 0.63,0.67 0.94,1.01c1.13,2.56 2.36,5.07 3.38,7.68c1,2.56 2.77,3.34 5.41,3.22c3.95,-0.18 7.92,-0.09 11.88,-0.02c1.41,0.02 3.04,-0.54 4.04,1.08c-6.83,3 -13.94,1.44 -20.91,1.01c-2.76,-0.17 -5.53,-0.68 -8.34,-0.68c-20.96,0 -41.91,0.03 -62.87,-0.03c-2.39,-0.01 -5.02,0.65 -6.98,-1.52c0.37,-2.18 0.72,-4.35 1.08,-6.52z" class="st16"/>
   <path id="svg_25" fill="#F8DD58" d="m96.66,96.76c9.05,0.03 16.05,6.93 16.11,15.87c0.06,9.15 -7.05,16.14 -16.37,16.11c-8.94,-0.03 -16.14,-7.07 -16.24,-15.87c-0.09,-8.93 7.29,-16.14 16.5,-16.11z" class="st12"/>
   <path id="svg_26" fill="#FB7A51" d="m69.27,112.82c-0.02,9.48 -6.67,15.99 -16.3,15.94c-9.21,-0.05 -15.67,-6.65 -15.65,-15.98c0.02,-9.62 6.56,-16.1 16.17,-16.03c8.99,0.05 15.8,6.99 15.78,16.07z" class="st2"/>
   <path id="svg_27" fill="#F5F5F5" d="m248.26,478.1c-36.27,0.02 -72.53,0.04 -108.8,0.06c0,0 0.03,0.01 0.03,0.01c-3.31,-3.75 -3.26,-8.8 -5.01,-13.16c-2.08,-5.17 -3.54,-10.54 -4.66,-16c-0.05,-0.5 -0.02,-0.99 0.08,-1.48c5.33,-11.38 12,-22.04 17.99,-33.07c2.19,-4.04 3.84,-3.96 6.28,0c6.23,10.14 12.63,20.17 18.85,30.31c3.02,4.92 3.33,4.81 6.16,-0.15c9.83,-17.22 19.28,-34.66 29.15,-51.85c0.74,-1.29 1.39,-2.64 2.14,-3.92c1.4,-2.39 0.78,-3.96 -1.64,-5.18c-2.54,-1.28 -3.53,0.23 -4.6,2.12c-6.12,10.78 -12.02,21.68 -18.15,32.45c-2.29,4.02 -4.34,8.19 -6.79,12.1c-2.77,4.42 -4.22,4.38 -6.99,0.05c-6.34,-9.87 -12.4,-19.92 -18.68,-29.83c-3.15,-4.97 -3.46,-5.05 -6.33,0.34c-5.36,10.07 -10.94,20 -16.53,29.94c-0.95,1.68 -1.55,3.76 -3.92,4.1c-2.3,-0.44 -2.44,-2.45 -2.93,-4.13c-5.36,-18.17 -11.05,-36.24 -16.3,-54.45c-0.47,-1.62 -0.99,-3.17 0.14,-4.71c1.31,-1.02 2.85,-0.65 4.3,-0.65c43.88,-0.02 87.77,0 131.65,-0.05c2.9,0 4.93,-0.05 4.91,4c-0.15,33.89 -0.1,67.78 -0.12,101.67c-0.02,0.5 -0.15,0.99 -0.23,1.48z" class="st17"/>
   <path id="svg_28" fill="#F1F1F1" d="m130.62,448.34c2.96,9.94 5.92,19.88 8.88,29.82c-38.92,0.02 -77.84,0.02 -116.77,0.12c-3.16,0.01 -4.3,-0.87 -4.29,-4.18c0.1,-32.72 0.14,-65.45 -0.03,-98.17c-0.02,-4.32 2.16,-4.26 5.22,-4.26c28.04,0.04 56.07,-0.01 84.11,-0.03c3.16,10.65 6.35,21.3 9.48,31.97c2.86,9.73 5.68,19.48 8.48,29.23c0.27,0.93 0.81,1.36 1.67,1.54c0.91,0.84 0.39,1.73 0.11,2.62c-2.67,4.55 -4.97,9.32 -7.73,13.82c-2.28,3.72 -3.4,3.89 -6.24,0.68c-4.58,-5.19 -9.7,-9.88 -14.09,-15.27c-2.97,-3.65 -4.11,-3.45 -6.77,0.35c-2.94,4.19 -6.04,8.26 -9.11,12.36c-1.44,1.92 -1.6,3.46 0.48,5.04c2.16,1.64 3.61,0.79 4.96,-1.05c1.37,-1.86 2.79,-3.68 4.17,-5.54c2.04,-2.75 4.06,-2.74 6.58,-0.47c5.42,4.88 9.66,10.83 14.86,15.9c3.9,3.79 4.46,3.75 6.99,-1.1c2.21,-4.25 4.65,-8.36 7.02,-12.52c0.4,-0.66 1.03,-1.26 2.02,-0.86z" class="st11"/>
   <path id="svg_29" fill="#FB7A51" d="m189.71,354.87c0.01,-46.78 0.08,-93.56 -0.08,-140.34c-0.01,-4.51 1.11,-5.93 5.71,-5.75c9.39,0.37 18.81,0.32 28.2,0.01c4.15,-0.14 5.2,1.09 5.19,5.22c-0.15,46.94 -0.1,93.89 -0.11,140.83c-12.97,0.01 -25.94,0.02 -38.91,0.03z" class="st2"/>
   <path id="svg_30" fill="#F8DD58" d="m126.79,354.83c-0.01,-35.22 0.01,-70.43 -0.1,-105.65c-0.01,-3.36 0.78,-4.64 4.37,-4.56c10.22,0.22 20.46,0.16 30.69,0.03c3.02,-0.04 4.42,0.55 4.4,4.03c-0.14,35.38 -0.13,70.76 -0.15,106.14c-13.08,0 -26.15,0.01 -39.21,0.01z" class="st12"/>
   <path id="svg_31" fill="#6EC5EA" d="m389.89,377.64c-31.36,0 -62.73,0.02 -94.09,-0.02c-1.93,0 -3.97,0.59 -5.77,-0.68c1.7,-1.71 3.9,-1.53 6.02,-1.55c6.24,-0.06 12.48,0.06 18.71,-0.05c4.73,-0.08 5.05,-0.6 3.89,-5.31c-0.36,-1.44 -0.82,-2.84 -1.22,-4.27c-0.84,-2.91 -2.65,-4.34 -5.74,-4.33c-5.25,0.02 -10.51,0.04 -15.76,-0.01c-3.19,-0.04 -4.21,1.54 -4.37,4.55c-0.2,3.68 1.12,7.62 -1.52,10.97c-2.02,-5.24 -0.54,-10.67 -0.88,-16c-0.09,-1.44 0.99,-1.94 2.31,-1.94c1.15,0 2.31,-0.03 3.46,-0.03c57.24,0.01 114.49,0.09 171.73,-0.08c4.92,-0.01 6.35,1.41 5.85,6.1c-0.42,3.93 -0.18,7.92 -0.24,11.89c-22.74,0.01 -45.48,-0.05 -68.21,0.11c-4.09,0.03 -7.17,-2.08 -10.64,-3.49c-1.61,-0.65 -3.17,-2.93 -5.2,-0.66c-0.17,1.86 1.29,3.14 1.67,4.8z" class="st6"/>
   <path id="svg_32" fill="#B9B9B9" d="m348.47,254.56c20.57,0.05 41.14,-0.02 61.7,0.19c12.47,0.13 24.93,0.67 37.4,1.03c0.03,4.46 -0.15,8.94 0.15,13.38c0.24,3.63 -1.26,4.4 -4.58,4.4c-49.82,-0.08 -99.65,-0.09 -149.47,0c-3.36,0.01 -4.86,-0.85 -4.59,-4.42c0.25,-3.29 0.26,-6.62 0.01,-9.91c-0.26,-3.46 0.98,-4.55 4.46,-4.52c16.33,0.16 32.67,0.08 49,0.06c1.97,0.01 3.95,-0.13 5.92,-0.21z" class="st18"/>
   <path id="svg_33" fill="#FAE88E" d="m335.25,308.25c-13.69,0 -27.37,-0.09 -41.06,0.06c-3.6,0.04 -5.25,-0.56 -5.22,-4.82c0.12,-13.99 -0.07,-13.99 13.78,-13.99c24.4,0 48.81,0.12 73.21,-0.11c4.48,-0.04 5.87,1.29 5.4,5.58c-0.33,2.94 -0.28,5.96 -0.01,8.91c0.33,3.61 -1.22,4.44 -4.56,4.4c-13.85,-0.15 -27.7,-0.06 -41.55,-0.06c0.01,0.02 0.01,0.03 0.01,0.03z" class="st19"/>
   <path id="svg_34" fill="#FB7A52" d="m311.81,341.12c0.08,0.3 0.04,0.58 -0.11,0.85c-6.64,1.35 -13.34,0.27 -20.01,0.57c-1.43,0.07 -2.03,-0.76 -2.03,-2.14c-0.01,-4.44 0.02,-8.88 -0.01,-13.32c-0.02,-2.09 1.21,-2.38 2.87,-2.36c3.12,0.03 6.23,0.01 9.35,0.01c5.87,0 6.51,0.49 8.07,6.24c0.89,3.33 0.96,6.82 1.87,10.15z" class="st20"/>
   <path id="svg_35" fill="#FCA589" d="m311.81,341.12c-2.27,-3.91 -2.8,-8.4 -4.16,-12.61c-0.77,-2.38 -1.92,-3.73 -4.56,-3.29c-0.16,0.03 -0.33,0.01 -0.49,0c-12.94,-0.25 -12.81,-0.25 -12.6,12.72c0.06,3.37 1.25,4.24 4.36,4.13c5.77,-0.21 11.56,-0.09 17.34,-0.1c-6.88,2.13 -13.92,0.54 -20.87,0.84c-1.15,0.05 -1.66,-0.9 -1.7,-2.02c-0.02,-0.5 -0.02,-0.99 -0.04,-1.49c-0.77,-15.13 -0.77,-15.13 14.6,-15.05c8.31,0.04 8.33,0.04 8.31,8.45c-0.02,2.8 -0.13,5.61 -0.19,8.42z" class="st21"/>
   <path id="svg_36" fill="#FCA489" d="m126.7,436.46c0.22,-0.68 0.44,-1.37 0.67,-2.05c7.53,-13.5 15.05,-27 23,-41.26c4.5,7.11 8.62,13.57 12.68,20.07c4.1,6.56 8.13,13.16 12.44,20.16c4.05,-4.36 5.98,-9.62 8.7,-14.33c6.68,-11.57 13.22,-23.22 19.53,-34.99c1.61,-3 2.96,-3.28 5.55,-1.53c2.21,1.49 5.14,1.92 2.8,6.02c-11.36,19.91 -22.48,39.96 -33.55,60.03c-1.74,3.16 -2.74,2.97 -4.5,0.11c-7.51,-12.21 -15.13,-24.34 -23.05,-37.06c-6.92,12.17 -13.62,23.95 -20.33,35.74c-3.89,-2.7 -3.3,-7.03 -3.94,-10.91z" class="st22"/>
   <path id="svg_37" fill="#FB7A51" d="m126.7,436.46c2.32,3.27 1.98,7.51 3.95,10.91c-0.05,0.32 -0.06,0.65 -0.03,0.98c-3.35,5.87 -6.78,11.69 -10.01,17.63c-1.35,2.48 -2.39,2.57 -4.26,0.5c-5.76,-6.38 -11.75,-12.54 -17.45,-18.96c-2.05,-2.31 -3.22,-2.06 -4.71,0.37c-1.11,1.83 -2.49,3.49 -3.77,5.22c-3.64,4.94 -3.73,4.85 -8.55,0.92c-1.72,-1.4 -1.79,-2.38 -0.57,-4.01c4.16,-5.55 8.32,-11.11 12.34,-16.76c1.69,-2.38 2.88,-1.88 4.55,-0.02c5.41,6.02 11.04,11.85 16.37,17.94c1.95,2.23 2.8,1.98 4.1,-0.48c2.55,-4.83 5.35,-9.51 8.04,-14.24z" class="st2"/>
   <path id="svg_38" fill="#9A9A9A" d="m44.75,418.74c3.13,0 6.28,0.18 9.4,-0.05c3.7,-0.26 5.74,0.79 5.13,4.93c-0.19,1.29 -0.11,2.65 -0.02,3.96c0.18,2.48 -0.83,3.66 -3.39,3.65c-7.58,-0.05 -15.17,-0.06 -22.76,0.01c-2.6,0.02 -3.55,-1.22 -3.41,-3.66c0.07,-1.15 0.13,-2.33 -0.01,-3.47c-0.5,-3.98 0.89,-5.84 5.17,-5.44c3.27,0.31 6.59,0.07 9.89,0.07z" class="st23"/>
   <path id="svg_39" fill="#999999" d="m44.19,401.66c-2.96,0 -5.96,-0.3 -8.88,0.07c-4.64,0.58 -5.94,-1.24 -5.68,-5.74c0.36,-6.24 0.08,-6.26 6.55,-6.26c6.42,0 12.84,0.15 19.25,-0.06c3.11,-0.1 3.93,1.05 3.86,4c-0.24,9.8 0.82,7.77 -7.7,7.99c-2.46,0.05 -4.93,0 -7.4,0z" class="st24"/>
   <path id="svg_40" fill="#999999" d="m44.85,448.31c2.96,0 5.96,0.31 8.87,-0.07c4.73,-0.62 5.85,1.38 5.61,5.77c-0.34,6.21 -0.08,6.23 -6.53,6.23c-6.25,0 -12.51,-0.19 -18.75,0.07c-3.56,0.15 -4.82,-1.16 -4.32,-4.53c0.02,-0.16 0,-0.33 0,-0.49c0.08,-8.03 -0.71,-6.88 6.73,-6.97c2.8,-0.03 5.59,-0.01 8.39,-0.01z" class="st24"/>
   <path id="svg_41" fill="#2AABE1" d="m290.03,376.94c0.01,-4.29 0.15,-8.58 0,-12.87c-0.09,-2.81 0.58,-4.26 3.8,-4.17c6.58,0.19 13.17,0.13 19.76,0.02c2.53,-0.04 3.96,0.78 4.57,3.37c0.71,3.04 1.55,6.07 2.73,8.95c1.42,3.49 0.64,4.63 -3.2,4.57c-9.22,-0.15 -18.44,0.06 -27.66,0.13c0,0 0,0 0,0z" class="st25"/>
   <path id="svg_42" fill="#A3A3A3" d="m423.73,255.71c-8.93,5 -18.37,8.32 -28.26,9.78c-15.41,2.26 -30.78,1.92 -45.86,-2.64c-1.61,-0.49 -4.06,-0.04 -3.53,-2.91c0.44,-2.34 1.24,-4.33 4.4,-4.27c8.08,0.15 16.17,0.05 24.25,0.05c16.35,-0.02 32.67,-0.01 49,-0.01z" class="st26"/>
   <path id="svg_43" fill="#F8DD59" d="m290.1,298.82c0,-1.64 -0.02,-3.29 0.01,-4.93c0.03,-1.46 -0.21,-3.12 1.93,-3.33c1.83,-0.18 3.76,-0.34 4.49,1.92c1.35,4.2 2.59,8.45 3.89,12.67c0.19,0.64 0.44,1.54 -0.24,1.73c-2.87,0.82 -5.89,0.75 -8.73,0.12c-2.13,-0.47 -1.18,-2.73 -1.33,-4.24c-0.12,-1.3 -0.02,-2.63 -0.02,-3.94z" class="st27"/>
  </g>
 </g>
</svg>