<svg width="512" height="512" xmlns="http://www.w3.org/2000/svg" xml:space="preserve" version="1.1">

 <g>
  <title>Layer 1</title>
  <g id="svg_1">
   <path id="svg_2" fill="#FEFEFE" d="m511.92,48.52c-0.1,0.73 -0.01,1.48 -0.01,2.21c0,141.34 0.01,282.68 -0.02,424.01c-0.01,16 -6.9,27.82 -21.89,34.37c-4.25,1.86 -8.67,2.85 -13.33,2.69c-2.02,0.03 -4.05,0.09 -6.07,0.09c-144.3,0 -288.61,0.01 -432.91,0c-22.69,0 -37.61,-14.85 -37.61,-37.45l0,-467.07c0,-7.26 0.01,-7.26 7.02,-7.26c119.48,0 238.98,-0.01 358.46,0.03c2.11,0 4.45,-0.83 6.3,0.99c5.52,5.52 11.02,11.05 16.54,16.57c26.72,0.02 53.43,0.01 80.15,0.06c9.11,0.02 7.99,-1.02 8.06,8.33c0.04,6.04 0.01,12.07 0.01,18.11c10.3,0.01 20.59,0.12 30.88,-0.03c3.28,-0.05 4.88,0.91 4.42,4.35z" class="st0"/>
   <path id="svg_3" fill="#E4E3D0" d="m476.67,511.8c-2.02,0.03 -4.05,0.09 -6.07,0.09c-144.3,0 -288.61,0.01 -432.91,0c-22.69,0 -37.61,-14.85 -37.61,-37.45l0,-467.07c0,-7.26 0.01,-7.26 7.02,-7.26c119.48,0 238.98,-0.01 358.46,0.03c2.11,0 4.45,-0.83 6.3,0.99c0.44,2.35 0.42,4.73 0.42,7.13c-0.01,29.56 -0.02,59.12 0,88.69c0,7.27 0.2,7.48 7.36,7.48c29.01,0.02 58.03,0.01 87.04,-0.02c1.39,0 2.91,0.52 4.25,-0.62c-0.63,-2.06 -2.45,-3.12 -3.82,-4.49c-24.77,-24.83 -49.6,-49.6 -74.35,-74.46c-1.96,-1.98 -4.87,-3.56 -4.36,-7.13c26.72,0.02 53.43,0.01 80.15,0.06c9.11,0.02 7.99,-1.02 8.06,8.33c0.04,6.04 0.01,12.07 0.01,18.11c1.46,1.61 1.68,3.62 1.75,5.66c0.07,1.66 0.06,3.31 0.06,4.95c0,148.79 0,297.57 -0.03,446.37c-0.02,3.58 0.85,7.4 -1.73,10.61z" class="st1"/>
   <path id="svg_4" fill="#D2D0B5" d="m511.92,48.52c-0.1,0.73 -0.01,1.48 -0.01,2.21c0,141.34 0.01,282.68 -0.02,424.01c-0.01,16 -6.9,27.82 -21.89,34.37c-4.25,1.86 -8.67,2.85 -13.33,2.69c-0.02,-98.71 -0.04,-197.4 -0.06,-296.11c-0.01,-57.16 0,-114.33 0,-171.49c10.3,0.01 20.59,0.12 30.88,-0.03c3.29,-0.05 4.89,0.91 4.43,4.35z" class="st2"/>
   <path id="svg_5" fill="#C5C2A6" d="m475.02,104.2c-1.02,2.56 -2.52,1.75 -3.61,1.75c-31.76,0.04 -63.53,-0.01 -95.28,0.11c-3.84,0.01 -5.54,-0.65 -5.51,-5.06c0.18,-31.76 0.09,-63.52 0.11,-95.29c0,-1.59 -0.46,-3.35 1.13,-4.58c5.52,5.52 11.02,11.05 16.54,16.57c1.31,1.51 2.54,3.12 3.95,4.54c26.08,26.11 52.17,52.21 78.29,78.27c1.43,1.43 3.08,2.61 4.38,3.69z" class="st3"/>
   <path id="svg_6" fill="#F8BA4B" d="m132.16,291.3c-30.32,0 -60.63,-0.09 -90.95,0.09c-4.39,0.03 -5.98,-0.86 -5.95,-5.66c0.22,-31.6 0.18,-63.2 0.03,-94.8c-0.02,-4.15 0.84,-5.65 5.4,-5.64c61.18,0.16 122.37,0.16 183.55,0c4.6,-0.01 5.38,1.57 5.36,5.67c-0.14,31.6 -0.19,63.2 0.04,94.8c0.03,4.84 -1.63,5.65 -5.98,5.62c-30.5,-0.16 -61,-0.08 -91.5,-0.08z" class="st4"/>
   <path id="svg_7" fill="#2D75BA" d="m238.95,432.48c65.42,0 130.84,0.07 196.26,-0.13c5.19,-0.02 6.44,1.49 6.22,6.39c-0.39,8.43 -0.22,16.9 -0.05,25.35c0.06,2.93 -0.93,4.05 -3.79,3.69c-0.9,-0.11 -1.84,-0.02 -2.75,-0.02c-131.02,0 -262.04,-0.04 -393.07,0.14c-5.46,0.01 -6.82,-1.46 -6.5,-6.68c0.47,-7.69 0.41,-15.44 0.01,-23.14c-0.24,-4.64 1.22,-5.73 5.77,-5.72c54.58,0.16 109.15,0.11 163.73,0.11c11.38,0.01 22.77,0.01 34.17,0.01z" class="st5"/>
   <path id="svg_8" fill="#F8BA4B" d="m379.28,397.19c-18.73,0 -37.47,-0.1 -56.2,0.08c-3.89,0.04 -5.47,-0.69 -5.41,-5.06c0.24,-20.2 0.24,-40.4 0,-60.6c-0.05,-4.34 1.46,-5.1 5.39,-5.09c37.65,0.13 75.3,0.13 112.96,0c3.89,-0.01 5.46,0.68 5.41,5.06c-0.24,20.2 -0.24,40.4 0,60.6c0.05,4.34 -1.46,5.13 -5.39,5.09c-18.93,-0.19 -37.84,-0.08 -56.76,-0.08z" class="st4"/>
   <path id="svg_9" fill="#2D75BA" d="m238.97,132.47c68.36,0 136.72,0.07 205.08,-0.13c5.24,-0.02 6.34,1.57 6.2,6.42c-0.33,11.36 -0.09,11.36 -11.58,11.36c-135.07,0 -270.13,-0.03 -405.2,0.1c-5.16,0.01 -7.4,-0.66 -7.08,-6.67c0.59,-11.06 0.16,-11.08 11.37,-11.08c67.07,0 134.14,0 201.21,0z" class="st5"/>
   <path id="svg_10" fill="#F8BA4B" d="m353.21,185.41c27.55,0 55.11,0.09 82.66,-0.1c4.31,-0.03 5.73,1.09 5.54,5.5c-0.35,8.07 -0.38,16.17 0.01,24.23c0.22,4.67 -1.32,5.77 -5.84,5.76c-48.31,-0.16 -96.62,-0.1 -144.93,-0.1c-7.16,0 -14.33,-0.15 -21.49,0.06c-3.35,0.1 -4.49,-0.95 -4.41,-4.36c0.21,-8.63 0.29,-17.27 -0.03,-25.89c-0.16,-4.2 1.22,-5.22 5.28,-5.2c27.74,0.18 55.48,0.1 83.21,0.1z" class="st4"/>
   <path id="svg_11" fill="#F8BA4B" d="m352.78,291.3c-27.19,0 -54.37,-0.17 -81.55,0.14c-5.54,0.06 -6.79,-1.64 -6.52,-6.79c0.43,-8.06 0.24,-16.16 0.05,-24.24c-0.07,-3.25 0.79,-4.48 4.28,-4.48c56.02,0.1 112.05,0.1 168.07,0c3.53,-0.01 4.32,1.29 4.26,4.51c-0.17,8.45 -0.36,16.91 0.06,25.34c0.24,4.89 -1.67,5.64 -5.99,5.61c-27.56,-0.18 -55.11,-0.09 -82.66,-0.09z" class="st4"/>
   <path id="svg_12" fill="#D65745" d="m229.55,85.77c-3.35,8.29 -6.23,14.95 -8.74,21.75c-1.93,5.21 -5.36,7.54 -10.89,7.34c-5.14,-0.19 -10.29,0.09 -15.43,-0.09c-5.57,-0.2 -9,-3.46 -9.02,-9.02c-0.12,-25.17 -0.59,-50.36 0.24,-75.51c0.27,-8.18 8.21,-1.91 12.36,-3.5c2.56,-0.98 5.13,-0.52 5.08,3.9c-0.24,20.58 -0.14,41.16 -0.04,61.74c0.01,1.56 -1.3,4.17 1.39,4.55c2.42,0.34 2.39,-2.36 3.02,-3.93c4.43,-10.88 8.84,-21.76 13.1,-32.7c1.61,-4.12 4,-7.09 8.69,-7.18c4.97,-0.1 7.47,2.98 9.16,7.31c4.32,11.12 8.79,22.17 13.27,33.22c0.57,1.41 0.72,3.76 2.94,3.31c2.33,-0.47 1.26,-2.74 1.26,-4.17c0.08,-20.21 0.14,-40.43 -0.03,-60.64c-0.03,-3.98 0.54,-5.8 5.25,-5.7c12.47,0.27 12.47,0.02 12.47,12.73c0,21.32 0.01,42.63 -0.01,63.95c-0.01,8.76 -2.85,11.65 -11.43,11.69c-4.59,0.02 -9.19,-0.08 -13.78,0.03c-5.09,0.12 -8.25,-2.24 -10.04,-6.93c-2.6,-6.85 -5.4,-13.62 -8.82,-22.15z" class="st6"/>
   <path id="svg_13" fill="#D65745" d="m105.98,70.95c0,13.04 -0.16,26.09 0.09,39.13c0.08,3.99 -1.24,4.95 -5,4.82c-7.71,-0.27 -15.44,-0.29 -23.14,0.01c-3.61,0.14 -5.06,-1.23 -6.24,-4.45c-7.31,-19.98 -14.83,-39.89 -22.29,-59.81c-0.45,-1.2 -0.92,-2.4 -1.46,-3.57c-0.5,-1.1 -0.51,-2.82 -2.27,-2.66c-2.38,0.23 -1.42,2.25 -1.42,3.47c-0.07,20.39 -0.18,40.78 0.05,61.17c0.05,4.44 -0.88,6 -5.64,5.88c-12.1,-0.31 -12.11,-0.06 -12.11,-11.98c0,-23.7 0.13,-47.4 -0.11,-71.09c-0.05,-4.5 1.37,-5.56 5.57,-5.38c7.52,0.32 15.07,0.3 22.59,0c3.6,-0.15 5.06,1.23 6.24,4.45c7.31,19.98 14.83,39.88 22.29,59.81c0.45,1.2 0.92,2.4 1.45,3.57c0.5,1.1 0.51,2.83 2.26,2.66c2.38,-0.23 1.42,-2.25 1.42,-3.47c0.07,-20.39 0.18,-40.78 -0.05,-61.17c-0.05,-4.43 0.87,-6 5.64,-5.88c12.1,0.31 12.11,0.06 12.11,11.98c0.02,10.83 0.02,21.67 0.02,32.51z" class="st6"/>
   <path id="svg_14" fill="#394D5C" d="m132.46,335.42c-33.63,0 -67.27,-0.08 -100.9,0.1c-4.2,0.02 -5.17,-1.14 -5.11,-5.2c0.19,-12.55 0.01,-12.55 12.54,-12.55c64.51,0 129.02,0.06 193.53,-0.13c4.95,-0.01 6.1,1.28 5.96,6.05c-0.35,11.72 -0.1,11.72 -11.73,11.72c-31.44,0.01 -62.86,0.01 -94.29,0.01z" class="st7"/>
   <path id="svg_15" fill="#394D5C" d="m123.38,406.01c-30.51,0 -61.02,-0.1 -91.52,0.11c-4.38,0.03 -5.49,-1.17 -5.41,-5.46c0.24,-12.29 0.05,-12.29 12.24,-12.29c58.81,0 117.62,0.06 176.43,-0.11c4.63,-0.01 5.81,1.18 5.69,5.74c-0.31,12.01 -0.08,12.02 -11.98,12.02c-28.48,-0.01 -56.97,-0.01 -85.45,-0.01z" class="st7"/>
   <path id="svg_16" fill="#D65745" d="m320.64,26.59c6.61,0 13.23,0.11 19.84,-0.05c2.82,-0.07 3.72,0.79 3.84,3.71c0.56,13.99 0.66,13.98 -13.37,13.98c-6.06,0 -12.13,0.11 -18.18,-0.05c-2.74,-0.07 -3.77,0.66 -3.91,3.65c-0.61,14.05 -0.72,14.04 13.31,14.04c4.41,0 8.82,-0.14 13.22,0.06c5.27,0.24 8.68,3.45 8.76,8.7c0.19,11.75 0.19,23.51 0.01,35.26c-0.08,5.5 -3.54,8.81 -9.17,8.87c-13.41,0.14 -26.82,0 -40.23,0.1c-2.57,0.02 -3.39,-0.8 -3.55,-3.43c-0.88,-14.26 -0.96,-14.25 13.09,-14.25c6.06,0 12.13,-0.13 18.18,0.05c3,0.09 4.09,-0.7 4.18,-3.94c0.39,-13.76 0.51,-13.76 -13.05,-13.76c-4.41,0 -8.82,0.12 -13.22,-0.05c-5.58,-0.22 -8.97,-3.45 -9.05,-9c-0.17,-11.57 -0.16,-23.14 -0.01,-34.71c0.08,-5.82 3.49,-9.03 9.45,-9.15c6.63,-0.14 13.25,-0.03 19.86,-0.03z" class="st6"/>
   <path id="svg_17" fill="#D65745" d="m123.63,70.12c0,-12.85 0.12,-25.71 -0.07,-38.55c-0.05,-3.62 0.61,-5.18 4.72,-5.09c11.74,0.28 23.5,0.23 35.25,0.02c3.46,-0.06 4.27,1.07 4.31,4.38c0.16,13.34 0.28,13.34 -12.9,13.34c-0.18,0 -0.37,0 -0.55,0c-13.6,0 -13.51,0 -13.18,13.6c0.07,3.03 0.8,4.22 4.01,4.11c6.24,-0.22 12.49,0.04 18.73,-0.11c2.75,-0.07 3.77,0.68 3.89,3.66c0.61,14.04 0.71,14.04 -13.31,14.04c-13.66,0 -13.52,0 -13.34,13.46c0.04,3.5 1.17,4.37 4.44,4.25c6.05,-0.23 12.12,0.09 18.17,-0.13c3.18,-0.11 3.95,1.03 4.03,4.09c0.34,13.62 0.43,13.62 -13.16,13.62c-8.81,0 -17.63,-0.15 -26.44,0.07c-3.53,0.09 -4.74,-0.87 -4.68,-4.56c0.2,-13.39 0.08,-26.79 0.08,-40.2z" class="st6"/>
   <path id="svg_18" fill="#394D5C" d="m88.34,370.71c-19.11,0 -38.22,-0.1 -57.33,0.09c-3.67,0.04 -4.55,-1.08 -4.55,-4.62c0,-13.11 -0.13,-13.11 13.06,-13.11c35.1,0 70.19,0.09 105.29,-0.11c4.41,-0.02 5.47,1.22 5.39,5.47c-0.24,12.28 -0.05,12.28 -12.25,12.28c-16.53,0 -33.07,0 -49.61,0z" class="st7"/>
   <path id="svg_19" fill="#394D5C" d="m229.47,370.71c-18.74,0 -37.49,-0.1 -56.23,0.08c-4.01,0.04 -5.74,-0.56 -5.63,-5.24c0.3,-12.49 0.05,-12.49 12.61,-12.49c35.1,0 70.19,0.07 105.29,-0.1c4.3,-0.02 6.06,0.61 5.91,5.53c-0.36,12.21 -0.08,12.22 -12.34,12.22c-16.53,0 -33.07,0 -49.61,0z" class="st7"/>
   <path id="svg_20" fill="#394D5C" d="m265.08,388.36c7.35,0 14.7,0.19 22.03,-0.08c3.5,-0.13 4.24,1.04 4.26,4.35c0.1,13.38 0.22,13.38 -13.32,13.38c-11.75,0 -23.51,-0.15 -35.26,0.09c-3.69,0.07 -4.54,-1.11 -4.54,-4.63c0,-13.1 -0.13,-13.1 13.05,-13.1c4.6,-0.01 9.19,-0.01 13.78,-0.01z" class="st7"/>
   <path id="svg_21" fill="#394D5C" d="m273.46,335.42c-4.77,0 -9.55,-0.1 -14.32,0.04c-2.36,0.07 -3.47,-0.69 -3.15,-3.13c0.05,-0.36 0.01,-0.73 0,-1.1c-0.32,-13.46 -0.32,-13.46 13.15,-13.46c6.24,0 12.49,0.1 18.72,-0.05c2.6,-0.06 3.36,0.77 3.5,3.41c0.75,14.29 0.83,14.29 -13.5,14.29c-1.46,0 -2.93,0 -4.4,0z" class="st7"/>
  </g>
 </g>
</svg>