<svg width="512" height="512" xmlns="http://www.w3.org/2000/svg" xml:space="preserve" version="1.1">

 <g>
  <title>Layer 1</title>
  <g id="svg_1">
   <path id="svg_2" fill="#56788A" d="m494.27,393.45c-0.01,19.08 -7.77,34.45 -23.01,45.94c-3.11,2.34 -6.32,4.58 -9.59,5.55c1.21,0.03 1.84,0.62 3.42,2.19c0,0.01 0.01,0.01 0.02,0.02c0.03,0.03 0.07,0.07 0.1,0.1c-0.82,3 -3.37,2.83 -5.62,2.94c-5.94,0.28 -11.89,0.15 -17.84,0.05c-13.23,-1.2 -26.47,-1.89 -39.71,-2.25c-0.03,0.01 -0.06,0.01 -0.09,0c-17.22,-0.46 -34.45,-0.34 -51.66,0.01c-12.57,0.25 -25.13,0.62 -37.68,0.98c-4.34,0.12 -8.69,0.26 -13.03,0.4c-0.66,0.02 -1.33,0.04 -1.99,0.06c-25.92,0.83 -51.87,1.69 -77.68,0.45c-1.8,-0.09 -3.6,-0.17 -5.41,-0.24c-0.6,-0.03 -1.2,-0.05 -1.81,-0.07c-45.49,-1.82 -90.94,-0.36 -136.41,-1.13c-9.14,-0.16 -18.3,-0.44 -27.33,1.49c-17.05,-1.84 -30.58,-9.65 -41.04,-23.35c-5.21,-6.84 -6.21,-14.76 -7.78,-22.65l0,-304.88c1.56,-4.73 0.73,-9.98 3.09,-14.52c10.14,-19.57 25.78,-31.23 48.2,-31.72c23.45,-0.52 46.93,-0.15 70.4,-0.09c2.58,0 5.24,-0.34 7.66,0.97c0.05,0.02 0.1,0.05 0.15,0.08c0.27,0.27 0.49,0.54 0.66,0.8c1.1,1.71 0.25,3.29 -1,4.85c-1.47,1.82 -3.32,3.24 -5,4.85c-0.22,0.2 -0.43,0.42 -0.64,0.63c-0.04,0.02 -0.07,0.04 -0.11,0.06c-2.01,1.11 -4.15,0.42 -6.21,0.32c-11.31,-0.54 -19.07,4.19 -23.46,14.54c-0.68,1.62 -1.41,3.11 -2.7,4.03c-0.36,0.27 -0.76,0.48 -1.22,0.64c-0.33,0.12 -0.69,0.2 -1.08,0.26c-9.12,1.46 -18.29,0.39 -27.42,0.7c-3.66,0.13 -7.33,-0.13 -10.95,0.66c-10.8,2.37 -17.37,10.06 -17.91,21.07c-0.08,1.66 -0.07,3.33 -0.07,4.99l0,247.31c0,1.5 -0.01,3 0.04,4.5c0.46,12.82 8.72,21.07 21.56,21.5c3.16,0.11 6.33,0.05 9.49,0.05c121.06,0 242.13,0 363.2,0.01c4.66,0 9.32,-0.08 13.98,0.13c1.74,0.55 3.47,0.92 5.21,1.12c0.01,0 0.01,0 0.01,0c1.54,0.18 3.08,0.24 4.61,0.2c0.01,0.01 0.01,0 0.01,0c3.92,-0.07 7.82,-0.77 11.71,-1.62c10.49,-2.29 17.03,-10.21 17.12,-20.99c0.16,-21.97 0.05,-43.94 0.05,-65.9c0.01,-62.25 0.01,-124.49 -0.01,-186.74c0,-3.15 0.18,-6.33 -0.53,-9.45c-2.29,-10.06 -10.16,-15.92 -21.43,-16.86c-2.25,-0.19 -4.49,-0.34 -6.74,-0.45c-1.69,-0.09 -3.38,-0.16 -5.07,-0.22c0,0 0,0 -0.01,0c-13.29,-0.44 -26.57,0.02 -39.86,-0.21l-0.04,0c-0.22,0 -0.43,-0.01 -0.65,-0.01c-0.11,0.01 -0.21,0.01 -0.32,0.01c-0.14,0.01 -0.27,0.01 -0.41,0l-0.01,0c-2.17,-0.07 -3.72,-1.18 -4.98,-3.18c-4.53,-7.18 -9.59,-13.98 -15.21,-20.36c-1.64,-1.86 -2.94,-3.78 -1.9,-5.78c0.04,-0.07 0.08,-0.14 0.12,-0.21c0.32,-0.53 0.81,-1.07 1.5,-1.61c2.75,-0.91 5.6,-0.72 8.42,-0.73c14.15,-0.05 28.3,-0.09 42.45,0.01c6.17,0.04 12.24,-1.55 18.42,-0.93c2.26,0.23 4.82,-0.13 5.9,2.69c-0.07,0.17 -0.14,0.33 -0.21,0.47c0,0.01 -0.01,0.02 -0.02,0.03c-0.34,0.68 -0.74,1.08 -1.17,1.31c18.42,3.61 36.33,28.77 36.51,48.97c0.06,6.66 0.04,13.32 0.04,19.98c0,89.41 0.04,178.82 -0.03,268.23z" class="st0"/>
   <path id="svg_3" fill="#4DD3F6" d="m412.92,180.5c-0.08,0.07 -0.16,0.14 -0.24,0.2c-0.46,0.39 -0.93,0.68 -1.42,0.9c-2.09,0.98 -4.39,0.69 -6.66,0.52c-0.29,-0.02 -0.58,-0.04 -0.87,-0.05c-0.33,0.02 -0.65,0.04 -0.98,0.06c-9.63,0.52 -19.29,0.15 -28.93,0.28c-6.7,0.08 -8.12,1.39 -8.42,8.16c-0.72,16.67 -3.34,33.05 -7.62,49.15c-3.38,12.7 -7.72,25.09 -13.44,36.96c-2.94,6.11 -2.6,6.9 3.61,9.67c2.25,1 4.81,1.45 6.57,3.43c0.15,0.2 0.28,0.42 0.38,0.65c0.1,0.2 0.18,0.41 0.24,0.63c0.02,0.07 0.04,0.15 0.06,0.22c-0.01,0.04 -0.02,0.09 -0.03,0.13c-0.03,0.21 -0.08,0.41 -0.13,0.61c-1.55,6.63 -6.82,9.67 -12.5,12.31c-0.67,0.02 -1.34,-0.1 -1.99,-0.29c-0.46,-0.13 -0.92,-0.3 -1.34,-0.49c-0.11,-0.05 -0.22,-0.09 -0.32,-0.14l-0.01,0c-6.64,-2.82 -11.27,-0.54 -14.53,5.69c-0.59,1.13 -1.72,1.9 -2.61,2.9c2.37,-1.24 4.69,-2.51 7.12,-3.51c1.76,-0.73 3.59,-1.45 5.06,0.09c0.05,0.05 0.11,0.11 0.14,0.17c0.16,0.17 0.3,0.37 0.44,0.59c0.41,2.36 -1,3.69 -2.71,4.9c-20.48,14.52 -42.62,25.11 -67.83,28.2c-2.44,0.3 -4.79,0.91 -7.13,1.57c-2.29,0.65 -4.57,1.34 -6.91,1.81c-0.61,0.13 -1.23,0.24 -1.85,0.33c-20.81,-0.87 -40.75,-5.56 -59.99,-13.5c-21.72,-8.96 -40.68,-22.09 -56.84,-38.88c-27.98,-29.07 -44.77,-63.61 -48.63,-104.14c-2.6,-27.28 0.41,-53.74 10.34,-79.34c0.84,-2.17 1.59,-4.42 3.99,-5.28c0.19,-0.07 0.39,-0.13 0.6,-0.18c0.13,0.03 0.25,0.06 0.38,0.09c5.16,1.17 9.7,3.67 13.95,6.77c0.08,0.21 0.15,0.42 0.2,0.62c0.11,0.42 0.17,0.83 0.19,1.24c0.11,2.22 -1.04,4.25 -1.76,6.29c-4.17,11.82 -7.07,23.92 -8.06,36.43c-0.46,5.72 0.23,6.32 6.02,6.37c9.65,0.08 19.3,0.04 28.95,0.02c7.7,-0.01 8.92,-1.06 9.19,-8.9c0.32,-9.34 1.57,-18.54 3.04,-27.74c3.27,-20.51 9.34,-40.15 18.21,-58.92c2.93,-6.2 2.42,-6.49 -3.82,-9.45c-6.33,-3.01 -10.69,-1.88 -15.24,3.3c-3.64,4.15 -7.23,8.58 -12.14,11.47c-0.35,0.19 -0.69,0.39 -1.05,0.57c-0.04,-0.01 -0.09,-0.02 -0.13,-0.03c-5.12,-1.08 -9.15,-3.67 -11.93,-7.99c-0.27,-0.41 -0.52,-0.85 -0.77,-1.3c2.34,-2.87 4.68,-5.73 7.02,-8.6c-0.2,-0.49 -0.3,-0.95 -0.31,-1.37c-0.09,-1.77 1.22,-3.01 2.46,-4.24c23.42,-23.14 50.96,-39.04 83.04,-46.73c7.85,-1.88 16.07,-1.32 24.04,-2.63l9,0c5.52,1.09 11.17,0.96 16.74,1.52c10.85,1.09 21.07,4.41 31.13,8.39c12.91,5.1 24.89,11.9 36.14,19.98c2.31,1.65 5.47,2.87 5.48,6.55c-0.15,0.26 -0.3,0.48 -0.46,0.68c-0.04,0.05 -0.09,0.1 -0.13,0.15l0,0.01c-1.6,1.79 -3.55,0.87 -5.37,-0.18c-3.16,-1.84 -6.52,-3.3 -10.05,-5.29c2.6,2.36 4.42,4.91 6.16,7.45c1.83,2.68 3.95,3.29 6.83,2.19c1.29,-0.49 2.64,-0.77 3.99,-1.02l0.01,0c0.66,-0.12 1.31,-0.24 1.96,-0.37c0.6,-0.12 1.2,-0.26 1.79,-0.43c6.31,2.18 10.79,6.39 13.7,12.35c0,0.26 -0.02,0.51 -0.08,0.75c0,0.03 -0.01,0.06 -0.02,0.08c-0.04,0.2 -0.11,0.39 -0.19,0.57c-0.01,0.03 -0.03,0.06 -0.04,0.09c-2.51,2.97 -6.25,3.55 -9.59,4.91c-4.12,1.67 -4.69,2.8 -2.72,6.77c3.68,7.46 6.83,15.13 9.41,23.03c0.61,1.88 1.25,3.83 0.35,5.63c-0.16,0.33 -0.38,0.65 -0.65,0.96c-0.11,0.13 -0.24,0.26 -0.37,0.39c-4.64,1.07 -8.99,3.48 -13.93,3.13c-0.27,-0.02 -0.55,-0.04 -0.82,-0.08c-0.11,-0.04 -0.21,-0.09 -0.31,-0.15c-2.01,-1 -2.63,-3.04 -3.35,-4.95c-2.61,-6.84 -5.38,-13.62 -8.5,-20.24c-2.69,-5.7 -4.18,-6.36 -10.15,-5.11c-14.18,2.96 -28.43,5.36 -42.96,5.68c-5,0.12 -6.52,1.67 -6.55,6.79c-0.13,25.29 -0.14,50.59 0.01,75.89c0.03,4.91 1.43,6.31 6.32,6.35c22.64,0.15 45.27,0.13 67.9,0.01c5.06,-0.03 5.91,-1.12 5.92,-6.39c0,-2.83 -0.01,-5.66 -0.01,-8.49c0,-1.5 -0.01,-2.99 0.95,-4.13c0.22,-0.27 0.51,-0.52 0.86,-0.75c0.03,-0.01 0.06,-0.01 0.09,-0.02c4.73,-0.93 9.3,-3.51 14.31,-1.89c0.26,0.08 0.53,0.17 0.79,0.28c0.01,0 0.01,0.01 0.02,0.01c1.97,2.02 2.58,4.53 2.66,7.26c0.07,2.31 -0.01,4.64 0.3,6.94c0.77,5.66 2.32,7.11 8.02,7.2c7.28,0.12 14.55,0 21.83,0.06c2.5,0.02 5.01,0.03 7.33,1.12c0.08,0.04 0.16,0.08 0.24,0.12c0.06,0.03 0.11,0.06 0.17,0.09l0.03,0.03c0.09,0.06 0.17,0.12 0.25,0.19c1.75,1.47 1.79,3.6 1.79,5.64c-0.01,3.74 1.06,6.46 5.24,7.2c1.65,0.29 3.23,1.17 2.43,3.45z" class="st1"/>
   <path id="svg_4" fill="#FEFEFE" d="m213.78,454.72c-4.15,13.58 -7.44,27.45 -12.91,40.61c-0.18,0.46 -0.37,0.91 -0.57,1.36c-0.03,0.08 -0.07,0.16 -0.1,0.24c-1.58,2.64 -4.29,2.23 -6.7,2.28c-9.82,0.19 -19.64,0.04 -29.46,0.09c-1.83,0.01 -3.68,-0.09 -5.49,0.22c-4.83,0.84 -6.47,3.87 -4.46,8.27c0.61,1.32 1.86,2.45 0.97,4.11c-3.68,-2.26 -6.27,-5.24 -4.74,-9.81c1.51,-4.54 5.35,-5.24 9.66,-5.22c12.94,0.04 25.87,-0.11 38.81,-0.19c4.3,-14.33 8.59,-28.66 12.9,-42.99c0.59,-1.98 0.99,-3.27 1,-4.11c-45.49,-1.82 -90.94,-0.36 -136.41,-1.13c-9.14,-0.16 -18.3,-0.44 -27.33,1.49c-17.05,-1.84 -30.58,-9.65 -41.04,-23.35c-5.21,-6.84 -6.21,-14.76 -7.78,-22.65c1.75,1.15 1.54,3.15 2.01,4.82c5.67,20.48 24.21,36.35 44.83,38.33c1.78,0.63 3.63,0.32 5.44,0.32c51.89,0.02 103.78,0.02 155.66,0.02c4.03,0 5.98,0.44 6.43,2.22c0.29,1.1 0,2.72 -0.72,5.07z" class="st2"/>
   <path id="svg_5" fill="#FEFEFE" d="m465.11,447.15c0.03,0.03 0.07,0.07 0.1,0.1c-0.82,3 -3.37,2.83 -5.62,2.94c-5.94,0.28 -11.89,0.15 -17.84,0.05c-13.23,-1.2 -26.47,-1.89 -39.71,-2.25c-0.03,0.01 -0.06,0.01 -0.09,0c-17.22,0.01 -34.44,0.01 -51.66,0.01c-12.57,0.25 -25.13,0.62 -37.68,0.98c-4.34,0.12 -8.69,0.26 -13.03,0.4c-0.21,0.95 0.28,2.57 1.1,5.31c4.2,13.99 8.37,27.99 12.55,41.99c12.94,0.08 25.88,0.23 38.81,0.18c4.31,-0.01 8.15,0.69 9.67,5.23c1.52,4.57 -1.07,7.54 -4.74,9.81c-0.89,-1.65 0.35,-2.78 0.96,-4.09c2.02,-4.39 0.41,-7.45 -4.38,-8.27c-2.3,-0.4 -4.64,-0.23 -6.96,-0.24c-9.28,-0.04 -18.57,0.09 -27.85,-0.09c-2.41,-0.04 -5.08,0.38 -6.83,-2.07c-0.06,-0.15 -0.13,-0.3 -0.19,-0.45c-0.19,-0.45 -0.37,-0.9 -0.55,-1.36c-5.61,-13.75 -9.26,-28.13 -13.37,-42.36c-0.44,-1.51 -0.51,-2.67 -0.21,-3.53c0.4,-1.21 1.53,-1.83 3.38,-1.95c0.24,-0.02 0.5,-0.03 0.77,-0.03l0.92,0c46.11,-0.02 92.24,-0.09 138.35,0.02c0.32,0 0.63,0.17 0.95,0.27c7.72,-0.06 15.48,1.08 23.15,-0.6z" class="st2"/>
   <path id="svg_6" fill="#FEFEFE" d="m511.9,402.94c-2.7,8.63 -5.42,17.23 -11.32,24.38c-9.24,11.17 -20.72,18.3 -35.36,19.81c0.74,-2.73 3.3,-2.55 5.25,-3.09c16.02,-4.37 27.7,-13.87 34.71,-29.02c1.19,-2.58 1.89,-5.31 2.78,-7.98c0.62,-1.88 0.83,-4.48 3.94,-4.1z" class="st2"/>
   <path id="svg_7" fill="#FEFEFE" d="m239.02,0.1c-6.2,2.41 -12.87,2.41 -19.28,3.84c-32.77,7.3 -61.05,22.75 -84.98,46.25c-1.49,1.46 -2.98,2.92 -4.47,4.39c-0.17,0.16 -0.33,0.33 -0.5,0.49c-26.98,0 -53.98,-0.48 -80.94,0.15c-21.13,0.48 -40.93,17.48 -46.7,38.44c-0.51,1.85 -0.42,3.95 -2.02,5.4c1.56,-4.73 0.73,-9.98 3.09,-14.52c10.14,-19.57 25.78,-31.23 48.2,-31.72c23.45,-0.52 46.93,-0.15 70.4,-0.09c2.58,0 5.24,-0.34 7.66,0.97c-0.09,-1.77 1.22,-3.01 2.46,-4.24c23.42,-23.14 50.96,-39.04 83.04,-46.73c7.85,-1.88 16.07,-1.32 24.04,-2.63z" class="st2"/>
   <path id="svg_8" fill="#FEFEFE" d="m459.15,54.46c-0.07,0.17 -0.14,0.33 -0.21,0.47c-8.04,-1.03 -16.08,-0.05 -24.12,-0.02c-17.41,0.05 -34.81,0.17 -52.21,0.26c-0.09,0.03 -0.18,0.05 -0.27,0.07c-3.6,0.91 -5.08,-2.25 -7.06,-4.1c-13.18,-12.34 -27.57,-22.97 -43.74,-31.04c-15.73,-7.85 -32.31,-13.11 -49.71,-15.72c-1.97,-0.3 -3.91,-0.78 -5.86,-1.18c-1.64,-0.33 -3.38,-0.74 -2.96,-3.1c5.89,2.12 12.19,2.13 18.24,3.45c34.56,7.52 64.11,23.98 88.78,49.28c0.76,0.78 1.62,1.48 2.43,2.2c0.32,-0.53 0.81,-1.07 1.5,-1.61c2.75,-0.91 5.6,-0.72 8.42,-0.73c14.15,-0.05 28.3,-0.09 42.45,0.01c6.17,0.04 12.24,-1.55 18.42,-0.93c2.26,0.23 4.82,-0.13 5.9,2.69z" class="st2"/>
   <path id="svg_9" fill="#FEFEFE" d="m511.9,100.06c-3.16,0.3 -3.23,-2.35 -3.76,-4.23c-2.22,-7.78 -5.79,-14.74 -11.05,-20.95c-8.59,-10.14 -19.54,-15.6 -32.51,-17.47c-2.04,-0.29 -4.49,0.25 -5.46,-2.46c25.97,0.31 47.28,18.22 51.84,43.55c0.12,0.67 0.2,1.29 0.94,1.56z" class="st2"/>
   <path id="svg_10" fill="#415E6F" d="m511.9,100.06l0,302.88c-2.7,8.63 -5.42,17.23 -11.32,24.38c-9.24,11.17 -20.72,18.3 -35.36,19.81l-13.42,0c9.2,-3.87 17.88,-8.15 24.75,-15.38c9.82,-10.32 15.28,-22.63 15.3,-36.89c0.11,-95.89 0.09,-191.79 0.03,-287.68c-0.01,-21.58 -15.05,-42.24 -35.39,-49.1c-2.49,-0.84 -5.01,-1.6 -8.07,-2.57c3.85,-0.21 7.19,-0.37 10.5,-0.55c0.07,0 0.13,-0.01 0.2,-0.01c25.97,0.31 47.28,18.22 51.84,43.55c0.12,0.67 0.2,1.29 0.94,1.56z" class="st3"/>
   <path id="svg_11" fill="#00C1F2" d="m430.05,185.62c-3.01,37.73 -16.87,71.24 -41.82,100.01c-28.79,33.2 -64.95,52.81 -108.3,59.31c-8.73,1.31 -17.54,1.74 -26.37,1.3c-1.22,-0.06 -2.55,0.04 -3.64,-0.42c-0.77,-0.31 -1.42,-0.9 -1.82,-2.02c10.65,-2.41 21.56,-3.57 32.06,-6.81c18.43,-5.67 35.52,-13.92 51.15,-25.2c1.08,-0.78 2.18,-1.54 2.59,-2.92c0,-0.1 0.01,-0.2 0.02,-0.29c0.27,-3.64 2.41,-4.69 4.97,-5.17c1,-0.19 2.07,-0.29 3.11,-0.42c4.5,-3.18 8.72,-6.66 12,-11.15c0.24,-0.16 0.48,-0.32 0.72,-0.5c0.14,-0.08 0.28,-0.18 0.42,-0.28c7.37,-5.15 13,-12 18.57,-18.93c0.7,-0.88 1.41,-1.76 2.12,-2.64c16.51,-20.49 27.24,-43.63 32.1,-69.49c0.83,-4.41 1.65,-8.84 1.69,-13.34c0.01,-2.01 0.51,-3.68 1.64,-5.06c0.4,-0.49 0.88,-0.95 1.45,-1.37c-0.71,-0.35 -1.4,-0.91 -2.14,-1.02c-7.56,-1.08 -7.56,-1.06 -7.61,-8.47c-0.01,-1.96 -0.1,-3.92 -0.16,-5.88c-0.16,-0.38 -0.17,-0.74 -0.03,-1.08c0.04,-0.11 0.1,-0.22 0.17,-0.33c0.01,-0.01 0.02,-0.01 0.03,-0.02c0.43,-0.24 0.84,-0.46 1.22,-0.67c6.08,-3.4 5.88,-3.86 4.78,-11.8c-4.4,-32 -17.82,-59.05 -38.03,-82.41c-4.67,-5.41 -9.72,-10.63 -15.1,-15.64c-0.03,-0.05 -0.07,-0.08 -0.1,-0.1c-0.01,0 -0.01,0 -0.01,0c-0.23,-0.23 -0.45,-0.44 -0.68,-0.65c-4.74,-3.27 -7.93,-8.45 -13.33,-10.9c-1.05,-0.28 -2.28,-0.35 -3.24,-0.73c-1.07,-0.41 -1.8,-1.22 -1.56,-3.16c0.01,-0.08 0.02,-0.16 0.03,-0.24c-10.36,-9.34 -22.42,-15.98 -34.94,-21.82c-15.95,-7.44 -32.8,-11.8 -50.21,-14.16c-1.28,-0.17 -2.52,-0.69 -3.78,-1.05l11.99,0c2.33,0.79 4.67,0.79 7,0l6,0c5.89,2.12 12.19,2.13 18.24,3.45c34.56,7.52 64.11,23.98 88.78,49.28c0.76,0.78 1.62,1.48 2.43,2.2c0.05,0.05 0.1,0.09 0.15,0.14c7.59,8.93 14.68,18.22 21.08,28.05c0.44,0.29 0.92,0.53 1.37,0.8c0.27,0.16 0.52,0.33 0.76,0.54c0.01,0 0.01,0 0.02,0.01c0.16,0.14 0.31,0.29 0.45,0.46c4.64,4.38 6.62,10.34 9.14,15.89c12.26,26.93 16.95,55.38 14.62,84.7z" class="st4"/>
   <path id="svg_12" fill="#56788A" d="m356.97,511.9l-201.91,0c-3.68,-2.26 -6.27,-5.24 -4.74,-9.81c1.51,-4.54 5.35,-5.24 9.66,-5.22c12.94,0.04 25.87,-0.11 38.81,-0.19c0.65,-0.6 1.34,-1.04 2.08,-1.35c1.5,-0.64 3.17,-0.76 4.87,-0.77c33.51,-0.1 67.03,-0.1 100.55,0c1.7,0.01 3.37,0.13 4.88,0.77c0.73,0.32 1.42,0.75 2.06,1.35c12.94,0.08 25.88,0.23 38.81,0.18c4.31,-0.01 8.15,0.69 9.67,5.23c1.52,4.57 -1.07,7.54 -4.74,9.81z" class="st0"/>
   <path id="svg_13" fill="#14C6F3" d="m267.01,0.1c-2.33,1.43 -4.66,1.35 -7,0c2.33,0 4.67,0 7,0z" class="st5"/>
   <path id="svg_14" fill="#D8EFF3" d="m248.1,343.8c87.53,4.34 164.7,-58.72 177.94,-145.6c5.94,-38.99 -0.78,-75.8 -19.96,-110.31c-0.48,-0.87 -0.86,-1.79 -1.28,-2.69c-0.01,-2.27 1.75,-1.6 2.89,-1.61c12.16,-0.05 24.33,-0.28 36.48,0.05c10.42,0.28 18.46,8.49 19.9,19.58c0.26,1.99 0.25,3.99 0.25,5.99c0.03,84.46 0,168.93 0.05,253.39c0.01,7.52 -1.97,14.08 -7.01,19.7c-4.5,5.02 -10.22,6.44 -16.67,5.79c-2.33,0.03 -4.66,0.09 -6.99,0.09c-125.21,0 -250.41,0.01 -375.62,-0.01c-3.49,0 -6.99,0.2 -10.42,-0.74c-10.74,-2.93 -17.55,-12.01 -17.56,-23.8c-0.05,-37.46 -0.02,-74.93 -0.02,-112.39c0,-47.12 -0.01,-94.24 0,-141.36c0,-17.15 9.46,-26.67 26.49,-26.7c11.16,-0.02 22.31,0.01 33.47,0.02c1.94,0.66 2.2,2.34 2.27,4.01c0.2,5.1 1.88,9.68 4.68,13.9c0.92,1.39 1.89,2.81 0.49,4.47c-24.16,62.03 -16.69,120.07 23.8,172.83c28.47,37.1 67.15,57.83 113.43,64.27c4.42,0.63 8.92,0.76 13.39,1.12z" class="st6"/>
   <path id="svg_15" fill="#B9E0E4" d="m440.68,388.09c13.4,-2.08 21.23,-11.14 21.24,-24.69c0.01,-84.93 -0.16,-169.86 0.19,-254.79c0.05,-13 -10.98,-26.23 -24.6,-24.73c-8.88,0.98 -17.96,0.18 -26.96,0.19c-1.98,0 -4.03,-0.25 -5.75,1.13c-0.37,-0.66 -0.74,-1.32 -1.11,-1.99c18.64,-0.04 37.28,-0.31 55.92,-0.05c12.31,0.17 22.24,10.54 22.3,23.03c0.16,31.12 0.09,62.25 0.1,93.37c0.01,53.93 -0.34,107.86 0.21,161.78c0.16,16.23 -10.57,28.07 -27.63,27.29c-4.64,-0.2 -9.31,0.64 -13.91,-0.54z" class="st7"/>
   <path id="svg_16" fill="#8FAABC" d="m441.96,447.75c-1.99,0.08 -3.97,0.24 -5.96,0.24l-33.96,0c-0.03,0.01 -0.06,0.01 -0.09,0c-17.22,0.01 -34.44,0.01 -51.66,0.01l-44.41,0c-4.27,0 -6,0 -6.3,1.38c-0.21,0.95 0.28,2.57 1.1,5.31c4.2,13.99 8.37,27.99 12.55,41.99c-0.5,0 -1.01,0 -1.51,0.01c-19.73,0.08 -39.46,0.2 -59.19,0.2c-17.41,0.01 -34.82,-0.12 -52.23,-0.2c-0.5,-0.01 -1.01,-0.01 -1.51,-0.01c4.3,-14.33 8.59,-28.66 12.9,-42.99c0.59,-1.98 0.99,-3.27 1,-4.11c0.01,-1.58 -1.31,-1.58 -5.12,-1.58c-50.42,-0.01 -100.84,0.01 -151.26,-0.03c-3.12,0 -6.33,0.52 -9.34,-0.88c6.99,-0.02 13.98,-0.05 20.97,-0.05c45.3,-0.01 90.61,-0.56 135.9,0.19c29.8,0.49 59.61,1.11 89.38,0.42c2.58,-0.06 5.16,-0.11 7.75,-0.16c0.56,-0.01 1.12,-0.02 1.69,-0.03c44.14,-0.8 88.27,0.02 132.41,-0.41c2.31,-0.02 4.68,-0.35 6.89,0.7z" class="st8"/>
   <path id="svg_17" fill="#FE6B81" d="m97.47,105.6c-5.98,-6.3 -8.14,-13.86 -7.44,-22.38c3.41,-11.83 10.59,-19.37 23.37,-20.55c3.19,-0.29 6.29,0.33 9.38,1.01c4.83,1.72 8.66,4.88 12.2,8.45c2.18,-0.1 3.28,1.36 4.16,3.01c4.93,9.17 4.48,18.39 -1.1,26.88c-5.12,7.79 -12.2,13.09 -22.34,12.31c-1.86,-0.14 -3.65,-0.33 -4.84,-2.02c-5.06,-1.05 -9.45,-3.43 -13.39,-6.71z" class="st9"/>
   <path id="svg_18" fill="#415E6F" d="m78.9,425.93c-4.64,0 -9.29,0.1 -13.93,-0.03c-5,-0.14 -7.73,-2.72 -7.87,-7.1c-0.13,-4.24 2.68,-7.59 7.37,-7.7c10.11,-0.25 20.23,-0.25 30.34,0.01c4.44,0.11 7.24,3.39 7.24,7.34c0,3.95 -2.79,7.09 -7.25,7.34c-5.29,0.29 -10.61,0.07 -15.91,0.07c0.01,0.02 0.01,0.04 0.01,0.07z" class="st3"/>
   <path id="svg_19" fill="#415E6F" d="m139.71,425.93c-4.81,0 -9.62,0.08 -14.43,-0.02c-5.33,-0.12 -8.15,-2.7 -8.21,-7.27c-0.05,-4.21 2.8,-7.45 7.54,-7.56c9.94,-0.23 19.9,-0.23 29.84,0c4.74,0.11 7.65,3.37 7.58,7.53c-0.08,4.1 -3.08,7.04 -7.9,7.25c-4.8,0.21 -9.62,0.05 -14.43,0.05c0.01,0 0.01,0.01 0.01,0.02z" class="st3"/>
   <path id="svg_20" fill="#D8EFF3" d="m248.66,118.43c0,13.65 -0.13,27.3 0.08,40.95c0.06,4.15 -1.34,5.43 -5.45,5.41c-24.97,-0.15 -49.93,-0.08 -74.9,-0.07c-2.81,0 -5.32,0.12 -5.08,-4.05c1.81,-31.54 7.95,-62 22.3,-90.44c0.6,-1.19 1.31,-2.33 1.83,-3.55c1.01,-2.36 2.53,-3.14 5.13,-2.49c16.83,4.23 33.93,6.72 51.29,7.14c3.59,0.09 4.9,1.49 4.86,5.16c-0.16,13.98 -0.07,27.96 -0.06,41.94z" class="st6"/>
   <path id="svg_21" fill="#D8EFF3" d="m347.38,143.78c0.38,5.15 0.51,10.32 1.2,15.43c0.56,4.18 -0.71,5.61 -4.99,5.58c-21.15,-0.16 -42.29,-0.07 -63.44,-0.07c-4.16,0 -8.33,-0.09 -12.49,0.02c-2.82,0.07 -4.33,-0.77 -4.32,-3.93c0.06,-28.47 0.06,-56.95 0.01,-85.42c0,-2.81 1.33,-3.87 3.91,-3.95c17.87,-0.54 35.47,-2.98 52.8,-7.35c2.63,-0.66 3.52,0.91 4.55,2.74c5.48,9.76 9.19,20.29 13.26,30.66c0.87,2.23 -0.8,3.29 -2.04,4.61c-12.18,12.89 -8.5,30.76 7.75,38.06c1.57,0.69 4.61,0.28 3.8,3.62z" class="st6"/>
   <path id="svg_22" fill="#D8EFF3" d="m248.46,248.09c-0.03,6.49 -0.2,12.99 -0.04,19.48c0.09,3.51 -0.99,5.16 -4.75,5.24c-17.2,0.4 -34.15,2.78 -50.8,7.06c-3.56,0.92 -4.68,-0.98 -6.01,-3.5c-10.81,-20.55 -17.32,-42.48 -20.71,-65.36c-1.29,-8.71 -1.75,-17.54 -2.76,-26.3c-0.42,-3.63 0.63,-5.08 4.51,-5.07c25.14,0.12 50.27,0.13 75.41,-0.01c3.99,-0.02 5.27,1.45 5.11,5.27c-0.2,4.98 0.01,9.99 0.05,14.98c0.05,2.98 -2.52,3.67 -4.37,4.93c-11.62,7.94 -14.06,21.83 -5.84,33.17c1.92,2.65 4.59,4.3 7.23,6.03c1.5,1 3.43,1.68 2.97,4.08z" class="st6"/>
   <path id="svg_23" fill="#D8EFF3" d="m263.55,199.9c0.04,-5.16 0.2,-10.32 0.07,-15.48c-0.09,-3.36 1.07,-4.76 4.59,-4.75c25.47,0.09 50.94,0.07 76.41,0.02c2.89,-0.01 4.22,0.82 4.04,4.03c-1.76,31.74 -8.2,62.27 -22.5,90.93c-2.36,4.73 -4.66,5.91 -9.93,4.56c-15.34,-3.91 -31.02,-6.04 -46.88,-6.33c-4.2,-0.08 -5.99,-1.35 -5.77,-5.81c0.3,-6.31 0.02,-12.65 -0.01,-18.97c-0.4,-3.2 2.47,-3.63 4.26,-4.82c11.71,-7.84 14.2,-22.33 5.72,-33.56c-1.86,-2.46 -4.4,-4.02 -6.9,-5.67c-1.56,-1.03 -3.2,-1.93 -3.1,-4.15z" class="st6"/>
   <path id="svg_24" fill="#D8EFF3" d="m123.72,179.71c6.16,0 12.33,0.21 18.47,-0.07c4.27,-0.2 6.18,0.89 6.4,5.65c0.94,21.01 4.15,41.68 10.32,61.85c3.61,11.8 7.98,23.3 13.76,34.21c1.42,2.69 1.3,4.26 -1.86,5.1c-1.76,0.47 -3.67,0.88 -5.14,1.87c-7.68,5.15 -13.01,2.44 -19.11,-3.68c-27.81,-27.9 -43.57,-61.2 -47.18,-100.38c-0.34,-3.71 0.98,-4.67 4.37,-4.59c6.66,0.15 13.31,0.04 19.97,0.04z" class="st6"/>
   <path id="svg_25" fill="#D8EFF3" d="m110.86,112.3c16.04,0.32 26.21,-7.05 28.75,-20.82c1.32,-7.15 -1.08,-13.39 -4.63,-19.36c5.39,-6.36 11.29,-12.21 17.38,-17.9c2.12,-1.98 4.01,-2.39 6.69,-1.17c3.93,1.79 8,3.29 12.08,4.71c2.44,0.85 3.12,1.92 1.84,4.38c-15.74,30.42 -22.72,63.07 -24.44,97.01c-0.21,4.21 -1.4,5.76 -5.82,5.66c-12.65,-0.28 -25.31,-0.29 -37.95,-0.01c-4.9,0.11 -5.74,-1.59 -5.27,-6.15c1.65,-16 5.15,-31.5 11.37,-46.35z" class="st6"/>
   <path id="svg_26" fill="#D8EFF3" d="m353.92,291.05c-4.04,-1.5 -8.02,-3.19 -12.14,-4.44c-3.43,-1.04 -3.94,-2.41 -2.25,-5.65c8.43,-16.14 14.13,-33.3 18.11,-51.03c3.32,-14.78 5.19,-29.78 5.82,-44.89c0.19,-4.48 1.98,-5.56 6.1,-5.4c11.11,0.44 22.24,-0.44 33.35,0.48c2.03,1.43 2.35,3.5 2.14,5.76c-3.02,31.97 -13.01,61.39 -32.17,87.41c-4.25,5.77 -9.56,10.63 -14.28,15.99c-1.16,1.32 -2.49,2.85 -4.68,1.77z" class="st6"/>
   <path id="svg_27" fill="#D8EFF3" d="m403.03,164.2c-0.06,0.23 -0.13,0.44 -0.23,0.65c-11.26,-0.05 -22.51,-0.2 -33.77,-0.09c-3.6,0.04 -5.4,-0.74 -5.51,-4.85c-0.16,-6.1 -1.03,-12.19 -1.6,-18.28c-0.51,-2.24 1.1,-3.29 2.51,-4.43c7.2,-5.78 10.5,-13.28 8.8,-22.36c-1.69,-9.07 -7.32,-14.96 -16.2,-17.75c-1.91,-0.6 -4.48,-0.55 -5.04,-3.34c-3.1,-10.57 -7.28,-20.72 -12.37,-30.46c-1.57,-2.99 -1.72,-4.66 2.01,-5.75c4.45,-1.3 8.76,-3.09 13.13,-4.66c1.77,-0.44 2.77,0.81 3.8,1.83c19.12,18.82 31.77,41.46 39.57,66.98c3.66,11.96 5.51,24.24 6.82,36.63c0.26,2.32 -0.21,4.27 -1.92,5.88z" class="st6"/>
   <path id="svg_28" fill="#FE6B81" d="m263.55,199.9c14.39,6.98 20.42,18.7 16.25,31.69c-2.64,8.22 -8.56,13.23 -16.24,16.51c-5.03,1.12 -10.07,1.11 -15.1,0c-3.05,-1.67 -6.28,-3.01 -8.95,-5.36c-12.82,-11.27 -10.77,-31.89 4.07,-40.36c1.59,-0.9 3.26,-1.65 4.89,-2.47c5.03,-1.16 10.05,-1.14 15.08,-0.01z" class="st9"/>
   <path id="svg_29" fill="#FE6B81" d="m352,93.76c12.66,1.64 21.03,8.57 23.59,19.53c2.59,11.11 -2.16,20.98 -13.66,28.34c-4.7,1.68 -9.51,2.65 -14.54,2.14c-10.28,-2.57 -17.75,-8.34 -20.34,-18.95c-2.81,-11.52 1.66,-20.44 10.84,-27.35c4.41,-2.31 9.09,-3.66 14.11,-3.71z" class="st9"/>
   <path id="svg_30" fill="#D8EFF3" d="m248.65,36.25c-0.01,5.49 -0.05,10.99 0.02,16.48c0.03,2.62 -0.65,3.89 -3.71,3.76c-14.5,-0.57 -28.83,-2.37 -43.02,-5.39c-2.78,-0.59 -3.96,-1.35 -1.77,-4.1c11.22,-14.12 24.38,-25.47 42.3,-30.16c5.81,-1.52 6.16,-1.23 6.19,4.92c0.02,4.83 0,9.66 -0.01,14.49z" class="st6"/>
   <path id="svg_31" fill="#D8EFF3" d="m263.38,36.58c-0.01,-5.33 0.17,-10.66 -0.06,-15.98c-0.19,-4.39 1.63,-5.01 5.45,-4.04c14.74,3.72 26.52,12.08 36.71,22.98c2.27,2.43 4.28,5.09 6.47,7.61c2.02,2.33 1.17,3.31 -1.52,3.88c-14.35,3.07 -28.85,4.91 -43.52,5.46c-2.72,0.1 -3.56,-0.95 -3.54,-3.43c0.05,-5.49 0.01,-10.98 0.01,-16.48z" class="st6"/>
   <path id="svg_32" fill="#D8EFF3" d="m263.41,308.04c0,-5.33 0.05,-10.66 -0.02,-15.98c-0.04,-3.11 1.17,-4.43 4.47,-4.34c14.36,0.38 28.5,2.44 42.53,5.35c2.57,0.53 3.59,1.36 1.6,3.86c-11.21,14.11 -24.3,25.58 -42.23,30.28c-6.05,1.59 -6.35,1.34 -6.39,-4.68c-0.03,-4.83 -0.01,-9.66 -0.01,-14.49c0.02,0 0.03,0 0.05,0z" class="st6"/>
   <path id="svg_33" fill="#D8EFF3" d="m248.66,308.48c0,4.99 -0.18,10 0.05,14.98c0.2,4.36 -1.61,5.07 -5.44,4.09c-14.71,-3.76 -26.54,-12.04 -36.72,-22.98c-2.26,-2.43 -4.28,-5.1 -6.46,-7.61c-2.01,-2.31 -1.19,-3.33 1.5,-3.89c14.04,-2.91 28.17,-4.97 42.53,-5.35c3.25,-0.09 4.56,1.12 4.52,4.28c-0.07,5.49 -0.02,10.99 -0.02,16.48c0.01,0 0.02,0 0.04,0z" class="st6"/>
   <path id="svg_34" fill="#B9E0E4" d="m403.03,164.2c-2.52,-39.77 -16.05,-75.08 -42.52,-105.16c-1.86,-2.11 -3.22,-4.67 -5.75,-6.15c0.09,-0.25 0.18,-0.49 0.28,-0.73c2.18,-0.49 3.36,1.12 4.68,2.31c31.48,28.48 49.27,63.76 52.79,106.18c0.26,3.07 -0.79,3.86 -3.5,3.69c-1.98,-0.12 -3.98,-0.1 -5.98,-0.14z" class="st7"/>
   <path id="svg_35" fill="#B9E0E4" d="m353.92,291.05c6.6,-3.94 10.6,-10.36 15.04,-16.24c17.89,-23.71 28.43,-50.52 32.66,-79.84c0.71,-4.91 0.87,-9.9 1.28,-14.86c3.27,0.04 6.53,0.07 9.8,0.11c-2.78,43.29 -20.29,79.51 -52.26,108.78c-1.83,1.68 -3.53,3.63 -6.45,2.83c0.03,-0.26 0,-0.52 -0.07,-0.78z" class="st7"/>
   <path id="svg_36" fill="#D6EFF3" d="m169.57,41.3c8.92,-6.17 17.4,-10.47 26.83,-13.5c-4.37,5.62 -8.73,11.24 -13.11,16.85c-0.91,1.16 -2.07,0.82 -3.18,0.43c-3.12,-1.09 -6.22,-2.23 -10.54,-3.78z" class="st10"/>
   <path id="svg_37" fill="#D7EFF3" d="m336.95,37.13c1.59,1.38 3.18,2.75 4.77,4.13c-0.13,0.11 -0.24,0.25 -0.38,0.31c-10.99,4.95 -10.97,4.93 -18.22,-4.34c-2.44,-3.12 -5.04,-6.1 -8.28,-10.01c8.71,2.04 14.94,7.06 22.11,9.91z" class="st11"/>
   <path id="svg_38" fill="#D7EFF3" d="m342,302.99c-2.7,1.96 -5.4,3.92 -8.1,5.88c-6.25,1.99 -11.52,6.32 -18.77,8.07c4.74,-6.11 9.01,-11.53 13.19,-17.02c1.18,-1.54 2.56,-1.3 4,-0.76c3.25,1.23 6.7,1.92 9.68,3.83z" class="st11"/>
   <path id="svg_39" fill="#D7EFF3" d="m196.34,316.24c-9.38,-2.94 -17.82,-7.3 -26.25,-13c3.48,-2.46 7.07,-3.09 10.4,-4.3c1.48,-0.54 2.49,0.05 3.4,1.24c4.13,5.38 8.3,10.71 12.45,16.06z" class="st11"/>
   <path id="svg_40" fill="#90ABBC" d="m88.97,363.12c-8.16,0 -16.31,0.06 -24.47,-0.02c-5.66,-0.05 -8.91,-2.78 -8.92,-7.22c-0.02,-4.37 3.41,-7.65 8.71,-7.68c16.31,-0.12 32.63,-0.13 48.94,0c6.03,0.05 9.12,2.93 9.02,7.71c-0.1,4.85 -3.03,7.17 -9.31,7.2c-7.99,0.05 -15.98,0.01 -23.97,0.01z" class="st12"/>
   <path id="svg_41" fill="#90ABBC" d="m78.7,328.12c-5,0 -10,0.1 -14.99,-0.03c-4.95,-0.13 -8,-2.86 -8.13,-6.99c-0.14,-4.21 3.11,-7.74 8.01,-7.84c10.32,-0.21 20.66,-0.22 30.98,0.01c5.09,0.11 7.9,3.37 7.71,7.95c-0.18,4.38 -2.85,6.76 -8.08,6.88c-5.17,0.11 -10.33,0.02 -15.5,0.02z" class="st12"/>
  </g>
 </g>
</svg>