<svg width="512" height="512" xmlns="http://www.w3.org/2000/svg" xml:space="preserve" version="1.1">

 <g>
  <title>Layer 1</title>
  <g id="svg_1">
   <path id="svg_2" fill="#FEFEFE" d="m94.56,425.36c0.43,-0.13 0.83,-0.36 1.36,-0.6c-0.56,1.48 -2.9,2.49 -7.45,4.28c-16.52,6.51 -25.96,21.13 -25.98,38.99c0,5.16 -0.15,10.33 0.03,15.49c0.33,9.5 -1.58,19.22 2.55,28.38c-3.53,-2.97 -4.53,-6.74 -4.4,-11.3c0.27,-9.82 0.07,-19.65 0.08,-29.48c0.04,-23.71 11.14,-38.72 33.81,-45.76z" class="st0"/>
   <path id="svg_3" fill="#FEFEFE" d="m221.11,81.69c-0.59,1.21 -2.73,2 -6.77,3.49c-17.41,6.41 -29.28,25.8 -26.94,43.94c0.29,2.28 1.21,4.1 3.06,5.47c1.05,0.78 2.27,1.39 3.03,2.47c0.04,0.06 0.08,0.12 0.12,0.18c0.15,0.23 0.27,0.48 0.37,0.76c0.76,6.22 1.13,12.43 -0.21,18.62c-0.13,0.08 -0.25,0.17 -0.37,0.26c-0.03,0.02 -0.07,0.04 -0.1,0.07c-5.19,3.76 -6.33,9.01 -5.97,15.26c0.36,6.29 -0.82,7.16 -7.21,7.21c-8.49,0.08 -16.99,0.1 -25.49,-0.01c-5.8,-0.08 -6.91,-1.06 -6.96,-6.61c-0.12,-14.32 -0.05,-28.65 -0.04,-42.98c0,-3.37 1.21,-6.1 3.59,-8.46c4.13,-4.12 8.27,-8.22 12.35,-12.39c1.4,-1.43 2.8,-2.89 3.4,-4.87c0.79,-2.6 0.52,-4.99 -1.83,-6.71c-2.32,-1.7 -4.79,-1.67 -6.87,0.26c-7.33,6.79 -14.41,13.84 -21.18,21.19c-1.82,1.98 -1.62,4.64 -1.62,7.15c-0.01,15.15 -0.08,30.31 0.04,45.47c0.04,4.51 -0.81,7.43 -6.04,8.51c-6.38,1.32 -10.41,6.79 -10.86,13.4c-0.35,5.15 -0.38,10.33 0.01,15.48c0.66,8.6 5.64,13.91 14.19,14.58c4.49,0.36 6.48,2.13 6.93,6.6c1.05,10.44 1.81,20.89 2.67,31.33c1.25,15.08 2.4,30.17 3.66,45.26c1,11.93 2.04,23.87 2.74,35.82c0.25,4.22 -1.2,5.09 -6.18,4.01c-10.18,-2.2 -20.12,-1.81 -29.9,2.15c-26.45,10.74 -36.84,44.82 -20.54,68.27c2.8,4.04 4.22,6.15 3.79,7.71c-15.05,-18.62 -18.41,-38.77 -5.09,-59.22c13.37,-20.54 33.24,-25.59 56.81,-19.23c-0.94,-12.33 -1.82,-24.4 -2.8,-36.46c-2.19,-26.88 -4.52,-53.75 -6.54,-80.64c-0.27,-3.6 -1.47,-4.16 -4.72,-4.15c-9.75,0.04 -16.26,-6.51 -16.45,-16.19c-0.11,-5 -0.12,-10 0,-14.99c0.2,-8.47 5.38,-14.66 13.72,-15.7c3.24,-0.41 3.13,-1.98 3.12,-4.28c-0.04,-16.15 0.08,-32.31 -0.09,-48.46c-0.05,-4.14 1.07,-7.3 4.11,-10.17c5.92,-5.61 11.55,-11.53 17.36,-17.26c4.28,-4.22 8.4,-4.58 11.78,-1.18c3.24,3.25 2.81,7.69 -1.26,11.83c-4.79,4.86 -9.58,9.74 -14.52,14.45c-1.84,1.76 -2.48,3.58 -2.46,6.11c0.11,14.65 0.17,29.31 -0.03,43.96c-0.04,3.54 0.54,4.95 4.53,4.8c9.49,-0.34 18.99,-0.25 28.48,-0.03c3.37,0.08 4.41,-1 4.07,-4.23c-0.25,-2.48 0.05,-5 -0.07,-7.49c-0.24,-5.16 2.12,-8.18 7.18,-9.13l0,-19.76c-5.36,-0.99 -7.2,-4.34 -7.22,-9.62c-0.06,-23.29 12.46,-39.9 35.22,-45.85z" class="st0"/>
   <path id="svg_4" fill="#FEFEFE" d="m248.22,0.82c0,0.08 -0.02,0.15 -0.06,0.23c-0.05,0.14 -0.15,0.29 -0.28,0.42c-1.99,1.31 -4.35,1.61 -6.53,2.37c-29.67,10.29 -41.11,44.46 -23.6,70.49c2.52,3.74 3.82,5.67 3.49,7.01c-14.07,-17.2 -17.77,-35.93 -7.25,-56c7.11,-13.55 18.6,-21.78 33.89,-24.34c0.25,-0.28 0.29,-0.58 0.12,-0.9c0.17,0.25 0.25,0.49 0.22,0.72z" class="st0"/>
   <path id="svg_5" fill="#FEFEFE" d="m295.17,75.39c-1.41,2 -2.95,3.9 -4.62,6.1c-0.32,-1 0.25,-2.27 1.62,-4.24c4.11,-5.93 7.6,-12.04 9.12,-19.25c4.92,-23.16 -7.67,-45.85 -30.03,-53.82c-2.35,-0.83 -4.86,-1.21 -7.01,-2.59c-0.19,-0.17 -0.32,-0.36 -0.38,-0.55c-0.03,-0.07 -0.05,-0.13 -0.05,-0.2c-0.03,-0.23 0.03,-0.48 0.18,-0.74c-0.17,0.32 -0.13,0.63 0.12,0.9c33.83,4.23 51.21,45.86 31.05,74.39z" class="st0"/>
   <path id="svg_6" fill="#FEFEFE" d="m451.27,503.64c0.05,4.07 -2.12,6.44 -5.34,8.26c4.76,-6.37 3.53,-13.78 3.58,-20.95c0.05,-7.49 -0.28,-15 0.07,-22.48c0.79,-16.78 -10.32,-34.08 -27.44,-40.11c-0.31,-0.11 -0.62,-0.23 -0.93,-0.34c-6.52,-2.5 -6.82,-3.44 -2.75,-9.12c10.4,-14.51 11.98,-30.13 5.07,-46.37c-8.65,-20.33 -31,-31.33 -52.72,-26.45c-1.14,0.25 -2.25,0.65 -3.41,0.76c-2.89,0.28 -4.47,-0.85 -4.25,-3.96c0.86,-12.27 1.82,-24.54 2.86,-36.8c1.24,-14.58 2.31,-29.17 3.55,-43.74c0.94,-11.1 1.6,-22.22 2.88,-33.3c0.42,-3.62 2.14,-5.1 5.75,-5.48c10.34,-1.09 15.04,-6.3 15.31,-16.65c0.12,-4.49 0.25,-9 -0.07,-13.48c-0.49,-6.85 -4.64,-12.28 -11.23,-13.6c-4.76,-0.96 -5.7,-3.59 -5.68,-7.75c0.08,-15.16 -0.08,-30.31 0.1,-45.46c0.05,-4.51 -1.26,-7.96 -4.56,-11.06c-5.7,-5.35 -11.04,-11.09 -16.68,-16.52c-3.57,-3.45 -6.54,-3.74 -9.14,-1.17c-2.4,2.37 -2.28,6.1 0.66,9.43c4.08,4.61 8.55,8.87 13,13.13c3.09,2.96 4.55,6.29 4.51,10.61c-0.13,13.49 -0.01,26.98 -0.06,40.47c-0.03,6.98 -0.89,7.84 -7.71,7.9c-8.15,0.07 -16.31,0.07 -24.47,0c-6.68,-0.06 -7.55,-0.89 -7.58,-7.48c-0.06,-15.65 0,-31.31 -0.02,-46.96c-0.03,-18.4 -11.01,-33.98 -28.25,-40.15c-0.63,-0.22 -1.27,-0.41 -1.89,-0.66c-2.29,-0.91 -3.55,-1.65 -3.87,-2.66c17.01,4.38 28.48,14.32 33.71,30.95c1.42,4.5 1.8,9.11 1.79,13.79c-0.03,15.49 0.15,30.98 -0.12,46.46c-0.07,4.27 1.24,5.23 5.29,5.09c9.32,-0.31 18.65,-0.23 27.97,-0.02c3.14,0.07 3.9,-0.88 3.87,-3.92c-0.15,-15.15 -0.12,-30.3 -0.02,-45.46c0.02,-2.2 -0.69,-3.72 -2.22,-5.2c-5,-4.88 -9.94,-9.83 -14.84,-14.81c-4.03,-4.1 -4.4,-8.61 -1.09,-11.82c3.43,-3.33 7.45,-2.91 11.78,1.35c5.92,5.85 11.73,11.83 17.71,17.62c2.56,2.48 3.69,5.23 3.66,8.84c-0.13,16.32 -0.02,32.64 -0.1,48.96c-0.02,2.79 0.13,4.38 3.75,4.75c7.39,0.77 12.73,7.03 13.07,14.72c0.24,5.65 0.26,11.33 0,16.98c-0.42,8.98 -7.12,15.19 -16.5,15.09c-3.41,-0.04 -4.36,0.82 -4.62,4.25c-2.95,38 -6.04,75.99 -9.24,113.97c-0.36,4.3 1.62,2.7 3.73,2.15c26.31,-6.9 52.28,7.74 59.2,33.64c4.56,17.07 0.2,32.19 -11.33,45.43c0.81,1.37 2.23,1.25 3.41,1.58c17.73,4.93 30.93,20.98 31.6,39.29c0.47,12.8 0.11,25.64 0.25,38.46z" class="st0"/>
   <path id="svg_7" d="m451.27,503.64c0.05,4.07 -2.12,6.44 -5.34,8.26l-26.99,0c-3.69,-1.05 -5.84,-3.37 -6.11,-7.28l0,-0.04c0,-0.09 0.01,-0.17 0.02,-0.26l0,-0.01c0.2,-3.54 1.98,-6.05 5.05,-7.74c0.05,-0.03 0.11,-0.06 0.16,-0.09c0.24,-0.1 0.48,-0.2 0.73,-0.28c3.61,-1.27 7.4,-0.69 11.11,-0.75c3.12,-0.05 4.55,-1.33 4.54,-4.49c-0.03,-8.81 0.36,-17.64 -0.14,-26.43c-0.58,-10.11 -9,-19.83 -19.12,-22.62c-2.97,-0.83 -6.01,-1.39 -9.09,-1.54c-0.58,-0.03 -1.16,-0.05 -1.74,-0.05l-0.17,0c-16.07,-0.02 -32.15,-0.01 -48.23,-0.01c-1.67,0 -3.31,0.12 -4.9,0.7c-15.57,3.78 -23.44,13.58 -23.6,29.49c-0.06,6.32 -0.06,12.63 0,18.95c0.06,5.44 0.53,5.94 6.06,5.97c16.78,0.07 33.56,-0.07 50.34,0.07c7.18,0.06 10.04,2.36 11.4,8.55l0,0.29c0.01,0.1 0,0.21 -0.01,0.32c-0.1,4.01 -2.54,6.16 -6.29,7.25l-323.88,0c-3.53,-2.97 -4.53,-6.74 -4.4,-11.3c0.27,-9.82 0.07,-19.65 0.08,-29.48c0.04,-23.71 11.14,-38.72 33.81,-45.76c0.43,-0.13 0.83,-0.36 1.36,-0.6c0.05,-0.03 0.09,-0.05 0.14,-0.07c-0.03,-0.04 -0.06,-0.07 -0.08,-0.11c-15.05,-18.62 -18.41,-38.77 -5.09,-59.22c13.37,-20.54 33.24,-25.59 56.81,-19.23c-0.94,-12.33 -1.82,-24.4 -2.8,-36.46c-2.19,-26.88 -4.52,-53.75 -6.54,-80.64c-0.27,-3.6 -1.47,-4.16 -4.72,-4.15c-9.75,0.04 -16.26,-6.51 -16.45,-16.19c-0.11,-5 -0.12,-10 0,-14.99c0.2,-8.47 5.38,-14.66 13.72,-15.7c3.24,-0.41 3.13,-1.98 3.12,-4.28c-0.04,-16.15 0.08,-32.31 -0.09,-48.46c-0.05,-4.14 1.07,-7.3 4.11,-10.17c5.92,-5.61 11.55,-11.53 17.36,-17.26c4.28,-4.22 8.4,-4.58 11.78,-1.18c3.24,3.25 2.81,7.69 -1.26,11.83c-4.79,4.86 -9.58,9.74 -14.52,14.45c-1.84,1.76 -2.48,3.58 -2.46,6.11c0.11,14.65 0.17,29.31 -0.03,43.96c-0.04,3.54 0.54,4.95 4.53,4.8c9.49,-0.34 18.99,-0.25 28.48,-0.03c3.37,0.08 4.41,-1 4.07,-4.23c-0.25,-2.48 0.05,-5 -0.07,-7.49c-0.24,-5.16 2.12,-8.18 7.18,-9.13c0.1,-0.02 0.19,-0.03 0.29,-0.04c4.61,-0.71 7.7,1.59 8.75,6.6c0.62,2.96 0.34,5.98 0.42,8.96c0.07,2.63 1.2,4.06 3.92,4.03c0.33,-0.01 0.66,0.01 1,0.03c8.64,0.45 9,0.11 9.01,-8.55c0.01,-6.32 0,-12.64 0.01,-18.97c0.01,-1.83 -0.01,-3.66 0.35,-5.47c1.01,-5.09 4.73,-8.48 9.11,-8.35c4.73,0.15 8.17,3.76 8.42,9.39c0.36,8.31 0.06,16.64 0.14,24.96c0.06,6.47 0.47,6.95 6.68,6.99c9.98,0.06 19.96,0.07 29.94,-0.01c5.62,-0.04 6.23,-0.69 6.31,-6.39c0.08,-6.99 0.01,-13.98 0.02,-20.96c0.01,-1.67 -0.04,-3.33 0.14,-4.99c0.83,-7.91 6.73,-10.96 13.66,-7.11c0.05,0.02 0.1,0.05 0.15,0.08c0.23,0.2 0.44,0.4 0.64,0.61c2.5,2.51 3.35,5.68 3.37,9.22c0.02,7.49 -0.01,14.98 0.02,22.47c0.03,6.97 0.25,7.17 7.39,7.14c0.83,-0.01 1.67,-0.05 2.5,-0.02c2.99,0.09 4.14,-1.5 4.14,-4.33c-0.02,-16.64 0.61,-33.31 -0.23,-49.92c-0.69,-13.58 -12.1,-24.97 -28.12,-24.85c0,0 0,0 -0.01,0c-0.33,0 -0.67,0.01 -1,0.03l-0.01,0c-0.32,0 -0.65,0.02 -0.98,0.04c-16.28,-0.01 -32.55,-0.04 -48.82,0.01c-15.78,0.05 -27.36,11.38 -27.83,27.13c-0.07,2.32 0.09,4.66 -0.58,6.92c-1.28,4.29 -4.14,6.23 -8.3,5.67c-0.16,-0.02 -0.33,-0.05 -0.5,-0.08c-5.36,-0.99 -7.2,-4.34 -7.22,-9.62c-0.06,-23.29 12.46,-39.9 35.22,-45.85c0.11,-0.03 0.22,-0.06 0.33,-0.09c-0.07,-0.08 -0.14,-0.17 -0.2,-0.25l0,-0.01c-14.07,-17.2 -17.77,-35.93 -7.25,-56c7.11,-13.55 18.6,-21.78 33.89,-24.34c0.11,-0.07 0.23,-0.13 0.34,-0.18c1.52,-0.66 3.34,0.4 4.78,-0.72l6,0c1.45,1.12 3.29,0.04 4.82,0.74c0.1,0.04 0.2,0.1 0.3,0.16c33.83,4.23 51.21,45.86 31.05,74.39c-1.41,2 -2.95,3.9 -4.62,6.1l0,0.01l0.01,0c17.01,4.38 28.48,14.32 33.71,30.95c1.42,4.5 1.8,9.11 1.79,13.79c-0.03,15.49 0.15,30.98 -0.12,46.46c-0.07,4.27 1.24,5.23 5.29,5.09c9.32,-0.31 18.65,-0.23 27.97,-0.02c3.14,0.07 3.9,-0.88 3.87,-3.92c-0.15,-15.15 -0.12,-30.3 -0.02,-45.46c0.02,-2.2 -0.69,-3.72 -2.22,-5.2c-5,-4.88 -9.94,-9.83 -14.84,-14.81c-4.03,-4.1 -4.4,-8.61 -1.09,-11.82c3.43,-3.33 7.45,-2.91 11.78,1.35c5.92,5.85 11.73,11.83 17.71,17.62c2.56,2.48 3.69,5.23 3.66,8.84c-0.13,16.32 -0.02,32.64 -0.1,48.96c-0.02,2.79 0.13,4.38 3.75,4.75c7.39,0.77 12.73,7.03 13.07,14.72c0.24,5.65 0.26,11.33 0,16.98c-0.42,8.98 -7.12,15.19 -16.5,15.09c-3.41,-0.04 -4.36,0.82 -4.62,4.25c-2.95,38 -6.04,75.99 -9.24,113.97c-0.36,4.3 1.62,2.7 3.73,2.15c26.31,-6.9 52.28,7.74 59.2,33.64c4.56,17.07 0.2,32.19 -11.33,45.43c0.81,1.37 2.23,1.25 3.41,1.58c17.73,4.93 30.93,20.98 31.6,39.29c0.47,12.8 0.11,25.64 0.25,38.46z"/>
   <path id="svg_8" fill="#FDFDFD" d="m388.95,511.9c2.66,-1.75 4.97,-3.76 5.22,-7.25c6.57,-2.1 13.15,-2.05 19.73,-0.02c0.45,3.28 2.62,5.36 5.04,7.27c-10,0 -19.99,0 -29.99,0z" class="st1"/>
   <path id="svg_9" fill="#535353" d="m253,0.1c-1.45,1.24 -3.12,1.23 -4.84,0.95c-0.09,-0.02 -0.19,-0.03 -0.28,-0.05c0.25,-0.28 0.29,-0.58 0.12,-0.9l5,0z" class="st2"/>
   <path id="svg_10" fill="#535353" d="m264.12,1c-0.08,0.02 -0.17,0.03 -0.25,0.04c-1.73,0.29 -3.41,0.31 -4.87,-0.94l5,0c-0.17,0.32 -0.13,0.63 0.12,0.9z" class="st2"/>
   <path id="svg_11" fill="#E075A4" d="m293.23,134.64c-0.04,1.12 0,2.51 -1.16,3.09c-0.25,0.13 -0.55,0.22 -0.93,0.26c-7.73,-3.3 -12.22,-0.39 -12.26,8.03c-0.04,9.32 -0.1,18.65 0.05,27.97c0.04,2.77 -0.73,3.8 -3.63,3.77c-12.82,-0.12 -25.64,-0.15 -38.46,0.02c-3.27,0.04 -3.81,-1.31 -3.76,-4.15c0.13,-9.32 0.08,-18.64 0.04,-27.97c-0.03,-5.85 -2.83,-9.27 -7.44,-9.25c-4.56,0.02 -7.49,3.55 -7.53,9.3c-0.06,9.15 -0.14,18.31 0.05,27.47c0.07,3.26 -0.53,5.01 -4.28,4.58c-4.1,-0.47 -9.28,1.64 -12.09,-0.82c-2.67,-2.34 -0.67,-7.53 -0.85,-11.46c-0.23,-5.09 -2.72,-7.9 -7.68,-8.53c-0.06,-0.01 -0.12,-0.02 -0.19,-0.03l0,-19.77c0.13,-0.03 0.26,-0.06 0.38,-0.09c6.07,-1.45 7.4,-3.39 7.46,-10.48c0.13,-15.56 8.55,-26.74 22.64,-30.02c1.12,-0.26 2.29,-0.5 3.44,-0.5c17.32,0.01 34.64,0.05 51.96,0.09c0.75,0.4 1.47,0.83 2.14,1.29c0.01,0 0.01,0 0.01,0c7.28,4.88 10.24,12.58 11.86,20.9c1.04,5.32 0.43,10.86 0.23,16.3z" class="st3"/>
   <path id="svg_12" fill="#C17E4E" d="m321.97,438.91c-0.98,1.31 -1.96,2.63 -3.34,4.48c-7.14,-9.68 -16.3,-15.84 -27.6,-18.37c0.1,-1.9 1.35,-2.64 2.15,-3.64c12.75,-15.91 14.26,-37.2 3.84,-54.66c-10.28,-17.22 -30.56,-26.33 -50.06,-22.5c-19.74,3.88 -34.8,19.48 -38.11,39.44c-2.35,14.16 1.3,26.75 10.18,37.8c2.29,2.84 2.28,3.6 -1.42,4.58c-10.01,2.64 -17.77,8.77 -24.23,17.34c-7.16,-9.73 -16.4,-15.89 -28.28,-18.55c7.71,-8.68 12.4,-18.17 13.3,-29.4c1.09,-13.68 -2.87,-25.64 -11.95,-35.85c-2,-2.25 -3.04,-4.56 -3.27,-7.54c-2.59,-32.85 -5.27,-65.7 -7.9,-98.55c-0.17,-2.15 -0.1,-4.32 -0.14,-6.48c1.91,-1.76 4.32,-1.57 6.63,-1.57c53.97,-0.03 107.94,-0.06 161.91,0.01c10.66,0.01 15.27,5.63 14.38,16.23c-1.94,23.05 -3.76,46.11 -5.59,69.17c-1.79,22.56 -3.57,45.12 -5.52,67.67c-0.87,10.11 -1.8,20.22 -2.35,30.36c-0.23,3.56 -0.73,6.95 -2.63,10.03z" class="st4"/>
   <path id="svg_13" fill="#B26D3C" d="m321.97,438.91c1.3,-14.48 2.66,-28.96 3.88,-43.45c0.82,-9.73 1.35,-19.48 2.14,-29.21c1.22,-15.16 2.56,-30.3 3.83,-45.46c0.74,-8.9 1.6,-17.8 2.11,-26.71c0.66,-11.56 1.49,-23.1 2.96,-34.58c0.92,-7.17 -5.51,-12.71 -11.97,-12.67c-56.6,0.31 -113.2,0.18 -169.81,0.19c-0.63,-6.11 -1.17,-12.22 -1.92,-18.32c-0.34,-2.77 0.39,-3.84 3.37,-3.78c8.14,0.17 16.29,0.06 24.43,0.06c37.73,0 75.45,-0.05 113.18,0.05c5.23,0.01 8.62,-1.85 9.91,-7.04c5.93,-2.62 12.08,-1.14 18.16,-1.01c0.59,0.23 1.1,0.57 1.55,1.02c1.12,5.03 4.32,7.11 9.39,7.02c7.33,-0.13 14.66,0.12 21.98,-0.1c3.24,-0.1 3.89,1.02 3.64,4.03c-3.39,41.12 -6.69,82.24 -10,123.37c-0.18,2.18 -0.45,4.29 -2.1,5.97c-16.82,17.02 -18.65,45.4 0.02,66.54c-9.79,2.25 -17.92,7.08 -24.75,14.08z" class="st5"/>
   <path id="svg_14" fill="#5391F8" d="m413.9,504.62c-6.58,0.01 -13.15,0.02 -19.73,0.03c-1.24,-6 -3.3,-7.73 -9.56,-7.74c-17.99,-0.03 -35.97,-0.12 -53.96,0.08c-3.69,0.04 -4.85,-0.82 -4.7,-4.64c0.32,-8.31 -0.07,-16.65 0.16,-24.98c0.4,-14.37 11.25,-26.32 24.69,-27.53c9.12,-0.92 18.26,-0.25 27.38,-0.39c7.65,-0.12 15.31,0.12 22.96,-0.09c3.91,-0.11 6.6,1.48 8.99,4.35c5.76,6.93 8.62,14.99 9.15,23.83c0.5,8.47 0.18,16.97 0.13,25.45c-0.01,1.71 -0.43,3.29 -1.49,4.67c-2.37,1.74 -3.62,4.11 -4.02,6.96z" class="st6"/>
   <path id="svg_15" fill="#5391F8" d="m167.03,496.74c-29.4,0.05 -58.8,0.09 -88.2,0.21c-2.4,0.01 -3.15,-0.76 -3.11,-3.13c0.16,-9.63 -0.21,-19.29 0.32,-28.89c0.72,-13.05 11.96,-24.14 24.71,-25.12c12.63,-0.83 25.27,-0.15 37.9,-0.36c3,-0.05 6.04,0.35 8.98,-0.08c6.56,-0.95 10.76,2.3 14.23,7.21c3.74,5.28 6.12,11.21 6.51,17.58c0.57,9.3 0.21,18.64 0.14,27.96c-0.02,1.66 -0.17,3.34 -1.48,4.62z" class="st6"/>
   <path id="svg_16" fill="#5391F8" d="m291.98,496.74c-29.26,0.05 -58.51,0.07 -87.77,0.22c-2.67,0.01 -3.37,-0.83 -3.32,-3.4c0.15,-9.14 -0.14,-18.29 0.16,-27.43c0.44,-13.47 11.66,-25.23 24.71,-26.31c7.78,-0.88 15.59,-0.25 23.39,-0.36c9.15,-0.12 18.3,0.05 27.44,-0.07c3.28,-0.04 5.78,1.06 7.79,3.58c5.66,7.09 9.32,14.87 9.16,24.19c-0.14,7.65 0.01,15.3 -0.05,22.95c-0.01,2.31 0.3,4.73 -1.51,6.63z" class="st6"/>
   <path id="svg_17" fill="#C17D4E" d="m323.79,218c-0.28,0 -0.56,0 -0.84,-0.01c-4.5,-1.08 -9.07,-0.19 -13.59,-0.5c-1.76,-0.12 -3.59,0.46 -5.28,-0.47c-1.29,-5.54 -4.99,-7.11 -10.36,-7.1c-51.77,0.1 -103.54,0 -155.31,0.17c-4.79,0.02 -6.65,-0.77 -6.41,-6.13c0.48,-11.2 0.14,-11.21 11.25,-11.21c70.75,0 141.5,0 212.24,0.01c2.16,0 4.32,0.14 6.47,0.22c1.85,5.75 3.4,11.48 -0.99,16.87c-9.3,0.05 -18.59,0.07 -27.89,0.16c-6.05,0.04 -8.1,1.84 -9.29,7.99z" class="st7"/>
   <path id="svg_18" fill="#FDD1A3" d="m233,71.09c-13.12,-12.39 -13.23,-33.34 -0.24,-46.32c12.99,-12.98 34.09,-12.89 46.31,0.18c1.53,2.25 2.36,4.62 2.27,7.44c-0.66,20.18 -16.3,37.4 -36.42,40.14c-4.17,0.57 -8.24,1.49 -11.92,-1.44z" class="st8"/>
   <path id="svg_19" fill="#FDD1A3" d="m233.74,415.04c-13.54,-11.79 -14.27,-32.98 -1.6,-46.35c12.71,-13.41 34.14,-13.67 46.8,-0.57c3.57,4.7 2.23,9.79 1.14,14.85c-3.75,17.52 -16.95,30.13 -34.58,32.92c-3.94,0.63 -7.95,0.99 -11.76,-0.85z" class="st8"/>
   <path id="svg_20" fill="#FDD1A3" d="m358.86,414.97c-13.62,-11.93 -14.09,-33.54 -1.03,-46.73c13.23,-13.35 35.17,-13.01 47.1,0.72c2.86,6.1 1.05,12.09 -0.62,18c-4.8,17.07 -22.03,29.71 -39.7,29.34c-2.03,-0.03 -3.98,-0.25 -5.75,-1.33z" class="st8"/>
   <path id="svg_21" fill="#FDD1A3" d="m108.59,415.11c-13.62,-11.6 -14.3,-33.34 -1.45,-46.64c12.97,-13.42 34.65,-13.35 47.04,0.16c2.06,5.36 1.58,10.81 0.29,16.19c-4.01,16.64 -18.65,29.49 -35.57,31.33c-3.5,0.39 -6.98,0.36 -10.31,-1.04z" class="st8"/>
   <path id="svg_22" fill="#DD5790" d="m291.14,137.99c2.17,-14.09 1.82,-27.57 -9.21,-38.52c-1.05,-1.04 -1.96,-2.21 -2.94,-3.32c18.73,-1.16 31.96,11.14 32.05,29.88c0.07,15.64 -0.08,31.27 0.09,46.91c0.04,3.48 -0.51,4.94 -4.53,4.9c-12.73,-0.14 -12.73,0.05 -12.73,-12.61c0,-6.15 -0.11,-12.31 0.04,-18.46c0.08,-3.32 -0.56,-6.26 -2.77,-8.78z" class="st9"/>
   <path id="svg_23" fill="#4980F7" d="m167.03,496.74c0,-9.48 -0.01,-18.95 0.01,-28.43c0.02,-10.11 -3.31,-18.75 -10.79,-25.78c-1.98,-1.86 -3.93,-2.65 -6.62,-2.64c-16.29,0.05 -32.58,-0.04 -48.88,-0.08c0.14,-0.09 0.28,-0.24 0.43,-0.25c20.61,-0.63 41.29,-1.73 61.8,0.52c12.76,1.4 22.31,13.4 22.85,26.63c0.37,8.98 0,17.99 0.18,26.98c0.06,2.79 -1.06,3.34 -3.51,3.25c-5.15,-0.18 -10.32,-0.15 -15.47,-0.2z" class="st10"/>
   <path id="svg_24" fill="#4980F7" d="m291.98,496.74c0,-9.64 -0.25,-19.28 0.08,-28.9c0.33,-9.76 -3.67,-17.62 -9.55,-24.89c-1.8,-2.22 -3.97,-3.09 -6.91,-3.08c-16.61,0.09 -33.22,-0.01 -49.83,-0.05c0.14,-0.08 0.28,-0.24 0.43,-0.24c20.76,-0.65 41.57,-1.75 62.24,0.53c12.09,1.33 21.9,13.19 22.45,25.32c0.42,9.47 0.07,18.96 0.21,28.45c0.04,2.44 -0.81,3.14 -3.15,3.06c-5.32,-0.18 -10.65,-0.15 -15.97,-0.2z" class="st10"/>
   <path id="svg_25" fill="#4980F7" d="m417.93,497.68c-0.44,-11.93 0.97,-23.9 -0.95,-35.8c-1.3,-8.03 -5.21,-14.53 -10.79,-20.26c-1.77,-1.81 -3.83,-1.68 -5.99,-1.68c-16.47,-0.02 -32.93,-0.06 -49.4,-0.08c1.84,-1.09 3.88,-0.75 5.85,-0.76c16.3,-0.03 32.61,-0.07 48.91,0.02c18.6,0.11 30.52,12.05 30.67,30.6c0.06,7.65 -0.19,15.31 0.1,22.95c0.14,3.67 -1.18,4.39 -4.53,4.32c-4.62,-0.09 -9.32,-0.77 -13.87,0.69z" class="st10"/>
   <path id="svg_26" fill="#FEBC85" d="m108.59,415.11c9.23,0.25 18.41,-0.56 26.24,-5.76c12.27,-8.15 19.79,-19.3 19.23,-34.74c-0.07,-1.98 0.07,-3.97 0.11,-5.96c12.63,12.23 12.65,32.86 0.05,45.67c-12.61,12.82 -33.39,13.18 -45.63,0.79z" class="st11"/>
   <path id="svg_27" fill="#FEBC85" d="m233,71.09c25.3,3.72 44.61,-14.23 46.98,-37.8c0.29,-2.84 -0.28,-5.59 -0.91,-8.34c12.97,12.19 13.14,33.09 0.37,46.07c-12.88,13.1 -33.97,13.12 -46.44,0.07z" class="st11"/>
   <path id="svg_28" fill="#FEBC85" d="m233.74,415.04c11.57,0.48 22.17,-1.8 31.41,-9.49c7.48,-6.22 11.81,-13.96 13.82,-23.29c1.02,-4.75 1.43,-9.43 -0.02,-14.15c13.15,12.69 13.31,33.24 0.34,46.31c-12.61,12.75 -33.5,13.03 -45.55,0.62z" class="st11"/>
   <path id="svg_29" fill="#FEBC85" d="m358.86,414.97c12.55,0.75 24.05,-2 33.37,-10.89c9.99,-9.53 13.58,-21.56 12.7,-35.11c12.51,12.45 12.13,33.36 -0.85,45.94c-12.69,12.3 -33.36,12.33 -45.22,0.06z" class="st11"/>
   <path id="svg_30" fill="#B26C3C" d="m360.98,209.84c2.1,-5.52 0.46,-11.26 0.99,-16.87c4.81,-0.07 9.63,-0.06 14.44,-0.24c2.54,-0.09 3.38,0.82 3.52,3.42c0.73,13.83 0.8,13.84 -12.98,13.82c-1.99,0.01 -3.98,-0.09 -5.97,-0.13z" class="st12"/>
   <path id="svg_31" fill="#BF8258" d="m304.09,217.01c6.28,0.55 12.67,-1.16 18.87,0.98c-6.29,0 -12.58,0 -18.87,0c0,-0.32 0,-0.65 0,-0.98z" class="st13"/>
  </g>
 </g>
</svg>