<svg width="512" height="512" xmlns="http://www.w3.org/2000/svg" xml:space="preserve" version="1.1">

 <g>
  <title>Layer 1</title>
  <g id="svg_1">
   <path id="svg_2" fill="#FEFEFE" d="m294.88,456.83c-1.13,24.73 -21.53,42.11 -45.27,41.44c-22.67,-0.63 -41.83,-20.04 -41.96,-42.67c-0.12,-19.49 0.06,-38.99 -0.06,-58.48c-0.08,-13.18 -3.8,-25.15 -11.79,-35.89c-19.08,-25.63 -57.82,-29.53 -81.5,-8.03c-8.77,7.97 -14.89,17.54 -17.31,29.15c-1.05,5.03 -3.68,7.19 -8.49,8.31c-27.35,6.39 -47.39,28.25 -47.69,58.95c-0.27,27.67 17.04,50.61 44.77,58.83c2.33,0.68 5.53,0.08 6.46,3.47c-5.36,-2.48 -11.28,-3.2 -16.68,-5.79c-25.17,-12.06 -38.79,-37.14 -35.24,-65.58c3.18,-25.48 24.09,-46.91 50.59,-51.66c2.73,-0.5 3.83,-1.59 4.34,-4.36c5.15,-27.89 29.58,-47.4 58.16,-46.65c27.99,0.74 51.19,21.75 54.93,49.85c1.59,11.94 0.48,23.95 0.69,35.93c0.17,10.16 -0.07,20.33 0.06,30.49c0.31,23.68 18.35,42.31 41.28,42.75c23.54,0.45 43.01,-17.56 43.43,-41.58c0.58,-33.14 0.12,-66.3 0.27,-99.45c0.02,-3.59 -1.95,-3.55 -4.36,-3.7c-25.99,-1.62 -50.51,-8.61 -72.79,-22c-55.31,-33.24 -84.4,-82.25 -86.73,-146.89c-0.25,-7.14 2.24,-9.76 9.42,-9.58c3.79,0.1 4.65,-1 4.64,-4.72c-0.15,-35.98 -0.11,-71.97 -0.08,-107.95c0.01,-18.54 9.86,-31.16 27.86,-35.67c1.72,-0.43 2.96,-0.99 4.02,-2.46c7.53,-10.37 16.67,-18.74 29.15,-22.81c0.15,1.86 -1.41,2.11 -2.57,2.52c-9.98,3.57 -17.12,10.75 -23.54,18.74c-2.4,2.99 -5.07,4.94 -8.83,5.98c-15.25,4.2 -24.61,16.54 -24.64,32.41c-0.07,34.65 -0.02,69.3 -0.02,103.96c0,1.83 -0.02,3.66 -0.04,5.49c-0.05,3.77 -1.77,5.75 -5.67,6.19c-7.51,0.84 -8.42,1.77 -8.25,9.44c0.94,40.69 14.73,76.55 41.28,107.34c28.91,33.53 65.67,52.52 109.48,58.13c2.49,0.32 4.98,0.26 7.48,0.4c3.61,0.21 5.55,2.12 5.56,5.71c0.12,33.49 1.16,67.01 -0.36,100.44z" class="st0"/>
   <path id="svg_3" fill="#FEFEFE" d="m472.56,183.4c-1.55,79.52 -55.81,146.79 -133.1,164.94c-8.59,2.01 -17.28,3.62 -26.13,3.73c-3.68,0.05 -4.65,1.31 -4.63,4.99c0.15,32.15 0.17,64.29 0.06,96.43c-0.09,26.1 -16.11,48.06 -40.48,55.74c-3.38,1.07 -6.87,1.8 -10.3,2.68c0.13,-2.45 2.23,-2.17 3.69,-2.43c26.49,-4.72 46.13,-29.28 45.94,-58.04c-0.2,-30.47 -0.06,-60.94 -0.04,-91.41c0.01,-8.42 0.79,-8.78 8.99,-9.53c29.79,-2.72 57.2,-12.36 81.59,-29.8c41.86,-29.93 65.68,-70.7 72.09,-121.69c0.62,-4.94 0.5,-9.95 0.99,-14.93c0.56,-5.64 -2.07,-8.24 -7.72,-8.66c-6.38,-0.47 -6.98,-1.02 -6.98,-7.57c-0.05,-34.96 -0.36,-69.93 0.12,-104.89c0.24,-18.22 -10.15,-32.45 -26.62,-36.17c-2.59,-0.59 -4.44,-2.16 -6.04,-4.16c-7.14,-8.95 -14.89,-17.11 -26.41,-20.43c-0.93,-0.27 -1.85,-0.83 -1.66,-2.12c12.67,3.39 21.65,11.74 29.26,21.86c1.47,1.96 3.04,3.04 5.5,3.64c16.82,4.04 27.15,17.27 27.18,34.72c0.06,35.98 0.1,71.96 -0.09,107.93c-0.02,4.3 0.84,5.71 5.37,5.49c7.02,-0.35 9.56,2.64 9.42,9.68z" class="st0"/>
   <path id="svg_4" fill="#FEFEFE" d="m247.99,176.74c-3.25,9.17 -11.02,14.71 -20.39,14.54c-13.89,-0.25 -27.29,-13.41 -29.65,-29.01c-0.65,-4.33 -0.69,-8.64 0.34,-12.87c3.3,-13.53 16.36,-20.29 29.39,-15.33c16.02,6.1 25.91,26.86 20.31,42.67z" class="st0"/>
   <path id="svg_5" fill="#FEFEFE" d="m253.86,87.74c7.3,-8.76 18.05,-9.79 26.98,-2.6c7.41,5.97 12.06,16.51 12.09,29.26c-0.18,5.98 -1.86,13.33 -7.04,19.49c-6.94,8.26 -17.08,9.49 -25.82,3.19c-14.34,-10.33 -17.54,-35.72 -6.21,-49.34z" class="st0"/>
   <path id="svg_6" fill="#FEFEFE" d="m314.72,130.65c-8.05,-13.19 -5.56,-33.1 5.47,-43.87c10.07,-9.83 23.37,-8.19 30.87,3.81c3.45,5.52 4.71,11.64 4.91,18.36c-0.29,9.33 -2.97,18.08 -9.74,25.17c-10.05,10.52 -23.95,8.93 -31.51,-3.47z" class="st0"/>
   <path id="svg_7" fill="#FEFEFE" d="m301.71,149.17c15.26,0.12 25.95,7.98 32.26,21.83c4.93,10.83 11.41,20.49 20.06,28.85c11.37,10.99 13.48,28.63 5.75,42.29c-8.08,14.3 -25.28,21.53 -42.02,17.46c-4.71,-1.14 -9.45,-1.83 -15.42,-2.21c-5.19,-0.03 -11.39,0.88 -17.61,2.17c-15.69,3.23 -29.2,-0.94 -39,-13.81c-8.98,-11.8 -9.39,-24.8 -2.79,-38.01c1.42,-2.84 3.27,-5.44 5.59,-7.61c8.88,-8.31 15.31,-18.3 20.33,-29.28c6.44,-14.06 17.37,-21.81 32.85,-21.68z" class="st0"/>
   <path id="svg_8" fill="#FEFEFE" d="m352.75,166.63c0.88,-13.19 6.56,-24.36 18.97,-31.14c15.33,-8.37 32.11,1.04 33.09,18.48c0.75,13.4 -4.51,24.33 -15.36,32.24c-7.64,5.57 -16.14,7.18 -24.82,2.66c-8.55,-4.46 -11.49,-12.37 -11.88,-22.24z" class="st0"/>
   <path id="svg_9" fill="#FEFEFE" d="m444.26,122.19c0,15.16 0.03,30.31 -0.01,45.47c-0.03,6.9 -0.58,7.43 -7.28,7.72c-5.99,0.26 -7.29,1.38 -7.68,7.39c-1.26,19.46 -4.94,38.28 -14.11,55.74c-20.08,38.24 -51.38,61.35 -93.88,68.74c-52.52,9.12 -104.95,-17.12 -131.03,-62.96c-2.43,-4.27 -5.33,-7.13 -10.35,-7.43c-0.16,-0.16 -0.32,-0.31 -0.48,-0.48c-0.03,-0.02 -0.05,-0.05 -0.08,-0.08c-4.31,-4.38 -6.45,-9.57 -5.91,-15.78c0,-0.04 0,-0.09 0.01,-0.13c0.02,-0.23 0.04,-0.47 0.07,-0.7c3.57,-3.54 3.88,-7.55 2.76,-12.37c-1.72,-7.44 -2.77,-15.03 -2.75,-22.75c0.01,-6.94 -1.97,-8.76 -8.91,-9.14c-6.06,-0.33 -6.97,-1.11 -6.98,-7.12c-0.07,-36.46 -0.02,-72.91 -0.05,-109.37c0,-8.04 4.26,-13.46 10.47,-17.64c4.02,-2.71 6.49,-2.05 9.96,1.78c5.91,6.53 11.61,13.28 19.75,17.32c19.24,9.55 42.22,-4.26 42.78,-25.78c0.42,-16 -6.79,-26.43 -21.95,-31.86c-1.42,-0.51 -3.52,-0.3 -3.61,-2.68c1.2,1.48 3.06,0.88 4.58,1.42c12.51,4.48 20.44,13.07 22.35,26.24c2.03,13.99 -3.17,25.26 -15.3,32.67c-11.7,7.14 -23.41,6.26 -34.58,-1.59c-6.05,-4.25 -11.24,-9.45 -15.4,-15.51c-2.12,-3.09 -4.01,-3.1 -6.91,-1.53c-6.53,3.52 -10.63,8.88 -10.67,16.25c-0.2,37.45 -0.08,74.91 -0.18,112.36c0,2.78 1.03,3.49 3.5,3.22c1.15,-0.13 2.32,-0.04 3.49,-0.01c6.2,0.16 8.97,2.64 9.01,8.73c0.06,9.37 1.22,18.6 3.33,27.68c1.11,4.78 -0.08,8.13 -4.45,10.34c0.98,5.65 2.97,10.91 5.96,15.8c4.94,-1.06 8.03,0.93 10.53,5.32c21.07,37.12 52.73,59.54 95.04,65.08c67.2,8.8 126.65,-36.79 139.67,-100.05c1.62,-7.86 2.27,-15.8 2.63,-23.79c0.32,-6.96 2.53,-9.42 9.58,-8.98c5.06,0.31 5.84,-1.45 5.82,-6.07c-0.21,-35.64 -0.14,-71.27 -0.1,-106.9c0.01,-8.59 -3.41,-15.02 -11.13,-19.1c-2.74,-1.46 -4.53,-1.37 -6.51,1.47c-4.19,6.04 -9.33,11.3 -15.36,15.57c-11.31,8 -23.08,8.77 -35.04,1.61c-11.52,-6.9 -17.4,-19.72 -14.92,-33.35c2.46,-13.54 10.82,-22.04 23.99,-25.86c0.75,-0.22 1.71,0.07 2,-1.02c-0.16,2.59 -2.48,2.4 -4.03,2.9c-12.57,4.09 -21.89,16.9 -21.21,31.29c0.69,14.56 11.28,26.11 25.46,28.9c10.2,2.01 18.7,-1.78 26.21,-8.17c4.17,-3.55 8.01,-7.51 11.38,-11.9c3.31,-4.31 5.69,-4.78 10.16,-1.76c6.8,4.6 10.39,11.01 10.37,19.39c-0.04,20.48 -0.01,40.97 -0.01,61.46z" class="st0"/>
   <path id="svg_10" d="m472.56,183.4c-1.55,79.52 -55.81,146.79 -133.1,164.94c-8.59,2.01 -17.28,3.62 -26.13,3.73c-3.68,0.05 -4.65,1.31 -4.63,4.99c0.15,32.15 0.17,64.29 0.06,96.43c-0.09,26.1 -16.11,48.06 -40.48,55.74c-3.38,1.07 -6.87,1.8 -10.3,2.68l-14.99,0c-28.49,-2.6 -46.63,-26.86 -49.81,-48.57c-0.39,-2.66 -0.52,-5.3 -0.52,-7.97c0,-19.32 0.13,-38.65 -0.04,-57.97c-0.12,-14.3 -5.46,-26.21 -16.9,-35.18c-21.12,-16.55 -54.51,-6.44 -62.89,19.09c-1.69,5.15 -1.52,5.43 3.59,6.93c25.9,7.56 42.35,24.4 47.15,50.94c6.03,33.37 -14.92,61.85 -42.81,71.05c-3.81,1.25 -7.88,0.65 -11.72,1.68l-17,0c-5.36,-2.48 -11.28,-3.2 -16.68,-5.79c-25.17,-12.06 -38.79,-37.14 -35.24,-65.58c3.18,-25.48 24.09,-46.91 50.59,-51.66c2.73,-0.5 3.83,-1.59 4.34,-4.36c5.15,-27.89 29.58,-47.4 58.16,-46.65c27.99,0.74 51.19,21.75 54.93,49.85c1.59,11.94 0.48,23.95 0.69,35.93c0.17,10.16 -0.07,20.33 0.06,30.49c0.31,23.68 18.35,42.31 41.28,42.75c23.54,0.45 43.01,-17.56 43.43,-41.58c0.58,-33.14 0.12,-66.3 0.27,-99.45c0.02,-3.59 -1.95,-3.55 -4.36,-3.7c-25.99,-1.62 -50.51,-8.61 -72.79,-22c-55.31,-33.24 -84.4,-82.25 -86.73,-146.89c-0.25,-7.14 2.24,-9.76 9.42,-9.58c3.79,0.1 4.65,-1 4.64,-4.72c-0.15,-35.98 -0.11,-71.97 -0.08,-107.95c0.01,-18.54 9.86,-31.16 27.86,-35.67c1.72,-0.43 2.96,-0.99 4.02,-2.46c7.53,-10.37 16.67,-18.74 29.15,-22.81l10,0c1.2,1.48 3.06,0.88 4.58,1.42c12.51,4.48 20.44,13.07 22.35,26.24c2.03,13.99 -3.17,25.26 -15.3,32.67c-11.7,7.14 -23.41,6.26 -34.58,-1.59c-6.05,-4.25 -11.24,-9.45 -15.4,-15.51c-2.12,-3.09 -4.01,-3.1 -6.91,-1.53c-6.53,3.52 -10.63,8.88 -10.67,16.25c-0.2,37.45 -0.08,74.91 -0.18,112.36c0,2.78 1.03,3.49 3.5,3.22c1.15,-0.13 2.32,-0.04 3.49,-0.01c6.2,0.16 8.97,2.64 9.01,8.73c0.06,9.37 1.22,18.6 3.33,27.68c1.11,4.78 -0.08,8.13 -4.45,10.34l-0.01,0c-0.1,0.06 -0.21,0.12 -0.31,0.17c-4,2.13 -7.8,0.73 -9.92,-4.02c-2.28,-5.06 -2.79,-10.6 -3.73,-16.01c-0.17,-0.98 -0.15,-1.99 -0.27,-2.99c-0.86,-6.93 -3.57,-8.7 -10.45,-7.05c-2.53,0.6 -2.43,2.22 -2.25,4.18c2.59,29.28 12.66,55.79 30.33,79.21c26.86,35.58 62.7,55.91 106.87,61.6c14.3,1.84 28.54,1.32 42.71,-1.34c1.09,-0.17 2.17,-0.35 3.25,-0.55c3.29,-0.58 6.53,-1.27 9.72,-2.07c21.9,-5.43 41.67,-15.65 59.38,-30.18c32.56,-26.71 50.85,-61.38 56.29,-102.99c0.86,-6.57 0.39,-7.68 -4.59,-7.93c-0.28,-0.02 -0.58,-0.03 -0.89,-0.04l-0.06,0c-6.12,0.07 -5.99,0.08 -6.76,6.2c-3.72,29.34 -14.6,55.51 -34.17,77.97c-24.3,27.88 -54.8,44.35 -91.39,48.39c-44.43,4.89 -83.07,-8.55 -115.54,-39.51c-9.87,-9.4 -17.92,-20.12 -24.83,-31.78c-1.11,-1.87 -2.15,-3.77 -2.71,-5.88c-1.21,-4.63 0.31,-7.55 4.92,-9.43c0.12,-0.05 0.24,-0.1 0.37,-0.15c4.94,-1.06 8.03,0.93 10.53,5.32c21.07,37.12 52.73,59.54 95.04,65.08c67.2,8.8 126.65,-36.79 139.67,-100.05c1.62,-7.86 2.27,-15.8 2.63,-23.79c0.32,-6.96 2.53,-9.42 9.58,-8.98c5.06,0.31 5.84,-1.45 5.82,-6.07c-0.21,-35.64 -0.14,-71.27 -0.1,-106.9c0.01,-8.59 -3.41,-15.02 -11.13,-19.1c-2.74,-1.46 -4.53,-1.37 -6.51,1.47c-4.19,6.04 -9.33,11.3 -15.36,15.57c-11.31,8 -23.08,8.77 -35.04,1.61c-11.52,-6.9 -17.4,-19.72 -14.92,-33.35c2.46,-13.54 10.82,-22.04 23.99,-25.86c0.75,-0.22 1.71,0.07 2,-1.02l9.99,0c12.67,3.39 21.65,11.74 29.26,21.86c1.47,1.96 3.04,3.04 5.5,3.64c16.82,4.04 27.15,17.27 27.18,34.72c0.06,35.98 0.1,71.96 -0.09,107.93c-0.02,4.3 0.84,5.71 5.37,5.49c7.02,-0.35 9.56,2.64 9.42,9.68z"/>
   <path id="svg_11" fill="#FEFEFE" d="m242.99,511.91c-28.49,-2.6 -46.63,-26.86 -49.81,-48.57c-0.39,-2.66 -0.52,-5.3 -0.52,-7.97c0,-19.32 0.13,-38.65 -0.04,-57.97c-0.12,-14.3 -5.46,-26.21 -16.9,-35.18c-21.12,-16.55 -54.51,-6.44 -62.89,19.09c-1.69,5.15 -1.52,5.43 3.59,6.93c25.9,7.56 42.35,24.4 47.15,50.94c6.03,33.37 -14.92,61.85 -42.81,71.05c-3.81,1.25 -7.88,0.65 -11.72,1.68c1.96,-1.9 4.63,-1.13 6.93,-1.71c28.27,-7.12 47.97,-32.64 47.23,-61.53c-0.75,-29.58 -21.23,-54.12 -50.03,-59.62c-3.31,-0.63 -3.64,-1.84 -2.97,-4.61c4.6,-19.08 22.95,-32.36 43.69,-31.55c18.96,0.75 36.03,15.9 39.17,34.62c1.16,6.96 0.76,13.95 0.79,20.94c0.07,15.49 -0.16,30.99 0.09,46.48c0.45,28.04 19.42,50.5 46.97,55.98c0.79,0.16 1.69,0.03 2.08,1z" class="st0"/>
   <path id="svg_12" fill="#77F1D1" d="m450.88,196.09c-4.43,33.71 -18.66,62.73 -41.47,87.85c-18.56,20.44 -40.73,35.49 -66.02,46.2c-1.2,0.51 -2.43,0.95 -3.68,1.34c-4.23,1.34 -8.61,2.19 -12.75,3.79c-26.97,5.1 -53.5,2.77 -78.9,-7.11c-57.46,-22.36 -91.14,-64.54 -101.69,-125.23c-0.65,-3.76 -0.75,-7.61 -1.22,-11.41c-0.27,-2.15 0.42,-3.17 2.67,-2.92c0.32,0.03 0.66,0.01 0.99,0c11.12,-0.31 10.99,-0.3 12.3,10.79c0.58,4.93 1.61,9.84 2.76,14.68c1.27,5.31 4.02,7 9.59,6.32c0.1,-0.01 0.2,-0.03 0.3,-0.04l0.01,0c0.98,5.65 2.97,10.91 5.96,15.8c-0.1,0.08 -0.19,0.15 -0.29,0.23c-4.96,3.98 -5.6,6.54 -2.45,12.06c25.03,43.86 62.48,69.53 112.94,73.45c71.98,5.59 133.32,-40.67 149.39,-111.07c1.14,-5.02 1.91,-10.14 2.48,-15.25c0.8,-7.36 0.65,-7.38 8.16,-6.68c0.37,0.48 0.65,0.98 0.83,1.49c0.69,1.83 0.35,3.79 0.09,5.71z" class="st1"/>
   <path id="svg_13" d="m359.78,242.14c-8.08,14.3 -25.28,21.53 -42.02,17.46c-4.71,-1.14 -9.45,-1.83 -15.42,-2.21c-5.19,-0.03 -11.39,0.88 -17.61,2.17c-15.69,3.23 -29.2,-0.94 -39,-13.81c-8.98,-11.8 -9.39,-24.8 -2.79,-38.01c1.42,-2.84 3.27,-5.44 5.59,-7.61c8.88,-8.31 15.31,-18.3 20.33,-29.28c6.44,-14.06 17.37,-21.81 32.85,-21.68c15.26,0.12 25.95,7.98 32.26,21.83c4.93,10.83 11.41,20.49 20.06,28.85c11.37,10.99 13.48,28.63 5.75,42.29z"/>
   <path id="svg_14" d="m247.99,176.74c-3.25,9.17 -11.02,14.71 -20.39,14.54c-13.89,-0.25 -27.29,-13.41 -29.65,-29.01c-0.65,-4.33 -0.69,-8.64 0.34,-12.87c3.3,-13.53 16.36,-20.29 29.39,-15.33c16.02,6.1 25.91,26.86 20.31,42.67z"/>
   <path id="svg_15" d="m389.45,186.21c-7.64,5.57 -16.14,7.18 -24.82,2.66c-8.55,-4.46 -11.49,-12.37 -11.88,-22.24c0.88,-13.19 6.56,-24.36 18.97,-31.14c15.33,-8.37 32.11,1.04 33.09,18.48c0.75,13.4 -4.51,24.33 -15.36,32.24z"/>
   <path id="svg_16" d="m355.97,108.95c-0.29,9.33 -2.97,18.08 -9.74,25.17c-10.05,10.52 -23.95,8.93 -31.51,-3.47c-8.05,-13.19 -5.56,-33.1 5.47,-43.87c10.07,-9.83 23.37,-8.19 30.87,3.81c3.45,5.52 4.71,11.64 4.91,18.36z"/>
   <path id="svg_17" d="m292.93,114.4c-0.18,5.98 -1.86,13.33 -7.04,19.49c-6.94,8.26 -17.08,9.49 -25.82,3.19c-14.34,-10.33 -17.54,-35.72 -6.21,-49.34c7.3,-8.76 18.05,-9.79 26.98,-2.6c7.41,5.97 12.06,16.51 12.09,29.26z"/>
   <path id="svg_18" fill="#A9C1CB" d="m113.04,494.95c-19.98,7.08 -45.04,-4.55 -54.34,-25.74c-7.76,-17.69 -5.59,-34.68 6.79,-49.47c11.79,-14.08 27.25,-19.5 45.54,-15.72c13.74,6 20.18,17.88 24.05,31.23c5.83,20.1 -0.04,37.66 -13.28,53.18c-2.42,2.84 -5.7,4.54 -8.76,6.52z" class="st2"/>
   <path id="svg_19" fill="#2CDCDC" d="m326.96,335.27c5.73,-3.79 12.59,-4.78 18.78,-7.5c18.87,-8.3 35.85,-19.3 51.18,-33.1c16.02,-14.41 28.75,-31.24 38.24,-50.45c8.59,-17.39 14.03,-35.77 14.8,-55.33c7.67,-0.68 7.91,-0.65 6.79,8.15c-7.12,55.79 -35.45,97.15 -85.03,123.69c-13.98,7.48 -28.92,12.54 -44.76,14.54z" class="st3"/>
   <path id="svg_20" fill="#859FA7" d="m113.04,494.95c2.82,-4.35 7.47,-6.8 10.73,-10.88c18.64,-23.36 15.05,-55.47 -5.72,-74.55c-2.18,-2 -4.67,-3.67 -7.01,-5.49c20.35,3.58 36.4,22.39 37.11,43.51c0.76,22.23 -13.54,42.4 -33.62,47.4c-0.47,0.11 -0.99,0.01 -1.49,0.01z" class="st4"/>
   <path id="svg_21" fill="#FE6148" d="m206.45,49.32c-8.26,-2.64 -13.16,-9.25 -18.31,-15.55c-0.56,-0.69 -0.67,-1.48 -0.05,-2.24c5.26,-6.42 10.25,-13.16 18.78,-15.64c3.98,0.74 4.85,4.29 5.89,7.22c2.78,7.83 2.52,15.61 -1.9,22.9c-0.98,1.63 -1.87,3.65 -4.41,3.31z" class="st5"/>
   <path id="svg_22" fill="#FE6148" d="m395.87,16.16c7.77,2.69 12.51,8.92 17.45,14.92c0.87,1.06 0.87,2.04 -0.01,3.1c-4.96,5.98 -9.62,12.29 -17.46,14.89c-4.79,-1.88 -5.42,-6.48 -6.56,-10.53c-2.41,-8.56 0.65,-18.49 6.58,-22.38z" class="st5"/>
   <path id="svg_23" fill="#FD0000" d="m395.87,16.16c-8.16,11.68 -8.16,21.88 -0.01,32.91c-6.68,2.31 -13.96,-0.16 -18.27,-6.2c-4.52,-6.34 -4.4,-14.59 0.31,-20.86c4.3,-5.75 11.54,-8.1 17.97,-5.85z" class="st6"/>
   <path id="svg_24" fill="#FE0000" d="m206.45,49.32c8.99,-9 9.16,-22.34 0.42,-33.43c6.49,-1.74 13.14,0.76 17.24,6.49c4.32,6.04 4.34,14.34 0.04,20.43c-4.14,5.89 -10.75,8.32 -17.7,6.51z" class="st7"/>
   <path id="svg_25" fill="#FE6248" d="m323.81,245.19c-10.3,-1.77 -20.59,-3.85 -31.13,-2.23c-4.42,0.68 -8.81,1.59 -13.23,2.32c-9.69,1.59 -19.31,-3 -23.58,-11.19c-4.34,-8.32 -2.62,-17.67 4.83,-24.96c9.15,-8.96 15.95,-19.49 21.3,-31.04c2.19,-4.73 4.65,-9.21 9.87,-11.28c5.29,-0.66 8.27,2.74 10.92,6.44c1.76,2.45 2.77,5.33 3.27,8.31c2.25,13.44 9.26,24.47 17.67,34.76c2,2.44 4.08,4.83 6.15,7.22c4.6,5.3 5.07,7.73 1.69,13.8c-1.8,3.25 -3.4,7 -7.76,7.85z" class="st8"/>
   <path id="svg_26" fill="#FE0000" d="m323.81,245.19c3.76,-3.56 6.89,-7.43 8.35,-12.62c0.85,-3.01 0.18,-4.85 -1.89,-7.01c-9.21,-9.61 -17.41,-19.95 -22.33,-32.53c-1.33,-3.41 -2.37,-6.88 -2.96,-10.48c-1.29,-7.83 -5.03,-13.59 -13.11,-15.75c10.53,-5.93 22.51,-2.13 27.9,9.33c6.08,12.92 13.44,24.8 23.99,34.62c4.07,3.79 5.59,8.91 5.46,14.52c-0.28,12.88 -12.66,22.62 -25.41,19.92z" class="st7"/>
   <path id="svg_27" fill="#FE6148" d="m212.58,157.46c0.15,-4.26 0.57,-7.67 4.01,-9.37c3.43,-1.7 6.56,-0.14 9.2,1.97c6.41,5.12 9.64,11.76 8.3,20.06c-0.92,5.69 -5.1,7.8 -10.29,5.13c-7.48,-3.85 -10.7,-10.48 -11.22,-17.79z" class="st5"/>
   <path id="svg_28" fill="#FD6148" d="m367.92,165.64c0.69,-6.62 3.79,-13.17 11.03,-17.02c5.32,-2.83 9.49,-0.63 10.73,5.25c1.62,7.68 -3.98,18.38 -11.26,21.53c-6.18,2.67 -10.54,-0.85 -10.5,-9.76z" class="st9"/>
   <path id="svg_29" fill="#FD6147" d="m340.93,109.48c-0.2,4.93 -1.64,10.29 -5.81,14.59c-2.7,2.78 -5.14,2.44 -7.35,-0.76c-4.69,-6.8 -3.16,-20.23 3.02,-25.91c3.11,-2.85 5.39,-2.54 7.58,1.2c1.81,3.07 2.54,6.46 2.56,10.88z" class="st10"/>
   <path id="svg_30" fill="#FD6147" d="m277.96,112.38c-0.09,4.14 -0.81,7.69 -2.8,10.87c-2.05,3.26 -4.46,3.53 -7.34,0.89c-6.12,-5.62 -7.71,-19 -3.07,-25.93c2.17,-3.24 4.58,-3.58 7.33,-0.83c4.23,4.26 5.63,9.62 5.88,15z" class="st10"/>
   <path id="svg_31" d="m82.09,457.09c-7.35,0.09 -10.12,-2.84 -9.4,-9.91c1.6,-15.71 14.54,-26.9 30.34,-26.21c14.53,0.63 26.66,12.95 27.1,27.51c0.48,15.86 -10.82,28.81 -26.39,30.25c-6.31,0.58 -9.28,-2.08 -9.87,-8.83c-0.78,-4.13 2.28,-5.42 5.11,-6.79c1.19,-0.58 2.6,-0.51 3.9,-0.82c7.93,-1.9 12.18,-8.22 10.44,-15.49c-1.7,-7.08 -7.86,-10.48 -15.87,-8.75c-6.05,1.65 -7.52,6.67 -8.9,11.87c-0.91,3.41 -1.44,7.37 -6.46,7.17z"/>
   <path id="svg_32" fill="#E0F8FE" d="m82.09,457.09c4.06,-1.45 5.13,-4.74 5.6,-8.61c0.7,-5.72 3.48,-9.92 9.36,-11.52c1.5,0.49 2.49,1.51 3.29,2.86c4.96,8.45 1.32,22.83 -7.07,27.83c-1.04,0.62 -2.06,1.09 -3.2,0.26c-3.53,-2.96 -7.73,-5.43 -7.98,-10.82z" class="st11"/>
   <path id="svg_33" fill="#C1E7EE" d="m90.07,467.92c11.65,-3.7 14.56,-21.82 6.98,-30.95c7.8,-2.63 15.77,1.56 17.78,9.35c2.09,8.11 -3.25,16.21 -11.94,17.27c-4.41,0.54 -7.6,1.92 -9.01,6.31c-1.51,-0.2 -2.86,-0.72 -3.81,-1.98z" class="st12"/>
  </g>
 </g>
</svg>