<svg width="512" height="512" xmlns="http://www.w3.org/2000/svg" xml:space="preserve" version="1.1">

 <g>
  <title>Layer 1</title>
  <g id="svg_1">
   <path id="svg_2" fill="#FEFEFE" d="m85.24,193.85c-0.32,0.95 -1.35,1.17 -2.22,1.44c-7.19,2.19 -10.29,7.51 -10.54,14.53c-0.23,6.15 3.87,10.66 11.3,13.37c0.1,0.03 0.2,0.05 0.3,0.07c3.34,0.8 6.74,0.31 10.11,0.41c0.46,0.01 0.88,0.05 1.28,0.12c2.63,0.44 3.91,2.05 3.93,5.07c0.08,12.87 6.01,22.86 15.49,31c1.91,1.64 3.02,3.48 3.38,5.71c0.12,0.67 0.16,1.37 0.14,2.11c-0.11,3.59 0.09,7.2 -0.1,10.79c0,0.05 -0.01,0.1 -0.01,0.15c-0.31,2.83 -2.27,4.14 -4.65,5.12c-4.29,1.78 -8.64,3.44 -12.98,5.06c-0.08,0.03 -0.15,0.06 -0.23,0.09c-0.08,0.03 -0.15,0.07 -0.23,0.1c-9.21,4.04 -18.7,7.37 -28.07,11.01c-0.03,0.01 -0.07,0.03 -0.1,0.04c-0.71,0.3 -1.42,0.59 -2.13,0.88c-4.98,2 -10.07,3.73 -15.02,5.8c-15.96,6.69 -25.37,20.78 -25.46,38.12c-0.03,6.37 -0.05,12.73 0.06,19.11c0,0.26 0.01,0.53 0.01,0.79l0,0.09c0.18,6.6 -0.04,13.2 0.12,19.8c0.16,6.79 2.94,9.6 9.79,9.77c7.57,0.18 15.14,-0.03 22.72,0.07c0.29,0 0.58,0.01 0.87,0.02l0.28,0c3.96,-0.16 7.92,-0.14 11.88,-0.05c0.29,0.01 0.59,0.01 0.88,0.02c0.13,0 0.26,0.01 0.39,0.01c18.31,-0.34 36.63,-0.11 54.94,-0.14c30.13,-0.04 60.26,-0.02 90.4,0c2.65,0 5.33,-0.21 7.93,0.54c0.33,0.35 0.61,0.69 0.84,1.02c-51.5,-0.03 -103,-0.07 -154.5,-0.11l-13.04,0c-8.6,0.04 -17.2,0.19 -25.8,0.09c-5.49,-0.07 -8.92,-3.55 -9,-9.1c-0.11,-7.6 0.02,-15.21 0.05,-22.82c0.13,-9.25 -1.03,-18.53 0.77,-27.73c2.65,-13.59 10.2,-23.58 22.67,-29.46c6.56,-3.09 13.54,-5.25 20.34,-7.83c9.31,-3.61 18.63,-7.23 27.94,-10.85c4.5,-1.9 8.97,-3.85 13.5,-5.67c1.72,-0.69 3.45,-1.19 3.69,-3.41c-0.04,-1.33 -0.24,-2.67 -0.1,-3.98c0.8,-7.24 -0.84,-12.74 -6.98,-18.03c-7.91,-6.82 -12.26,-16.47 -11.99,-27.38c0.09,-3.87 -1.32,-4.78 -4.92,-4.7c-3.38,0.08 -6.93,1.06 -10.19,-0.83c-7.55,-1.94 -12.31,-8.19 -11.86,-15.58c0.5,-8.21 5.82,-13.73 14.12,-14.65z" class="st0"/>
   <path id="svg_3" fill="#FEFEFE" d="m231.02,396.62c1.16,2.09 0.31,3.68 -2.77,5.3c-4.43,2.32 -9.36,3.47 -13.82,5.74c-0.01,0 -0.02,0.01 -0.03,0.01c-0.11,0.04 -0.23,0.07 -0.34,0.11c-9.76,3.21 -19.04,7.71 -28.78,10.97c-0.1,0.03 -0.21,0.07 -0.31,0.1c-0.46,0.17 -0.92,0.35 -1.38,0.52c-5.29,2 -10.58,4.03 -15.73,6.34c-15.58,7.01 -23.68,19.27 -24.43,36.27c-0.3,6.72 -0.07,13.47 -0.01,20.21l0,0.23c0.01,0.17 0.01,0.34 0.02,0.51c0.12,3.15 0.2,6.31 0,9.44c-0.44,6.84 0.22,13.42 3.6,19.53c-4.3,-3.22 -5.3,-7.61 -5.03,-12.74c0.31,-5.65 0.12,-11.31 0.15,-16.97c0.2,-9.43 -1.1,-18.91 0.85,-28.26c2.58,-12.42 9.49,-21.93 20.66,-27.73c6.71,-3.48 14.1,-5.65 21.18,-8.41c9.6,-3.76 19,-8.04 28.92,-10.95c4.09,-2.95 9.08,-3.82 13.59,-5.81c2.15,-0.96 3.68,-2.08 3.66,-4.41z" class="st0"/>
   <path id="svg_4" fill="#FEFEFE" d="m246,0.1c-0.17,2.6 -2.48,2.34 -4.04,2.82c-28.59,8.76 -45.47,31.48 -45.63,61.44c-0.03,4.82 0.42,9.66 -0.36,14.46c-0.03,0.1 -0.06,0.19 -0.1,0.28c-0.07,0.21 -0.17,0.4 -0.27,0.58c-0.7,1.17 -1.94,1.81 -3.02,2.63c-8.55,6.51 -8.61,15.91 -0.14,22.58c1.18,0.93 2.67,1.53 3.34,2.99c0.05,0.1 0.1,0.21 0.14,0.32c0.01,0.03 0.02,0.06 0.03,0.09c1.95,15.07 -0.57,20.83 -12.88,27.72c-0.42,0.23 -0.86,0.47 -1.31,0.71c-0.18,0.1 -0.36,0.19 -0.54,0.29c-4.35,1 -5.97,-2.08 -7.25,-5.16c-4.79,-11.5 -7.51,-13.38 -20.13,-13.4c-7.95,0 -15.9,-0.01 -23.86,0.03c-1.06,-0.02 -2.13,-0.04 -3.19,-0.04c-0.9,-0.02 -1.8,-0.03 -2.7,-0.03c-4.86,-0.03 -9.71,0.01 -14.56,0.11c-16.26,0.32 -28.94,13.26 -29.03,29.48c-0.05,8.15 0.12,16.3 -0.05,24.45c-0.16,7.36 -0.37,14.66 4.89,20.71c0,0.26 -0.03,0.49 -0.1,0.69c-4.78,-3.81 -6.53,-8.69 -6.31,-14.86c0.38,-10.64 0.04,-21.3 0.15,-31.96c0.17,-16.12 13.83,-29.77 29.96,-29.94c6.99,-0.08 13.98,0.08 20.96,0.13c9.45,-0.03 18.9,-0.25 28.34,-0.04c9.3,0.2 13.87,4 16.5,12.88c0.93,3.15 1.56,6.7 6.21,6.05c0.35,-0.34 0.63,-0.81 1.05,-1c10.57,-4.82 14.71,-13.09 13.18,-24.44c-0.11,-0.81 0.01,-1.65 0.03,-2.47c-10.19,-5.84 -13.23,-14.1 -8.29,-22.26c1.98,-3.26 5.23,-4.88 8.24,-6.84c0.08,-12.25 -1,-24.64 3.1,-36.49c7.57,-21.87 22.65,-35.71 45.12,-41.42c0.91,-0.24 2.06,0.14 2.52,-1.09z" class="st0"/>
   <path id="svg_5" fill="#FEFEFE" d="m289.81,12.1c-6.63,-4.93 -14.26,-7.74 -22.23,-9.69c-0.01,-0.01 -0.02,-0.01 -0.03,-0.01c-0.24,-0.09 -0.5,-0.17 -0.76,-0.24c-0.98,-0.27 -1.93,-0.57 -1.79,-2.06c0.53,1.49 2.02,0.64 2.93,1.2c27.71,6.58 45.29,26.58 48.33,54.97c1.56,6.2 0.47,12.5 0.63,18.75c0.08,3.01 0.7,5.01 3.35,7.01c8.73,6.61 8.42,17.42 -0.48,23.74c-2.19,1.54 -2.99,3.18 -2.84,5.76c0.17,2.8 -0.06,5.63 -0.11,8.45c0.55,7.21 5.61,10.85 11.16,14.11c12.73,-11.81 27.62,-17.82 45.11,-17.05c2.68,0.12 5.28,0.45 7.84,1.16c27.27,5.07 46.49,26.92 49.29,56.02c1.52,5.87 0.47,11.83 0.62,17.74c0.07,3.01 0.5,5.16 3.36,7c9.01,5.79 7.24,19.75 -0.54,23.9c-2.15,1.14 -2.94,2.79 -2.8,5.25c0.16,2.97 -0.09,5.96 -0.16,8.94c0.33,5.49 3.65,9.06 7.84,12.03c11.36,8.03 14.56,17.28 10.8,30.82c-2.05,7.36 -6.26,13.05 -12.62,17.2c0.63,-2.66 2.97,-4.03 4.66,-5.85c8.13,-8.78 9.63,-19.02 6.48,-30.13c-1.27,-4.47 -4.39,-7.65 -8.42,-10.09c-5.45,-3.29 -9.83,-7.49 -9.84,-14.56c-0.01,-2.16 0.13,-4.34 -0.03,-6.49c-0.1,-1.37 0.01,-2.6 0.34,-3.73c0.07,-0.24 0.15,-0.47 0.24,-0.7c0.66,-1.7 1.84,-3.18 3.53,-4.6c6.82,-5.72 6.88,-14.41 0.11,-20.3c-1.97,-1.71 -3.14,-3.52 -3.74,-5.6c-0.08,-0.27 -0.14,-0.53 -0.2,-0.8c-0.25,-1.13 -0.35,-2.34 -0.33,-3.65c0.08,-5.31 0.53,-10.65 -0.37,-15.94c-1.65,-15.77 -7.51,-29.47 -19.3,-40.48c-8.42,-7.86 -18.18,-12.73 -29.44,-14.78c-0.28,-0.05 -0.55,-0.1 -0.83,-0.15c-0.5,-0.09 -1.01,-0.18 -1.51,-0.25c-16.84,-2.6 -31.78,2.18 -45.23,12.68c-1.43,1.12 -2.62,2.58 -4.52,2.98c-0.23,-0.05 -0.46,-0.11 -0.69,-0.18c-0.14,-0.04 -0.28,-0.08 -0.43,-0.13c-6.2,-1.96 -10.85,-7.81 -11.56,-14.65c0.01,-2.5 0.1,-4.99 -0.01,-7.48c-0.05,-1.13 0.06,-2.14 0.33,-3.08c0.06,-0.19 0.12,-0.38 0.18,-0.56c0.56,-1.53 1.58,-2.85 3.07,-4.11c7.69,-6.54 7.77,-14.48 0.19,-21.21c-1.55,-1.37 -2.55,-2.82 -3.13,-4.46c-0.18,-0.49 -0.32,-0.99 -0.42,-1.52c-0.17,-0.86 -0.25,-1.77 -0.26,-2.74c-0.02,-5.97 0.55,-11.96 -0.4,-17.91c-1.82,-18.62 -10.44,-33.41 -25.37,-44.53z" class="st0"/>
   <path id="svg_6" fill="#FEFEFE" d="m370,500.42c0.27,5.19 -1.51,8.98 -6.04,11.48c7.2,-8.79 3.79,-19.25 4.58,-29.05l0.03,-0.36c0,-0.16 -0.01,-0.32 0,-0.48c-0.15,-9.14 0.9,-18.34 -1.04,-27.41c-2.86,-13.46 -10.39,-23.52 -23.15,-28.72c-15.41,-6.28 -30.99,-12.18 -46.59,-18.03c-0.02,-0.01 -0.05,-0.02 -0.07,-0.03c-0.19,-0.08 -0.39,-0.15 -0.58,-0.23c-4.51,-1.77 -9.14,-3.26 -13.41,-5.53c-3.02,-1.61 -3.83,-3.21 -2.77,-5.36c0.04,3 2.45,4.06 4.89,5.08c4.06,1.72 8.13,3.43 12.2,5.14c12.12,3.58 23.61,8.86 35.41,13.29c6.05,2.27 12.42,3.95 17.82,7.69c12.25,8.47 18.22,20.37 18.58,35.13c0.15,6.32 0,12.65 -0.02,18.98c0.03,6.14 -0.16,12.29 0.16,18.41z" class="st0"/>
   <path id="svg_7" fill="#FEFEFE" d="m483.85,386.26c-0.05,6.07 -3.56,9.59 -9.6,9.64c-8.47,0.07 -16.94,-0.03 -25.41,-0.06c-4.29,-0.03 -8.59,-0.05 -12.88,-0.08c-41.03,0.04 -82.05,0.09 -123.08,0.13c-10.48,0.01 -20.97,-0.01 -31.45,-0.01c0.19,-0.3 0.42,-0.61 0.68,-0.93c1.94,-0.67 3.95,-0.62 5.94,-0.62c48.31,-0.02 96.61,-0.01 144.92,0c0.83,0 1.66,0.02 2.48,0.14c0.17,0 0.34,-0.01 0.51,-0.01c0.3,-0.01 0.59,-0.01 0.89,-0.02c3.7,-0.08 7.39,-0.12 11.08,0.02c0.22,0.01 0.45,0.02 0.67,0.03l0.25,0c7.21,-0.1 14.42,0.01 21.64,-0.05c9.49,-0.06 11.86,-2.4 11.93,-11.71c0.04,-5.31 -0.08,-10.62 0.06,-15.92l0,-0.01c0,-0.32 -0.01,-0.63 -0.01,-0.95c-0.08,-9.47 0.9,-18.98 -0.87,-28.4c-2.73,-14.49 -10.87,-24.69 -24.44,-30.51c-5.2,-2.23 -10.57,-4.02 -15.8,-6.16c-1.81,-0.73 -3.89,-1.17 -4.72,-3.32c0.02,-0.11 0.04,-0.22 0.07,-0.33c6.58,3.57 13.8,5.6 20.69,8.43c15.88,6.51 26.05,20.99 26.37,38.31c0.14,7.32 -0.01,14.65 -0.03,21.97c0.04,6.81 0.17,13.61 0.11,20.42z" class="st0"/>
   <path id="svg_8" fill="#80B3FA" d="m369.84,482.01c-0.41,0.36 -0.85,0.64 -1.3,0.84c-1.67,0.77 -3.54,0.59 -5.35,0.61c-6.82,0.07 -13.65,0.14 -20.46,-0.01c-3.92,-0.09 -5.32,1.58 -5.22,5.35c0.14,5.48 0.07,10.98 0.01,16.47c-0.02,2.31 0.15,4.7 -1.55,6.63l-1,0c-1.81,-2.1 -1.51,-4.66 -1.52,-7.13c-0.04,-11.63 0.04,-23.26 -0.04,-34.89c-0.04,-5.7 -1.4,-7.92 -4.63,-8.01c-3.53,-0.09 -5.2,2.34 -5.24,8.01c-0.08,11.63 0,23.26 -0.05,34.89c-0.01,2.47 0.3,5.03 -1.51,7.13l-131.96,0c-1.7,-1.95 -1.44,-4.34 -1.45,-6.65c-0.04,-11.64 0.04,-23.28 -0.04,-34.93c-0.06,-7.47 -1.28,-8.59 -8.79,-8c-2.31,0.18 -3.79,-0.61 -3.83,-2.77c-0.3,-13.99 -1.4,-28.19 7.68,-40.18c0.4,-0.53 0.82,-1.06 1.26,-1.58c9.6,-3.76 19,-8.04 28.92,-10.95c0.21,0.27 0.42,0.55 0.63,0.83c3.44,4.74 5.74,10.19 9.98,14.55c8.75,9.04 19.3,13.03 31.55,13.41l0.04,0c0.29,-0.01 0.58,-0.03 0.86,-0.05c16.93,-0.94 29.76,-8.52 37.87,-23.82c0.75,-1.42 1.25,-3.04 2.44,-4.17c0.27,-0.25 0.57,-0.47 0.91,-0.67c12.12,3.58 23.61,8.86 35.41,13.29c6.05,2.27 12.42,3.95 17.82,7.69c12.25,8.47 18.22,20.37 18.58,35.13c0.15,6.32 0,12.65 -0.02,18.98z" class="st1"/>
   <path id="svg_9" fill="#61A1F8" d="m190.02,511.9l-12.99,0c-1.57,-1.77 -1.52,-3.96 -1.54,-6.11c-0.06,-5.3 0.04,-10.6 -0.04,-15.89c-0.09,-5.75 -0.61,-6.32 -6.23,-6.4c-6.95,-0.1 -13.91,0.01 -20.86,-0.05c-1.66,-0.02 -3.37,0.11 -4.92,-0.52c-0.44,-0.18 -0.87,-0.42 -1.28,-0.74c0.2,-9.43 -1.1,-18.91 0.85,-28.26c2.58,-12.42 9.49,-21.93 20.66,-27.73c6.71,-3.48 14.1,-5.65 21.18,-8.41c0.11,0.3 0.35,0.69 0.43,0.96c0.03,0.11 0.03,0.2 -0.01,0.25c-9.13,11.88 -8,25.88 -8.22,39.59c-0.03,2.08 -0.16,3.53 2.99,2.13c5.66,-2.5 9.92,0.54 9.96,6.76c0.09,14.8 0.03,29.61 0.02,44.42z" class="st2"/>
   <path id="svg_10" fill="#2B4D66" d="m267.93,1.3c-0.07,0.43 -0.18,0.8 -0.35,1.11c-0.84,1.68 -2.83,1.89 -4.43,2.53c-21.31,8.55 -34.07,24.18 -38.29,46.67c-1.32,7.04 -0.27,14.26 -0.54,21.39c-0.08,2.13 0.04,4.38 -1.49,5.94c-0.14,0.14 -0.28,0.27 -0.44,0.39c-0.27,0.21 -0.58,0.41 -0.93,0.58c-3.68,1.06 -7.45,0.47 -11.19,0.64c-0.22,-0.01 -0.43,-0.03 -0.65,-0.03c-0.73,-0.04 -1.46,-0.06 -2.2,-0.06c0,0 0,0 -0.01,0c-2.62,-0.03 -5.25,0.11 -7.89,0.1c-1.38,-0.01 -2.95,0.42 -3.92,-0.88c-0.13,-0.16 -0.24,-0.35 -0.34,-0.57l0,-0.01c0.08,-12.25 -1,-24.64 3.1,-36.49c7.57,-21.87 22.65,-35.71 45.12,-41.42c0.91,-0.24 2.06,0.14 2.52,-1.09l19,0c0.53,1.49 2.02,0.64 2.93,1.2z" class="st3"/>
   <path id="svg_11" fill="#FEB0A0" d="m177.03,511.9l-29.99,0c-4.3,-3.22 -5.3,-7.61 -5.03,-12.74c0.31,-5.65 0.12,-11.31 0.15,-16.97l1.26,0c9.56,-0.01 19.12,0.1 28.66,-0.14c3.87,-0.1 4.79,1.37 4.73,4.95c-0.13,8.3 0.12,16.6 0.22,24.9z" class="st4"/>
   <path id="svg_12" fill="#FECDBD" d="m363.96,511.9l-27.99,0c-0.06,-8.65 -0.02,-17.31 -0.24,-25.96c-0.09,-3.18 1.22,-3.95 4.14,-3.92c9.57,0.11 19.13,0.02 28.7,-0.01l1.27,0c0.03,6.14 -0.16,12.29 0.16,18.41c0.27,5.19 -1.51,8.98 -6.04,11.48z" class="st5"/>
   <path id="svg_13" fill="#61A1F8" d="m321.98,511.9c0,-14.83 -0.02,-29.65 0,-44.48c0.01,-5.13 2.39,-7.6 7.08,-7.5c3.95,0.08 5.91,2.51 5.92,7.5c0.02,14.83 0,29.65 0,44.48c-4.34,0 -8.67,0 -13,0z" class="st2"/>
   <path id="svg_14" fill="#B2E49E" d="m230.97,395.89l-0.43,0c-51.5,-0.03 -103,-0.07 -154.5,-0.11c-0.39,-0.43 -0.67,-0.87 -0.88,-1.34c-0.75,-1.65 -0.53,-3.51 -0.54,-5.29c-0.05,-12.45 0.02,-24.9 -0.04,-37.36c-0.03,-7.31 -0.82,-8.18 -8.17,-8.46c-2.35,-0.09 -3.53,-1.15 -3.55,-3.21c-0.08,-9.75 -1.5,-19.59 1.57,-29.17c1.2,-3.73 2.86,-7.18 5.48,-10.03c0.64,-0.7 1.35,-1.37 2.12,-1.99c9.31,-3.61 18.63,-7.23 27.94,-10.85c0.25,0.23 0.48,0.47 0.7,0.72c1.86,2.14 2.49,5.01 4,7.37c8.63,13.35 20.62,20.44 36.52,20.5l0.85,0c18.62,0.08 31.54,-8.86 39.8,-25.17c0.59,-1.18 0.9,-2.53 1.84,-3.53c0.06,-0.08 0.13,-0.15 0.21,-0.21c0.04,-0.05 0.07,-0.08 0.11,-0.11c3.35,-0.46 6.07,0.83 8.61,2.66c0.17,0.12 0.33,0.24 0.49,0.36c0.14,0.11 0.28,0.22 0.42,0.33c0.32,0.58 0.66,1.2 0.63,1.85c-0.29,6.67 0.83,13.01 4.18,18.87c-0.02,0.03 -0.03,0.06 -0.05,0.09c-0.01,0.03 -0.02,0.05 -0.04,0.07c-1.1,1.96 -3.28,2.48 -5,3.6c-5.33,3.51 -8.02,10.21 -6.31,15.91c2.05,6.78 6.35,9.99 13.44,10.28c2.47,0.1 5.01,-0.31 7.47,0c0.65,0.07 1.3,0.2 1.94,0.41c0.45,0.14 0.88,0.31 1.32,0.53c1.7,2.23 1.97,4.9 2.16,7.54c0.8,11.1 6,19.85 14.2,27.06c1.59,1.4 3.46,2.57 4.34,4.56c0.12,0.25 0.22,0.52 0.3,0.8c0.03,0.09 0.05,0.18 0.07,0.27c0.09,4.4 1.53,8.92 -1.2,13.05z" class="st6"/>
   <path id="svg_15" fill="#365E7D" d="m200.4,175.89c0,0.02 -0.01,0.04 -0.01,0.06c-0.02,0.07 -0.03,0.14 -0.04,0.21c-0.66,3.5 -1.1,7.02 -0.98,10.61c0.07,2.36 -0.46,4.55 -2.08,6.3c-0.16,0.17 -0.32,0.33 -0.49,0.48c-0.05,0.05 -0.11,0.09 -0.16,0.14c-2.53,2.2 -5.53,2.82 -8.78,2.6c-0.11,0 -0.23,-0.01 -0.35,-0.02c-0.19,-0.03 -0.37,-0.07 -0.55,-0.11c-7.5,-1.62 -11.77,-6.8 -14.46,-14.59c-7.49,9.9 -16.84,15.13 -28.85,14.84l-0.34,0c-4.06,-0.07 -8.13,-0.01 -12.18,0.03c-0.18,0.01 -0.36,0.01 -0.54,0.01c-0.19,0 -0.38,0 -0.56,0.01c-5.08,0.04 -10.15,0.02 -15.21,-0.34c-0.03,-0.01 -0.05,-0.02 -0.08,-0.03c-0.73,-0.22 -1.41,-0.48 -2.06,-0.77c-0.16,-0.07 -0.32,-0.14 -0.48,-0.21c-0.04,-0.02 -0.08,-0.04 -0.12,-0.06c-5.47,-2.68 -8.03,-7.61 -8.26,-13.89c-0.43,-11.46 -0.55,-22.95 0.04,-34.4c0.41,-8.01 3.74,-15.11 9.19,-21.1c3.15,-3.47 6.83,-5.88 11.04,-7.25c1.87,-0.6 3.84,-1 5.91,-1.19c9.45,-0.03 18.9,-0.25 28.34,-0.04c9.3,0.2 13.87,4 16.5,12.88c0.93,3.15 1.56,6.7 6.21,6.05c0.69,-0.07 1.36,-0.1 2.02,-0.1c9.97,-0.14 16.19,6.19 16.42,16.71c0.18,7.72 -0.92,15.51 0.91,23.17z" class="st7"/>
   <path id="svg_16" fill="#FECDBD" d="m184.15,288.16c-4.14,16.3 -23.08,31.19 -42.11,29.82c-0.36,-0.42 -0.64,-0.85 -0.85,-1.31c-0.75,-1.66 -0.6,-3.53 -0.61,-5.34c-0.04,-10.98 -0.12,-21.96 0.04,-32.93c0.06,-4.25 -1.45,-6.47 -5.8,-6.97c-5.13,-0.6 -10.03,-2.17 -14.9,-4.98c-0.76,2.84 -0.14,5.31 -0.45,7.69c-0.21,1.51 0.17,3.33 -1.16,4.33c-0.29,0.22 -0.67,0.4 -1.15,0.53c-0.04,-1.33 -0.24,-2.67 -0.1,-3.98c0.8,-7.24 -0.84,-12.74 -6.98,-18.03c-7.91,-6.82 -12.26,-16.47 -11.99,-27.38c0.09,-3.87 -1.32,-4.78 -4.92,-4.7c-3.38,0.08 -6.93,1.06 -10.19,-0.83c0.35,-0.35 0.72,-0.61 1.1,-0.82c2.29,-1.23 5,-0.35 7.74,-0.82c-5.82,-4.39 -6.9,-10.3 -5.92,-16.83c0.72,-4.78 3.22,-8.14 7.01,-9.79c0.43,-0.19 0.88,-0.36 1.34,-0.5c1.27,-0.4 2.66,-0.63 4.16,-0.68c4.57,-0.16 9.12,0.1 13.67,0.41c0.26,0.01 0.51,0.03 0.77,0.05l0.06,0c0.28,0.02 0.57,0.04 0.86,0.06c5.28,0.35 10.57,0.7 15.88,0.44c0.21,0.14 0.4,0.28 0.56,0.43c0.05,0.05 0.09,0.09 0.13,0.13c0.09,0.1 0.18,0.19 0.25,0.29c1.12,1.43 0.76,3.32 0.78,5.02c0.09,8.47 0.01,16.94 0.04,25.41c0.07,15.29 6.52,27.1 19.25,35.59c4.35,2.9 8.56,4.39 13.32,1.04c0.89,-0.63 2,-1.09 3.18,-0.58c0.03,0.01 0.05,0.02 0.08,0.03c0.01,0 0.01,0.01 0.02,0.01c2.08,3.71 1.1,7.76 1.07,11.63c-0.03,4.04 1.5,6.29 5.26,7.85c3.53,1.48 7.88,1.7 10.3,5.31c0.09,0.13 0.18,0.26 0.26,0.4z" class="st5"/>
   <path id="svg_17" fill="#94D5A3" d="m76.04,394.46l0,1.32l-13.04,0c-0.38,-0.42 -0.67,-0.86 -0.87,-1.31c-0.77,-1.65 -0.58,-3.51 -0.6,-5.3c-0.08,-6.31 -0.08,-12.61 -0.02,-18.92c0.04,-3.38 -1.41,-4.75 -4.77,-4.73c-7.3,0.05 -14.6,0.06 -21.9,-0.02c-1.81,-0.02 -3.7,0.16 -5.34,-0.67c-0.44,-0.22 -0.85,-0.5 -1.25,-0.88c0.13,-9.25 -1.03,-18.53 0.77,-27.73c2.65,-13.59 10.2,-23.58 22.67,-29.46c6.56,-3.09 13.54,-5.25 20.34,-7.83c0.12,0.41 0.15,0.76 0.11,1.07c-0.18,1.63 -2.18,2.18 -2.88,3.53c-2.93,5.66 -5.28,11.42 -5.21,17.95c0.06,4.65 -0.05,9.31 0.03,13.96c0.06,3.48 -1.89,8.46 5.49,5.85c3.33,-1.17 6.48,3.04 6.49,7.6c0.03,15.19 -0.01,30.38 -0.02,45.57z" class="st8"/>
   <path id="svg_18" fill="#2B4D66" d="m130,117.22c-1.09,0.38 -2.16,0.78 -3.21,1.22c-6.82,2.75 -12.82,6.59 -16.71,13.44c-3,5.3 -4.9,10.88 -4.98,16.94c-0.13,9.32 0.19,18.64 -0.11,27.95c-0.24,7.87 1.67,14.37 9.04,18.34c-0.09,0.02 -0.17,0.03 -0.26,0.05c-0.36,0.06 -0.73,0.12 -1.09,0.16c-4.33,0.56 -8.68,-0.01 -13.02,0.18c-2.25,0.1 -4.5,-0.01 -6.75,0.32c-0.54,0.08 -1.09,0.19 -1.64,0.33c-2.32,0.59 -4.65,0.13 -6.03,-2.3c-4.78,-3.81 -6.53,-8.69 -6.31,-14.86c0.38,-10.64 0.04,-21.3 0.15,-31.96c0.17,-16.12 13.83,-29.77 29.96,-29.94c6.99,-0.08 13.98,0.08 20.96,0.13z" class="st3"/>
   <path id="svg_19" fill="#FEB09F" d="m257.39,433.09c-0.01,0.88 -0.15,1.74 -0.56,2.49c-0.2,0.41 -0.49,0.78 -0.86,1.11c-17.96,0.98 -36.65,-11.99 -41.91,-28.91c-0.11,-0.31 -0.2,-0.62 -0.29,-0.94c4.09,-2.95 9.08,-3.82 13.59,-5.81c2.15,-0.96 3.68,-2.08 3.66,-4.41c0,-0.23 -0.01,-0.47 -0.05,-0.73c0.03,-4.63 0.07,-9.26 0.1,-13.89c0.25,-0.1 0.49,-0.18 0.73,-0.23c1.27,-0.25 2.46,0.22 3.58,0.78c5.42,2.72 11.16,4.32 17.16,4.96c3.2,0.33 4.82,2.02 4.87,5.17c0.19,13.47 0.19,26.94 -0.02,40.41z" class="st9"/>
   <path id="svg_20" fill="#FEB09F" d="m142.04,275.57c0.01,13.7 0,27.4 0,41.1l0,1.31c-18.67,1.24 -37.26,-12.71 -41.83,-28.99c-0.08,-0.3 -0.16,-0.61 -0.24,-0.91c4.5,-1.9 8.97,-3.85 13.5,-5.67c1.72,-0.69 3.45,-1.19 3.69,-3.41c1.93,-4.18 0.31,-8.68 1.11,-13.43c0.07,-0.42 0.16,-0.84 0.27,-1.27c6.47,3.84 13.52,5.5 20.71,6.5c3.31,0.46 2.79,2.67 2.79,4.77z" class="st9"/>
   <path id="svg_21" fill="#FEB09F" d="m63.04,368.43c-0.18,8.68 -0.06,17.38 -0.04,26.06l0,1.29c-8.6,0.04 -17.2,0.19 -25.8,0.09c-5.49,-0.07 -8.92,-3.55 -9,-9.1c-0.11,-7.6 0.02,-15.21 0.05,-22.82l1.24,0c9.71,0 19.4,0.11 29.1,-0.1c3.57,-0.08 4.52,1.18 4.45,4.58z" class="st9"/>
   <path id="svg_22" fill="#2B4D66" d="m217.07,128.48c0.02,0.64 -0.07,1.23 -0.24,1.76c-0.07,0.23 -0.16,0.45 -0.26,0.66c-0.55,1.16 -1.5,2.09 -2.61,2.95c-10.83,8.41 -13.86,20.39 -8.44,33.17c0.8,1.89 2.07,3.62 2.07,5.78c-0.01,0 0,0.01 0,0.01c0,0.1 0,0.19 -0.01,0.29c-0.01,0.01 -0.02,0.03 -0.03,0.04c-1.65,2.94 -4.02,4.02 -7.2,3.02c-0.12,-0.03 -0.24,-0.07 -0.37,-0.12c-2.75,-0.55 -1.9,-2.76 -1.92,-4.42c-0.08,-6.49 -0.6,-13.04 0.11,-19.45c0.94,-8.45 -6.87,-14.44 -13.42,-15.1c-1,-0.1 -2.09,0.15 -2.99,-0.35c-0.26,-0.13 -0.49,-0.33 -0.71,-0.61c0.35,-0.34 0.63,-0.81 1.05,-1c10.57,-4.82 14.71,-13.09 13.18,-24.44c-0.11,-0.81 0.01,-1.65 0.03,-2.47c0.16,-0.11 0.31,-0.22 0.47,-0.32c3.66,-2.37 7.75,-1.05 11.68,-1.13c0.37,0 0.75,-0.02 1.12,-0.06c0.12,0 0.24,0.01 0.36,0.02c2.44,0.19 4.1,1.41 4.29,4.03c0.44,6.11 2.59,11.82 3.84,17.74z" class="st3"/>
   <path id="svg_23" fill="#FEB0A0" d="m144.83,195.34c-0.5,0.41 -1.01,0.77 -1.52,1.07c-3.95,2.34 -8.05,1.46 -12.18,0.03c-0.27,-0.09 -0.53,-0.18 -0.79,-0.28c-0.1,-0.04 -0.21,-0.07 -0.31,-0.11c-5.1,0 -10.19,0.03 -15.29,0.04c-5.68,0.02 -11.37,0.01 -17.05,-0.11c-5.2,-0.11 -8.37,2.66 -9.59,6.95c-2.22,7.75 -2.68,13.2 7.37,20.86c0.13,0.09 0.26,0.19 0.39,0.29l-12.88,0c-7.55,-1.94 -12.31,-8.19 -11.86,-15.58c0.5,-8.21 5.82,-13.73 14.12,-14.65c2.98,0.85 5.99,1.28 9.01,1.47c5.96,0.38 11.97,-0.18 17.95,-0.21c0.22,-0.01 0.43,-0.01 0.65,-0.01l0.06,0c0.37,0 0.75,0 1.12,0.01c10.27,0.08 20.53,0.16 30.8,0.23z" class="st4"/>
   <path id="svg_24" fill="#FEB09F" d="m206.25,104.66c0.85,0.69 2.2,1.02 2.69,2.05c0.17,0.37 0.23,0.84 0.1,1.45c-4.38,0.01 -8.74,0.03 -13.12,0.04l-0.61,0c-10.19,-5.84 -13.23,-14.1 -8.29,-22.26c1.98,-3.26 5.23,-4.88 8.24,-6.84l0.61,0c4.71,0.04 9.4,0.08 14.1,0.12c0.01,0.56 -0.12,0.97 -0.35,1.3c-0.57,0.84 -1.7,1.13 -2.52,1.69c-8.52,5.88 -8.9,15.91 -0.85,22.45z" class="st9"/>
   <path id="svg_25" fill="#FECF64" d="m483.74,365.84c-0.38,0.41 -0.8,0.73 -1.26,0.96c-0.84,0.44 -1.8,0.61 -2.78,0.61c-10.21,0.05 -20.42,0.43 -30.62,-0.12c-0.02,-0.02 -0.05,-0.05 -0.07,-0.07c-0.03,-0.02 -0.05,-0.04 -0.07,-0.07c-1.79,-1.8 -1.4,-4.17 -1.48,-6.39c-0.17,-4.31 0.25,-8.63 -0.28,-12.93c-0.32,-2.58 -1.78,-4.44 -4.48,-4.52c-2.9,-0.08 -4.52,1.73 -5.02,4.54c-0.31,1.81 -0.25,3.64 -0.25,5.46c-0.01,11.94 0.03,23.89 -0.02,35.83c-0.01,1.79 0.2,3.66 -0.56,5.3c-0.21,0.46 -0.5,0.9 -0.89,1.32c-41.03,0.04 -82.05,0.09 -123.08,0.13c-10.48,0.01 -20.97,-0.01 -31.45,-0.01l-0.44,0c-2.63,-4.12 -1.25,-8.61 -1.19,-12.98c0.03,-0.15 0.07,-0.3 0.11,-0.44c0.07,-0.25 0.16,-0.48 0.26,-0.71c0.73,-1.61 2.17,-2.69 3.47,-3.84c9.02,-7.97 14.89,-17.5 15.23,-29.92c0.06,-1.96 0.48,-3.97 2.1,-5.38c0.13,-0.11 0.26,-0.22 0.4,-0.32c0.05,-0.02 0.1,-0.04 0.15,-0.05c3.39,-1.23 6.92,-0.53 10.39,-0.7c0.37,-0.03 0.74,-0.07 1.1,-0.12c0.34,-0.04 0.66,-0.09 0.98,-0.15l0.01,0c6.52,-1.2 10.7,-5.59 11.56,-12.31c0.83,-6.55 -3.25,-12.31 -10.64,-15.02c-0.12,-0.05 -0.23,-0.09 -0.35,-0.13c-0.31,-0.13 -0.64,-0.23 -0.97,-0.3c-1.41,-0.33 -2.94,-0.36 -3.94,-1.67c-0.02,-0.02 -0.04,-0.04 -0.05,-0.07c-0.01,-0.01 -0.02,-0.02 -0.03,-0.03c0.53,-4.93 1.21,-9.84 1.15,-14.83c-0.03,-1.72 0.73,-3.22 2.22,-4.24c0,-0.01 0.01,-0.01 0.01,-0.01c0.3,-0.19 0.61,-0.36 0.92,-0.52c1.94,-1.02 4.05,-1.62 6.06,-2.5c0.21,-0.1 0.43,-0.19 0.64,-0.3c0.08,-0.03 0.16,-0.07 0.24,-0.11c2.34,-0.61 4.53,-2.05 7.09,-1.49c0.09,0.02 0.18,0.04 0.27,0.07c0.04,0.05 0.08,0.09 0.11,0.14c2.9,3.39 3.93,7.86 6.58,11.43c8.6,11.55 19.92,17.42 34.23,17.3c0.27,0 0.54,0 0.81,-0.01l0.03,0c17.79,0.22 30.05,-8.42 38.16,-23.75c0.86,-1.64 1.24,-3.53 2.49,-4.95c0.04,-0.05 0.08,-0.1 0.13,-0.14c0.04,-0.05 0.09,-0.1 0.14,-0.15c0.61,-0.29 1.27,-0.54 1.9,-0.33c8.19,2.73 16.63,4.86 23.93,9.77c0.01,0 0.01,0.01 0.02,0.01c6.58,3.57 13.8,5.6 20.69,8.43c15.88,6.51 26.05,20.99 26.37,38.31c0.14,7.32 -0.01,14.65 -0.03,21.97z" class="st10"/>
   <path id="svg_26" fill="#365E7D" d="m316.26,78.8c0,0.06 -0.01,0.12 -0.01,0.18c-0.15,0.09 -0.3,0.18 -0.45,0.26c-0.12,0.07 -0.24,0.14 -0.37,0.2c-0.02,0.01 -0.04,0.02 -0.07,0.03c-0.88,0.44 -1.77,0.73 -2.68,0.92c-3.75,0.79 -7.69,-0.17 -11.48,0.16c-0.1,-0.01 -0.19,-0.02 -0.29,-0.02c-0.32,-0.03 -0.64,-0.05 -0.97,-0.06c-6.7,-0.43 -13.43,0.27 -20.16,-0.71c-10.09,-1.46 -17.85,-6.03 -22.53,-15.3c-0.29,-0.58 -0.58,-1.19 -1.82,-1.67c-3.12,7.24 -8.24,12.6 -15.77,15.29c-0.21,0.08 -0.43,0.16 -0.65,0.22c-0.11,0.05 -0.23,0.08 -0.34,0.12c-3.8,1.19 -7.71,1.82 -11.68,2c-1.61,0.07 -3.32,0.13 -4.6,-1.09c-0.14,-0.12 -0.27,-0.26 -0.39,-0.42c1.79,-2.93 1.05,-6.18 0.94,-9.26c-0.44,-12.54 0.28,-24.81 6.36,-36.21c7.74,-14.48 19.06,-24.8 34.68,-30.19c0.97,-0.33 1.94,-0.6 2.81,-1.09c0.41,-0.22 0.79,-0.5 1.14,-0.86c27.71,6.58 45.29,26.58 48.33,54.97c0.33,7.51 0.34,15.02 0,22.53z" class="st7"/>
   <path id="svg_27" fill="#365E7D" d="m430.04,195.05c-0.1,0.72 -0.22,1.44 -0.37,2.16c-0.62,0.08 -1.24,0.14 -1.86,0.18c-0.5,0.04 -1,0.07 -1.5,0.09c-3.81,0.17 -7.63,-0.08 -11.44,-0.03l-0.08,0c-0.3,-0.03 -0.61,-0.04 -0.91,-0.06c-7.09,-0.38 -14.2,0.3 -21.32,-0.7c-9.84,-1.39 -16.79,-6.47 -21.31,-15.15c-0.3,-0.58 -0.57,-1.19 -1.86,-1.95c-2.97,7.47 -8.36,12.6 -15.72,15.56c-0.23,0.11 -0.46,0.2 -0.7,0.29c-0.01,0 -0.02,0.01 -0.03,0.01c-5.18,1.25 -10.32,3 -15.72,1.13c-0.21,-0.15 -0.39,-0.32 -0.55,-0.5c-0.06,-0.06 -0.11,-0.13 -0.15,-0.2c-0.4,-0.53 -0.61,-1.17 -0.66,-1.85c-1.43,-19.55 -0.35,-38.5 12.87,-54.63c7.92,-9.66 17.48,-16.76 29.33,-20.4c0.94,-0.29 1.89,-0.56 2.86,-0.8c27.27,5.07 46.49,26.92 49.29,56.02c0.01,6.95 0.85,13.91 -0.17,20.83z" class="st7"/>
   <path id="svg_28" fill="#FECDBD" d="m298.05,406.92c-0.1,0.3 -0.21,0.6 -0.33,0.9c-6.55,17.75 -23.61,29.59 -41.75,28.87l0,-1.06c0,-13.91 -0.11,-27.81 0.12,-41.71c0.06,-3.94 -1.14,-4.93 -5.02,-5.12c-6.81,-0.33 -13.03,-2.99 -18.97,-6.23c-0.35,-0.19 -0.69,-0.38 -1.03,-0.57c-13.52,-9.5 -19.59,-22.85 -20.07,-39.05c-1.14,-0.38 -2.19,-0.81 -3.16,-1.28c-5.54,-2.74 -8.32,-7.11 -8.68,-13.54c-0.29,-5.25 2.33,-10.31 6.73,-13.46c0.29,-0.2 0.58,-0.4 0.88,-0.59c0.73,-0.45 1.51,-0.86 2.32,-1.21c5.68,-0.79 11.39,-0.29 17.08,-0.35c0.57,0 1.13,-0.02 1.7,-0.04l0.13,0c5.12,0.19 10.29,-0.68 15.35,0.69c0.42,0.27 0.75,0.56 1.01,0.88c0.05,0.06 0.1,0.11 0.13,0.17c1.11,1.5 0.83,3.45 0.85,5.24c0.09,8.97 0.01,17.94 0.04,26.9c0.06,15.5 7.53,26.77 20.08,35.15c3.7,2.47 7.46,3.54 11.61,0.99c0.92,-0.56 1.99,-0.95 3.1,-0.75c0.24,0.05 0.47,0.11 0.71,0.21c0.04,4.64 0.08,9.28 0.11,13.92c-0.03,0.29 -0.05,0.57 -0.03,0.82c0.04,3 2.45,4.06 4.89,5.08c4.06,1.72 8.13,3.43 12.2,5.14z" class="st5"/>
   <path id="svg_29" fill="#365E7D" d="m449.33,279.9c-2.05,7.36 -6.26,13.05 -12.62,17.2c-0.01,0.01 -0.01,0.02 -0.02,0.02c-8.52,-3.05 -17.04,-6.09 -25.56,-9.13l-0.01,0c-0.18,0 -0.36,0 -0.53,-0.02c-5.32,-0.18 -9.77,-2.95 -14.36,-5.16c-1.96,-0.95 -2.55,-3.03 -2.58,-5.11c-0.07,-4.66 -0.51,-9.32 0.34,-13.95c0.04,-0.11 0.08,-0.22 0.13,-0.33c0.06,-0.17 0.14,-0.33 0.22,-0.49c0.82,-1.69 2.24,-2.95 3.61,-4.19c8.17,-7.46 12.98,-16.63 14.23,-27.65c0.45,-2.12 0.78,-3.54 1.28,-4.5c0.23,-0.46 0.52,-0.81 0.87,-1.08c1,-0.77 2.59,-0.87 5.48,-0.94c2.14,-0.04 4.27,-0.16 6.4,-0.4c0.25,-0.02 0.49,-0.05 0.74,-0.08c0.06,-0.01 0.12,-0.01 0.18,-0.02c1.66,-0.08 2.58,0.44 3.01,1.48c0.24,0.57 0.33,1.3 0.32,2.17c-0.04,3.11 -0.34,6.23 0.23,9.33c0.33,5.49 3.65,9.06 7.84,12.03c11.36,8.03 14.56,17.28 10.8,30.82z" class="st7"/>
   <path id="svg_30" fill="#2B4D66" d="m380.92,118.2c-0.44,0.38 -0.88,0.73 -1.35,1.05c-4.24,3 -9.55,3.88 -13.93,6.8c-17.9,11.95 -28.05,28.15 -28.65,49.89c-0.19,6.64 -0.04,13.28 -0.04,19.93c-0.09,0.07 -0.19,0.14 -0.28,0.21c-3.79,2.68 -8.15,0.98 -12.22,1.46c-1.02,-0.1 -2.04,-0.14 -3.06,-0.15c-0.48,-0.01 -0.95,0 -1.43,0.02c-3.2,0.05 -6.39,0.34 -9.58,-0.01c-0.17,-0.08 -0.33,-0.18 -0.48,-0.3c-0.07,-0.05 -0.14,-0.11 -0.2,-0.18c-0.21,-0.2 -0.38,-0.45 -0.52,-0.73c-0.01,-0.1 -0.02,-0.19 -0.03,-0.29c-0.59,-6.4 -0.94,-12.74 -0.7,-18.94c0.53,-13.51 3.86,-26.39 13.51,-37.87c1.54,-1.84 2.94,-3.82 5.23,-4.74c0.25,-0.1 0.51,-0.19 0.78,-0.26c12.73,-11.81 27.62,-17.82 45.11,-17.05c2.68,0.12 5.28,0.45 7.84,1.16z" class="st3"/>
   <path id="svg_31" fill="#365E7D" d="m327.97,134.09c-0.12,0.13 -0.24,0.26 -0.35,0.39c-8.55,9.27 -14.71,19.84 -17.05,32.39c-1.38,7.39 -0.26,14.87 -0.57,22.3c-0.1,2.32 -0.04,4.64 -0.05,6.96c-0.31,-0.05 -0.57,-0.13 -0.8,-0.23c-1.69,-0.72 -1.37,-2.6 -1.48,-4.06c-0.25,-3.14 -0.29,-6.31 -0.05,-9.44c0.34,-4.47 -1.29,-7.31 -5.72,-8.52c-1.41,-0.38 -2.76,-0.99 -4.13,-1.54c-0.28,-0.11 -0.55,-0.22 -0.83,-0.33c-0.05,-0.02 -0.11,-0.04 -0.16,-0.06c-3.96,-1.74 -8.09,-3.07 -12.1,-4.71c-3.29,-1.36 -5.11,-3.56 -5.07,-7.2c0.06,-4.42 -0.35,-8.85 0.28,-13.25c0.01,-0.07 0.02,-0.14 0.03,-0.21c0.06,-0.23 0.13,-0.45 0.22,-0.65c0.55,-1.35 1.65,-2.3 2.74,-3.23c9.48,-8.04 14.39,-18.41 15.74,-30.62c0.18,-1.6 0.1,-3.35 1.5,-4.48c0.15,-0.12 0.31,-0.24 0.5,-0.34c0.05,-0.01 0.09,-0.03 0.14,-0.04c3.74,-1.05 7.54,-0.68 11.33,-0.53c0.29,0.01 0.58,0.02 0.87,0.03l0.03,0c1.71,0.12 2.68,0.75 3.14,1.86c0.3,0.66 0.4,1.48 0.39,2.46c-0.05,2.97 -0.46,5.98 0.29,8.94c0.55,7.21 5.61,10.85 11.16,14.11z" class="st7"/>
   <path id="svg_32" fill="#FECDBD" d="m483.85,386.26c-0.05,6.07 -3.56,9.59 -9.6,9.64c-8.47,0.07 -16.94,-0.03 -25.41,-0.06c-0.41,-0.42 -0.71,-0.88 -0.91,-1.38c-0.31,-0.69 -0.44,-1.44 -0.46,-2.22c-0.23,-7.05 -0.22,-14.11 -0.02,-21.16c0.05,-1.45 0.29,-2.89 1.49,-3.93c0.02,-0.03 0.04,-0.05 0.07,-0.07c1.74,-1.35 3.78,-1.05 5.77,-1.06c9.23,-0.06 18.46,-0.11 27.69,-0.17c0.42,0 0.85,-0.01 1.27,-0.01c0.04,6.81 0.17,13.61 0.11,20.42z" class="st5"/>
   <path id="svg_33" fill="#FEC150" d="m449.01,367.08l0,0.14c-0.05,9.09 -0.1,18.18 -0.16,27.27c0,0.45 -0.01,0.9 -0.01,1.35c-4.29,-0.03 -8.59,-0.05 -12.88,-0.08l0,-1.3c-0.01,-15.05 -0.04,-30.08 -0.02,-45.13c0,-4.91 2.83,-8.36 6.63,-8.23c3.75,0.12 6.31,3.31 6.36,8.01c0.05,5.99 0.06,11.98 0.08,17.97z" class="st11"/>
   <path id="svg_34" fill="#FECDBD" d="m319.76,105.77c-2.19,1.54 -2.99,3.18 -2.84,5.76c0.17,2.8 -0.06,5.63 -0.11,8.45c-1.28,-2.96 -0.63,-6.09 -0.59,-9.12c0.01,-0.74 -0.08,-1.3 -0.27,-1.72c-0.46,-1.04 -1.5,-1.23 -2.96,-1.11c-0.38,-0.41 -0.68,-0.86 -0.9,-1.34c-0.33,-0.7 -0.51,-1.46 -0.53,-2.26c-0.23,-6.91 -0.24,-13.83 0,-20.75c0.04,-1.41 0.38,-2.55 1.12,-3.29c0.61,-0.6 1.48,-0.93 2.68,-0.92c0.14,0 0.29,0.01 0.44,0.02l0,-0.25c0.02,-0.65 0.03,-1.31 0.04,-1.96c0.14,-7 0.28,-14.01 0.42,-21.01c1.56,6.2 0.47,12.5 0.63,18.75c0.08,3.01 0.7,5.01 3.35,7.01c8.73,6.61 8.42,17.42 -0.48,23.74z" class="st5"/>
   <path id="svg_35" fill="#FECDBD" d="m433.65,222.86c-2.15,1.14 -2.94,2.79 -2.8,5.25c0.16,2.97 -0.09,5.96 -0.16,8.94c-1.25,-2.98 -0.61,-6.11 -0.57,-9.15c0.01,-0.68 -0.06,-1.23 -0.22,-1.65c-0.4,-1.13 -1.39,-1.39 -2.95,-1.19c-0.31,-0.27 -0.55,-0.57 -0.74,-0.89c-0.59,-0.95 -0.74,-2.06 -0.78,-3.18c-0.2,-6.6 -0.29,-13.22 0.05,-19.82c0.06,-1.27 0.06,-2.8 0.83,-3.69c0.51,-0.61 1.39,-0.93 2.89,-0.66c0.28,-0.85 0.49,-1.71 0.64,-2.57c0.79,-4.66 -0.15,-9.4 0.2,-14.09c0.14,-1.97 0.12,-3.96 0.17,-5.94c1.52,5.87 0.47,11.83 0.62,17.74c0.07,3.01 0.5,5.16 3.36,7c9.01,5.79 7.24,19.75 -0.54,23.9z" class="st5"/>
   <path id="svg_36" fill="#FECDBD" d="m280.77,146.07c-0.02,4.47 0.09,8.94 -0.1,13.41c-0.15,3.55 1.41,5.44 4.68,6.59c4.03,1.42 7.93,3.22 11.88,4.86c1.01,1.62 0.5,3.19 -0.19,4.74c-6.81,15.42 -18.9,23.86 -35.28,26.49c-2.22,0.35 -4.68,0.63 -6.43,-1.53c-1.04,-2.21 -0.78,-4.57 -0.79,-6.88c-0.04,-10.99 -0.09,-21.98 0.02,-32.97c0.04,-4.05 -1.32,-6.07 -5.64,-6.42c-6.41,-0.51 -12.27,-2.92 -17.61,-6.5c-4.38,-3.29 -8.67,-6.66 -11.79,-11.31c-1.59,-2.37 -2.96,-4.75 -3.45,-7.58c-2.09,-5.85 -4.01,-11.76 -3.91,-18.06c0.04,-2.43 -1.48,-2.51 -3.12,-2.73c-1.73,-2.05 -4.44,-2.71 -6.24,-4.8c-6.43,-7.45 -4.43,-19.41 7.17,-24.13c4.01,-0.11 8.02,-0.21 12.03,-0.32c5.76,0.34 11.4,-0.52 17.01,-1.64c1.76,1.76 1.3,4.03 1.31,6.13c0.06,8.81 -0.07,17.63 0.05,26.45c0.22,16.71 7.52,29.23 22.19,37.5c4.52,2.55 8.67,2.91 13.12,0.21c1.53,-0.96 3.08,-2.14 5.09,-1.51z" class="st5"/>
   <path id="svg_37" fill="#FE7F86" d="m256.01,201.01c18.86,0.88 37.06,-13.16 41.23,-30.08c0.17,0.01 0.34,-0.01 0.5,0.03c11.35,3.39 11.26,3.39 11.41,14.98c0.04,3.39 -0.97,6.92 0.81,10.2c0.01,0.24 0.04,0.48 0.11,0.71c-0.55,1.14 -1.74,1.43 -2.71,2.02c-9.59,5.86 -10.01,17.04 -0.87,23.46c1.21,0.85 2.54,1.55 3.23,2.96c2.59,14.01 0.02,19.91 -11.95,27.33c-1.26,0.78 -2.44,1.69 -3.78,2.35c-3.55,1.04 -5.16,-1.52 -5.77,-3.99c-2.83,-11.51 -10.67,-14.42 -21.39,-13.59c-12.75,0.99 -25.44,-1.58 -38.2,-1.02c-2.15,0.09 -4.31,-0.1 -6.4,0.6c-11.27,1.02 -19.62,6.4 -24.87,16.51c-1.95,3.75 -3.01,7.65 -2.95,11.91c0.09,6.62 0.09,13.25 -0.02,19.87c-0.03,2.04 0.54,4.39 -1.78,5.77c-2.81,-0.96 -5.63,-1.91 -8.44,-2.87c-4.26,-1.73 -8.47,-3.62 -12.81,-5.15c-3.06,-1.08 -4.6,-2.73 -4.41,-6.14c0.25,-4.6 0.15,-9.23 0.2,-13.84c0.47,-1.98 2.24,-2.83 3.56,-4.03c8.07,-7.36 12.89,-16.36 14.28,-27.24c0.33,-2.55 0.21,-5.4 2.43,-7.39c4.1,-1.6 8.49,-0.1 12.63,-1.16c10.78,-2.74 15.01,-13.53 8.72,-22.67c-2.36,-3.43 -5.79,-4.85 -9.62,-5.69c-1.16,-0.4 -2.37,-0.75 -3.13,-1.82c2.76,-3.16 2.18,-7.01 2.26,-10.73c0.05,-2.21 -0.63,-4.65 1.71,-6.25c2.56,-0.49 4.94,-1.44 7.18,-2.77c1.83,-2.13 4.04,-3.24 6.91,-2.6c1.87,1.55 2.55,3.84 3.6,5.88c7.21,13.9 18.52,21.74 34.16,23.19c1.49,0.13 3,0.11 4.17,1.26z" class="st12"/>
   <path id="svg_38" fill="#2B4D66" d="m192.6,291.02c0.12,-8.8 0.1,-17.61 0.4,-26.4c0.53,-15.51 13.27,-28.12 28.8,-28.72c6.45,-0.85 12.93,-0.17 19.4,-0.35c0.61,-0.02 1.37,-0.13 1.73,0.81c-0.23,1.73 -1.84,2.05 -3.11,2.63c-13.24,6.05 -19.52,16.43 -19.41,30.89c0.07,8.82 0.19,17.64 -0.05,26.45c-0.15,5.7 1.2,10.5 5.82,14.12c1.03,0.81 2.03,1.78 1.78,3.34c-6.66,0.11 -13.33,0.22 -19.99,0.32c-3.68,1.22 -7.09,1.25 -9.66,-2.26c-4.67,-3.95 -5.9,-9.12 -5.49,-14.97c0.14,-1.94 -0.14,-3.9 -0.22,-5.86z" class="st3"/>
   <path id="svg_39" fill="#FEB09F" d="m198.32,311.85c3.09,1.3 6.25,2.33 9.66,2.26c-11.25,8.59 -10.07,19.82 3.03,28.83c-2.66,0.01 -5.33,0.04 -7.99,0.04c-10.59,0 -16.54,-4.24 -17.9,-12.75c-1.35,-8.37 3.56,-15.21 13.2,-18.38z" class="st9"/>
   <path id="svg_40" fill="#FEDDCE" d="m187.02,225c-0.82,15.71 -6.09,29.1 -19.89,38.02c-9.95,8.45 -17.16,2.44 -26.62,-7.54c-8.2,-8.65 -11.07,-19.6 -10.55,-31.58c0.4,-9.27 0.08,-18.57 0.07,-27.86c4.92,-0.53 9.92,0.76 14.79,-0.71c12.23,-0.49 21.53,-6.03 28.54,-17.95c1.23,9.64 5.43,15.43 13.59,17.78c0.75,0.7 1.28,1.58 1.34,2.57c0.52,8.21 0.51,16.43 0.01,24.64c-0.05,1.02 -0.61,1.88 -1.28,2.63z" class="st13"/>
   <path id="svg_41" fill="#FEB09F" d="m187.02,225c-0.02,-9.94 -0.04,-19.89 -0.06,-29.83c3.21,0.1 6.35,-0.09 9.04,-2.15c1.09,0.08 2.29,-0.18 3.02,0.99c1.7,1.94 1.48,4.32 1.53,6.64c0.15,7.81 -0.35,15.63 0.52,23.42c-4.57,1.97 -9.38,0.47 -14.05,0.93z" class="st9"/>
   <path id="svg_42" fill="#365E7D" d="m213.99,171.08c-2.28,0.73 -4.56,1.46 -6.83,2.19c-5.29,-8.58 -6.4,-17.76 -4.28,-27.54c1.21,-5.57 4.35,-9.49 9.19,-12.19c1.92,-1.07 3.81,-2.07 4.01,-4.59c3.82,6.72 8.36,12.81 14.94,17.12c5.58,13.67 -1.65,24.28 -17.03,25.01z" class="st7"/>
   <path id="svg_43" fill="#365E7D" d="m227.97,313.79c-7.58,-4.8 -9.79,-11.77 -9.06,-20.45c0.57,-6.76 0.39,-13.62 0.06,-20.42c-0.86,-17.56 6.2,-29.98 22.9,-37.01c-6.69,0 -13.37,0 -20.06,0c5.23,-1.46 10.57,-0.6 15.84,-0.61c11.47,-0.01 22.94,0.27 34.4,0.55c9.66,0.24 13.7,3.46 16.63,12.68c0.84,2.64 0.96,6.2 5.33,5.56c1.99,0.16 3.98,0.35 5.95,0.66c8.28,1.3 13.21,6.95 13.45,15.35c0.22,7.64 -0.47,15.3 0.6,22.92c-2.39,1.3 -1.8,3.58 -1.86,5.65c-0.12,4.53 0.87,9.27 -2.56,13.15c-2.03,3.33 -5.14,3.57 -8.54,3.02c-7.38,-2.05 -12.71,-6.28 -14.44,-15.23c-6.15,8.92 -13.81,13.89 -23.48,15.09c-6.34,0.79 -12.82,1.73 -19.11,-0.66c-5.36,-0.08 -10.71,-0.16 -16.05,-0.25z" class="st7"/>
   <path id="svg_44" fill="#FECDBD" d="m323.93,196.27c4.34,-0.14 8.68,-0.27 13.02,-0.41c5.43,0.36 10.75,-0.44 16.03,-1.61c1.76,1.76 1.3,4.03 1.31,6.14c0.06,9.15 -0.17,18.31 0.07,27.45c0.43,16.54 8,28.77 22.61,36.71c4.35,2.37 8.39,2.75 12.7,0.11c1.51,-0.92 3.07,-2.09 5.08,-1.68c-0.04,4.65 -0.02,9.3 -0.16,13.95c-0.09,3.1 1.3,4.9 4.16,5.98c4.17,1.57 8.26,3.37 12.38,5.08c-3.88,16.68 -23.33,31.61 -41.18,30c-1.69,-1.96 -1.43,-4.36 -1.44,-6.66c-0.04,-10.82 0.02,-21.63 -0.03,-32.45c-0.03,-6.02 -0.4,-6.48 -6.2,-7.48c-6.15,-1.05 -11.94,-2.95 -17.05,-6.64c-7.6,-4.42 -12.58,-11.11 -16.3,-18.89c-3.16,-5.8 -3.56,-12.3 -4.74,-18.6c-1.17,-2.04 -3.51,-2.35 -5.25,-3.53c-5.22,-3.54 -8,-9.7 -6.81,-15.36c1.53,-7.37 4.96,-10.89 11.8,-12.11z" class="st5"/>
   <path id="svg_45" fill="#FEDDCE" d="m244,314.05c5.31,-0.08 10.64,0.07 15.94,-0.28c11.79,-0.77 20.69,-6.46 27.46,-18.26c0.72,10.25 5.44,15.75 13.58,18.34c0.98,1.2 1.46,2.6 1.5,4.13c0.18,6.96 0.18,13.91 0,20.87c-0.04,1.52 -0.45,2.94 -1.52,4.11c-1.01,8.86 -1.88,17.7 -7.08,25.47c-3.56,5.33 -8.15,9.51 -13,13.52c-9.46,4.94 -13.42,4.16 -21.5,-3.03c-10.84,-9.65 -16.11,-21.38 -15.46,-35.99c0.42,-9.61 0.08,-19.25 0.08,-28.88z" class="st13"/>
   <path id="svg_46" fill="#FEB09F" d="m344.93,263.06c5.89,3.93 12.24,6.46 19.38,7.05c3.75,0.31 5.96,1.68 5.8,6.49c-0.45,13.78 -0.16,27.59 -0.17,41.38c-18.48,1.08 -36.3,-11.21 -41.99,-29.9c-0.35,-1.83 1.17,-2.17 2.28,-2.69c1.94,-0.9 3.97,-1.59 5.96,-2.4c7.04,-2.87 7.28,-3.35 7.45,-10.91c0.06,-3.02 -0.91,-6.27 1.29,-9.02z" class="st9"/>
   <path id="svg_47" fill="#365E7D" d="m344.93,263.06c0.02,4.31 -0.18,8.63 0.12,12.91c0.27,3.84 -1.52,5.76 -4.84,7.03c-4.13,1.58 -8.18,3.38 -12.27,5.09c-2.27,0.73 -4.54,1.47 -6.81,2.2c-0.46,-0.19 -0.95,-0.36 -1.28,-0.73c-8.92,-9.89 -6.44,-32.12 4.49,-39.57c1.91,-1.3 3.54,-2.98 5.64,-4c3.85,6.7 8.25,12.89 14.95,17.07z" class="st7"/>
   <path id="svg_48" fill="#2B4D66" d="m329.99,246c-0.19,2.55 -2.16,3.47 -4.06,4.54c-4.67,2.62 -7.81,6.41 -9.02,11.75c-2.23,9.9 -1.19,19.27 4.23,28c-2.25,1.25 -4.59,2.27 -7.15,2.73c-2.72,-0.5 -1.96,-2.67 -1.98,-4.34c-0.07,-6.11 -0.02,-12.23 -0.03,-18.35c-0.02,-8.47 -5.2,-13.89 -13.59,-14.35c-1.63,-0.09 -3.85,0.87 -4.39,-1.88c0.9,-1.73 2.64,-2.41 4.2,-3.27c7.59,-4.18 11.89,-10.18 10.96,-19.24c-0.22,-2.12 -0.01,-4.28 0,-6.42c3.77,-2.13 7.66,-0.37 11.48,-0.26c1.76,0.05 3.54,0.57 5.32,0.87c-0.16,7.03 1.57,13.7 4.03,20.22z" class="st3"/>
   <path id="svg_49" fill="#FEB09F" d="m300.97,342.96c0.01,-9.7 0.01,-19.4 0.02,-29.11c3.09,0.27 5.92,-0.51 8.58,-2.04c1.8,0.45 3.86,-0.45 5.46,1.04c-0.89,7.78 -0.37,15.6 -0.53,23.39c-0.05,2.3 0.23,4.7 -1.49,6.63c-4.01,0.05 -8.03,0.07 -12.04,0.09z" class="st9"/>
   <path id="svg_50" fill="#FECDBD" d="m313.01,342.89c-0.01,-8.57 -0.04,-17.14 -0.01,-25.7c0.01,-1.7 -0.63,-3.82 2.03,-4.32c7.24,1.6 12.27,8.09 11.9,15.34c-0.4,7.8 -5.83,13.52 -13.92,14.68z" class="st5"/>
   <path id="svg_51" fill="#FEDDCE" d="m280.77,146.07c-8.44,7.2 -16.21,5.22 -24.4,-0.97c-10.94,-8.27 -16.66,-19.14 -17.26,-32.52c-0.52,-11.75 -0.1,-23.54 -0.1,-35.31c8.23,-3.52 13.82,-9.47 16.38,-18.18c2.27,0.66 1.94,2.69 2.6,4.02c4.29,8.6 10.87,13.83 20.61,15.18c7.11,0.99 14.23,0.39 21.32,0.92c0.89,0.84 1.37,1.9 1.43,3.09c0.39,7.61 0.36,15.23 0.02,22.84c-0.05,1.2 -0.66,2.21 -1.25,3.21c-0.64,15.55 -6.38,28.49 -19.35,37.72z" class="st13"/>
   <path id="svg_52" fill="#FEB09F" d="m300.13,108.35c-0.07,-9.71 -0.13,-19.42 -0.2,-29.14c5.29,-0.2 10.59,-0.54 15.87,0.27c-2.72,0.58 -2.88,2.52 -2.85,4.85c0.11,7.9 0.04,15.79 0.05,23.69c-4.29,0.12 -8.58,0.23 -12.87,0.33z" class="st9"/>
   <path id="svg_53" fill="#FEDDCE" d="m394.74,262.99c-10.93,7.59 -13.53,7.73 -27.78,-3.76c-9.59,-7.73 -13.91,-18.71 -13.98,-31.12c-0.07,-11.28 -0.01,-22.57 0,-33.85c8.25,-3.51 13.79,-9.51 16.36,-18.34c0.67,0.46 1.27,0.64 1.39,0.99c4.23,12.61 13.39,18.37 26.26,18.93c5.62,0.24 11.26,0.28 16.88,0.42c1.49,1.37 1.57,3.22 1.59,5.03c0.09,6.43 0.14,12.87 -0.02,19.31c-0.1,3.93 -2.76,7.35 -2.36,11.4c-1.18,13.24 -7.79,23.27 -18.34,30.99z" class="st13"/>
   <path id="svg_54" fill="#FDB09F" d="m413.09,231.98c0.98,-11.9 0.94,-23.82 0.78,-35.74c5.12,-0.02 10.27,-0.94 15.33,0.57c-2.59,0.45 -2.25,2.46 -2.25,4.27c0,7.99 0,15.98 0,23.97c-1.65,1.19 -3.59,0.83 -5.3,0.6c-5.05,-0.68 -8.6,0.29 -8.56,6.33z" class="st14"/>
   <path id="svg_55" fill="#FDB09F" d="m325.96,225.77c-5.6,-0.2 -11.2,-0.41 -16.8,-0.61c-6.84,-2.78 -10.67,-7.42 -10.27,-15.24c0.35,-6.94 4.01,-11.54 11.16,-13.08c4.57,-1.39 9.24,-0.66 13.87,-0.56c-6.98,2.57 -10.84,7.76 -10.81,15c0.05,8.18 5.94,11.97 12.85,14.49z" class="st14"/>
   <path id="svg_56" fill="#FEB09F" d="m213.99,171.08c3.93,-1.66 7.79,-3.52 11.8,-4.92c3.8,-1.32 5.67,-3.43 5.33,-7.67c-0.34,-4.12 -0.09,-8.28 -0.1,-12.42c6.09,3.89 12.52,6.88 19.91,6.96c3.8,0.04 5.18,1.66 5.14,5.52c-0.17,14.15 -0.06,28.31 -0.06,42.46c-18.32,1.3 -36.41,-11.69 -42.02,-29.93z" class="st9"/>
   <path id="svg_57" fill="#FECDBD" d="m201.07,224.06c-2.71,-0.48 -2,-2.63 -2.01,-4.32c-0.05,-8.58 -0.03,-17.16 -0.03,-25.74c7.47,0.56 12.98,5.72 13.93,13.06c1.03,7.99 -3.28,14.15 -11.89,17z" class="st5"/>
  </g>
 </g>
</svg>