<svg width="512" height="512" xmlns="http://www.w3.org/2000/svg" xml:space="preserve" version="1.1">

 <g>
  <title>Layer 1</title>
  <g id="svg_1">
   <path id="svg_2" fill="#FEFEFE" d="m56.72,288.12c-0.7,1.38 -2.77,1.24 -4.32,1.26c-8.16,0.1 -16.31,0.15 -24.47,0.01c-11.64,-0.19 -20.94,3.41 -25.68,14.97c-0.37,0.91 -0.89,1.83 -2.17,1.64c4.57,-13.13 14.08,-18.43 27.63,-17.95c9.21,0.33 18.44,0.08 29.01,0.07z" class="st0"/>
   <path id="svg_3" fill="#FEFEFE" d="m260.74,41.52c0.84,-9.25 2.89,-18.32 5.16,-27.3c1.93,-7.58 7.32,-11.23 15.03,-11.18c13.48,1.02 21.69,7.03 19.86,18.14c-1.73,10.58 -5.35,20.94 -10.38,30.48c-3.27,6.22 -11.49,8.02 -19.03,5.39c-7.17,-2.5 -11.3,-8.3 -10.64,-15.53z" class="st0"/>
   <path id="svg_4" fill="#FEFEFE" d="m337.75,94.39c-6.06,-6.65 -5.72,-15.24 0.72,-22.33c5.13,-5.65 10.06,-11.48 15.16,-17.15c3.04,-3.39 6.82,-5.24 11.2,-4.88c7.12,0.04 15.51,6.38 18.38,13.67c2.47,6.3 0.81,12.28 -5.28,17.84c-5.51,5.03 -11.11,9.99 -16.86,14.74c-7.85,6.48 -16.42,5.69 -23.32,-1.89z" class="st0"/>
   <path id="svg_5" fill="#FEFEFE" d="m386.35,141.46c6.21,-2.33 12.64,-4.09 18.8,-6.52c15.4,-6.06 24.41,1.69 25.77,17.12c0.67,7.68 -3.24,14 -10.19,15.79c-9.27,2.39 -18.77,3.9 -25.58,5.26c-11.51,0.16 -17.45,-4.72 -19.06,-13.41c-1.54,-8.33 2.21,-15.21 10.26,-18.24z" class="st0"/>
   <path id="svg_6" fill="#FEFEFE" d="m511.92,349.98c-2.85,-0.44 -2.25,-2.94 -2.52,-4.65c-2.29,-14.21 -5.95,-27.98 -12.11,-41.04c-9.68,-20.51 -23.19,-37.96 -40.96,-52.11c-22.54,-17.96 -48.31,-27.71 -76.82,-30.7c-1.44,-0.15 -2.89,-0.03 -4.34,-0.07l-0.15,0c-1.32,-0.03 -2.64,-0.06 -3.95,-0.07c-13.31,-0.16 -26.51,0.7 -39.45,4.27c-1.45,0.4 -2.94,0.57 -4.41,0.01c-0.18,-0.2 -0.35,-0.39 -0.53,-0.58c-0.09,-0.1 -0.19,-0.2 -0.28,-0.3c-6.73,-7.03 -15.2,-8.91 -24.82,-8.41c-5.71,0.3 -11.6,1.12 -17.27,-0.84c-0.1,-0.2 -0.18,-0.38 -0.23,-0.54c-0.01,-0.03 -0.02,-0.06 -0.03,-0.09l0,-0.01c-0.48,-1.66 1.35,-1.78 2.34,-2.23c9.73,-4.42 14.79,-11.7 14.25,-22.6c-0.1,-2.14 -0.06,-4.28 -0.03,-6.42c0.01,-0.48 0.01,-0.96 0.01,-1.44c0,-1.17 -0.02,-2.34 -0.08,-3.51c-0.02,-4.82 0.09,-9.64 -0.04,-14.45c-0.3,-10.98 -6.96,-18.8 -17.72,-20.98c-5.93,-1.2 -11.92,-0.52 -17.88,-0.71c-7.3,-0.23 -14.61,0.48 -21.89,-0.41c-0.01,0 -0.03,-0.01 -0.04,-0.02c-0.18,-0.05 -0.35,-0.12 -0.51,-0.19c-2.42,-1.04 -3.46,-3.34 -4.7,-5.48c-19.9,-34.39 -39.58,-68.89 -59.66,-103.17c-7.58,-12.94 -19.39,-18.58 -33.01,-16.29c-0.94,0.17 -1.85,0.37 -2.73,0.61c-0.93,0.25 -1.83,0.54 -2.71,0.86c-7.4,2.75 -12.86,8.1 -16.94,15.23c-19.98,34.88 -40.19,69.61 -60.27,104.43c-0.86,1.49 -1.64,3.06 -3.26,3.79c-0.23,0.1 -0.47,0.19 -0.74,0.25c-0.03,0.01 -0.07,0.02 -0.1,0.03c-6.98,0.69 -13.97,0.21 -20.95,0.32c-14.71,0.22 -23.68,9.05 -23.87,23.68c-0.1,7.99 -0.1,15.98 0,23.96c0.19,14.75 9.02,23.4 23.87,23.5c5.49,0.04 10.98,-0.1 16.47,0.09c1.48,0.05 3.41,-0.02 3.96,1.52c0.63,1.77 -1.28,2.51 -2.5,3.17c-8.9,4.85 -12.35,12.4 -11.9,22.34c0.35,7.98 0.26,15.98 0.02,23.96c-0.27,8.66 3.22,15.08 10.45,19.66c1.31,0.82 3.45,1.57 2.98,3.35c-3.67,-2.13 -6.52,-3.57 -8.71,-5.95c-3.75,-4.06 -6.14,-8.61 -6.16,-14.24c-0.02,-8.98 0.27,-17.97 -0.12,-26.94c-0.52,-11.9 4.43,-20.1 15.31,-25.54c-6.97,0 -13.95,0.01 -20.92,0c-14.32,-0.01 -24.08,-9.69 -24.14,-24.01c-0.04,-8.65 -0.01,-17.3 0.05,-25.95c0.11,-14.01 9.94,-23.89 23.85,-23.96c7.65,-0.04 15.3,0.05 22.95,0.08c10.64,-18.24 21.31,-36.45 31.89,-54.72c10.5,-18.13 20.82,-36.37 31.4,-54.46c5.1,-8.71 12.3,-14.77 22.75,-16.07c12.13,-2.88 26.45,3.1 33.71,15.67c10.07,17.42 20.12,34.85 30.19,52.27c11.07,19.14 22.16,38.27 33.24,57.41c13.8,0.16 27.66,-1.21 41.38,0.69c10.67,1.48 18.09,10.48 18.38,21.15c0.15,5.32 -0.06,10.65 -0.1,15.97c0.05,3.16 -0.1,6.35 0.2,9.48c1.09,11.48 -3.71,21.45 -17.86,26.37c8.58,0.02 17.16,-0.21 25.72,0.13c7.26,0.29 13.39,3.16 17.25,9.75c12.5,-2.46 24.93,-5.42 37.81,-4.95c3.65,0.14 7.31,0.22 10.96,0.33c21.63,1.01 42.02,6.75 60.76,17.43c42.87,24.42 67.59,61.32 74.26,110.24c0.11,0.82 0.09,1.67 1,2.1z" class="st0"/>
   <path id="svg_7" fill="#FEC150" d="m377.06,508.73c0,0.03 -0.01,0.07 -0.03,0.1c-0.09,0.25 -0.31,0.51 -0.69,0.78c-11.46,1.85 -22.85,1.07 -34.19,-0.87c-14.55,-2.5 -28.43,-7.08 -41.51,-13.93c-3.27,-1.71 -4.83,-1.74 -6.79,2.06c-5.14,9.97 -13.88,14.15 -25.04,14.09c-24.81,-0.14 -49.62,-0.05 -74.44,-0.05c-54.62,0 -109.24,-0.01 -163.86,0.02c-11.31,0 -20.08,-4.03 -24.89,-14.86c-1.45,-3.27 -2.02,-6.65 -2.01,-10.2c0.02,-8.33 -0.02,-16.65 0.01,-24.98c0.04,-18.17 11.65,-28.34 29.8,-25.98c-9.96,-4.07 -13.91,-12.2 -14.61,-22.02c-0.64,-8.96 -0.56,-17.99 -0.02,-26.96c0.57,-9.56 3.88,-17.83 13.47,-22.48c-21.68,0.17 -28.64,-3.87 -32.18,-18.47l0,-38.98c4.57,-13.13 14.08,-18.43 27.63,-17.95c9.21,0.33 18.44,0.08 29.01,0.07l0.87,0c-0.24,-0.14 -0.49,-0.28 -0.72,-0.42c-3.67,-2.13 -6.52,-3.57 -8.71,-5.95c-3.75,-4.06 -6.14,-8.61 -6.16,-14.24c-0.02,-8.98 0.27,-17.97 -0.12,-26.94c-0.52,-11.9 4.43,-20.1 15.31,-25.54c-6.97,0 -13.95,0.01 -20.92,0c-14.32,-0.01 -24.08,-9.69 -24.14,-24.01c-0.04,-8.65 -0.01,-17.3 0.05,-25.95c0.11,-14.01 9.94,-23.89 23.85,-23.96c7.65,-0.04 15.3,0.05 22.95,0.08c0.09,0.23 0.16,0.46 0.2,0.68c0.32,1.65 -0.63,3.05 -1.3,4.47c-4.82,10.14 -4.62,20.11 0.93,29.92c0.82,1.45 1.48,2.96 1.58,4.66c0,0.03 0.01,0.06 0.01,0.09c0.03,0.33 0.06,0.67 0.08,1c0.15,2.45 0.04,4.9 0.18,7.34c0.27,5.04 1.21,6.05 6.33,6.11c10.24,0.13 20.49,0.01 30.74,0.06c2.31,0.01 4.69,-0.26 6.85,0.85c0.14,0.06 0.28,0.14 0.41,0.22c0,0.01 0,0.01 0.01,0.01l0,0.01c0.36,0.82 0.65,1.64 0.88,2.47c1.41,4.96 0.65,10.02 0,15.04c-0.05,0.34 -0.09,0.67 -0.13,1c-0.24,1.88 -2.32,2.71 -3.86,3.7c-7.73,4.98 -11.84,11.77 -11.41,21.27c0.35,7.81 0,15.65 0.1,23.47c0.07,5.17 0.68,5.71 5.74,5.94c6.22,0.28 8.64,0.39 9.56,2.79c0.57,1.49 0.56,3.88 0.52,7.75c-0.03,2.68 0.58,5.49 -0.52,8.07c-0.16,0.39 -0.37,0.77 -0.62,1.15c0,0.01 -0.01,0.01 -0.01,0.02c-0.09,0.06 -0.18,0.12 -0.27,0.19c-1.99,1.26 -4.27,1.02 -6.48,1.03c-9.48,0.05 -18.97,-0.04 -28.45,0.04c-12.13,0.11 -20.33,7.33 -21.23,19.31c-0.71,9.45 -0.19,18.96 -0.19,28.44c0,2.97 1.52,4.18 4.35,4.15c1.33,-0.02 2.66,0.02 3.99,0.02c52.42,0 104.84,0.01 157.26,0c8.15,0 8.12,-0.02 9.8,-7.87c3.02,-14.08 7.85,-27.5 14.69,-40.18c2.53,-4.68 2.45,-4.86 -2.82,-4.88c-10.98,-0.03 -21.97,0.02 -32.95,-0.03c-2.17,-0.01 -4.43,0.26 -6.44,-0.81c-0.18,-0.1 -0.36,-0.21 -0.54,-0.33c-0.08,-0.05 -0.16,-0.11 -0.24,-0.17c-2.16,-5.41 -1.42,-10.92 -0.56,-16.43c0.25,-0.38 0.51,-0.7 0.8,-0.96c0.14,-0.13 0.28,-0.24 0.43,-0.34c1.74,-1.23 3.99,-0.77 6.01,-0.78c15.64,-0.09 31.28,-0.17 46.91,0.03c4.72,0.07 8.27,-1.35 11.42,-4.82c16.57,-18.28 36.89,-30.83 60.1,-38.88c1.82,-0.63 3.6,-1.39 5.56,-1.27c0.24,0.02 0.48,0.05 0.73,0.09c12.5,-2.46 24.93,-5.42 37.81,-4.95c3.65,0.14 7.31,0.22 10.96,0.33c-0.2,0.49 -0.44,0.88 -0.73,1.2c-1.54,1.79 -4.12,1.23 -6.11,1.54c-15.29,2.36 -29.89,6.91 -43.45,14.25c-35.45,19.18 -60.15,47.64 -71.33,86.6c-13.37,46.6 -5.33,89.87 24.04,128.4c23.46,30.77 55.14,48.5 93.43,54.3c1.48,0.23 3.03,0.08 4.37,0.86c0.68,0.39 1.08,0.85 0.94,1.37z" class="st1"/>
   <path id="svg_8" fill="#F0E54D" d="m511.92,354.98c-0.83,2.33 -0.83,4.66 0,7l0,4.99c-0.83,2.34 -0.83,4.67 0,7l0,6c-1.34,15.16 -4.92,29.72 -11.22,43.63c-13.87,30.62 -35.47,53.98 -65.08,69.91c-16.64,8.95 -34.45,14.04 -53.13,16.32c-1.92,0.24 -3.93,0.79 -5.46,-1c-0.03,-0.03 -0.06,-0.06 -0.08,-0.09c-11.08,-1.82 -22.1,-3.81 -32.76,-7.58c-25.02,-8.83 -45.98,-23.29 -63.2,-43.54c-18.07,-21.24 -28.96,-45.7 -32.71,-73.03c-4.4,-32.14 1.19,-62.69 17.41,-91.16c15.11,-26.52 36.41,-46.24 63.73,-59.58c13.21,-6.45 27.13,-10.5 41.65,-12.51c0.85,-0.12 1.71,-0.24 2.56,-0.34c0.78,-0.09 1.52,-0.52 2.27,-0.79c21.63,1.01 42.02,6.75 60.76,17.43c42.87,24.42 67.59,61.32 74.26,110.24c0.11,0.82 0.09,1.67 1,2.1l0,5z" class="st2"/>
   <path id="svg_9" fill="#FEFEFE" d="m511.92,379.97c-1.34,15.16 -4.92,29.72 -11.22,43.63c-13.87,30.62 -35.47,53.98 -65.08,69.91c-16.64,8.95 -34.45,14.04 -53.13,16.32c-1.92,0.24 -3.93,0.79 -5.46,-1c-0.09,0.25 -0.31,0.51 -0.69,0.78c-11.46,1.85 -22.85,1.07 -34.19,-0.87c-14.55,-2.5 -28.43,-7.08 -41.51,-13.93c-3.27,-1.71 -4.83,-1.74 -6.79,2.06c-5.14,9.97 -13.88,14.15 -25.04,14.09c-24.81,-0.14 -49.62,-0.05 -74.44,-0.05c-54.62,0 -109.24,-0.01 -163.86,0.02c-11.31,0 -20.08,-4.03 -24.89,-14.86c-1.45,-3.27 -2.02,-6.65 -2.01,-10.2c0.02,-8.33 -0.02,-16.65 0.01,-24.98c0.04,-18.17 11.65,-28.34 29.8,-25.98c-9.96,-4.07 -13.91,-12.2 -14.61,-22.02c-0.64,-8.96 -0.56,-17.99 -0.02,-26.96c0.57,-9.56 3.88,-17.83 13.47,-22.48c-21.68,0.17 -28.64,-3.87 -32.18,-18.47c2.22,4.42 4.02,9.02 8.2,12.22c4.88,3.74 10.26,5.21 16.3,4.98c3.76,-0.14 7.53,-0.03 11.46,-0.03c-0.68,1.66 -2.15,1.75 -3.24,2.34c-6.67,3.7 -10.91,9.12 -11.86,16.82c-1.35,11.11 -1.15,22.3 -0.46,33.39c0.63,10.14 6.79,16.93 17.62,21.03c-4.7,0 -7.92,-0.11 -11.14,0.02c-12.55,0.5 -21.77,10.02 -21.85,22.57c-0.06,8.83 -0.03,17.65 -0.03,26.48c0,15.27 9.41,24.84 24.86,24.93c16.48,0.11 32.97,-0.06 49.45,-0.06c62.78,-0.02 125.55,-0.03 188.33,0.01c12.69,0 22.4,-4.32 26.33,-17.43c0.91,-3.05 2.41,-1.19 3.71,-0.49c12.66,6.79 25.98,11.81 40.08,14.66c12.91,2.6 25.94,3.68 39.11,2.32c0.04,0 0.07,0 0.11,-0.01c22.11,-1.18 42.82,-7.36 61.84,-18.57c41,-24.17 64.76,-60.11 71.9,-107.11c0.16,-1.09 -0.21,-2.4 1.12,-3.08z" class="st0"/>
   <path id="svg_10" fill="#F2E965" d="m511.92,361.98c-1.55,-2.33 -1.6,-4.66 0,-7c0,2.33 0,4.66 0,7z" class="st3"/>
   <path id="svg_11" fill="#F2E964" d="m511.92,373.97c-1.6,-2.33 -1.55,-4.66 0,-7c0,2.34 0,4.67 0,7z" class="st4"/>
   <path id="svg_12" fill="#94D5A3" d="m248.92,165.59c-2.47,16.73 -17.89,28.92 -33.1,27.89c-4.63,-0.31 -9.3,0.01 -13.95,-0.06c-2.85,-0.05 -4.43,0.96 -4.44,3.61c0,0.25 0.01,0.52 0.04,0.81l0,0.12c0.14,5.38 0.14,10.74 0.04,16.11c0,0.32 -0.01,0.64 -0.01,0.96c-0.01,0.11 -0.01,0.23 -0.01,0.34c0.31,16.68 0.1,33.36 0.11,50.04c0,1.79 -0.1,3.57 -1.2,5.05c-0.13,0.17 -0.27,0.34 -0.43,0.51l0,17.07c0.17,0.21 0.43,0.42 0.54,0.65c0.03,0.05 0.04,0.1 0.05,0.15c1.5,11.26 2.63,22.6 -2.41,33.27c-2.84,6.01 -8.1,10.06 -14.81,10.7c-12.75,1.21 -25.56,1.28 -38.35,-0.04c-0.55,-0.29 -1.09,-0.6 -1.59,-0.91c-0.5,-0.32 -0.98,-0.64 -1.43,-0.99c-6.22,-4.64 -8.27,-11.59 -8.37,-19.36c-0.22,-16.65 -0.06,-33.29 -0.07,-49.94c0,-15.81 0.01,-31.63 0,-47.44c0,-16.23 -6.78,-22.19 -22.88,-20.09l-0.24,0.03c-0.18,0.04 -0.35,0.08 -0.53,0.11c-0.28,0.06 -0.57,0.1 -0.85,0.13c-0.15,0.01 -0.29,0.03 -0.43,0.04c-0.08,0.01 -0.15,0.01 -0.23,0.01c-5.68,0.4 -11.38,0.17 -17.06,0.17c-1.8,-0.01 -3.65,-0.03 -5.12,-1.36c-0.01,-0.36 0.01,-0.67 0.07,-0.93c0.01,-0.03 0.02,-0.07 0.03,-0.1c0.44,-1.72 2.4,-1.26 3.67,-1.32c4.26,-0.2 8.53,-0.32 12.22,0.1c-8.02,-5.03 -11.38,-13.22 -13.31,-22.46c-1.92,-9.18 -0.33,-17.83 2.95,-26.37c14.23,-36.97 28.56,-73.91 42.92,-110.83c1.96,-5.02 4.5,-9.57 8.91,-12.84c0.3,-0.22 0.6,-0.43 0.91,-0.64c0.97,-0.65 2.11,-0.73 3.12,-1.07c0.48,-0.17 0.94,-0.39 1.34,-0.77c12.13,-2.88 26.45,3.1 33.71,15.67c10.07,17.42 20.12,34.85 30.19,52.27c11.07,19.14 22.16,38.27 33.24,57.41c0.28,0.26 0.54,0.52 0.81,0.79c6.43,6.6 7.23,14.88 5.95,23.51z" class="st5"/>
   <path id="svg_13" fill="#F0E54D" d="m327.13,224.83c-0.15,0.07 -0.3,0.14 -0.45,0.21c-7.28,3.5 -15.11,5.63 -22.38,9.22c-15.03,7.4 -28.83,16.51 -39.95,29.09c-5.31,6 -11.03,8.15 -19.02,7.84c-16.43,-0.65 -32.91,-0.21 -49.36,-0.22l0,-0.17c0,-18.59 0.01,-37.18 0.01,-55.77c0.48,-0.42 0.99,-0.73 1.53,-0.96c1.59,-0.69 3.36,-0.65 5.11,-0.65c24.97,-0.04 49.94,-0.04 74.92,0.01c2.25,0 4.62,-0.28 6.51,1.42l0,0.01c0.04,0.02 0.07,0.06 0.11,0.09c8.58,0.02 17.16,-0.21 25.72,0.13c7.26,0.29 13.39,3.16 17.25,9.75z" class="st2"/>
   <path id="svg_14" fill="#78C1A3" d="m145.02,15.94c-0.46,0.24 -0.91,0.5 -1.34,0.77c-0.46,0.27 -0.9,0.55 -1.32,0.85c-8.27,5.76 -10.88,15.27 -14.34,24.18c-10.03,25.8 -20.21,51.54 -29.92,77.46c-4.4,11.75 -10.56,22.97 -12.14,35.65c-1.95,15.69 3.24,29.76 16.18,37.29l-20.21,0c-0.89,0.96 -2.11,1.2 -3.22,0.9c-7.22,-1.98 -14.03,-4.6 -18.23,-11.03c-0.45,-0.69 -0.87,-1.42 -1.25,-2.2c-0.01,-0.01 -0.01,-0.03 -0.02,-0.04c-7.96,-12.5 -7.96,-25.05 -0.77,-37.65c0.17,-0.31 0.35,-0.62 0.54,-0.93c10.64,-18.24 21.31,-36.45 31.89,-54.72c10.5,-18.13 20.82,-36.37 31.4,-54.46c5.1,-8.71 12.3,-14.77 22.75,-16.07z" class="st6"/>
   <path id="svg_15" fill="#F0E54D" d="m301.82,179.1c-0.3,1.59 -0.7,3.09 -1.21,4.5c-3.3,9.31 -10.91,14.79 -21.61,14.89c-25.79,0.22 -51.58,0.08 -77.37,0.05c-1.43,0 -2.87,-0.04 -4.16,-0.58c-0.52,-0.22 -1.02,-0.52 -1.49,-0.93c-0.69,-3.62 0.57,-5.13 4.47,-4.91c5.13,0.3 10.31,-0.12 15.45,0.11c23.48,1.01 40.17,-25.8 28.3,-46.95c-0.62,-1.1 -1.18,-2.25 -1.74,-3.39c-0.1,-0.2 -0.2,-0.4 -0.3,-0.6c13.8,0.16 27.66,-1.21 41.38,0.69c10.67,1.48 18.09,10.48 18.38,21.15c0.15,5.32 -0.06,10.65 -0.1,15.97z" class="st2"/>
   <path id="svg_16" fill="#FEC150" d="m284.16,214.95l-0.08,0c-28.86,0.03 -57.71,0.05 -86.58,0.08l-1.52,0l0,-18l1.45,0c25.48,0 50.96,-0.32 76.44,0.14c12.71,0.24 21.83,-3.92 26.75,-15.01c0.44,-0.97 0.83,-1.99 1.2,-3.06c0.05,3.16 -0.1,6.35 0.2,9.48c1.09,11.48 -3.71,21.45 -17.86,26.37z" class="st1"/>
   <path id="svg_17" fill="#F6F392" d="m300.79,21.18c-1.73,10.58 -5.35,20.94 -10.38,30.48c-3.27,6.22 -11.49,8.02 -19.03,5.39c-7.17,-2.5 -11.3,-8.3 -10.64,-15.53c0.84,-9.25 2.89,-18.32 5.16,-27.3c1.93,-7.58 7.32,-11.23 15.03,-11.18c13.48,1.02 21.69,7.03 19.86,18.14z" class="st7"/>
   <path id="svg_18" fill="#F6F392" d="m377.93,81.54c-5.51,5.03 -11.11,9.99 -16.86,14.74c-7.85,6.48 -16.42,5.69 -23.32,-1.89c-6.06,-6.65 -5.72,-15.24 0.72,-22.33c5.13,-5.65 10.06,-11.48 15.16,-17.15c3.04,-3.39 6.82,-5.24 11.2,-4.88c7.12,0.04 15.51,6.38 18.38,13.67c2.47,6.3 0.81,12.28 -5.28,17.84z" class="st7"/>
   <path id="svg_19" fill="#F6F392" d="m420.73,167.85c-9.27,2.39 -18.77,3.9 -25.58,5.26c-11.51,0.16 -17.45,-4.72 -19.06,-13.41c-1.54,-8.33 2.21,-15.21 10.26,-18.24c6.21,-2.33 12.64,-4.09 18.8,-6.52c15.4,-6.06 24.41,1.69 25.77,17.12c0.67,7.68 -3.24,14 -10.19,15.79z" class="st7"/>
   <path id="svg_20" fill="#F0E54D" d="m165.77,490.94c-35.81,0 -71.62,-0.07 -107.44,0.09c-4.69,0.02 -6.57,-1.19 -6.36,-6.15c0.36,-8.15 0.45,-16.34 0.02,-24.48c-0.74,-14.1 11.42,-24.84 24.6,-24.7c53.13,0.58 106.27,0.27 159.4,0.15c3.72,-0.01 5.89,0.94 7.92,4.29c10.36,17.08 23.81,31.38 40.22,42.79c3.4,2.36 2.37,3.64 -0.49,5.17c-3.59,1.91 -7.3,2.9 -11.44,2.89c-35.47,-0.09 -70.95,-0.05 -106.43,-0.05z" class="st2"/>
   <path id="svg_21" fill="#F0E54D" d="m150.06,417.95c-25.47,0 -50.94,-0.09 -76.41,0.09c-4.23,0.03 -5.89,-0.85 -5.71,-5.46c0.37,-9.47 0.09,-18.97 0.12,-28.46c0.04,-11.86 9.43,-22.01 21.28,-22.06c42.95,-0.18 85.9,-0.05 128.85,-0.12c2.72,0 3.55,0.91 4.04,3.61c1.45,8 0.6,16.15 2.4,24.17c1.78,7.94 3.54,15.85 6.37,23.47c1.43,3.85 0.51,4.86 -3.53,4.83c-25.8,-0.14 -51.61,-0.07 -77.41,-0.07z" class="st2"/>
   <path id="svg_22" fill="#F0E54D" d="m140.98,331.84c11.48,0.03 22.96,0.24 34.44,0.05c12.11,-0.2 20.17,-9.14 20.45,-22.39c0.15,-7.15 0.08,-14.31 0.11,-21.46c14.65,-0.01 29.3,0.09 43.95,-0.09c3.91,-0.05 3.76,1.23 2.16,3.89c-8.84,14.67 -14.39,30.56 -17.28,47.4c-0.57,3.34 -1.88,4.87 -5.82,4.86c-55.61,-0.16 -111.22,-0.14 -166.82,-0.04c-3.77,0.01 -5.32,-0.8 -5.18,-4.95c0.31,-9.31 0.01,-18.64 0.12,-27.97c0.14,-12.02 9.75,-22.9 22.43,-22.27c11.79,0.58 23.64,0.12 35.46,0.12c1.85,1.66 1.36,3.9 1.45,5.98c0.28,6.36 -0.51,12.75 0.5,19.08c3.49,11.95 9.54,16.51 21.86,16.62c4.06,0.02 8.25,-0.7 12.17,1.17z" class="st2"/>
   <path id="svg_23" fill="#F0E54D" d="m105.88,314.99c-1.84,-5.79 -0.41,-11.74 -0.8,-17.6c-0.19,-2.79 -0.07,-5.61 -0.1,-8.41c0.03,-4.83 -0.03,-9.66 0.11,-14.48c0.07,-2.55 -0.88,-3.66 -3.49,-3.53c-2.66,0.13 -5.34,-0.11 -7.99,0.05c-3.54,0.22 -4.65,-1.42 -4.61,-4.78c0.12,-10.16 -0.14,-20.32 0.1,-30.47c0.2,-8.47 5.19,-14.24 12.13,-18.2c2.89,-1.65 4.1,-3.27 3.89,-6.57c-0.29,-4.64 -0.12,-9.32 -0.14,-13.98c-0.96,-1.29 -1.04,-2.57 0.06,-3.82c0.28,-0.01 0.55,-0.02 0.83,0c2.04,1.77 1.76,4.22 1.77,6.5c0.06,36.26 0.06,72.53 0,108.79c0,2.29 0.28,4.74 -1.76,6.5z" class="st2"/>
   <path id="svg_24" fill="#F0E54D" d="m105.05,193.21c-0.02,1.27 -0.04,2.55 -0.06,3.82c-13.16,0 -26.33,-0.23 -39.48,0.12c-5.05,0.14 -6.46,-2.08 -6.43,-6.39c0.03,-3.66 0.08,-7.33 0.12,-10.99c6.27,6.51 13.1,12.01 22.73,12.37c5.65,1.8 11.46,0.4 17.18,0.82c1.98,0.15 3.96,0.17 5.94,0.25z" class="st2"/>
   <path id="svg_25" fill="#FEC150" d="m367.04,461.95c-51.88,0.49 -97.38,-40.81 -97.64,-97.34c-0.24,-53.86 43.26,-98.25 99.41,-97.69c51.9,0.52 96.76,43.73 96.11,99.03c-0.63,52.31 -43.88,96.84 -97.88,96z" class="st1"/>
   <path id="svg_26" fill="#78C1A3" d="m105.88,314.99c0,-40.6 0,-81.19 0,-121.79c11.58,-3.93 25.32,2.05 25.23,16.3c-0.22,32.94 0.05,65.87 -0.15,98.81c-0.06,9.48 1.95,17.69 10.01,23.53c-4.46,0.04 -8.92,0.13 -13.39,0.12c-11.65,0 -18.83,-5.62 -21.7,-16.97z" class="st6"/>
  </g>
  <g id="svg_27">
   <path id="svg_28" fill="#FEFEFE" d="m422.66,337.45l-49.22,0c1.75,2.2 3.18,6.15 4.28,11.85c3.07,-1.65 6.42,-2.47 10.04,-2.47c6.8,0 12.43,2.5 16.87,7.49c4.44,5 6.67,10.95 6.67,17.86c0,6.91 -2.09,12.9 -6.26,17.94c-4.39,5.49 -9.99,8.23 -16.79,8.23c-2.3,0 -4.72,-0.38 -7.24,-1.15l0,-11.36c2.41,1.21 4.77,1.81 7.08,1.81c3.95,0 7.19,-1.52 9.71,-4.56c2.52,-3.04 3.79,-6.57 3.79,-10.59c0,-4.02 -1.32,-7.52 -3.96,-10.5c-2.64,-2.98 -5.93,-4.48 -9.88,-4.48c-4.17,0 -7.47,1.15 -9.88,3.44c-2.31,11.91 -9.83,19.45 -22.57,22.62l31.52,25.47l-16.5,0l-46.26,-37.37l7.7,-7.54l7.8,6.52c3.07,2.11 6.19,3.16 9.37,3.16c5.48,0 9.98,-1.78 13.49,-5.35c3.51,-3.57 5.26,-8.09 5.26,-13.58c0,-7.79 -3.24,-13.61 -9.71,-17.45l-39.02,0l0,-7.57l103.71,0l0,7.58z" class="st0"/>
  </g>
 </g>
</svg>