<svg width="512" height="512" xmlns="http://www.w3.org/2000/svg" xml:space="preserve" version="1.1">

 <g>
  <title>Layer 1</title>
  <g id="svg_1">
   <path id="svg_2" fill="#FEFEFE" d="m503.97,500.47c0.04,2.92 -0.9,3.88 -3.64,3.47c-0.65,-0.1 -1.33,-0.02 -1.99,-0.02c-161.57,0 -323.14,-0.02 -484.71,0.11c-4.48,0 -5.8,-1.01 -5.65,-5.59c0.37,-11.15 0.12,-22.32 0.13,-33.48c0,-10.07 4.37,-17.62 13.33,-22.22c2.15,-1.1 2.7,-2.33 2.7,-4.55c-0.06,-38.48 -0.05,-76.96 -0.01,-115.44c0,-1.95 -0.46,-3.32 -1.99,-4.74c-14.12,-13.07 -17.87,-30.74 -10.15,-47.09c7.73,-16.35 24.18,-24.8 43.32,-22.26c0.12,0.01 0.26,-0.1 0.77,-0.3c0,-9.82 -0.07,-19.8 0.06,-29.77c0.03,-2.42 -1.08,-2.97 -2.98,-2.55c-7.63,1.66 -11.76,-2.33 -15.15,-8.53c-2.85,-5.23 -6.69,-9.92 -9.79,-15.04c-7.89,-13.06 -4.27,-28.51 8.72,-36.45c2.57,-1.58 3.21,-3.17 3.2,-5.91c-0.09,-19.32 -0.12,-38.65 0.02,-57.97c0.02,-3.1 -0.56,-4.75 -3.99,-4.1c-0.16,0.04 -0.33,0.02 -0.5,0.01c-3.76,-0.28 -8.75,1.63 -10.94,-0.84c-1.84,-2.08 -0.61,-6.95 -0.62,-10.59c-0.04,-10.49 0.19,-20.99 -0.12,-31.48c-0.12,-4.04 0.76,-5.2 5.04,-5.19c55.63,0.17 111.27,0.09 166.9,0.18c3.5,0 6.32,-0.8 9.15,-2.9c9.88,-7.33 19.94,-14.44 29.92,-21.64c13.8,-9.96 28.03,-9.99 42,-0.02c10.16,7.25 20.33,14.48 30.36,21.9c2.56,1.89 5.08,2.65 8.23,2.65c55.8,-0.08 111.6,0 167.4,-0.17c4.31,-0.01 5.1,1.21 5.01,5.21c-0.27,12.82 -0.21,25.65 -0.02,38.48c0.04,3.26 -0.41,4.82 -4.18,4.5c-3.77,-0.32 -8.9,-1.35 -11.05,0.58c-2.55,2.29 -0.78,7.5 -0.8,11.43c-0.1,16.66 0.01,33.32 -0.09,49.98c-0.02,2.75 0.63,4.34 3.22,5.89c12.6,7.56 16.57,22.91 9.11,35.56c-4.56,7.72 -9.91,14.97 -14.69,22.57c-1.42,2.26 -3.28,1.83 -5.19,1.85c-8.39,0.09 -8.39,0.08 -8.39,8.62l0,23.96c24.95,-2.71 43.81,10.63 47.47,33.79c2.19,13.82 -2.62,25.59 -12.8,35.02c-2.08,1.93 -2.74,3.74 -2.73,6.39c0.06,37.82 0.08,75.63 -0.04,113.45c-0.01,3.09 0.95,4.49 3.67,5.98c7.86,4.31 12.17,11.27 12.34,20.28c0.23,12.33 -0.03,24.66 0.14,36.98z" class="st0"/>
   <path id="svg_3" d="m503.97,500.47c0.04,2.92 -0.9,3.88 -3.64,3.47c-0.65,-0.1 -1.33,-0.02 -1.99,-0.02c-161.57,0 -323.14,-0.02 -484.71,0.11c-4.48,0 -5.8,-1.01 -5.65,-5.59c0.37,-11.15 0.12,-22.32 0.13,-33.48c0,-10.07 4.37,-17.62 13.33,-22.22c2.15,-1.1 2.7,-2.33 2.7,-4.55c-0.06,-38.48 -0.05,-76.96 -0.01,-115.44c0,-1.95 -0.46,-3.32 -1.99,-4.74c-14.12,-13.07 -17.87,-30.74 -10.15,-47.09c7.73,-16.35 24.18,-24.8 43.32,-22.26c0.12,0.01 0.26,-0.1 0.77,-0.3c0,-9.82 -0.07,-19.8 0.06,-29.77c0.03,-2.42 -1.08,-2.97 -2.98,-2.55c-7.63,1.66 -11.76,-2.33 -15.15,-8.53c-2.85,-5.23 -6.69,-9.92 -9.79,-15.04c-7.89,-13.06 -4.27,-28.51 8.72,-36.45c2.57,-1.58 3.21,-3.17 3.2,-5.91c-0.09,-19.32 -0.12,-38.65 0.02,-57.97c0.02,-3.1 -0.56,-4.75 -3.99,-4.1c-0.16,0.04 -0.33,0.02 -0.5,0.01c-3.76,-0.28 -8.75,1.63 -10.94,-0.84c-1.84,-2.08 -0.61,-6.95 -0.62,-10.59c-0.04,-10.49 0.19,-20.99 -0.12,-31.48c-0.12,-4.04 0.76,-5.2 5.04,-5.19c55.63,0.17 111.27,0.09 166.9,0.18c3.5,0 6.32,-0.8 9.15,-2.9c9.88,-7.33 19.94,-14.44 29.92,-21.64c13.8,-9.96 28.03,-9.99 42,-0.02c10.16,7.25 20.33,14.48 30.36,21.9c2.56,1.89 5.08,2.65 8.23,2.65c55.8,-0.08 111.6,0 167.4,-0.17c4.31,-0.01 5.1,1.21 5.01,5.21c-0.27,12.82 -0.21,25.65 -0.02,38.48c0.04,3.26 -0.41,4.82 -4.18,4.5c-3.77,-0.32 -8.9,-1.35 -11.05,0.58c-2.55,2.29 -0.78,7.5 -0.8,11.43c-0.1,16.66 0.01,33.32 -0.09,49.98c-0.02,2.75 0.63,4.34 3.22,5.89c12.6,7.56 16.57,22.91 9.11,35.56c-4.56,7.72 -9.91,14.97 -14.69,22.57c-1.42,2.26 -3.28,1.83 -5.19,1.85c-8.39,0.09 -8.39,0.08 -8.39,8.62l0,23.96c24.95,-2.71 43.81,10.63 47.47,33.79c2.19,13.82 -2.62,25.59 -12.8,35.02c-2.08,1.93 -2.74,3.74 -2.73,6.39c0.06,37.82 0.08,75.63 -0.04,113.45c-0.01,3.09 0.95,4.49 3.67,5.98c7.86,4.31 12.17,11.27 12.34,20.28c0.23,12.33 -0.03,24.66 0.14,36.98z"/>
   <path id="svg_4" fill="#E5E8EC" d="m256.05,216.01c59.64,0 119.28,0.05 178.92,-0.11c4.26,-0.01 5.18,1.12 5.06,5.19c-0.31,10.49 -0.18,20.99 -0.05,31.49c0.03,2.54 -0.72,4.19 -2.66,5.94c-17.89,16.18 -17.84,42.86 0.08,59.03c1.77,1.59 2.59,3.08 2.58,5.47c-0.1,16.33 -0.16,32.66 0.03,48.98c0.04,3.37 -0.99,4.12 -4.16,4.03c-7.82,-0.22 -15.67,-0.33 -23.48,0.04c-3.93,0.18 -4.53,-1.15 -4.52,-4.71c0.13,-39.32 -0.02,-78.64 0.21,-117.96c0.03,-4.78 -1.46,-5.56 -5.76,-5.5c-17.66,0.23 -35.32,0.23 -52.97,0c-4.14,-0.05 -5.53,0.63 -5.5,5.26c0.23,39.32 0.08,78.64 0.21,117.96c0.01,3.73 -0.68,5.06 -4.77,4.96c-11.3,-0.29 -11.31,-0.08 -11.31,-11.33c0,-37.32 -0.06,-74.64 0.09,-111.96c0.02,-3.86 -0.88,-4.94 -4.84,-4.89c-18.32,0.23 -36.65,0.21 -54.97,0.01c-3.52,-0.04 -4.35,0.87 -4.34,4.36c0.13,39.65 0.02,79.31 0.19,118.96c0.02,3.98 -1.07,4.9 -4.9,4.82c-11.19,-0.24 -11.19,-0.07 -11.19,-11.42c0,-37.15 -0.1,-74.31 0.13,-111.46c0.03,-4.6 -1.33,-5.33 -5.49,-5.27c-17.66,0.24 -35.32,0.33 -52.97,-0.05c-5.05,-0.11 -5.78,1.46 -5.75,6.03c0.19,39.15 0.06,78.31 0.19,117.46c0.01,3.54 -0.55,4.82 -4.5,4.73c-11.57,-0.26 -11.58,-0.05 -11.58,-11.56c0,-37.32 -0.06,-74.64 0.09,-111.96c0.01,-3.66 -0.74,-4.71 -4.56,-4.66c-18.32,0.23 -36.65,0.22 -54.97,0.01c-3.72,-0.04 -4.64,0.85 -4.62,4.6c0.16,39.48 0.02,78.97 0.2,118.46c0.02,4.18 -0.98,5.3 -5.14,5.11c-7.81,-0.37 -15.66,-0.24 -23.48,-0.04c-2.9,0.07 -3.55,-0.87 -3.53,-3.63c0.12,-16.49 0.1,-32.99 0.02,-49.48c-0.01,-2.18 0.65,-3.59 2.28,-5.1c18.44,-16.98 18.42,-42.84 -0.07,-59.71c-1.68,-1.53 -2.22,-3.01 -2.2,-5.14c0.08,-10.83 0.23,-21.66 -0.07,-32.49c-0.11,-3.83 1,-4.58 4.66,-4.57c59.79,0.14 119.6,0.1 179.41,0.1z" class="st1"/>
   <path id="svg_5" fill="#959EA9" d="m255.98,487.93c-75.45,0 -150.9,-0.05 -226.35,0.11c-4.62,0.01 -5.95,-1.21 -5.63,-5.72c0.4,-5.64 0.04,-11.32 0.11,-16.98c0.08,-6.49 2.97,-9.29 9.56,-9.4c0.83,-0.01 1.67,0 2.5,0c146.57,0 293.14,0 439.7,0c9.9,0 12.03,2.11 12.03,11.95c0,5.66 -0.1,11.33 0.05,16.99c0.06,2.41 -0.75,3.34 -3.13,3.08c-1.15,-0.13 -2.33,-0.02 -3.5,-0.02c-75.11,-0.01 -150.23,-0.01 -225.34,-0.01z" class="st2"/>
   <path id="svg_6" fill="#FBD670" d="m256.25,168.02c67.45,0 134.89,0.02 202.34,-0.04c4.55,0 8.68,0.56 11.43,4.64c2.1,3.11 2.57,6.46 0.94,9.94c-0.49,1.05 -1.1,2.05 -1.74,3.01c-3.15,4.69 -5.38,10.85 -9.76,13.63c-4.41,2.8 -10.99,0.78 -16.61,0.78c-128.4,0.04 -256.79,0.01 -385.19,0.12c-3.95,0 -6.44,-1 -8.35,-4.51c-1.98,-3.64 -4.5,-6.99 -6.85,-10.42c-2.55,-3.74 -3.33,-7.67 -1.02,-11.72c2.27,-3.99 5.92,-5.48 10.47,-5.47c23.98,0.07 47.96,0.03 71.94,0.03c44.14,0.01 88.27,0.01 132.4,0.01z" class="st3"/>
   <path id="svg_7" fill="#FEE9A6" d="m382.86,151.92c-84.79,0 -168.87,0 -252.98,0c-0.35,-1.46 0.96,-1.61 1.63,-2.1c40.45,-29.85 80.92,-59.66 121.35,-89.52c2.03,-1.5 3.36,-2.26 5.92,-0.37c40.92,30.33 81.95,60.5 122.96,90.71c0.24,0.18 0.41,0.46 1.12,1.28z" class="st4"/>
   <path id="svg_8" fill="#FBD670" d="m438.92,152.03c-9.65,0 -18.11,-0.07 -26.57,0.04c-2.5,0.03 -3.91,-1.67 -5.59,-2.91c-48.67,-35.81 -97.34,-71.61 -145.88,-107.6c-3.69,-2.73 -5.82,-2.89 -9.64,-0.05c-48.66,36.11 -97.49,71.98 -146.24,107.97c-2.38,1.75 -4.69,2.71 -7.73,2.62c-7.59,-0.21 -15.18,-0.07 -24.24,-0.07c5.24,-3.81 9.31,-6.8 13.4,-9.76c52.27,-37.64 104.54,-75.28 156.81,-112.91c9.81,-7.06 15.65,-7.12 25.36,-0.13c55.53,39.95 111.04,79.93 166.55,119.9c0.94,0.68 1.84,1.41 3.77,2.9z" class="st3"/>
   <path id="svg_9" fill="#CBD0D8" d="m255.95,391.96c59.62,0 119.25,0.04 178.87,-0.1c4.03,-0.01 5.35,0.75 5.22,5.05c-0.33,11.03 -0.09,11.04 -11.12,11.04c-117.08,0 -234.17,-0.02 -351.25,0.1c-4.38,0 -5.9,-0.84 -5.72,-5.55c0.4,-10.53 0.12,-10.54 10.63,-10.54c57.79,0 115.58,0 173.37,0z" class="st5"/>
   <path id="svg_10" fill="#CBD0D8" d="m256,439.94c-59.62,0 -119.25,-0.05 -178.87,0.1c-4.1,0.01 -5.29,-0.87 -5.17,-5.1c0.32,-10.99 0.09,-11 11.16,-11c117.08,0 234.17,0.03 351.25,-0.1c4.46,0 5.84,0.98 5.68,5.6c-0.38,10.49 -0.11,10.5 -10.66,10.5c-57.8,0 -115.59,0 -173.39,0z" class="st5"/>
   <path id="svg_11" fill="#69D5F3" d="m152.04,320.12c0,17.14 -0.09,34.29 0.08,51.43c0.03,3.31 -0.53,4.64 -4.24,4.5c-8.14,-0.31 -16.31,-0.18 -24.46,-0.04c-2.5,0.04 -3.44,-0.5 -3.43,-3.25c0.09,-35.12 0.08,-70.24 0.02,-105.36c0,-2.43 0.39,-3.54 3.2,-3.47c8.48,0.19 16.98,0.21 25.46,-0.01c3.08,-0.08 3.43,1.18 3.42,3.77c-0.09,17.48 -0.05,34.96 -0.05,52.43z" class="st6"/>
   <path id="svg_12" fill="#69D5F3" d="m232.01,319.97c0,17.31 -0.08,34.62 0.07,51.93c0.03,3.21 -0.76,4.24 -4.08,4.14c-8.15,-0.25 -16.31,-0.2 -24.46,-0.02c-2.85,0.06 -3.59,-0.81 -3.58,-3.61c0.09,-34.95 0.09,-69.91 0,-104.86c-0.01,-2.78 0.7,-3.69 3.56,-3.63c8.15,0.19 16.31,0.23 24.46,-0.01c3.3,-0.1 4.13,0.89 4.1,4.13c-0.16,17.31 -0.07,34.62 -0.07,51.93z" class="st6"/>
   <path id="svg_13" fill="#69D5F3" d="m311.98,319.94c0,17.31 -0.08,34.62 0.07,51.93c0.03,3.16 -0.66,4.28 -4.05,4.18c-8.15,-0.26 -16.31,-0.2 -24.46,-0.02c-2.8,0.06 -3.62,-0.73 -3.61,-3.58c0.09,-34.95 0.09,-69.91 0.01,-104.86c-0.01,-2.74 0.62,-3.73 3.53,-3.66c8.15,0.2 16.31,0.22 24.46,-0.01c3.24,-0.09 4.16,0.8 4.13,4.09c-0.17,17.31 -0.08,34.62 -0.08,51.93z" class="st6"/>
   <path id="svg_14" fill="#69D5F3" d="m359.96,319.46c0,-17.14 0.09,-34.29 -0.08,-51.43c-0.03,-3.27 0.85,-4.2 4.11,-4.11c8.15,0.24 16.31,0.2 24.46,0.01c2.89,-0.07 3.55,0.89 3.55,3.64c-0.09,34.95 -0.09,69.91 0,104.86c0.01,2.82 -0.77,3.66 -3.6,3.59c-8.15,-0.18 -16.31,-0.24 -24.46,0.02c-3.35,0.11 -4.09,-0.97 -4.06,-4.16c0.15,-17.47 0.08,-34.95 0.08,-52.42z" class="st6"/>
   <path id="svg_15" fill="#CBD0D8" d="m134.38,88.05c-26.61,19.16 -52.05,37.48 -78.3,56.38c0,-5.16 0,-9.54 0,-13.92c0,-12.98 0.04,-25.96 -0.03,-38.94c-0.01,-2.25 0.07,-3.61 3.06,-3.59c24.61,0.12 49.21,0.07 75.27,0.07z" class="st5"/>
   <path id="svg_16" fill="#CBD0D8" d="m455.92,144.38c-26.19,-18.86 -51.62,-37.16 -77.05,-55.47c0.62,-1.45 1.78,-0.83 2.62,-0.83c23.44,-0.04 46.89,-0.01 70.33,-0.06c2.52,-0.01 4.24,-0.14 4.19,3.48c-0.21,17.28 -0.09,34.57 -0.09,52.88z" class="st5"/>
   <path id="svg_17" fill="#A9B1BC" d="m178.77,56.06c-7.45,5.39 -13.67,9.83 -19.82,14.37c-1.7,1.26 -3.47,1.65 -5.55,1.65c-36.43,-0.04 -72.86,-0.08 -109.29,0.05c-3.3,0.01 -4.11,-0.92 -4.1,-4.14c0.03,-11.93 -0.09,-11.93 11.71,-11.93c40.25,0 80.51,0 120.76,0c1.61,0 3.22,0 6.29,0z" class="st7"/>
   <path id="svg_18" fill="#A9B1BC" d="m333.32,56.06c2.8,0 4.23,0 5.65,0c42.64,0 85.29,0.07 127.93,-0.11c4.23,-0.02 5.22,1.09 5.11,5.2c-0.29,10.9 -0.08,10.9 -10.79,10.9c-33.82,0 -67.63,-0.03 -101.45,0.06c-3,0.01 -5.42,-0.69 -7.8,-2.49c-5.76,-4.35 -11.68,-8.51 -18.65,-13.56z" class="st7"/>
   <path id="svg_19" fill="#FBD670" d="m47.98,311.97c-13.25,-0.05 -24.02,-11.04 -23.87,-24.33c0.15,-13.03 11,-23.67 24.07,-23.62c13.26,0.05 24.03,11.02 23.87,24.32c-0.14,13.02 -11,23.67 -24.07,23.63z" class="st3"/>
   <path id="svg_20" fill="#FBD670" d="m463.92,311.97c-13.26,0.01 -24.09,-10.93 -23.99,-24.22c0.1,-13.04 10.89,-23.73 23.96,-23.74c13.27,-0.01 24.09,10.92 23.99,24.21c-0.1,13.04 -10.9,23.74 -23.96,23.75z" class="st3"/>
   <path id="svg_21" fill="#FEE9A6" d="m56.08,327.16c0,1.82 0,3.45 0,5.09c0,34.26 -0.09,68.53 0.12,102.79c0.03,4.34 -1.25,5.11 -5.23,5.01c-10.87,-0.28 -10.88,-0.09 -10.88,-10.72c0,-32.43 0.06,-64.87 -0.08,-97.3c-0.02,-3.73 0.48,-5.25 4.72,-4.28c3.53,0.79 7.28,0.26 11.35,-0.59z" class="st4"/>
   <path id="svg_22" fill="#FEE9A6" d="m455.92,327.24c5.47,0.87 10.54,1.08 15.99,-0.13c0,1.85 0,3.32 0,4.8c0,34.43 -0.07,68.86 0.1,103.29c0.02,3.94 -1.02,4.92 -4.88,4.84c-11.21,-0.24 -11.21,-0.07 -11.21,-11.38c0,-31.93 0,-63.87 0,-95.8c0,-1.81 0,-3.62 0,-5.62z" class="st4"/>
   <path id="svg_23" d="m256.43,88.06c13.22,0.19 23.85,11.33 23.53,24.66c-0.31,12.99 -11.32,23.5 -24.41,23.3c-13.22,-0.2 -23.84,-11.34 -23.53,-24.67c0.31,-12.99 11.3,-23.48 24.41,-23.29z"/>
   <path id="svg_24" fill="#68D3F1" d="m255.81,104.07c4.29,-0.1 7.98,3.36 8.15,7.66c0.18,4.48 -3.55,8.32 -8.04,8.28c-4.31,-0.04 -7.87,-3.6 -7.9,-7.91c-0.02,-4.31 3.49,-7.93 7.79,-8.03z" class="st8"/>
  </g>
 </g>
</svg>