<svg width="512" height="512" xmlns="http://www.w3.org/2000/svg" xml:space="preserve" version="1.1">

 <g>
  <title>Layer 1</title>
  <g id="svg_1">
   <path id="svg_2" fill="#FEFEFE" d="m97.14,218.15c1.61,-0.14 3.23,-0.12 4.85,-0.18c-0.87,1.9 -3.11,1.17 -4.74,1.33c-13.25,1.34 -25.79,4.6 -36.92,12.39c-11.77,8.23 -20.51,18.82 -26.1,32.02c-0.14,0.35 -0.28,0.71 -0.42,1.06c-0.37,0.93 -0.71,1.86 -1.03,2.78c-6.13,17.53 -5.36,34.99 2.25,52.23c8.91,20.2 24.39,33.11 45.31,39.79c1.98,0.63 4.48,0.45 5.74,2.63c0.03,0.04 0.05,0.08 0.07,0.13c0.05,0.07 0.08,0.15 0.12,0.23c-0.13,0.2 -0.27,0.38 -0.42,0.54c-0.47,0.52 -1,0.83 -1.58,1c-1.3,0.4 -2.8,0.12 -4.17,0.22c-2.41,0.18 -4.85,-0.22 -7.23,0.44c-6.61,0.55 -13.21,1.15 -19.65,3.02c-17.92,5.2 -31.54,15.94 -41.42,31.64c-0.02,0.03 -0.04,0.05 -0.05,0.08c-0.27,0.39 -0.52,0.78 -0.76,1.17c-3.84,6.09 -5.88,12.9 -7.74,19.81c-0.53,1.97 0.05,4.89 -3.13,5.46c2.63,-5.86 2.99,-12.47 5.93,-18.24c1.57,-3.09 2.48,-6.52 4.93,-9.13c14.18,-22.44 34.65,-33.86 61.09,-34.79c4.45,-2.06 9.46,0.79 13.87,-1.6c-30.42,-5.4 -55.45,-33.01 -58,-63.65c-1.02,-12.3 0.14,-24.15 5.26,-35.48c12.34,-27.75 33.89,-42.38 63.94,-44.9z" class="st0"/>
   <path id="svg_3" fill="#FEFEFE" d="m511.9,246.02c-2.64,-0.17 -2.76,-2.6 -3.48,-4.24c-4.21,-9.6 -7.95,-19.4 -11.85,-29.13c-0.04,-0.14 -0.09,-0.29 -0.14,-0.43c-0.09,-0.28 -0.18,-0.55 -0.28,-0.82c-1.77,-4.94 -4.73,-9.48 -5.09,-14.89c-0.02,-0.15 -0.02,-0.31 -0.03,-0.47c0,-0.01 0,-0.02 0.01,-0.03c0.35,-1.49 1.37,-2.57 2.3,-3.71c9.21,-11.26 6.74,-26.43 -5.55,-34.26c-1.33,-0.84 -2.88,-1.39 -3.98,-2.55c-0.09,-0.09 -0.18,-0.19 -0.27,-0.3c-0.15,-0.2 -0.31,-0.43 -0.44,-0.67c-0.06,-0.14 -0.12,-0.27 -0.17,-0.41c-0.08,-0.2 -0.14,-0.41 -0.2,-0.62c-0.06,-0.21 -0.11,-0.43 -0.15,-0.65c-0.43,-18.9 -0.33,-37.77 -0.1,-56.65c0.01,-0.44 0.01,-0.89 0.02,-1.33l0,-0.36c0.02,-9.86 -0.4,-10.35 -9.63,-13.53c-64.06,-22.04 -128,-44.4 -192.08,-66.4c-7.39,-2.55 -14.83,-4.98 -22.17,-7.69c-9.68,-3.58 -19.2,-3.14 -28.8,0.23c-41.92,14.75 -83.98,29.13 -125.96,43.7c-29.56,10.26 -59.2,20.31 -88.67,30.82c-0.79,0.28 -1.58,0.53 -2.35,0.85c-3.24,1.37 -6,3.33 -6,7.19c0.01,4.02 2.6,6.19 6.22,7.5c14.41,5.2 28.93,10.06 43.4,15.06c7.52,2.59 14.96,5.4 22.55,7.76c0.26,0.09 0.52,0.17 0.78,0.25c0.1,0.03 0.19,0.06 0.29,0.09c4.42,1.47 8.81,3.04 13.26,4.38c4.52,1.35 6.32,4.22 6.28,8.86c-0.13,14.12 0.06,28.24 -0.09,42.36l0,0.26c0.01,0.16 0.01,0.31 0.01,0.47c0.11,9.25 0.12,18.49 -0.01,27.74c-0.06,4.42 0.39,8.61 2.77,12.43c-0.06,0.43 -0.15,0.78 -0.28,1.07c-3.19,-2.54 -4.17,-5.82 -4.06,-9.91c0.29,-10.59 0.19,-21.19 0.25,-31.78c-0.06,-14.58 -0.24,-29.16 -0.08,-43.74c0.04,-3.4 -0.92,-5 -4.22,-5.97c-5.04,-1.48 -9.92,-3.51 -14.86,-5.31c-21.07,-7.21 -42.12,-14.46 -63.21,-21.6c-5.16,-1.75 -10.69,-3.19 -10.54,-10.06c0.13,-6.56 5.56,-7.86 10.52,-9.58c71.63,-24.79 143.26,-49.6 214.86,-74.48c9.33,-3.25 18.47,-3.35 27.82,-0.1c72.55,25.18 145.13,50.28 217.69,75.43c7.23,2.5 8.41,4.51 7.7,12.31c0.01,20.38 0.03,40.77 0.04,61.15c0.15,0.21 0.25,0.43 0.28,0.69c17.9,7.26 21.54,27.45 7.42,41.17c1.96,5.3 3.92,10.59 5.88,15.89c5.13,11.19 8.75,23.03 14.39,34.01z" class="st0"/>
   <path id="svg_4" fill="#FEFEFE" d="m511.9,254.02c-3.19,5.28 -6.4,10.55 -13.78,10.13c-3.07,0.25 -6.14,0.38 -9.21,0.44l-0.18,0c-12.06,0.5 -24.12,0.59 -36.14,-0.59c-7.16,-0.7 -10.49,-6.21 -11.74,-12.96c-0.65,0.03 -1.29,0.06 -1.93,0.09c-3.12,5.23 -3.55,11.41 -5.99,16.87c-0.01,6.25 -1.89,12.27 -2.08,18.54c-0.28,9.25 1.22,18.31 2.1,27.44c2.99,5.32 2.96,11.89 6.95,16.79c2.14,0.07 4.29,0.05 6.42,0.23c10.51,0.92 17.38,12.26 13.67,21.11c-1.23,4.87 -4.32,8.11 -8.85,10.09c4.06,1.93 8.38,0.44 12.55,0.91c3.07,0.34 6.25,-0.75 9.23,0.69c9.65,1.27 15.57,7.79 15.32,16.86c-0.25,8.73 -6.58,15.1 -15.89,15.92c-1.81,0.16 -3.63,0.21 -5.44,0.31c-1.99,5.36 -3.98,10.73 -5.96,16.09c-2.94,15.64 -2.69,31.28 0,46.92c2.1,3.24 2.9,7.01 3.89,10.62c1.09,3.96 2.87,6.16 7.24,5.37c0.96,-0.17 2,-0.05 2.76,0.77c10.13,3.06 14.26,9.19 12.97,19.26c-1.42,7.32 -6.58,12.31 -13.65,13.1c-1.81,0.2 -3.65,0.19 -5.48,0.19c-131.09,0.01 -262.17,-0.23 -393.25,0.17c-35.71,0.11 -64.54,-23.07 -72.89,-54.05c-0.76,-2.81 -0.57,-5.9 -2.42,-8.4c2.86,0.51 2.72,3.06 3.22,5c7.09,27.72 24.44,45.48 51.83,53.52c4.49,1.32 9.08,1.94 13.79,1.94c133.32,-0.02 266.64,-0.05 399.96,0.04c8.16,0.01 14.35,-2.36 17.34,-10.46c0.04,-0.36 0.07,-0.71 0.09,-1.05c0.03,-0.3 0.05,-0.59 0.06,-0.88c0.53,-9.64 -2.59,-14.02 -11.9,-17.23c-1.28,-0.43 -2.6,-0.58 -3.94,-0.57c-1.16,0.01 -2.15,-0.19 -2.99,-0.58c-0.33,-0.14 -0.63,-0.32 -0.91,-0.53l-0.01,0c-1.21,-0.87 -2.05,-2.22 -2.61,-3.97c-1.25,-3.9 -2.62,-7.77 -3.86,-11.67c-0.07,-0.2 -0.13,-0.39 -0.19,-0.59c-0.06,-0.18 -0.12,-0.37 -0.18,-0.55c-3.4,-15.2 -3.45,-30.41 -0.1,-45.62c0.1,-0.25 0.2,-0.5 0.28,-0.75c0.09,-0.2 0.16,-0.41 0.23,-0.62c1.75,-4.96 2.32,-10.4 5.54,-14.78c0.18,-0.24 0.36,-0.47 0.55,-0.7c0.09,-0.11 0.18,-0.22 0.27,-0.32c2.41,-1.28 5.16,-0.91 7.72,-1.54c7.9,-1.93 12.12,-6.65 12.29,-13.98c0.19,-8.33 -3.49,-13.29 -11.59,-15.61c-0.96,-0.27 -1.95,-0.39 -2.91,-0.65c-4.88,-0.89 -9.8,-0.2 -14.69,-0.43c-1.59,-0.08 -3.22,0.15 -4.74,-0.32c-0.49,-0.15 -0.97,-0.37 -1.43,-0.69c-0.02,-0.02 -0.03,-0.05 -0.04,-0.07c-0.18,-0.28 -0.29,-0.52 -0.35,-0.75c-0.03,-0.08 -0.04,-0.17 -0.04,-0.24c-0.14,-1.17 1.19,-1.7 2,-2.29c2.96,-2.14 4.89,-4.97 6.16,-8.32c0.02,-0.06 0.04,-0.11 0.06,-0.17c0.12,-0.65 0.22,-1.29 0.28,-1.91c1.08,-9.83 -4.51,-16.53 -14.67,-17.27c-1.64,-0.13 -3.32,-0.04 -4.88,-0.77c-0.32,-0.23 -0.62,-0.47 -0.9,-0.73c-0.29,-0.25 -0.56,-0.52 -0.8,-0.81c-2.13,-2.45 -2.76,-5.71 -3.82,-8.72c-0.79,-2.21 -1.36,-4.49 -2.03,-6.75c-0.05,-0.19 -0.11,-0.37 -0.17,-0.56c-0.07,-0.25 -0.15,-0.51 -0.23,-0.76c-3.18,-14.82 -3.2,-29.66 -0.17,-44.5c0.07,-0.24 0.13,-0.48 0.2,-0.72c0.06,-0.23 0.12,-0.46 0.18,-0.69c1.08,-3.92 2.14,-7.85 3.5,-11.68c0.47,-1.32 0.91,-2.68 1.79,-3.74c0.01,0 0.01,0 0.01,0c0.23,-0.29 0.49,-0.56 0.8,-0.78c0.26,-0.22 0.56,-0.41 0.89,-0.57c0.67,-0.16 1.29,-0.13 1.86,0.17c0.04,0.01 0.07,0.03 0.1,0.05c0.15,0.08 0.29,0.19 0.43,0.31c1.12,1.27 1.6,2.89 2.43,4.32c2.37,4.09 5.69,6.74 10.51,7.54c3.39,0.57 6.78,0.72 10.19,0.74l0.02,0c1.07,0.02 2.14,0.01 3.21,-0.01c1.65,-0.01 3.29,-0.04 4.94,-0.05c8.11,-0.06 16.24,0.5 24.33,-0.36c5.4,-0.38 9.62,-2.64 12.26,-7.56c0.5,-0.94 1.14,-2.06 2.61,-1.67z" class="st0"/>
   <path id="svg_5" fill="#D73724" d="m487.81,495.92c-1.42,7.32 -6.58,12.31 -13.65,13.1c-1.81,0.2 -3.65,0.19 -5.48,0.19c-131.09,0.01 -262.17,-0.23 -393.25,0.17c-35.71,0.11 -64.54,-23.07 -72.89,-54.05c-0.76,-2.81 -0.57,-5.9 -2.42,-8.4l0,-20.99c2.63,-5.86 2.99,-12.47 5.93,-18.24c1.57,-3.09 2.48,-6.52 4.93,-9.13c0.3,0.3 0.56,0.61 0.77,0.93c1.4,2.14 0.89,4.72 0.88,7.11c0,11.49 -0.11,22.97 2.82,34.23c8.15,31.43 36.44,53.49 68.98,53.5c131.26,0.04 262.51,0.01 393.76,0.05c2.74,0 5.64,-0.59 8.22,0.65c0.48,0.22 0.95,0.51 1.4,0.88z" class="st1"/>
   <path id="svg_6" fill="#FCCC08" d="m511.9,246.02l0,8c-3.19,5.28 -6.4,10.55 -13.78,10.13c-3.07,0.25 -6.14,0.38 -9.21,0.44l-0.18,0c-6.83,0.13 -13.67,-0.09 -20.5,-0.21c-1.3,-0.02 -2.53,-0.27 -3.68,-0.71l-0.02,0c-4.11,-1.58 -7.06,-5.62 -7.78,-10.54c-0.54,-3.68 -0.32,-7.34 1.17,-10.79c2.9,-6.72 5.51,-13.56 8.31,-20.32c1.61,-3.89 4.19,-6.45 8.61,-6.33c6.45,0.16 12.57,-1.06 18.41,-3.77c0.95,-0.44 1.93,-0.72 2.9,-0.52c0.46,0.08 0.91,0.28 1.36,0.61c5.13,11.19 8.75,23.03 14.39,34.01z" class="st2"/>
   <path id="svg_7" fill="#EE5227" d="m487.81,495.92l-1.46,0c-133.34,0 -266.7,-0.15 -400.04,0.09c-35.36,0.06 -65.77,-23.58 -73.16,-57.76c-1.22,-5.67 -1.8,-11.44 -1.98,-17.21c-0.21,-6.79 -0.15,-13.58 -0.18,-20.37c0,-0.7 -0.01,-1.4 -0.01,-2.1c14.18,-22.44 34.65,-33.86 61.09,-34.79c4.6,-0.1 9.19,-0.37 13.78,-0.68c0.53,-0.03 1.05,-0.07 1.57,-0.1c1.19,-0.09 2.37,-0.17 3.55,-0.25c0.97,-0.06 1.94,-0.13 2.91,-0.19c2.88,-0.04 5.77,0.15 8.66,-0.18c114.05,-0.04 228.1,-0.11 342.16,0c1.14,0.24 2.29,0.43 3.44,0.57c0.59,0.08 1.19,0.15 1.78,0.2c0.43,0.05 0.85,0.08 1.28,0.12c7.22,0.53 14.5,-0.13 21.72,0.53c9.65,1.27 15.57,7.79 15.32,16.86c-0.25,8.73 -6.58,15.1 -15.89,15.92c-1.81,0.16 -3.63,0.21 -5.44,0.31c-0.37,0.27 -0.75,0.5 -1.14,0.69c-1.39,0.71 -2.9,0.97 -4.5,0.97c-27.93,0.02 -55.86,0.11 -83.78,-0.06c-1,0 -1.99,-0.12 -2.97,-0.31c-0.53,-0.2 -1.07,-0.34 -1.61,-0.45c-0.23,-0.05 -0.47,-0.09 -0.7,-0.12c-0.03,-0.01 -0.05,-0.01 -0.08,-0.02c0,0 0,0.01 -0.01,0c-1.47,-0.21 -2.96,-0.2 -4.45,-0.25c-8.54,-0.27 -17.07,-0.01 -25.59,0.31l-0.01,0c-5.04,0.19 -10.06,0.4 -15.1,0.53l-0.01,0c-0.54,0.02 -1.06,0.04 -1.6,0.05c-0.27,0.01 -0.54,0.01 -0.81,0.02c-3.32,0.38 -6.66,0.28 -9.99,0.28c-80.44,0 -160.88,0.01 -241.32,-0.01c-16.61,-0.01 -28.52,7.8 -35.21,22.57c-6.57,14.48 -4.12,28.45 6.09,40.63c8.43,10.07 20.13,13.01 32.67,13.57c2.5,0.11 5,0.06 7.49,0.06c123.91,0 247.82,0.02 371.73,-0.07c3.59,-0.01 7.12,0.46 10.65,0.85l0.01,0c2.54,0.29 5.08,0.53 7.65,0.53l0.52,0c10.13,3.06 14.26,9.19 12.97,19.26z" class="st3"/>
   <path id="svg_8" fill="#B6E446" d="m459.99,352.11c-0.34,-0.17 -0.68,-0.31 -1.02,-0.44c-3.11,-1.22 -6.4,-1.16 -9.71,-1.16c-114.18,0.02 -228.35,0.02 -342.52,0.01c-37,0 -67.81,-26.08 -73.63,-62.6c-1.07,-6.74 -0.88,-13.57 -0.33,-20.37c0.13,-1.5 0.27,-3 0.42,-4.5c12.34,-27.75 33.89,-42.38 63.94,-44.9c1.61,-0.14 3.23,-0.12 4.85,-0.18l0.13,0c2.73,-2.28 6.02,-1.53 9.1,-1.54c76.67,-0.04 153.34,-0.04 230.01,-0.03c15.13,0.01 30.27,-0.07 45.4,0.03c0.72,0 1.45,0.01 2.17,0.01c0.49,0 0.98,0.01 1.47,0c16.85,0.06 33.69,-0.04 50.54,0.03c3.64,0.01 7.34,-0.12 10.49,2.23c0.17,0.15 0.31,0.3 0.43,0.46c0.08,0.1 0.16,0.2 0.21,0.3c0.75,1.2 0.51,2.57 0.01,3.85c-3.58,9.19 -7.05,18.41 -10.98,27.45c-0.04,0.09 -0.08,0.19 -0.12,0.28c-0.65,0.03 -1.29,0.06 -1.93,0.09c-0.52,0.31 -1.05,0.56 -1.6,0.76c0,0 0,0 -0.01,0c-1.62,0.61 -3.35,0.77 -5.12,0.77c-81.96,0.01 -163.93,0 -245.89,-0.01c-0.67,0 -1.33,-0.08 -1.99,-0.14l-0.27,0c-0.18,0.01 -0.36,0.01 -0.54,0.01c-11.05,0.15 -22.1,0.2 -33.14,-0.03c-0.11,0 -0.22,0.01 -0.33,0.01c-0.31,0.01 -0.63,0.01 -0.94,0.01c-4.11,0.1 -8.22,0.12 -12.32,-0.02c-0.14,0.01 -0.29,0 -0.43,-0.01l-0.15,0c-11.66,0.18 -23.32,0 -34.97,0.09c-19.81,0.16 -34.8,12.46 -38.68,31.71c-4.51,22.3 13,43.75 36.8,45.09c2.5,0.14 5,0.08 7.5,0.08l323.28,0c2.66,0 5.37,-0.21 7.94,0.56c0.62,0.19 1.24,0.44 1.84,0.76c2.14,0.07 4.29,0.05 6.42,0.23c10.51,0.92 17.38,12.26 13.67,21.11z" class="st4"/>
   <path id="svg_9" fill="#858390" d="m483.89,93.11c-0.28,1.21 -0.76,2.22 -1.41,3.08c-1.12,1.52 -2.76,2.56 -4.71,3.31c-2.97,1.15 -6,2.12 -8.91,3.39c-0.08,0.04 -0.17,0.07 -0.25,0.11c-0.15,0.05 -0.3,0.09 -0.45,0.14c-17.27,5.45 -34.2,11.9 -51.4,17.54c-2.14,0.71 -4.41,2.14 -6.65,0.68c-0.01,-0.01 -0.03,-0.02 -0.04,-0.02c-0.24,-0.17 -0.49,-0.36 -0.73,-0.6c-0.98,-1.86 -0.81,-3.88 -0.86,-5.87c-0.35,-14.61 -8.98,-25.68 -23.15,-28.54c-17.29,-3.49 -34.81,-5.65 -52.33,-7.8c-21.64,-2.65 -43.39,-3.84 -65.14,-4.68c-16.93,-0.65 -33.9,-0.65 -50.88,0.38c-13.1,0.79 -26.23,1.29 -39.32,2.31c-25.08,1.96 -49.99,5.15 -74.64,10.1c-12.6,2.53 -21.13,13.71 -22.4,27.95c-0.17,1.9 0.19,3.94 -0.83,5.65c-0.19,0.33 -0.43,0.65 -0.74,0.95c-21.07,-7.21 -42.12,-14.46 -63.21,-21.6c-5.16,-1.75 -10.69,-3.19 -10.54,-10.06c0.13,-6.56 5.56,-7.86 10.52,-9.58c71.63,-24.79 143.26,-49.6 214.86,-74.48c9.33,-3.25 18.47,-3.35 27.82,-0.1c72.55,25.18 145.13,50.28 217.69,75.43c7.23,2.5 8.41,4.51 7.7,12.31z" class="st5"/>
   <path id="svg_10" fill="#77777F" d="m410.07,121.34l0,0.03c-5.08,4 -10.54,6.78 -17.18,6.02c-0.07,-0.01 -0.14,-0.02 -0.22,-0.03c-0.24,-0.03 -0.49,-0.07 -0.74,-0.11c-1.83,-2.1 -1.4,-4.69 -1.52,-7.15c-0.55,-11.38 -3.44,-14.76 -14.5,-16.61c-30.08,-5.03 -60.34,-8.31 -90.81,-10.06c-23.15,-1.32 -46.31,-1.23 -69.42,-0.57c-30.27,0.87 -60.46,3.78 -90.4,8.77c-6.39,1.07 -6.66,1.39 -6.67,8.12c-0.02,19.65 0.02,39.31 -0.03,58.97c0,2.25 0.32,4.61 -0.76,6.7c-0.1,0.19 -0.21,0.38 -0.34,0.56c-0.09,0.15 -0.19,0.29 -0.3,0.43c-5.9,1.68 -11.78,2.11 -17.64,0.25c-0.44,-0.13 -0.89,-0.28 -1.33,-0.45c-0.06,-14.58 -0.24,-29.16 -0.08,-43.74c0.04,-3.4 -0.92,-5 -4.22,-5.97c-5.04,-1.48 -9.92,-3.51 -14.86,-5.31c-0.01,-0.4 -0.03,-0.8 -0.04,-1.2c-0.23,-10.94 2.42,-20.71 11.05,-28.49c6.76,-6.08 15.18,-6.84 23.44,-8.4c15.9,-2.99 31.99,-4.74 48.02,-6.8c9.5,-1.22 19.12,-1.48 28.69,-2.2c24.34,-1.85 48.74,-2.76 73.12,-1.84c19.15,0.73 38.31,1.64 57.42,3.6c20.72,2.13 41.26,5.26 61.85,8.19c16.26,2.31 27.82,15.57 27.36,30.84c-0.06,2.14 0.07,4.3 0.11,6.45z" class="st6"/>
   <path id="svg_11" fill="#AAD541" d="m459.99,352.11c-1.23,4.87 -4.32,8.11 -8.85,10.09c-0.09,0.12 -0.19,0.23 -0.29,0.32c-0.29,0.29 -0.6,0.49 -0.93,0.63c-1.22,0.52 -2.65,0.19 -3.95,0.35c-0.03,0 -0.05,0.01 -0.07,0.01c-0.3,0.04 -0.58,0.11 -0.87,0.22c-2.67,0.05 -5.33,0.13 -7.99,0.13c-109.37,0.01 -218.73,0.01 -328.1,0c-2.33,0 -4.66,-0.09 -6.99,-0.14c-2.49,-0.53 -5.01,-0.17 -7.52,-0.25c-0.13,0.01 -0.25,0 -0.38,-0.01l-0.15,0c-2.17,-0.11 -4.42,0.32 -6.48,-0.46c-0.43,-0.17 -0.86,-0.38 -1.27,-0.67c-0.07,-0.05 -0.14,-0.1 -0.21,-0.15c-30.42,-5.4 -55.45,-33.01 -58,-63.65c-1.02,-12.3 0.14,-24.15 5.26,-35.48c0.25,0.57 0.46,1.14 0.61,1.72c1.13,3.94 0.32,8.04 0.19,12c-0.52,14.89 4,28.26 12.24,40.28c11.37,16.57 27.04,27.04 46.96,30.96c4.11,0.81 8.21,0.98 12.36,0.98c116.2,-0.01 232.4,-0.02 348.6,0.04c1.67,0.01 4.02,-0.83 5.15,0.56c0.42,0.5 0.68,1.29 0.68,2.52z" class="st7"/>
   <path id="svg_12" fill="#F9AA18" d="m392.99,202.33c-0.29,3.42 -0.57,6.84 -0.78,10.26c-0.11,1.78 -0.84,2.99 -1.94,3.85c-0.83,0.66 -1.88,1.12 -3.01,1.49c-1.83,0.05 -3.66,0.15 -5.49,0.15c-91.39,0.01 -182.78,0.01 -274.16,0c-1.83,0 -3.66,-0.07 -5.49,-0.1l-0.01,-0.01c-0.03,-0.02 -0.06,-0.05 -0.09,-0.07c-3.19,-2.54 -4.17,-5.82 -4.06,-9.91c0.29,-10.59 0.19,-21.19 0.25,-31.78c0.44,-0.01 0.88,-0.01 1.32,-0.02c5.84,-0.07 11.68,-0.15 17.52,-0.22c0.25,-0.21 0.51,-0.39 0.77,-0.55c1.79,-1.07 3.86,-0.98 5.87,-0.98c37.87,-0.03 75.74,-0.05 113.61,0.04c2.46,0 5.4,-0.69 6.85,2.42c0,0 0,0.01 0.01,0.02c0,0.01 0.01,0.03 0.02,0.05c-2.33,2.27 -5.3,1.66 -8.05,1.67c-35.62,0.05 -71.24,0.03 -106.85,0.03c-1.17,0 -2.33,-0.01 -3.5,0c-6.73,0.09 -7.02,0.38 -7.09,7.04c-0.14,12.22 0.33,12.72 12.45,12.72c85.71,-0.03 171.42,0.08 257.13,-0.06c0.66,0 1.33,0.02 1.98,0.11c0.22,0.02 0.42,0.05 0.61,0.09c0,0.01 0.01,0.01 0.01,0.01c0.1,0.01 0.2,0.04 0.29,0.07c1.65,0.52 1.97,2.07 1.83,3.68z" class="st8"/>
   <path id="svg_13" fill="#F9AA18" d="m498.12,264.15c-3.07,0.17 -6.14,0.32 -9.21,0.44l-0.18,0c-12.06,0.5 -24.12,0.59 -36.14,-0.59c-7.16,-0.7 -10.49,-6.21 -11.74,-12.96c0.01,-0.11 0.01,-0.22 0.02,-0.33c0.46,-7.36 4.62,-13.49 6.9,-20.24c1.22,-3.6 2.68,-7.12 4.03,-10.67c-0.03,-0.22 -0.05,-0.43 -0.07,-0.64c-0.24,-3.6 1.89,-6.52 3.11,-9.68c1.13,-2.93 2.39,-5.83 3.58,-8.74c1.04,-2.53 0.66,-4.66 -1.03,-6.92c-10.99,-14.78 -6.52,-32.18 10.18,-39.99c0.21,-0.1 0.42,-0.19 0.64,-0.28c0.22,-0.1 0.45,-0.19 0.68,-0.26c0.18,-0.07 0.35,-0.13 0.53,-0.19c4.5,-0.73 9.06,-1.97 13.31,0.39c0.4,0.22 0.8,0.48 1.2,0.77c0.15,0.21 0.25,0.43 0.28,0.69c-0.12,0.19 -0.26,0.37 -0.4,0.54c-1.36,1.64 -3.45,2.32 -5.13,3.54c-11.96,8.73 -12.5,26.91 -1.06,36.2c3.47,2.83 6.97,4.49 11.19,1.48c0.64,-0.45 1.4,-0.78 2.23,-0.7c0.19,0.01 0.39,0.05 0.59,0.11c1.96,5.3 3.92,10.59 5.88,15.89c-0.35,0.08 -0.71,0.14 -1.08,0.21c-0.62,0.1 -1.25,0.22 -1.78,0.51c-6.17,3.27 -12.71,4.81 -19.69,4.29c-3.47,-0.26 -5.7,1.22 -6.99,4.36c-2.97,7.21 -6.15,14.35 -8.87,21.65c-3.66,9.84 0.45,18.42 8.66,20.63c1.78,0.49 3.76,0.67 5.9,0.5c8.1,-0.66 16.3,-0.05 24.46,-0.01z" class="st8"/>
   <path id="svg_14" fill="#FCCC08" d="m491.63,196.12c-0.19,0.13 -0.38,0.27 -0.57,0.39c-6.93,4.76 -8.04,5.43 -15.66,-1.66c-12.99,-12.12 -8.22,-33.78 8.14,-39.66c0.22,-0.09 0.44,-0.17 0.67,-0.24c17.9,7.26 21.54,27.45 7.42,41.17z" class="st2"/>
   <path id="svg_15" fill="#77777E" d="m483.93,154.26c-0.33,-0.05 -0.67,-0.1 -1,-0.15c-4.69,-0.62 -9.37,-0.72 -14.04,0.31c-0.27,-0.28 -0.5,-0.57 -0.68,-0.87c-0.98,-1.58 -0.87,-3.44 -0.88,-5.24c-0.07,-13.32 -0.06,-26.64 -0.01,-39.97c0.01,-1.78 -0.08,-3.62 0.84,-5.2c0.19,-0.32 0.42,-0.63 0.7,-0.93c1.45,-2.09 3.91,-2.24 6.01,-2.92c2.95,-0.95 5.58,-2.26 7.63,-4.43c0.49,-0.53 0.96,-1.11 1.39,-1.75c0.01,20.38 0.03,40.77 0.04,61.15z" class="st9"/>
   <path id="svg_16" fill="#E7C799" d="m94.43,363.47c0,0.03 -0.02,0.06 -0.04,0.09c-0.11,0.16 -0.23,0.24 -0.35,0.24c-3.25,0.16 -6.51,0.27 -9.77,0.3c-4.07,0.03 -8.14,-0.05 -12.2,-0.32c4.45,-2.06 9.46,0.79 13.87,-1.6c0.05,0.01 0.09,0.01 0.14,0.02c1.63,0.18 3.26,0.37 4.89,0.55c1.02,0.12 2.04,0.23 3.06,0.35c0.29,0.12 0.43,0.24 0.4,0.37z" class="st10"/>
   <path id="svg_17" fill="#F0F1F1" d="m460.95,459.9c-0.25,0.22 -0.5,0.42 -0.76,0.59c-2.38,1.58 -5.2,1 -7.83,1.01c-39.46,0.05 -78.92,0.03 -118.38,0.03c-85.25,0 -170.5,0 -255.75,-0.01c-3.33,0 -6.66,0.17 -9.95,-0.54c-12.08,-2.59 -20.78,-13.54 -20.34,-25.61c0.43,-11.7 9.72,-21.67 22.03,-23.64c2.81,-0.45 5.65,-0.38 8.48,-0.38c78.92,0 157.84,-0.01 236.76,0c6.82,0 9.46,0.05 10.49,2.68c0.65,1.63 0.68,4.24 0.71,8.43c0.06,6.98 -0.35,13.98 0.27,20.93c0.13,0.3 0.27,0.55 0.43,0.76c0.96,1.28 2.39,0.88 3.75,0.3c3.47,-1.48 7.14,-2.46 10.53,-4.17c0.19,-0.08 0.37,-0.17 0.55,-0.27c0.13,-0.07 0.26,-0.14 0.39,-0.2c4.58,-2.36 9.12,-2.37 13.88,-0.05c3.56,1.75 7.33,3.12 11.1,4.42c1.8,0.62 3.56,1.08 4.61,-0.82c0.11,-0.2 0.22,-0.43 0.31,-0.68c0.74,-8 0.11,-15.99 0.33,-23.96c0.04,-1.71 0.16,-3.04 0.43,-4.06c0.7,-2.63 2.47,-3.25 6.97,-3.27c25.13,-0.11 50.27,-0.08 75.4,-0.01c1.69,0.01 3.43,-0.03 4.87,0.98c0.25,0.17 0.49,0.38 0.72,0.62c-2.94,15.64 -2.69,31.28 0,46.92z" class="st11"/>
   <path id="svg_18" fill="#F0F1F1" d="m432.95,313.98c-0.24,0.21 -0.49,0.4 -0.74,0.56c-2.57,1.66 -5.56,1 -8.37,1c-72.62,0.05 -145.25,0.04 -217.88,0.04c-34.81,0 -69.63,-0.07 -104.44,0.05c-8.01,0.02 -14.67,-2.45 -19.96,-8.5c-6.73,-7.69 -8.05,-16.58 -4.13,-25.63c3.95,-9.14 11.07,-14.93 21.64,-15.04c10.32,-0.11 20.65,-0.05 30.98,-0.01c1.83,0 3.67,0 5.39,0.77c0.26,0.18 0.49,0.36 0.68,0.56c0.03,0.02 0.05,0.04 0.06,0.06c1.51,1.53 1.24,3.67 1.28,5.64c0.1,6.11 0,12.21 0.04,18.32c0.05,7.32 0.57,7.67 7.24,5.31c1.55,-0.55 3.07,-1.18 4.59,-1.82c0.16,-0.07 0.31,-0.13 0.47,-0.2c0.11,-0.07 0.23,-0.14 0.34,-0.2c7.97,-4.73 15.5,-2.23 23.25,1.23c9.12,4.06 9.23,3.8 9.24,-6.35c0,-5.63 -0.08,-11.27 0.05,-16.91c0.03,-1.83 -0.11,-3.8 1.36,-5.14c0.04,-0.04 0.09,-0.08 0.14,-0.12c0.19,-0.17 0.41,-0.32 0.66,-0.46c2.07,-0.84 4.25,-0.75 6.41,-0.75c78.03,-0.02 156.06,-0.02 234.09,0.02c2.25,0 4.65,-0.37 6.68,0.9c0.31,0.18 0.62,0.41 0.91,0.69c-0.01,6.25 -1.89,12.27 -2.08,18.54c-0.28,9.25 1.22,18.31 2.1,27.44z" class="st11"/>
   <path id="svg_19" fill="#DDE0E0" d="m474.84,476.66l-7.26,0c-130.45,-0.02 -260.91,-0.04 -391.37,-0.1c-22.5,-0.01 -38.48,-12.49 -42.59,-32.97c-4.58,-22.76 13.17,-45.63 36.34,-46.78c2.49,-0.12 4.99,-0.12 7.49,-0.12c80.26,-0.01 160.52,-0.01 240.78,-0.01c2.33,0 4.66,-0.08 6.99,-0.12c0.87,0.4 1.41,0.97 1.74,1.62l0.01,0c0.51,1.03 0.53,2.29 0.54,3.48c0.16,13.1 0.14,26.19 0.02,39.28c-0.01,1.09 -0.04,2.21 -0.42,3.21c-0.24,0.65 -0.64,1.26 -1.28,1.78c-1.83,-3.97 -0.66,-8.16 -0.82,-12.25c-0.23,-5.65 -0.16,-11.33 -0.02,-16.99c0.07,-2.79 -0.92,-4.05 -3.75,-3.75c-0.65,0.07 -1.33,0.01 -1.99,0.01c-81.63,0 -163.27,0.05 -244.9,-0.05c-11.24,-0.01 -22.7,8.01 -24.48,19.82c-2.19,14.57 8.92,26.03 21.25,27.2c0.49,0.04 1,0.01 1.5,0.01c129.12,-0.01 258.25,-0.02 387.38,-0.03l0.95,0c2.1,3.24 2.9,7.01 3.89,10.62c1.09,3.96 2.87,6.16 7.24,5.37c0.96,-0.17 2,-0.05 2.76,0.77z" class="st12"/>
   <path id="svg_20" fill="#DDE0E0" d="m439.9,330.77c-0.35,0.02 -0.69,0.03 -1.04,0.05c-0.98,0.06 -1.96,0.11 -2.94,0.11c-111.36,0 -222.73,0.01 -334.09,-0.01c-19.23,0 -34.52,-11.11 -39.83,-28.77c-7.54,-25.05 11.25,-50.8 37.42,-51.11c12.31,-0.14 24.63,0.05 36.94,0.09c0.15,0.45 0.29,0.9 0.41,1.36c1.47,5.14 1.56,10.26 -0.59,15.35c-0.01,0.05 -0.04,0.11 -0.06,0.16c-12.66,0 -25.31,-0.09 -37.97,0.04c-9.44,0.09 -15.53,5.72 -19.18,13.61c-3.74,8.05 -2.94,16.26 2.77,23.44c5.08,6.39 11.66,9.03 20.03,9.02c110.09,-0.17 220.17,-0.12 330.27,-0.13l0.91,0c2.99,5.32 2.96,11.89 6.95,16.79z" class="st12"/>
   <path id="svg_21" fill="#DDE0E0" d="m438.92,251.13c-3.12,5.23 -3.55,11.41 -5.99,16.87l-1.09,0c-82.56,0.01 -165.1,0.02 -247.66,0.02c-0.05,-0.1 -0.1,-0.2 -0.14,-0.3c-2.38,-5.05 -2.36,-10.12 -0.54,-15.2c0.16,-0.46 0.34,-0.93 0.53,-1.39c7.48,-0.05 14.96,-0.13 22.44,-0.13c75.49,-0.01 150.98,0 226.47,0c1.72,0 3.45,0.07 5.18,0.11c0.27,0.01 0.53,0.01 0.8,0.02z" class="st12"/>
   <path id="svg_22" fill="#DDE0E0" d="m466.91,396.89c-1.99,5.36 -3.98,10.73 -5.96,16.09l-0.95,0c-26.95,-0.01 -53.91,0.07 -80.86,-0.12c-4.18,-0.03 -5.45,1.22 -5.27,5.35c0.3,7.3 0.11,14.62 0.06,21.94c-0.01,1.61 0.49,3.35 -0.79,4.77c-0.6,-0.45 -0.98,-0.98 -1.22,-1.56c-0.39,-0.91 -0.45,-1.93 -0.46,-2.93c-0.13,-13.27 -0.19,-26.54 0.03,-39.81c0.01,-1 0.23,-1.98 0.65,-2.9c0.02,-0.04 0.04,-0.07 0.07,-0.11c0.01,-0.04 0.03,-0.07 0.07,-0.11c0.1,-0.18 0.22,-0.33 0.38,-0.47c0.25,-0.25 0.56,-0.44 0.92,-0.57c24.3,0.07 48.59,0.14 72.88,0.23c6.62,0.03 13.24,0.12 19.86,0.19c0.2,0.01 0.39,0.01 0.59,0.01z" class="st12"/>
   <path id="svg_23" fill="#E4C592" d="m472.92,363.8c-6.75,0.3 -13.5,0.4 -20.25,0.23c-2.55,-0.06 -5.09,-0.16 -7.64,-0.3c0.29,-0.07 0.58,-0.15 0.87,-0.22c0.02,0 0.04,-0.01 0.07,-0.01c0.72,-0.19 1.44,-0.37 2.17,-0.55c0.89,-0.22 1.78,-0.44 2.67,-0.67c0.11,-0.02 0.22,-0.05 0.33,-0.08c4.06,1.93 8.38,0.44 12.55,0.91c3.07,0.34 6.25,-0.75 9.23,0.69z" class="st13"/>
   <path id="svg_24" fill="#F9AA18" d="m373.58,396.46c-0.15,0.28 -0.37,0.47 -0.68,0.57c-1.95,1.69 -4.34,1.45 -6.64,1.48c-5.98,0.06 -11.96,-0.04 -17.93,0.04c-5.28,0.07 -5.73,0.47 -5.77,5.68c-0.08,10.46 -0.04,20.92 -0.01,31.38c0.01,1.83 0.03,3.65 -0.52,5.43c-5.3,1.96 -9.96,6.08 -16.21,4.9c-0.06,-14.48 -0.1,-28.96 -0.19,-43.44c-0.01,-1.98 -0.28,-3.96 -0.42,-5.94c14.5,-0.17 28.99,-0.36 43.49,-0.49c1.63,-0.02 3.32,-0.46 4.88,0.39z" class="st8"/>
   <path id="svg_25" fill="#DAC07B" d="m94.04,363.8c0.01,-0.23 0.01,-0.47 -0.01,-0.7c2.65,0.1 5.38,-0.75 7.92,0.63c-2.64,0.02 -5.27,0.04 -7.91,0.07z" class="st14"/>
   <path id="svg_26" fill="#FEFEFE" d="m453.93,185.64c1.17,3.34 2.93,6.34 5.5,8.76c1.55,1.46 1.93,2.84 1.07,4.83c-2.92,6.72 -5.72,13.48 -8.56,20.23c-0.04,0.11 -0.09,0.23 -0.14,0.34c-3.08,-1.43 -6.33,-1.76 -9.7,-1.76c-18.28,0.01 -36.56,-0.06 -54.84,-0.11c0.59,-0.48 1.1,-0.98 1.54,-1.49c4.47,-5.12 2.28,-11.59 2.35,-17.61c-0.1,-0.08 -0.19,-0.16 -0.28,-0.25c0,0 -0.01,0 -0.01,-0.01c-1.63,-1.56 -1.42,-3.68 -1.44,-5.68c-0.05,-5.26 -0.16,-10.52 0.03,-15.77c0,-0.28 0.01,-0.55 0.02,-0.83c0,-0.08 0.01,-0.15 0.01,-0.23c-0.24,-13.86 -0.11,-27.73 -0.06,-41.59c0.02,-2.82 -0.03,-5.86 3.25,-7.11c0.15,-0.06 0.3,-0.11 0.46,-0.16c5.82,-1.44 11.39,-3.6 16.94,-5.83c-5.08,4 -10.54,6.78 -17.18,6.02c-1.85,1.47 -1.61,3.59 -1.62,5.65c-0.09,14.42 -0.2,28.83 -0.3,43.25c0.72,7.45 0.41,14.91 0.19,22.36c1.65,0.52 1.97,2.07 1.83,3.68c-0.29,3.42 -0.57,6.84 -0.78,10.26c-0.11,1.78 -0.84,2.99 -1.94,3.85c16.85,0.06 33.69,-0.04 50.54,0.03c3.64,0.01 7.34,-0.12 10.49,2.23c0.17,0.15 0.31,0.3 0.43,0.46c-0.24,-3.6 1.89,-6.52 3.11,-9.68c1.13,-2.93 2.39,-5.83 3.58,-8.74c1.04,-2.53 0.66,-4.66 -1.03,-6.92c-10.99,-14.78 -6.52,-32.18 10.18,-39.99c0.21,-0.1 0.42,-0.19 0.64,-0.28c-0.98,-1.58 -0.87,-3.44 -0.88,-5.24c-0.07,-13.32 -0.06,-26.64 -0.01,-39.97c0.01,-1.78 -0.08,-3.62 0.84,-5.2c-17.27,5.45 -34.2,11.9 -51.4,17.54c-2.14,0.71 -4.41,2.14 -6.65,0.68c17.51,-6 35.01,-12 52.54,-17.95c1.99,-0.67 3.92,-1.94 6.21,-1.2l0,0.68l0.03,50.4l0,1.13c-13.9,7.21 -19.36,18.61 -14.96,31.22z" class="st0"/>
   <path id="svg_27" fill="#EE5227" d="m184.03,251.13c0.05,5.63 0.1,11.26 0.16,16.9c-0.05,9.46 -0.19,18.92 -0.12,28.38c0.03,3.89 -1.17,5.33 -5.01,3.56c-2.1,-0.97 -4.39,-1.56 -6.44,-2.63c-7.35,-3.81 -14.74,-5.69 -22.47,-1.1c-1.69,-1.51 -1.64,-3.57 -1.66,-5.55c-0.09,-11.31 -0.08,-22.61 -0.01,-33.92c0.01,-1.98 0,-4.03 1.56,-5.61c11.32,-0.01 22.66,-0.02 33.99,-0.03z" class="st3"/>
   <path id="svg_28" fill="#D73725" d="m150.03,251.16c0.04,15.03 0.07,30.05 0.11,45.08c-3.01,1.26 -6.05,2.44 -9.02,3.8c-3.64,1.67 -4.79,0.12 -4.8,-3.37c-0.03,-9.56 -0.13,-19.11 -0.21,-28.67c0.08,-5.62 0.16,-11.24 0.25,-16.87c4.56,0.01 9.12,0.02 13.67,0.03z" class="st15"/>
   <path id="svg_29" fill="#858390" d="m393.13,127.2c-0.08,0.06 -0.16,0.12 -0.24,0.19c-1.85,1.47 -1.61,3.59 -1.62,5.65c-0.09,14.42 -0.2,28.83 -0.3,43.25c-0.49,0.35 -1,0.62 -1.52,0.83c-2.29,0.9 -4.78,0.53 -7.19,0.54c-42.46,0.03 -84.91,0.06 -127.37,-0.05c-3.55,-0.01 -7.27,1.49 -10.7,-0.69c-0.01,-0.01 -0.03,-0.01 -0.04,-0.02c-2.51,-1.22 -5.2,-0.74 -7.81,-0.74c-37.77,-0.04 -75.54,-0.03 -113.31,-0.03c-1.85,-0.01 -3.7,-0.09 -5.55,-0.15c-0.14,0 -0.29,-0.01 -0.43,-0.01c0,-23.32 0.04,-46.64 -0.03,-69.96c-0.01,-3.01 0.27,-4.68 4.03,-5.23c11.61,-1.68 23.21,-3.31 34.84,-4.84c18.74,-2.47 37.57,-3.78 56.38,-4.59c22.11,-0.95 44.31,-0.57 66.45,-0.09c13.39,0.29 26.79,1.46 40.1,2.94c18.39,2.03 36.8,4.07 55.03,7.35c0.97,0.17 1.94,0.41 2.92,0.52c11.79,1.35 14.15,5.97 15.2,16.53c0.29,2.87 -1.15,6 1.16,8.6z" class="st5"/>
   <path id="svg_30" fill="#FCCC08" d="m391.16,198.65c-0.01,0.06 -0.01,0.12 -0.01,0.18c-1.38,1.76 -3.35,1.18 -5.1,1.18c-86.75,0.02 -173.49,0.02 -260.23,0.01c-7.2,0 -8.85,-1.6 -8.73,-8.79c0.08,-4.46 -1.89,-10.16 0.81,-13.05c2.98,-3.19 8.84,-1.05 13.41,-1.07c37.62,-0.15 75.23,-0.15 112.85,-0.19l0.03,0c3.64,-0.24 7.29,-0.69 10.93,-0.69c44.79,-0.02 89.57,0.03 134.35,0.06l1.5,0c0.72,7.45 0.41,14.91 0.19,22.36z" class="st2"/>
   <path id="svg_31" fill="#FCCC08" d="m342.04,441.03c-1.41,-1.12 -1.05,-2.71 -1.05,-4.16c-0.02,-11.81 0.1,-23.62 -0.08,-35.43c-0.06,-3.52 1.08,-4.6 4.55,-4.52c9.14,0.21 18.3,0.09 27.45,0.1c0.08,15.97 0.15,31.93 0.23,47.9c-1.02,2.33 -2.66,1.91 -4.53,1.14c-3.36,-1.39 -6.85,-2.49 -10.14,-4.02c-5.39,-2.5 -10.74,-4.14 -16.43,-1.01z" class="st2"/>
  </g>
 </g>
</svg>