<svg width="512" height="512" xmlns="http://www.w3.org/2000/svg" xml:space="preserve" version="1.1">

 <g>
  <title>Layer 1</title>
  <g id="svg_1">
   <path id="svg_2" fill="#FEFEFE" d="m141.26,144.33c-0.02,-29.26 -0.03,-58.53 -0.01,-87.79c0,-10.28 6.05,-16.07 16.36,-16.54c18.66,-0.87 32.98,-9.33 41.92,-25.88c3.14,-5.81 6.31,-11.18 12.56,-14c0.3,1.2 -0.46,1.98 -1.32,2.4c-5,2.43 -7.28,7.03 -9.72,11.62c-8.93,16.81 -23.17,25.68 -41.93,27.18c-12.04,0.96 -16.52,5.39 -16.53,17.57c-0.01,26.77 0.01,53.54 0,80.31c-0.02,38.09 12.1,71.9 36.67,100.91c19,22.43 42.69,38.26 70.87,47.12c1.91,0.6 3.83,1.08 5.85,1.12c0.03,0 0.07,-0.01 0.1,-0.02c0.32,-0.04 0.64,-0.09 0.96,-0.14c10.31,-1.61 19.57,-6.14 28.74,-10.76c29.81,-15 51.96,-37.89 67.22,-67.33c10.79,-20.82 16.23,-43.23 16.37,-66.75c0.17,-28.45 0.06,-56.89 0.03,-85.34c-0.01,-11.28 -4.48,-15.71 -15.83,-16.68c-18.85,-1.61 -33.5,-10.12 -42.57,-27.15c-2.53,-4.75 -5.02,-9.4 -10.05,-12.02c-0.73,-0.38 -1.27,-1.07 -1.04,-2.04c5.63,2.43 8.92,6.88 11.65,12.26c9,17.76 23.91,26.6 43.56,27.64c9.78,0.51 15.63,6.31 15.63,16.17c0.02,29.62 0.47,59.26 -0.13,88.87c-0.75,37.31 -14.08,69.98 -38.56,98.09c-18.34,21.05 -40.93,35.72 -67.31,44.64c-2.81,0.95 -5.57,2.22 -8.67,1.82c-8.95,-0.76 -16.95,-4.56 -24.81,-8.34c-45.79,-22.05 -74.54,-58.03 -86.42,-107.41c-2.32,-9.64 -3.58,-19.54 -3.59,-29.53z" class="st0"/>
   <path id="svg_3" fill="#FEFEFE" d="m511.47,434.57c-2.87,-0.43 -2.18,-2.94 -2.47,-4.63c-3.05,-18.05 -10.24,-34.21 -21.7,-48.49c-7.44,-9.27 -16.3,-16.9 -26.34,-23.23c-2.65,-1.68 -5.86,-2.65 -7.69,-5.46c-0.05,-0.07 -0.1,-0.15 -0.15,-0.23c-0.02,-0.03 -0.04,-0.07 -0.06,-0.1c-0.39,-2.32 1.27,-3.65 2.52,-5.16c26.24,-31.78 16.14,-79.54 -20.92,-97.83c-8.67,-4.29 -18.03,-6.74 -27.9,-6.3c-0.01,0 -0.01,0 -0.02,0c-0.31,0.01 -0.61,0.02 -0.91,0.04c-26.52,1.09 -45.95,13.75 -56.98,37.8c-10.74,23.4 -6.77,45.7 8.74,66.05c1.19,1.56 2.93,2.8 2.79,5.08c-0.03,0.1 -0.07,0.2 -0.11,0.3c-0.03,0.09 -0.07,0.18 -0.11,0.27c-0.86,1.91 -2.75,2.75 -4.42,3.71c-17.45,10.03 -30.79,24.02 -40.63,41.54c-2.19,3.89 -2.93,8.48 -6.09,11.86c-0.01,0.01 -0.02,0.03 -0.03,0.04c-0.09,-0.02 -0.18,-0.03 -0.26,-0.05c-4.61,-0.9 -8.19,-3.34 -10.88,-7.12c-0.03,-0.03 -0.05,-0.06 -0.07,-0.09c-0.08,-0.12 -0.17,-0.24 -0.25,-0.36c0.16,-1.93 1.4,-3.32 2.4,-4.83c11.42,-17.34 13.46,-35.75 4.05,-54.28c-9.77,-19.26 -25.9,-29.69 -47.92,-30.05l-0.01,0c-0.3,0.01 -0.6,0.02 -0.9,0.04c-20.75,0.82 -36.63,10.27 -46.38,28.6c-9.71,18.27 -8.47,36.71 2.51,54.36c1.22,1.96 2.82,3.72 3.34,6.06c-0.06,0.12 -0.13,0.25 -0.2,0.37c-0.04,0.08 -0.08,0.16 -0.13,0.24c-2.26,3.92 -7.1,6.79 -10.89,6.5c-0.05,0 -0.1,-0.01 -0.14,-0.01c-0.17,-0.02 -0.34,-0.04 -0.5,-0.07c-2.18,-2.38 -2.93,-5.53 -4.35,-8.32c-9.24,-18.17 -22.47,-32.61 -39.85,-43.27c-2.34,-1.44 -5.25,-2.24 -6.68,-4.89c-0.04,-0.06 -0.07,-0.12 -0.1,-0.18c-0.05,-0.09 -0.1,-0.19 -0.14,-0.29c-0.21,-2.3 1.48,-3.59 2.73,-5.1c25.16,-30.45 17.74,-77.74 -21.49,-97.82c-8.46,-4.33 -17.77,-6.59 -27.49,-6.13l-0.03,0c-0.3,0.01 -0.6,0.02 -0.9,0.04c-26.98,1.12 -46.58,14.14 -57.39,38.76c-10.43,23.72 -6.12,46.16 10.22,66.25c1.04,1.28 2.39,2.34 2.42,4.19c0,0.01 0,0.01 0,0.02c-0.07,0.11 -0.15,0.22 -0.23,0.32c-1.65,2.25 -4.28,3.17 -6.55,4.55c-26.38,16.03 -42.74,39.16 -49.27,69.32c-0.47,2.18 0.06,5.13 -3.13,5.98c2.33,-3.22 1.97,-7.19 2.92,-10.79c8.33,-31.4 26.81,-54.56 55.78,-69.29c-9.66,-10.5 -16.07,-22.48 -18.09,-36.86c-2.6,-18.53 2.08,-35.13 13.59,-49.36c12.85,-15.87 29.8,-24.46 50.63,-24.34c30.08,-1.06 59.61,23.74 63.89,53.21c3.05,20.98 -1.74,39.41 -16.03,55.23c-0.53,0.59 -0.79,1.43 -1.17,2.15c23.91,12.45 40.89,31.24 51.22,56.1c4.33,-0.73 7.57,-3.42 10.84,-6.07c-8.72,-11.44 -13.75,-24.15 -12.95,-38.72c1.43,-25.95 20.79,-47.25 45.54,-51.18c3.11,-0.5 6.17,-1.23 9.35,-0.81c25.3,-0.79 49.32,19.05 53.88,44.16c3.17,17.48 -1.34,32.8 -12.02,46.6c3.61,2.32 7.22,4.64 10.83,6.95c9.73,-25.54 27.19,-44.14 51.12,-56.91c-3.48,-5.96 -8.24,-11.03 -11.35,-17.32c-19.34,-39.16 5.16,-86.17 48.38,-92.66c3.29,-0.49 6.52,-0.99 9.85,-0.73c30.08,-1.06 59.6,23.74 63.89,53.23c3.02,20.78 -1.67,39.09 -15.71,54.86c-0.63,0.7 -0.94,1.7 -1.4,2.55c30.66,16.29 49.62,41.33 56.49,75.48c0.44,2.16 -0.43,4.68 1.46,6.52z" class="st0"/>
   <path id="svg_4" fill="#E91C80" d="m511.47,434.57l0,65.91c-1.03,6.29 -4.69,9.95 -10.98,10.99l-93.8,0c-1.72,-1.92 -1.6,-4.31 -1.61,-6.62c-0.02,-42.26 -0.03,-84.52 0,-126.78c0.01,-1.67 0.04,-3.34 0.53,-4.94c0.23,-0.66 0.55,-1.15 0.94,-1.52c0.05,-0.05 0.1,-0.1 0.16,-0.14c1.1,-0.93 2.66,-1.01 4.2,-1.12c14.01,-0.93 26.33,-5.97 36.97,-15.16c1.5,-1.3 3.01,-2.81 5.24,-2.66c0.13,0 0.27,0.02 0.4,0.04c30.66,16.29 49.62,41.33 56.49,75.48c0.44,2.16 -0.43,4.68 1.46,6.52z" class="st1"/>
   <path id="svg_5" fill="#A1E685" d="m105.31,511.47l-93.8,0c-5.95,-1.37 -9.88,-4.76 -10.98,-10.99l0,-67.91c2.33,-3.22 1.97,-7.19 2.92,-10.79c8.33,-31.4 26.81,-54.56 55.78,-69.29c0.16,-0.05 0.33,-0.09 0.48,-0.11c1.45,-0.21 2.41,0.84 3.38,1.72c10.81,9.74 23.59,14.81 37.95,16.22c1.45,0.14 2.96,0.1 4.22,0.96c0.03,0.01 0.05,0.02 0.07,0.05c0.08,0.05 0.16,0.11 0.24,0.18c0.05,0.03 0.09,0.07 0.14,0.11c0.04,0.06 0.08,0.12 0.11,0.18c0.31,0.46 0.53,0.94 0.67,1.46c0.55,2.3 0.43,4.64 0.43,6.96c0.02,40.88 0.02,81.76 -0.01,122.64c0,2.94 0.55,6.04 -1.6,8.61z" class="st2"/>
   <path id="svg_6" fill="#9CDEF5" d="m256.88,259.7c1.34,9.07 0.63,18.17 0.43,27.27c-0.01,0.43 -0.1,0.84 -0.27,1.22c-0.2,0.52 -0.54,1 -0.96,1.42c-8.95,-0.76 -16.95,-4.56 -24.81,-8.34c-45.79,-22.05 -74.54,-58.03 -86.42,-107.41c-2.32,-9.64 -3.58,-19.54 -3.59,-29.53c-0.02,-29.26 -0.03,-58.53 -0.01,-87.79c0,-10.28 6.05,-16.07 16.36,-16.54c18.66,-0.87 32.98,-9.33 41.92,-25.88c3.14,-5.81 6.31,-11.18 12.56,-14l43.91,0c0.78,0.9 1.35,1.95 1.36,3.14c0.08,8.61 0.92,17.24 -0.48,25.82c-0.22,0.41 -0.47,0.74 -0.74,1.01c-0.01,0.02 -0.02,0.03 -0.04,0.04c-0.02,0.03 -0.04,0.05 -0.06,0.06c-0.02,0.03 -0.04,0.04 -0.06,0.06c-1.41,1.28 -3.39,1.13 -5.23,1.16c-6.48,0.1 -12.96,0.11 -19.44,0c-3.47,-0.06 -5.96,1.13 -7.94,4.07c-11.35,16.78 -26.83,27.9 -46.4,33.12c-3.35,0.89 -4.49,2.61 -4.48,5.99c0.1,24.1 -0.8,48.25 0.28,72.31c1.35,30.28 12.71,56.79 33.75,78.96c12.7,13.37 27.66,23.24 44.76,29.99c1.69,0.66 3.5,1.2 4.73,2.56c0.06,0.06 0.11,0.12 0.16,0.18c0.03,0.03 0.06,0.06 0.08,0.1c0.01,0.01 0.02,0.02 0.03,0.04c0.23,0.28 0.43,0.61 0.6,0.97z" class="st3"/>
   <path id="svg_7" fill="#6BA6FE" d="m370.62,145.06c-0.75,37.31 -14.08,69.98 -38.56,98.09c-18.34,21.05 -40.93,35.72 -67.31,44.64c-2.81,0.95 -5.57,2.22 -8.67,1.82l0,-1.28c0,-9.79 0.01,-19.59 0.01,-29.38c0.04,-0.07 0.09,-0.13 0.13,-0.2c0.01,-0.02 0.02,-0.04 0.03,-0.06c0.1,-0.14 0.18,-0.29 0.27,-0.43c6.59,-3.87 14.02,-5.91 20.61,-9.9c34.68,-20.98 55.55,-51.09 61.44,-91.43c1.33,-9.12 0.8,-18.24 0.86,-27.37c0.13,-17.95 -0.07,-35.91 0.12,-53.86c0.05,-4.38 -1.32,-6.4 -5.7,-7.64c-18.03,-5.1 -32.79,-15.21 -43.47,-30.7c-3.14,-4.55 -6.64,-6.12 -11.99,-6.06c-7.25,0.09 -14.58,1.07 -21.79,-0.7c-0.14,-0.15 -0.28,-0.31 -0.42,-0.47c-0.01,-0.01 -0.02,-0.03 -0.04,-0.04c-0.02,-0.03 -0.05,-0.07 -0.08,-0.1c-0.02,-9.96 -0.04,-19.92 -0.06,-29.87l43.91,0c5.63,2.43 8.92,6.88 11.65,12.26c9,17.76 23.91,26.6 43.56,27.64c9.78,0.51 15.63,6.31 15.63,16.17c0.02,29.62 0.47,59.26 -0.13,88.87z" class="st4"/>
   <path id="svg_8" fill="#00CA75" d="m199.16,415.91c-11.14,10.55 -18.7,23.23 -23.11,37.87c-2.17,7.21 -3.38,14.58 -3.46,22.09c-0.12,9.81 -0.01,19.62 -0.05,29.43c0,2.14 0.25,4.37 -1.36,6.17l-65.87,0c0.01,-46.56 0.02,-93.11 0.03,-139.67c0.07,-0.11 0.15,-0.2 0.23,-0.29c1.01,-1.13 2.46,-1.05 3.81,-1.13c14.25,-0.93 26.78,-5.97 37.43,-15.57c1.41,-1.27 2.83,-2.65 4.97,-2.33c0.09,0.01 0.18,0.02 0.27,0.04c23.91,12.45 40.89,31.24 51.22,56.1c0.06,0.21 0.1,0.41 0.13,0.6c0.57,3.36 -2.34,4.88 -4.24,6.69z" class="st5"/>
   <path id="svg_9" fill="#EE5CA1" d="m406.69,371.83l0,139.64l-65.87,0c-1.6,-1.79 -1.36,-4.01 -1.37,-6.15c-0.03,-9.45 -0.05,-18.9 0,-28.35c0.13,-25.01 -9.59,-45.67 -27.51,-62.75c-1.34,-1.28 -3.33,-2.15 -3.21,-4.44c-0.01,-0.08 0,-0.15 0.01,-0.23c9.73,-25.54 27.19,-44.14 51.12,-56.91c0.14,-0.09 0.28,-0.17 0.41,-0.23c1.67,-0.8 2.82,0.48 3.9,1.46c11.35,10.32 24.83,15.44 39.95,16.62c0.5,0.04 0.97,0.18 1.45,0.33c0.33,0.14 0.6,0.33 0.83,0.59c0.05,0.06 0.11,0.13 0.15,0.2c0.05,0.07 0.1,0.14 0.14,0.22z" class="st6"/>
   <path id="svg_10" fill="#E1E6F9" d="m340.82,511.47l-84.82,0c-1.46,-1.61 -1.57,-3.62 -1.58,-5.62c-0.05,-26.28 -0.06,-52.55 0.01,-78.82c0,-1.33 0.1,-2.66 0.49,-3.94c0.22,-0.67 0.55,-1.17 0.95,-1.54c0.02,-0.03 0.05,-0.05 0.07,-0.07c0.02,-0.02 0.04,-0.04 0.06,-0.05c0.02,-0.02 0.03,-0.03 0.05,-0.04c0.97,-0.79 2.3,-0.96 3.65,-1.09c13.14,-1.31 24.67,-6.06 33.97,-15.72c1.08,-1.12 2.22,-2.47 4.11,-2.01c0.04,0.01 0.09,0.02 0.13,0.03c3.61,2.32 7.22,4.64 10.83,6.95c0.09,0.08 0.19,0.16 0.28,0.24c15.55,13.18 26.01,29.47 30.23,49.59c1.16,5.52 1.67,11.09 1.61,16.75c-0.13,11.78 -0.04,23.56 -0.04,35.34z" class="st7"/>
   <path id="svg_11" fill="#F4F4FE" d="m171.18,511.47c0.39,-14.92 -0.99,-29.89 0.81,-44.77c2.57,-21.31 12.18,-39.01 27.89,-53.51c1.27,-1.17 3.18,-1.95 3.38,-3.98c0.02,-0.18 0.02,-0.38 0.01,-0.59c4.33,-0.73 7.57,-3.42 10.84,-6.07c0.11,-0.03 0.21,-0.05 0.31,-0.07c1.56,-0.27 2.59,0.8 3.53,1.78c9.61,10.02 21.63,14.71 35.17,16.12c0.83,0.09 1.63,0.28 2.35,0.71c0.11,0.13 0.22,0.26 0.33,0.39c0.03,0.02 0.05,0.04 0.07,0.07c0.03,0.04 0.06,0.08 0.1,0.12c0.01,29.93 0.02,59.86 0.03,89.8l-84.82,0z" class="st8"/>
   <path id="svg_12" fill="#FBFDFA" d="m0.53,500.48c2.36,4.96 6.13,8.52 10.98,10.99c-3.66,0 -8.75,1.43 -10.58,-0.4c-1.83,-1.83 -0.4,-6.92 -0.4,-10.59z" class="st9"/>
   <path id="svg_13" fill="#FEF9FB" d="m500.49,511.47c5.11,-2.21 8.75,-5.89 10.98,-10.99c0,3.66 1.43,8.75 -0.4,10.58c-1.83,1.84 -6.92,0.41 -10.58,0.41z" class="st10"/>
   <path id="svg_14" fill="#F9C293" d="m454.92,350.02c-0.63,0.7 -0.94,1.7 -1.4,2.55c-0.08,0.06 -0.17,0.13 -0.25,0.19c-3.99,3.02 -7.84,6.24 -12,8.97c-10.47,6.86 -22.08,10.07 -34.58,10.1l0.02,-0.36l0,-0.06c-1.89,-1.86 -1.62,-4.29 -1.62,-6.57c-0.05,-38.78 -0.04,-77.55 -0.01,-116.32c0.01,-1.82 -0.1,-3.71 0.75,-5.34c0.23,-0.44 0.53,-0.85 0.91,-1.25c30.08,-1.06 59.6,23.74 63.89,53.23c3.02,20.78 -1.67,39.09 -15.71,54.86z" class="st11"/>
   <path id="svg_15" fill="#F9C293" d="m153.22,350.37c-0.53,0.59 -0.79,1.43 -1.17,2.15c-0.06,0.05 -0.11,0.09 -0.17,0.14c-6.98,5.65 -13.93,11.31 -22.48,14.56c-7.62,2.89 -15.44,4.54 -23.58,4.58l-0.48,0l-0.01,-0.45c-0.02,-0.02 -0.05,-0.05 -0.07,-0.07c-1.81,-1.85 -1.54,-4.25 -1.54,-6.5c-0.05,-38.76 -0.05,-77.51 -0.01,-116.27c0,-1.82 -0.11,-3.7 0.75,-5.33c0.22,-0.44 0.52,-0.86 0.9,-1.25c30.08,-1.06 59.61,23.74 63.89,53.21c3.05,20.98 -1.74,39.41 -16.03,55.23z" class="st11"/>
   <path id="svg_16" fill="#FED4B1" d="m406.74,241.93l0,1.21c-0.01,42.76 -0.02,85.51 -0.03,128.27l-0.31,0c-15.94,0.35 -29.67,-5.37 -41.81,-15.41c-1.42,-1.18 -2.41,-2.99 -4.43,-3.32c-0.1,-0.02 -0.2,-0.03 -0.3,-0.04c-3.48,-5.96 -8.24,-11.03 -11.35,-17.32c-19.34,-39.16 5.16,-86.17 48.38,-92.66c3.29,-0.49 6.52,-0.99 9.85,-0.73z" class="st12"/>
   <path id="svg_17" fill="#FED4B1" d="m105.36,241.93l0,1.21c-0.01,42.73 -0.02,85.46 -0.03,128.19c0,0.01 0,0.01 0,0.02c-16.04,0.57 -29.78,-5.25 -41.99,-15.25c-1.32,-1.09 -2.58,-2.25 -3.86,-3.38c-0.08,-0.08 -0.17,-0.16 -0.25,-0.23c-9.66,-10.5 -16.07,-22.48 -18.09,-36.86c-2.6,-18.53 2.08,-35.13 13.59,-49.36c12.85,-15.87 29.8,-24.46 50.63,-24.34z" class="st12"/>
   <path id="svg_18" fill="#F9C293" d="m297.91,402.6c-0.02,0.02 -0.04,0.03 -0.06,0.06c-4.63,3.9 -8.66,8.49 -14.05,11.51c-8.67,4.86 -17.88,7.52 -27.83,7.5l0.08,-0.19l-0.05,-0.05c-1.75,-1.86 -1.6,-4.23 -1.6,-6.52c-0.04,-32.17 -0.04,-64.34 0,-96.51c0,-1.82 -0.1,-3.69 0.75,-5.31c0.22,-0.44 0.52,-0.86 0.9,-1.25c25.3,-0.79 49.32,19.05 53.88,44.16c3.17,17.48 -1.34,32.8 -12.02,46.6z" class="st11"/>
   <path id="svg_19" fill="#FED4B1" d="m256.05,311.84l0,109.64l-0.25,0c-14.37,-0.12 -26.85,-4.99 -37.32,-14.94c-1.37,-1.3 -2.79,-2.55 -4.19,-3.82c-0.06,-0.05 -0.12,-0.11 -0.18,-0.16l0,-0.01c-8.72,-11.44 -13.75,-24.15 -12.95,-38.72c1.43,-25.95 20.79,-47.25 45.54,-51.18c3.11,-0.5 6.17,-1.23 9.35,-0.81z" class="st12"/>
   <path id="svg_20" fill="#F4F4FE" d="m256.09,258.95c-45.92,-16.78 -73.62,-49.14 -83.01,-97.19c-1.6,-8.19 -1.97,-16.43 -1.93,-24.74c0.09,-21.46 0.07,-42.92 -0.01,-64.38c-0.01,-2.88 0.54,-4.09 3.83,-4.91c19.94,-4.96 35.96,-15.87 47.27,-33.18c2.31,-3.53 4.8,-4.73 8.9,-4.58c8.3,0.3 16.62,0.04 24.93,0.01c0,0 -0.08,0.14 -0.08,0.14c1.36,1.44 1.58,3.26 1.58,5.1c-0.04,33.33 0.34,66.65 -0.18,99.96c-0.03,0.56 -0.12,1.13 -0.25,1.67c-3.3,5.69 -8.57,9.57 -13.14,14.1c-2.23,2.2 -4.25,0.82 -6.04,-0.91c-4.89,-4.73 -9.61,-9.63 -14.47,-14.39c-3.27,-3.2 -7.13,-4.85 -11.73,-4.17c-10.33,1.52 -15.51,13.8 -8.58,21.75c9.48,10.87 19.9,20.91 30.54,30.66c4.57,4.19 11.26,3.65 17.11,-0.21c1.75,-1.15 3.38,-3.8 5.89,-1.02c1.03,2.2 0.88,4.55 0.89,6.86c0.02,20.56 0.03,41.12 -0.01,61.68c0,2.62 0.34,5.36 -1.58,7.6l0.07,0.15z" class="st8"/>
   <path id="svg_21" fill="#E1E6F9" d="m256.01,258.8c0,-23.82 0.01,-47.64 -0.04,-71.46c0,-1.88 0.79,-4.03 -1.16,-5.54c-0.23,-1.06 0.29,-1.88 0.88,-2.67c16.8,-17.07 33.82,-33.93 50.74,-50.89c3.7,-3.71 6.13,-7.83 5.45,-13.31c-1.23,-9.85 -11.67,-15.09 -20.34,-10.17c-2.33,1.32 -4.3,3.12 -6.19,5.01c-7.99,8.01 -15.96,16.03 -24,23.99c-1.48,1.47 -2.68,3.51 -5.23,3.41c-0.05,-35.68 -0.09,-71.36 -0.14,-107.04c8.98,-0.02 17.95,0.05 26.93,-0.09c2.75,-0.04 4.54,0.69 6.13,3.16c11.5,17.82 27.63,29.32 48.2,34.41c2.8,0.69 3.67,1.75 3.65,4.62c-0.12,25.79 0.84,51.62 -0.34,77.35c-1.27,27.65 -11.8,52.24 -30.1,73.18c-13.91,15.91 -30.65,27.88 -50.63,35.09c-1.23,0.43 -2.54,0.63 -3.81,0.95z" class="st7"/>
   <path id="svg_22" fill="#453D81" d="m256.12,137.17c10.26,-10.15 20.48,-20.36 30.8,-30.45c6.98,-6.81 17.21,-6.64 22.9,0.2c4.63,5.57 5.19,13.99 0.1,19.2c-17.71,18.18 -35.44,36.35 -53.91,53.77c-1.73,-1.7 -1.57,-3.92 -1.59,-6.05c-0.07,-9.75 -0.03,-19.49 -0.03,-29.24c0,-2.35 0.24,-4.62 1.64,-6.62c0.04,-0.25 0.07,-0.53 0.09,-0.81z" class="st13"/>
   <path id="svg_23" fill="#6B61B0" d="m256.03,138c-0.01,13.97 -0.01,27.94 -0.02,41.91c-0.4,0.63 -0.8,1.26 -1.21,1.89c-10.35,8.98 -16.74,8.7 -26.59,-1.16c-7.99,-8 -16,-15.98 -23.97,-24c-6.77,-6.82 -7.24,-16.05 -1.19,-22.2c6.16,-6.26 15.18,-5.92 22.12,0.92c4.86,4.78 9.72,9.57 14.42,14.5c1.66,1.74 2.69,1.8 4.37,0.05c3.92,-4.07 8.03,-7.95 12.07,-11.91z" class="st14"/>
  </g>
 </g>
</svg>