<svg width="512" height="512" xmlns="http://www.w3.org/2000/svg" xml:space="preserve" version="1.1">

 <g>
  <title>Layer 1</title>
  <g id="svg_1">
   <path id="svg_2" fill="#FEFEFE" d="m512.38,327.69c-0.02,-3.44 -0.31,-6.86 -2.52,-9.76c-0.56,-1.9 -1.9,-3.26 -3.23,-4.6c-28.47,-28.79 -56.96,-57.54 -85.39,-86.36c-3.69,-3.74 -7.92,-5.97 -13.14,-6.38c-0.97,-0.94 -2.22,-0.82 -3.42,-0.8c-7.54,0.13 -6.92,0.51 -6.93,-7c-0.01,-24.47 0,-48.95 0,-73.43c0,-38.96 -0.04,-77.91 0.02,-116.87c0.02,-12.89 -6.57,-22.48 -21.81,-22.37c-81.17,0.54 -162.36,0.29 -243.55,0.18c-5.26,0 -9.27,1.81 -12.8,5.49c-4.54,4.74 -5.34,10.64 -5.34,16.71c-0.05,63.09 -0.03,126.18 -0.03,189.26c0,7.68 0,7.69 -7.45,8.02c-1.05,0.04 -2.08,0.01 -2.9,0.81c-5.42,0.39 -9.69,2.89 -13.49,6.75c-28.18,28.58 -56.43,57.09 -84.66,85.62c-1.45,1.46 -2.96,2.9 -3.59,4.96c-1.97,2.19 -2.4,5.03 -2.44,7.7c-0.18,11.87 -0.25,23.77 -0.03,35.64c0.12,6.37 3.83,9.52 10.32,9.59c8.44,0.07 16.87,0.11 25.31,0.17c0.01,39.99 0.02,79.97 0.03,119.96c0.01,14.76 6.26,21.01 21.07,21.01c133.06,0.01 266.12,0.01 399.19,0c14.79,0 21.06,-6.25 21.07,-21.01c0.02,-39.99 0.02,-79.97 0.03,-119.96c7.92,-0.05 15.84,-0.12 23.76,-0.16c8.7,-0.04 11.91,-3.1 11.94,-11.66c0.04,-10.5 0.04,-21 -0.02,-31.51zm-247.38,-203.62c0,7.4 0.03,14.8 -0.02,22.21c-0.02,1.88 -0.14,3.8 -0.55,5.62c-0.97,4.44 -4.58,7.1 -8.97,6.85c-4.77,-0.28 -8.24,-3.7 -8.32,-9.42c-0.22,-17.21 -0.22,-34.42 0.01,-51.63c0.08,-5.92 3.84,-9.39 8.87,-9.38c5.02,0.01 8.63,3.47 8.84,9.42c0.3,8.77 0.07,17.55 0.07,26.33l0.07,0zm-0.13,60.78c-0.04,5.07 -3.65,8.99 -8.5,9.17c-5.12,0.19 -9.06,-3.61 -9.23,-8.93c-0.17,-5.05 3.88,-9.49 8.74,-9.58c4.84,-0.09 9.02,4.25 8.99,9.34z" class="st0"/>
   <path id="svg_3" fill="#8E5C4A" d="m476.69,371.02c-0.01,39.99 -0.01,79.97 -0.03,119.96c-0.01,14.75 -6.27,21.01 -21.07,21.01c-133.07,0.01 -266.13,0.01 -399.19,0c-14.8,0 -21.06,-6.24 -21.07,-21.01c-0.01,-39.99 -0.02,-79.97 -0.03,-119.96c1.36,-1.67 3.31,-1.67 5.2,-1.79c1.72,-0.11 3.45,-0.06 5.17,-0.06c140.22,0 280.44,-0.01 420.66,0.04c3.5,0 7.31,-1.02 10.36,1.81z" class="st1"/>
   <path id="svg_4" fill="#E0EDFE" d="m408.11,220.59c-0.5,0.76 -1.24,1.15 -2.09,1.4c-6.62,1.86 -6.62,1.86 -6.64,8.84c-0.01,8.95 0.05,17.92 -0.03,26.89c-0.03,2.53 0.32,5.25 -2.04,7.15c-0.23,0.12 -0.46,0.23 -0.68,0.31c-0.01,0.01 -0.03,0.02 -0.04,0.02c-0.02,0.01 -0.04,0.02 -0.06,0.02c-1.7,0.64 -3.51,0.48 -5.29,0.48c-22.75,0.02 -45.51,0.04 -68.26,0c-2.82,0 -4.59,-0.04 -5.67,-0.48c-1.82,-0.75 -1.7,-2.63 -1.2,-7.46c0.67,-6.67 -3.64,-13.78 -10.07,-16.57c-1.58,-0.69 -3.3,-1.02 -4.82,-1.83c-0.41,-0.32 -0.76,-0.65 -1.02,-1c-0.02,-0.02 -0.04,-0.04 -0.05,-0.07c-1.58,-2.06 -1.08,-4.67 -0.77,-7.03c1.78,-13.54 7.14,-25.5 16.53,-35.5c11.65,-12.39 20.82,-26.23 24.49,-43.08c6.2,-28.4 0.5,-54.13 -18.3,-76.51c-17.51,-20.84 -40.43,-31.24 -67.3,-30.73c-44.96,0.89 -80.4,33.65 -85.11,77.84c-2.96,27.7 6.34,51.65 25.66,71.59c9.61,9.91 15.17,21.65 17.16,35.16c0.41,2.77 1.12,5.76 -0.69,8.26c0,0.01 -0.01,0.01 -0.02,0.02c-0.23,0.33 -0.51,0.64 -0.83,0.95c-4.51,1.72 -9.13,3.23 -11.95,7.64c-2.41,3.76 -3.71,7.66 -2.91,12.24c0.65,3.78 0.54,5.41 -1.38,6.1c-0.97,0.34 -2.42,0.45 -4.47,0.46c-17.07,0.09 -34.13,0.16 -51.19,-0.02c-7.61,-0.08 -15.26,0.81 -22.84,-0.43c-0.28,-0.04 -0.56,-0.09 -0.83,-0.16l-0.01,0c-0.18,-0.02 -0.35,-0.06 -0.53,-0.09c-2.48,-1.78 -2.17,-4.5 -2.21,-7.02c-0.09,-9.41 -0.18,-18.83 0.03,-28.24c0.09,-4.59 -0.84,-7.72 -6.22,-7.64c-1,0.02 -1.98,-0.54 -2.57,-1.48c0.82,-0.8 1.85,-0.77 2.9,-0.81c7.45,-0.33 7.45,-0.34 7.45,-8.02c0,-63.09 -0.02,-126.18 0.03,-189.26c0,-6.07 0.8,-11.97 5.34,-16.71c3.53,-3.68 7.54,-5.49 12.8,-5.49c81.18,0.1 162.38,0.35 243.56,-0.18c15.24,-0.1 21.83,9.48 21.81,22.37c-0.06,38.96 -0.02,77.91 -0.02,116.87c0,24.48 -0.01,48.96 0,73.43c0.01,7.51 -0.61,7.13 6.93,7c1.2,-0.05 2.45,-0.17 3.42,0.77z" class="st2"/>
   <path id="svg_5" fill="#66453A" d="m512.39,359.21c-0.03,8.56 -3.24,11.62 -11.94,11.66c-7.92,0.03 -15.84,0.1 -23.76,0.16c-1.89,-0.05 -3.78,-0.16 -5.67,-0.16c-143.35,-0.01 -286.69,-0.01 -430.04,0c-1.88,0 -3.78,0.1 -5.67,0.16c-8.44,-0.05 -16.87,-0.09 -25.31,-0.17c-6.49,-0.06 -10.2,-3.22 -10.32,-9.59c-0.22,-11.87 -0.14,-23.77 0.03,-35.64c0.04,-2.67 0.48,-5.51 2.44,-7.7c3.12,-2.06 6.65,-1.52 10.05,-1.52c76.88,-0.02 153.74,-0.01 230.62,-0.01c85.66,0 171.32,-0.01 256.98,0.01c3.41,0 6.94,-0.54 10.06,1.52c2.21,2.9 2.49,6.33 2.52,9.76c0.06,10.51 0.06,21.01 0.01,31.52z" class="st3"/>
   <path id="svg_6" fill="#8E5C4A" d="m509.86,317.93c-1.89,0.04 -3.79,0.13 -5.68,0.13c-165.45,0.01 -330.9,0.01 -496.35,0.01c-1.89,-0.01 -3.79,-0.09 -5.68,-0.14c0.63,-2.06 2.14,-3.5 3.59,-4.96c28.23,-28.53 56.48,-57.04 84.66,-85.62c3.8,-3.86 8.06,-6.36 13.49,-6.75c10.7,0.62 10.7,0.62 10.7,11.41c0,9.11 -0.03,18.22 0.02,27.33c0.01,1.67 -0.55,3.46 0.66,4.97c0.11,0.28 0.14,0.54 0.11,0.77c0,0.01 -0.01,0.02 -0.01,0.03c0,0.04 -0.01,0.08 -0.03,0.12c-0.08,0.28 -0.3,0.52 -0.62,0.72c-3.98,1.69 -8.17,0.75 -12.26,0.96c-2.24,0.12 -4.49,-0.09 -6.7,0.39c-3,0.65 -4.94,2.45 -5.3,5.56c-0.36,3.07 1.08,5.34 3.74,6.78c2.48,1.35 5.26,1.58 8.03,1.61c6.72,0.06 13.44,0.03 20.16,0.03c94.24,0 188.47,0 282.7,-0.01c3.44,0 6.91,0.23 10.28,-0.71c4.27,-1.18 6.67,-4.13 6.15,-7.7c-0.61,-4.18 -3.56,-5.51 -7.35,-5.86c-5.63,-0.52 -11.38,0.89 -16.92,-1.05c-0.33,-0.21 -0.54,-0.45 -0.63,-0.74c0,-0.01 0,-0.03 -0.01,-0.04c0,-0.03 -0.01,-0.05 -0.01,-0.08c-0.05,-0.24 -0.01,-0.51 0.1,-0.8c1.49,-6.59 0.45,-13.28 0.65,-19.93c0.19,-6.18 0.29,-12.38 -0.05,-18.55c-0.23,-4.09 1.07,-5.62 5.13,-5.09c1.85,0.24 3.77,-0.07 5.65,-0.13c5.22,0.4 9.45,2.64 13.14,6.38c28.43,28.82 56.92,57.57 85.39,86.36c1.35,1.33 2.69,2.69 3.25,4.6z" class="st1"/>
   <path id="svg_7" fill="#E4BB38" d="m343.06,118.4c-5.11,-34.73 -30.96,-62.69 -66.4,-71.88c-32.82,-8.5 -69.89,4.6 -90.67,32.02c-26.8,35.37 -24.08,82.44 7.14,115.73c11.75,12.53 18.39,26.8 18.62,44c0.01,0.01 0.01,0.01 0.02,0.02c1.86,2.04 4.39,1.75 6.74,1.76c24.98,0.05 49.97,0.05 74.95,0c2.34,-0.01 4.83,0.27 6.7,-1.71c0.02,-0.02 0.04,-0.05 0.06,-0.07c0.34,-17.17 6.91,-31.55 18.7,-44.01c20.2,-21.31 28.43,-46.66 24.14,-75.86zm-78.06,5.67c0,7.4 0.03,14.8 -0.02,22.21c-0.02,1.88 -0.14,3.8 -0.55,5.62c-0.97,4.44 -4.58,7.1 -8.97,6.85c-4.77,-0.28 -8.24,-3.7 -8.32,-9.42c-0.22,-17.21 -0.22,-34.42 0.01,-51.63c0.08,-5.92 3.84,-9.39 8.87,-9.38c5.02,0.01 8.63,3.47 8.84,9.42c0.3,8.77 0.07,17.55 0.07,26.33l0.07,0zm-0.13,60.78c-0.04,5.07 -3.65,8.99 -8.5,9.17c-5.12,0.19 -9.06,-3.61 -9.23,-8.93c-0.17,-5.05 3.88,-9.49 8.74,-9.58c4.84,-0.09 9.02,4.25 8.99,9.34z" class="st4"/>
   <path id="svg_8" fill="#9EB9CD" d="m211.77,238.28c29.49,0 58.98,0 88.47,0c13.54,1.35 18.81,9.54 16.32,26.03c26.77,0 53.46,0 80.16,0c0.02,0.32 -0.03,0.62 -0.14,0.92c-2.74,2.56 -6.18,1.74 -9.36,1.75c-59.06,0.05 -118.13,0.04 -177.19,0.04c-28.76,0 -57.52,0.02 -86.27,-0.03c-2.85,-0.01 -5.93,0.6 -8.32,-1.75c-0.11,-0.3 -0.16,-0.6 -0.14,-0.92c26.69,0 53.39,0 80.16,0c-2.51,-16.51 2.76,-24.7 16.31,-26.04z" class="st5"/>
   <path id="svg_9" fill="#66453A" d="m115.43,265.22c93.72,0 187.43,0 281.15,0c6.03,0.02 12.06,-0.01 18.09,0.08c5.24,0.08 8.5,2.84 8.96,7.38c0.46,4.56 -2.19,7.98 -6.95,9.35c-2.19,0.63 -4.36,0.86 -6.61,0.86c-102.71,-0.02 -205.42,-0.02 -308.13,0c-2.25,0 -4.42,-0.23 -6.61,-0.86c-4.76,-1.37 -7.41,-4.79 -6.95,-9.35c0.45,-4.54 3.72,-7.3 8.96,-7.38c6.02,-0.09 12.06,-0.06 18.09,-0.08z" class="st3"/>
  </g>
 </g>
</svg>