<svg width="512" height="512" xmlns="http://www.w3.org/2000/svg" xml:space="preserve" version="1.1">

 <g>
  <title>Layer 1</title>
  <g id="svg_1">
   <path id="svg_2" d="m511.9,247.99l0,44.98c-1.19,4.82 -4.45,6.73 -9.2,6.57c-1.17,-0.03 -2.34,0.02 -3.5,0.03c-9.69,0.03 -9.69,0.03 -9.69,9.96c0,61.97 0,123.94 -0.01,185.91c0,3.16 0.22,6.36 -0.63,9.45c-0.98,3.56 -2.75,6.35 -6.92,6.47c-0.06,0.01 -0.13,0.01 -0.2,0.01l-451.37,0c-0.11,0 -0.22,0 -0.33,-0.01c-3.79,-0.06 -5.66,-2.5 -6.74,-5.84c-0.68,-2.08 -0.79,-4.24 -0.79,-6.41c-0.04,-38.42 -0.03,-76.85 0,-115.27c0,-1.83 0.05,-3.67 0.5,-5.45c0.94,-3.77 2.78,-6.77 6.91,-7.69c0.29,0 0.57,0 0.85,0.01c0.22,0 0.43,0.01 0.64,0.02c6.88,0.31 9.19,3.18 9.22,11.36c0.1,29.63 0.03,59.26 0.04,88.9c0,5.82 -0.03,11.65 0.02,17.48c0.02,1.97 -0.19,4.03 1.23,5.7c1.79,1.72 4.04,1.28 6.17,1.3c8.49,0.06 16.98,0.01 25.48,-0.06c0.55,-0.01 1.1,-0.01 1.65,-0.02c3.76,-0.03 7.53,-0.06 11.3,-0.09c8.9,-0.06 8.92,-0.02 8.93,-8.77l0,-168.73c0,-4.49 0.01,-8.99 -0.04,-13.48c-0.03,-2.99 -1.19,-4.68 -4.4,-4.71c-5.17,-0.04 -10.34,-0.09 -15.51,-0.14c-0.63,0 -1.27,-0.01 -1.9,-0.02c0,-0.01 -0.01,0 -0.01,0c-9.5,-0.08 -18.99,-0.13 -28.5,-0.04c-1.22,0.01 -2.28,0.41 -3.18,1.2c-1.68,1.99 -1.25,4.4 -1.26,6.67c-0.07,13.25 0.1,26.49 -0.09,39.74c-0.11,6.96 -2.29,9.39 -8.69,10.21l-0.01,0c-0.2,0.02 -0.39,0.05 -0.59,0.07c-0.01,0 -0.02,0 -0.03,-0.01c-5.82,-1.29 -8.23,-4.18 -8.56,-10.89c-0.35,-7.12 -0.09,-14.25 -0.12,-21.37c-0.03,-6.46 0.04,-12.92 -0.02,-19.38c-0.06,-5.71 -0.48,-6.07 -6.34,-6.15c-2.31,-0.03 -4.64,-0.07 -6.95,-0.02c-4.71,0.12 -8.03,-1.63 -9.16,-6.51l0,-44.98c1.46,-5.76 5.91,-6.52 10.85,-6.53c19.64,-0.02 39.28,0 58.91,-0.01c6.66,0 13.32,-0.1 19.97,0.03c3.93,0.09 5.74,-1.23 5.73,-5.44c-0.09,-26.95 -0.08,-53.91 -0.01,-80.87c0.01,-4.06 -1.57,-5.74 -5.61,-5.62c-3.65,0.11 -7.33,0.26 -10.97,-0.24c-7.3,-0.98 -10.28,-4.18 -10.39,-11.53c-0.17,-11.48 -0.11,-22.96 -0.02,-34.44c0.07,-9.31 3.32,-12.7 12.65,-12.77c24.13,-0.16 48.26,-0.04 72.39,-0.06c1.33,0 2.66,0.01 3.99,0c6.51,-0.07 6.56,-0.25 6.94,-6.69c0.94,-16.34 6.16,-31.27 15.44,-44.72c4.41,-6.41 7.67,-7.42 14.37,-5.29c0.29,0.27 0.57,0.54 0.83,0.81c0,0 0,0 0,0.01c0.08,0.08 0.15,0.15 0.22,0.22c3.66,3.91 3.92,7.51 0.56,12.57c-4.16,6.28 -7.74,12.77 -10.06,19.96c-10.97,33.96 3.08,67.71 30.64,85.36c14.09,9.03 29.63,12.26 46.21,10.92c1.07,-0.11 2.12,-0.24 3.16,-0.39c0.69,-0.09 1.36,-0.19 2.03,-0.31c0.01,0.01 0.02,0 0.02,0c22.17,-3.63 39.15,-15.54 51.1,-35.09c22.43,-36.69 7.56,-84.51 -30.56,-103.5c-6.7,-3.33 -13.78,-5.74 -21.24,-6.63c0,0 0,0 -0.01,0c-0.85,-0.11 -1.71,-0.19 -2.57,-0.26l-0.01,0c-0.67,-0.05 -1.33,-0.08 -2,-0.11c-15.09,-1.57 -29.23,1.46 -42.49,8.74c-1.45,0.79 -2.83,1.73 -4.3,2.47c-5.29,2.68 -7.95,2.3 -12.38,-1.74c-0.03,-0.03 -0.05,-0.06 -0.08,-0.08c-0.02,-0.04 -0.04,-0.08 -0.06,-0.12c-2.74,-5.77 -1.92,-9.67 3.34,-13.06c11.27,-7.24 23.41,-12.18 36.98,-12.97c0.55,-0.03 1.13,0.04 1.65,-0.12c0.24,-0.07 0.47,-0.19 0.68,-0.39l5,0c0.79,0.75 1.74,0.5 2.66,0.48c0.1,0 0.2,0 0.3,0.01c0.07,0 0.15,0.01 0.22,0.02l3.33,0c0.17,-0.01 0.33,-0.01 0.51,0l0.32,0c0.59,0.02 1.18,0 1.66,-0.51l4,0c5.18,1.08 10.56,0.7 15.7,2.15c24.21,6.85 42.74,21.04 55.36,42.86c7.13,12.32 10.93,25.67 12.26,39.78c0.53,5.55 0.67,5.69 6.41,5.7c24.31,0.03 48.62,0.01 72.93,0.01c1.99,0 3.99,-0.06 5.99,0.1c7.32,0.56 10.58,3.79 10.68,11.09c0.16,12.15 0.15,24.31 0,36.46c-0.08,6.7 -2.75,9.64 -9.33,10.87c-2.3,0.43 -4.64,0.35 -6.97,0.37c-11.66,0.07 -10.55,-1.02 -10.64,10.89c-0.04,6.66 0.32,13.33 -0.18,19.97c-0.38,4.97 -1.53,9.71 -7.54,10.95c-0.15,0 -0.29,-0.01 -0.43,-0.02c-0.54,-0.02 -1.06,-0.06 -1.54,-0.1c-5.82,-0.61 -8.03,-3.25 -8.21,-9.73c-0.25,-8.63 -0.01,-17.27 -0.1,-25.91c-0.07,-5.5 -0.49,-5.87 -6.05,-5.96c-4.47,-0.07 -8.95,0.08 -13.43,-0.05c-0.32,0 -0.63,-0.01 -0.95,-0.03l-0.07,0c-15.16,0.22 -30.32,0.12 -45.47,0.04c-4.3,-0.02 -7.66,1.26 -10.66,4.37c-17.79,18.43 -39.82,28 -65.18,28.24c-21.51,0.2 -41.39,-6.32 -58.25,-20.37c-3.45,-2.87 -7.04,-5.62 -9.9,-9.14c-1.84,-2.26 -4.27,-3.01 -7.08,-3.02c-20.82,-0.05 -41.64,0.01 -62.47,-0.04c-3.85,-0.01 -5.52,1.57 -5.27,5.37c0.09,1.32 0,2.66 0,3.99l0,326.34c0.01,10.05 0.01,10.05 10.22,10.05c9.99,0 19.99,-0.09 29.98,0.04c4.01,0.05 5.71,-1.42 5.69,-5.53c-0.07,-21.32 -0.05,-42.64 -0.01,-63.97c0.01,-3.74 -1.41,-5.27 -5.27,-5.46c-9.41,-0.45 -11.65,-2.93 -11.72,-12.28c-0.06,-8.99 -0.14,-17.99 0.04,-26.98c0.14,-7.31 3.15,-10.5 10.46,-11.51c2.32,-0.32 4.65,-0.25 6.98,-0.25c64.14,-0.01 128.28,-0.01 192.42,-0.01c0.83,0 1.66,0 2.5,0.01c11.38,0.2 14.57,3.38 14.61,14.63c0.03,7.99 0.06,15.99 -0.01,23.99c-0.08,9.12 -2.59,11.92 -11.75,12.4c-3.85,0.21 -5.26,1.75 -5.25,5.49c0.05,21.32 0.01,42.64 0.05,63.97c0,1.49 0.03,3.01 1,4.27c1.29,1.38 2.98,1.32 4.65,1.34c6.03,0.07 12.07,0.02 18.1,-0.06c0.53,0 1.05,0 1.58,-0.01l0.01,0c4.75,-0.06 9.5,-0.14 14.25,-0.19c5.34,-0.05 5.96,-0.81 6.17,-6.12c0.07,-1.83 0.02,-3.66 0.02,-5.49c0,-87.37 0,-174.73 0.01,-262.1c0,-2.33 -0.07,-4.66 0.06,-6.99c0.36,-6.4 2.55,-9.07 8.3,-9.68c0.48,-0.05 0.99,-0.09 1.52,-0.11c0.17,-0.01 0.34,-0.02 0.52,-0.02c5.71,1.16 7.03,5.63 7.5,10.44c0.62,6.29 0.19,12.63 0.26,18.95c0.07,7.13 0.2,7.32 7.22,7.32c25.62,0.03 51.23,0 76.84,0.02c5.05,0 9.8,0.49 11.34,6.55z"/>
   <path id="svg_3" fill="#FEFEFE" d="m511.9,247.99c-2.28,-4.1 -5.84,-5.2 -10.39,-5.18c-27.46,0.14 -54.92,-0.02 -82.37,0.17c-3.83,0.02 -4.77,-1.02 -4.63,-4.72c0.3,-7.64 0.09,-15.3 0.09,-22.95c0,-4.29 -1.08,-7.93 -5.65,-9.48c-0.8,-0.26 -1.66,-0.46 -2.25,-0.99c-0.33,-0.29 -0.59,-0.67 -0.7,-1.23c-0.79,-3.73 -0.79,-7.47 0,-11.2c0.11,-0.56 0.37,-0.94 0.7,-1.23c0.59,-0.53 1.45,-0.72 2.26,-0.96c4.6,-1.54 5.64,-5.2 5.64,-9.48c0,-9.65 0.14,-19.31 -0.08,-28.95c-0.07,-3.28 0.87,-4.32 4.14,-4.12c4.48,0.28 8.98,0.12 13.48,0.06c7.37,-0.11 9.92,-2.62 9.94,-9.89c0.05,-11.65 0.03,-23.3 0.01,-34.95c-0.01,-8.35 -2.35,-10.71 -10.64,-10.71c-26.8,-0.02 -53.59,-0.1 -80.39,0.09c-3.93,0.03 -5.2,-0.68 -5.39,-4.96c-2.05,-45.49 -34.86,-80.63 -80.22,-86.24c-0.69,-0.08 -1.29,-0.17 -1.45,-0.97c5.18,1.08 10.56,0.7 15.7,2.15c24.21,6.85 42.74,21.04 55.36,42.86c7.13,12.32 10.93,25.67 12.26,39.78c0.53,5.55 0.67,5.69 6.41,5.7c24.31,0.03 48.62,0.01 72.93,0.01c1.99,0 3.99,-0.06 5.99,0.1c7.32,0.56 10.58,3.79 10.68,11.09c0.16,12.15 0.15,24.31 0,36.46c-0.08,6.7 -2.75,9.64 -9.33,10.87c-2.3,0.43 -4.64,0.35 -6.97,0.37c-11.66,0.07 -10.55,-1.02 -10.64,10.89c-0.04,6.66 0.32,13.33 -0.18,19.97c-0.38,4.97 -1.53,9.71 -7.54,10.95c-0.15,0 -0.29,-0.01 -0.43,-0.02c-1.93,3.5 -1.94,9.91 -0.02,13.45c0.17,-0.01 0.34,-0.02 0.52,-0.02c5.71,1.16 7.03,5.63 7.5,10.44c0.62,6.29 0.19,12.63 0.26,18.95c0.07,7.13 0.2,7.32 7.22,7.32c25.62,0.03 51.23,0 76.84,0.02c5.05,0 9.8,0.49 11.34,6.55z" class="st0"/>
   <path id="svg_4" fill="#FEFEFE" d="m245.32,0.49c-3.26,1.71 -6.98,1.68 -10.46,2.48c-10.12,2.33 -19.36,6.59 -28.12,11.99c-4.49,2.76 -4.9,6.71 -2.87,11.21c-0.12,0.23 -0.25,0.45 -0.38,0.67c-1.97,3.42 -4.58,6.18 -8.1,8.01c-0.22,0.12 -0.44,0.23 -0.66,0.34c-6.33,-2.68 -8.84,-2.03 -12.68,3.51c-10.1,14.57 -15.88,30.64 -16.11,48.44c-0.05,4.16 -1.27,5.16 -5.35,5.13c-26.48,-0.19 -52.96,-0.1 -79.44,-0.1c-9.03,0.01 -11.23,2.19 -11.24,11.13c-0.02,11.66 -0.05,23.32 0.01,34.98c0.04,6.68 2.63,9.28 9.39,9.43c4.99,0.12 9.99,0.13 14.99,-0.02c2.33,-0.06 3.15,0.6 3.15,3.05c-0.08,29.65 -0.12,59.29 0.02,88.93c0.02,3.92 -2.28,3.21 -4.52,3.21c-27.48,0 -54.96,0.07 -82.44,-0.07c-4.57,-0.02 -8.11,1.11 -10.41,5.18c1.46,-5.76 5.91,-6.52 10.85,-6.53c19.64,-0.02 39.28,0 58.91,-0.01c6.66,0 13.32,-0.1 19.97,0.03c3.93,0.09 5.74,-1.23 5.73,-5.44c-0.09,-26.95 -0.08,-53.91 -0.01,-80.87c0.01,-4.06 -1.57,-5.74 -5.61,-5.62c-3.65,0.11 -7.33,0.26 -10.97,-0.24c-7.3,-0.98 -10.28,-4.18 -10.39,-11.53c-0.17,-11.48 -0.11,-22.96 -0.02,-34.44c0.07,-9.31 3.32,-12.7 12.65,-12.77c24.13,-0.16 48.26,-0.04 72.39,-0.06c1.33,0 2.66,0.01 3.99,0c6.51,-0.07 6.56,-0.25 6.94,-6.69c0.94,-16.34 6.16,-31.27 15.44,-44.72c4.41,-6.41 7.67,-7.42 14.37,-5.29c0.29,0.27 0.57,0.54 0.83,0.81c2.36,-3.03 5.35,-5.43 8.18,-7.98c-2.74,-5.77 -1.92,-9.67 3.34,-13.06c11.27,-7.24 23.41,-12.18 36.98,-12.97c0.55,-0.03 1.13,0.04 1.65,-0.12z" class="st0"/>
   <path id="svg_5" fill="#FEFEFE" d="m24.38,382.24c0.01,23.31 0,46.62 0,69.94c0,16.31 -0.01,32.63 0.01,48.95c0.01,4.28 0.34,8.45 5.52,9.87c0.32,0.09 0.49,0.21 0.5,0.37c0.02,0.05 0.01,0.1 -0.01,0.15c-0.09,0.24 -0.2,0.36 -0.31,0.36c0.02,-0.18 0.01,-0.35 -0.04,-0.52c-3.79,-0.06 -5.66,-2.5 -6.74,-5.84c-0.68,-2.08 -0.79,-4.24 -0.79,-6.41c-0.04,-38.42 -0.03,-76.85 0,-115.27c0,-1.83 0.05,-3.67 0.5,-5.45c0.94,-3.77 2.78,-6.77 6.91,-7.69c0.29,0 0.57,0 0.85,0.01c2.62,-4.32 1.5,-8.88 0.47,-13.42c-5.82,-1.29 -8.23,-4.18 -8.56,-10.89c-0.35,-7.12 -0.09,-14.25 -0.12,-21.37c-0.03,-6.46 0.04,-12.92 -0.02,-19.38c-0.06,-5.71 -0.48,-6.07 -6.34,-6.15c-2.31,-0.03 -4.64,-0.07 -6.95,-0.02c-4.71,0.12 -8.03,-1.63 -9.16,-6.51c2.47,4.58 6.52,5.47 11.32,5.24c4.1,-0.2 9.59,-1.38 11.99,0.71c2.84,2.46 0.88,8.09 0.93,12.33c0.13,11.78 0.02,23.56 0.05,35.34c0.02,4.67 1.2,8.6 6.61,9.58c0.32,0.33 0.61,0.68 0.87,1.06l0.01,0c2.77,3.94 2.49,10.42 -0.46,13.5c-0.41,0.43 -0.87,0.8 -1.39,1.08c-5.22,1.68 -5.65,5.92 -5.65,10.43z" class="st0"/>
   <path id="svg_6" fill="#FEFEFE" d="m511.9,292.97c-1.19,4.82 -4.45,6.73 -9.2,6.57c-1.17,-0.03 -2.34,0.02 -3.5,0.03c-9.69,0.03 -9.69,0.03 -9.69,9.96c0,61.97 0,123.94 -0.01,185.91c0,3.16 0.22,6.36 -0.63,9.45c-0.98,3.56 -2.75,6.35 -6.92,6.47c-0.04,0.17 -0.06,0.34 -0.04,0.52c-0.24,-0.2 -0.36,-0.37 -0.32,-0.51c0,-0.05 0.02,-0.1 0.07,-0.15c0.13,-0.14 0.28,-0.22 0.43,-0.22c4.63,-1.22 5.46,-4.87 5.5,-8.87c0.08,-6.49 0.03,-12.98 0.03,-19.48c0,-59.59 0.07,-119.17 -0.13,-178.76c-0.02,-4.97 1.36,-6.45 6.06,-5.81c2.61,0.35 5.33,-0.12 7.98,0.1c4.59,0.38 8.09,-1.13 10.37,-5.21z" class="st0"/>
   <path id="svg_7" fill="#3F3F3F" d="m481.95,511.36c-0.04,0.17 -0.06,0.34 -0.04,0.52l-451.82,0c0.02,-0.18 0.01,-0.35 -0.04,-0.52c-0.02,-0.12 -0.07,-0.24 -0.14,-0.36c1.82,-0.04 3.65,-0.11 5.48,-0.11c148.4,-0.02 296.81,-0.04 445.22,-0.05c0.49,0 0.99,0.11 1.48,0.16c-0.07,0.12 -0.11,0.24 -0.14,0.36z" class="st1"/>
   <path id="svg_8" fill="#4E4E4E" d="m258.05,0.95c-1.38,-0.01 -2.75,-0.02 -4.13,-0.03c-0.26,-0.21 -0.33,-0.4 -0.22,-0.58c0.1,-0.16 0.21,-0.25 0.3,-0.25c1.33,0 2.67,0 4,0c0.31,0.17 0.42,0.36 0.33,0.55c-0.09,0.21 -0.18,0.31 -0.28,0.31z" class="st2"/>
   <path id="svg_9" fill="#7C7C7C" d="m254,0.1c-0.01,0.28 -0.04,0.55 -0.08,0.83c-1.03,-0.05 -2.35,0.88 -2.91,-0.83c0.99,0 1.99,0 2.99,0z" class="st3"/>
   <path id="svg_10" fill="#696969" d="m258.05,0.95c-0.03,-0.28 -0.05,-0.57 -0.05,-0.85c0.67,0 1.33,0 2,0c-0.29,1.11 -1.13,0.96 -1.95,0.85z" class="st4"/>
   <path id="svg_11" fill="#F8F0EE" d="m351.14,495.87c-0.1,-11.81 -0.25,-23.62 -0.3,-35.43c-0.05,-11.82 0.21,-23.65 -0.12,-35.47c-0.13,-4.6 0.75,-6.92 5.81,-5.97c1.29,0.24 2.66,0.08 3.99,0c4.69,-0.3 7.53,-2.78 7.62,-7.46c0.2,-10.82 0.14,-21.65 0.04,-32.47c-0.04,-4.51 -2.64,-7.01 -7.08,-7.52c-1.65,-0.19 -3.32,-0.17 -4.98,-0.17c-66.78,-0.01 -133.57,-0.01 -200.35,-0.01c-10.2,0 -12.01,1.78 -12.01,11.83c-0.01,8.66 -0.05,17.32 0.01,25.98c0.05,7.43 2.46,9.78 9.87,9.85c7.55,0.07 7.55,0.07 7.55,7.56c0,21.82 -0.09,43.63 0.09,65.45c0.03,3.69 -0.81,4.8 -4.64,4.72c-12.65,-0.27 -25.32,-0.33 -37.97,0.02c-4.88,0.14 -6.38,-0.9 -6.36,-6.15c0.22,-60.12 0.14,-120.24 0.14,-180.36c0,-52.46 0.05,-104.92 -0.1,-157.37c-0.01,-4.1 0.97,-5.3 5.16,-5.26c21.48,0.21 42.97,0.17 64.45,0.02c3.16,-0.02 5.17,1.03 7.22,3.31c35.1,39.12 96.89,39.49 132.45,0.76c2.7,-2.94 5.34,-4.19 9.4,-4.1c15.64,0.35 31.29,0.28 46.93,0.37c2.13,2.58 1.61,5.68 1.61,8.63c0.04,36.8 0.02,73.6 0.02,110.4c0,72.93 0,145.86 0,218.8c0,10.55 -0.01,10.65 -10.58,10.51c-5.95,-0.08 -11.94,0.64 -17.87,-0.47z" class="st5"/>
   <path id="svg_12" fill="#EE3A47" d="m295.79,137.63c-6.97,10.79 -15.96,19.92 -27.84,25.33c0,0 -0.01,0.01 -0.02,0c-1.59,0.73 -3.23,1.39 -4.93,1.97c-43.53,5.41 -83.64,-31.75 -82.17,-75.96c0.51,-15.22 4.87,-29.06 13.59,-41.49c2.91,-4.15 3.63,-8.11 0.31,-12.29c0.14,-0.19 0.28,-0.38 0.44,-0.56c-0.01,0 0,-0.01 0,-0.01c2.36,-3.03 5.35,-5.43 8.18,-7.98c0.17,-0.16 0.35,-0.31 0.52,-0.47c4.03,4.1 8.22,3.3 12.57,0.53c11.78,-7.51 24.85,-10.73 38.65,-11.29c2.62,-0.1 5.27,0.44 7.91,0.68c1.46,0.5 2.87,1.05 4.24,1.65c0.01,0 0.01,0 0.01,0c13.89,6.02 23.72,16.86 31.18,29.74c17.6,30.39 16.28,60.87 -2.64,90.15z" class="st6"/>
   <path id="svg_13" fill="#DCDADA" d="m408.22,204.73c0.22,0.41 0.46,0.78 0.73,1.1c-7.25,0.05 -9.37,2.27 -9.38,10.18c-0.02,45.47 -0.01,90.94 -0.01,136.41c0,46.3 -0.07,92.6 0.11,138.9c0.02,4.49 -1.18,5.55 -5.54,5.45c-12.82,-0.28 -25.65,-0.02 -38.47,-0.09c-1.49,-0.01 -3.3,0.96 -4.52,-0.81c6.66,-0.02 13.32,-0.05 19.98,-0.06c2.58,-0.01 4.18,-0.01 5.18,-0.39c1.65,-0.62 1.65,-2.28 1.65,-6.69l0,-17.99c0.01,-107.08 0.01,-214.16 0.01,-321.24l0,-1.5c6.13,-0.08 12.26,-0.07 18.39,-0.31c2.79,-0.11 3.27,1.15 3.25,3.57c-0.09,9.95 -0.11,19.91 -0.01,29.87c0.07,6.92 2.4,9.07 9.37,9.09c-0.26,0.31 -0.51,0.67 -0.72,1.06c-1.93,3.5 -1.94,9.91 -0.02,13.45z" class="st7"/>
   <path id="svg_14" fill="#9F9F9F" d="m76.7,308.24c0.01,59.44 0.01,118.89 0,178.34c0,5.19 -0.01,7.66 -1.47,8.81c-1.29,1.03 -3.74,1.02 -8.34,0.96c-8.96,-0.13 -17.94,0.57 -26.89,-0.41c-1.07,-1.7 -0.54,-3.57 -0.54,-5.35c-0.04,-36.25 -0.02,-72.5 -0.04,-108.76c-0.01,-7.95 -2.1,-10.12 -9.39,-10.02c0.28,-0.37 0.53,-0.73 0.75,-1.1c2.62,-4.32 1.5,-8.88 0.47,-13.42c-0.08,-0.38 -0.17,-0.75 -0.25,-1.12c6.34,-0.52 8.37,-2.58 8.4,-9.13c0.09,-14.26 0.01,-28.52 0.05,-42.78c0.01,-1.79 -0.46,-3.65 0.49,-5.36c10.96,-0.92 21.94,-0.14 32.9,-0.43c1.28,-0.03 2.12,0.34 2.67,1c0.49,0.57 0.75,1.35 0.91,2.29c0.37,2.15 0.28,4.31 0.28,6.48z" class="st8"/>
   <path id="svg_15" fill="#9F9F9F" d="m472.06,298.9c0.92,1.55 0.49,3.25 0.49,4.88c0.02,62.43 0.02,124.86 0,187.3c0,1.62 0.48,3.33 -0.54,4.86c-10.95,0.98 -21.93,0.16 -32.89,0.45c-2.39,0.06 -3.2,-1.34 -3.54,-3.33c-0.37,-2.15 -0.28,-4.32 -0.28,-6.48c-0.01,-59.45 -0.01,-118.89 0,-178.34c0,-9.75 0.02,-9.85 9.85,-9.72c8.97,0.11 17.95,-0.54 26.91,0.38z" class="st8"/>
   <path id="svg_16" fill="#868686" d="m472.06,298.9c-10.15,0.03 -20.31,0.16 -30.46,0.04c-3.23,-0.04 -4.74,0.59 -4.73,4.33c0.1,62.75 0.1,125.5 0,188.25c-0.01,3.69 1.38,4.43 4.68,4.38c10.15,-0.14 20.3,0 30.46,0.03c-1.15,1.47 -2.78,0.82 -4.18,0.82c-16.15,0.02 -32.31,-0.14 -48.46,0.02c-3.71,0.04 -4.8,-0.95 -4.79,-4.74c0.12,-63.11 0.08,-126.23 0.08,-189.35c0,-2.29 -0.55,-4.66 3.27,-4.63c17.32,0.11 34.64,0 51.96,-0.03c0.83,0.02 1.67,0.02 2.17,0.88z" class="st9"/>
   <path id="svg_17" fill="#868686" d="m40,495.94c10.15,-0.03 20.31,-0.16 30.46,-0.03c3.3,0.04 4.69,-0.7 4.68,-4.38c-0.1,-62.75 -0.1,-125.5 0,-188.25c0.01,-3.74 -1.5,-4.37 -4.73,-4.33c-10.15,0.12 -20.3,-0.01 -30.46,-0.04c0.96,-1.38 2.42,-0.84 3.67,-0.84c16.49,-0.01 32.97,0.1 49.46,0.01c3.12,-0.02 4.35,0.69 4.34,4.13c-0.1,63.45 -0.08,126.9 -0.06,190.34c0,2.29 0.15,4.22 -3.22,4.2c-17.49,-0.09 -34.97,0 -52.46,-0.02c-0.57,0 -1.12,-0.52 -1.68,-0.79z" class="st9"/>
   <path id="svg_18" fill="#00C0EB" d="m264.06,495.89c-0.16,-1.63 -0.45,-3.26 -0.45,-4.89c-0.03,-22.05 -0.03,-44.11 -0.01,-66.16c0,-1.64 0.22,-3.28 0.34,-4.93c4.76,-1.07 9.59,-0.38 14.37,-0.43c11.31,-0.12 22.62,0.1 33.92,-0.12c3.7,-0.07 5.18,1.36 5.29,4.82c0.06,1.83 0.08,3.66 0.08,5.49c0,19.29 0.01,38.58 0,57.87c0,1.99 0.09,4 -0.36,5.96c-0.35,1.55 -1.02,2.88 -2.9,2.85c-16.75,-0.24 -33.52,0.64 -50.28,-0.46z" class="st10"/>
   <path id="svg_19" fill="#565656" d="m255.76,403.97c-30.48,0 -60.96,-0.1 -91.44,0.11c-4.45,0.03 -5.62,-1.18 -5.53,-5.57c0.26,-11.77 0.06,-11.77 11.75,-11.77c58.8,0 117.59,0.07 176.39,-0.13c5.16,-0.02 6.46,1.4 6.29,6.39c-0.37,10.96 -0.1,10.97 -11.01,10.97c-28.82,0 -57.64,0 -86.45,0z" class="st11"/>
   <path id="svg_20" fill="#CD3043" d="m263,164.93c11.89,-6.59 22.49,-14.8 30.41,-25.92c9.52,-13.37 14.92,-28.24 15.65,-44.86c1.05,-23.74 -7.18,-43.94 -22.97,-61.09c-5.09,-5.52 -11.07,-10.49 -18,-13.95c-1.76,-0.88 -3.76,-1.4 -5.1,-3.01c24.18,2.23 43.06,13.71 55.85,34.05c27.69,44.03 5.28,99.78 -45.05,113.07c-3.5,0.91 -7.19,1.15 -10.79,1.71z" class="st12"/>
   <path id="svg_21" fill="#565656" d="m381.5,132.87c-13.8,0 -27.61,-0.1 -41.41,0.06c-4.02,0.05 -4.62,-1.07 -2.77,-4.5c3.02,-5.58 4.82,-11.66 6.18,-17.82c0.56,-2.54 1.55,-3.53 4.27,-3.52c25.11,0.1 50.22,0.1 75.33,0c3.1,-0.01 4.05,1.04 3.95,4.04c-0.18,5.65 -0.34,11.33 0.04,16.95c0.29,4.27 -1.53,4.9 -5.2,4.86c-13.44,-0.17 -26.92,-0.07 -40.39,-0.07z" class="st11"/>
   <path id="svg_22" fill="#565656" d="m176.11,132.87c-12.01,0 -23.14,0 -34.28,0c-17.48,0 -34.96,-0.09 -52.43,0.07c-3.52,0.03 -4.64,-1.08 -4.49,-4.55c0.24,-5.82 0.17,-11.65 0.02,-17.47c-0.07,-2.74 0.75,-3.83 3.66,-3.82c24.97,0.09 49.94,0.06 74.9,0.03c1.96,0 3.79,0.09 4.23,2.44c1.48,7.89 4.63,15.19 8.39,23.3z" class="st11"/>
   <path id="svg_23" fill="#00A9DD" d="m176.16,457.92c0,-11.48 0.11,-22.96 -0.07,-34.44c-0.05,-3.34 0.67,-4.61 4.34,-4.58c21.3,0.19 42.6,0.19 63.9,0.06c3.43,-0.02 4.14,1.18 4.12,4.31c-0.11,23.13 -0.1,46.26 -0.01,69.39c0.01,2.97 -0.78,4.06 -3.92,4.05c-21.47,-0.1 -42.93,-0.1 -64.4,0.07c-3.53,0.03 -4.06,-1.37 -4.02,-4.41c0.15,-11.48 0.06,-22.96 0.06,-34.45z" class="st13"/>
   <path id="svg_24" fill="#00A9DD" d="m264.06,495.89c15.62,-0.01 31.24,-0.13 46.85,0.03c3.77,0.04 5.2,-0.8 5.16,-4.93c-0.21,-22.1 -0.17,-44.2 -0.02,-66.29c0.03,-3.68 -0.98,-4.88 -4.76,-4.83c-15.78,0.18 -31.57,0.06 -47.35,0.05c1.04,-1.69 2.72,-0.88 4.07,-0.89c21.15,-0.04 42.3,0.08 63.45,-0.07c3.6,-0.03 4.41,1.12 4.39,4.53c-0.14,22.98 -0.1,45.96 -0.04,68.94c0.01,2.68 -0.22,4.31 -3.65,4.29c-21.98,-0.11 -43.96,-0.03 -65.94,-0.01c-0.81,-0.02 -1.68,0.09 -2.16,-0.82z" class="st13"/>
   <path id="svg_25" fill="#565656" d="m436.95,258.09c18.81,-0.05 37.62,-0.07 56.42,-0.18c2.47,-0.01 3.63,0.63 3.56,3.35c-0.15,6.16 -0.15,12.32 0,18.47c0.06,2.72 -1.1,3.37 -3.57,3.35c-18.81,-0.11 -37.62,-0.13 -56.42,-0.18c-1.11,-1.12 -1.58,-2.57 -1.48,-4.05c0.49,-6.92 -1.76,-14.04 1.49,-20.76z" class="st11"/>
   <path id="svg_26" fill="#565656" d="m75.05,282.9c-18.81,0.05 -37.62,0.07 -56.42,0.18c-2.47,0.01 -3.63,-0.64 -3.57,-3.35c0.15,-6.16 0.15,-12.32 0,-18.47c-0.07,-2.72 1.09,-3.37 3.56,-3.35c18.81,0.11 37.62,0.13 56.42,0.18c1.12,1.12 1.58,2.56 1.48,4.05c-0.47,6.91 1.77,14.03 -1.47,20.76z" class="st11"/>
   <path id="svg_27" fill="#494949" d="m75.05,282.9c0,-8.27 0,-16.54 0,-24.81c5.96,-0.05 11.92,0.04 17.87,-0.19c3.15,-0.12 4.47,0.79 4.33,4.15c-0.23,5.62 -0.23,11.26 0,16.88c0.14,3.36 -1.17,4.28 -4.33,4.16c-5.95,-0.23 -11.91,-0.15 -17.87,-0.19z" class="st14"/>
   <path id="svg_28" fill="#494949" d="m436.95,258.09c0,8.27 0,16.54 0,24.81c-6.12,0.04 -12.25,0 -18.37,0.17c-2.71,0.08 -3.89,-0.76 -3.81,-3.65c0.16,-5.96 0.16,-11.92 0,-17.88c-0.08,-2.89 1.11,-3.72 3.82,-3.64c6.11,0.18 12.24,0.14 18.36,0.19z" class="st14"/>
   <path id="svg_29" d="m255.92,266.15c-6.49,0 -12.98,0.07 -19.47,-0.02c-5.99,-0.08 -8.84,-2.48 -8.93,-8.28c-0.2,-13.48 -0.19,-26.96 0.02,-40.43c0.09,-5.48 3.02,-8.2 8.56,-8.25c13.31,-0.14 26.63,-0.15 39.94,0.01c5.5,0.07 8.34,2.84 8.42,8.4c0.19,13.48 0.2,26.96 -0.01,40.43c-0.09,5.58 -2.93,8.03 -8.56,8.12c-6.65,0.1 -13.31,0.02 -19.97,0.02z"/>
   <path id="svg_30" d="m333.43,281.95c6.49,0 12.99,-0.08 19.48,0.03c5.52,0.09 8.49,2.67 8.58,8.18c0.21,13.48 0.21,26.97 0.01,40.45c-0.09,5.77 -3.03,8.32 -8.92,8.35c-13.15,0.08 -26.3,0.09 -39.45,-0.01c-5.57,-0.04 -8.46,-2.63 -8.54,-8.18c-0.2,-13.48 -0.2,-26.97 -0.02,-40.45c0.08,-5.77 2.99,-8.28 8.9,-8.35c6.64,-0.09 13.3,-0.02 19.96,-0.02z"/>
   <path id="svg_31" d="m178.77,338.97c-6.49,0 -12.98,0.08 -19.47,-0.02c-5.82,-0.09 -8.7,-2.65 -8.79,-8.5c-0.2,-13.31 -0.2,-26.63 0,-39.94c0.09,-6 3.04,-8.52 9.25,-8.54c12.82,-0.06 25.63,-0.06 38.45,0c6.45,0.03 9.21,2.57 9.28,9c0.14,12.98 0.14,25.97 0,38.95c-0.07,6.46 -2.8,8.98 -9.24,9.05c-6.5,0.05 -12.99,0 -19.48,0z"/>
   <path id="svg_32" d="m179.31,266.15c-6.82,0 -13.65,0.09 -20.47,-0.03c-5.33,-0.1 -8.2,-2.55 -8.29,-7.87c-0.24,-13.64 -0.24,-27.29 -0.02,-40.93c0.09,-5.43 3.1,-8.09 8.68,-8.15c13.14,-0.13 26.29,-0.13 39.44,0c5.88,0.06 8.72,2.72 8.8,8.52c0.18,13.31 0.18,26.62 0.01,39.93c-0.07,5.9 -2.82,8.42 -8.68,8.51c-6.49,0.1 -12.98,0.02 -19.47,0.02z"/>
   <path id="svg_33" d="m332.85,266.15c-6.66,0 -13.31,0.09 -19.97,-0.03c-5.34,-0.1 -8.2,-2.56 -8.29,-7.84c-0.22,-13.64 -0.22,-27.29 -0.02,-40.93c0.08,-5.46 3.01,-8.12 8.62,-8.17c13.15,-0.13 26.29,-0.13 39.44,0c6.02,0.06 8.82,2.86 8.89,8.99c0.15,12.98 0.14,25.96 0,38.94c-0.07,6.47 -2.76,8.97 -9.21,9.05c-6.48,0.05 -12.97,-0.01 -19.46,-0.01z"/>
   <path id="svg_34" d="m256.07,338.97c-6.66,0 -13.32,0.09 -19.97,-0.03c-5.54,-0.09 -8.47,-2.66 -8.56,-8.19c-0.21,-13.48 -0.21,-26.96 -0.01,-40.44c0.09,-5.77 3.03,-8.31 8.92,-8.34c12.98,-0.07 25.97,-0.07 38.95,0c6.14,0.03 9.01,2.61 9.09,8.69c0.18,13.15 0.17,26.3 0.01,39.45c-0.08,6.35 -2.9,8.8 -9.45,8.85c-6.33,0.06 -12.65,0.01 -18.98,0.01z"/>
   <path id="svg_35" d="m210.72,90.47c0,-3 -0.12,-6 0.02,-8.99c0.35,-7.49 5.25,-12.22 12.7,-12.63c3.43,-0.19 7.96,1.6 9.96,-0.94c1.65,-2.09 0.49,-6.38 0.62,-9.7c0.3,-7.21 5.36,-12.56 12.63,-12.89c5.98,-0.27 11.99,-0.27 17.98,-0.01c7.89,0.34 12.48,5.57 12.93,14.22c0.48,9.15 0.48,9.15 9.55,9.33c8.5,0.17 13.68,5.23 13.82,13.64c0.09,5.49 0.12,10.99 -0.01,16.48c-0.2,7.81 -5.49,12.95 -13.32,13.15c-9.4,0.24 -9.4,0.24 -10.05,9.8c-0.6,8.86 -5.47,13.58 -14.41,13.79c-4.99,0.12 -9.99,0.15 -14.98,-0.01c-9.11,-0.28 -14.05,-5.43 -14.15,-14.48c-0.09,-9 -0.09,-9 -9.1,-9.09c-9.19,-0.09 -14.05,-4.93 -14.22,-14.17c-0.05,-2.5 -0.01,-4.99 -0.01,-7.49c0.02,-0.01 0.03,-0.01 0.04,-0.01z"/>
   <path id="svg_36" fill="#00C0EB" d="m177.07,458.02c0,-11.14 0.09,-22.28 -0.06,-33.42c-0.04,-3.23 0.58,-4.78 4.33,-4.73c14.46,0.19 28.93,0.15 43.4,0.02c3.2,-0.03 4.35,0.89 4.34,4.22c-0.12,22.61 -0.11,45.23 -0.01,67.84c0.01,3.13 -1.13,3.97 -4.09,3.95c-14.63,-0.11 -29.27,-0.15 -43.9,0.02c-3.52,0.04 -4.1,-1.45 -4.06,-4.47c0.12,-11.15 0.05,-22.29 0.05,-33.43z" class="st10"/>
   <path id="svg_37" fill="#00C0EB" d="m269.58,237.33c-0.63,4.59 1.86,10.45 -1.16,12.99c-2.58,2.17 -8.23,0.83 -12.52,0.76c-4.28,-0.07 -9.81,1.85 -12.49,-0.8c-2.67,-2.65 -0.85,-8.19 -0.79,-12.45c0.06,-4.41 -2,-10.07 0.95,-12.9c2.7,-2.59 8.24,-0.75 12.52,-0.73c4.27,0.02 9.77,-1.87 12.5,0.82c2.76,2.73 0.35,8.24 0.99,12.31z" class="st10"/>
   <path id="svg_38" fill="#00C0EB" d="m346.56,311.64c-0.48,3.49 1.93,9.16 -0.96,11.63c-2.45,2.08 -7.93,0.73 -12.07,0.66c-4.45,-0.07 -10.3,1.9 -12.99,-0.74c-2.93,-2.87 -0.82,-8.79 -0.89,-13.37c-0.06,-4.11 -1.79,-9.43 0.7,-12.01c2.53,-2.61 7.88,-0.63 12,-0.8c3.48,-0.15 7,0.19 10.46,-0.09c3.24,-0.26 4.01,1.06 3.81,4c-0.23,3.29 -0.06,6.63 -0.06,10.72z" class="st10"/>
   <path id="svg_39" fill="#00C0EB" d="m179.01,323.69c-4.31,0 -10.05,1.69 -12.56,-0.44c-2.95,-2.51 -0.88,-8.43 -0.94,-12.85c-0.06,-4.28 -1.84,-9.8 0.72,-12.53c2.59,-2.75 8.16,-0.7 12.41,-0.87c3.65,-0.15 7.31,0.07 10.96,-0.06c2.17,-0.08 2.88,0.75 2.85,2.88c-0.09,7.14 -0.1,14.29 0,21.43c0.03,2.28 -0.96,2.8 -2.98,2.74c-3.49,-0.11 -6.98,-0.03 -10.47,-0.03c0.01,-0.09 0.01,-0.18 0.01,-0.27z" class="st10"/>
   <path id="svg_40" fill="#00C0EA" d="m179.01,250.79c-4.31,0 -10.06,1.69 -12.56,-0.44c-2.95,-2.52 -0.91,-8.44 -0.94,-12.88c-0.03,-4.28 -1.9,-9.83 0.86,-12.5c2.71,-2.63 8.23,-0.77 12.51,-0.78c4.29,-0.01 9.86,-1.87 12.54,0.73c2.93,2.84 0.74,8.51 0.97,12.93c0.18,3.32 -0.12,6.67 0.08,9.98c0.16,2.71 -0.95,3.46 -3.48,3.33c-3.32,-0.17 -6.66,-0.04 -9.99,-0.04c0.01,-0.1 0.01,-0.22 0.01,-0.33z" class="st15"/>
   <path id="svg_41" fill="#00C0EA" d="m333.02,250.78c-4.28,-0.03 -9.8,2.19 -12.54,-0.45c-2.75,-2.65 -0.87,-8.19 -0.84,-12.45c0.03,-4.42 -1.98,-10.09 0.92,-12.94c2.67,-2.62 8.25,-0.75 12.53,-0.75c4.28,0 9.79,-1.85 12.52,0.76c2.78,2.66 0.89,8.22 0.87,12.49c-0.02,4.44 2,10.37 -0.92,12.9c-2.46,2.14 -8.23,0.44 -12.54,0.44z" class="st15"/>
   <path id="svg_42" fill="#00C0EA" d="m269.72,310.94c-0.19,4.13 1.17,9.59 -0.96,12.05c-2.47,2.85 -8.1,0.82 -12.35,0.93c-4.46,0.11 -10.32,1.48 -13.02,-0.76c-2.86,-2.38 -0.85,-8.45 -0.86,-12.9c-0.02,-4.28 -1.89,-9.89 0.8,-12.5c2.65,-2.57 8.23,-0.77 12.52,-0.72c4.43,0.05 10.12,-1.94 12.93,0.87c2.59,2.59 0.55,8.24 0.77,12.53c0.01,0.17 0,0.33 0,0.5c0.05,-0.01 0.11,0 0.17,0z" class="st15"/>
   <path id="svg_43" fill="#F8F0EE" d="m276.73,97.13c-1.83,0 -3.66,-0.06 -5.49,0.01c-5.77,0.24 -8.5,2.81 -8.8,8.6c-0.2,3.82 -0.17,7.66 -0.01,11.48c0.11,2.55 -0.68,3.41 -3.35,3.51c-10.04,0.36 -10.03,0.47 -10.03,-9.67c0,-1.66 0.04,-3.33 -0.01,-4.99c-0.17,-6.02 -2.85,-8.74 -8.94,-8.92c-3.66,-0.11 -7.33,-0.14 -10.98,0.02c-2.44,0.11 -3.41,-0.44 -3.47,-3.21c-0.22,-10.09 -0.34,-10.09 9.56,-10.09c1.66,0 3.33,0.07 4.99,-0.02c6.05,-0.31 8.72,-3.03 8.84,-9.06c0.07,-3.83 0.14,-7.66 -0.03,-11.48c-0.11,-2.43 0.79,-3.01 3.13,-3.11c10.26,-0.43 10.25,-0.52 10.26,9.51c0,2 -0.11,4.01 0.06,5.99c0.46,5.24 3,7.8 8.28,8.11c3.82,0.22 7.67,0.28 11.48,-0.01c3.23,-0.25 3.81,1 3.79,3.96c-0.06,9.36 0.07,9.36 -9.28,9.37z" class="st5"/>
  </g>
 </g>
</svg>