<svg width="512" height="512" xmlns="http://www.w3.org/2000/svg" xml:space="preserve" version="1.1">

 <g>
  <title>Layer 1</title>
  <g id="svg_1">
   <path id="svg_2" fill="#CDD5DF" d="m-0.33,510.75c0,-14.97 0,-29.94 0,-44.91c1.55,-1.48 3.51,-1.72 5.5,-1.71c9.19,0.01 18.38,-0.31 27.56,0.17c1.99,-0.27 3.98,-0.26 5.98,-0.26c79.33,0.01 158.65,0.01 237.98,0c2.16,0 4.32,-0.02 6.47,0.25c1.66,-0.14 3.31,-0.26 4.98,-0.26c50.55,0.03 101.11,0.01 151.66,0.01c1.66,0 3.33,0.03 4.98,0.25c10.77,-0.34 21.53,-0.37 32.3,0c9.64,-0.53 19.29,-0.22 28.93,-0.17c3.78,0.02 5.56,1.48 5.46,5.75c-0.28,12.46 -0.18,24.94 -0.04,37.41c0.03,2.98 -0.74,4.41 -3.89,3.98c-0.98,-0.13 -1.99,-0.02 -2.99,-0.02c-166.32,0 -332.65,0 -498.97,-0.02c-1.98,-0.01 -4.01,0.48 -5.91,-0.47z" class="st0"/>
   <path id="svg_3" fill="#FEFEFE" d="m-0.33,510.75c167.98,0 335.96,0 503.94,-0.01c8.02,0 7.23,0.83 7.25,-7.17c0.03,-10.97 -0.13,-21.95 0.08,-32.92c0.07,-3.64 -0.9,-4.97 -4.73,-4.88c-9.81,0.22 -19.62,0.03 -29.43,0.01c-2.24,-2.73 -1.62,-6.01 -1.63,-9.1c-0.04,-51.18 -0.03,-102.36 -0.03,-153.55c0,-31.74 -0.01,-63.48 0.01,-95.22c0,-2.82 -0.21,-5.66 0.57,-8.42c0.93,-2.83 3.46,-3.87 5.8,-5.11c18.41,-9.83 27.66,-25.22 27.81,-46.05c0.1,-14.95 -0.04,-29.91 0.05,-44.86c0.11,-1.08 -0.29,-2.06 -0.63,-3.05c-10.9,-29.95 -21.71,-59.93 -32.73,-89.85c-1.26,-3.41 -3.81,-6.77 -2.07,-10.83c11.81,0 23.63,0.07 35.44,-0.06c2.15,-0.02 2.94,0.41 2.52,2.56c-0.13,0.64 -0.02,1.33 -0.02,1.99c0,167.67 -0.01,335.35 0.09,503.02c0,3.74 -0.84,4.59 -4.59,4.59c-167.74,-0.11 -335.47,-0.09 -503.21,-0.16c-1.46,0 -3.38,1.15 -4.49,-0.93z" class="st1"/>
   <path id="svg_4" fill="#F2F2F2" d="m299.2,-0.26c28.95,0 57.91,0 86.86,0c2.06,1.02 2.46,3.01 2.89,4.97c6.73,30.52 13.33,61.06 20.05,91.58c0.43,1.96 0.64,3.95 -0.27,5.88c-0.33,0.56 -0.78,0.97 -1.36,1.27c-2.21,0.97 -4.55,0.87 -6.87,0.87c-28.56,0.02 -57.13,0.03 -85.69,-0.01c-3.1,-0.01 -6.4,0.43 -8.88,-2.21c-1.8,-2.76 -2.04,-5.95 -2.25,-9.06c-1.91,-27.75 -3.82,-55.51 -6.06,-83.23c-0.27,-3.4 -0.9,-7.03 1.58,-10.06z" class="st2"/>
   <path id="svg_5" fill="#F2F2F2" d="m123.48,-0.26c29.29,0 58.57,0 87.86,0c1.87,2.05 1.8,4.6 1.6,7.07c-1.12,14.22 -2.05,28.45 -3.17,42.67c-1.23,15.54 -1.86,31.13 -3.64,46.62c-0.19,1.65 -0.29,3.31 -1,4.86c-2.12,3.77 -5.83,3.31 -9.25,3.33c-21.04,0.07 -42.07,0.03 -63.11,0.03c-7.95,0 -15.9,0.07 -23.85,-0.04c-2.6,-0.04 -5.4,0.19 -7.17,-2.44c-1.15,-2.6 -0.54,-5.2 0.04,-7.79c6.63,-29.76 13.05,-59.57 19.6,-89.34c0.39,-1.79 0.74,-3.59 2.09,-4.97z" class="st2"/>
   <path id="svg_6" fill="#F2705A" d="m408.63,101.63c-7.22,-33.02 -14.45,-66.03 -21.68,-99.04c-0.21,-0.97 -0.58,-1.9 -0.88,-2.84c29.29,0 58.57,0 87.86,0c6.83,19.03 13.66,38.06 20.49,57.09c5.21,14.51 10.42,29.02 15.62,43.53c-0.32,2.96 -2.7,2.5 -4.55,2.56c-4.98,0.18 -9.97,0.07 -14.96,0.07c-24.43,0 -48.86,0.01 -73.29,-0.01c-2.32,0 -4.66,0.18 -6.96,-0.3c-0.64,-0.21 -1.19,-0.56 -1.65,-1.06z" class="st3"/>
   <path id="svg_7" fill="#F2705A" d="m123.48,-0.26c-0.87,10.73 -4.09,21 -6.28,31.46c-4.59,21.94 -9.64,43.79 -14.47,65.68c-0.25,1.12 -0.22,2.3 -0.33,3.46c-0.3,0.99 -0.86,1.75 -1.83,2.18c-2.11,0.67 -4.28,0.46 -6.43,0.46c-28.59,0.02 -57.18,0.02 -85.77,-0.01c-2.46,0 -5.01,0.44 -7.31,-0.9c-2.14,-3.87 -0.09,-7.47 1.11,-10.91c5.74,-16.42 11.84,-32.71 17.74,-49.08c4.44,-12.31 9.12,-24.54 13.49,-36.87c0.72,-2.04 1.39,-4.09 3.21,-5.48c28.96,0.01 57.91,0.01 86.87,0.01z" class="st3"/>
   <path id="svg_8" fill="#F2705A" d="m204.15,100.6c2.1,-28.65 4.21,-57.3 6.29,-85.95c0.36,-4.96 0.6,-9.94 0.9,-14.91c29.29,0 58.57,0 87.86,0c-0.29,13.26 1.75,26.38 2.34,39.59c0.5,11.05 1.77,22.07 2.63,33.11c0.76,9.72 1.44,19.45 2.15,29.18c-0.25,0.22 -0.49,0.43 -0.74,0.65c-1.87,0.93 -3.89,0.7 -5.86,0.71c-29.65,0.02 -59.3,0.02 -88.94,0c-1.97,0 -3.99,0.22 -5.86,-0.72c-0.62,-0.39 -0.88,-0.94 -0.77,-1.66z" class="st3"/>
   <path id="svg_9" fill="#FEFEFE" d="m32.73,465.79c-11.02,0.01 -22.04,0.03 -33.06,0.04c0,-102.47 0,-204.93 0,-307.4c2.63,0.09 2.4,2.4 2.87,3.95c4.31,14.42 12.86,25.31 26.41,32.12c2.43,1.22 4.72,2.55 5.15,5.62c0.4,2.49 0.31,4.98 0.32,7.47c0.01,82.87 0.01,165.75 -0.02,248.62c-0.01,3.25 0.7,6.7 -1.67,9.58z" class="st1"/>
   <path id="svg_10" fill="#EF5540" d="m32.8,198.16c-12.53,-5.76 -22.79,-13.96 -28.45,-26.92c-1.81,-4.16 -3.13,-8.53 -4.68,-12.81c0,-18.63 0,-37.26 0,-55.89c1.04,-0.75 2.24,-0.48 3.37,-0.48c31.98,-0.01 63.97,-0.01 95.95,-0.01c0.83,0 1.66,-0.01 2.46,0.23c1.92,2.01 1.79,4.56 1.79,7.03c0.01,13.27 0.11,26.54 -0.03,39.81c-0.02,9.78 -2.06,19.03 -7.19,27.49c-8.8,14.51 -21.53,22.96 -38.4,25.25c-5.15,0.7 -10.24,0.48 -15.33,-0.17c-3.38,-0.43 -7.02,-0.5 -9.49,-3.53z" class="st4"/>
   <path id="svg_11" fill="#FEFEFE" d="m36.61,-0.26c-6.83,19.02 -13.65,38.05 -20.48,57.07c-5.2,14.51 -10.41,29.02 -15.62,43.52c-0.12,0.71 -0.4,0.78 -0.84,0.21c0,-32.15 0.05,-64.31 -0.07,-96.46c-0.01,-3.27 0.25,-4.61 4.19,-4.47c10.93,0.38 21.88,0.13 32.82,0.13z" class="st1"/>
   <path id="svg_12" fill="#F48878" d="m-0.33,100.54c0.25,-0.2 0.52,-0.27 0.84,-0.21c1.54,1.88 3.68,1.18 5.57,1.18c31.8,0.04 63.6,0.02 95.4,0.02c0.27,0.25 0.35,0.49 0.24,0.72c-0.1,0.23 -0.2,0.34 -0.29,0.34c-33.92,-0.01 -67.84,-0.03 -101.76,-0.04c0,-0.67 0,-1.34 0,-2.01z" class="st5"/>
   <path id="svg_13" fill="#FED05C" d="m32.8,198.16c10.88,3.07 21.82,3.86 32.8,0.66c19.57,-5.71 36.18,-24.3 36.11,-48.27c2.59,0.5 2.02,2.7 2.16,4.34c2.16,23.94 20.6,41.98 44.37,44.17c28.47,2.61 49.51,-17.23 53.52,-39.55c0.3,-1.65 0.02,-3.85 2.54,-4.27c1.9,1.46 2.02,3.71 2.5,5.78c5.34,22.67 24.86,38.43 48.28,38.47c24.3,0.04 43.91,-16.74 48.66,-38.64c0.45,-2.06 0.52,-4.35 2.67,-5.64c2.27,0.7 2.07,2.8 2.46,4.49c8.54,37.5 51.41,52.32 81.01,27.7c10.68,-8.88 16.62,-20.62 16.62,-34.88c0,-14.31 -0.02,-28.61 0.02,-42.92c0.01,-2.45 -0.47,-5.05 1.54,-7.09c0.18,-0.3 0.35,-0.6 0.53,-0.89c0,0 0.23,-0.05 0.23,-0.05c0.43,0.37 0.79,0.8 1.09,1.29c0.89,2.23 0.62,4.58 0.63,6.89c0.03,13.93 -0.02,27.86 0.02,41.79c0.07,24.37 19.42,45.2 43.7,47.36c5.86,0.52 11.57,0.06 17.31,-0.83c1.76,-0.27 3.57,-1.06 5.24,0.29c-0.02,89.14 -0.04,178.28 -0.06,267.42c-10.63,-0.03 -21.27,-0.07 -31.9,-0.1c-2.43,-2.86 -1.66,-6.33 -1.66,-9.58c-0.05,-59.69 -0.03,-119.37 -0.04,-179.06c0,-13.63 0.03,-27.27 -0.02,-40.9c-0.02,-6.78 -0.27,-7.04 -7.01,-7.05c-47.9,-0.03 -95.8,-0.02 -143.7,0c-7.27,0 -7.42,0.15 -7.42,7.65c-0.02,73.15 0,146.31 -0.04,219.46c0,3.24 0.75,6.73 -1.9,9.49c-0.83,0.05 -1.66,0.13 -2.49,0.13c-82.62,-0.01 -165.24,-0.02 -247.87,-0.04c-0.03,-67.78 -0.07,-135.56 -0.08,-203.34c0.03,-21.42 0.13,-42.85 0.18,-64.28z" class="st6"/>
   <path id="svg_14" fill="#415A6B" d="m283.09,465.7c-0.01,-77.83 0,-155.66 -0.11,-233.48c0,-3.6 0.77,-4.85 4.65,-4.84c50.91,0.13 101.81,0.13 152.72,0c3.87,-0.01 4.64,1.21 4.64,4.83c-0.11,77.83 -0.1,155.66 -0.11,233.48c-27.88,0.05 -55.75,0.13 -83.63,0.14c-26.06,0 -52.11,-0.08 -78.16,-0.13z" class="st7"/>
   <path id="svg_15" fill="#EF5540" d="m476.84,198.37c-15.15,4.06 -29.81,3.67 -43.57,-4.83c-14.7,-9.07 -23.36,-22.19 -24.1,-39.43c-0.73,-17.07 -0.13,-34.2 -0.12,-51.31c1.03,-1.28 2.47,-0.72 3.72,-0.73c31.53,-0.03 63.07,-0.03 94.6,-0.01c1.13,0 2.34,-0.3 3.35,0.54c-0.02,18.22 1.47,36.53 -0.65,54.64c-2.27,19.39 -13.71,32.49 -31.48,40.21c-0.6,0.26 -1.17,0.61 -1.75,0.92z" class="st4"/>
   <path id="svg_16" fill="#F48878" d="m510.72,102.61c-33.06,-0.02 -66.13,-0.04 -99.19,-0.05c-0.82,0 -1.65,0.16 -2.47,0.24c-0.06,-0.41 -0.13,-0.81 -0.19,-1.22c31.69,-0.01 63.39,-0.01 95.09,-0.07c2.06,0 4.37,0.8 6.1,-1.15c0.74,0.59 0.8,1.39 0.66,2.25z" class="st5"/>
   <path id="svg_17" fill="#E7E9E8" d="m408.1,102.52c-0.01,18.11 0.45,36.25 -0.16,54.34c-0.69,20.4 -21.45,41.14 -42.35,43.48c-20.46,2.29 -37.28,-4.04 -49.75,-20.75c-5.38,-7.21 -7.83,-15.61 -9.5,-24.29c-1.5,-1.12 -1.77,-2.8 -1.78,-4.45c-0.12,-15.41 -0.35,-30.83 0.11,-46.24c0.02,-0.5 0.23,-0.96 0.37,-1.44c0.27,-0.6 0.6,-1.17 0.99,-1.7c0,0 0.3,0.15 0.3,0.15c1.65,0.98 3.47,0.93 5.3,0.93c32.16,-0.02 64.31,-0.02 96.47,-0.03z" class="st8"/>
   <path id="svg_18" fill="#E7E9E8" d="m204.21,155.3c-1.79,9.54 -4.7,18.64 -11.01,26.26c-14,16.9 -32.1,22.75 -53.05,17.58c-20.6,-5.09 -32.74,-19.19 -37.45,-39.77c-0.66,-2.9 0.29,-5.99 -0.99,-8.83c-0.09,-15.99 -0.19,-31.98 -0.28,-47.96c0.02,-0.35 0.03,-0.7 0.05,-1.06c0.31,-0.4 0.62,-0.79 0.93,-1.19c0.36,2.29 2.08,2.2 3.79,2.2c31.23,0 62.47,-0.02 93.7,0.04c1.85,0 3.2,-0.55 4.26,-1.98c0.12,0.3 0.23,0.6 0.33,0.91c0.4,0.52 0.74,1.08 1,1.69c1.16,4.41 0.56,8.9 0.6,13.36c0.09,10.61 0.08,21.21 -0.01,31.82c-0.02,2.43 0.33,5.05 -1.87,6.93z" class="st8"/>
   <path id="svg_19" fill="#F48778" d="m204.45,102.59c0.01,-0.36 0.02,-0.73 0.04,-1.09c33.85,-0.01 67.7,-0.03 101.55,-0.04c0.01,0.38 0.02,0.77 0.02,1.15c-1.86,1.82 -4.25,1.69 -6.55,1.69c-29.5,0.05 -59,0.05 -88.51,0c-2.31,0 -4.69,0.09 -6.55,-1.71z" class="st9"/>
   <path id="svg_20" fill="#415A6B" d="m154.41,389.27c-28.28,0 -56.56,-0.07 -84.84,0.08c-3.79,0.02 -5.08,-0.84 -5.07,-4.9c0.14,-50.72 0.14,-101.44 0,-152.15c-0.01,-4.07 1.25,-4.91 5.06,-4.9c56.56,0.11 113.12,0.12 169.68,-0.01c4.01,-0.01 5.39,0.85 5.37,5.15c-0.15,50.55 -0.15,101.1 0,151.65c0.01,4.29 -1.34,5.19 -5.36,5.16c-28.28,-0.16 -56.56,-0.08 -84.84,-0.08z" class="st7"/>
   <path id="svg_21" fill="#EF5540" d="m204.45,102.59c33.87,0.01 67.74,0.01 101.61,0.02c0.09,17.56 0.19,35.13 0.28,52.69c-2.95,19.11 -12.6,33.41 -30.54,41.31c-28.75,12.66 -63.15,-3.32 -70.42,-35.45c-0.44,-1.94 -0.78,-3.91 -1.17,-5.86c0.08,-17.57 0.16,-35.14 0.24,-52.71z" class="st4"/>
   <path id="svg_22" fill="#89D6F7" d="m428.94,347.08c0,32.59 -0.08,65.18 0.1,97.77c0.02,4.21 -1.18,5.22 -5.28,5.2c-39.92,-0.15 -79.84,-0.14 -119.76,-0.01c-3.85,0.01 -5.05,-0.92 -5.04,-4.94c0.13,-65.51 0.13,-131.03 0,-196.54c-0.01,-4.19 1.18,-5.25 5.3,-5.24c39.92,0.15 79.84,0.14 119.76,0.01c3.91,-0.01 5.04,1 5.02,4.98c-0.17,32.93 -0.1,65.85 -0.1,98.77z" class="st10"/>
   <path id="svg_23" fill="#89D6F7" d="m154.4,373.27c-22.95,0 -45.9,-0.08 -68.84,0.08c-3.79,0.03 -5.1,-0.85 -5.08,-4.91c0.15,-40.06 0.16,-80.12 0,-120.18c-0.02,-4.07 1.25,-4.92 5.07,-4.91c45.9,0.12 91.79,0.13 137.69,-0.01c4,-0.01 5.41,0.85 5.39,5.16c-0.16,39.89 -0.16,79.79 0,119.68c0.02,4.28 -1.34,5.21 -5.37,5.18c-22.96,-0.18 -45.91,-0.09 -68.86,-0.09z" class="st10"/>
   <path id="svg_24" fill="#415A6B" d="m319.16,333.07c7.64,-0.01 14,6.4 13.88,13.98c-0.11,7.31 -6.5,13.56 -13.86,13.57c-7.36,0.01 -13.75,-6.23 -13.88,-13.55c-0.13,-7.58 6.22,-14 13.86,-14z" class="st7"/>
   <path id="svg_25" fill="#55BFEA" d="m95.48,320.44c-0.21,-2.7 1.13,-4.88 3.1,-6.84c16.11,-16.07 32.2,-32.16 48.27,-48.26c2.11,-2.12 4.47,-3.41 7.54,-3.07c5.41,0.6 7.64,5.03 4.82,9.68c-0.77,1.27 -1.64,2.52 -2.68,3.56c-15.83,15.88 -31.69,31.73 -47.57,47.55c-1.16,1.16 -2.53,2.17 -3.95,3c-4.93,2.84 -9.52,0.19 -9.53,-5.62z" class="st11"/>
   <path id="svg_26" fill="#55BFEA" d="m126.06,332.54c0.33,-2.43 0.78,-4.39 2.48,-6.07c10.28,-10.14 20.46,-20.39 30.7,-30.58c0.81,-0.8 1.78,-1.54 2.82,-1.98c3.37,-1.42 6.61,-1.17 9,1.82c2.44,3.07 1.21,5.97 -1.19,8.44c-3.93,4.05 -7.96,8 -11.95,11.99c-6.69,6.69 -13.34,13.42 -20.1,20.04c-2.22,2.17 -4.82,3.48 -8.08,2.01c-2.63,-1.17 -3.54,-3.31 -3.68,-5.67z" class="st11"/>
  </g>
 </g>
</svg>