<svg width="512" height="512" xmlns="http://www.w3.org/2000/svg" xml:space="preserve" version="1.1">

 <g>
  <title>Layer 1</title>
  <g id="svg_1">
   <path id="svg_2" fill="#FEFEFE" d="m448.54,506.18c0,4.54 -1.1,5.82 -5.75,5.82c-117.48,-0.14 -234.96,-0.14 -352.45,-0.01c-4.7,0.01 -6.82,-1.14 -5.98,-5.99c0.85,-5.02 -0.79,-7.61 -6.34,-6.61c-3.21,0.58 -4.37,-1.02 -4.09,-4.14c0.18,-2.06 0.04,-4.15 0.04,-6.23c-10.41,-0.02 -10.41,-0.02 -10.41,-10.34l0,-471.56c0,-7.02 0,-7.02 6.97,-7.02l346.77,0c10.33,0 10.33,0 10.33,10.42c0.86,0 1.74,-0.01 2.6,-0.01c7.66,-0.01 7.91,0 7.7,7.7c-0.11,4.08 1.42,5.36 5.12,4.78c4.38,-0.7 5.47,1.2 5.47,5.46c-0.09,159.24 -0.1,318.49 0.02,477.73z" class="st0"/>
   <path id="svg_3" fill="#ECEEF0" d="m429.34,21.57l0,455.89c0,13.25 0,13.26 -13.18,13.26c-110.72,0 -221.44,0.01 -332.18,-0.03c-3.38,0 -6.99,0.77 -10.01,-1.68c-10.41,-0.01 -10.41,-0.01 -10.41,-10.33l0,-471.56c0,-7.02 0,-7.02 6.97,-7.02l346.77,0c10.33,0 10.33,0 10.33,10.42c1.4,1.52 1.58,3.41 1.65,5.34c0.1,1.9 0.06,3.8 0.06,5.71z" class="st1"/>
   <path id="svg_4" fill="#D2D2D2" d="m448.54,506.18c0,4.54 -1.1,5.82 -5.75,5.82c-117.48,-0.14 -234.96,-0.14 -352.45,-0.01c-4.7,0.01 -6.82,-1.14 -5.98,-5.99c0.85,-5.02 -0.79,-7.61 -6.34,-6.61c-3.21,0.58 -4.37,-1.02 -4.09,-4.14c0.18,-2.06 0.04,-4.15 0.04,-6.23l346.71,0c6.95,0 6.95,-0.01 6.95,-7.03l0,-471.47c0.86,0 1.74,-0.01 2.6,-0.01c7.66,-0.01 7.91,0 7.7,7.7c-0.11,4.08 1.42,5.36 5.12,4.78c4.38,-0.7 5.47,1.2 5.47,5.46c-0.09,159.24 -0.1,318.49 0.02,477.73z" class="st2"/>
   <path id="svg_5" fill="#97C969" d="m328.78,279.79c0.01,-59.76 0.02,-119.52 0.03,-179.28c0,-7.82 0,-7.82 8.08,-7.82c11.95,0 23.9,0 35.86,0c8.08,0 8.08,0 8.08,7.82c0.01,59.76 0.02,119.52 0.03,179.28c-1.71,1.94 -4.06,1.77 -6.28,1.78c-13.17,0.08 -26.35,0.08 -39.52,0c-2.22,-0.01 -4.57,0.16 -6.28,-1.78z" class="st3"/>
   <path id="svg_6" fill="#FEE252" d="m183.19,279.76c0,-46.58 0.05,-93.15 -0.1,-139.73c-0.01,-4.35 0.76,-6 5.59,-5.87c13.67,0.37 27.36,0.37 41.03,0c4.83,-0.13 5.6,1.52 5.59,5.87c-0.15,46.58 -0.1,93.15 -0.1,139.73c-1.68,1.98 -4.04,1.8 -6.25,1.82c-13.16,0.08 -26.33,0.08 -39.49,0c-2.23,-0.02 -4.59,0.15 -6.27,-1.82z" class="st4"/>
   <path id="svg_7" fill="#6E82B6" d="m183.19,279.76c17.33,0 34.67,0 52,0c6.92,0.01 13.84,0.02 20.75,0.03c1.89,-1.54 4.16,-1.52 6.4,-1.53c13.11,-0.04 26.21,-0.04 39.32,0c2.24,0.01 4.51,-0.01 6.4,1.53c6.91,0 13.81,0 20.72,0.01c17.36,0 34.72,0 52.07,0c5.54,0.04 11.09,0.24 16.63,0.07c3.05,-0.09 4.51,0.67 4.18,4.01c-0.54,5.45 2.28,12.44 -1.18,15.98c-2.99,3.06 -9.88,0.83 -15.05,0.84c-96.53,0.04 -193.06,-0.02 -289.59,0.17c-5.45,0.01 -6.97,-1.54 -6.37,-6.63c0.39,-3.25 0.32,-6.6 0.01,-9.86c-0.37,-3.82 1.25,-4.68 4.75,-4.53c5.36,0.22 10.74,-0.04 16.11,-0.09c1.89,-1.55 4.16,-1.49 6.4,-1.5c13.08,-0.04 26.17,-0.04 39.25,0c2.23,0.01 4.51,-0.05 6.4,1.5c6.94,0 13.87,0 20.8,0z" class="st5"/>
   <path id="svg_8" fill="#7FD5FA" d="m308.07,279.78c-17.38,0 -34.75,0 -52.13,0c0.02,-32.76 0.14,-65.53 -0.06,-98.29c-0.03,-4.71 1.35,-5.8 5.84,-5.7c13.52,0.29 27.05,0.29 40.56,0c4.49,-0.1 5.87,0.99 5.84,5.7c-0.19,32.77 -0.07,65.53 -0.05,98.29z" class="st6"/>
   <path id="svg_9" fill="#80D5FA" d="m108.21,433.96c-14.32,-13.29 -20.14,-30.17 -18.35,-49.08c2.24,-23.79 14.81,-41.2 36.54,-51.53c8.03,-3.81 16.62,-5.62 25.57,-5.5c1.43,1.5 1.62,3.4 1.62,5.31c-0.01,18.3 0.28,36.6 -0.13,54.88c-0.23,2.97 -2.07,5.03 -4.05,7.02c-12.01,12.02 -24.01,24.04 -36.06,36.01c-1.41,1.4 -2.58,3.45 -5.14,2.89z" class="st7"/>
   <path id="svg_10" fill="#FEAFA9" d="m162.4,279.76c-17.35,0 -34.7,0 -52.05,0c0.01,-25.82 0.14,-51.64 -0.1,-77.45c-0.04,-4.71 1.36,-5.8 5.85,-5.71c13.51,0.29 27.03,0.29 40.54,0c4.49,-0.1 5.89,1 5.85,5.71c-0.23,25.81 -0.1,51.63 -0.09,77.45z" class="st8"/>
   <path id="svg_11" fill="#97C969" d="m108.21,433.96c14.61,-14.53 29.23,-29.05 43.84,-43.58c0.3,-0.46 0.72,-0.6 1.25,-0.47c5.72,4.28 10.27,9.77 15.33,14.73c8.05,7.87 15.98,15.87 23.89,23.89c1.49,1.51 3.8,2.69 3.28,5.47c-21.13,24.54 -67.19,24.52 -87.59,-0.04z" class="st3"/>
   <path id="svg_12" fill="#FEAFA9" d="m152.91,390.4l-0.43,-0.03c0,0 -0.43,0 -0.43,0c-0.03,-20.84 -0.06,-41.69 -0.09,-62.53c33.79,-0.56 63.42,29.11 62.29,62.4c-1.98,1.84 -4.47,1.59 -6.85,1.6c-15.66,0.05 -31.32,0.01 -46.98,0.04c-2.62,0.01 -5.12,-0.39 -7.51,-1.48z" class="st8"/>
   <path id="svg_13" fill="#6E82B6" d="m162.92,36.51c22.36,0 44.71,0.08 67.07,-0.08c3.87,-0.03 5.8,0.69 5.27,5.05c-0.63,5.09 2.14,11.74 -1.14,14.97c-3.03,2.98 -9.57,0.83 -14.56,0.83c-41.42,0.06 -82.84,-0.03 -124.26,0.13c-4.35,0.02 -6.46,-0.73 -5.79,-5.58c0.68,-4.91 -2.1,-11.33 1.13,-14.46c2.95,-2.88 9.24,-0.8 14.06,-0.82c19.39,-0.09 38.8,-0.04 58.22,-0.04z" class="st5"/>
   <path id="svg_14" fill="#6E82B6" d="m339.02,358.98c-19.06,0 -38.13,-0.13 -57.19,0.1c-4.21,0.05 -5.47,-1.23 -5.08,-5.25c0.48,-4.97 -2.01,-11.39 0.91,-14.58c2.99,-3.28 9.5,-1.01 14.44,-1.02c34.66,-0.1 69.32,0.05 103.98,-0.18c4.72,-0.03 6.11,1.29 5.61,5.79c-0.52,4.78 1.95,11.09 -0.9,14.06c-3.12,3.25 -9.51,0.98 -14.46,1.02c-15.77,0.16 -31.54,0.06 -47.31,0.06z" class="st5"/>
   <path id="svg_15" fill="#6E82B6" d="m339.49,379.79c18.72,0 37.43,0.13 56.15,-0.1c4.51,-0.05 6.78,0.79 6.07,5.84c-0.41,2.89 -0.37,5.92 -0.01,8.82c0.61,4.87 -0.87,6.42 -6.09,6.37c-31.88,-0.27 -63.77,-0.14 -95.66,-0.14c-6.24,0 -12.48,-0.15 -18.71,0.06c-3.23,0.11 -4.76,-0.63 -4.5,-4.24c0.3,-4.14 0.3,-8.33 0,-12.47c-0.27,-3.65 1.34,-4.23 4.53,-4.21c19.4,0.13 38.81,0.07 58.22,0.07z" class="st5"/>
   <path id="svg_16" fill="#6E82B6" d="m338.69,442.2c-18.89,0 -37.78,-0.09 -56.67,0.08c-3.85,0.03 -5.82,-0.65 -5.28,-5.03c0.63,-5.1 -2.14,-11.73 1.13,-14.97c3.02,-2.99 9.56,-0.83 14.55,-0.84c34.49,-0.07 68.97,0.04 103.46,-0.13c4.32,-0.02 6.48,0.69 5.81,5.57c-0.68,4.91 2.09,11.32 -1.12,14.47c-2.95,2.89 -9.24,0.8 -14.05,0.82c-15.94,0.09 -31.88,0.03 -47.83,0.03z" class="st5"/>
   <path id="svg_17" fill="#6E82B6" d="m131.5,78.12c12.3,0 24.61,0.1 36.91,-0.07c3.3,-0.05 4.68,0.77 4.45,4.3c-0.29,4.31 -0.19,8.66 -0.03,12.99c0.1,2.65 -0.72,3.64 -3.51,3.63c-25.47,-0.09 -50.94,-0.09 -76.41,0c-2.93,0.01 -3.45,-1.28 -3.37,-3.76c0.13,-4.15 0.25,-8.33 -0.03,-12.47c-0.25,-3.58 0.85,-4.78 4.58,-4.71c12.45,0.23 24.93,0.09 37.41,0.09z" class="st5"/>
   <path id="svg_18" fill="#FEE252" d="m152.91,390.4c20.45,-0.05 40.9,-0.1 61.35,-0.15c-0.18,17.1 -5.85,31.89 -18.46,43.75c-12.4,-12.53 -24.81,-25.05 -37.2,-37.59c-1.93,-1.96 -3.79,-4.01 -5.69,-6.01z" class="st4"/>
   <path id="svg_19" fill="#6E82B6" d="m256,348.52c0,10.46 0,10.46 -10.61,10.46c-10.2,0 -10.2,0 -10.2,-10.35c0,-10.46 0,-10.46 10.61,-10.46c10.2,0.01 10.2,0.01 10.2,10.35z" class="st5"/>
   <path id="svg_20" fill="#6E82B6" d="m256,390.59c0,10.01 0,10.01 -10.02,10.01c-10.78,0 -10.78,0 -10.78,-10.8c0,-10.01 0,-10.01 10.02,-10.01c10.78,0 10.78,0 10.78,10.8z" class="st5"/>
   <path id="svg_21" fill="#6E82B6" d="m256,432.28c0,9.92 0,9.92 -10.11,9.92c-10.69,0 -10.69,0 -10.69,-10.89c0,-9.92 0,-9.92 10.11,-9.92c10.69,0 10.69,0 10.69,10.89z" class="st5"/>
  </g>
 </g>
</svg>