<svg width="512" height="512" xmlns="http://www.w3.org/2000/svg" xml:space="preserve" version="1.1">
 <defs>
  <linearGradient y2="0.49999" x2="1" y1="0.49999" x1="0.00001" id="SVGID_1_">
   <stop stop-color="#FF4A16" offset="0"/>
   <stop stop-color="#FF4A16" offset="1"/>
  </linearGradient>
 </defs>
 <g>
  <title>Layer 1</title>
  <g stroke="null" id="svg_1">
   <path stroke="null" id="svg_2" fill="url(#SVGID_1_)" d="m511.42687,215.46189l0,36.14727c-0.00511,1.77773 -0.00511,3.54525 -0.00511,5.31788l0,10.63065l0.00511,0c-0.00511,4.60781 -0.00511,9.21561 -0.00511,13.82342l0,59.53368c0,1.77773 0,3.54525 -0.00511,5.31788l0,92.48818l-0.00511,0l0,0.00511c0.00511,1.42014 0.00511,2.83007 0.00511,4.24511l0,10.63065l-0.00511,0l0,14.88087c-0.00511,1.42014 -0.01022,2.83518 -0.01533,4.25532c-0.04598,0.71518 -0.09195,1.42014 -0.13793,2.13022c0.19412,2.08935 -0.45976,3.88241 -1.86969,5.42005c-3.18766,6.63585 -8.91422,8.44935 -15.72376,8.44424c-47.72298,-0.02554 -95.45108,0 -143.17406,-0.02043c-14.84511,-0.00511 -29.69532,-0.12771 -44.54043,-0.18901c-8.10198,-0.00511 -16.20395,-0.00511 -24.31103,-0.01022c-24.44385,0.05108 -48.88771,0.09195 -73.32645,0.14304c-23.12077,-0.03065 -46.24665,-0.0613 -69.36742,-0.09195c-44.65282,0.04598 -89.31074,0.05108 -133.96355,0.19412c-3.60145,0.01533 -4.41879,-1.24135 -4.40347,-4.60781c0.10217,-46.95161 -0.08173,-93.90833 0.16347,-140.85994c0.11749,-23.57542 15.97918,-42.77291 38.95691,-48.13166c12.21426,-2.85051 24.44896,-5.5733 36.68366,-8.34718c10.87585,-3.68829 22.17571,-5.71634 33.27633,-8.51576c1.56829,-0.43422 3.13658,-0.86333 4.69976,-1.29754c4.46477,-3.60655 7.31017,-8.23479 8.7252,-13.76723c-7.32038,-6.65118 -14.93195,-12.95499 -20.87306,-21.02631c-9.38419,-12.75065 -15.95875,-26.66091 -18.5385,-42.33869c-0.57725,-3.48395 -1.38949,-5.77253 -5.72145,-6.55412c-12.05079,-2.16598 -19.91778,-12.10699 -19.52443,-23.57031c0.41378,-11.91287 8.7252,-20.82708 21.19489,-22.75296c-5.30766,-14.33426 -8.92954,-28.87797 -8.82737,-44.41783c0.22988,-33.14862 26.99807,-74.15913 72.6879,-78.51662c18.0532,-1.72154 35.69773,-1.05234 52.81609,5.40983c2.63084,0.99104 5.69079,1.90545 7.47875,3.84665c4.52096,4.91431 9.95634,4.93985 15.87701,4.65378c9.64983,-0.45976 19.11576,1.01658 28.09638,4.59248c21.10294,8.39316 29.47055,25.34805 30.39007,46.78814c0.76626,17.92549 -3.58101,35.08472 -9.00106,52.00385c-0.58747,1.84414 -1.0268,3.73426 -1.54275,5.60395c12.30622,2.27325 20.29581,11.15171 20.45928,22.75296c0.16858,11.89754 -7.19778,21.02631 -19.39161,23.60607c-3.24386,0.68964 -4.66911,1.99229 -5.07778,5.44048c-3.07528,25.94062 -15.39682,46.63489 -36.07065,62.47103c-1.24135,0.95528 -2.33455,2.09446 -3.49417,3.1519c1.55296,5.16463 4.29619,9.50169 8.74564,12.66891c1.37928,0.39335 2.75855,0.77648 4.13783,1.16983c12.66891,3.19277 25.57282,5.43026 38.07826,9.29735c0.08684,0.02043 0.16858,0.05108 0.25542,0.07663c1.10853,0.3627 2.22217,0.73051 3.33581,1.0932c5.08289,1.10342 10.16578,2.21706 15.25378,3.32048c0.16347,-0.70496 0.32694,-1.40482 0.49041,-2.10978l0,-15.94853c0,-1.76752 0,-3.54525 -0.00511,-5.31277c0.00511,-3.54525 0.00511,-7.09051 0.00511,-10.63065l0,-39.34515c0.01022,-3.18766 0.02554,-6.37532 0.03576,-9.5681c0.26564,-7.52983 5.78785,-14.49773 13.04183,-14.79913c14.06352,-0.59258 28.16279,-0.7867 42.24163,0.12771c0.16858,-0.14814 0.3627,-0.22477 0.58236,-0.21966c0.03576,-4.24 -0.05108,-8.49532 0.15325,-12.73022c0.25031,-5.22082 3.12125,-8.30631 8.36251,-8.32675c29.36327,-0.11239 58.73166,-0.10728 88.10004,-0.00511c5.40983,0.01533 8.36761,3.12636 8.7252,8.66901c0.26053,4.0561 0.13282,8.13773 0.17369,12.19894c13.35855,-0.02554 26.71711,-0.19923 40.07055,-0.03065c9.05725,0.10728 15.07499,6.19142 15.56029,15.12607c0.03065,2.12 0.04598,4.24 0.0613,6.36511z" class="st0"/>
   <path stroke="null" id="svg_3" fill="#FE8C61" d="m288.06574,169.69544c0.16858,11.89754 -7.19778,21.02631 -19.39161,23.60607c-3.24386,0.68964 -4.66911,1.99229 -5.07778,5.44048c-3.07528,25.94062 -15.39682,46.63489 -36.07065,62.47103c-1.24135,0.95528 -2.33455,2.09446 -3.49417,3.1519c-3.13147,4.13783 -7.83634,5.85426 -12.32154,7.80569c-8.74053,3.79557 -17.70072,6.90149 -27.33523,7.48385c-2.66149,-0.03065 -5.3332,0 -7.9947,0.01022c-2.40096,-0.01533 -4.80193,-0.01533 -7.20289,-0.00511c-2.0587,-0.01022 -4.1174,-0.03576 -6.17099,-0.00511c-14.14014,-0.67942 -26.42082,-6.46728 -38.06804,-13.96135c-0.89398,-0.57725 -1.59894,-1.36906 -1.83904,-2.46737c-7.32038,-6.65118 -14.93195,-12.95499 -20.87306,-21.02631c-9.38419,-12.75065 -15.95875,-26.66091 -18.5385,-42.33869c-0.57725,-3.48395 -1.38949,-5.77253 -5.72145,-6.55412c-12.05079,-2.16598 -19.91778,-12.10699 -19.52443,-23.57031c0.41378,-11.91287 8.7252,-20.82708 21.19489,-22.75296c3.97947,3.40222 6.96279,1.72665 10.26795,-1.44058c11.60125,-11.13128 16.49513,-24.36723 13.52713,-40.31576c-0.0613,-0.34737 -0.1788,-0.68964 -0.19923,-1.04212c-0.14304,-2.19663 -2.11489,-4.89388 -0.05619,-6.52347c0.10728,-0.08684 0.22988,-0.17369 0.3627,-0.25542c0.01022,-0.00511 0.02554,-0.01533 0.03576,-0.02043c2.44694,-1.43547 4.5414,1.20048 6.52858,2.49802c8.10198,5.30255 16.70969,9.2054 26.45658,10.25263c11.76983,1.26689 22.11441,-1.86458 30.54332,-10.24241c5.31277,-5.28212 11.10063,-9.88993 17.48617,-13.72636c18.59981,-11.19769 41.6133,-8.26544 55.86583,7.00877c4.08675,4.37282 6.35489,9.79287 8.46978,15.20781c4.75595,12.20405 9.78265,24.28549 14.75826,36.39759c0.77137,1.89012 1.34352,3.73937 3.92839,2.16087c12.30111,2.27325 20.2907,11.15682 20.45417,22.75296z" class="st1"/>
   <path stroke="null" id="svg_4" fill="#8D76FE" d="m157.12127,391.84076c-0.01022,0.08684 -0.01533,0.17369 -0.02043,0.26053c-0.11239,0.43422 -0.21966,0.87354 -0.32183,1.30776c-0.77648,3.38178 -1.22092,6.82487 -1.74708,10.24752c-0.02043,0.08684 -0.03576,0.1788 -0.0613,0.26564c-0.15325,0.6692 -0.28607,1.34352 -0.41378,2.01783c-0.64366,3.43287 -1.0268,6.9066 -1.61937,10.33947l0,0.00511c-0.13282,0.5466 -0.2452,1.08299 -0.35248,1.6347c-0.67431,3.392 -1.02169,6.8453 -1.78284,10.22708c-0.01533,0.08173 -0.03065,0.16347 -0.05108,0.2452c-0.14304,0.68964 -0.27075,1.38439 -0.40357,2.07402c-1.02169,5.512 -1.76241,11.05976 -2.70236,16.58197c-0.08173,0.32694 -0.15836,0.65388 -0.23499,0.98593c-0.07663,0.33716 -0.15325,0.67942 -0.22988,1.02169c-1.07788,4.97051 -1.7573,10.01764 -2.55933,15.04434c-0.01022,0.04598 -0.02043,0.08173 -0.02554,0.12771c-0.06641,0.26053 -0.12771,0.52617 -0.1788,0.79692c-0.44443,2.16087 -0.6641,4.35749 -1.04212,6.52858c-0.01533,0.08173 -0.02554,0.15836 -0.04598,0.2401c-0.13282,0.44954 -0.2452,0.9093 -0.34227,1.37417c-1.1494,5.18506 -0.79181,10.76347 -4.04588,15.39171c-44.65282,0.04598 -89.31074,0.05108 -133.96355,0.19412c-3.60145,0.01533 -4.41879,-1.24135 -4.40347,-4.60781c0.10217,-46.95161 -0.08173,-93.90833 0.16347,-140.85994c0.11749,-23.57542 15.97918,-42.77291 38.95691,-48.13166c12.21426,-2.85051 24.44896,-5.5733 36.68366,-8.34718c2.1813,1.37417 3.3307,3.61166 4.69465,5.66014c14.2934,21.45542 28.63788,42.88019 42.92106,64.34072c3.66275,5.50689 3.73426,5.36896 8.61793,1.15451c2.53889,-2.19152 4.52096,-5.64482 8.60771,-5.26169c0.02554,0.00511 0.05619,0.00511 0.08173,0.01022c0.13793,0.01022 0.27075,0.03065 0.41378,0.05619c2.73301,5.34342 3.48395,11.3254 5.44559,16.91402c0.02554,0.09195 0.0613,0.1839 0.09195,0.27586c0.03065,0.09706 0.07152,0.19412 0.10217,0.29629c0.08173,0.25542 0.15325,0.51595 0.22477,0.77648c0.03065,0.13282 0.0613,0.26564 0.09195,0.39846c0.02043,0.10728 0.04598,0.21455 0.06641,0.31672c1.11875,4.97051 5.66525,6.99855 8.88867,10.16067c0.1839,0.1788 0.35759,0.35759 0.53128,0.5466l0.09706,0.19412c1.5121,3.08039 0.12771,6.13012 -0.13282,9.19518z" class="st2"/>
   <path stroke="null" id="svg_5" d="m269.1441,141.34363c-0.58747,1.84414 -1.0268,3.73426 -1.54275,5.60395c-0.73051,1.37417 -1.46101,2.74834 -2.61041,4.89388c-5.94111,-14.68675 -12.45947,-28.42843 -17.09793,-42.7678c-8.9653,-27.73368 -41.00029,-35.59045 -63.49783,-21.30728c-4.19402,2.66149 -8.27566,5.4507 -11.79026,8.99084c-16.60752,16.74544 -33.81272,19.66236 -54.92587,9.05725c-4.68443,-2.34477 -9.05214,-5.3281 -14.15547,-8.40337c-0.16347,-0.09706 -0.32694,-0.19412 -0.49041,-0.29629c0.04598,0.1839 0.08173,0.36781 0.12771,0.55171c1.7573,7.83634 3.37157,14.9626 2.08424,22.49243c-2.19152,12.76087 -8.65369,22.55373 -18.94207,30.17552c-4.83769,3.58101 -4.77128,-1.62448 -6.68694,-3.34602c-5.30766,-14.33426 -8.92954,-28.87797 -8.82737,-44.41783c0.22988,-33.14862 26.99807,-74.15913 72.6879,-78.51662c18.0532,-1.72154 35.69773,-1.05234 52.81609,5.40983c2.63084,0.99104 5.69079,1.90545 7.47875,3.84665c4.52096,4.91431 9.95634,4.93985 15.87701,4.65378c9.64983,-0.45976 19.11576,1.01658 28.09638,4.59248c21.10294,8.39316 29.47055,25.34805 30.39007,46.78814c0.78159,17.92038 -3.57079,35.07961 -8.99084,51.99874z"/>
   <path stroke="null" id="svg_6" fill="#8D76FE" d="m281.64444,488.51276c-24.44385,0.05108 -48.88771,0.09195 -73.32645,0.14304c-4.05099,-4.07653 -2.7892,-9.8133 -4.56694,-14.60501c-0.03065,-0.08173 -0.06641,-0.15836 -0.09195,-0.2401c-0.14304,-0.35248 -0.25542,-0.71518 -0.35759,-1.07277c-0.71007,-2.52867 -0.59769,-5.18506 -0.86333,-7.78525c-0.05108,-0.42911 -0.10217,-0.85822 -0.17369,-1.29243c-0.08684,-0.53128 -0.19412,-1.05745 -0.34227,-1.57851c-0.53128,-4.29619 -1.48655,-8.52598 -2.28858,-12.7813c-0.05108,-0.27075 -0.10217,-0.5466 -0.15325,-0.81735c-0.00511,-0.02043 -0.00511,-0.04598 -0.01022,-0.06641c-0.848,-5.6959 -1.82371,-11.37137 -2.86072,-17.03152c-0.00511,-0.04598 -0.01533,-0.08173 -0.02043,-0.12771c-0.05619,-0.27075 -0.10217,-0.5466 -0.15325,-0.81735c-0.71007,-3.88241 -1.25667,-7.80058 -2.23749,-11.62679c-0.03576,-0.09706 -0.07663,-0.19412 -0.10728,-0.29118c-0.13793,-0.35248 -0.25031,-0.71007 -0.34227,-1.06766c-0.92463,-3.40222 -0.45976,-7.03942 -1.53764,-10.4161c-0.03576,-0.08173 -0.07152,-0.15836 -0.10217,-0.2401c-0.14304,-0.33716 -0.26564,-0.67431 -0.37802,-1.01658c-1.16472,-3.6934 -0.55171,-7.69841 -1.77773,-11.37648c-0.03065,-0.10728 -0.06641,-0.22477 -0.09195,-0.33205c-0.09706,-0.34737 -0.18901,-0.68964 -0.28096,-1.03701c-0.89398,-3.44819 -1.38949,-6.89638 0.37802,-10.33436c0.05108,-0.08173 0.09706,-0.16347 0.15325,-0.2401c0.05108,-0.09195 0.10728,-0.1788 0.16858,-0.26564c2.39586,-3.53504 7.18246,-5.04713 8.27055,-9.68559c0.01533,-0.08684 0.03576,-0.1788 0.0613,-0.26564c0.04598,-0.23499 0.10217,-0.46487 0.16347,-0.68964c0.15836,-0.59769 0.34737,-1.18516 0.56704,-1.76241c0.08173,-0.23499 0.17369,-0.46998 0.26053,-0.70496c0.03576,-0.09195 0.07152,-0.1788 0.10728,-0.26564c2.30901,-5.20039 2.47759,-11.19258 5.85937,-15.9945c0.03576,-0.05619 0.07663,-0.10728 0.11239,-0.16347c0.1788,-0.01533 0.35248,-0.02554 0.52106,-0.02554c4.46477,-0.09195 6.36,4.0612 9.15942,6.37022c3.1519,2.58998 4.30641,2.53378 6.63585,-0.83778c15.15161,-21.94583 30.16019,-43.98872 45.45995,-65.83238c1.84925,-2.63595 3.33581,-5.97687 7.52983,-4.83258c0.08684,0.02043 0.16858,0.05108 0.25542,0.07663c1.10853,0.3627 2.22217,0.73051 3.33581,1.0932c0.52617,1.90034 0.51595,3.84665 0.51084,5.79807c-0.04598,56.51971 0.00511,113.03941 -0.04598,169.56422c-0.00511,6.93725 0.04598,13.82342 2.67682,20.40819c0.53128,1.30265 0.87865,2.73301 -0.07663,4.06631z" class="st2"/>
   <path stroke="null" id="svg_7" fill="#653DC4" d="m456.04635,204.85678c-0.01533,0.6641 -0.03065,1.32308 -0.03065,1.98718c-0.00511,0.73561 -0.09706,1.42014 -0.27075,2.06892c-0.44443,1.74708 -1.46101,3.20299 -2.79431,4.4801c-0.30651,0.29118 -0.63345,0.57214 -0.9706,0.84289c-0.02554,0.02043 -0.05108,0.04598 -0.07663,0.06641c-1.37417,0.99104 -2.89648,1.53253 -4.59248,1.59894c-29.60848,0.1788 -59.21696,0.02554 -88.82544,0.09706c-6.28337,-0.7867 -9.22583,-3.6372 -9.37398,-9.77243c-0.01533,-0.71007 -0.0613,-1.41504 -0.09706,-2.13022c-0.16858,-2.75345 -0.39846,-5.53754 0.38313,-8.2399c0.15325,-0.52617 0.34227,-1.06255 0.58236,-1.58361c0.03576,-4.24 -0.05108,-8.49532 0.15325,-12.73022c0.25031,-5.22082 3.12125,-8.30631 8.36251,-8.32675c29.36327,-0.11239 58.73166,-0.10728 88.10004,-0.00511c5.40983,0.01533 8.36761,3.12636 8.7252,8.66901c0.26053,4.0561 0.13282,8.13773 0.17369,12.19894c0.04598,0.16858 0.08684,0.33205 0.12771,0.49552c0,0.01022 0.00511,0.01533 0.00511,0.02043c0.01022,0.05108 0.02554,0.09706 0.03576,0.14814c0.01533,0.07152 0.03065,0.13793 0.05108,0.20945c0.6079,3.28983 0.41889,6.6001 0.33205,9.90525z" class="st3"/>
   <path stroke="null" id="svg_8" fill="#DDDEFE" d="m275.24357,287.57764c-3.02419,-0.31672 -4.24,1.82882 -5.68569,3.92839c-15.84636,23.00327 -31.77956,45.95547 -47.60549,68.97407c-1.76241,2.56954 -2.93735,3.89263 -5.72655,0.89398c-2.99354,-3.2081 -6.62053,-5.82872 -9.97677,-8.69455c-0.2401,0.07663 -0.46998,0.12771 -0.68453,0.14814c-1.96164,0.23499 -2.96289,-1.50188 -4.11229,-2.65639c-3.72916,-3.75981 -7.98448,-6.87595 -11.98438,-10.30371c-0.02554,-0.01533 -0.05108,-0.03576 -0.07663,-0.0613c-0.38313,-0.27586 -0.75605,-0.55682 -1.12896,-0.84289c-4.11229,-3.16212 -7.68308,-6.94236 -11.57571,-10.34969c-1.35373,-1.18516 -2.75855,-2.45716 -3.02419,-4.40347l-0.00511,0c-0.01022,-0.11749 -0.02554,-0.2452 -0.03065,-0.36781c0,-0.01533 0.00511,-0.03576 0.01022,-0.05619c0.2452,-1.73687 1.53764,-2.67682 2.83007,-3.57079c20.19875,-13.9307 40.07566,-28.32115 60.44809,-41.99643c12.66891,3.19277 25.57282,5.43026 38.07826,9.29735c0.08173,0.01022 0.16347,0.03576 0.25031,0.0613z" class="st4"/>
   <path stroke="null" id="svg_9" fill="#DDDEFE" d="m173.41717,323.76067c-0.01022,0.03065 -0.01533,0.07152 -0.02554,0.10217c-0.02043,0.07152 -0.03576,0.14304 -0.0613,0.20945c-1.5172,5.14419 -6.79932,6.83508 -9.95634,10.49783c-1.39971,1.61426 -3.3307,2.7892 -4.93475,4.29619c-0.18901,0.1788 -0.37802,0.35759 -0.55682,0.55171c-0.06641,0.05108 -0.13793,0.09195 -0.19923,0.14304c-5.7521,4.01012 -10.00231,9.90525 -16.36742,13.14911c-0.0613,0.03065 -0.11749,0.0613 -0.1788,0.09195c-3.96925,2.37542 -7.24887,5.58863 -10.54381,8.76096c-1.80839,1.73687 -3.33581,2.48781 -5.08289,-0.15325c-16.32144,-24.7146 -32.68886,-49.39344 -49.03585,-74.08761c-0.08684,-0.13793 -0.0613,-0.34227 -0.08684,-0.51595c10.87585,-3.68829 22.17571,-5.71634 33.27633,-8.51576c12.52588,7.36125 23.93812,16.36742 35.95315,24.48983c7.91296,5.34853 15.78506,10.77879 23.45793,16.4747c1.696,1.24646 3.5759,2.34988 4.34217,4.50564z" class="st4"/>
   <path stroke="null" id="svg_10" fill="#806AE5" d="m305.95036,488.52297c-8.10198,-0.00511 -16.20395,-0.00511 -24.31103,-0.01022c-4.13272,-7.93851 -4.35239,-16.47981 -4.32684,-25.18458c0.10728,-56.04973 0.04598,-112.09946 0.09195,-168.14408c0.00511,-2.1813 -0.89398,-4.64357 1.17494,-6.50814c5.08289,1.10342 10.16578,2.21706 15.25378,3.32048c3.37667,2.52867 1.79817,6.15055 2.08935,9.35865c0,0.07663 0.00511,0.14814 0.00511,0.22477c0.00511,0.33716 0.01533,0.67431 0.02043,1.01147c0.08173,3.83132 0.10217,7.67798 -0.03576,11.51441c0,0.07663 0.00511,0.15836 0.00511,0.23499c0.00511,0.33716 0.01022,0.6692 0.01533,1.00636c0.0613,3.0906 0.08684,6.18631 -0.04598,9.27691c0,0.11239 0,0.22988 0.00511,0.34227c0,0.33205 0.00511,0.6641 0.01022,0.99614c0.03065,1.73176 0.06641,3.46863 -0.03065,5.20549c0,0.0613 0.00511,0.11239 0.00511,0.17369c0.00511,0.32694 0.01533,0.65899 0.01533,0.98593c0.02043,1.11875 0.03065,2.23239 0.00511,3.35624c-0.00511,0.32183 -0.01022,0.64877 -0.02554,0.97571l0,0.03065c0.05619,2.50313 0.07152,5.00626 0,7.5094c-0.00511,0.21966 -0.01022,0.43933 -0.01533,0.65899c0,0.10217 0,0.19923 0.00511,0.30651c0.00511,1.67557 0.06641,3.36135 -0.02554,5.03692l0,0.27586c0,0.32694 0.00511,0.64877 0.00511,0.97571c0.01022,0.76626 0.02043,1.53764 0,2.3039c-0.00511,0.26053 -0.01022,0.51595 -0.02554,0.77648l0,0.19412c0.00511,1.0932 0.02043,2.19663 0,3.28983c-0.00511,0.25031 -0.01022,0.49552 -0.02043,0.74583l0,0.21966c0,1.31287 0.00511,2.62063 -0.02554,3.9386l0,0.31672c0,0.31672 0,0.62834 0.00511,0.93995c0,0.68453 0.00511,1.37417 -0.00511,2.0587c0,0.06641 0.00511,0.13282 0.00511,0.18901c0.00511,0.03576 0.00511,0.07152 0.00511,0.10217l0,0.05619c0.01022,0.30651 0.01533,0.6028 0.01533,0.90419c0,0.14814 -0.00511,0.29118 -0.00511,0.43422c0.03576,0.59258 0.03576,1.19026 0.03576,1.78795c-0.00511,0.32183 -0.00511,0.64877 -0.00511,0.9706c0,0.23499 0,0.45976 0.01022,0.68964c0.08684,2.95778 0.09195,5.92067 0.05108,8.87846l0,0.07663c0.01022,0.3014 0.02043,0.6028 0.03065,0.90419c0.05108,1.81349 0.04598,3.62188 0,5.43026c-0.00511,0.34227 -0.01022,0.68453 -0.02043,1.0268l0,0.02554c0.08173,2.49802 0.08684,5.00116 0.02043,7.49918c-0.00511,0.31161 -0.01022,0.62323 -0.02043,0.92973l0,0.05108c0.08684,2.80964 0.09706,5.61928 0,8.42381c0,0.03576 0,0.07152 0.00511,0.10728c0.01022,0.32694 0.01533,0.64877 0.02043,0.97571c0.05108,1.80839 0.05108,3.61677 0,5.42516c0,0.33716 -0.01022,0.67431 -0.02043,1.01147l0,0.02554c0.08684,2.85051 0.09706,5.70101 0.02043,8.55152c-0.00511,0.30651 -0.01022,0.6028 -0.02043,0.9093l0,0.05619c0.08173,2.81986 0.10217,5.6346 0,8.45957l0,0.09706c0.01022,0.33205 0.01533,0.65899 0.02043,0.99104c0.05619,2.17108 0.0613,4.34217 -0.00511,6.51325c0,0.29118 -0.01022,0.57214 -0.02043,0.85822l0,0.12771c0.05619,2.49802 0.08684,5.00626 0.01022,7.5094c-0.00511,0.2452 -0.01533,0.49041 -0.02554,0.73561c0,0.08684 0,0.16858 0.00511,0.25542c0.02554,2.03826 0.08173,4.08675 -0.02043,6.12501l0,0.25031c0.00511,0.33205 0.00511,0.65899 0.01022,0.99104c0.01533,1.36906 0.03576,2.73812 -0.03065,4.10718l0,0.21966c0.00511,0.32694 0.01022,0.65388 0.01533,0.98082c0.01533,1.05234 0.02554,2.10978 -0.02043,3.16212l0,0.10728c0.00511,0.31672 0.00511,0.63855 0.00511,0.95528c0.01022,1.13407 0.00511,2.27325 -0.02043,3.40222c0,0.20945 -0.00511,0.41378 -0.01022,0.62323l0,0.33716c-0.00511,1.23624 -0.01022,2.4827 -0.04598,3.71894c0,0.1788 0.00511,0.35248 0.00511,0.53128c0,0.2452 0,0.49041 -0.00511,0.74072c0,0.16347 -0.00511,0.33205 -0.00511,0.50063c-0.00511,0.16858 -0.00511,0.33716 -0.01022,0.50573c-0.00511,0.12771 -0.00511,0.25542 -0.00511,0.38313c0.01533,1.56829 0.46487,3.00376 1.17494,4.37282c0.10217,0.18901 0.19923,0.36781 0.31161,0.55682c0.01533,0.03065 0.03576,0.0613 0.05619,0.09195c1.41504,4.3626 6.63585,4.9041 8.6639,8.63325z" class="st5"/>
   <path stroke="null" id="svg_11" fill="#E57F57" d="m228.95095,281.53437c-28.95971,16.34188 -59.2425,20.352 -90.83305,8.89378c-8.55152,-3.10593 -17.16944,-6.61031 -23.75421,-13.43518c4.46477,-3.60655 7.31017,-8.23479 8.7252,-13.76723c10.21687,6.2987 20.77089,11.79537 32.66332,14.3547c2.29879,0.49552 4.53118,0.4853 6.80954,0.62323c1.92077,1.01147 3.96925,0.424 5.97176,0.49041c0.12771,0 0.25542,0.00511 0.38313,0.02043c0.11239,0 0.22477,0.01022 0.33716,0.02554c2.2426,0 4.4801,-0.00511 6.72781,0l0.25031,0c0.05108,-0.00511 0.09706,-0.01022 0.14814,-0.01022c2.81986,-0.23499 5.70612,0.57725 8.47489,-0.52617c13.11846,-1.29754 25.10795,-5.86448 36.39248,-12.51055c0.88376,-0.51595 1.85947,-0.88376 2.7892,-1.32308c1.55296,5.16463 4.29619,9.50169 8.74564,12.66891c0.15836,2.72279 -2.09446,3.50949 -3.83132,4.49542z" class="st6"/>
   <path stroke="null" id="svg_12" fill="#FE8C61" d="m236.91499,278.20878c-0.2452,2.61041 -2.67682,3.10082 -4.30641,4.25532c-19.48356,13.78766 -39.02843,27.50891 -58.55286,41.24549c-0.08684,0.32694 -0.21966,0.49041 -0.39335,0.49552l-0.00511,0c-0.09706,0 -0.20945,-0.04598 -0.32694,-0.13282c-0.04598,-0.03065 -0.08684,-0.07152 -0.13282,-0.11239c-19.21793,-13.52202 -38.45118,-27.02361 -57.61802,-40.61204c-2.09957,-1.48655 -4.85301,-2.31923 -5.91557,-5.05224c1.56829,-0.43422 3.13658,-0.86333 4.69976,-1.29754c5.44048,2.88626 10.77369,5.99219 16.32655,8.61793c28.9546,13.6906 58.01137,12.75576 86.95575,0.01533c5.28212,-2.32434 10.80944,-4.45455 15.12607,-8.59238c1.37928,0.38824 2.76366,0.77648 4.14294,1.16983z" class="st1"/>
   <path stroke="null" id="svg_13" fill="#DEDFFE" d="m208.31798,488.65579c-23.12077,-0.03065 -46.24665,-0.0613 -69.36742,-0.09195c0.80202,-5.7521 1.61937,-11.48887 3.28983,-17.07749l0,-0.00511c0.38313,0.02554 0.76116,0.05619 1.14429,0.08173c17.66496,1.24135 35.36057,0.19923 53.03575,0.57214c2.30901,0.05108 4.70998,-0.27075 6.87595,0.6028c0.61301,0.2452 1.2107,0.59258 1.78284,1.07277c1.07788,4.94496 2.16087,9.89504 3.23875,14.84511z" class="st7"/>
   <path stroke="null" id="svg_14" fill="#DF8175" d="m184.84984,278.20367c-2.61041,2.10467 -5.66525,0.6028 -8.48,1.03701c-0.35759,-0.22988 -0.47508,-0.45976 -0.35248,-0.68453c0.11749,-0.22477 0.2401,-0.33716 0.3627,-0.33716c2.81986,-0.00511 5.64482,-0.01022 8.46978,-0.01533z" class="st8"/>
   <path stroke="null" id="svg_15" fill="#EC876E" d="m176.38006,278.21388c-0.01022,0.34227 -0.01022,0.68453 -0.01022,1.02169c-2.4827,0 -4.97051,0.00511 -7.4532,0.00511c-0.34737,-0.22988 -0.45976,-0.45465 -0.35248,-0.68964c0.11239,-0.22988 0.22477,-0.34737 0.34227,-0.34737c2.49292,0.00511 4.98072,0.01022 7.47364,0.01022z" class="st9"/>
   <path stroke="null" id="svg_16" fill="#DE8175" d="m168.90642,278.20878c0.01022,0.34737 0.01022,0.68964 0.01022,1.03701c-2.12511,-0.32694 -4.50053,0.87865 -6.36,-1.04212c2.11489,0 4.23489,0 6.34978,0.00511z" class="st10"/>
   <path stroke="null" id="svg_17" fill="#E1E0E5" d="m141.13187,352.79701c4.89899,-5.20549 10.15557,-9.9972 16.08646,-14.02265c10.98313,0.85311 21.96626,0.96039 32.9545,0.03065c5.35875,4.62313 10.71749,9.24116 16.07624,13.86429c-1.8186,5.64482 -3.64231,11.29475 -5.46602,16.93956c-2.67682,0.7867 -4.20424,-1.10853 -5.85937,-2.58487c-2.20684,-1.96675 -4.08164,-4.29108 -6.55923,-5.95643c-3.95393,-3.27451 -7.71884,-6.75846 -11.19258,-10.5387c-2.1813,-2.37031 -4.14805,-2.56443 -6.81976,-0.38313c-4.25022,3.46863 -8.01002,7.50429 -12.47479,10.71238c-3.85176,3.30005 -7.12626,7.2693 -11.45822,10.01764c-2.31923,-5.85937 -3.91306,-11.9333 -5.28723,-18.07875z" class="st11"/>
   <path stroke="null" id="svg_18" fill="#E6E7FE" d="m197.69755,431.25744c1.74708,5.54776 2.39586,11.28964 3.03952,17.03152c-1.64492,1.83393 -3.81089,2.53378 -6.15566,2.58487c-14.07373,0.3014 -28.14747,0.28096 -42.21609,0c-2.55422,-0.05108 -5.40983,-0.29629 -5.90535,-3.82622c0.49552,-6.46217 1.43036,-12.84771 3.26429,-19.08c2.93735,1.36395 6.04328,1.68578 9.25137,1.67046c10.38544,-0.05108 20.77089,-0.04087 31.15633,0c2.62063,0.00511 5.3332,-0.25031 7.56559,1.61937z" class="st12"/>
   <path stroke="null" id="svg_19" fill="#E2E3FE" d="m146.45997,447.04249c1.71133,2.26814 4.16337,2.32945 6.69205,2.32434c13.26149,-0.02554 26.51788,0.04598 39.77937,-0.0613c2.6053,-0.02043 5.20549,-0.6641 7.81079,-1.01658c1.15451,4.50564 2.32434,9.01128 2.24771,13.72125c1.05745,3.38689 -1.65513,3.39711 -3.5759,3.69851c-3.47884,0.54149 -7.01899,0.25031 -10.53359,0.25542c-12.66381,0.01533 -25.3225,0.04598 -37.98631,-0.02554c-2.58487,-0.01533 -5.34342,0.39846 -7.48385,-1.70111c0.41378,-5.83894 1.26689,-11.59614 3.04973,-17.19499z" class="st13"/>
   <path stroke="null" id="svg_20" fill="#EAEAFE" d="m197.69755,431.25744c-14.46197,0.01022 -28.92906,0 -43.39103,0.03576c-2.40607,0.00511 -4.79171,0.1839 -4.57716,-3.3307c0.07152,-4.04077 0.7867,-7.96916 2.06892,-11.79537c11.872,1.37417 23.78997,0.36781 35.68241,0.68964c2.76877,0.07663 5.66014,-0.3627 8.03046,1.66024c1.26689,4.15826 2.03826,8.39826 2.18641,12.74043z" class="st14"/>
   <path stroke="null" id="svg_21" fill="#E0E1FE" d="m143.40002,464.23748c18.16559,0 36.32607,0.02554 54.49166,-0.04087c1.89012,-0.00511 4.4852,1.04723 5.09311,-2.18641c2.09446,3.68318 0.26564,8.06622 2.09446,11.79537c-19.08511,0 -38.1651,0.03576 -57.25021,-0.05108c-2.02805,-0.01022 -4.85812,1.23113 -5.58863,-2.27325c0.19412,-2.44694 -0.43933,-5.02159 1.15961,-7.24376z" class="st15"/>
   <path stroke="null" id="svg_22" fill="#ECECFE" d="m195.51114,418.52211c-12.88858,0 -25.78226,0.02554 -38.67084,-0.03065c-1.94631,-0.01022 -4.4852,0.87865 -5.04202,-2.31923c-0.07663,-4.36771 0.77137,-8.57706 2.17108,-12.68935c2.92202,1.42014 6.02284,1.73687 9.23094,1.71643c7.73928,-0.05619 15.48366,-0.04087 23.22294,-0.00511c2.45716,0.01022 4.9654,-0.12771 7.03942,1.60405c2.03826,3.67296 0.2452,8.01002 2.04848,11.72385z" class="st16"/>
   <path stroke="null" id="svg_23" fill="#EEEEFE" d="m193.46266,406.79826c-11.64212,0.01022 -23.28935,0 -34.93147,0.04598c-2.43672,0.01022 -4.77128,0.11239 -4.56183,-3.36135c-0.06641,-4.06631 0.6692,-7.98959 2.0587,-11.79537c9.22072,1.36395 18.49764,0.46998 27.7439,0.73561c2.60019,0.07663 5.29234,-0.25542 7.49407,1.65002c2.13022,3.9999 0.17369,8.70477 2.19663,12.72511z" class="st17"/>
   <path stroke="null" id="svg_24" fill="#F3F3FE" d="m199.69495,372.79142c-0.49552,5.25147 -5.50178,6.51325 -8.48,9.5681c-11.71875,1.15961 -23.45282,0.6028 -35.18178,0.2452c-3.92328,-2.93224 -8.7201,-5.11354 -9.37398,-10.86564c1.36906,-1.32308 3.11104,-1.60916 4.88877,-1.62448c14.25253,-0.11239 28.50506,-0.16858 42.75248,0.03065c2.15576,0.03576 4.23489,0.46487 5.39451,2.64617z" class="st18"/>
   <path stroke="null" id="svg_25" fill="#F5F5FE" d="m199.69495,372.79142c-2.06381,-1.31798 -4.38304,-1.04723 -6.65629,-1.04723c-15.45812,-0.00511 -30.92135,-0.00511 -46.37947,-0.00511c-0.15325,-0.26564 -0.23499,-0.55171 -0.23499,-0.86333c2.61041,-4.59759 7.09051,-7.32549 10.80434,-10.82988c10.62554,0.83267 21.25619,0.9093 31.88173,0.02043c4.3626,2.6053 6.68183,7.70863 11.67788,9.54255c-0.36781,1.06255 -0.73051,2.12511 -1.0932,3.18255z" class="st19"/>
   <path stroke="null" id="svg_26" fill="#F1F1FE" d="m156.03828,382.60472c0.23499,-0.25542 0.45976,-0.7254 0.71007,-0.73561c11.49908,-0.62323 23.00838,-1.50188 34.47171,0.49041c-1.98718,3.91306 -0.81735,7.81079 0.05108,11.71364c-10.06872,0 -20.14255,0.03065 -30.21127,-0.02554c-1.96164,-0.01022 -4.4801,0.82246 -5.0267,-2.3601c-0.63855,-3.0293 1.77263,-6.05349 0.00511,-9.08279z" class="st20"/>
   <path stroke="null" id="svg_27" fill="#E3E2E5" d="m190.17283,338.81012c-0.87865,1.92588 -2.55422,2.12511 -4.39836,2.12c-8.056,-0.03065 -16.11711,-0.03065 -24.17311,0c-1.85436,0.00511 -3.5146,-0.22477 -4.37793,-2.15065c5.3281,-4.93985 10.65619,-9.87971 15.97918,-14.81956c0.26564,-0.14814 0.55171,-0.23499 0.85311,-0.25031c4.68954,5.7572 10.46207,10.36501 16.11711,15.10053z" class="st21"/>
   <path stroke="null" id="svg_28" fill="#F8F7FE" d="m189.11028,360.07142c-1.05745,1.31287 -2.49802,2.02294 -4.10718,2.03826c-7.89253,0.06641 -15.79017,0.06641 -23.6827,-0.00511c-1.60405,-0.01533 -3.04973,-0.73561 -4.09696,-2.0587c4.22467,-3.69851 8.74564,-7.11605 12.58718,-11.18236c3.4533,-3.65253 5.66014,-1.86969 8.26544,0.67431c3.6321,3.56058 7.35104,7.0292 11.03422,10.53359z" class="st22"/>
   <circle stroke="null" id="svg_29" fill="#653DC4" r="47.4318" cy="300.59904" cx="363.08819" class="st3"/>
   <path stroke="null" id="svg_30" fill="#653DC4" d="m410.51488,300.59393l-47.4318,0l0,-47.4318c26.19605,0 47.4318,21.23576 47.4318,47.4318z" class="st3"/>
   <path stroke="null" id="svg_31" fill="#FFFFFF" d="m410.51488,300.59393l-47.4318,0l0,-47.4318c26.19605,0 47.4318,21.23576 47.4318,47.4318z" class="st23"/>
   <path stroke="null" id="svg_32" fill="#FFFFFF" d="m491.95352,278.78092l-63.79411,0c-5.7572,0 -10.4212,-4.664 -10.4212,-10.4212l0,0c0,-5.7572 4.664,-10.4212 10.4212,-10.4212l63.79411,0c5.7572,0 10.4212,4.664 10.4212,10.4212l0,0c0,5.7521 -4.66911,10.4212 -10.4212,10.4212z" class="st23"/>
   <path stroke="null" id="svg_33" fill="#FFFFFF" d="m497.72605,291.35788l-42.11903,0c-2.56443,0 -4.64867,-2.07913 -4.64867,-4.64867l0,0c0,-2.56443 2.07913,-4.64867 4.64867,-4.64867l42.11903,0c2.56443,0 4.64867,2.07913 4.64867,4.64867l0,0c0,2.56443 -2.08424,4.64867 -4.64867,4.64867z" class="st23"/>
   <path stroke="null" id="svg_34" fill="#FFFFFF" d="m444.13859,291.35788l-21.75171,0c-2.56443,0 -4.64867,-2.07913 -4.64867,-4.64867l0,0c0,-2.56443 2.07913,-4.64867 4.64867,-4.64867l21.75171,0c2.56443,0 4.64867,2.07913 4.64867,4.64867l0,0c-0.00511,2.56443 -2.08424,4.64867 -4.64867,4.64867z" class="st23"/>
   <path stroke="null" id="svg_35" fill="#FFFFFF" d="m494.32384,387.19209l-46.38968,0c-5.7572,0 -10.4212,-4.664 -10.4212,-10.4212l0,0c0,-5.7572 4.664,-10.4212 10.4212,-10.4212l46.38968,0c5.7572,0 10.4212,4.664 10.4212,10.4212l0,0c0,5.7521 -4.664,10.4212 -10.4212,10.4212z" class="st23"/>
   <path stroke="null" id="svg_36" fill="#FFFFFF" d="m500.10148,399.76905l-28.27518,0c-2.56443,0 -4.64867,-2.07913 -4.64867,-4.64867l0,0c0,-2.56443 2.07913,-4.64867 4.64867,-4.64867l28.27518,0c2.56443,0 4.64867,2.07913 4.64867,4.64867l0,0c-0.00511,2.56443 -2.08424,4.64867 -4.64867,4.64867z" class="st23"/>
   <path stroke="null" id="svg_37" fill="#FFFFFF" d="m472.02042,438.52674l-28.28029,0c-2.56443,0 -4.64867,-2.07913 -4.64867,-4.64867l0,0c0,-2.56443 2.07913,-4.64867 4.64867,-4.64867l28.27518,0c2.56443,0 4.64867,2.07913 4.64867,4.64867l0,0c0,2.56954 -2.07913,4.64867 -4.64357,4.64867z" class="st23"/>
   <path stroke="null" id="svg_38" fill="#FFFFFF" d="m460.55198,399.76905l-18.39036,0c-2.56443,0 -4.64867,-2.07913 -4.64867,-4.64867l0,0c0,-2.56443 2.07913,-4.64867 4.64867,-4.64867l18.39036,0c2.56443,0 4.64867,2.07913 4.64867,4.64867l0,0c-0.00511,2.56443 -2.08424,4.64867 -4.64867,4.64867z" class="st23"/>
   <path stroke="null" id="svg_39" fill="#FFFFFF" d="m442.16163,412.34602l28.27518,0c2.56443,0 4.64867,-2.07913 4.64867,-4.64867l0,0c0,-2.56443 -2.07913,-4.64867 -4.64867,-4.64867l-28.27518,0c-2.56443,0 -4.64867,2.07913 -4.64867,4.64867l0,0c0,2.56443 2.07913,4.64867 4.64867,4.64867z" class="st23"/>
   <path stroke="null" id="svg_40" fill="#FFFFFF" d="m442.16163,424.92298l57.93985,0c2.56443,0 4.64867,-2.07913 4.64867,-4.64867l0,0c0,-2.56443 -2.07913,-4.64867 -4.64867,-4.64867l-57.93985,0c-2.56443,0 -4.64867,2.07913 -4.64867,4.64867l0,0c0,2.56443 2.07913,4.64867 4.64867,4.64867z" class="st23"/>
   <path stroke="null" id="svg_41" fill="#FFFFFF" d="m481.71112,412.34602l18.39036,0c2.56443,0 4.64867,-2.07913 4.64867,-4.64867l0,0c0,-2.56443 -2.07913,-4.64867 -4.64867,-4.64867l-18.39036,0c-2.56443,0 -4.64867,2.07913 -4.64867,4.64867l0,0c0,2.56443 2.07913,4.64867 4.64867,4.64867z" class="st23"/>
   <path stroke="null" id="svg_42" fill="#FFFFFF" d="m422.38688,319.12733l42.11903,0c2.56443,0 4.64867,-2.07913 4.64867,-4.64867l0,0c0,-2.56443 -2.07913,-4.64867 -4.64867,-4.64867l-42.11903,0c-2.56443,0 -4.64867,2.07913 -4.64867,4.64867l0,0c0,2.56954 2.07913,4.64867 4.64867,4.64867z" class="st23"/>
   <path stroke="null" id="svg_43" fill="#FFFFFF" d="m475.97434,319.12733l21.75171,0c2.56443,0 4.64867,-2.07913 4.64867,-4.64867l0,0c0,-2.56443 -2.07913,-4.64867 -4.64867,-4.64867l-21.75171,0c-2.56443,0 -4.64867,2.07913 -4.64867,4.64867l0,0c0,2.56954 2.08424,4.64867 4.64867,4.64867z" class="st23"/>
   <path stroke="null" id="svg_44" fill="#FFFFFF" d="m497.72605,305.2426l-75.33917,0c-2.56443,0 -4.64867,-2.07913 -4.64867,-4.64867l0,0c0,-2.56443 2.07913,-4.64867 4.64867,-4.64867l75.33917,0c2.56443,0 4.64867,2.07913 4.64867,4.64867l0,0c0,2.56954 -2.08424,4.64867 -4.64867,4.64867z" class="st23"/>
   <polyline stroke="#FFFFFF" id="svg_45" stroke-miterlimit="10" stroke-linecap="round" stroke-width="8" fill="none" points="317.2093505859375,420.58080291748047 352.01312255859375,392.37203216552734 369.6780700683594,411.5439987182617 408.9670104980469,383.0593490600586 " class="st24"/>
   <path stroke="#FFFFFF" id="svg_46" stroke-miterlimit="10" stroke-linecap="round" stroke-width="8" fill="none" d="m420.01146,437.48972l-106.78158,0c-3.22342,0 -5.83383,-2.61041 -5.83383,-5.83383l0,-59.40086c0,-3.22342 2.61041,-5.83383 5.83383,-5.83383l106.78158,0c3.22342,0 5.83383,2.61041 5.83383,5.83383l0,59.40086c0,3.22342 -2.61041,5.83383 -5.83383,5.83383z" class="st24"/>
  </g>
 </g>
</svg>